<svg width="455" height="574" viewBox="0 0 455 574" fill="none" xmlns="http://www.w3.org/2000/svg">
<g clip-path="url(#clip0_13_3)">
<path fill-rule="evenodd" clip-rule="evenodd" d="M17.3332 259.033L53.2675 223.082C76.9361 199.379 115.747 199.379 139.415 223.082L350.538 434.441C374.223 458.144 374.223 497.022 350.538 520.707L314.637 556.625C290.901 580.361 252.107 580.361 228.473 556.625L17.3332 345.316C-6.36921 321.58 -6.36921 282.769 17.3332 259.033Z" fill="#228BE6"/>
<path fill-rule="evenodd" clip-rule="evenodd" d="M103.777 53.7281L139.711 17.7768C163.38 -5.92561 202.19 -5.92561 225.859 17.7768L436.981 229.136C460.667 252.839 460.667 291.717 436.981 315.402L401.081 351.32C377.345 375.056 338.551 375.056 314.916 351.32L103.777 140.011C80.0744 116.275 80.0744 77.4643 103.777 53.7281Z" fill="#F06595"/>
</g>
<defs>
<clipPath id="clip0_13_3">
<rect width="455" height="574" fill="white"/>
</clipPath>
</defs>
</svg>
