<svg width="178" height="177" viewBox="0 0 178 177" fill="none" xmlns="http://www.w3.org/2000/svg">
<path fill-rule="evenodd" clip-rule="evenodd" d="M8.98956 76.4636L20.0521 65.3958C27.3385 58.099 39.2864 58.099 46.5729 65.3958L111.568 130.464C118.859 137.76 118.859 149.729 111.568 157.021L100.516 168.078C93.2083 175.385 81.2656 175.385 73.9896 168.078L8.98956 103.026C1.69269 95.7188 1.69269 83.7708 8.98956 76.4636Z" fill="#083D77"/>
<path fill-rule="evenodd" clip-rule="evenodd" d="M51.9844 35.1979L78.5208 8.64063C84.5938 2.55208 94.526 2.55208 100.609 8.64063L127.141 35.1979C133.229 41.2865 133.229 51.2448 127.141 57.3229L100.609 83.875C94.526 89.9583 84.5938 89.9583 78.5208 83.875L51.9844 57.3229C45.9063 51.2448 45.9063 41.2865 51.9844 35.1979Z" fill="#DA4167"/>
<path fill-rule="evenodd" clip-rule="evenodd" d="M103.484 93.3958L136.635 60.1927C141.026 55.8229 148.177 55.8229 152.547 60.1927L172.01 79.6823C176.396 84.0573 176.396 91.2344 172.01 95.6146L138.854 128.807C134.474 133.182 127.312 133.182 122.932 128.807L103.484 109.333C99.1042 104.953 99.1042 97.7761 103.484 93.3958Z" fill="#F4D35E"/>
</svg>
