<svg width="85" height="82" viewBox="0 0 85 82" fill="none" xmlns="http://www.w3.org/2000/svg">
<path fill-rule="evenodd" clip-rule="evenodd" d="M82.0805 48.0279C80.7746 48.0598 79.486 47.7272 78.1734 47.8448C77.9663 47.863 77.5964 47.7939 77.5566 47.6779C77.166 46.5276 75.8613 46.6656 75.1298 45.9213C74.4816 45.2623 74.4244 44.7408 74.7359 44.0756C75.9429 41.4992 77.0041 38.8649 77.9895 36.1983C78.2488 35.4966 78.5035 34.7892 78.6936 34.0664C78.8759 33.3739 79.4702 33.1523 79.9892 32.9609C80.5525 32.7534 80.6192 33.4352 80.9187 33.7268C82.3233 35.0949 82.3647 36.9476 82.7747 38.6719C83.3041 40.8953 83.7808 43.1333 84.3818 45.3376C84.8818 47.1734 84.2944 48.322 82.0805 48.0279Z" fill="black"/>
<path fill-rule="evenodd" clip-rule="evenodd" d="M67.7816 11.9669C67.8218 12.9125 67.2158 13.5715 66.1559 13.6958C64.6801 13.8685 63.2047 14.069 61.7235 14.17C60.3707 14.2624 59.6612 13.1577 58.9865 12.2941C58.5221 11.6993 58.8386 10.8465 59.317 10.1361C60.9175 7.75861 62.1062 5.16322 63.1943 2.52062C63.384 2.06003 63.5829 1.63589 64.1785 1.55926C64.823 1.47601 64.9522 1.96311 65.2504 2.3479C66.141 3.49731 66.3332 4.88322 66.6757 6.22109C67.1599 8.11399 67.6184 10.0123 67.7816 11.9669Z" fill="black"/>
<path fill-rule="evenodd" clip-rule="evenodd" d="M64.6836 33.1274C64.6824 34.3223 65.0071 35.2593 63.8846 35.799C63.6183 35.927 63.3826 36.1005 63.1039 36.052C61.8493 35.8333 60.6245 35.9033 59.4788 36.4716C58.5829 36.9165 58.0792 36.569 57.414 35.9145C56.137 34.6574 56.1059 34.1517 56.9103 32.5955C58.196 30.1087 59.6527 27.6893 60.4517 24.9709C60.5677 24.5762 60.6957 24.1752 60.8891 23.8153C61.2897 23.0706 62.0153 23.0569 62.5691 23.6873C63.7364 25.0165 63.8689 26.6886 64.1166 28.3065C64.378 30.0134 64.5242 31.7377 64.6836 33.1274Z" fill="black"/>
<path fill-rule="evenodd" clip-rule="evenodd" d="M65.5465 77.2082C64.2782 77.0645 63.261 76.3724 62.3725 75.5382C62.0511 75.2362 62.0855 74.6211 62.3199 74.1473C63.1073 72.5559 63.4146 70.7894 64.236 69.1818C64.6237 68.4226 64.7861 67.3656 65.071 66.4531C65.2711 65.8107 65.5929 65.1011 66.365 65.0419C67.1342 64.9831 67.5405 65.6885 67.8656 66.2369C68.6961 67.6402 68.974 69.2539 69.3025 70.8217C69.6616 72.5365 69.8919 74.2802 70.1446 76.0166C70.2452 76.7104 69.7801 77.149 69.848 77.7778C69.884 78.1128 69.4591 78.1613 69.0556 78.0478C67.8988 77.7231 66.7179 77.4824 65.5465 77.2082Z" fill="black"/>
<path fill-rule="evenodd" clip-rule="evenodd" d="M48.037 21.5233C48.0399 22.6433 47.4559 23.166 46.2291 22.944C45.225 22.7621 44.226 22.864 43.2464 22.8711C42.0361 22.8802 41.2396 22.3479 40.4182 21.6301C39.6611 20.9682 39.6234 20.2007 40.0566 19.4158C41.4397 16.9128 42.5741 14.3095 43.4626 11.5911C43.8089 10.5324 44.5259 10.4682 45.2731 11.3062C45.785 11.8798 46.1603 12.5235 46.3906 13.2376C47.2691 15.9572 47.762 18.7568 48.037 21.5233Z" fill="black"/>
<path fill-rule="evenodd" clip-rule="evenodd" d="M28.0457 31.5707C27.1817 31.5292 26.4386 31.557 25.6877 31.4298C23.8995 31.1275 23.3325 30.5956 23.6245 28.8344C23.9977 26.5833 24.2595 24.3002 24.9727 22.1153C25.1231 21.6547 25.2842 21.1725 25.558 20.7828C26.0393 20.0981 26.6445 19.8927 27.3399 20.574C27.9343 21.1564 28.4694 21.7752 28.8319 22.532C29.8541 24.6663 30.6498 26.8836 31.3647 29.1376C31.7445 30.3359 30.9029 31.4385 29.7282 31.4816C29.1284 31.5031 28.5295 31.5446 28.0457 31.5707Z" fill="black"/>
<path fill-rule="evenodd" clip-rule="evenodd" d="M46.5905 67.3849C45.8134 67.5481 45.0799 67.7817 44.2614 67.6202C43.0557 67.3824 41.7025 65.5807 42.0844 64.4582C42.9322 61.9663 43.4429 59.385 44.2125 56.8746C44.3877 56.3021 44.5108 55.6618 45.2687 55.5694C46.0309 55.4766 46.3378 56.069 46.5992 56.5937C47.9105 59.2248 48.7729 62.0276 49.6357 64.8243C49.8904 65.6507 49.5996 66.3047 48.7571 66.7798C48.0509 67.1782 47.2234 66.9003 46.5905 67.3849Z" fill="black"/>
<path fill-rule="evenodd" clip-rule="evenodd" d="M30.6127 8.5661C30.7357 10.7452 29.7644 11.7306 27.5762 12.1547C26.4293 12.3772 25.612 11.883 24.7285 11.5082C23.6984 11.0708 23.3128 10.2904 23.6143 9.05859C24.0025 7.47427 24.6892 6.02042 25.2616 4.51811C25.7297 3.28959 26.184 2.06066 26.5887 0.809771C26.9106 -0.184312 27.3169 -0.149105 28.1391 0.306516C29.5614 1.09433 29.8468 2.40817 30.0597 3.76717C30.3087 5.35646 30.4338 6.96563 30.6127 8.5661Z" fill="black"/>
<path fill-rule="evenodd" clip-rule="evenodd" d="M20.025 57.0984C20.018 56.2833 20.2839 55.5323 20.6786 54.8485C21.6781 53.1167 22.3926 51.2603 23.1386 49.4171C23.7437 47.9206 23.8763 48.0378 25.1321 48.8384C26.4394 49.6718 26.7674 50.909 27.1961 52.1512C27.6617 53.4994 28.0601 54.8762 28.3919 56.2634C28.6947 57.5271 28.4387 57.7868 27.2284 58.2031C26.1109 58.5871 25.0824 59.198 23.8518 59.2784C23.2641 59.3165 22.9986 59.1313 22.8226 58.6235C22.6635 58.165 22.3164 58.1973 21.944 58.3522C20.935 58.771 20.023 58.1737 20.025 57.0984Z" fill="black"/>
<path fill-rule="evenodd" clip-rule="evenodd" d="M28.0918 81.1737C26.7071 81.0233 25.5051 80.9567 24.3271 80.7508C22.3899 80.4124 21.5669 78.9793 21.9819 77.0284C22.3957 75.0841 22.7846 73.1411 23.553 71.2958C24.1776 69.7968 24.9103 69.6022 25.9947 70.7615C26.4714 71.2714 26.8753 71.9001 27.142 72.5455C28.0562 74.759 29.0221 76.9592 29.4922 79.3288C29.7473 80.6133 29.2412 81.2056 28.0918 81.1737Z" fill="black"/>
<path fill-rule="evenodd" clip-rule="evenodd" d="M10.0318 25.9891C9.70911 25.6875 10.1821 24.8972 9.45355 24.6959C9.19881 24.6255 9.03893 25.0488 9.13254 25.2949C9.30692 25.7513 9.14662 26.4244 9.77372 26.6033C10.0802 26.6907 10.0322 26.3349 10.0318 25.9891ZM12.8728 27.9926C12.9105 29.6838 12.5075 29.9787 11.0615 29.9509C10.2389 29.9356 9.41047 30.2065 8.58497 30.3494C7.2968 30.5726 5.34467 29.4435 5.00171 28.3488C4.88905 27.9868 4.90065 27.7159 5.04396 27.3912C6.0426 25.1197 7.01846 22.8383 8.02579 20.5709C8.46609 19.5814 8.97473 19.5023 9.79733 20.2425C11.6467 21.9084 12.0311 24.2552 12.6611 26.4795C12.8231 27.0511 12.8301 27.667 12.8728 27.9926Z" fill="black"/>
<path fill-rule="evenodd" clip-rule="evenodd" d="M0 48.611C0.261361 46.0114 1.0968 43.5639 1.98817 41.1437C2.36923 40.1099 2.87538 40.0912 3.75929 40.7813C4.54793 41.3972 4.98367 42.2281 5.12988 43.1642C5.47698 45.386 5.76071 47.6185 6.02704 49.8523C6.13929 50.7946 5.54574 51.2768 4.59888 51.4718C3.0887 51.7829 1.88627 51.1848 0.712012 50.414C0.0666864 49.9902 0.078284 49.277 0 48.611Z" fill="black"/>
<path fill-rule="evenodd" clip-rule="evenodd" d="M43.5932 47.5905C43.1848 47.5569 42.7146 47.3755 42.5378 47.53C41.9156 48.0738 41.1585 47.7006 40.4742 47.9496C39.744 48.2155 38.6314 46.4174 38.7193 45.5199C38.8497 44.1895 39.9995 43.3478 40.1855 42.0124C40.3694 40.694 40.8967 39.422 41.2952 38.1363C41.4111 37.7611 41.6593 37.4885 42.1041 37.4653C42.5796 37.4401 42.831 37.6546 43.0481 38.0841C44.2484 40.4658 44.8871 43.0533 45.8033 45.5381C46.3095 46.9103 45.0495 47.3937 43.5932 47.5905Z" fill="black"/>
<path fill-rule="evenodd" clip-rule="evenodd" d="M64.9256 53.3093C65.2404 54.7052 63.7017 55.4644 62.6848 55.2072C62.2114 55.0871 61.8278 54.9297 61.2546 55.2006C60.5504 55.5336 59.4843 55.9399 59.302 54.455C59.2875 54.3374 58.9823 54.2765 58.8522 54.1489C58.0462 53.3566 58.0205 52.2196 58.7594 51.3187C58.9247 51.1174 59.0924 50.8937 59.174 50.6518C59.732 49.0012 60.958 47.6141 61.0802 45.7895C61.1117 45.3169 61.2873 44.8766 61.8266 44.7913C62.3679 44.7056 62.6301 45.0932 62.8505 45.5116C62.9553 45.7108 63.1309 45.8844 63.1914 46.0935C63.8827 48.4719 64.5002 50.8685 64.9256 53.3093Z" fill="black"/>
</svg>
