<svg width="139" height="145" viewBox="0 0 139 145" fill="none" xmlns="http://www.w3.org/2000/svg">
<path fill-rule="evenodd" clip-rule="evenodd" d="M109.458 95.5459L109.01 95.2721C108.35 96.7462 107.691 98.2208 107.032 99.6949C108.03 98.3943 109.084 97.1306 109.458 95.5459ZM110.987 89.9894C111.885 88.1499 112.698 86.1543 112.578 83.9226C112.048 85.9451 111.517 87.9672 110.987 89.9894ZM20.8062 38.3194C21.0617 38.032 21.3247 37.7503 21.5716 37.455C26.6654 31.3716 32.3313 25.8785 38.5162 20.9081C42.0012 18.1077 46.1279 16.1845 49.5012 13.3385C53.2501 10.1757 56.9962 7.20836 61.6083 5.45712C61.6435 5.44345 61.6124 5.25333 61.6124 4.94434C52.0759 5.73629 43.7082 9.37505 36.5093 15.4601C29.2675 21.582 23.3112 28.7597 20.8062 38.3194ZM132.19 54.4534C132.069 41.725 127.954 30.5681 118.733 21.5795C110.548 13.6007 101.342 7.44736 89.5234 6.32156C110.629 16.3129 124.832 32.3048 132.19 54.4534ZM91.9775 12.3735C93.1828 14.0348 95.0099 14.8889 96.5051 16.1626C105.095 23.4803 110.921 32.6043 114.789 43.1598C118.602 53.5674 119.333 64.3031 118.515 75.1684C118.001 81.975 116.315 88.6167 113.859 95.0261C113.667 95.5264 113.047 96.1639 113.767 96.6149C114.367 96.9902 114.655 96.2227 115.025 95.9071C118.904 92.5935 122.018 88.6117 124.553 84.2369C126.876 80.2291 128.853 76.1439 128.572 71.1515C127.314 48.8447 118.109 30.8141 100.2 17.3414C97.6359 15.412 94.9391 13.6624 91.9775 12.3735ZM123.766 95.8611C122.866 95.8081 122.35 96.1452 121.996 96.5872C120.067 98.9966 117.574 100.636 115.012 102.31C113.538 103.274 112.047 104.222 110.535 105.141C108.081 106.632 106.77 109.14 105.043 111.309C99.9066 117.761 93.9988 123.396 86.9905 127.863C78.6262 133.195 69.7627 136.667 59.6872 137.108C54.2997 137.345 49.2237 136.845 44.0714 135.228C35.7518 132.616 29.0438 127.734 23.332 121.401C14.7862 111.926 10.4201 100.45 7.99243 88.1151C7.80893 87.1815 7.52976 86.2669 7.29491 85.3437C6.64627 87.6504 6.74361 89.8953 6.70467 92.1362C6.54355 101.494 9.02337 110.301 13.6483 118.226C18.154 125.947 24.7117 131.906 33.0147 135.699C40.5217 139.129 48.3721 140.793 56.618 140.363C65.6815 139.891 74.3048 137.566 82.5863 133.907C96.6327 127.702 108.823 119.096 117.862 106.467C120.203 103.197 122.227 99.7272 123.766 95.8611ZM41.9486 25.5202C41.5025 25.7066 41.2416 25.7521 41.0639 25.8988C35.8379 30.2185 31.2304 35.157 26.8771 40.3271C23.5333 44.2993 20.6856 48.6521 18.0844 53.1317C16.3162 56.1781 14.6196 59.3244 14.2266 62.9598C13.2714 71.791 13.4446 80.5688 15.2248 89.2997C17.7634 101.753 22.4319 113.145 31.3658 122.493C35.9137 127.253 41.3356 130.649 47.5735 132.554C57.6767 135.64 67.1453 133.056 76.2801 128.672C82.1904 125.835 87.3849 121.889 92.2269 117.532C94.4325 115.548 96.5503 113.362 98.2928 110.501C95.1826 110.856 92.4882 111.544 89.7205 111.836C80.302 112.83 71.4671 110.924 63.2083 106.532C51.9715 100.557 44.4367 91.2792 40.1879 79.3535C34.7738 64.159 35.1657 48.8182 39.3943 33.4435C40.1092 30.8439 41.0444 28.3049 41.9486 25.5202ZM66.2937 11.7973C62.522 12.4219 59.6222 13.6028 57.0852 15.6552C54.5176 17.7316 52.968 20.5233 51.3021 23.3262C49.0166 27.1708 47.4418 31.3265 46.2298 35.4917C45.1583 39.1723 44.4222 43.0513 43.9873 46.9584C42.9564 56.208 42.8031 65.3328 45.4503 74.3856C48.2109 83.8294 52.7614 92.1109 60.2389 98.6615C72.3551 109.275 87.4072 111.075 101.633 104.695C102.559 104.28 103.41 103.771 103.945 102.873C107.433 97.0117 109.915 90.6927 111.46 84.1065C113.553 75.1879 113.863 66.1032 112.66 56.9858C110.937 43.9273 106.229 32.1893 97.1733 22.4634C92.4808 17.4246 87.3724 12.8539 80.2494 11.4982C78.1246 11.094 75.7562 10.2884 74.0347 12.0529C72.1522 13.9826 70.3728 16.1593 69.1186 18.5301C63.7953 28.5952 62.6778 39.1971 65.9147 50.1436C67.1731 54.3995 69.8687 57.6854 73.6342 60.0898C74.3499 60.5471 75.8249 60.8503 75.3308 61.8978C74.8954 62.8219 73.5104 62.5585 72.4993 62.2685C72.1228 62.1604 71.7624 61.9616 71.4269 61.7529C67.2108 59.1281 63.7501 55.7581 61.8655 51.1042C57.8652 41.2255 58.3166 31.2295 61.4306 21.222C62.4392 17.9797 64.0997 15.0442 66.2937 11.7973ZM19.9682 26.3374C19.4008 26.3511 19.1945 26.8195 18.9725 27.2006C16.8779 30.8021 14.963 34.5046 13.6757 38.469C13.2346 39.8263 12.0251 40.991 12.3639 42.6636C13.1592 42.2481 13.5108 41.6782 13.5473 40.8792C13.6094 39.5132 14.302 38.3621 14.8603 37.1667C16.5515 33.5462 18.2381 29.9236 19.926 26.3014C22.3321 23.146 24.739 19.9906 27.1451 16.8356C25.5069 18.3023 23.911 19.7864 22.6891 21.6197C21.6785 23.1352 20.2101 24.3799 19.9682 26.3374ZM0 90.7436C0.148698 83.8327 1.09639 77.0178 3.49172 70.5654C6.00675 63.7911 7.28249 56.7721 8.84775 49.7766C11.695 37.0453 16.5821 25.2025 25.7451 15.5553C33.4062 7.48919 42.6793 2.26487 53.7302 0.631263C61.7959 -0.561222 69.8318 -0.107258 77.6805 2.36138C78.4949 2.61736 79.3353 2.84848 80.2146 2.7002C87.862 1.41203 95.1321 2.7702 102.173 5.79925C110.771 9.49807 118.38 14.6188 124.712 21.5439C129.572 26.8589 133.411 32.8743 135.665 39.7058C138.227 47.4753 139.351 55.4587 137.77 63.6623C137.398 65.5904 137.549 67.7364 136.99 69.5191C136.303 71.714 136.002 73.9842 135.286 76.1385C134.061 79.8211 133.637 83.6608 132.797 87.4172C131.741 92.1436 129.951 96.6116 127.843 100.941C124.913 106.958 121.218 112.551 116.464 117.22C112.231 121.377 107.858 125.412 102.586 128.459C98.8193 130.637 95.2149 133.125 91.302 135.085C78.6655 141.415 65.3535 144.74 51.165 143.872C40.2015 143.202 30.1037 139.846 21.2042 133.309C8.77361 124.179 1.95544 111.817 0.396805 96.5159C0.201716 94.5982 0.129645 92.668 0 90.7436Z" fill="black"/>
</svg>
