<svg width="96" height="77" viewBox="0 0 96 77" fill="none" xmlns="http://www.w3.org/2000/svg">
<path fill-rule="evenodd" clip-rule="evenodd" d="M12.7297 15.9487C12.7314 15.0412 12.8652 14.3528 12.0161 14.103C11.1272 13.8417 10.9594 14.5267 10.6637 15.0896C10.5175 15.3676 10.392 15.7594 9.95871 15.7072C9.51013 15.6538 9.36268 15.3179 9.29848 14.9124C9.25913 14.6643 9.29268 14.3346 8.97788 14.2484C8.61215 14.1486 8.46717 14.475 8.28244 14.7053C6.72049 16.6508 5.48327 18.7967 4.47386 21.0674C3.84966 22.4724 3.29297 23.9208 3.12564 25.4695C2.8941 27.6151 4.51942 28.8067 6.50138 27.956C7.67274 27.4531 8.61463 26.6359 9.31215 25.5925C11.3181 22.5921 12.2571 19.2101 12.7297 15.9487ZM16.1287 15.0462C15.8105 20.6147 14.3608 25.8427 11.3815 30.6027C10.5924 31.8631 9.47658 32.817 8.27664 33.6674C7.53605 34.1926 6.68114 33.9192 5.86848 33.964C5.61913 33.9776 4.89138 33.2652 5.0554 34.3359C5.06534 34.4026 4.64368 34.3438 4.44321 34.2523C3.11362 33.6434 2.01889 32.8005 1.35203 31.4357C-0.550813 27.5409 -0.347026 23.6586 1.34996 19.7767C2.83859 16.372 4.73564 13.2585 7.57581 10.7695C9.01185 9.51119 10.807 9.24858 12.5168 8.8787C13.962 8.56598 15.4179 9.93243 15.7932 11.5594C16.0566 12.7014 16.0997 13.8682 16.1287 15.0462Z" fill="black"/>
<path fill-rule="evenodd" clip-rule="evenodd" d="M85.1977 9.95731C84.3511 12.7279 84.4422 15.2462 85.7341 17.6457C86.6905 19.4222 87.9708 19.5042 89.2743 17.9365C90.2269 16.7908 90.789 15.4364 91.2322 14.0289C91.8978 11.9157 91.1407 10.4597 89.0746 9.70092C88.2437 9.39565 87.7637 9.5924 87.6046 10.4299C87.4671 11.1548 87.1958 11.8287 86.3985 11.7947C85.5071 11.7562 85.5746 10.8731 85.4023 10.2452C85.3932 10.2116 85.3605 10.1839 85.1977 9.95731ZM81.771 15.6932C81.7068 11.243 82.8968 7.66471 85.2176 4.45134C85.7262 3.74595 86.2978 3.08861 87.0513 2.63382C88.1091 1.99471 89.2759 2.34181 89.5994 3.49992C89.7808 4.15104 90.099 4.28897 90.6685 4.38672C93.2324 4.8266 95.1754 6.69341 95.2558 9.24696C95.4227 14.5384 93.7766 19.3183 90.1632 23.1981C87.5384 26.0159 84.6605 25.3453 83.0099 21.8238C82.0307 19.7341 81.7731 17.4991 81.771 15.6932Z" fill="black"/>
<path fill-rule="evenodd" clip-rule="evenodd" d="M56.2745 24.7511C56.3271 25.6515 56.5321 26.6904 57.4877 27.1472C58.365 27.5668 59.0575 26.7981 59.6167 26.2198C61.9184 23.8411 63.3495 20.9723 64.1493 17.7821C64.3572 16.9541 63.8415 16.5482 63.1167 16.3043C62.4308 16.0731 61.9813 16.197 61.7018 16.9347C61.5228 17.4065 61.2693 17.9776 60.6074 17.884C60.0309 17.8024 60.1481 17.1969 59.9828 16.8137C59.8987 16.6195 59.9667 16.3237 59.6821 16.2769C59.4299 16.2355 59.2518 16.4513 59.1561 16.6365C57.8443 19.1739 56.5549 21.7216 56.2745 24.7511ZM67.8688 16.1257C67.6787 20.1882 66.1416 23.8564 64.4736 27.4823C63.4845 29.6316 62.2315 31.5365 60.045 32.7104C58.121 33.7434 56.3341 33.395 55.268 31.4425C53.5909 28.3699 52.9331 25.1123 53.9695 21.6628C54.8737 18.6524 56.255 15.8946 58.3442 13.513C58.664 13.1489 59.0708 12.7757 59.4696 12.8863C60.337 13.1265 60.6679 12.5106 60.9728 12.0289C61.7983 10.7221 62.9982 10.4094 64.3775 10.6459C65.9013 10.9072 67.1237 11.6449 67.6439 13.2251C67.9558 14.172 68.0088 15.1387 67.8688 16.1257Z" fill="black"/>
<path fill-rule="evenodd" clip-rule="evenodd" d="M82.9067 37.4345C82.5712 37.768 82.5555 38.1163 82.4913 38.4444C82.4184 38.8159 82.1516 39.0259 81.8493 38.847C81.1041 38.405 80.7442 38.9381 80.3341 39.3573C79.2274 40.4876 78.2296 41.7339 77.4885 43.1099C76.685 44.601 75.8342 46.141 76.0517 47.971C76.1867 49.1088 76.2919 50.3584 77.5532 50.735C78.8455 51.1206 79.8222 50.2752 80.6692 49.3722C80.7201 49.318 80.7533 49.2476 80.8013 49.19C82.6483 46.9595 83.4729 44.2552 84.1344 41.5322C84.491 40.0631 84.0967 38.5823 82.9067 37.4345ZM87.7918 38.6096C87.7123 42.1154 86.5496 45.3218 85.2403 48.526C84.3369 50.7374 83.1275 52.6929 81.5833 54.4797C80.2314 56.0434 77.462 56.668 75.5609 55.5513C74.8488 55.1329 74.7225 54.2076 73.9451 53.8928C74.8488 52.9108 73.4845 52.5007 73.4033 51.7535C73.0723 48.7219 73.1668 45.8076 74.5896 42.9621C75.9821 40.1757 77.8042 37.8297 80.2836 35.9782C80.5594 35.7719 80.6315 35.5441 80.6622 35.2235C80.7048 34.7803 80.7632 34.3173 80.9318 33.9113C81.9006 31.5757 83.5214 31.195 85.4122 32.8721C87.1245 34.391 87.8539 36.3439 87.7918 38.6096Z" fill="black"/>
<path fill-rule="evenodd" clip-rule="evenodd" d="M23.0358 40.7675C23.0814 41.3433 22.989 42.0039 23.5759 42.2918C24.1227 42.5598 24.5605 42.0739 24.9685 41.7612C25.5397 41.323 26.0085 40.7746 26.3892 40.1674C27.9027 37.7522 28.9001 35.1414 29.3375 32.3166C29.4481 31.6 29.4626 30.712 28.7576 30.5769C28.0129 30.4345 26.9438 30.2605 26.4882 31.3755C26.3614 31.6862 26.2028 31.9956 26.0011 32.2623C24.0987 34.7856 23.6617 37.8077 23.0358 40.7675ZM32.2584 31.7968C32.0111 35.6923 30.863 39.6119 28.7555 43.2482C28.4921 43.7017 28.1727 44.1226 27.9085 44.5757C26.8394 46.4077 25.152 47.1322 23.1323 47.1819C22.4348 47.1988 22.0459 46.6463 21.7311 46.0648C20.592 43.9602 20.3017 41.7136 20.7668 39.4048C21.6888 34.8304 23.404 30.5666 25.9907 26.6648C26.453 25.9669 27.0469 25.3945 27.6554 24.8465C28.343 24.2277 28.9282 24.4617 29.161 25.3713C29.2406 25.6832 29.2178 26.0452 29.6527 26.1645C31.3874 26.6408 31.6189 28.2114 32.0493 29.5907C32.2344 30.1855 32.1785 30.8553 32.2584 31.7968Z" fill="black"/>
<path fill-rule="evenodd" clip-rule="evenodd" d="M39.5586 58.9182C40.4823 58.0972 40.7979 57.1044 41.2917 56.1956C42.1988 54.5239 42.6092 52.7486 42.859 50.9063C42.9004 50.5998 42.8834 50.2717 42.5202 50.1636C42.1652 50.058 41.9805 50.3533 41.8223 50.5894C41.6789 50.804 41.6682 51.195 41.4888 51.282C40.8828 51.5769 41.2937 53.0655 39.9977 52.5341C39.832 52.4666 39.6779 52.7656 39.8751 52.9118C40.7358 53.5485 40.187 54.246 39.9521 54.8892C39.492 56.1513 39.1614 57.4096 39.5586 58.9182ZM38.6631 63.9747C39.8991 63.3969 39.3921 62.7976 38.6764 62.525C37.0407 61.9012 36.9384 60.3956 36.6385 59.0896C36.4468 58.2546 36.6083 57.2775 36.8274 56.4193C37.8186 52.5349 39.6038 48.9947 41.7514 45.6347C42.1047 45.0814 42.7269 44.7206 43.081 44.1283C43.2343 43.8727 43.5308 43.7075 43.8639 43.8201C44.1927 43.9315 44.2888 44.1639 44.2524 44.5251C44.1849 45.1986 44.4781 45.7068 44.9735 46.1943C46.3379 47.5355 46.2103 49.3377 46.0662 50.9829C45.6988 55.1841 44.2822 59.078 41.9888 62.6174C41.2904 63.6956 40.3162 64.5231 38.6631 63.9747Z" fill="black"/>
<path fill-rule="evenodd" clip-rule="evenodd" d="M36.1049 8.71813C36.0167 8.41162 35.9284 8.1047 35.8 7.65736C34.8175 8.90121 34.1561 10.1906 33.7551 11.5943C33.4896 12.5242 34.2145 13.3286 35.1862 13.2772C36.1654 13.2259 36.8898 12.6824 37.4146 11.9104C38.7988 9.87334 39.4156 7.52523 39.771 5.15186C39.8766 4.4444 39.7921 3.48718 39.3522 2.70641C38.972 2.03251 39.7412 0.333869 40.5352 0.0783071C41.5293 -0.24187 42.001 0.476769 42.3394 1.20162C43.0067 2.62937 42.7735 4.1789 42.6368 5.64848C42.327 8.97162 41.3271 12.1129 39.6119 14.9991C38.8485 16.2839 37.9725 17.4648 36.3464 17.6984C33.5758 18.0956 32.4396 17.8045 31.7197 15.021C30.7708 11.3533 32.7826 6.26482 35.9098 4.06499C36.2561 3.82103 36.6061 3.61517 37.0563 3.78955C37.5699 3.98795 37.4954 4.45973 37.5128 4.84576C37.5774 6.28304 36.9337 7.50825 36.389 8.75914C36.2942 8.74547 36.1997 8.7318 36.1049 8.71813Z" fill="black"/>
<path fill-rule="evenodd" clip-rule="evenodd" d="M55.271 76.9355C54.3842 77.0122 53.7356 76.6642 53.6962 75.8176C53.6274 74.3219 53.2944 72.9277 53.7302 71.2904C54.4633 68.5355 55.5895 66.0569 57.1382 63.7527C57.8221 62.7359 57.5433 61.6055 57.9749 60.5891C58.3344 59.7425 58.7577 58.97 59.4234 58.3371C59.8545 57.927 60.3135 57.6197 60.9282 57.973C61.5051 58.3043 61.7462 58.6688 61.7822 59.467C62.0076 64.4606 60.1171 68.9125 58.4334 73.4272C58.0606 74.4255 57.4658 75.2849 56.8458 76.1398C56.4295 76.7131 55.9263 77.0047 55.271 76.9355Z" fill="black"/>
</svg>
