<svg width="165" height="82" viewBox="0 0 165 82" fill="none" xmlns="http://www.w3.org/2000/svg">
<path fill-rule="evenodd" clip-rule="evenodd" d="M43.2386 42.7487C43.1016 42.4687 42.9656 42.1877 42.8286 41.9067C38.5076 43.4517 34.1876 44.9967 29.8666 46.5407C29.9486 46.7567 30.0306 46.9727 30.1116 47.1877C34.4876 45.7077 38.8636 44.2287 43.2386 42.7487ZM64.5326 35.3027C64.6126 35.5207 64.6926 35.7387 64.7726 35.9567C85.5536 30.8007 106.336 25.6437 127.118 20.4877C127.068 20.2827 127.017 20.0777 126.967 19.8727C106.156 25.0157 85.3436 30.1597 64.5326 35.3027ZM46.8716 27.1687C46.7676 26.9607 46.6636 26.7527 46.5586 26.5457C32.4446 31.3397 18.4286 36.3627 5.17861 44.4347C19.3906 38.5487 33.1316 32.8587 46.8716 27.1687ZM48.3936 79.6787C47.6346 80.3027 46.8756 80.9257 46.2056 81.4757C44.5096 81.1697 42.8856 80.8777 41.2616 80.5847C41.2416 80.3597 41.2206 80.1337 41.1996 79.9077C40.5666 80.4757 39.9336 81.0447 39.1846 81.7167C36.6986 79.5117 34.4216 77.4677 35.5176 73.4527C37.6646 65.5867 39.4886 57.6347 41.4356 49.7157C41.8636 47.9777 42.2476 46.2307 42.7856 43.9127C39.5396 45.0057 36.7106 45.7937 34.0226 46.9207C32.1836 47.6927 30.5476 48.9447 28.8086 49.9607C28.3486 50.2297 27.8606 50.4727 27.3566 50.6407C22.6566 52.2057 17.9626 53.7837 13.2436 55.2867C11.3566 55.8877 9.41361 56.3107 7.49661 56.8157C7.56561 56.4817 7.63461 56.1477 7.70361 55.8137C6.29061 54.7767 4.97661 53.5507 3.44361 52.7397C-0.311388 50.7517 -1.32739 45.5437 2.06861 42.9177C5.91561 39.9427 10.0046 37.0447 14.4206 35.0907C24.6926 30.5437 35.1996 26.5217 45.6726 22.4427C47.5706 21.7037 48.5106 20.8157 49.0636 18.7867C50.3236 14.1597 51.8146 9.56868 53.6246 5.13068C54.3136 3.44268 56.0936 2.17568 57.4676 0.809681C57.7916 0.487681 58.5906 0.292681 58.9896 0.462681C60.6006 1.14968 62.1436 1.99768 63.7076 2.79468C67.6116 4.78868 68.7736 8.13568 68.4136 12.2627C68.3296 13.2197 68.4016 14.1907 68.4016 15.4647C74.9896 13.9117 81.1826 12.1897 87.4766 11.0147C106.12 7.53468 124.785 4.16968 143.481 0.989681C148.112 0.202681 152.888 0.238681 157.603 0.00468078C158.699 -0.0493192 159.818 0.343681 160.926 0.530681C160.985 0.882681 161.045 1.23568 161.104 1.58768C158.785 2.26268 156.496 3.38268 154.142 3.54068C139.253 4.53968 124.669 7.44268 110.131 10.5267C96.8146 13.3527 83.5966 16.6367 70.3406 19.7367C69.4226 19.9517 68.5416 20.3187 67.6426 20.6157C67.6966 20.8567 67.7496 21.0987 67.8036 21.3407C68.4986 21.2347 69.2016 21.1667 69.8876 21.0177C89.5736 16.7157 109.201 12.1187 128.966 8.21668C139.182 6.20068 149.638 5.39268 159.995 4.11368C160.965 3.99468 162.002 4.41968 163.008 4.59168C162.522 5.39868 162.036 6.20668 161.482 7.12768C166.485 6.16768 163.225 10.2327 163.942 12.0937C163.31 12.4217 162.315 12.9377 161.036 13.6017C161.853 13.7977 162.345 13.9157 162.838 14.0347C162.858 14.1737 162.878 14.3127 162.899 14.4527C158.799 15.2467 154.698 16.0397 150.598 16.8327C150.536 16.6237 150.474 16.4147 150.412 16.2057C151.74 15.8847 153.068 15.5637 154.395 15.2427C154.342 15.0507 154.289 14.8577 154.236 14.6657L135.826 18.1567C135.843 18.3647 135.861 18.5717 135.878 18.7787C137.613 18.5497 139.347 18.3197 141.082 18.0907C141.129 18.2847 141.176 18.4787 141.222 18.6727C139.317 19.1227 137.406 19.5547 135.506 20.0247C112.231 25.7807 88.9576 31.5487 65.6786 37.2917C63.9396 37.7207 62.7016 38.4107 62.5246 40.4567C62.4736 41.0417 61.5836 41.5487 61.0926 42.1057C60.8646 42.3647 60.4316 42.8007 60.4986 42.9087C62.8226 46.7337 59.1816 49.6577 58.9666 53.0897C58.9166 53.8817 58.7056 54.8287 58.2106 55.3847C57.6406 56.0267 58.5386 58.4237 56.2676 57.1977C55.8746 58.3817 55.4816 59.5677 55.0886 60.7527C53.2406 65.3017 51.3186 69.8237 49.5846 74.4157C48.9556 76.0827 48.7776 77.9197 48.3936 79.6787Z" fill="black"/>
<path fill-rule="evenodd" clip-rule="evenodd" d="M50.7075 74.3273C51.7865 71.2313 52.9035 68.1483 53.9265 65.0353C54.3895 63.6253 54.6655 62.1543 55.0265 60.7113C55.4105 60.3833 55.7945 60.0563 56.1785 59.7273C56.3995 59.8413 56.6215 59.9533 56.8425 60.0663C54.7975 64.8203 52.7525 69.5743 50.7075 74.3273Z" fill="black"/>
</svg>
