<svg width="230" height="137" viewBox="0 0 230 137" fill="none" xmlns="http://www.w3.org/2000/svg">
<path fill-rule="evenodd" clip-rule="evenodd" d="M174.958 112.408C174.332 112.332 173.816 112.257 173.508 112.751C173.408 112.909 173.593 113.211 173.83 113.258C174.418 113.378 174.671 112.971 174.958 112.408ZM40.1155 83.9801C39.8558 83.4533 39.2718 83.6264 39.2655 83.0871C39.2639 82.943 38.2595 83.7391 38.4487 83.9089C38.9201 84.3338 39.4453 83.8049 40.1155 83.9801ZM71.9874 99.0409C73.0084 98.6163 74.1976 99.1796 75.3988 98.3695C74.051 98.3583 72.9898 98.5484 71.9874 99.0409ZM87.6703 98.736C88.6615 98.6503 89.7045 98.6172 90.6422 97.5353C89.3454 97.6591 88.4905 98.1164 87.6703 98.736ZM68.934 100.577C70.36 100.555 71.7953 100.665 73.1219 99.7657C71.6337 99.8999 70.2105 99.8772 68.934 100.577ZM107.898 120.365C106.041 120.431 104.129 120.007 102.378 121C104.196 120.593 106.084 120.808 107.898 120.365ZM176.854 114.419L176.681 114.158C174.626 115.292 172.572 116.427 170.518 117.562C170.563 117.642 170.607 117.722 170.652 117.802C172.901 117.005 174.846 115.654 176.854 114.419ZM10.6198 111.027C12.0583 112.887 12.8064 113.008 13.9732 111.313C12.6341 112.094 11.8566 110.26 10.6198 111.027ZM96.3172 120.916C93.7856 120.511 91.4624 121.454 89.072 121.996C91.5647 122.179 93.924 121.48 96.3172 120.916ZM8.992 86.3473C12.1971 84.314 15.4573 82.3743 18.8197 80.6077C15.2278 81.9741 11.9506 83.8857 8.992 86.3473ZM92.1263 80.256C89.0898 80.8562 86.1179 81.6958 83.1866 82.6787C86.3325 82.4762 89.4021 82.0002 92.1263 80.256ZM4.90963 103.006C4.70295 103.707 4.88478 104.131 5.03721 104.551C5.84614 106.78 7.47064 108.401 9.12537 109.997C9.89289 110.738 10.0084 110.745 11.1318 110.151C8.41626 109.554 7.15874 108.029 8.11762 106.475C7.58951 106.187 6.52046 105.86 6.74454 105.471C7.32898 104.454 6.40117 104.529 6.07478 104.264C5.67425 103.938 5.17513 103.737 4.90963 103.006ZM190.034 97.9325C185.098 102.958 179.988 107.814 175.368 113.144C181.8 109.572 186.476 104.294 190.034 97.9325ZM81.7982 129.708C83.443 130.181 84.9387 130.22 86.4128 130.264C98.416 130.621 110.302 129.064 122.227 128.127C121.347 127.945 83.2169 129.516 81.7982 129.708ZM75.6639 77.7944C74.6963 77.6387 73.7383 77.4097 72.8117 78.0206C72.5296 78.2062 72.1382 78.0235 71.8412 77.8661C71.3003 77.5795 70.6707 77.753 70.3952 78.05C69.9301 78.552 69.455 78.3913 68.9617 78.4021C68.6291 78.4095 68.3126 78.2757 67.9606 78.3586C65.4418 78.9538 62.8382 78.8018 60.2979 79.2089C59.257 79.3755 58.166 79.0321 57.152 79.6302C56.8269 79.822 56.5431 80.4018 56.1422 80.1587C55.7479 79.9201 56.5344 79.4637 56.1124 79.0163C55.3204 80.0539 54.2538 80.7328 52.9653 80.71C51.8912 80.6905 50.613 81.5123 49.7805 80.0133C50.275 80.8989 50.104 81.2982 49.2561 81.4991C48.2649 81.7343 47.2418 81.7811 46.261 81.9932C45.4798 82.1622 44.7082 82.6398 43.9133 82.5056C42.807 82.3184 41.9189 83.6044 40.7538 82.8663C40.5902 82.7628 40.2054 83.0266 40.4129 83.4636C40.666 83.9975 41.6509 84.2307 42.1679 83.7954C42.8579 83.2143 43.8545 83.7204 44.5164 83.09C45.0718 84.0804 45.5602 83.2652 46.0767 83.0395C46.1947 82.9877 46.3223 82.8709 46.4751 83.0258C46.9896 83.5473 47.8039 83.363 48.426 84.0592C48.4231 83.4412 47.8503 82.9136 48.337 82.7541C48.9653 82.5482 48.7665 83.5063 49.3141 83.7349C49.4371 83.0552 49.879 82.8448 50.536 82.9496C52.568 83.2735 54.4104 82.4128 56.2942 81.922C57.3922 81.6362 58.5247 81.48 59.6078 81.3794C61.5297 81.2012 63.4023 80.7266 65.2724 80.3952C67.4847 80.0034 69.7151 79.5051 71.9096 78.9526C73.1629 78.6365 74.5716 78.6999 75.6428 77.7712C77.3137 77.765 77.9967 77.3467 77.9876 76.3054C77.2627 76.8994 76.1535 76.8538 75.6639 77.7944ZM178.045 118.668C176.698 119.903 175.062 120.627 173.376 121.228C172.082 121.69 170.709 121.938 169.651 122.932C169.448 123.123 169.12 123.412 168.769 123.097C168.536 122.888 168.29 122.964 168.244 123.19C168.093 123.94 167.662 123.876 167.112 123.688C166.717 123.553 166.48 123.616 166.833 124.069C166.534 124.215 166.246 124.39 165.935 124.501C160.876 126.309 155.785 128.02 150.539 129.215C147.772 129.845 145.245 131.137 142.558 132.001C137.604 133.593 132.54 134.265 127.371 134.586C124.245 134.779 121.102 134.692 118.009 134.959C111.671 135.508 105.314 135.725 98.9822 136.273C94.9818 136.619 90.9802 136.78 86.9741 136.928C83.3154 137.064 79.728 136.582 76.129 135.914C70.341 134.839 64.5153 133.965 58.6887 133.106C48.5316 131.61 38.619 129.13 29.0447 125.386C23.0719 123.05 17.3477 120.216 12.0612 116.561C8.3591 114.001 5.00945 111.054 2.54703 107.232C-1.11658 101.545 -0.808001 95.6917 3.34395 90.2341C6.52046 86.0582 10.7855 83.2739 15.3222 80.8637C23.5578 76.4885 32.4524 74.6821 41.6874 74.2282C48.0023 73.9175 54.3209 73.9461 60.6396 73.9208C63.1691 73.9109 65.5669 73.1479 68.0157 72.6285C72.5002 71.6771 76.9446 70.5741 81.379 69.4268C83.1924 68.9579 84.9859 68.3933 86.6295 67.4614C87.5129 66.9602 88.6176 66.9726 89.3735 66.1293C89.7418 65.7184 90.2955 65.9665 90.7909 66.2386C91.3306 66.5348 92.0116 66.744 92.0381 65.7151C92.0654 64.6262 92.608 63.8914 93.7819 63.676C94.3137 63.5782 94.7358 63.4664 94.9686 62.9503C94.998 62.8844 95.0696 62.7809 95.1119 62.7854C96.2547 62.9076 96.6361 61.8568 97.3846 61.3755C99.1441 60.2439 100.843 59.0224 102.619 57.9202C103.807 57.1825 104.885 56.2837 106.034 55.4972C106.562 55.1356 107.205 54.7632 107.666 54.2848C108.199 53.7314 108.802 53.2729 109.348 52.746C110.619 51.5175 112.235 50.7637 113.545 49.5662C115.131 48.1173 116.408 46.4112 117.869 44.8621C121.762 40.7313 125.457 36.3979 129.893 32.818C133.788 29.6742 138.333 28.1843 143.293 27.8215C145.823 27.6363 148.189 26.7222 150.617 26.074C153.074 25.4187 155.344 24.3496 157.562 23.1874C158.923 22.4741 159.826 21.1383 160.838 19.972C163.765 16.5991 166.404 12.8854 170.101 10.324C173.221 8.16267 176.273 5.86509 179.737 4.19172C183.336 2.45373 187.026 1.04835 190.976 0.481304C197.259 -0.420412 203.422 -0.16485 209.466 2.19237C212.248 3.27758 214.803 4.65687 217.15 6.40521C220.186 8.66758 222.637 11.5223 224.722 14.6921C228.169 19.933 229.297 25.7973 229.539 31.9378C229.658 34.937 229.623 37.9218 229.024 40.8585C228.783 42.0389 228.38 43.2646 228.215 44.402C227.769 47.4691 226.448 50.1573 225.171 52.8608C223.824 55.7154 222.228 58.4533 220.661 61.2032C219.504 63.2324 217.942 64.9898 216.965 67.1308C216.614 67.8979 215.893 68.4969 215.33 69.1646C214.674 69.9441 214.462 70.958 213.862 71.7885C211.779 74.6718 209.816 77.6412 207.743 80.5323C204.11 85.5992 201.169 91.0874 197.977 96.424C196.591 98.7418 195.218 101.068 193.833 103.386C193.049 104.699 192.095 105.906 191.198 107.131C190.674 107.848 189.865 108.493 189.242 109.179C188.355 110.156 187.056 110.769 186.579 112.138C186.327 112.86 185.788 113.372 185.015 113.644C184.083 113.971 183.642 115.019 182.681 115.333C181.136 116.445 179.591 117.556 178.045 118.668Z" fill="black"/>
</svg>
