<svg width="95" height="56" viewBox="0 0 95 56" fill="none" xmlns="http://www.w3.org/2000/svg">
<path fill-rule="evenodd" clip-rule="evenodd" d="M89.2434 6.02065C86.3477 5.54349 83.4342 5.35048 80.5038 5.5261C83.4173 5.69095 86.3303 5.8558 89.2434 6.02065ZM92.2389 8.73906C90.0474 8.10781 78.4775 7.97154 76.0859 8.51166C81.5169 8.63468 86.8829 8.26894 92.2389 8.73906ZM77.3608 2.58693C80.65 2.65196 83.9106 2.7406 87.1339 3.31302C88.3533 3.52965 89.5632 3.79349 90.7805 4.01882C91.0564 4.07018 91.4706 4.25077 91.5795 3.9016C91.7104 3.48243 91.2208 3.54207 90.9793 3.4232C90.9135 3.39089 90.8348 3.38468 90.7615 3.36811C86.3307 2.36947 81.8474 2.23486 77.3608 2.58693ZM46.8126 15.5324C45.9871 16.2576 44.8957 16.3413 43.9203 16.6702C40.7831 17.7281 37.711 18.9292 34.7623 20.4361C33.8481 20.9029 32.9456 21.3167 31.8654 21.0678C31.6032 21.0073 30.8667 20.852 31.4528 21.5954C31.6988 21.9082 31.3803 21.9645 31.2072 22.0672C29.581 23.0331 28.0137 24.1316 26.2968 24.8941C25.5658 25.2193 25.1797 25.8 24.5796 26.1504C22.7608 27.212 21.3422 28.7653 19.6825 30.0199C18.6797 30.7779 17.8807 31.8055 16.9562 32.7474C16.6977 32.4633 17.2022 32.2417 16.9686 32.054C16.7628 31.8892 16.4393 31.9728 16.361 32.1385C16.0458 32.8054 15.1606 33.1997 15.4058 34.1412C15.5144 34.5558 15.1619 34.8681 14.8856 34.8358C14.4204 34.7811 14.0932 34.6316 14.3923 35.3038C14.4188 35.3623 14.3836 35.448 14.3765 35.5213C12.8925 35.3167 13.5225 36.7291 13.0287 37.2796C11.7356 38.7218 10.7746 40.4105 9.49311 41.8839C8.57068 42.9446 7.85702 44.3434 7.24358 45.7268C6.81323 46.6969 6.29175 47.7179 5.58015 48.5492C5.18086 49.0156 4.79855 49.4737 4.61299 50.0411C4.36116 50.8107 3.74938 50.7469 3.15666 50.8082C2.42187 50.884 2.68571 50.3195 2.60536 49.9778C2.45956 49.3581 1.78358 49.3751 1.39921 49.1166C-0.247244 48.0095 -0.0687235 46.4003 0.115596 44.886C0.413407 42.4397 1.46092 40.2001 2.48027 37.9775C5.71684 30.922 10.4056 24.9592 16.327 19.9883C21.8699 15.3352 28.1123 11.8066 34.7909 9.04764C37.5855 7.89326 40.4928 7.05864 43.3541 6.09521C45.6897 5.30864 48.0192 4.5461 50.4091 3.95918C54.3018 3.00361 58.2152 2.16196 62.1828 1.56426C68.7715 0.571424 75.3768 -0.192363 82.0549 0.0429032C85.5674 0.167164 89.0073 0.787223 92.3586 1.86125C92.9319 2.04474 93.4861 2.28332 93.9723 2.6532C94.3269 2.92326 94.8393 3.15645 94.727 3.67172C94.6226 4.14971 94.2536 4.51752 93.5171 4.5258C94.5866 4.98557 95.591 5.37864 94.5506 6.62415C94.3952 6.80971 94.5386 6.929 94.6168 7.10379C95.0211 8.01006 94.7158 8.58373 93.7205 8.86207C93.9028 9.06255 94.4267 8.92338 94.3132 9.38107C94.2358 9.69503 93.8887 9.65817 93.6364 9.64119C90.8994 9.45604 88.159 9.45563 85.4178 9.43533C80.4889 9.39805 75.5818 9.5948 70.6715 10.1043C66.1587 10.5727 61.6874 11.2524 57.2344 12.0763C55.4831 12.4002 53.7675 12.9159 52.0556 13.4904C65.711 10.3047 79.5163 9.17645 93.4898 10.1664C93.069 10.6456 92.5276 10.4601 92.0583 10.4522C80.5622 10.2588 69.124 10.7715 57.8031 12.99C54.4567 13.6457 51.1804 14.552 47.8916 15.4218C47.5213 15.5195 47.1602 15.5837 46.7803 15.561C46.4751 14.8212 47.2732 15.0606 47.4248 15.0067C48.7639 14.5312 50.1412 14.1655 51.7317 13.7016C50.1975 13.5181 41.7921 16.2112 41.1232 17.0686C42.056 16.4987 43.1031 16.2357 44.1278 15.9395C44.9926 15.6894 45.833 15.0883 46.8126 15.5324Z" fill="black"/>
<path fill-rule="evenodd" clip-rule="evenodd" d="M50.4662 24.4647C51.5208 25.0678 52.4225 24.0423 53.4199 24.3446C53.5839 24.3947 53.7711 24.1868 53.7508 23.9789C53.7268 23.737 53.511 23.4885 53.3118 23.597C52.4341 24.0775 51.3224 23.7573 50.4662 24.4647ZM57.5205 26.0524C60.8531 25.8097 64.1701 25.4162 67.5147 25.4265C64.1411 24.9775 60.8088 25.2041 57.5205 26.0524ZM73.3111 28.3943C66.7725 27.1011 60.3238 27.734 53.9186 29.3014C60.3321 27.9113 66.8056 27.814 73.3111 28.3943ZM55.1546 23.754C56.282 23.6417 57.4095 23.4367 58.5361 23.4408C59.8205 23.4458 61.076 23.182 62.3931 23.2486C63.3976 23.2996 64.5892 23.155 65.6782 23.1178C69.4209 22.9894 73.0986 23.6798 76.7759 24.2779C77.3947 24.3786 78.0002 24.6018 78.5876 24.8309C78.7719 24.903 78.8854 25.1859 79.1447 25.0351C79.2213 24.9912 79.2917 24.8566 79.2868 24.7679C79.2681 24.4329 78.9794 24.3724 78.7326 24.3028C77.666 24.0017 76.466 23.925 75.5565 23.3696C74.0956 22.4778 72.522 22.8953 71.0313 22.5727C69.9627 22.3411 68.7619 22.7131 67.8262 22.2968C66.42 21.671 65.1062 22.0752 63.7405 22.0798C62.4329 22.0839 61.1841 22.7533 59.9904 22.6733C58.2172 22.5549 56.6652 22.885 55.1546 23.754ZM80.8454 25.3424C81.3851 25.6382 81.8382 25.8701 82.2736 26.1311C82.5519 26.298 82.9201 26.4252 82.8344 26.8729C82.759 27.2701 82.4107 27.2362 82.1286 27.3062C81.9389 27.353 81.7815 27.442 81.7173 27.6433C82.8675 27.9763 82.8886 28.13 82.3527 29.2011C82.2226 29.4613 81.5628 29.7537 82.1895 30.3207C82.4889 30.592 81.907 30.6691 81.6564 30.6869C80.1487 30.7942 78.6717 30.5001 77.2244 30.1724C75.2015 29.7143 73.1516 29.4244 71.1083 29.1353C66.4362 28.4742 61.783 28.8884 57.1398 29.6066C54.2831 30.0482 51.5365 30.8273 48.8695 31.9697C52.6172 31.1773 56.263 29.844 60.3578 29.7603C59.857 30.3559 59.331 30.2627 58.9052 30.3158C54.5942 30.8538 50.4289 31.9407 46.3979 33.5544C46.2211 33.6252 45.997 33.9089 45.8499 33.5668C45.4701 32.6829 44.8082 33.2905 44.4736 33.443C43.9819 33.6675 43.1034 33.8017 43.472 34.8889C42.0886 33.7652 41.4971 35.461 40.4102 35.3694C40.6911 35.9969 41.1587 35.4415 41.5137 35.7977C40.689 36.2765 39.8548 36.7027 39.0873 37.2267C38.6031 37.5568 38.8094 36.4844 38.1922 36.9285C37.3443 37.5382 36.2624 37.819 35.4021 38.415C35.0028 38.6917 34.6765 38.3442 34.2925 38.6342C35.0095 39.1461 34.8956 39.4261 34.1049 39.7653C32.8643 40.298 31.7787 41.0895 30.9039 42.166C30.3133 42.8938 29.4057 43.3088 28.8416 44.0875C28.6772 44.3149 28.446 44.1766 28.2253 44.126C27.271 43.9073 26.8737 44.2242 26.8373 45.2071C26.8033 46.1225 26.7259 46.9923 25.8705 47.6128C25.6307 47.7868 25.5007 47.8323 25.2202 47.8166C24.5182 47.7768 24.0224 48.8094 24.2812 49.5053C24.6201 50.4144 24.2419 51.4222 23.795 52.036C23.0556 53.0529 23.322 54.1178 23.1534 55.1484C23.0664 55.6785 22.8614 55.8235 22.414 55.9349C21.4995 56.1623 21.6345 55.2759 21.3976 54.9031C21.1942 54.5826 21.3437 54.1129 20.681 54.2624C20.355 54.3357 20.1943 53.9795 20.1078 53.673C19.8808 52.8731 19.3059 52.0655 20.1657 51.2797C20.1786 51.2677 20.6425 50.7338 19.9549 50.6746C19.7325 50.6551 19.5879 50.1315 19.6791 49.789C20.0986 48.2039 20.0034 46.5131 20.6972 44.9785C20.8575 44.6243 20.8127 44.1919 21.3852 44.4731C21.516 44.5373 21.7136 44.6376 21.7646 44.45C21.8068 44.2934 21.726 43.955 21.6494 43.9388C20.8446 43.7698 21.1706 43.231 21.4452 43.0023C22.2131 42.3628 22.1697 41.3099 22.769 40.624C23.7192 39.5363 24.3798 38.2187 25.8001 37.4939C26.3133 37.2317 26.5929 36.2604 27.1293 35.6718C28.591 34.0672 30.3741 32.8573 32.0417 31.5153C33.3431 30.4686 34.8102 29.6211 36.2227 28.7111C39.5027 26.5983 43.0247 25.0301 46.6659 23.7026C51.1902 22.0533 55.9096 21.1557 60.6643 20.6586C65.814 20.1202 70.994 20.2221 76.0767 21.4701C78.0557 21.9559 79.9814 22.6 81.6237 23.8716C81.9294 24.1085 82.4947 24.2593 82.3299 24.7655C82.1849 25.2103 81.6842 25.1929 81.2604 25.1801C81.166 25.1768 81.0699 25.2509 80.8454 25.3424Z" fill="black"/>
<path fill-rule="evenodd" clip-rule="evenodd" d="M78.4672 38.3815C78.2497 38.6777 77.9971 38.7336 77.7473 38.804C77.4507 38.8877 76.9363 38.7108 76.9429 39.193C76.9504 39.6929 77.447 39.4862 77.7506 39.5314C77.8612 39.5479 77.9801 39.5206 78.0882 39.5459C78.5658 39.6577 78.7828 39.8685 78.3172 40.274C78.2187 40.3594 77.9482 40.4989 78.1002 40.5383C79.4526 40.8862 78.2688 41.5353 78.2973 42.0257C78.3578 43.0471 77.4027 42.8582 76.8812 43.1718C75.4294 44.0457 73.6463 44.1837 72.2786 45.297C71.7426 45.7332 71.1561 45.3791 70.7924 44.8037C70.0626 46.1507 68.6071 46.1896 67.3997 46.6121C64.9713 47.4617 62.2736 47.8079 60.1127 49.0828C57.9207 50.376 55.5258 50.7488 53.2813 51.6791L50.9845 51.8133C50.6656 51.9172 50.3342 51.9939 50.0298 52.1297C48.3759 52.8686 46.7029 53.5434 44.8846 53.7579C44.5064 53.8023 44.0102 54.1659 44.2372 53.2075C44.3254 52.8359 43.4229 52.1889 42.913 51.7333C42.6723 51.5183 42.3592 51.3212 42.5278 51.0225C43.1089 49.9928 43.2013 48.7146 44.465 48.0366C47.7123 46.294 51.0404 44.781 54.523 43.5553C57.282 42.5844 60.0725 41.7378 62.8696 40.8999C65.1208 40.2256 67.3956 39.6796 69.7155 39.251C72.0268 38.8239 74.2887 38.1276 76.6381 37.8381C77.336 37.7524 77.8902 37.8862 78.4672 38.3815Z" fill="black"/>
<path fill-rule="evenodd" clip-rule="evenodd" d="M81.0591 31.252C78.1386 31.3328 75.3208 30.7139 72.4976 30.1316L72.539 29.8541C75.3792 30.32 78.2193 30.786 81.0591 31.252Z" fill="black"/>
<path fill-rule="evenodd" clip-rule="evenodd" d="M71.5058 30.033C69.4053 29.9266 67.3045 29.8201 65.2041 29.7137C67.3389 29.1889 69.4377 29.5252 71.5058 30.033Z" fill="black"/>
</svg>
