<svg width="81" height="53" viewBox="0 0 81 53" fill="none" xmlns="http://www.w3.org/2000/svg">
<path fill-rule="evenodd" clip-rule="evenodd" d="M39.288 4.22901C37.6304 5.1506 36.0399 6.20682 34.796 7.69918C36.2934 6.54232 37.7907 5.38545 39.288 4.22901ZM25.6712 23.7366C24.7198 24.3095 23.9336 24.816 23.1164 25.2667C22.2457 25.7472 21.4401 26.1713 20.3197 25.6121C19.768 25.3363 18.9102 25.3193 18.1779 25.3152C18.0287 25.3143 17.8759 25.3765 17.7309 25.3591C17.4062 25.3205 17.125 25.1412 17.0811 24.8189C16.9518 23.8601 15.066 23.2806 16.3164 22.0906C17.8784 20.6036 18.8783 18.7124 20.2393 17.104C22.6322 14.2767 25.643 12.1042 28.5511 9.84102C30.9539 7.97048 33.3973 6.15214 35.8232 4.31143C37.5347 3.01291 39.3961 1.9509 41.2538 0.884745C41.4477 0.773739 41.6602 0.687999 41.8731 0.617999C42.0851 0.548828 42.3498 0.456875 42.5089 0.651549C42.6841 0.865691 42.4683 1.06202 42.3523 1.24717C42.1402 1.58557 41.7563 1.81628 41.6689 2.48149C42.3548 2.08013 42.9123 1.7351 43.4876 1.42403C43.9685 1.16433 44.4067 1.11214 44.338 1.87344C44.3123 2.15966 44.3111 2.2864 44.6461 2.26486C45.9219 2.18409 45.8879 2.88948 45.4799 3.88149C45.8034 3.74315 46.0486 3.63835 46.329 3.51865C46.4293 4.14161 45.7707 4.37025 45.8009 4.87474C45.9927 4.94267 46.1356 4.65232 46.3514 4.84616C46.3087 4.92942 46.2826 5.0425 46.2127 5.10835C45.7724 5.518 45.301 5.89616 44.881 6.32486C44.251 6.96853 44.2792 7.22078 45.0235 7.83877C45.2757 8.04877 45.1585 8.2364 45.0554 8.42818C44.9493 8.62617 44.8139 8.80841 44.6851 8.99356C44.5786 9.14599 44.4639 9.2922 44.345 9.45208C44.6416 9.67409 44.7398 9.35226 44.9133 9.27729C45.1117 9.19238 45.296 9.07474 45.6348 8.89042C45.4116 9.64303 44.9411 10.039 44.5281 10.4284C39.6314 15.0455 34.5637 19.4679 29.2631 23.6161C28.5167 24.2005 27.8457 24.956 26.6375 24.8351C25.8787 24.7589 25.5316 24.6558 25.6712 23.7366Z" fill="black"/>
<path fill-rule="evenodd" clip-rule="evenodd" d="M72.8717 4.9525C71.511 5.90723 69.9064 6.50989 68.8539 7.8751C70.2067 6.91167 71.8921 6.42829 72.8717 4.9525ZM67.982 16.3513C69.2213 15.5763 70.2038 14.5193 71.2012 13.4772C69.9963 14.2882 68.8506 15.1655 67.9364 16.3053C66.8554 16.833 66.2498 17.8462 65.496 18.7106C66.3289 17.9273 67.3487 17.3442 67.982 16.3513ZM76.2416 2.97924C77.1081 2.8206 77.6006 2.39066 78.1622 2.10486C78.4679 1.94954 78.7848 1.51877 79.1381 1.96528C79.4744 2.39025 79.0756 2.63173 78.8067 2.8906C78.6556 3.0364 78.5267 3.20581 78.3656 3.39054C78.8544 3.538 79.1431 3.28989 79.4699 3.10226C79.723 2.95687 79.9885 2.49421 80.3165 2.91918C80.5178 3.17971 80.7568 3.44729 80.5584 3.92279C80.3517 4.41735 80.1202 4.84729 79.6546 5.1861C79.7896 5.21551 79.8671 5.259 79.9044 5.23622C80.1997 5.05439 80.4896 4.51261 80.821 4.87628C81.1184 5.20267 80.6147 5.5038 80.3878 5.78297C75.7835 11.441 69.5738 15.3502 64.4249 20.4179C63.2353 21.5889 61.5308 21.697 60.0364 22.1833C59.7353 21.7156 60.3052 21.5305 60.1938 21.1896C58.1054 22.0822 54.8709 19.9292 55.9412 17.2348C55.5593 17.026 55.066 17.8255 54.7822 17.1669C54.4617 16.423 54.2885 15.612 54.9401 14.9463C55.7813 14.0873 56.6627 13.2655 57.5537 12.4578C59.3314 10.8462 61.1315 9.25853 62.9147 7.65226C63.5045 7.12125 64.1163 6.6267 64.8324 6.27463C65.1791 6.10397 65.6434 5.90102 65.8953 6.1835C66.5708 6.94149 67.0691 6.43202 67.6163 6.07001C70.4101 4.2206 73.2838 2.51202 76.3406 1.12776C76.5796 1.01966 76.8161 0.899123 77.0659 0.824981C77.2435 0.772377 77.4598 0.78646 77.5728 0.964566C77.7025 1.16918 77.5244 1.30835 77.4051 1.44752C77.0265 1.88823 76.5237 2.23741 76.2416 2.97924Z" fill="black"/>
<path fill-rule="evenodd" clip-rule="evenodd" d="M16.1344 1.62594C16.7909 1.41304 17.1695 1.22665 17.5643 1.18109C17.9416 1.13719 18.2237 0.522927 18.666 0.973163C19.0918 1.40683 18.3947 1.69139 18.4912 2.1176C19.0264 2.49245 19.4199 1.23577 20.0317 1.98589C20.484 2.5405 20.281 3.01476 20.0056 3.53624C20.3353 3.57559 20.5544 3.21731 20.9404 3.44719C20.3216 4.08713 20.4301 4.83518 20.6691 5.57991C20.8692 6.2037 20.3349 6.49861 20.037 6.75873C16.6534 9.71322 13.9955 13.3188 11.0443 16.661C10.6123 17.1502 10.1294 17.6067 9.41195 17.7628C10.4926 15.792 12.2807 14.3949 13.742 12.3509C12.3246 13.4684 11.3645 14.631 10.3567 15.7456C9.85473 16.3011 9.36308 16.8694 8.8213 17.3842C8.52473 17.6659 8.19959 18.1157 7.68929 17.6228C7.48758 17.4277 7.23864 17.5578 7.08456 17.7193C6.53574 18.293 5.67047 18.2673 5.09888 18.7946C5.00071 18.8849 4.72734 18.9623 4.71905 18.947C4.3558 18.2698 3.44373 18.3957 3.09124 17.984C2.58343 17.3909 2.37343 17.2612 1.88385 17.892C1.77574 18.0312 1.45805 18.1269 1.29113 18.0739C1.0103 17.9848 1.14657 17.6949 1.18882 17.4857C1.45722 16.1516 1.45432 16.1466 0.143788 16.4813C0.0232555 16.0439 -0.0981055 15.5837 0.122664 15.1691C1.39592 12.7796 2.30095 10.1962 4.59397 8.41719C7.38154 6.25547 9.99225 3.86636 12.6862 1.5837C13.7242 0.703933 15.0078 0.389968 16.2889 0.085116C16.5383 0.0258852 16.868 -0.097961 17.0324 0.141862C17.2333 0.434702 16.8796 0.573873 16.7222 0.765234C16.5598 0.962394 16.431 1.18689 16.1344 1.62594Z" fill="black"/>
<path fill-rule="evenodd" clip-rule="evenodd" d="M44.9999 42.4069C45.1593 42.6144 45.1705 42.8294 44.9742 43.0084C42.4861 45.2757 40.0091 47.5559 37.3583 49.6356C37.2796 49.6973 37.1619 49.7093 36.9656 49.7785C37.1271 49.462 37.2477 49.2247 37.3682 48.9878C36.4164 49.7391 35.2239 50.1968 34.999 51.6357C34.8416 52.6418 34.1457 52.8079 33.3268 52.1576C33.0518 51.9389 32.8182 51.9352 32.5067 51.9613C30.4498 52.1324 28.8004 50.2395 29.2499 48.1946C29.3907 47.5534 29.4416 46.9988 29.0991 46.3787C28.7441 45.7359 28.8862 45.0524 29.4284 44.5165C29.7481 44.2004 30.0754 43.8765 30.4502 43.6346C34.7438 40.8595 38.3068 37.1735 42.3597 34.1001C42.9264 33.6706 43.522 33.2742 44.1321 32.9089C44.4498 32.7188 44.8826 32.546 45.1871 32.8476C45.5677 33.2249 45.1113 33.5086 44.9369 33.8094C44.8433 33.9709 44.7364 34.125 44.5886 34.3561C45.2256 34.2803 45.6373 33.881 46.1252 33.6644C46.4086 33.5385 46.8522 33.3525 46.9466 33.6139C47.4026 34.8739 49.0097 34.726 49.5648 35.8779C49.8709 36.512 49.7073 36.9751 49.3403 37.4009C48.1457 38.7885 47.0038 40.2299 45.6017 41.4236C45.2828 41.6957 45.0135 41.9936 44.7998 42.3473C44.787 42.3684 44.8052 42.4355 44.8106 42.4355C44.8802 42.438 44.9502 42.4318 45.0202 42.4276L44.9999 42.4069Z" fill="black"/>
<path fill-rule="evenodd" clip-rule="evenodd" d="M45.0201 42.4276L47.0655 40.509C47.1309 40.5848 47.1968 40.6602 47.2622 40.736C46.5249 41.3121 46.2648 42.447 45.004 42.411C44.9998 42.4068 45.0201 42.4276 45.0201 42.4276Z" fill="black"/>
</svg>
