<svg width="108" height="54" viewBox="0 0 108 54" fill="none" xmlns="http://www.w3.org/2000/svg">
<path fill-rule="evenodd" clip-rule="evenodd" d="M24.6354 16.7136C25.5292 16.2112 26.4231 15.7088 27.3169 15.2063C26.2437 15.3716 25.3751 15.9039 24.6354 16.7136ZM73.7207 7.86462C73.0195 8.43539 72.4694 8.88397 71.9177 9.33007C71.8286 9.40255 71.4645 9.16438 71.6617 9.54131C71.7118 9.6374 72.0063 9.72646 72.025 9.70078C72.4806 9.06705 73.5815 9.08362 73.7207 7.86462ZM69.8744 8.00462C70.6022 7.71758 71.7433 8.22995 71.4119 6.70776C70.8345 7.01717 70.1424 7.10415 69.8744 8.00462ZM69.2192 8.01332C68.2404 8.27261 67.5371 8.70504 66.7203 8.73154C66.4738 8.73941 66.1114 8.78829 66.164 9.12089C66.2058 9.38764 66.5393 9.40131 66.8106 9.41953C67.8262 9.48829 68.554 9.03847 69.2192 8.01332ZM26.8849 10.4588C26.8534 10.3623 26.8228 10.2657 26.7917 10.1688C25.1954 10.1394 23.8132 10.7789 22.547 11.7821C23.9929 11.3406 25.4385 10.8999 26.8849 10.4588ZM76.3625 5.80646C76.7535 5.22947 76.937 4.889 76.2138 4.44166C75.8315 4.20515 75.0818 4.14924 75.1016 3.37841C75.1049 3.24752 74.839 3.33989 74.7272 3.42687C74.6419 3.49314 74.3871 3.47616 74.5557 3.71391C75.107 4.4922 74.6796 5.01782 74.0197 5.52397C74.5599 5.39433 75.0399 6.08231 75.5713 5.40924C75.7138 5.22823 75.4442 4.67652 75.9462 4.84717C76.3111 4.9706 76.3977 5.33302 76.3625 5.80646ZM72.3501 7.26403C72.2673 6.31054 73.2514 5.76338 72.5705 4.86746C72.2921 4.50089 72.9801 4.34764 73.2141 4.0987C74.5847 2.64279 76.1434 1.3861 77.7828 0.264444C78.4757 -0.209402 79.4329 0.0287639 80.2303 0.391604C80.4171 0.47693 80.6316 0.657935 80.5297 0.93048C80.3972 1.28586 80.1561 0.978941 79.9664 0.994267C79.7047 1.01581 79.4375 1.00586 79.213 1.29125C79.8103 1.79947 80.3086 2.39799 81.2136 2.44687C81.8527 2.48166 81.6705 3.20734 81.6903 3.5122C81.7376 4.23912 82.2251 4.46486 82.6442 4.8687C83.0464 5.2564 83.2274 5.7758 83.9834 5.49415C84.2667 5.38811 84.789 5.5832 84.9716 6.04007C84.5935 6.40415 84.2762 6.02764 83.9361 5.93072C83.7373 6.92728 84.4854 6.83782 85.0069 6.9977C85.2765 7.08012 85.6522 7.02669 85.6957 7.44297C85.7437 7.90439 85.1767 7.63598 85.0508 8.00918C85.8696 8.23119 86.1567 8.70794 85.2603 9.12794C84.6486 9.41456 85.1754 10.1129 84.5347 10.2947C84.557 9.88717 84.294 9.55995 84.0968 9.18799C83.5468 9.43941 84.1213 9.83871 83.9742 10.1485C83.3993 10.1879 83.2473 9.36279 82.568 9.69912C82.7403 9.2174 83.8835 8.7419 82.479 8.71705C82.0209 8.70918 81.7628 7.83604 81.0951 8.38196C80.9232 8.52196 80.874 8.12681 80.8702 8.01125C80.84 7.08799 80.1184 6.62119 79.4657 6.63072C78.6758 6.64273 77.5475 6.17592 77.1238 7.4819C77.0198 7.80208 76.6483 8.05143 76.3674 8.2958C75.9474 8.66072 75.4069 8.83012 75.6244 9.67137C75.73 10.0818 75.2433 10.8001 74.4269 10.5723C73.6225 10.3482 73.1226 10.653 73.1723 11.4976C73.2029 12.024 72.9685 11.7502 72.7415 11.853C71.8601 12.2498 70.7389 11.375 69.997 12.4734C69.6321 13.014 69.36 13.2716 70.3172 13.3168C69.1666 13.6601 68.008 13.9791 66.8677 14.3552C66.1408 14.5946 65.6736 14.2599 65.2826 13.743C65.0921 13.4911 65.0817 13.2024 64.5702 13.3072C64.0686 13.4095 63.6498 12.8972 63.5206 12.4478C63.289 11.6446 62.7092 11.1207 62.2515 10.489C61.708 9.73723 61.0416 9.7832 60.5653 10.371C59.3873 11.826 57.7155 12.7708 56.6229 14.2901C56.1681 14.9226 55.0029 14.7843 54.9839 15.8517C54.6948 15.833 54.3945 15.7539 54.1207 15.8082C53.4977 15.9316 52.8843 16.1085 52.2742 16.2874C51.7183 16.4498 51.2751 16.451 51.213 15.5588C51.0697 16.6204 50.5544 16.6275 49.82 16.3744C49.5537 16.282 49.1275 16.3847 49.149 16.024C49.1594 15.8471 49.4854 15.3886 49.9103 15.5903C50.2421 15.7477 50.5495 15.8194 50.5333 15.3501C50.5151 14.8278 50.0213 15.1003 49.8275 15.1301C48.2461 15.3699 47.0975 14.824 46.2886 13.4356C45.9502 12.8549 45.2808 12.7588 44.7233 12.9895C42.8826 13.7504 40.9367 14.6173 39.769 16.1495C39.0032 17.1539 37.9747 17.7259 37.2064 18.6388C36.535 19.4353 35.5222 19.8553 34.8943 20.7898C34.3467 21.6037 31.888 21.4985 31.2448 20.646C30.0887 19.1147 28.3441 18.0266 27.7593 16.0621C27.5982 15.5211 27.237 15.6317 26.8721 15.843C26.2226 16.2199 25.5773 16.6047 24.9237 16.975C24.5857 17.1668 24.3197 17.4944 23.8132 17.2471C23.3021 16.9982 23.1314 17.5631 22.8908 17.8547C22.7624 18.0109 22.8928 18.4711 22.7015 18.4454C21.5885 18.2938 21.6585 19.4854 21.0194 19.8582C20.5973 20.1043 20.6193 20.103 19.8832 20.0566C19.6687 20.0434 19.4106 20.26 19.2189 20.4249C17.76 21.6828 16.1592 22.6288 14.2774 23.1735C13.4615 23.4092 13.0005 23.1963 12.6828 22.6168C12.0403 21.4454 10.9402 20.7243 10.082 19.7692C9.78294 19.4357 9.55016 19.3363 9.22294 19.7866C8.16052 21.2487 6.87235 22.4772 5.33815 23.4531C5.01756 23.6569 5.14099 24.3171 4.7007 24.4227C3.70827 24.6613 2.69679 24.8307 1.68614 24.9836C1.42478 25.0233 1.28892 24.8158 1.42229 24.5312C1.56436 24.2285 1.48318 24.0392 1.14851 23.9414C-0.0853994 23.5827 -0.3625 22.5746 0.499867 21.5183C1.75283 19.9837 3.03188 18.4702 4.28649 16.9377C5.53862 15.4089 6.78744 13.8763 8.01058 12.3243C8.43513 11.7863 8.87957 11.2677 9.45738 10.9165C10.1089 10.5213 11.0222 10.3664 11.3826 11.0527C12.0321 12.2908 13.2544 13.1726 13.5534 14.5995C13.7398 15.4905 14.1022 15.2084 14.5914 14.8394C17.6263 12.5459 20.7361 10.3751 24.3765 9.11592C24.4477 9.09149 24.5157 9.05711 24.5869 9.03391C28.9029 7.65131 29.4252 8.64498 31.1056 12.1748C31.9257 13.897 31.4784 14.129 33.3183 12.6665C35.2008 11.1695 36.8974 9.43859 38.9295 8.1293C40.5734 7.07018 42.2108 5.98373 44.3397 6.31095C45.9054 6.5516 46.9968 7.55521 47.986 8.62095C49.6229 10.385 51.2552 9.99072 52.9651 8.66693C54.8219 7.23007 56.5483 5.62545 58.3629 4.13184C60.4733 2.39385 61.7267 2.63243 63.4025 5.05178C63.7654 5.57575 64.0416 6.1664 64.4438 6.65557C65.3911 7.80746 66.5529 7.95119 67.854 7.24788C69.0821 6.58433 70.3822 6.05581 71.5213 5.22699C71.694 5.10107 71.8804 4.71214 72.1554 5.07829C72.3402 5.32474 72.1728 5.58444 72.0411 5.81143C71.682 6.43107 71.6787 6.429 72.3501 7.26403Z" fill="black"/>
<path fill-rule="evenodd" clip-rule="evenodd" d="M66.2559 24.9111C66.2737 25.0192 66.2919 25.1269 66.3102 25.235C67.3519 25.2449 68.3203 24.9736 69.181 24.2894C68.206 24.4969 67.2309 24.704 66.2559 24.9111ZM33.814 33.1475C32.7777 33.2925 31.7397 33.512 30.8297 34.1337C31.9079 34.1101 32.8937 33.7791 33.814 33.1475ZM47.5224 31.9571C48.7302 32.165 50.3841 31.6481 51.3625 30.8744C50.0461 31.2455 48.7841 31.6013 47.5224 31.9571ZM53.8063 25.8795C54.464 25.3468 55.4386 25.2251 55.9179 24.4228C55.1773 24.8506 53.9699 24.5723 53.8063 25.8795ZM10.289 36.9196C11.5163 37.0791 12.3269 36.9333 12.9693 35.827C12.0129 36.2026 11.1779 36.2424 10.289 36.9196ZM60.4645 23.3636C59.7542 22.6877 57.7097 23.2667 56.9459 24.3702C58.0038 23.6979 59.26 23.7265 60.4645 23.3636ZM52.7761 25.7039C50.4069 26.792 47.9764 27.6208 45.3458 28.1663C46.6547 28.974 51.6574 27.2878 52.7761 25.7039ZM36.4342 27.8772C33.8413 27.9128 31.738 29.6603 29.2139 29.9457C28.9455 29.9764 28.6555 30.1934 28.7355 30.4701C28.8357 30.8176 29.2073 30.7816 29.5005 30.7033C30.7381 30.374 31.9431 29.8844 33.1703 29.5907C34.4585 29.283 35.3735 28.5072 36.4086 27.8511C37.8723 27.9012 39.1278 27.2364 40.4864 26.7489C39.5606 25.9155 37.7121 26.4685 36.4342 27.8772ZM69.0439 30.029C66.8047 30.671 64.8692 30.1996 63.2707 28.4658C62.8739 28.035 62.3674 27.6527 61.7854 27.8407C60.2723 28.3291 58.6491 28.2003 57.1547 28.8982C54.8587 29.9706 52.714 31.3706 50.2727 32.1294C49.3486 32.4168 48.4187 32.6848 47.4739 32.9665C47.3836 33.4482 47.9685 33.1019 48.0571 33.4014C47.9436 33.4453 47.8302 33.5352 47.739 33.5165C46.187 33.2013 44.4147 33.348 43.3477 31.9003C42.9463 31.3552 42.3147 31.2194 41.9108 30.7083C41.7683 30.5285 40.9714 30.7464 40.5394 30.9344C38.1097 31.9923 35.7148 33.1305 33.2755 34.1668C32.4277 34.5268 31.4932 34.692 30.5894 34.9083C30.2047 34.9998 29.8832 35.0213 29.5382 34.5736C29.2739 34.2319 28.7537 33.5058 28.0786 34.2219C27.5993 33.6574 26.6289 34.2149 26.2184 33.256C25.7537 32.1696 24.8842 32.3493 23.8152 32.7296C22.3381 33.2548 21.6477 34.7231 20.2377 35.2297C19.9474 35.3341 19.7817 35.6 19.6636 35.8941C19.5804 36.1003 19.4578 36.442 19.3277 36.4541C18.0947 36.5688 18.2028 37.8636 17.5226 38.4431C16.4391 39.3651 15.3804 40.3331 13.9502 40.7158C13.5049 40.8347 13.5202 40.8496 13.2858 41.4307C13.2456 41.5313 13.0522 41.5935 12.9176 41.6295C11.9939 41.878 11.5979 41.6552 10.6047 40.611C10.4145 40.4109 9.91294 40.512 9.55631 40.4644C8.32158 40.2983 8.02004 38.9869 7.0885 38.4451C6.91661 38.3453 6.67761 37.9647 6.58732 38.2132C6.20957 39.2561 4.81081 39.223 4.49519 40.3107C4.39454 40.6557 4.12448 40.9589 3.90081 41.258C3.6556 41.586 3.35613 41.9874 2.93821 41.9203C2.58282 41.8635 2.54927 41.3872 2.55424 41.0591C2.56377 40.3993 1.58252 40.5265 1.64548 39.6857C1.71755 38.7222 2.0543 37.8826 2.53477 37.1706C3.71608 35.4198 4.22844 33.4221 4.89448 31.4799C5.08584 30.9224 5.25856 30.531 5.91755 30.4987C6.53554 30.4684 6.83045 30.7045 7.24093 31.2219C8.04903 32.2391 8.47152 33.3873 8.90767 34.5512C9.15081 35.1999 9.6201 35.4417 10.2315 35.3299C11.6932 35.064 13.0799 34.6461 14.0007 33.3206C15.6923 30.8843 18.192 29.4263 20.6047 27.8457C21.1738 27.4729 21.6895 26.939 22.228 26.4776C22.848 25.9458 23.5824 25.6939 24.3756 25.6757C25.2156 25.6562 25.6952 26.1251 26.0713 26.8935C27.0998 28.9939 28.0272 29.2938 30.2291 28.4496C32.5888 27.545 34.9245 26.5551 37.338 25.8232C38.4526 25.4856 39.4836 24.8535 40.7225 24.832C41.7712 24.8138 42.7119 24.9488 43.2934 25.86C43.9234 26.8462 44.7717 26.8968 45.7509 26.6748C48.398 26.0742 50.947 25.1878 53.3846 23.9974C55.2427 23.0899 57.1385 22.2623 59.1213 21.6944C60.6116 21.267 62.1437 21.2976 63.3528 22.4897C64.3626 23.4858 65.5008 23.5641 66.7931 23.2696C70.0409 22.5294 73.0641 21.1841 76.0903 19.8541C79.6226 18.3025 83.0112 16.4324 86.6329 15.0767C87.492 14.7553 88.3444 14.3531 89.329 14.7673C88.9931 15.5125 88.3341 15.5456 87.7852 15.6976C86.5903 16.0286 85.4562 16.4925 84.3789 17.0964C84.2418 17.173 83.9713 17.2881 84.115 17.5035C84.2745 17.7417 84.4112 17.5333 84.6179 17.4439C86.0199 16.8329 87.3027 15.8513 88.9467 15.9362C89.3542 15.9573 89.9478 15.7171 89.6926 16.5654C89.6007 16.8702 89.9859 16.8201 90.1454 16.9381C90.3003 17.0533 90.5434 17.2591 90.4241 17.349C89.9586 17.6994 89.976 18.4732 89.529 18.6554C87.7616 19.377 86.0613 20.2919 84.5325 21.3506C82.821 22.5361 80.6742 23.1147 79.3786 24.8941C78.0026 24.81 77.6323 26.587 76.1507 26.5393C75.1894 26.5083 74.4964 27.5699 73.7563 28.1535C72.3161 29.2892 70.6854 29.6413 69.0223 30.0335C69.8313 29.2648 71.0354 29.3161 71.8907 28.6323C70.5445 29.1455 69.1259 29.3662 67.7271 29.7664C68.143 30.1835 68.7104 29.4288 69.0439 30.029Z" fill="black"/>
<path fill-rule="evenodd" clip-rule="evenodd" d="M38.8754 53.1549C38.0764 52.3464 38.0764 52.3464 37.125 53.3541C37.7521 53.2829 38.2715 53.2236 38.8754 53.1549ZM31.0619 45.6504C30.7272 45.9523 30.4087 46.1661 30.5947 46.5964C30.7827 47.0318 31.1638 47.221 31.9574 47.2807C31.1775 46.8354 31.3013 46.2294 31.0619 45.6504ZM84.6459 40.465C83.6592 40.4749 82.8279 40.9318 81.961 41.2719C82.8279 40.9165 84.0125 41.8799 84.6459 40.465ZM77.8687 44.7619C77.8766 44.8212 77.8849 44.88 77.8931 44.9392C79.0011 44.7996 80.1095 44.6642 81.2154 44.5126C81.2842 44.5031 81.3956 44.3556 81.384 44.2914C81.3455 44.081 81.155 43.9642 80.9715 44.006C79.9339 44.2433 78.9025 44.5072 77.8687 44.7619ZM82.3234 46.3595C80.7677 46.7 79.1726 46.8122 77.6044 47.0823C79.2699 47.3863 80.795 46.8615 82.3234 46.3595ZM38.9528 48.3651C38.2607 48.4541 37.564 48.52 36.8802 48.6496C36.6946 48.6848 36.316 48.3671 36.3028 48.8807C36.2933 49.2593 36.5248 49.35 36.8383 49.4557C37.8399 49.7916 38.3295 48.9839 38.9528 48.3651ZM68.2514 39.4991C69.0914 40.2703 70.0813 39.7716 71.0162 39.7795C71.2344 39.7812 71.3454 39.6246 71.3591 39.42C71.3695 39.258 71.258 39.0778 71.1147 39.1362C70.1844 39.5186 69.1067 38.657 68.2514 39.4991ZM80.1758 41.8377C79.8531 41.7461 76.455 41.8161 76.1398 41.9176C75.9957 41.9636 75.8213 42.0075 75.866 42.196C75.8967 42.3268 75.9866 42.4859 76.0972 42.5497C76.8846 43.0012 79.4112 42.5497 80.1758 41.8377ZM56.3186 50.3557C56.7705 50.5665 57.3355 50.1875 57.7087 50.7616C57.1412 51.1522 56.5274 51.2177 55.9036 51.1303C55.5648 51.0831 55.2517 51.0321 54.9149 51.146C54.1155 51.4169 53.512 51.4202 53.5083 50.2816C53.5066 49.7617 51.6083 48.7817 50.9924 48.8977C50.2257 49.0415 49.2718 49.0042 48.7222 49.314C47.2468 50.1449 45.4401 50.4957 44.3631 51.9728C44.1552 52.2586 43.8533 52.2175 43.5853 52.3219C42.597 52.7067 41.3548 52.5506 40.7463 53.7795C40.5078 54.26 40.3984 53.2816 39.8823 53.5293C39.302 53.8081 38.5747 53.8102 37.9057 53.8686C36.268 54.0102 35.3518 53.5819 35.0647 52.0361C34.8779 51.0292 34.4733 51.3983 33.9451 51.532C34.1481 51.04 34.624 50.5591 33.6565 50.4891C33.0244 50.4431 32.9995 49.7212 32.6905 49.3302C32.4739 49.056 32.9254 49.1918 33.0861 49.1313C33.3653 49.027 33.6912 48.9106 33.7509 48.5345C33.403 48.4918 33.5169 47.7794 32.9229 48.018C32.5493 48.1679 32.1442 47.9451 31.7553 47.6481C32.0883 48.5328 31.3522 49.1036 31.2727 49.8678C31.2131 50.4365 30.9786 51.0097 31.1389 51.5954C31.2487 51.9951 30.9447 52.1823 30.8208 51.9595C30.4543 51.2997 29.5298 51.1692 29.3885 50.3193C29.333 49.9858 29.5173 49.9361 29.7062 49.8384C29.9001 49.7381 30.4675 49.915 30.2617 49.5928C29.8607 48.9677 30.0401 48.3431 29.9593 47.7222C29.2038 48.4313 29.3989 47.2248 28.9578 47.19C28.8538 47.1817 28.742 46.4382 29.2249 46.4423C30.475 46.4523 30.359 45.4665 30.294 44.8274C30.1921 43.8296 30.6924 43.3615 31.3974 42.9096C31.8108 43.1258 31.2234 43.8925 31.9586 43.9381C32.5547 43.9749 32.4888 43.3868 32.7547 43.1138C32.8989 42.9647 33.1043 42.7704 32.9291 42.5265C32.756 42.2862 32.4988 42.4378 32.3078 42.4913C31.2889 42.7754 31.3767 41.7996 31.5776 41.5784C32.2212 40.8701 32.5004 39.888 33.3094 39.3264C34.1676 38.7312 34.7578 38.9735 34.9421 39.982C34.9612 40.086 35.0217 40.2007 35.0983 40.2736C36.7514 41.8571 36.4117 43.8892 36.3024 45.8376C36.2092 47.5027 36.268 47.5719 37.9186 47.1718C39.8413 46.7058 41.5491 45.7461 43.309 44.9115C45.3353 43.9497 47.3243 42.8976 49.5034 42.3173C51.2327 41.8571 52.8041 42.1355 53.9594 43.6365C54.5637 44.421 55.2194 44.508 56.1219 44.1547C59.1278 42.9775 61.8673 41.3 64.6433 39.6954C66.0097 38.906 67.4698 38.2979 68.9186 37.7599C70.6156 37.1299 72.3797 37.5557 73.6368 38.9424C74.8082 40.2351 76.139 40.5379 77.7809 40.301C82.3802 39.6354 86.7504 38.1496 91.1107 36.6361C95.6094 35.075 100.03 33.306 104.416 31.4524C104.656 31.3509 104.915 31.2648 105.172 31.2432C105.586 31.2076 106.117 31.1931 106.25 31.6297C106.355 31.9776 105.815 32.0609 105.571 32.2721C105.338 32.473 104.755 32.4705 104.934 32.8992C105.124 33.354 105.584 32.987 105.931 32.9713C106.403 32.9506 107.494 32.3375 106.691 33.692C106.653 33.757 106.686 33.9082 106.739 33.9786C107.751 35.3107 107.232 36.4729 105.594 37.1187C104.458 37.5668 103.33 38.1492 102.288 38.7821C100.248 40.0189 98.054 40.9219 95.9316 41.9665C92.2237 43.7923 88.4167 45.4197 84.4806 46.7141C82.183 47.4696 79.8287 47.8817 77.404 47.8059C77.0159 47.7939 76.6543 47.7885 76.332 48.0834C76.6261 48.3858 76.9873 48.5249 77.3816 48.6024C76.7421 48.4794 76.052 48.5047 75.5902 47.8871C75.3963 47.6286 75.1143 47.6526 74.814 47.6038C74.4085 47.5375 73.6799 47.4853 74.0647 46.6751C74.0933 46.6146 74.0899 46.5384 74.1011 46.4693C73.1679 46.7095 73.491 45.5601 72.9443 45.4151C72.2492 45.2312 71.7021 44.8593 71.2129 44.3469C70.8472 43.9646 70.329 43.9791 69.8634 44.0507C69.4542 44.1137 68.9422 44.7408 68.8611 43.7455C68.8594 43.7289 68.5802 43.6945 68.4539 43.7372C68.2224 43.8151 68.2211 44.0474 68.3122 44.2057C68.5732 44.6575 68.4875 45.0838 68.0306 45.2109C67.3057 45.4135 66.8654 46.1996 66.0619 46.1445C65.6436 46.116 65.8618 45.5572 65.5197 45.3161C65.2596 45.9014 64.2498 46.0004 64.6085 46.946C64.6213 46.9804 64.5157 47.1117 64.4738 47.108C63.7453 47.0409 63.6612 47.4157 63.4885 48.0673C63.3046 48.761 62.3473 48.7962 61.7008 49.0696C61.5997 49.1119 61.4233 49.1711 61.4216 49.227C61.3731 50.7455 60.1119 49.7531 59.5146 50.1378C59.3324 50.2551 59.1717 50.0525 59.0271 49.8293C58.4443 48.9296 57.9278 48.9217 57.2746 49.6661C57.0282 49.9469 56.657 50.118 56.3186 50.3557Z" fill="black"/>
<path fill-rule="evenodd" clip-rule="evenodd" d="M82.9057 47.8171C82.0015 48.366 81.0248 48.5693 79.7959 48.5436C80.8542 47.8084 81.9758 48.2168 82.9057 47.8171Z" fill="black"/>
</svg>
