<svg width="59" height="113" viewBox="0 0 59 113" fill="none" xmlns="http://www.w3.org/2000/svg">
<path fill-rule="evenodd" clip-rule="evenodd" d="M1.69274 102.919C1.62647 103.725 1.85511 104.465 2.14547 105.301C3.07866 104.213 1.50263 103.748 1.69274 102.919ZM52.4191 33.9114C53.4248 32.9504 54.1799 31.8325 54.6231 30.5219C53.8887 31.6515 53.1539 32.7814 52.4191 33.9114ZM43.1261 36.6124C44.9933 34.9978 46.7454 33.2859 47.824 31.0078C46.2736 32.8891 44.6471 34.7062 43.1261 36.6124ZM10.4262 63.0603C4.62322 69.5832 0.259608 88.0052 1.31127 96.5999C1.87624 90.6698 2.43665 84.8995 3.83748 79.2593C5.2557 73.55 7.23558 68.0606 10.4262 63.0603ZM7.40913 82.5121C6.58819 83.9883 6.37943 85.6559 6.1276 87.2638C5.45908 91.5284 4.9873 95.8266 5.25198 100.155C5.47233 103.758 5.57754 107.372 6.15369 110.946C6.35624 112.204 6.32641 112.207 5.10245 112.371C5.01298 112.383 4.926 112.463 4.8502 112.525C4.15476 113.11 3.20375 112.854 2.85085 111.959C1.79961 109.295 1.23547 106.503 0.727241 103.7C-0.170332 98.7508 -0.166191 93.7634 0.354875 88.7885C0.670082 85.7776 1.17168 82.7809 1.87831 79.8251C3.04553 74.945 4.35854 70.12 6.88724 65.7278C10.2406 59.9037 14.5475 54.9246 19.8903 50.8153C24.8569 46.9947 30.4549 44.1508 35.5645 40.5825C45.8048 33.4309 51.6988 23.8831 50.5888 10.9236C50.3581 8.23336 49.7711 5.57461 49.3822 2.8968C49.2269 1.82857 49.4518 0.87011 50.4707 0.257506C51.3654 -0.280541 52.6163 0.0462634 53.8291 1.03538C55.1773 2.13549 55.8529 3.6407 56.3627 5.20762C57.4703 8.60987 58.2109 12.0912 58.4263 15.6799C58.9093 23.7493 56.4771 30.7369 51.0229 36.7569C46.4749 41.7758 41.063 45.5032 35.0165 48.4498C30.7543 50.5266 26.9284 53.3208 23.1173 56.1241C20.1951 58.2734 17.801 60.9541 15.518 63.7169C14.2919 65.2005 13.2477 66.8755 12.5328 68.708C12.4533 68.9101 12.2901 69.0791 12.1716 69.2556C11.7732 69.1363 12.2495 68.8521 12.003 68.7055C10.683 70.504 10.1574 72.669 9.24902 74.6551C9.07132 75.0432 9.03695 74.8891 8.50801 75.0854C8.01263 75.2693 7.72973 75.8786 7.9273 76.5944C8.28641 76.3086 8.17044 75.8103 8.75487 75.5891C8.75239 76.6648 8.36635 77.5731 8.16215 78.5063C7.89085 79.7452 7.33127 80.9265 7.41535 82.2366C7.41369 82.3286 7.41121 82.4205 7.40913 82.5121Z" fill="black"/>
<path fill-rule="evenodd" clip-rule="evenodd" d="M9.52587 34.6868C8.55043 34.6868 7.57333 34.7104 6.59871 34.6781C5.97865 34.6578 5.44061 34.3521 4.96593 33.9748C4.66439 33.7349 4.47469 33.3949 4.58114 32.9786C4.72197 32.4306 5.03842 32.81 5.33043 32.8001C10.9789 32.61 16.5574 31.7497 22.1487 31.0037C23.4443 30.831 24.766 30.8148 26.0757 30.8152C26.4853 30.8156 27.1315 30.7295 27.1671 31.4842C27.1974 32.1258 26.7471 32.3121 26.2571 32.4451C23.7123 33.1348 21.0929 33.4098 18.4975 33.8078C15.5264 34.2639 12.5268 34.4643 9.52587 34.6868Z" fill="black"/>
<path fill-rule="evenodd" clip-rule="evenodd" d="M38.7975 22.1163C38.1882 21.9713 37.5214 21.6495 37.1573 21.017C35.3953 17.9565 33.7691 14.8222 32.3418 11.591C31.9653 10.739 32.2705 10.8972 33.0911 10.5829C35.0954 9.81451 35.5609 11.4042 36.3753 12.4269C37.8134 14.2332 38.8683 16.2661 39.6305 18.4489C39.8285 19.0168 40.0488 19.5772 40.2717 20.1356C40.888 21.6826 40.644 22.0409 38.7975 22.1163Z" fill="black"/>
<path fill-rule="evenodd" clip-rule="evenodd" d="M34.1085 25.3369C32.5084 26.2875 31.2393 25.4657 29.8844 24.8465C27.3408 23.6846 25.0876 22.0606 22.7519 20.5649C22.3278 20.2932 21.6311 19.9804 21.8241 19.4556C22.013 18.9416 22.7759 19.0477 23.3102 19.0369C24.1014 19.0203 24.7413 19.5 25.3771 19.8624C28.0454 21.3808 30.6781 22.9627 33.3178 24.5313C33.6292 24.716 33.9768 24.8912 34.1085 25.3369Z" fill="black"/>
</svg>
