<svg width="65" height="67" viewBox="0 0 65 67" fill="none" xmlns="http://www.w3.org/2000/svg">
<path fill-rule="evenodd" clip-rule="evenodd" d="M64.0989 19.9268C64.3391 19.8058 64.5131 19.7188 64.8863 19.5308C63.3401 23.0196 62.6161 26.5635 61.2595 29.8945C60.9091 30.7552 60.3972 31.3803 59.4209 31.4987C59.2768 31.5161 59.0485 31.6023 59.0013 31.5435C58.1667 30.4968 56.9775 30.913 55.9255 30.771C55.7793 30.7515 55.6272 30.7138 55.4968 30.6471C54.8022 30.2905 53.8317 28.2758 53.9423 27.4773C54.4215 24.0274 55.508 20.7697 56.9734 17.6205C57.2468 17.0328 57.6904 16.6608 58.1593 16.3038C59.4284 15.3378 59.6972 15.4488 59.9884 16.9648C60.0078 17.0655 60.1035 17.1516 60.1698 17.2531C60.6109 17.2345 60.6088 16.7946 60.8284 16.5763C61.0429 16.3617 61.3291 16.2089 61.5043 16.4554C62.1791 17.4026 63.4875 17.5232 64.1113 18.5781C64.4187 19.0984 64.0355 19.4252 64.0989 19.9268Z" fill="black"/>
<path fill-rule="evenodd" clip-rule="evenodd" d="M7.59762 4.2674C8.14312 4.0926 8.14105 3.55124 8.41484 3.22402C8.57928 3.02811 8.80999 2.61142 8.96117 2.76965C9.49549 3.32882 10.5505 3.19669 10.7841 3.80722C11.0181 4.41899 12.2131 4.52793 11.6796 5.50172C11.6734 5.51373 12.4972 5.21426 12.1629 5.94905C11.9944 6.32018 11.8573 6.71201 11.7616 7.1084C11.5213 8.1 11.7844 9.10941 11.7823 10.1047C11.7794 11.3664 10.8905 12.4135 11.1776 13.7091C11.2724 14.1366 10.5012 14.014 10.2829 14.4066C9.89809 15.0983 9.68809 14.5773 9.42508 14.2579C9.17366 13.9522 8.86798 14.1382 8.61076 14.2799C8.1862 14.5135 7.79312 14.8076 7.35987 15.023C6.47182 15.4645 5.68981 16.2125 4.50975 15.5743C4.01892 15.3088 3.27626 15.4744 2.65082 15.5018C1.94502 15.5328 1.43472 15.3373 1.08638 14.6634C0.713183 13.9415 -0.254391 13.5563 0.0628875 12.4499C0.564485 10.6983 1.35975 9.06426 2.82892 8.04864C4.27697 7.04793 4.96662 5.70385 5.52206 4.17834C5.75691 3.53343 6.05886 2.94154 6.63957 2.52651C6.89224 2.34633 7.14614 2.14503 7.45762 2.27426C7.87058 2.44533 7.70987 2.85207 7.72312 3.16272C7.73845 3.51811 7.45514 3.85527 7.59762 4.2674Z" fill="black"/>
<path fill-rule="evenodd" clip-rule="evenodd" d="M33.3347 10.6736C33.8243 9.68035 34.5442 10.1708 35.054 9.99059C35.7623 9.73999 36.0701 10.0221 36.6056 10.3414C37.0969 10.6338 37.7956 10.5539 38.3378 10.9793C39.1372 11.6072 39.5117 12.2339 39.3447 13.3535C39.0643 15.2369 38.3469 17.0088 38.1017 18.9162C38.0081 19.6452 37.0977 20.7606 36.1268 21.3107C35.6534 21.5791 35.537 21.1624 35.4078 20.8725C35.2243 20.4599 34.878 20.1775 34.5491 20.4931C33.7708 21.2395 32.9528 20.7097 32.3079 20.4935C31.5528 20.24 30.9642 19.7413 30.0265 19.6995C29.3733 19.6701 28.7308 18.7422 28.1381 18.1607C27.1362 17.177 27.248 16.0077 27.7078 14.8231C28.0474 13.9483 28.4152 13.0847 28.7805 12.2206C28.8526 12.0512 28.945 11.7961 29.0759 11.7609C30.3495 11.4208 31.016 10.3754 31.8883 9.52834C32.6571 8.78195 33.0907 9.09467 33.3347 10.6736Z" fill="black"/>
<path fill-rule="evenodd" clip-rule="evenodd" d="M13.3382 35.5404C13.0151 35.335 13.4848 35.0918 13.1696 34.8963C12.6904 35.1718 12.3225 35.6999 12.2248 36.1634C11.98 37.3178 10.8082 37.1152 10.2288 37.7332C10.0921 37.879 9.97195 37.7278 9.88331 37.6032C9.55278 37.1397 9.07562 37.1152 8.58065 37.1931C8.18219 37.2556 7.83882 37.261 7.65118 36.8075C7.54805 36.5594 7.35254 36.4836 7.11106 36.6604C6.38 37.1952 6.10414 36.6016 5.56816 36.2085C3.44041 34.6482 3.9445 32.694 4.48172 30.6653C4.74018 29.6882 4.94106 28.6933 5.11876 27.6971C5.28941 26.744 5.77568 26.1256 6.74491 25.9281C6.8555 25.9057 6.97272 25.9011 7.07544 25.8593C8.84988 25.1378 8.84988 25.1369 9.1626 27.1243C9.90361 25.4318 10.696 26.0966 11.6909 26.6914C12.6423 27.2597 13.6882 27.6105 14.3637 28.5939C14.662 29.0279 14.8488 29.4007 14.7572 29.9222C14.5609 31.0451 14.6831 32.2318 14.032 33.2644C13.9077 33.4616 13.952 33.6608 14.1169 33.9669C14.5037 34.6851 13.6641 35.0301 13.3382 35.5404Z" fill="black"/>
<path fill-rule="evenodd" clip-rule="evenodd" d="M31.7492 30.6956C32.4881 30.1716 33.2258 29.8916 33.8421 30.8621C33.9113 30.9706 34.0799 31.0505 34.2157 31.0766C36.8616 31.5848 37.9965 32.9981 37.9241 35.5835C37.8864 36.9301 37.444 38.2415 37.8288 39.656C38.1664 40.8977 37.4411 41.2966 36.148 40.7652C35.9177 40.6708 35.7396 40.7267 35.5163 40.8211C34.9331 41.0676 34.3508 41.1268 33.8533 40.5933C33.7261 40.4574 33.5116 40.3353 33.3442 40.4541C32.2176 41.2523 31.2571 40.3647 30.2377 40.1543C29.5535 40.013 28.9686 40.0151 28.3684 39.2103C27.685 38.2945 27.6937 37.5924 27.8424 36.6853C28.1365 34.8976 28.6841 33.1808 29.312 31.4879C29.4814 31.0306 29.6711 30.5874 30.0617 30.2495C30.9104 29.5151 31.3374 29.605 31.7492 30.6956Z" fill="black"/>
<path fill-rule="evenodd" clip-rule="evenodd" d="M12.4141 64.7673C12.2529 64.8804 12.1912 64.9189 12.1349 64.9644C11.8238 65.2142 11.816 66.0086 11.2411 65.7059C10.7138 65.4279 10.6421 64.7975 10.872 64.2015C11.6283 62.2427 12.3805 60.2827 13.1315 58.3219C13.4135 57.5863 13.6592 56.8349 13.976 56.1142C14.2009 55.6018 14.5025 54.9358 15.1192 55.0203C15.8528 55.121 15.2712 55.9187 15.5396 56.3412C15.9654 56.2931 16.0193 55.9282 16.1634 55.6375C16.4293 55.1007 16.7342 54.7614 17.1364 55.5323C17.2043 55.6627 17.2424 55.8744 17.4035 55.734C18.3939 54.872 18.8131 56.0662 19.3337 56.3913C19.9318 56.7649 19.9608 57.5763 19.6845 58.3853C18.9336 60.5843 18.2957 62.8222 17.6285 65.0494C17.4379 65.6856 17.1509 66.1772 16.4815 66.4477C16.1564 66.5794 15.9398 66.9211 15.7844 66.3226C15.765 66.2476 15.5707 66.1362 15.5405 66.1578C14.9312 66.591 14.2635 66.4407 13.5892 66.4775C13.2139 66.4982 12.8548 66.9066 12.3921 66.5761C11.8677 66.2008 12.2393 65.7597 12.2728 65.3455C12.2865 65.1786 12.3515 65.0154 12.4141 64.7673Z" fill="black"/>
<path fill-rule="evenodd" clip-rule="evenodd" d="M50.4753 5.40404C50.5797 4.95214 50.4952 4.61871 50.3026 4.26415C49.4779 2.74693 50.1327 0.82297 51.6959 0.110544C52.1557 -0.0990414 52.5177 0.0194202 53.0218 0.21658C53.9082 0.562024 54.6649 1.01185 55.3712 1.61575C56.1958 2.32031 56.9451 3.03273 56.6278 4.28114C56.5268 4.6767 57.1191 5.41025 56.8697 5.3506C55.7236 5.07433 57.0561 6.25853 56.3586 6.11108C55.6135 5.95327 55.251 6.64333 55.1056 7.03267C54.6786 8.17546 53.7856 8.16924 52.8727 8.21232C52.6113 8.22475 52.0045 8.54824 52.2833 7.77327C52.2928 7.74717 52.2725 7.71031 52.2659 7.67883C51.558 7.91285 51.4934 7.33049 51.1136 6.99043C50.5101 6.44948 50.5457 5.9396 50.4753 5.40404Z" fill="black"/>
</svg>
