<svg width="48" height="41" viewBox="0 0 48 41" fill="none" xmlns="http://www.w3.org/2000/svg">
<path fill-rule="evenodd" clip-rule="evenodd" d="M38.7143 0C39.7639 0.142899 40.6698 0.592722 41.4302 1.28609C41.7442 1.57189 41.8656 2.11781 41.4998 2.40568C40.3048 3.34675 40.5666 4.63574 40.6433 5.8332C41.1316 13.4508 42.8538 20.8273 45.1303 28.0853C45.9608 30.7341 46.8935 33.3511 47.7642 35.987C47.8822 36.3449 48.1382 36.6895 47.6959 37.0992C47.2547 37.508 46.9586 37.071 46.6326 37.0921C44.1577 37.2533 43.604 35.3305 42.7872 33.6791C38.6559 25.3276 36.6371 16.45 36.2018 7.18101C36.1222 5.48485 36.2101 3.7916 36.6781 2.15053C36.9767 1.10509 37.4862 0.193432 38.7143 0Z" fill="black"/>
<path fill-rule="evenodd" clip-rule="evenodd" d="M18.1682 15.8224C18.468 15.0752 18.8905 14.7773 19.6071 15.025C20.3112 15.2682 20.6683 15.6215 20.7051 16.4582C20.7842 18.2479 21.7655 19.7395 22.6341 21.2302C25.6913 26.4802 29.1292 31.4875 32.4925 36.542C32.7571 36.94 33.0533 37.3327 32.7861 37.8906C32.4618 38.5699 31.9921 37.9494 31.6123 38.0774C30.3618 38.4986 29.7099 37.6346 29.0596 36.8385C25.6838 32.7044 22.2074 28.6423 19.687 23.8889C18.8603 22.3295 18.0783 20.7526 17.457 19.0946C17.1824 18.361 17.6748 17.5363 17.008 16.8165C16.7363 16.5236 16.8564 15.8037 17.2217 15.344C17.4114 15.105 17.6036 14.7952 17.9333 14.8937C18.3202 15.0093 18.0907 15.4053 18.1682 15.8224Z" fill="black"/>
<path fill-rule="evenodd" clip-rule="evenodd" d="M1.29191 27.7183C2.73458 27.7701 3.58742 28.321 4.39552 29.32C5.95209 31.2448 8.12831 32.4468 10.2486 33.6658C13.0511 35.2779 15.9484 36.6974 18.9626 37.8807C19.7264 38.1802 20.4396 38.6201 21.1487 39.0413C21.4188 39.2016 21.7327 39.4311 21.4871 39.8644C21.2875 40.2177 21.017 40.1874 20.6475 40.2098C17.7659 40.3842 15.3681 38.8951 12.8626 37.8965C9.44712 36.535 6.17742 34.8339 3.25647 32.5454C2.18452 31.7054 1.23227 30.7511 0.424991 29.6555C0.0791331 29.1858 -0.164831 28.6962 0.135879 28.0907C0.465997 27.4267 0.977535 27.6173 1.29191 27.7183Z" fill="black"/>
</svg>
