<svg width="56" height="98" viewBox="0 0 56 98" fill="none" xmlns="http://www.w3.org/2000/svg">
<mask id="mask0_0_1108" style="mask-type:alpha" maskUnits="userSpaceOnUse" x="0" y="0" width="56" height="98">
<path fill-rule="evenodd" clip-rule="evenodd" d="M0.405273 0.0513306H55.9687V97.0275H0.405273V0.0513306Z" fill="white"/>
</mask>
<g mask="url(#mask0_0_1108)">
<path fill-rule="evenodd" clip-rule="evenodd" d="M23.0052 73.706C22.6217 73.2484 22.6631 72.2609 21.3223 72.7C22.1669 72.9042 22.135 73.8788 23.0052 73.706ZM25.3082 61.9332C24.9764 61.5985 25.3852 60.8331 24.6376 60.783C24.4015 60.7668 24.2478 60.9536 24.2483 61.22C24.2499 61.8881 24.8128 61.8458 25.3082 61.9332ZM48.549 72.8727C49.3215 72.2945 49.7415 71.7278 49.9967 71.0316C49.3944 71.4557 48.6708 71.7742 48.549 72.8727ZM11.3898 70.3171C11.022 70.3258 11.9341 71.4387 10.9126 70.8017C10.5734 70.5904 10.6819 70.9156 10.6065 71.0175C10.4123 71.2805 10.6799 71.3853 10.8099 71.3874C11.239 71.3944 11.8044 71.425 11.9858 71.0278C12.1706 70.6252 11.6541 70.4802 11.3898 70.3171ZM50.2212 66.8808C51.4381 65.4887 51.523 65.3413 51.54 64.5949C50.8309 65.2514 50.2299 66.2931 50.2212 66.8808ZM53.7406 61.0866C53.2871 60.6533 54.2211 60.7449 53.8334 60.4516C53.6164 60.2876 53.3645 60.4719 53.3351 60.8294C53.3094 61.1429 53.0671 61.3318 52.8281 61.5323C52.5643 61.7534 52.8439 62.0074 52.9106 62.2393C52.9205 62.2733 53.1839 62.2749 53.186 62.2642C53.3082 61.6192 54.1254 61.6362 54.3151 61.0692C54.33 61.0236 54.2799 60.9565 54.2489 60.8679C54.0513 60.9528 53.8562 61.0369 53.7406 61.0866ZM25.2051 66.7992C24.4032 66.7031 25.2005 65.5343 24.4599 65.5968C23.7197 65.6598 23.8718 66.6323 23.8245 67.0788C23.721 68.0481 24.4313 66.4927 24.6534 67.2118C24.6741 67.2797 25.1185 67.189 25.2051 66.7992ZM4.38939 84.9773C4.59814 84.858 4.97382 85.2345 5.03471 84.81C5.0956 84.3916 4.61347 84.3564 4.39187 84.4082C3.94246 84.513 3.56885 84.5647 3.11737 84.3419C2.84856 84.2089 2.64767 84.6356 2.45921 84.8394C2.37844 84.9263 2.42524 85.2105 2.50684 85.3521C2.71311 85.7117 2.96039 85.3281 3.19856 85.3397C3.63306 85.3608 3.82814 84.6265 4.38939 84.9773ZM7.35879 80.4584C8.01033 79.0136 9.44347 77.9756 9.74708 76.3441C8.86566 77.67 7.83057 78.9084 7.35879 80.4584ZM23.1216 76.593C22.7132 75.8371 22.6122 75.0008 22.1677 74.3269C22.0074 74.0846 21.8707 73.8651 21.5655 74.1223C20.7855 74.7801 20.911 75.5936 21.8471 76.0044C22.2754 76.1921 22.6971 76.3963 23.1216 76.593ZM23.7757 58.3326C23.2678 57.722 23.0914 58.6246 22.5629 58.5699C21.9979 58.5111 23.1432 59.9293 21.9743 60.1729C21.913 60.1857 22.0584 60.4152 22.1822 60.5075C22.9046 61.0447 23.1689 60.4098 23.4952 59.9836C23.779 59.6129 23.8854 59.0864 24.5316 59.0951C24.8497 59.0992 24.9847 59.8469 25.3144 59.3353C25.5422 58.9824 24.9056 58.8702 24.836 58.5533C24.6459 57.6876 24.088 58.4709 23.7757 58.3326ZM19.4941 81.6848C19.6821 82.1458 19.5852 82.5608 19.2766 82.9328C18.9792 83.2915 18.6955 83.7111 18.5236 84.0921C18.1061 85.0158 17.4471 86.4096 17.0412 87.0036C16.313 88.0672 15.4672 89.046 14.7498 90.1072C13.8228 91.4782 12.6589 92.6019 11.2896 93.0745C11.1363 93.1275 11.0593 93.2447 11.1574 93.4212C11.3968 93.8486 12.777 94.0889 12.8478 93.7078C13.0035 92.8691 13.7147 92.7183 14.1807 92.249C16.3349 90.0757 18.0655 87.6116 19.4373 84.8365C19.8648 83.9716 19.8424 82.8346 20.7785 82.1483C21.2138 81.8289 20.8568 81.4785 20.3357 81.5017C20.7184 80.8266 20.5855 79.9692 21.3497 79.3682C21.6736 79.1134 22.0219 78.1848 21.6649 77.5473C21.5692 77.3767 21.0701 77.9437 20.6741 77.7064C20.5797 78.2838 20.2487 78.1653 20.0064 77.8692C19.7736 77.5846 19.784 77.245 20.1928 77.0366C20.4314 76.9149 20.7251 76.7115 20.6107 76.4435C20.1696 75.4117 20.7056 74.5746 21.0751 73.6986C21.2892 73.1899 20.6621 72.0559 20.1137 72.1491C19.4241 72.2659 19.0649 71.9975 18.7158 71.4209C18.7025 71.9627 19.2323 72.5268 18.4349 72.8416C17.788 73.0963 17.382 72.8246 17.131 72.3479C16.726 72.4929 16.7139 72.8532 16.506 73.1717C16.4795 72.7244 16.5184 72.3425 16.0744 72.1544C15.9009 72.3595 16.096 72.7136 15.7435 72.8259C14.9474 73.0806 14.1716 73.3627 13.8497 74.2714C13.7768 74.4785 13.4993 74.3978 13.3697 74.2623C12.6038 73.4617 12.4916 74.2072 12.2944 74.7138C12.1561 75.0684 11.9713 75.3699 11.7021 75.6524C9.51223 77.9471 7.82767 80.5747 6.60081 83.4978C6.47779 83.7902 6.4869 84.1091 6.66377 84.3523C6.84808 84.6062 6.79382 84.7897 6.72093 85.0659C6.35394 86.4506 6.48773 87.861 6.78098 89.2241C6.91601 89.8529 6.8543 90.2886 6.43057 90.7637C6.66832 90.9733 7.06761 90.6278 7.26146 91.1029C8.20211 93.4042 9.24714 93.6689 11.2357 92.2415C13.2475 90.7972 14.7473 88.8745 16.0616 86.8433C16.6858 85.8794 17.3953 84.9375 17.7776 83.7392C18.0336 82.9369 18.2316 81.785 19.1826 81.2366C19.3334 81.3534 19.5728 81.4085 19.4941 81.6848ZM3.09749 79.5446C3.56388 79.4825 3.82814 79.1234 4.02406 78.7796C4.80856 77.4003 5.88258 76.2422 6.82779 74.9855C7.09122 74.6351 7.5369 74.3626 7.54353 73.5594C5.42489 75.2937 3.97767 77.2135 3.11613 79.5815C2.70027 80.0752 2.32459 80.5793 2.61868 81.283C2.67418 81.416 2.68081 81.5933 2.8672 81.6003C3.12442 81.6098 3.16666 81.4027 3.16335 81.2159C3.15258 80.6588 3.12069 80.1017 3.09749 79.5446ZM22.8984 80.1096C22.7058 80.2529 22.3123 80.3345 22.4751 80.6381C22.6515 80.967 22.9825 81.2168 23.2687 81.4761C23.2915 81.4972 23.5073 81.3427 23.6005 81.24C23.7214 81.1074 23.1788 80.2956 22.8698 80.132C23.1175 79.7629 23.5325 79.4837 23.4228 78.932C23.3656 78.6458 23.2488 78.3455 22.9746 78.4279C22.4332 78.5911 22.8305 79.2042 22.538 79.5587C22.2199 79.9439 22.6101 80.0317 22.8984 80.1096ZM18.4105 90.0264C18.058 90.7305 18.5298 91.2118 18.8752 91.7354C18.0717 91.9023 18.1318 92.9643 17.3837 93.1967C17.3659 93.2021 17.3688 93.4125 17.4222 93.4755C17.4827 93.5455 17.6753 93.6146 17.7018 93.5856C18.2026 93.0352 19.2377 92.804 18.8537 91.7122C19.5583 91.9085 19.714 92.4018 19.2219 92.8554C18.4519 93.5658 18.1728 94.8494 16.8626 94.943C16.9389 96.4656 15.3032 95.6612 15.0749 96.1201C14.3754 97.5301 13.2964 96.36 12.4982 96.7402C11.5385 97.1971 10.8919 96.5559 10.2483 95.9159C10.4272 96.2626 10.7842 96.5443 10.5535 96.8595C10.305 97.2004 9.87755 96.949 9.68205 96.751C9.23471 96.2974 8.96424 96.5082 8.71737 96.975C8.41874 96.4643 8.64738 95.9085 8.13998 95.2955C8.26672 96.0058 8.41998 96.6532 7.744 96.7282C7.32152 96.7746 6.58755 96.7331 6.91974 95.8675C6.92761 95.8472 6.80584 95.7391 6.78264 95.7507C5.65187 96.304 5.38016 94.7284 4.28874 94.7889C3.43424 94.8361 2.94838 93.6424 2.44803 92.978C0.353824 90.1966 0.0377889 87.076 0.746487 83.6564C1.01323 82.3682 1.01737 80.9715 1.41791 79.671C1.92075 78.0382 2.94217 76.7235 3.93252 75.3492C5.05004 73.7984 6.4285 72.5943 7.87033 71.4101C9.05743 70.4355 10.4289 69.7873 11.8367 69.2393C12.7157 68.8976 12.9025 69.2385 12.7219 70.701C13.4231 70.4173 13.8684 69.8585 13.5532 69.371C13.1195 68.7013 13.6646 68.7572 13.9376 68.6752C14.3472 68.553 14.7834 68.666 15.2228 68.4776C15.5753 68.3264 15.7745 68.7058 15.8752 69.0724C16.04 69.6713 16.0616 69.6651 16.8407 69.9683C16.2219 69.4435 16.8009 68.9527 16.6419 68.4262C16.5623 68.1636 17.1861 68.0476 17.5668 68.2336C19.3897 69.1237 21.1061 69.0757 22.678 67.6716C22.7865 67.5742 22.9344 67.52 23.067 67.452C23.1606 67.404 23.2993 67.3978 23.2285 67.2052C22.958 66.8672 22.746 67.1219 22.4974 67.2959C21.9449 67.6832 21.2942 67.4056 21.382 66.7442C21.5829 65.2298 20.9595 63.643 21.9374 62.1606C22.1847 61.7862 21.6848 60.9085 21.5054 60.2681C21.4313 60.0043 21.2586 59.7429 21.739 59.7421C22.0103 59.7417 22.1019 59.5702 21.9167 59.4024C21.2122 58.765 21.3919 58.1209 21.6417 57.3107C21.8032 56.7872 21.261 56.1841 21.4354 55.4621C21.5717 54.8968 21.7805 54.5526 22.2112 54.2415C23.1287 53.5788 23.1225 53.5697 22.427 52.5429C21.8612 52.8432 21.5671 53.2847 21.7117 53.9731C21.4545 52.9745 20.6874 51.9613 22.0397 51.1478C22.3496 50.961 21.9673 50.8707 21.8053 50.7427C21.3112 50.3526 21.0415 49.8261 21.1318 49.1762C21.3422 47.6594 21.0465 46.0962 20.9007 44.6552C20.7462 43.1243 20.4231 41.4858 20.0963 39.9105C19.0007 34.6291 18.1305 29.2635 16.04 24.2707C13.2458 17.5988 10.1646 11.0523 4.78578 5.93404C3.44998 4.66327 2.18874 3.30386 1.39554 1.59777C1.193 1.16161 0.90554 0.697706 1.31519 0.233801C1.75921 -0.269039 2.07897 0.428475 2.51057 0.413564C2.80838 0.402795 3.16791 0.701848 3.38619 1.04853C4.39891 2.66185 5.76909 3.96203 7.18773 5.19966C11.5174 8.97717 14.4971 13.7334 17.3104 18.6674C20.5851 24.4095 22.9381 30.4825 24.2826 36.9204C24.73 39.0614 25.6102 41.132 25.6139 43.348C25.6155 44.4808 25.5339 45.6311 25.7485 46.7304C25.9747 47.8897 26.1407 49.0429 26.1925 50.2179C26.2087 50.5878 26.3081 50.9631 26.0832 51.3152C25.9312 51.5533 25.5091 51.8337 26.229 51.9439C26.4771 51.982 26.2663 52.3034 26.161 52.4985C25.9353 52.9156 25.6238 53.3476 26.1751 53.7652C26.2298 53.8066 26.2882 53.9437 26.2874 53.9441C25.2146 54.611 26.3748 54.8934 26.5537 55.294C27.1887 56.7168 25.8765 56.1949 25.3977 56.4405C25.9084 57.3799 27.0247 57.9722 26.6063 59.2807C26.1954 59.4646 26.3056 58.9327 26.0823 58.7546C25.8458 59.3043 25.7336 59.7458 26.5197 59.8933C26.8445 59.9542 26.9091 60.2134 26.7583 60.5079C26.2911 61.4192 26.2911 61.4192 26.7799 62.1208C26.5405 62.3636 26.2207 62.2306 25.9506 62.2977C25.8583 62.3205 25.6996 62.4141 25.7063 62.4435C25.739 62.5798 25.7849 62.7508 25.8868 62.8262C26.6759 63.4086 27.1642 65.2224 26.7558 66.1291C26.7413 66.1622 26.6858 66.1916 26.69 66.2169C26.8221 67.107 26.2928 67.9333 26.3259 68.7505C26.3793 70.0748 27.7367 70.4368 28.6168 71.1202C28.9283 71.3625 29.3827 71.4114 29.7501 71.5924C34.5308 73.9521 39.3256 73.0359 43.0443 69.1954C45.0871 67.0855 46.5894 64.5899 48.3452 62.2758C49.4015 60.8836 50.6325 59.6087 51.3793 57.9942C51.5155 57.6988 51.8022 57.5758 52.0805 57.459C52.2872 57.3724 52.5332 57.2606 52.7084 57.4615C52.8849 57.664 52.7093 57.9159 52.6132 58.0811C52.0913 58.9841 51.5015 59.8477 50.9891 60.7556C49.9619 62.5752 48.6397 64.1943 47.5914 66.0201C46.4693 67.9752 45.1087 69.955 43.1938 71.365C43.1296 71.4122 43.1313 71.5497 43.0588 71.7871C43.8619 71.4607 44.4551 71.0096 44.9169 70.4753C46.005 69.2153 47.0641 67.9408 47.9687 66.5163C48.7909 65.2207 49.4441 63.7404 50.7928 62.825C51.1734 62.5665 51.1457 62.0612 51.289 61.7116C51.7815 60.5084 52.9735 59.7475 53.2328 58.4059C53.3119 57.9942 53.7423 57.8401 54.2182 58.2079C55.9678 59.5602 56.3058 60.2619 55.6733 62.2894C54.562 65.8536 52.6314 68.9755 50.4009 71.9308C50.0965 72.3334 49.814 72.7521 49.5986 73.2185C51.4074 71.9035 52.2971 69.8627 53.6565 67.9076C53.0261 72.0463 46.051 77.9007 43.3504 76.7823C43.1102 77.7151 41.6766 78.4192 40.7823 77.9806C40.499 77.8423 40.2576 77.6339 39.9755 77.8224C38.4802 78.8189 36.8553 78.4437 35.3969 77.9798C33.8229 77.479 32.0481 77.7702 30.6361 76.7169C29.4005 75.7953 27.8721 75.4266 26.5955 74.5854C26.2016 74.3257 25.8396 74.2429 25.5136 74.6305C25.174 75.0348 25.3115 75.4039 25.7199 75.659C26.1242 75.9117 25.9995 76.3101 26.0318 76.6539C26.062 76.9782 25.7419 77.0843 25.6362 76.8474C25.1897 75.8483 25.092 77.0839 24.7958 76.8946C25.7605 77.4906 25.9013 78.2647 25.2121 79.2953C25.1131 79.4436 25.138 79.5363 25.1935 79.6888C25.408 80.279 25.7535 80.9732 24.5473 80.6075C24.3096 80.5354 23.9252 80.7939 24.2619 81.0242C25.1326 81.6198 24.5486 82.413 24.4723 82.9825C24.3373 83.9927 23.8138 84.9566 23.4141 85.9242C23.3047 86.1892 23.0355 86.526 22.7501 86.4229C22.4792 86.3251 22.6118 85.9871 22.777 85.7717C22.6751 85.302 22.9514 84.7847 22.6167 84.3353C22.099 83.7749 22.077 83.0873 22.1358 82.3484C21.681 83.3863 20.7483 84.0822 20.4852 85.2175C20.3399 85.845 19.9749 86.4788 19.5504 86.9737C18.4859 88.2147 17.9205 89.7671 16.9082 91.0333C16.8113 91.1551 16.6377 91.3904 16.8515 91.5171C17.008 91.6103 17.2354 91.648 17.4073 91.3697C17.6997 90.8958 18.0721 90.4717 18.4105 90.0264Z" fill="black"/>
</g>
</svg>
