<svg width="156" height="216" viewBox="0 0 156 216" fill="none" xmlns="http://www.w3.org/2000/svg">
<path fill-rule="evenodd" clip-rule="evenodd" d="M25.5785 177.378C25.6079 177.378 25.6378 177.378 25.6676 177.378V169.156C25.6378 169.156 25.6079 169.156 25.5785 169.156V177.378ZM1.66794 87.2461C0.807645 88.905 0.528473 92.6373 1.08557 94.5112C1.06031 91.9609 1.07895 89.5764 1.66794 87.2461ZM77.2501 212.793C79.1658 212.793 81.0815 212.81 82.9972 212.79C87.1731 212.746 91.3168 212.35 95.4356 211.656C101.39 210.653 106.963 208.584 112.333 205.858C117.833 203.066 122.727 199.522 126.692 194.767C134.983 184.826 136.695 173.675 132.664 161.535C131.601 158.335 130.273 155.225 129.081 152.068C126.613 145.529 125.659 138.868 127.373 131.963C128.607 126.99 130.728 122.39 133.135 117.904C136.517 111.601 140.34 105.555 143.944 99.3826C146.87 94.3732 149.61 89.284 151.234 83.6641C152.622 78.8618 152.656 74.0347 151.089 69.3439C149.344 64.1183 145.951 59.9941 141.499 56.7389C136.382 52.9979 130.691 51.3129 124.346 51.5829C119.609 51.7851 114.932 52.4205 110.281 53.2323C104.496 54.2425 98.7227 55.2345 92.8274 54.4989C89.025 54.0247 85.3768 53.0289 82.1725 50.7968C77.2265 47.3515 74.2074 42.4759 72.0059 37.0118C71.1966 35.0037 70.5326 32.9476 69.9797 30.8435C69.2146 27.9321 68.204 25.0757 67.856 22.0765C67.7889 21.495 67.5251 21.1019 67.3743 20.6144C67.0624 19.6074 66.8578 18.5641 66.5008 17.5745C65.2197 14.0248 63.8056 10.5352 61.7984 7.31064C60.8875 5.84685 59.8781 4.26088 58.5552 3.40472C56.678 2.18904 54.3945 1.52508 51.9495 2.28514C51.1762 2.52537 50.3494 2.51212 49.6283 3.03691C49.3156 3.26431 48.7601 3.36247 48.3451 3.09324C47.8957 2.80165 47.7383 2.98514 47.3535 3.30656C46.5297 3.99496 46.1917 5.18123 45.0302 5.50845C43.9645 5.80916 43.2981 6.69182 42.661 7.47301C42.0679 8.19993 41.2689 8.64437 40.7056 9.48851C39.4042 11.4365 37.9872 13.3029 36.931 15.4103C36.571 16.129 36.1195 16.8103 35.7165 17.4921C35.164 18.4266 34.8662 19.46 34.3095 20.3953C33.4699 21.8048 32.7976 23.3754 32.3901 24.9643C31.9382 26.7259 31.2316 28.4225 31.0037 30.2458C30.8401 31.5551 30.4992 32.8478 30.4085 34.1592C30.1248 38.2428 30.2594 42.3276 30.5084 46.4112C30.6339 48.4673 30.6649 50.5296 30.7722 52.5874C30.8546 54.1663 31.3011 55.715 31.1611 57.3159C31.0435 58.6546 31.22 60.0761 30.9747 61.3179C30.6881 62.7685 30.966 64.5193 29.6385 65.6869C29.2252 69.0494 26.9818 71.2314 24.611 73.2668C21.7584 75.716 18.2965 76.9068 14.6842 77.7207C12.544 78.2028 10.4618 78.9335 8.71143 80.2403C6.58078 81.8312 5.27605 84.0704 4.68498 86.6699C4.52262 87.3832 3.97711 87.8972 3.88847 88.6279C3.75054 89.7657 4.23433 90.9362 3.65652 92.0599C3.51983 92.3263 3.53433 92.767 3.65611 93.0515C4.12581 94.1496 3.64699 95.3731 4.30019 96.5229C4.5951 97.0424 4.49031 98.0932 4.66344 98.8408C5.65338 103.113 7.08155 107.229 9.33812 111.03C11.4327 114.559 13.4333 118.159 16.4172 121.042C17.5629 122.149 18.5802 123.37 19.9002 124.339C22.0897 125.947 24.145 127.749 26.4326 129.22C28.4436 130.515 30.1575 132.168 32.0513 133.601C34.7552 135.648 36.069 138.32 35.2998 141.779C35.0443 142.93 34.6102 144.024 34.3853 145.199C34.1318 146.523 33.7984 147.879 32.9927 149.059C32.2675 150.122 31.7013 151.293 31.0236 152.39C30.7254 152.873 30.5775 153.535 29.8328 153.612C29.7077 153.625 29.4989 153.822 29.6149 153.92C30.3021 154.501 29.6331 154.929 29.4683 155.395C28.9795 156.772 28.415 158.123 27.961 159.511C27.2407 161.715 26.8638 164.017 26.0441 166.202C25.8921 166.607 25.7044 167.156 25.7587 167.712C26.1862 172.082 25.5512 176.48 26.0631 180.857C26.1381 181.497 26.2657 182.118 26.3456 182.747C26.5498 184.363 27.0353 185.812 27.9072 187.221C29.6961 190.112 31.9129 192.681 33.8505 195.456C34.7663 196.768 35.9071 197.86 37.2723 198.694C41.0883 201.028 44.7449 203.609 48.6611 205.79C52.3529 207.846 56.1052 209.72 60.1809 210.884C65.7606 212.479 71.4857 212.877 77.2501 212.793ZM38.3707 8.69449C36.7649 9.60738 36.2467 11.3147 35.3201 12.7242C35.9261 12.1137 36.484 11.4622 36.9363 10.7444C37.3833 10.0357 38.2552 9.61484 38.3438 8.66839C39.2347 8.17342 41.0378 6.1894 40.9731 5.6004C40.4637 6.32774 39.8888 6.84798 39.3172 7.37318C38.915 7.74307 38.3753 8.03259 38.3707 8.69449ZM24.2709 160.835C25.236 159.856 25.3155 158.473 25.8221 157.292C27.295 153.857 28.9953 150.548 30.8161 147.29C31.4714 146.119 32.0579 144.894 32.5363 143.64C33.6931 140.609 32.9439 137.918 30.3066 135.657C27.6748 133.4 24.7058 131.603 21.8677 129.628C18.685 127.413 15.706 124.953 13.0692 122.107C9.22214 117.954 6.11688 113.294 3.86362 108.097C1.57475 102.817 -0.188095 97.3733 0.0161063 91.5368C0.165219 87.2705 1.32208 83.2735 4.54498 80.215C6.80362 78.0719 9.60652 76.8737 12.5966 76.1248C15.2177 75.4687 17.8442 74.8925 20.1318 73.3049C24.9829 69.9379 27.0568 65.1725 27.3302 59.4408C27.5286 55.2929 27.0274 51.1787 26.771 47.0545C26.3034 39.5268 26.1 32.0393 28.5065 24.7286C30.6641 18.1751 33.8468 12.233 38.5998 7.18472C40.5341 5.12987 42.7306 3.37821 45.2415 2.11407C48.8865 0.278746 52.6785 -0.79652 56.7613 0.721527C59.7609 1.83697 62.0332 3.85454 63.8549 6.42052C66.0249 9.47774 67.475 12.8448 68.5349 16.4545C69.1587 18.579 70.0439 20.6413 70.5591 22.8142C71.204 25.5351 71.9434 28.2435 72.766 30.9019C74.926 37.8808 77.4895 44.7051 83.6566 49.345C86.276 51.3158 89.3481 52.0129 92.5296 52.3061C96.9114 52.7104 101.239 52.1773 105.57 51.5453C110.167 50.8742 114.726 49.9228 119.378 49.6453C123.377 49.4067 127.359 49.275 131.298 50.2898C140.984 52.7845 148.227 58.4024 152.878 67.2489C154.222 69.8061 154.796 72.6401 155.04 75.5441C155.184 77.2601 155.327 78.9679 155.117 80.6723C154.706 83.9896 153.751 87.1608 152.439 90.2358C150.965 93.6882 149.253 97.0204 147.406 100.281C145.65 103.382 143.737 106.393 142.01 109.509C140.815 111.665 139.478 113.736 138.399 115.972C137.841 117.129 137.411 118.451 136.407 119.425C135.756 120.056 135.787 121.096 135.331 121.879C133.207 125.528 131.831 129.479 130.667 133.514C130.595 133.762 130.499 134.042 130.323 134.214C129.699 134.828 129.646 135.476 130.045 136.229C130.14 136.407 130.121 136.671 130.092 136.888C129.521 141.154 130.278 145.27 131.483 149.337C132.635 153.228 134.21 156.97 135.53 160.801C137.507 166.534 138.795 172.381 138.051 178.507C137.733 181.131 137.195 183.749 136.21 186.17C132.673 194.861 126.696 201.445 118.527 206.087C116.282 207.363 113.975 208.514 111.65 209.597C105.832 212.306 99.6878 213.862 93.2772 214.439C87.8292 214.931 82.3771 215.17 76.9121 215.161C65.9205 215.14 55.5232 212.885 46.0293 207.075C42.3421 204.819 38.3786 203.04 34.7187 200.719C32.5926 199.37 30.744 197.761 29.2546 195.724C28.1665 194.235 27.0349 192.776 25.8784 191.34C23.6098 188.521 22.093 185.435 21.8031 181.741C21.4427 177.154 21.2746 172.563 21.5678 167.983C21.8172 164.08 23.382 160.471 24.7319 156.85C26.3316 152.556 28.6548 148.608 30.9056 144.634C31.1524 144.199 31.4942 143.817 31.881 143.467C31.8102 144.767 31.1056 145.799 30.5092 146.842C28.311 150.688 26.3229 154.625 24.7924 158.79C24.5422 159.471 24.4213 160.16 24.285 160.86C23.7018 162.327 23.2631 163.831 23.0324 165.391C23.4193 163.865 24.4341 162.509 24.2709 160.835Z" fill="black"/>
</svg>
