<svg width="96" height="77" viewBox="0 0 96 77" fill="none" xmlns="http://www.w3.org/2000/svg">
<path fill-rule="evenodd" clip-rule="evenodd" d="M83.2703 61.0514C83.2686 61.9589 83.1348 62.6473 83.9839 62.897C84.8728 63.1584 85.0406 62.4733 85.3363 61.9104C85.4825 61.6325 85.608 61.2407 86.0413 61.2928C86.4899 61.3463 86.6373 61.6822 86.7015 62.0877C86.7409 62.3358 86.7073 62.6655 87.0221 62.7517C87.3879 62.8515 87.5328 62.5251 87.7176 62.2948C89.2795 60.3493 90.5167 58.2033 91.5261 55.9327C92.1503 54.5277 92.707 53.0792 92.8744 51.5305C93.1059 49.385 91.4806 48.1933 89.4986 49.0441C88.3273 49.5469 87.3854 50.3641 86.6879 51.4075C84.6819 54.408 83.7429 57.7899 83.2703 61.0514ZM79.8713 61.9539C80.1895 56.3854 81.6392 51.1573 84.6185 46.3973C85.4076 45.1369 86.5234 44.183 87.7234 43.3327C88.4639 42.8075 89.3189 43.0808 90.1315 43.0361C90.3809 43.0224 91.1086 43.7349 90.9446 42.6641C90.9347 42.5975 91.3563 42.6563 91.5568 42.7478C92.8864 43.3567 93.9811 44.1996 94.648 45.5644C96.5508 49.4591 96.347 53.3414 94.65 57.2233C93.1614 60.628 91.2644 63.7416 88.4242 66.2305C86.9882 67.4889 85.193 67.7515 83.4832 68.1214C82.038 68.4341 80.5821 67.0676 80.2068 65.4407C79.9434 64.2987 79.9003 63.1319 79.8713 61.9539Z" fill="black"/>
<path fill-rule="evenodd" clip-rule="evenodd" d="M10.8023 67.0427C11.6489 64.2722 11.5578 61.7538 10.2659 59.3543C9.30951 57.5778 8.02921 57.4958 6.72572 59.0636C5.77306 60.2093 5.21099 61.5637 4.7678 62.9712C4.10217 65.0844 4.85933 66.5403 6.92537 67.2991C7.75626 67.6044 8.23632 67.4077 8.39537 66.5701C8.53288 65.8453 8.80419 65.1714 9.60152 65.2054C10.4929 65.2439 10.4254 66.127 10.5977 66.7549C10.6068 66.7884 10.6395 66.8162 10.8023 67.0427ZM14.229 61.3069C14.2932 65.7571 13.1032 69.3354 10.7824 72.5487C10.2738 73.2541 9.70217 73.9114 8.94874 74.3662C7.89087 75.0054 6.72407 74.6583 6.40058 73.5001C6.21916 72.849 5.90105 72.7111 5.33152 72.6133C2.76762 72.1735 0.824599 70.3067 0.744245 67.7531C0.577321 62.4617 2.22336 57.6818 5.83685 53.802C8.46164 50.9842 11.3395 51.6548 12.9901 55.1763C13.9693 57.2659 14.2269 59.501 14.229 61.3069Z" fill="black"/>
<path fill-rule="evenodd" clip-rule="evenodd" d="M39.7255 52.249C39.6729 51.3485 39.4679 50.3097 38.5123 49.8528C37.635 49.4332 36.9425 50.202 36.3833 50.7802C34.0816 53.159 32.6505 56.0277 31.8507 59.2179C31.6428 60.0459 32.1585 60.4518 32.8833 60.6958C33.5692 60.9269 34.0187 60.8031 34.2982 60.0654C34.4772 59.5936 34.7307 59.0224 35.3926 59.116C35.9691 59.1976 35.8519 59.8032 36.0172 60.1863C36.1013 60.3806 36.0333 60.6763 36.3179 60.7231C36.5701 60.7646 36.7482 60.5488 36.8439 60.3636C38.1557 57.8262 39.4451 55.2785 39.7255 52.249ZM28.1312 60.8743C28.3213 56.8118 29.8584 53.1437 31.5264 49.5177C32.5155 47.3685 33.7685 45.4635 35.955 44.2897C37.879 43.2567 39.6659 43.605 40.732 45.5576C42.4091 48.6301 43.0669 51.8878 42.0305 55.3373C41.1263 58.3477 39.745 61.1054 37.6558 63.4871C37.336 63.8512 36.9292 64.2244 36.5304 64.1138C35.663 63.8735 35.3321 64.4895 35.0272 64.9712C34.2017 66.278 33.0018 66.5907 31.6225 66.3542C30.0987 66.0928 28.8763 65.3551 28.3561 63.775C28.0442 62.8281 27.9912 61.8614 28.1312 60.8743Z" fill="black"/>
<path fill-rule="evenodd" clip-rule="evenodd" d="M13.0933 39.5655C13.4288 39.2321 13.4445 38.8837 13.5087 38.5557C13.5816 38.1842 13.8484 37.9742 14.1507 38.1531C14.8959 38.595 15.2558 38.062 15.6659 37.6428C16.7726 36.5124 17.7704 35.2661 18.5115 33.8901C19.315 32.399 20.1658 30.859 19.9483 29.0291C19.8133 27.8913 19.7081 26.6416 18.4468 26.2651C17.1545 25.8795 16.1778 26.7249 15.3308 27.6278C15.2799 27.6821 15.2467 27.7525 15.1987 27.8101C13.3517 30.0406 12.5271 32.7449 11.8656 35.4678C11.509 36.937 11.9033 38.4178 13.0933 39.5655ZM8.2082 38.3904C8.28773 34.8846 9.45039 31.6783 10.7597 28.474C11.6631 26.2626 12.8725 24.3072 14.4167 22.5203C15.7686 20.9567 18.538 20.3321 20.4391 21.4488C21.1512 21.8671 21.2775 22.7924 22.0549 23.1072C21.1512 24.0893 22.5155 24.4994 22.5967 25.2466C22.9277 28.2781 22.8332 31.1924 21.4104 34.038C20.0179 36.8243 18.1958 39.1704 15.7164 41.0219C15.4406 41.2281 15.3685 41.4559 15.3378 41.7765C15.2952 42.2197 15.2368 42.6828 15.0682 43.0887C14.0994 45.4244 12.4786 45.805 10.5878 44.1279C8.87548 42.6091 8.14607 40.6561 8.2082 38.3904Z" fill="black"/>
<path fill-rule="evenodd" clip-rule="evenodd" d="M72.9642 36.2325C72.9186 35.6567 73.011 34.9961 72.4241 34.7082C71.8773 34.4402 71.4395 34.9261 71.0315 35.2388C70.4603 35.677 69.9915 36.2254 69.6108 36.8326C68.0973 39.2478 67.0999 41.8586 66.6625 44.6834C66.5519 45.4 66.5374 46.288 67.2424 46.4231C67.9871 46.5655 69.0562 46.7395 69.5118 45.6245C69.6386 45.3138 69.7972 45.0044 69.9989 44.7377C71.9013 42.2144 72.3383 39.1923 72.9642 36.2325ZM63.7416 45.2032C63.9889 41.3077 65.137 37.3881 67.2445 33.7518C67.5079 33.2983 67.8273 32.8774 68.0915 32.4243C69.1606 30.5923 70.848 29.8678 72.8677 29.8181C73.5652 29.8012 73.9541 30.3537 74.2689 30.9352C75.408 33.0398 75.6983 35.2864 75.2332 37.5952C74.3112 42.1696 72.596 46.4334 70.0093 50.3352C69.547 51.0331 68.9531 51.6055 68.3446 52.1535C67.657 52.7723 67.0718 52.5383 66.839 51.6287C66.7594 51.3168 66.7822 50.9548 66.3473 50.8355C64.6126 50.3592 64.3811 48.7886 63.9507 47.4093C63.7656 46.8145 63.8215 46.1447 63.7416 45.2032Z" fill="black"/>
<path fill-rule="evenodd" clip-rule="evenodd" d="M56.4414 18.0818C55.5177 18.9027 55.2021 19.8956 54.7083 20.8043C53.8012 22.476 53.3908 24.2513 53.141 26.0937C53.0996 26.4002 53.1166 26.7282 53.4798 26.8363C53.8348 26.9419 54.0195 26.6466 54.1777 26.4105C54.3211 26.196 54.3318 25.805 54.5112 25.718C55.1172 25.4231 54.7063 23.9344 56.0023 24.4659C56.168 24.5334 56.3221 24.2343 56.1249 24.0881C55.2642 23.4515 55.813 22.754 56.0479 22.1107C56.508 20.8486 56.8386 19.5903 56.4414 18.0818ZM57.3369 13.0252C56.1009 13.603 56.6079 14.2024 57.3236 14.4749C58.9593 15.0987 59.0616 16.6043 59.3615 17.9103C59.5532 18.7453 59.3917 19.7224 59.1726 20.5806C58.1814 24.465 56.3962 28.0052 54.2486 31.3652C53.8953 31.9186 53.2731 32.2793 52.919 32.8717C52.7657 33.1272 52.4692 33.2925 52.1361 33.1798C51.8073 33.0684 51.7112 32.836 51.7476 32.4748C51.8151 31.8014 51.5219 31.2931 51.0265 30.8056C49.6621 29.4644 49.7897 27.6622 49.9338 26.017C50.3012 21.8158 51.7178 17.9219 54.0112 14.3825C54.7096 13.3044 55.6838 12.4768 57.3369 13.0252Z" fill="black"/>
<path fill-rule="evenodd" clip-rule="evenodd" d="M59.8951 68.2819C59.9833 68.5884 60.0716 68.8953 60.2 69.3426C61.1825 68.0988 61.8439 66.8094 62.2449 65.4057C62.5104 64.4758 61.7855 63.6714 60.8138 63.7228C59.8346 63.7741 59.1102 64.3176 58.5854 65.0896C57.2012 67.1267 56.5844 69.4748 56.229 71.8481C56.1234 72.5556 56.2079 73.5128 56.6478 74.2936C57.028 74.9675 56.2588 76.6661 55.4648 76.9217C54.4707 77.2419 53.999 76.5232 53.6606 75.7984C52.9933 74.3706 53.2265 72.8211 53.3632 71.3515C53.673 68.0284 54.6729 64.8871 56.3881 62.0009C57.1515 60.7161 58.0275 59.5352 59.6536 59.3016C62.4242 58.9044 63.5604 59.1955 64.2803 61.979C65.2292 65.6467 63.2174 70.7352 60.0902 72.935C59.7439 73.179 59.3939 73.3848 58.9437 73.2105C58.4301 73.012 58.5046 72.5403 58.4872 72.1542C58.4226 70.717 59.0663 69.4918 59.611 68.2409C59.7058 68.2545 59.8003 68.2682 59.8951 68.2819Z" fill="black"/>
<path fill-rule="evenodd" clip-rule="evenodd" d="M40.729 0.0644703C41.6158 -0.0121574 42.2644 0.335773 42.3038 1.1824C42.3726 2.67808 42.7056 4.07228 42.2698 5.70962C41.5367 8.46447 40.4105 10.9431 38.8618 13.2473C38.1779 14.2641 38.4567 15.3945 38.0251 16.4109C37.6656 17.2575 37.2423 18.03 36.5766 18.6629C36.1455 19.073 35.6865 19.3803 35.0718 19.027C34.4949 18.6957 34.2538 18.3312 34.2178 17.533C33.9924 12.5394 35.8829 8.08755 37.5666 3.57275C37.9394 2.57453 38.5342 1.71506 39.1542 0.860151C39.5705 0.286898 40.0737 -0.00470161 40.729 0.0644703Z" fill="black"/>
</svg>
