<svg width="199" height="157" viewBox="0 0 199 157" fill="none" xmlns="http://www.w3.org/2000/svg">
<path fill-rule="evenodd" clip-rule="evenodd" d="M182.635 124.468C184.802 123.889 189.519 119.854 189.78 118.241C187.605 120.828 185.213 122.761 182.635 124.468ZM35.3943 14.1207C35.1922 13.7993 35.4635 13.4924 35.4436 13.147C34.971 13.6171 34.0925 13.6262 33.9744 14.6497C34.5249 14.3684 34.8935 13.9621 35.4262 14.0876C34.826 14.9964 33.723 15.4516 33.3734 16.6416C33.1841 17.2852 32.1565 17.4236 31.8061 18.1207C30.9015 17.4563 31.1251 18.2483 31.0937 18.6811C31.0614 19.1313 30.6873 19.2983 30.3982 19.5045C30.0598 19.7452 29.8332 20.0492 29.5727 20.364C28.2431 21.9674 26.8295 23.5007 25.4709 25.0805C24.961 25.6732 24.3223 26.21 23.9168 26.8028C23.4835 27.4361 23.1182 28.1754 22.6655 28.8377C20.993 31.2823 19.1485 33.6313 17.7067 36.2051C15.9811 39.2864 14.1781 42.3386 12.7379 45.5785C11.5206 48.3176 10.0932 50.9743 9.23212 53.8555C8.68579 55.6842 7.72526 57.3484 7.39721 59.2745C7.00745 61.5671 6.20266 63.7715 5.85845 66.0959C5.43017 68.9896 4.88177 71.8774 4.69538 74.788C4.43484 78.8596 4.10887 82.9287 3.98916 87.0135C3.80982 93.1242 3.95396 99.1894 5.36763 105.17C6.13473 108.416 7.0381 111.631 8.46419 114.647C11.8114 121.725 16.3286 128.082 20.9225 134.38C25.9572 141.283 32.4535 146.133 40.7081 148.622C46.591 150.395 52.5692 151.614 58.6401 152.509C64.5959 153.387 70.4598 153.139 76.3398 151.891C83.8662 150.294 90.923 147.44 97.8368 144.174C106.815 139.933 115.741 135.578 125.197 132.446C131.232 130.447 137.372 129.082 143.754 128.95C147.15 128.879 150.507 129.378 153.872 129.689C162.37 130.476 170.411 128.748 178.176 125.445C182.049 123.797 185.582 121.603 188.382 118.397C192.644 113.52 194.214 107.647 194.44 101.346C194.674 94.8196 192.504 88.9922 188.837 83.7024C184.015 76.7467 179.056 69.8826 174.575 62.6978C169.937 55.2588 163.79 49.3813 156.378 44.7762C151.693 41.8652 147.031 38.9248 142.594 35.6356C138.417 32.539 134.497 29.1252 130.408 25.9222C125.907 22.3957 121.302 19.0033 115.929 16.8789C111.38 15.08 106.801 13.3565 102.224 11.631C97.8517 9.98246 93.3382 8.76015 88.9091 7.28062C87.4031 6.77737 85.7864 6.49447 84.2502 6.3437C82.7702 6.19832 81.6523 5.21086 79.9764 5.3111C78.3503 5.40885 76.4516 4.77346 74.709 4.25281C74.1503 4.08589 73.2059 4.08299 72.433 4.09045C70.9469 4.10453 69.4392 4.07553 67.9783 3.83571C66.6118 3.61163 64.9596 4.54317 63.8814 2.84577C64.2538 3.40701 64.2848 3.94962 63.917 4.36092C63.5703 4.74903 63.0025 4.68855 62.5332 4.54648C61.6427 4.27725 60.7637 4.42222 59.8657 4.44956C58.5005 4.49181 57.383 5.41755 55.9975 5.3811C55.6028 5.37074 55.1906 5.00749 54.7744 5.37406C54.1203 5.95062 53.193 5.845 52.4996 6.17139C51.2064 6.78027 49.8218 6.45346 48.544 6.89293C47.6861 7.18826 46.8892 7.56021 46.0981 8.01666C45.4047 8.41636 44.6567 8.8521 43.803 8.90968C43.3677 8.93909 43.127 9.44317 42.6536 9.36033C42.7083 10.3565 41.8103 10.1995 41.2847 10.5064C40.6248 10.8912 39.8586 11.0262 39.2398 11.5332C38.0435 12.5128 36.8693 13.5438 35.3943 14.1207ZM36.0599 10.9364C37.9503 9.46305 39.994 8.22417 42.0803 7.05778C43.3867 6.32796 44.7445 5.69092 46.0629 4.98181C46.5918 4.69725 47.0106 4.56429 47.2533 5.47264C46.9911 4.50589 47.5714 4.31246 48.1385 4.1066C48.8799 3.83778 49.649 3.62488 50.3536 3.27985C51.0093 2.95926 51.2756 3.13198 51.329 3.96163C51.5805 2.30731 53.0517 2.39512 53.9642 1.92376C55.8973 0.925535 58.0271 0.394943 60.2476 0.397014C60.6602 0.397428 61.1005 0.408197 61.4795 0.275239C62.708 -0.156359 63.9564 0.0358305 65.1973 0.0863631C66.447 0.13731 67.7066 0.176659 68.94 0.363878C71.0276 0.68157 73.1401 0.737073 75.2243 1.15583C77.6296 1.6392 80.0406 2.13127 82.4604 2.52477C88.7964 3.5553 94.8521 5.55051 100.875 7.6621C105.809 9.39181 110.698 11.2541 115.496 13.3329C121.136 15.7771 126.317 19.0071 131.149 22.7983C136.476 26.9784 141.617 31.3971 147.136 35.3287C150.015 37.3794 153.053 39.1952 156.072 41.0347C162.605 45.0139 168.478 49.7847 173.387 55.6813C176.477 59.3925 178.981 63.5163 181.587 67.5647C184.724 72.4394 188.148 77.1141 191.469 81.8609C193.811 85.2088 195.776 88.7461 197.119 92.6139C198.268 95.9251 199.01 99.3381 198.856 102.839C198.694 106.503 198.349 110.165 196.874 113.619C196.194 115.209 195.427 116.718 194.574 118.23C193.393 120.324 191.768 121.914 190.102 123.49C186.746 126.663 182.756 128.798 178.387 130.28C175.397 131.294 172.397 132.253 169.28 132.78C164.176 133.644 159.069 133.783 153.919 133.067C146.681 132.062 139.529 132.535 132.468 134.54C128.96 135.536 125.452 136.578 122.083 137.912C114.925 140.745 107.974 144.079 100.974 147.293C95.1408 149.971 89.2388 152.495 82.9815 154.072C79.7751 154.88 76.5344 155.539 73.2569 155.889C68.1299 156.437 63.0261 155.988 57.9422 155.179C52.039 154.239 46.217 152.979 40.4919 151.245C31.4611 148.511 23.9827 143.525 18.2613 136.001C13.7014 130.004 9.36964 123.833 5.95538 117.106C1.39999 108.131 -0.431191 98.5606 0.0844896 88.4893C0.340466 83.4949 0.57946 78.5009 1.09928 73.53C1.70899 67.6931 2.6865 61.9109 4.56076 56.327C6.14632 51.6018 7.97751 46.9731 10.309 42.554C14.0124 35.5358 18.1391 28.7851 23.2512 22.6984C26.0201 19.4014 28.9493 16.2365 32.4344 13.6357C33.6518 12.727 34.7486 11.6567 36.086 10.9082C36.1196 11.2785 35.9547 11.4533 35.6329 11.6815C34.6322 12.3919 33.629 13.1225 32.9004 14.1439C32.5529 14.1079 32.3006 14.192 32.0227 14.4732C31.0348 15.4727 29.9459 16.374 28.975 17.3884C27.8231 18.592 26.4679 19.6201 25.6436 21.1174C24.7125 21.7064 24.1024 22.551 23.6687 23.5355C24.3538 22.7494 25.5098 22.3269 25.6125 21.0884C25.9601 21.0246 26.2268 20.8159 26.4534 20.5699C27.6649 19.2523 28.9585 18.02 30.2342 16.7683C31.1193 15.8993 32.3868 15.3816 32.8818 14.1241C33.3415 14.303 33.5644 13.9203 33.8419 13.7016C35.1574 12.664 36.4567 11.6082 37.8663 10.6953C38.7071 10.1506 39.521 9.56453 40.3473 8.99707C40.2956 8.92045 40.2434 8.84382 40.1916 8.76719C39.0919 9.44234 37.9773 10.0955 36.902 10.8071C36.6038 11.0043 36.405 11.2797 36.0599 10.9364Z" fill="black"/>
</svg>
