<svg width="117" height="254" viewBox="0 0 117 254" fill="none" xmlns="http://www.w3.org/2000/svg">
<mask id="mask0_0_1089" style="mask-type:alpha" maskUnits="userSpaceOnUse" x="0" y="0" width="117" height="254">
<path fill-rule="evenodd" clip-rule="evenodd" d="M0 0.176025H116.975V253.657H0V0.176025Z" fill="white"/>
</mask>
<g mask="url(#mask0_0_1089)">
<path fill-rule="evenodd" clip-rule="evenodd" d="M98.1856 27.9852C97.7353 25.1123 95.3818 19.9861 94.0386 19.0836C95.8495 22.0505 97.068 25.0009 98.1856 27.9852ZM97.4069 63.213C98.5509 56.4329 99.3254 50.6499 99.2786 44.7922C99.2057 35.6877 97.5622 26.9542 92.6593 19.1171C88.8486 13.0263 83.7863 8.30607 76.8588 5.92773C71.2149 3.98968 65.3837 3.67157 59.4772 4.18767C48.6922 5.12956 39.5641 9.76737 31.6549 16.9094C25.082 22.8454 20.0995 30.0599 15.7401 37.7202C10.5261 46.8827 7.17645 56.6947 5.66668 67.116C4.0455 78.3069 5.28976 89.3416 7.92035 100.236C10.1011 109.268 12.9276 118.117 16.3382 126.766C18.7815 132.963 21.188 139.17 22.9418 145.606C24.348 150.766 25.1138 155.984 24.3956 161.351C23.8224 165.633 22.3909 169.691 21.2319 173.817C18.7733 182.568 14.601 190.606 10.7373 198.774C9.55852 201.267 8.67793 203.903 7.68757 206.484C7.14165 207.906 6.95071 209.433 6.53485 210.88C6.18029 212.115 6.2039 213.384 5.83444 214.586C5.22142 216.576 5.82325 218.554 5.92639 220.522C5.97941 221.537 6.06639 222.75 7.10935 223.529C7.6681 223.946 7.94686 225.62 7.65278 225.915C6.96769 226.603 6.81651 227.622 7.38106 228.33C8.05414 229.173 8.72059 230.048 9.52455 230.756C12.1212 233.044 14.8876 235.105 17.9639 236.729C25.8196 240.873 34.1414 243.835 42.5853 246.497C46.8971 247.856 51.2479 249.107 55.7109 249.794C62.783 250.883 69.725 250.135 76.5291 247.886C80.4635 246.586 84.1251 244.811 87.1753 241.998C93.9839 235.721 99.2857 228.346 102.732 219.725C108.641 204.948 111.609 189.52 112.67 173.69C113.564 160.371 110.82 147.82 104.692 135.975C101.908 130.594 99.1502 125.202 96.7872 119.611C92.016 108.323 90.6591 96.7297 93.2073 84.6939C94.7904 77.2192 96.5548 69.7777 97.4069 63.213ZM3.98378 100.973C4.03266 101.342 4.05006 101.719 4.13538 102.08C5.58509 108.225 7.50781 114.231 9.51171 120.212C10.4528 123.021 11.2758 125.885 12.4509 128.595C14.2324 132.704 15.7893 136.889 17.2842 141.103C17.6963 142.265 18.0873 143.435 18.4879 144.601C17.7175 141.335 16.7176 138.144 15.4646 135.052C11.0571 124.176 7.28083 113.095 4.3487 101.728C4.27952 101.46 4.31473 101.116 3.961 100.989C4.08195 99.7509 3.54349 98.6458 3.28917 97.4832C3.32355 98.6873 3.52775 99.8565 3.98378 100.973ZM102.771 58.4054C101.781 65.4865 99.4849 73.8501 97.5887 82.2936C95.0099 93.7752 95.975 104.855 100.498 115.691C102.822 121.26 105.607 126.597 108.36 131.954C111.874 138.788 114.507 145.922 115.848 153.51C116.907 159.502 117.211 165.534 116.797 171.599C116.022 182.922 114.054 194.046 111.044 204.981C109.133 211.929 106.816 218.748 103.259 225.045C98.8433 232.859 93.6472 240.105 86.4649 245.655C81.4667 249.517 75.619 251.547 69.4905 252.806C61.7098 254.406 54.0636 253.642 46.5164 251.405C36.5793 248.459 26.8522 244.969 17.6926 240.052C12.6866 237.365 8.39378 233.847 5.10296 229.154C4.5152 228.314 3.6197 227.72 3.0655 226.794C1.07195 223.465 0.713252 219.89 1.30432 216.149C1.86142 212.619 2.94662 209.248 4.04509 205.846C6.82852 197.223 11.6693 189.501 14.6317 180.974C16.3241 176.101 17.8657 171.178 19.0727 166.163C20.5667 159.951 19.8423 153.829 18.1172 147.771C16.1671 140.922 13.4727 134.342 10.9767 127.685C6.93414 116.904 3.30367 105.981 1.4352 94.5709C-0.179352 84.7133 -0.659825 74.8417 1.19373 64.9381C3.78414 51.0989 9.55603 38.6948 17.8616 27.4012C22.4385 21.1778 27.6359 15.5691 33.938 11.0481C41.3862 5.70489 49.5132 1.93566 58.6575 0.65039C61.1237 0.303704 63.5981 0.130154 66.1338 0.186485C68.6953 0.242816 71.2617 0.152935 73.8193 0.464828C78.7719 1.06832 83.411 2.52921 87.5178 5.45388C89.0557 6.54903 90.6898 7.5953 91.8972 9.01601C93.6302 11.056 95.6096 12.9207 96.8253 15.3868C97.9246 17.6161 99.6046 19.5115 100.537 21.8562C103.263 28.7142 104.322 35.8529 104.243 43.1884C104.193 47.789 103.739 52.3572 102.771 58.4054Z" fill="black"/>
</g>
</svg>
