<svg width="82" height="73" viewBox="0 0 82 73" fill="none" xmlns="http://www.w3.org/2000/svg">
<path fill-rule="evenodd" clip-rule="evenodd" d="M35.8985 45.5819C36.4635 45.5819 36.9601 45.668 37.412 45.5632C38.2487 45.3694 39.3745 43.6645 39.3103 42.7989C39.3008 42.6663 39.2573 42.4733 39.1658 42.4203C38.7462 42.1792 38.3034 41.9779 37.8693 41.7621C37.6117 42.2057 36.8139 41.7083 36.705 42.4431C36.6603 42.7458 35.9685 42.5524 36.1529 43.0896C35.7059 43.8841 36.0332 44.7299 35.8985 45.5819ZM33.6904 42.1399C33.8263 41.9071 34.0027 41.6921 34.0868 41.4457C34.3917 40.5526 35.1832 40.2093 35.9433 39.9947C36.4714 39.8456 37.0334 39.6675 37.6407 39.7102C39.02 39.8075 39.9888 40.4549 40.6788 41.6242C41.0007 42.1693 41.303 42.7206 41.4389 43.3344C41.5304 43.7499 41.6427 44.2312 41.5205 44.6102C41.0462 46.0818 40.2373 47.317 38.7064 47.9018C38.2847 48.0625 37.8461 48.1806 37.4129 48.3111C37.3441 48.3322 37.2517 48.34 37.1908 48.3102C36.0808 47.7709 35.008 47.1567 34.3635 46.0632C34.0868 45.5939 33.8304 45.0509 33.8984 44.4606C33.9804 43.7449 33.6747 42.9919 34.1021 42.3101C33.9742 42.2571 33.8458 42.2041 33.6904 42.1399Z" fill="black"/>
<path fill-rule="evenodd" clip-rule="evenodd" d="M0.685374 55.4018C0.326676 55.3202 0.117504 55.1698 0.24632 54.7457C0.301823 54.72 0.399989 54.6939 0.476616 54.638C1.2081 54.1095 2.10774 54.0303 2.93117 53.7682C3.29029 53.6538 3.86023 53.7561 4.16094 53.9864C5.09579 54.703 6.13295 55.3251 6.57531 56.5549C6.94064 57.5701 6.79318 58.8732 6.14786 59.7037C5.77342 60.1858 5.24904 60.4886 4.86342 60.9786C4.23135 60.8763 3.56531 61.1331 2.93656 60.7528C2.64289 60.5751 1.36425 59.8992 1.11407 59.7124C0.531291 59.277 0.303894 58.64 0.0860246 57.9942C0.0408767 57.8609 -0.0307801 57.6911 0.0143678 57.5809C0.30348 56.8734 0.0976222 56.0235 0.685374 55.4018Z" fill="black"/>
<path fill-rule="evenodd" clip-rule="evenodd" d="M51.7098 32.1308C52.6074 32.987 54.1068 33.4646 55.3394 33.4178C55.9301 33.3958 56.3762 33.1883 56.7676 32.784C56.9942 32.55 57.2265 32.3222 57.4622 32.0861C57.3284 31.9018 57.2083 31.7999 57.1706 31.6732C56.9958 31.0916 56.6777 30.7267 56.0204 30.677C55.7222 30.6546 55.4397 30.46 55.1419 30.3705C54.9472 30.3121 54.6047 30.2139 54.5566 30.2856C54.2845 30.694 54.1366 30.0536 53.78 30.3643C53.5745 30.5573 53.2312 30.88 52.8857 31.2043C52.6065 30.9848 52.3866 30.8116 52.1919 30.6588C51.4845 31.0121 51.8423 31.609 51.7098 32.1308ZM58.7206 32.869C58.9368 32.9439 59.0677 32.9895 59.2068 33.0375C59.0946 33.3913 58.9898 33.7226 58.8842 34.0556C58.7069 34.0759 58.5292 34.0971 58.2803 34.1256C58.3627 34.2362 58.4145 34.3066 58.4948 34.4148C58.1121 34.8857 57.6722 35.2473 56.9934 35.2175C56.8239 35.21 56.6467 35.2779 56.4802 35.3326C56.0179 35.4846 55.5677 35.5165 55.1079 35.3094C54.9505 35.2386 54.6523 35.1582 54.6018 35.2233C54.1784 35.7704 53.8301 35.0667 53.4151 35.1616C53.2407 35.2013 53.0754 34.7457 52.7026 34.7329C52.5034 34.7262 52.327 34.4326 52.1153 34.3133C51.8676 34.1737 51.7703 33.8009 51.4033 33.8548C51.231 33.2977 50.6739 33.0404 50.3943 32.5782C49.7718 31.5493 49.7709 30.0706 50.2829 29.0753C50.7356 28.1935 51.5893 27.9354 52.3738 28.5285C52.754 28.8164 53.0427 29.0455 53.476 28.6979C53.6251 28.9345 53.7638 28.8392 53.8723 28.6698C54.0451 28.4001 54.3081 28.3844 54.5649 28.4378C55.4579 28.6255 56.3646 28.8785 57.0832 29.417C57.7153 29.8908 58.168 30.6037 58.6999 31.2109C58.6568 31.7498 59.3415 32.2588 58.7206 32.869Z" fill="black"/>
<path fill-rule="evenodd" clip-rule="evenodd" d="M66.9495 58.5693C67.2892 58.392 67.6702 58.0988 68.2278 58.3258C68.1685 58.4061 68.1184 58.4753 68.0161 58.6157C68.236 58.6729 68.5935 58.6845 68.62 58.7847C68.8047 59.4777 69.5868 59.674 69.8208 60.3164C70.2159 61.4029 70.5626 62.4868 69.9823 63.6122C69.9177 63.7373 69.8518 63.7659 69.9442 63.9427C70.2006 64.4311 69.962 64.7823 69.5143 65.0358C69.2028 65.2119 69.3751 65.3875 69.5565 65.5635C69.1672 66.0635 68.7766 66.5651 68.3926 67.058H67.1512C66.9218 66.8111 66.6397 66.5133 66.3634 66.2101C66.1145 65.938 65.7889 65.7677 65.5644 65.4405C65.0558 64.6987 64.9593 63.898 65.1295 63.0733C65.2625 62.4322 65.5773 61.8303 65.7351 61.192C65.8382 60.7749 65.9401 60.4403 66.3564 60.2125C66.5237 60.1209 66.6389 59.7858 66.6339 59.5646C66.6269 59.2412 66.8522 59.1198 66.993 58.9148C67.0394 58.8481 66.9698 58.7023 66.9495 58.5693Z" fill="black"/>
<path fill-rule="evenodd" clip-rule="evenodd" d="M78.3926 23.1143C78.3396 23.0613 78.2625 23.0178 78.2372 22.9536C78.0525 22.4847 77.5571 22.563 77.2125 22.4371C77.0282 22.3695 76.7022 22.6756 76.4458 22.8227C76.3315 22.8881 76.1037 23.2626 75.9517 23.5339C75.8341 23.7447 75.7052 24.0889 75.5466 24.1092C75.19 24.156 75.2629 24.3544 75.2301 24.5673C75.2082 24.7139 75.1104 24.849 75.0541 24.972C75.8452 25.7764 76.5896 25.4392 77.4047 25.0606C78.294 24.6477 78.4489 23.9576 78.3926 23.1143ZM76.3075 27.0761C76.1368 27.3255 75.9865 27.5433 75.8316 27.7699C75.7301 27.6755 75.6402 27.5301 75.5739 27.54C74.7691 27.6606 74.5032 26.8864 73.9619 26.577C73.9006 26.5422 73.8587 26.3219 73.896 26.29C74.4589 25.8095 73.8587 25.4545 73.7842 25.0391C73.6947 25.119 73.6156 25.1907 73.5356 25.2615C73.5087 25.2346 73.4582 25.2068 73.4594 25.1816C73.4855 24.6891 73.2175 24.1527 73.7129 23.7265C73.8256 23.6291 73.8045 23.3918 73.8877 23.2431C74.1019 22.862 74.159 22.3588 74.5513 22.1198C74.9535 21.8737 74.7961 21.373 75.197 21.0843C75.8775 20.5939 76.9412 20.3453 77.7385 20.6432C78.8962 21.076 79.6335 21.957 80.0651 23.0223C80.4122 23.8797 80.5762 24.8514 80.4151 25.7925C80.3207 26.3405 79.839 26.717 79.4115 27.0463C79.2831 27.1449 78.9621 26.9933 78.6614 26.9452C78.6809 27.0231 78.6842 27.1917 78.7625 27.3122C78.8817 27.4969 78.9298 27.6701 78.6991 27.7442C78.4646 27.82 78.3785 27.6577 78.393 27.4265C78.3955 27.3888 78.2899 27.3441 78.1726 27.2567C77.9958 27.4042 77.8048 27.5636 77.5749 27.7554C77.5389 27.6307 77.5037 27.5085 77.437 27.2774C77.14 27.5529 76.8729 27.8001 76.4814 28.1626C76.4073 27.7011 76.3601 27.4046 76.3075 27.0761Z" fill="black"/>
<path fill-rule="evenodd" clip-rule="evenodd" d="M19.4041 38.7275C19.591 38.8853 19.6738 38.9553 19.7753 39.0407C19.8465 38.8969 19.8999 38.6447 19.9948 38.6281C20.2359 38.5859 20.5581 38.5606 20.7358 38.6865C21.2689 39.0655 21.8293 39.4561 22.2249 39.9631C22.5993 40.444 22.8482 41.0574 23.0168 41.6514C23.1141 41.9952 23.0591 42.3891 22.8582 42.8045C22.4456 43.6549 22.0323 44.4178 21.1715 44.9182C20.7909 45.1394 20.363 45.1493 20.0027 45.3726C19.8602 45.4612 19.687 45.4997 19.521 45.5635C19.4592 45.4542 19.3797 45.3129 19.3002 45.1721C19.1726 45.3543 19.0869 45.3328 18.8918 45.1982C18.5414 44.9559 17.86 44.3362 17.5647 44.0947C16.6141 43.3185 17.1617 42.353 17.2031 41.4679C17.213 41.2459 17.5676 41.0396 17.7772 40.8118C18.5538 41.2293 18.9552 41.8962 19.2269 42.633C19.9886 42.5382 20.112 41.8274 20.5304 41.4314C20.6227 41.344 20.5602 41.0922 20.5776 40.7323C20.2123 41.0972 19.9699 41.3395 19.7666 41.5424C19.1937 41.5018 19.2629 40.8114 18.7804 40.7695C18.7725 40.3222 18.6959 39.8604 18.7828 39.4325C18.8325 39.1894 19.1511 39.0013 19.4041 38.7275Z" fill="black"/>
<path fill-rule="evenodd" clip-rule="evenodd" d="M62.564 9.3639C62.8875 9.04041 63.1273 8.80059 63.4069 8.521H64.8069C64.9527 7.91006 64.5012 8.15734 64.21 8.07657C64.2411 7.99787 64.2498 7.90384 64.3011 7.85952C64.6578 7.55302 64.1296 7.43373 64.1802 7.12225C64.4192 6.55438 65.0852 6.45083 65.5856 6.14142C65.7272 6.05361 66.0035 6.10207 66.1841 6.17331C67.1007 6.53532 67.4329 7.35793 67.802 8.18716C68.0397 8.72023 67.8185 9.34982 68.2344 9.8158C68.0695 10.4255 68.0057 11.0899 67.7117 11.6292C67.3998 12.202 66.7325 12.5139 66.1054 12.5764C65.7579 12.6112 65.4547 13.0192 65.1134 12.7546C64.8238 12.5301 64.4163 12.6564 64.1528 12.3014C63.9652 12.0483 63.5485 12.0314 63.4354 11.589C63.3795 11.3707 62.9624 11.3359 62.774 10.9892C62.4699 10.4301 62.6953 9.89615 62.564 9.3639Z" fill="black"/>
<path fill-rule="evenodd" clip-rule="evenodd" d="M58.594 44.7494C58.7344 45.3094 58.8579 45.7804 58.9676 46.2542C58.9925 46.3607 59.0194 46.5297 58.9639 46.5815C58.4665 47.042 58.9287 47.4206 59.0497 47.8274C59.9191 47.8415 59.895 47.7868 60.3411 47.1518C60.8717 46.3959 60.7806 45.5737 60.7657 44.7507C60.7632 44.6012 60.6203 44.421 60.4927 44.3133C60.238 44.0979 59.8184 44.4305 59.5865 44.0718L59.35 44.4334C58.9109 44.1402 58.7999 44.6107 58.594 44.7494ZM57.5614 45.4743C57.426 45.2113 57.2823 44.9325 57.165 44.7047C57.2926 44.0296 58.061 44.2164 58.3111 43.692C58.5563 43.1771 59.3056 43.3967 59.707 42.8773C59.5479 42.7704 59.3939 42.6673 59.2369 42.5616C59.2592 42.5331 59.2907 42.4531 59.3342 42.4452C60.0951 42.3065 60.6501 42.7132 61.1679 43.1755C61.5991 43.5599 61.8459 44.0855 62.1698 44.5506C62.3517 44.812 62.0348 45.0526 62.3098 45.2191C62.5559 45.3687 62.6317 45.6118 62.5857 45.8906C62.5347 46.1967 62.8239 46.5264 62.7721 46.6854C62.6495 47.0599 62.64 47.4517 62.5144 47.8149C62.28 48.493 61.9362 49.1106 61.4048 49.608C61.1 49.8934 60.6713 49.9895 60.134 49.8955C58.8376 49.6689 58.8223 49.6826 58.2378 49.0402C57.7797 48.5369 57.4827 47.962 57.3597 47.2583C57.2893 46.859 57.0524 46.5069 57.3336 46.1117C56.9567 45.7497 57.5266 45.7584 57.5614 45.4743Z" fill="black"/>
<path fill-rule="evenodd" clip-rule="evenodd" d="M27.2753 14.8359C28.3034 15.415 28.5403 15.8979 27.9753 16.7802C27.6842 17.2354 28.0445 17.7482 27.6332 18.1218C27.5723 18.1769 27.7326 18.4784 27.7935 18.6648C27.9621 19.1772 28.1286 19.2232 28.6861 19.0761C29.7506 18.7961 30.2547 18.0431 30.5111 17.0225C30.1143 16.9098 29.715 16.8022 29.319 16.6829C28.8356 16.5375 29.0113 15.9945 28.8133 15.7451C29.0411 15.5173 29.2913 15.2671 29.5418 15.0169C30.2303 14.6322 30.6577 15.3843 31.2852 15.5546C31.7458 16.2981 32.3887 16.943 32.3224 17.9391C32.2379 19.1966 31.6961 20.245 30.3222 20.7482C29.1757 21.1691 28.2686 20.9926 27.2849 20.1182C26.6855 19.5856 26.1968 19.0368 26.1756 18.0907C26.1466 16.8415 26.3856 15.7439 27.2753 14.8359Z" fill="black"/>
<path fill-rule="evenodd" clip-rule="evenodd" d="M25.6994 61.1423C24.7194 61.4302 24.1474 60.7695 23.4884 60.3756C22.8841 60.0144 22.8054 59.302 22.6264 58.7167C22.4616 58.175 22.7946 57.6116 22.9909 57.0873C23.1562 56.6457 23.4292 56.2435 23.6528 55.8269C23.5505 55.7896 23.42 55.7424 23.2626 55.6852C23.4292 55.5104 23.5758 55.3559 23.758 55.1637C23.524 55.1215 23.3182 55.0842 22.9797 55.0229C23.1984 54.8601 23.3529 54.6497 23.4929 54.6592C23.8839 54.6857 24.2667 54.5503 24.678 54.7748C25.7251 55.346 26.2602 56.3024 26.6463 57.3283C27.1876 58.7681 26.8981 60.077 25.6994 61.1423Z" fill="black"/>
<path fill-rule="evenodd" clip-rule="evenodd" d="M38.2436 66.5015C38.1359 66.7177 38.0436 66.9028 37.9367 67.1178C38.6798 67.8816 38.9867 68.8023 38.8682 69.8685C38.8397 70.1212 38.8467 70.3394 38.6574 70.576C38.2987 71.0258 38.2498 71.6819 37.5536 71.9196C37.252 72.0228 36.9232 72.1077 36.7202 72.0037C36.1552 71.7134 35.5058 71.4893 35.1553 70.9081C34.9801 70.6178 34.8178 70.3171 34.7809 69.9352C34.6587 68.681 35.1682 67.6401 35.8061 66.6419C35.9494 66.4174 36.1921 66.255 36.4812 66.1241C36.8142 65.9738 37.0201 65.8516 37.3535 66.1005C37.5962 66.2823 37.9164 66.3598 38.2436 66.5015Z" fill="black"/>
<path fill-rule="evenodd" clip-rule="evenodd" d="M78.972 40.6242C78.5259 40.2808 78.2642 39.6612 77.5687 39.6869C77.3944 39.3849 77.1185 39.1 77.0659 38.7781C76.9391 37.9982 77.1218 37.3019 77.9278 36.92C78.0231 36.8749 78.0886 36.7659 78.1921 36.6624C78.0513 36.6147 77.9258 36.5721 77.9133 36.5679C78.1097 36.3716 78.3516 36.1297 78.593 35.8882C78.5409 35.8265 78.4887 35.7652 78.4365 35.7035C78.54 35.6894 78.6481 35.6497 78.7459 35.6666C79.1994 35.7449 79.7217 35.4363 80.1065 35.8994C80.6069 36.5013 80.9764 37.1565 81.1226 37.9485C81.3168 38.9997 80.3016 40.162 79.5308 40.5368C79.3345 40.6321 79.0905 40.2469 78.972 40.6242Z" fill="black"/>
<path fill-rule="evenodd" clip-rule="evenodd" d="M49.0308 54.3755C49.0308 54.687 49.0113 54.8407 49.0341 54.9877C49.1517 55.754 48.5122 56.0253 48.0674 56.3629C47.625 56.6984 47.2021 56.2055 46.7883 56.0833C46.4018 55.9694 46.0833 55.5983 45.7578 55.3145C45.2089 54.8374 45.0035 53.7033 45.3514 53.024C45.4305 52.8695 45.346 52.6065 45.713 52.5721C45.9321 52.5514 46.1392 52.2022 46.3153 51.9732C46.7767 51.3755 47.181 51.3071 47.6751 51.829C47.9978 52.1699 48.3718 52.4491 48.6021 52.9064C48.8688 53.4357 49.1683 53.9166 49.0308 54.3755Z" fill="black"/>
<path fill-rule="evenodd" clip-rule="evenodd" d="M36.7214 28.6585C37.2097 29.1833 37.754 29.6369 38.0104 30.3754C38.3281 31.2899 38.1549 31.7891 37.3771 32.3221C36.4907 32.9298 35.898 32.8246 35.1242 32.0355C35.019 31.9282 34.9122 31.823 34.8272 31.7385C34.6988 31.3425 34.9929 30.8857 34.5717 30.5763C34.3377 29.5333 35.0426 28.6788 36.1552 28.6589C36.3428 28.6556 36.5304 28.6585 36.7214 28.6585Z" fill="black"/>
<path fill-rule="evenodd" clip-rule="evenodd" d="M47.2233 17.0475C47.4267 16.8889 47.5509 16.7919 47.6752 16.695C47.5298 16.5728 47.3844 16.4502 47.2424 16.3309C47.3003 16.2663 47.3703 16.188 47.4685 16.0791C47.2125 16.0228 46.9847 15.9731 46.7109 15.9134C47.0311 15.054 47.8177 14.9914 48.434 14.7106C48.5545 14.6559 48.8143 14.8145 48.9634 14.933C49.5677 15.4114 50.008 16.0228 50.3141 16.7286C50.3543 16.8218 50.4081 16.9903 50.37 17.0231C49.8365 17.4783 50.5406 18.3593 49.8415 18.6641C49.7044 18.7238 49.3966 18.3721 49.0284 18.3464C49.1779 18.51 49.3266 18.6741 49.4969 18.8609C49.2227 19.0427 48.9638 19.2316 48.6863 19.3877C48.6014 19.4362 48.4651 19.4043 48.3541 19.3919C48.2878 19.3844 48.1673 19.3343 48.1698 19.3182C48.2613 18.701 47.5253 19.1595 47.4432 18.7544C47.4027 18.554 47.2519 18.3705 47.2332 18.1716C47.1985 17.8005 47.2233 17.424 47.2233 17.0475Z" fill="black"/>
<path fill-rule="evenodd" clip-rule="evenodd" d="M48.8267 0.497041V0H49.8332C50.3435 0.766272 51.0418 1.49237 50.7949 2.64675C50.6334 2.6571 50.4309 2.66953 50.1471 2.68734V1.75538C49.9661 1.78976 49.827 1.77485 49.776 1.83491C49.6907 1.93473 49.682 2.09627 49.6058 2.20728C49.4649 2.41189 49.3879 2.36592 49.199 2.06231C49.0715 1.85686 48.8963 1.68041 48.7202 1.4642C48.9518 1.35734 49.105 1.28692 49.2686 1.21154C48.7931 0.976686 48.8014 0.98497 49.1932 0.577811C49.2612 0.507396 49.2226 0.334675 49.2409 0.114734C49.0727 0.270473 48.994 0.342544 48.8267 0.497041Z" fill="black"/>
</svg>
