<svg width="91" height="66" viewBox="0 0 91 66" fill="none" xmlns="http://www.w3.org/2000/svg">
<path fill-rule="evenodd" clip-rule="evenodd" d="M16.943 55.6004C16.3114 56.0991 15.758 56.6509 15.2837 57.3231C14.942 57.8085 14.4603 58.2261 13.9107 58.5752C13.3072 58.958 12.8536 59.5822 12.2282 59.9823C11.8417 60.2291 11.5758 60.831 10.9756 60.3646C10.7064 60.517 10.4372 60.6694 10.0988 60.8612C9.89042 60.6077 9.68581 60.3642 9.48947 60.1152C9.44764 60.0622 9.41657 59.9305 9.40829 59.933C8.73066 60.1256 8.35663 59.3191 7.68397 59.4256C7.31823 59.4836 6.7603 59.0826 6.80089 58.7815C6.88291 58.173 6.47657 57.9109 6.13113 57.5538C5.99734 56.7962 6.2003 56.0962 6.54243 55.4025C6.88001 54.7174 7.09829 53.9697 7.46527 53.3029C8.20959 51.9493 9.01314 50.6288 9.80261 49.3004C10.6173 47.9294 11.488 46.5978 12.4121 45.2955C13.2554 44.1064 14.0685 42.8948 14.9101 41.7032C15.4229 40.9771 15.9237 40.2419 16.424 39.5067C16.4456 39.4752 16.4058 39.4031 16.3694 39.2325C16.113 39.4396 15.9162 39.7208 15.6801 39.7585C15.3699 39.8086 15.1131 39.7949 15.0775 40.1822C14.5465 40.0053 14.4678 40.8325 13.9517 40.6892C13.8063 41.0139 13.4878 41.2326 13.2189 41.3192C12.9033 41.4215 12.6295 41.4198 12.5189 41.8125C12.4879 41.9235 12.1872 42.0697 12.0741 42.0275C11.5795 41.8423 11.5895 42.4827 11.2577 42.4897C10.8563 42.498 10.6426 42.6695 10.6107 43.068C10.0963 43.1682 9.80302 43.6147 9.37971 43.8628C9.0148 44.0761 8.59521 44.3164 8.40095 44.6589C8.27669 44.8788 8.1777 44.958 7.97847 45.0251C7.32859 45.245 6.89989 45.7992 6.31421 46.1326C5.72356 46.4685 5.23231 46.9776 4.69137 47.4038C4.01166 47.9398 3.32865 48.472 2.64273 49.0006C2.23101 49.3178 1.77829 49.1609 1.41959 48.9649C1.14746 48.8162 0.983853 48.5615 0.633025 48.8034C0.58622 48.8353 0.357995 48.6054 0.141782 48.4418C0.344741 48.3006 0.521605 48.178 0.699297 48.0549C0.669889 48.0052 0.640894 47.9551 0.611072 47.9054C0.436693 47.9696 0.262729 48.0338 0.0630838 48.1071C0.0473441 48.0417 -0.0222417 47.9245 0.00716663 47.8429C0.077995 47.6478 0.159178 47.4349 0.299593 47.2903C1.08616 46.4797 1.85409 45.6459 2.69782 44.8983C4.1177 43.64 5.56533 42.409 7.049 41.2264C8.06379 40.4171 9.10013 39.6301 10.134 38.8464C11.0643 38.141 12.036 37.4667 12.9849 36.7845C14.2018 35.9097 15.4432 35.0809 16.7007 34.2724C17.5001 33.7584 18.3198 33.2767 19.1317 32.7821C19.6689 32.4553 20.2662 32.5762 20.8444 32.5526C21.247 32.7709 21.4632 33.1818 22.0211 33.2878C22.6565 33.4092 23.8349 35.1273 23.9273 35.8343C23.9956 36.3579 23.7102 36.8578 23.5504 37.3615C23.2708 38.2438 22.8781 39.0614 22.273 39.7701C22.2079 39.8467 22.1234 39.9784 22.1483 40.0488C22.3562 40.6329 21.662 40.8346 21.6314 41.3101C21.0345 41.6576 20.7603 42.2789 20.366 42.7987C20.2985 42.8878 20.1382 42.9599 20.1386 43.0394C20.1469 44.0807 19.3147 44.6647 18.8484 45.4451C18.703 45.6886 18.5004 45.9019 18.3824 46.1562C18.3008 46.331 18.3198 46.5518 18.2941 46.7519C18.4565 46.7717 18.5588 46.8161 18.5953 46.7842C19.3723 46.1078 20.1059 45.3751 20.9218 44.7513C21.9847 43.9394 22.9096 42.9636 24.0549 42.2458C24.602 41.9024 25.0121 41.3602 25.5551 40.9659C26.5562 40.2394 27.4103 39.3045 28.4301 38.6099C30.1826 37.417 31.6484 35.8472 33.516 34.815C34.0019 34.0421 34.9111 33.7588 35.5021 33.1019C35.6612 32.9246 35.9168 32.8364 36.1185 32.6943C36.4117 32.488 36.7008 32.2759 36.9837 32.056C38.1236 31.1704 39.2577 30.2774 40.3992 29.3943C40.8814 29.022 41.3896 28.6823 41.8647 28.3013C43.2063 27.2256 44.6262 26.2584 46.0154 25.2486C46.7382 24.7234 47.3715 24.0801 48.2227 23.7446C48.8175 22.8761 49.7884 22.473 50.5844 21.8555C51.5471 21.1091 52.5378 20.3987 53.5211 19.6788C54.7911 18.749 56.0635 17.8228 57.3388 16.9004C58.1486 16.3151 58.9629 15.7356 59.7801 15.1603C60.7709 14.4628 61.7849 13.8001 62.7632 13.0819C64.2506 11.9904 65.8076 10.9935 67.3401 9.96417C69.2533 8.6789 71.1653 7.39156 73.0905 6.12411C74.1512 5.42576 75.2327 4.75807 76.3134 4.09079C77.6007 3.29594 78.8831 2.49032 80.1953 1.7373C81.1413 1.1947 82.1163 0.708427 83.0131 0.0751134C83.2322 -0.0793836 83.653 0.0523324 84.112 0.0523324C83.991 0.24038 83.9376 0.382037 83.8369 0.469433C83.5341 0.732865 83.2123 0.975587 82.8408 1.27215C83.646 1.64701 84.17 0.553102 84.8385 0.956119C84.6301 1.16446 84.4052 1.38896 84.1803 1.61346C84.2226 1.68014 84.2644 1.74683 84.3066 1.81352C84.5456 1.74434 84.7842 1.67517 85.1015 1.58322C85.1553 1.99908 85.2079 2.40541 85.2796 2.96417C84.9975 3.18866 84.631 3.68156 84.1708 3.79505C83.6124 3.93257 83.438 4.62139 82.7969 4.56423C82.6299 4.54931 82.7422 5.13002 82.328 4.98961C81.884 4.83843 82.1408 5.55748 81.7431 5.4444C81.372 5.33878 81.3488 5.8321 81.2573 5.82878C80.6791 5.80973 80.5212 6.37843 80.1058 6.57642C79.663 6.78766 79.2422 7.066 78.857 7.37168C78.5132 7.64423 78.1785 7.87369 77.7316 7.94245C77.5738 7.96647 77.324 8.1276 77.3145 8.24233C77.283 8.62588 77.0457 8.56789 76.7922 8.62837C76.6099 8.67186 76.496 8.98251 76.3105 9.04008C76.0943 9.10677 75.8478 9.0463 75.91 9.39713C75.1387 9.4402 74.9482 10.5142 74.0924 10.4235C74.0092 10.4148 73.8758 10.5043 73.8294 10.5846C73.2868 11.5245 72.2778 11.8794 71.4689 12.4833C70.2901 13.3631 69.1133 14.2458 67.9291 15.1172C66.9789 15.8164 66.0325 16.5218 65.0566 17.1845C64.5381 17.5366 64.162 18.1678 63.4036 18.1028C63.3514 18.0982 63.2598 18.1761 63.2391 18.2345C62.8245 19.4042 61.4771 19.3512 60.7614 20.1266C60.6417 20.2567 60.4366 20.3184 60.3414 20.4592C59.4935 21.7151 58.0765 22.2925 56.9988 23.2778C56.2076 24.001 55.2827 24.5772 54.4299 25.2345C53.3712 26.0501 52.3278 26.8851 51.272 27.7036C51.1656 27.786 51.0198 27.82 50.8889 27.8664C49.8182 28.2449 49.0693 29.1011 48.1547 29.7129C47.9534 29.8479 47.7633 30.0749 47.6826 30.3002C47.4986 30.8138 47.0215 31.0714 46.633 31.1535C46.2188 31.24 45.9872 31.4484 45.713 31.684C45.1733 32.148 44.5321 32.5087 44.2111 33.1897C43.2324 33.801 42.3762 34.5851 41.4894 35.3058C40.7592 35.8998 39.8952 36.3596 39.3153 37.159C38.9342 37.6833 38.3059 37.9563 37.714 38.1754C37.4671 38.2669 37.231 38.32 37.0707 38.5283C36.8976 38.7528 36.7961 39.0709 36.5753 39.2109C36.333 39.3642 36.2001 39.5559 36.0257 39.7614C35.5357 40.3388 34.9943 40.8971 34.1436 40.9174C34.0756 40.9191 33.9957 40.9369 33.9439 40.9767C33.5715 41.2641 33.1723 41.5263 32.8467 41.861C32.4677 42.2495 31.9549 42.5365 31.7946 43.1148C31.7772 43.1777 31.6965 43.2266 31.6393 43.2751C31.1659 43.6756 30.697 44.0823 30.2144 44.4713C29.7311 44.8606 29.3666 45.3593 28.8157 45.7081C28.3116 46.0266 27.8394 46.44 27.3357 46.7896C27.0379 46.9739 26.5848 47.0919 26.4721 47.3554C26.1313 48.1527 25.092 48.1755 24.805 48.9807C24.0271 49.1787 23.6825 49.9574 23.0218 50.314C22.8375 50.4134 22.5786 50.4793 22.4921 50.6367C22.0261 51.4866 20.9964 51.7533 20.5242 52.5842C19.8549 52.735 19.5252 53.273 19.1039 53.7415C18.7875 54.0936 18.2946 54.2866 17.8804 54.55C17.8592 55.1606 17.2094 55.2094 16.943 55.6004Z" fill="black"/>
<path fill-rule="evenodd" clip-rule="evenodd" d="M89.4656 13.126C89.8276 13.0461 90.1897 12.9662 90.719 12.8489C90.516 13.0796 90.4477 13.1579 90.357 13.2611C90.4929 13.3066 90.6208 13.3497 90.7538 13.394C90.8462 13.7523 90.9754 14.1736 90.5624 14.3641C90.3512 14.4614 90.0173 14.2937 89.7075 14.3695C89.8471 14.4374 89.9871 14.5053 90.1437 14.5811C89.6785 15.1432 89.0568 15.2352 88.3759 15.1357C88.3502 15.3901 88.332 15.5682 88.3063 15.8192C87.8171 15.4 87.4431 15.9186 86.8984 15.8784C87.0181 16.1128 87.0947 16.2636 87.1718 16.4144C86.9953 16.5295 86.8044 16.6994 86.5811 16.7892C86.2622 16.9176 86.0336 17.4801 85.5701 17.0332C85.5481 17.0125 85.4549 17.0369 85.4168 17.0676C85.329 17.1376 85.2685 17.2573 85.1724 17.2979C84.8195 17.4462 84.3954 17.4954 84.1162 17.7253C83.8689 17.9291 83.8072 18.3433 83.608 18.6262C83.4924 18.7902 83.2812 18.9066 83.0894 18.9924C82.8856 19.0839 82.1318 19.4583 82.0295 19.7044C81.9176 19.972 81.7429 19.8605 81.5875 19.9078C81.3887 19.9682 81.1713 20.0196 81.0114 20.1414C80.89 20.2337 80.8465 20.4292 80.774 20.5684C80.5823 20.399 80.3955 20.2333 80.0686 19.9442C80.1159 20.3878 79.6955 20.4537 79.8881 20.8853C80.0024 21.1417 79.2962 21.5314 78.8675 21.3599C78.5742 21.2423 78.597 21.4975 78.4591 21.5347C78.6906 22.2178 78.0805 22.2633 77.7234 22.4882C77.547 22.5996 77.0027 22.9683 76.9261 23.0636C76.8586 23.146 76.772 23.2127 76.7008 23.2798C76.6088 23.2052 76.5314 23.1195 76.4357 23.0731C76.3806 23.0466 76.2949 23.0838 76.1768 23.0979C76.2464 23.2475 76.3098 23.3846 76.369 23.5121C76.3334 23.5908 76.3226 23.6815 76.2729 23.7134C75.8881 23.9607 75.4694 24.1628 75.1111 24.4428C74.252 25.1138 73.4228 25.8225 72.5774 26.5114C71.5278 27.3659 70.455 28.1893 69.4825 29.1378C69.0277 29.5818 68.7469 29.9028 68.6069 30.5565C68.172 30.3307 67.6786 30.3411 67.3013 29.9521C66.9683 29.6088 66.6456 30.0167 66.2712 30.1588C66.0873 29.3491 66.7769 29.2037 67.0967 28.8259C66.9898 28.7195 66.8834 28.613 66.7856 28.5149C66.5624 28.676 66.3404 28.8354 66.0649 29.0338C66.0177 28.8371 65.9411 28.7099 65.9771 28.6391C66.3847 27.836 67.054 27.259 67.7205 26.6841C67.9094 26.5217 68.1417 26.4086 68.3248 26.2409C69.7907 24.8964 71.4131 23.7607 73.0181 22.5918C74.5167 21.5008 76.0989 20.5398 77.5926 19.4484C78.025 19.1328 78.6152 19.0678 78.9292 18.5794C80.381 18.0878 81.361 16.7838 82.8591 16.3647C83.0633 16.677 82.8165 16.7101 82.5402 16.7925C82.3757 16.8418 82.4383 17.0904 82.1802 17.2266C81.0921 17.8024 80.0699 18.5032 79.0273 19.1643C78.9582 19.2082 78.9184 19.2989 78.73 19.5416C79.053 19.4285 79.1707 19.3647 79.2941 19.3478C79.7377 19.2889 79.927 18.8176 80.4071 18.7393C80.7894 18.6767 81.153 18.3388 81.4682 18.0592C82.1417 17.4619 82.9888 17.1736 83.7418 16.7196C84.2504 16.4131 84.6828 15.9878 85.2839 15.8063C85.517 15.7359 85.6641 15.3834 85.8505 15.1594C86.2373 14.9336 86.6329 14.7211 87.0082 14.4776C87.3528 14.2547 87.7657 14.2228 88.0731 13.8306C88.3746 13.4454 89.0489 13.4765 89.4656 13.126Z" fill="black"/>
<path fill-rule="evenodd" clip-rule="evenodd" d="M42.4728 43.6263C42.8257 43.3869 43.3464 43.2204 43.4901 42.8898C43.6922 42.4251 44.0724 42.2909 44.3997 42.0486C44.7393 41.7972 45.1195 41.6021 45.4691 41.3643C45.8245 41.1228 46.2023 40.8967 46.503 40.5972C47.1508 39.9527 47.8843 39.4279 48.6427 38.9313C48.8155 38.8174 49.0255 38.7607 49.2032 38.6521C49.38 38.5436 49.6149 38.438 49.6894 38.2711C50.0597 37.4427 50.8537 37.1333 51.5475 36.7162C51.9472 36.4759 52.2127 36.5994 52.6427 37.0463C52.4927 37.5972 51.8023 37.7492 51.6776 38.3444C51.6581 38.4363 51.2957 38.4575 51.0915 38.5092C50.7796 38.5892 50.9942 39.1649 50.5696 39.0982C50.1956 39.0394 50.2047 39.3252 50.0626 39.5066C50.0187 39.563 49.7619 39.4536 49.5581 39.4109C49.4405 39.645 49.2897 39.9432 49.141 40.2385H48.7641C48.5027 40.5537 48.3043 41.0164 48.038 41.0603C47.6375 41.1262 47.7369 41.7781 47.2469 41.6025C47.186 41.5809 47.053 41.6712 46.9971 41.7433C46.8907 41.8812 46.8426 42.1463 46.7237 42.1766C46.2594 42.2954 46.0884 42.8153 45.6808 42.9337C44.9037 43.1595 44.386 43.7849 43.6877 44.1233C43.5477 44.1908 43.3977 44.4008 43.3919 44.5508C43.3724 45.0184 43.1272 45.1137 42.718 45.245C42.4069 45.3448 42.1091 45.7433 41.9753 46.0771C41.796 46.5224 41.2256 46.0986 41.1043 46.5837C41.0438 46.8264 40.9084 47.1996 40.5418 46.8003C40.4353 46.9067 40.234 47.0173 40.2378 47.1192C40.2606 47.661 39.814 47.376 39.6028 47.5098C39.4396 47.656 39.959 47.7683 39.5958 48.0031C39.0474 48.3573 38.6149 48.8916 38.0616 49.2333C37.8598 49.358 37.7563 49.4338 37.6822 49.6438C37.6378 49.7685 37.4498 49.9557 37.3723 49.9358C36.7212 49.7689 36.4271 50.2522 36.049 50.5973C36.0349 50.6101 35.8936 50.4838 35.7839 50.4014C35.6103 50.6457 35.8369 51.183 35.2723 51.1767C35.1936 51.1759 35.0868 51.3118 35.0371 51.4075C34.562 52.3158 34.5698 52.3237 33.7663 52.8924C33.6213 52.9951 33.6971 53.6151 33.2643 53.1256C33.2589 53.1194 33.012 53.2531 32.9946 53.3438C32.8468 54.1138 32.1563 54.4237 31.6911 54.9228C31.0831 54.8333 30.9141 55.4161 30.5339 55.6754C30.2841 55.8456 30.0045 55.9053 30.0091 56.3596C30.0124 56.6782 29.592 56.8244 29.1769 56.6778C29.3314 56.433 29.483 56.1927 29.6777 55.8841C29.5087 55.897 29.4342 55.8804 29.4068 55.909C29.2606 56.061 29.0904 56.1534 28.9512 55.9504C28.904 55.8812 28.9785 55.6319 29.063 55.5855C29.6156 55.2836 29.8608 54.7443 30.1615 54.2451C30.6105 54.2795 30.6105 54.2795 30.7729 54.632C30.7994 54.6486 30.8491 54.6805 30.8495 54.6796C31.0578 54.3715 31.6928 54.48 31.6087 53.7846C31.3619 53.8964 31.231 54.1018 30.9319 54.3462C31.004 54.0704 31.0044 53.8935 31.0897 53.7829C31.2219 53.6118 31.4024 53.4722 31.5806 53.3443C31.9243 53.097 32.1865 52.7619 32.2855 52.3771C32.3679 52.0582 32.4462 51.8581 32.7801 51.7438C32.9528 51.6846 33.0684 51.4584 33.21 51.3076C33.7298 51.4211 33.8636 50.7543 34.3279 50.7547C34.3023 50.157 34.8904 50.0973 35.2061 49.9341C35.6368 49.7113 35.7122 49.2308 36.1504 49.0233C36.6566 48.7843 37.0915 48.3767 37.5231 48.0027C38.3266 47.3052 39.1033 46.577 39.8977 45.8688C39.9992 45.778 40.1516 45.7453 40.2556 45.6563C40.5352 45.4177 40.7895 45.148 41.0761 44.9186C41.3064 44.7338 41.5226 44.4692 41.7235 44.3478C42.0503 44.1502 42.2972 43.9473 42.4728 43.6263Z" fill="black"/>
<path fill-rule="evenodd" clip-rule="evenodd" d="M26.884 57.4079C27.3073 57.5098 27.4427 57.1205 27.7012 56.9362C27.917 56.7821 28.0015 56.3741 28.4944 56.5849C28.2811 56.7021 28.1021 56.8007 27.7732 56.9821C28.163 57.2104 28.3465 57.3185 28.5097 57.4142C28.187 57.9153 27.5405 58.0901 27.8967 58.9533C27.6034 58.6845 27.5251 58.612 27.4029 58.5002C27.3752 59.2917 26.9614 59.7063 26.1599 59.7341C26.2602 59.8339 26.3132 59.8869 26.4321 60.0062C25.8729 60.5654 25.2893 61.1072 24.7554 61.6945C24.2401 62.2607 23.5534 62.6716 23.2187 63.4143C23.1661 63.5319 22.8327 63.5232 22.5916 63.5816C22.6657 63.6748 22.725 63.7498 22.7867 63.8272C22.638 64.181 22.2416 64.3263 22.0974 64.7492C21.933 65.2318 21.6737 65.1713 21.1903 64.7327C21.0976 64.6482 20.8362 64.7497 20.5811 64.7716C20.608 64.6805 20.6113 64.5011 20.7012 64.3968C20.8718 64.1988 21.0893 64.0418 21.0098 63.7336C21.2898 63.4226 21.8725 63.3161 21.7069 62.7006C21.7019 62.6828 21.7528 62.6298 21.7827 62.6256C22.4909 62.5246 22.6463 61.7844 23.1528 61.4228C23.7253 61.014 24.1076 60.3446 24.5984 59.8128C25.3485 59.0001 26.121 58.2086 26.884 57.4079Z" fill="black"/>
<path fill-rule="evenodd" clip-rule="evenodd" d="M42.4727 43.6263C42.2971 43.9473 42.0503 44.1502 41.7235 44.3478C41.5226 44.4692 41.3064 44.7339 41.0761 44.9186C40.7894 45.1481 40.5351 45.4177 40.2555 45.6563C40.1516 45.7453 39.9991 45.7781 39.8977 45.8688C39.1032 46.5771 38.3266 47.3052 37.523 48.0027C37.0914 48.3768 36.6565 48.7843 36.1504 49.0233C35.7122 49.2308 35.6368 49.7113 35.206 49.9342C34.8904 50.0973 34.3022 50.157 34.3279 50.7547C33.8636 50.7543 33.7298 51.4211 33.21 51.3076C33.2095 50.6395 33.7695 50.2879 34.1891 50.0489C34.9003 49.6434 35.3485 48.9724 36.0361 48.5424C36.8363 48.0421 37.4671 47.2779 38.2011 46.6636C39.3977 45.6625 40.6113 44.6813 41.8382 43.7178C41.9836 43.6035 42.2578 43.6528 42.4727 43.6263Z" fill="black"/>
<path fill-rule="evenodd" clip-rule="evenodd" d="M26.884 57.4079C26.1211 58.2086 25.3486 59.0001 24.5985 59.8128C24.1076 60.3446 23.7253 61.014 23.1529 61.4228C22.6463 61.7844 22.491 62.5246 21.7827 62.6256C21.7529 62.6298 21.7019 62.6828 21.7069 62.7006C21.8726 63.3161 21.2898 63.4225 21.0098 63.7336C20.7344 63.9486 20.4593 64.1636 20.1495 64.4054C20.135 64.2729 20.0733 64.1221 20.1193 64.0737C21.4091 62.7105 22.3945 61.0686 23.8782 59.894C24.1412 59.686 23.978 59.2375 24.4651 59.1774C24.683 59.1505 24.8263 58.6899 25.0462 58.4679C25.2724 58.2388 25.564 58.0756 25.8009 57.8553C26.0208 57.6502 26.1985 57.4001 26.4089 57.1839C26.6376 56.949 26.8753 56.7216 27.123 56.5066C27.3848 56.2792 27.6631 56.0709 28.0521 55.7598C27.9017 56.599 27.1151 56.8111 26.884 57.4079Z" fill="black"/>
<path fill-rule="evenodd" clip-rule="evenodd" d="M16.9429 55.6004C17.2092 55.2094 17.8591 55.1606 17.8802 54.55C18.2944 54.2866 18.7873 54.0936 19.1038 53.7415C19.525 53.273 19.8547 52.735 20.5241 52.5842C20.9962 51.7533 22.0259 51.4866 22.4919 50.6367C22.5785 50.4793 22.8374 50.4134 23.0217 50.314C23.6823 49.9574 24.027 49.1787 24.8048 48.9807C25.0919 48.1755 26.1311 48.1527 26.472 47.3553C26.5846 47.0919 27.0378 46.9739 27.3356 46.7896C27.2834 46.9544 27.2813 47.1772 27.1695 47.275C26.7354 47.6556 26.4264 48.1568 25.8536 48.4153C25.3346 48.6493 25.0678 49.2267 24.5294 49.5378C23.817 49.9495 23.2478 50.6106 22.6195 51.1668C21.9352 51.7728 21.2849 52.4227 20.5634 52.9794C19.4972 53.8024 18.4671 54.6606 17.4851 55.6004H16.9429Z" fill="black"/>
<path fill-rule="evenodd" clip-rule="evenodd" d="M89.4656 13.126C89.0489 13.4764 88.3746 13.4454 88.0731 13.8306C87.7657 14.2228 87.3528 14.2547 87.0082 14.4775C86.6329 14.7211 86.2373 14.9336 85.8505 15.1593C85.1998 15.2608 84.7686 15.7798 84.1957 16.0341C83.8818 16.1737 83.6014 16.3891 83.1553 16.6625C83.2029 16.3568 83.1735 16.1522 83.258 16.0784C83.55 15.8229 83.864 15.581 84.202 15.3909C85.5634 14.6246 86.9382 13.8807 88.3059 13.1248C88.6111 12.9562 88.8965 12.7483 89.2109 12.6016C89.4168 12.5055 89.6586 12.4869 89.9838 12.4099C89.7502 12.7329 89.6081 12.9297 89.4656 13.126Z" fill="black"/>
</svg>
