<svg width="120" height="104" viewBox="0 0 120 104" fill="none" xmlns="http://www.w3.org/2000/svg">
<path fill-rule="evenodd" clip-rule="evenodd" d="M107.952 82.4133C107.182 83.0167 106.82 83.8911 106.665 84.874C106.58 85.4162 106.085 85.4904 105.713 85.5856C105.391 85.6685 105.093 85.6792 104.833 85.9451C104.725 86.0553 104.389 86.0793 104.247 85.9932C103.795 85.7178 103.312 85.5164 102.895 85.1491C101.426 83.8567 100.349 82.2583 99.3415 80.6276C98.3135 78.9638 97.2374 77.3178 96.45 75.5131C96.2052 74.9514 96.1952 74.956 96.8116 74.5198C97.3128 75.4729 97.78 76.4405 98.3209 77.365C98.75 78.0985 99.269 78.7786 99.7918 79.5462C99.9148 79.2372 99.9119 79.0392 99.7209 78.7637C98.6813 77.2618 97.6942 75.726 96.9114 73.9673C97.0365 73.8857 97.1877 73.7867 97.338 73.6889C97.3728 73.7188 97.4503 73.7859 97.5828 73.9006V73.2743C97.9544 73.2002 98.2911 73.1335 98.7293 73.0465C99.071 73.206 99.2334 73.8107 99.7959 73.8857C99.7777 74.4975 100.312 74.8023 100.581 75.2492C100.915 75.8034 101.367 76.286 101.686 76.6956C102.047 76.6476 102.318 76.597 102.59 76.578C103.547 76.5109 103.524 76.5411 104.12 77.0667C104.782 77.6508 105.235 78.468 106.089 78.8391C106.144 78.8627 106.206 78.9464 106.209 79.0048C106.235 79.6195 106.579 79.8427 107.156 79.9918C107.64 80.1173 107.778 80.6276 107.801 81.1296C107.818 81.5144 107.889 81.8967 107.952 82.4133Z" fill="black"/>
<path fill-rule="evenodd" clip-rule="evenodd" d="M22.5369 11.0212C23.222 11.3642 23.222 11.3642 23.5906 10.6464C24.0591 10.4856 24.6253 10.8091 25.049 10.3788C25.5257 10.4977 25.9963 10.6592 26.4801 10.7259C27.2612 10.8332 27.6647 11.4375 28.1058 11.9461C28.4053 12.2916 28.7188 12.6383 28.9926 13.0135C29.3128 13.4526 29.6955 13.8452 30.0169 14.283C30.3081 14.6798 30.557 15.1085 30.8155 15.5285C30.8872 15.6454 30.9791 15.7874 30.9688 15.91C30.941 16.2364 31.0541 16.4564 31.286 16.6904C31.7321 17.1402 31.6973 17.8004 31.8522 18.3621C31.996 18.8856 31.9135 19.4825 31.8672 20.0421C31.8498 20.2558 31.8216 20.7119 31.3511 20.3755C31.3179 20.3515 31.1535 20.5267 31.0404 20.593C30.9211 20.6626 30.7173 20.7955 30.6751 20.7587C30.1789 20.3229 30.0579 20.6344 29.8309 21.0652C29.4971 21.6993 29.2933 21.6525 28.397 21.4926C27.8515 21.3949 27.2733 21.3779 26.9539 20.9045C26.0903 19.6246 25.2056 18.3534 25.0859 16.7173C25.0382 16.0616 24.8551 15.3774 24.3142 14.906C23.8482 14.4997 23.5388 13.919 22.9026 13.6924C22.7108 13.6241 22.5704 13.3954 22.4213 13.2268C22.1044 12.8673 21.9342 12.4676 21.9259 11.9619C21.9172 11.4367 22.3322 11.319 22.5369 11.0212Z" fill="black"/>
<path fill-rule="evenodd" clip-rule="evenodd" d="M95.7508 53.8002C95.1916 53.241 94.7223 52.6934 94.1752 52.2395C92.6058 50.9372 91.8606 49.0948 90.922 47.3801C90.5004 46.6101 90.6209 45.7452 90.6392 44.9122C90.6425 44.7677 90.8421 44.6273 90.9589 44.4757C91.1184 44.7913 91.2679 45.087 91.4862 45.5186V43.9766C91.8147 43.8138 92.139 43.7251 92.3602 43.5238C92.6348 43.2741 92.945 43.3234 93.1968 43.3867C93.4901 43.4605 93.7403 43.7053 94.0352 43.8925C93.8625 44.7018 94.181 45.3795 94.5757 46.0857C94.929 45.99 95.3461 46.241 95.6999 45.8782C95.7748 45.8011 96.0209 45.7949 96.1269 45.8587C96.9934 46.3802 98.0567 46.6569 98.4949 47.7272C98.5736 47.9202 98.661 48.1695 98.8192 48.2553C99.0578 48.3845 98.8436 48.7879 99.2533 48.8037C99.5905 48.8165 99.3751 49.1603 99.4355 49.3475C99.5105 49.5795 99.6128 49.8064 99.6534 50.0442C99.6907 50.2621 99.6613 50.4915 99.6613 50.7177C98.7939 51.4616 98.2364 52.4093 97.809 53.4651C97.1152 53.5777 96.411 53.6925 95.7508 53.8002Z" fill="black"/>
<path fill-rule="evenodd" clip-rule="evenodd" d="M1.67127 1.1362C1.87713 0.855789 2.03743 0.62218 2.21512 0.401825C2.28015 0.321884 2.38038 0.265553 2.47358 0.213363C2.73908 0.0646652 2.92879 0.485079 3.22577 0.302002C3.45855 0.158689 3.73109 0.0298723 3.9966 0.0041918C4.21695 -0.0169325 4.54376 0.248571 4.66222 0.163245C4.92606 -0.0268733 5.08388 -0.084033 5.31334 0.173186C5.35601 0.220405 5.51216 0.184784 5.6095 0.161174C6.32938 -0.0123762 6.32896 -0.0144473 6.71417 0.685139C6.76678 0.533541 6.81234 0.402653 6.89518 0.163659C7.00908 0.471825 7.12092 0.690937 7.16814 0.92289C7.22612 1.2062 7.24021 1.49987 7.25346 1.78981C7.26713 2.08141 7.25636 2.37425 7.41997 2.67455L7.52932 1.58851C7.56784 1.58685 7.60677 1.5852 7.64571 1.58396C7.66683 1.77614 7.70411 1.96833 7.70535 2.16094C7.71157 3.13762 7.66559 4.1168 7.72109 5.09017C7.77038 5.94881 7.62334 6.72626 7.13831 7.4362C6.95648 7.26224 6.78417 6.99839 6.57707 7.41922C6.3505 7.87898 5.98766 7.84419 5.51879 7.63336C5.44092 8.1333 5.40571 8.72271 4.57772 8.53425V7.28212C4.52263 7.27135 4.46713 7.26017 4.41204 7.24898C4.28074 7.67603 4.14985 8.10307 4.01482 8.54253C3.64494 8.29484 3.34175 8.03141 3.4018 7.51035C3.41837 7.36413 3.24772 7.20425 3.19263 7.04106C2.95447 6.33111 2.95819 6.32946 2.36879 6.31248C2.25612 6.30916 2.14346 6.31206 2.0308 6.31206H1.72139C1.43559 6.02626 1.17796 5.75165 0.902514 5.4965C0.315591 4.95431 0.128787 4.2365 0.034763 3.49052C-0.0116276 3.12064 0.0683133 2.73419 0.0157097 2.36597C-0.0422784 1.96005 0.166893 1.66017 0.351627 1.37437C0.719852 0.804843 0.920739 0.788275 1.67127 1.1362Z" fill="black"/>
<path fill-rule="evenodd" clip-rule="evenodd" d="M67.5461 10.0765C67.0644 10.4037 66.6005 10.7318 66.1171 11.0271C66.0703 11.0557 65.9021 10.8854 65.7207 10.7587C65.6097 10.9579 65.5343 11.1406 65.4167 11.2897C65.2783 11.4657 65.1006 11.6107 64.9437 11.7726C64.6256 12.1003 64.319 12.4652 63.8489 11.9673C63.8129 11.9296 63.7035 11.9669 63.6294 11.959C63.1013 11.9019 62.598 12.0336 62.0666 11.6086C61.6387 11.2665 61.0941 11.03 60.6919 10.61C60.315 10.2157 59.9248 9.84537 59.6618 9.34501C59.2583 8.57667 58.8599 7.81702 59.0036 6.91531C59.0396 6.68915 59.195 6.48164 59.3354 6.17886C59.6195 6.41164 59.8117 6.56903 60.0362 6.75335C60.2201 6.14324 60.1824 5.43412 60.7478 4.89649C60.9694 5.06217 61.1835 5.22205 61.4507 5.4217V4.59785C62.193 4.47111 62.8673 4.21596 63.6112 4.26069C64.0378 4.28637 64.4064 4.4214 64.6765 4.68028C65.0236 5.01247 65.4486 5.25022 65.7319 5.67602C65.9879 6.06122 66.3379 6.38347 66.6067 6.78028C67.0478 7.43264 67.1969 8.19519 67.5196 8.88939C67.6737 9.22034 67.5461 9.68259 67.5461 10.0765Z" fill="black"/>
<path fill-rule="evenodd" clip-rule="evenodd" d="M19.7066 31.6716V34.0955C19.9315 33.4829 19.8926 32.8641 19.9116 32.2486C19.9191 32.0009 19.8019 31.6927 20.1022 31.5448C20.4124 31.3916 20.74 31.24 21.0747 31.1907C21.1899 31.1737 21.409 31.4463 21.4744 31.6248C21.5448 31.8166 21.4906 32.0539 21.4906 32.2958C21.6778 32.2175 21.7892 32.1268 21.889 32.138C22.0953 32.1612 22.3786 32.3521 22.4842 32.2751C23.0712 31.8431 23.7144 32.1268 24.3212 32.0928C24.5958 32.0775 25.0113 32.261 25.143 32.4838C25.4661 33.0327 26.118 33.2004 26.4597 33.8461C26.4709 34.122 26.5074 34.4629 26.794 34.8299C27.1697 35.3108 27.4903 35.908 27.3739 36.6118C27.3196 36.939 27.3644 37.2824 27.3644 37.6812C26.5944 38.1381 25.7933 38.5821 25.0254 39.0775C24.2218 39.5961 23.4907 39.2477 22.8069 38.8895C22.3078 38.6277 21.638 38.5051 21.4694 37.808C20.3536 37.306 20.1552 36.13 19.5596 35.2416C19.159 34.6443 19.1715 33.9493 19.058 33.3172C18.9644 32.7949 19.333 32.1898 19.497 31.6215C19.567 31.638 19.637 31.655 19.7066 31.6716Z" fill="black"/>
<path fill-rule="evenodd" clip-rule="evenodd" d="M41.5636 43.8944C41.0881 43.4189 40.584 42.9148 40.0165 42.3473C40.0165 41.9717 39.9776 41.5239 40.0364 41.0894C40.0588 40.9279 40.292 40.7647 40.4655 40.6698C40.5314 40.6334 40.7008 40.7866 40.8242 40.8542C40.9883 40.5294 41.0844 40.09 41.639 40.1968C41.7421 40.2171 41.8883 40.2233 41.9587 40.1666C42.235 39.9429 42.5357 39.7147 42.889 39.8129C43.5223 39.9893 44.2281 40.0924 44.7219 40.5294C45.6977 41.3939 46.6255 42.3333 47.1114 43.5817C47.4009 44.326 47.6623 45.0947 47.8023 45.8768C47.8632 46.2189 47.7708 46.6886 47.381 46.9611C46.7394 47.4105 46.1219 47.896 45.4662 48.3234C45.2429 48.4688 44.9281 48.5695 44.6676 48.5467C43.0261 48.4046 41.8564 47.6321 41.3714 45.7782C41.3006 45.5081 41.1312 45.2269 41.1676 44.9742C41.2206 44.6085 41.4203 44.2634 41.5636 43.8944Z" fill="black"/>
<path fill-rule="evenodd" clip-rule="evenodd" d="M44.3797 84.7054C44.335 84.4788 44.2902 84.2527 44.2455 84.0261C44.2426 84.9249 43.2937 85.2612 43.087 86.0255C43.0132 86.2988 42.609 86.4206 42.4416 86.2686C42.1687 86.0217 41.9827 86.2019 41.8286 86.3021C41.419 86.5689 41.0711 86.5432 40.6527 86.2988C39.447 85.5939 38.2031 84.946 37.4924 83.6537C36.6358 83.1902 36.3852 82.2488 35.8529 81.533C35.5941 81.1851 35.5116 80.7059 35.3311 80.2386C35.6458 79.7801 36.1031 79.9015 36.6561 80.1773C36.6027 79.9168 36.6171 79.677 36.5078 79.5291C36.3566 79.3257 36.5182 79.2458 36.6039 79.2098C36.9932 79.047 37.3958 78.9277 37.7164 78.6204C37.7947 78.545 38.0163 78.5748 38.1538 78.6162C38.3995 78.6908 38.6099 78.8478 38.8828 78.6257C38.9603 78.5632 39.2121 78.6883 39.3703 78.7579C40.7302 79.3552 41.9608 80.104 42.766 81.4295C42.8745 81.6084 43.1189 81.7981 43.3015 81.9684C43.8255 82.455 43.9237 83.1641 44.3292 83.6889C44.5984 84.0381 44.5396 84.3446 44.3797 84.7054Z" fill="black"/>
<path fill-rule="evenodd" clip-rule="evenodd" d="M112.947 32.04C112.977 31.8316 113.006 31.6229 113.04 31.3934C113.122 31.4531 113.195 31.4767 113.214 31.5226C113.503 32.2309 113.864 32.9098 114.034 33.6674C114.141 34.1437 114.277 34.5997 113.816 34.9709C113.502 35.2235 113.821 35.9492 113.115 35.9086C112.782 36.4433 112.248 36.3899 111.738 36.3535C111.623 36.7113 111.551 37.0601 111.401 37.3712C111.231 37.7216 110.69 37.8206 110.11 37.6549C109.977 37.6172 109.849 37.4884 109.728 37.4991C108.787 37.5812 108.789 37.5882 108.394 36.8468C108.196 36.4769 107.957 36.1236 107.804 35.7363C107.618 35.2641 107.328 34.9692 106.851 34.7654C106.143 34.4626 105.683 33.8488 105.561 33.1186C105.451 32.4575 105.76 31.8511 106.35 31.3748C106.643 31.7567 106.934 32.1373 107.343 32.6708C107.343 32.1249 107.337 31.7575 107.345 31.3905C107.352 31.0256 107.392 31.1002 107.969 30.84C108.382 30.6541 108.98 30.8794 109.217 30.307C109.625 30.2912 110.032 30.2763 110.439 30.2606C111.192 30.2307 111.86 30.3128 112.21 31.1494C112.35 31.4808 112.683 31.731 112.947 32.04Z" fill="black"/>
<path fill-rule="evenodd" clip-rule="evenodd" d="M1.5815 37.5283C0.690137 37.3353 0.377001 36.7032 0.295817 36.1477C0.191853 35.4374 -0.0487983 34.7411 0.00877567 33.9902C0.0833319 33.018 0.0779473 32.0318 0.00504786 31.0597C-0.0301592 30.5879 0.272622 30.2387 0.26558 29.7976C0.263924 29.6829 0.423391 29.4609 0.498776 29.4654C1.08031 29.4986 1.35659 28.869 1.96629 28.8653C2.37014 28.8632 2.77191 28.4846 3.22505 28.2477C3.67156 28.6942 4.62132 28.1421 4.98333 29.1266C4.74641 29.8183 5.33665 30.426 5.5367 31.1347C5.56446 31.2337 5.66842 31.3219 5.66925 31.4155C5.67878 32.5318 5.67505 33.6476 5.67505 34.86C5.49446 34.6997 5.41617 34.6305 5.22191 34.4578C5.2828 34.72 5.2712 34.9209 5.36067 34.9888C5.45594 35.0617 5.65682 34.9809 5.79185 35.0261C5.85315 35.0464 5.88588 35.2083 5.8925 35.3086C5.89582 35.3545 5.79599 35.456 5.75954 35.4486C5.48617 35.3951 5.21653 35.3206 4.9212 35.2469C4.71949 35.6834 4.5041 36.1494 4.34339 36.4977C4.03564 36.475 3.85173 36.4609 3.66824 36.4472C3.99008 36.7719 3.6202 36.8887 3.48641 37.0884C3.35014 37.2909 3.25031 37.5179 3.14221 37.7196C2.43144 37.6426 2.16635 37.1845 1.97623 36.5777C1.84162 36.9024 1.72025 37.1936 1.5815 37.5283Z" fill="black"/>
<path fill-rule="evenodd" clip-rule="evenodd" d="M84.7326 89.4749C84.1482 89.4584 83.5952 89.3006 83.3128 89.9484C82.8356 89.3196 82.7793 88.8735 83.2651 88.374C83.6006 88.0294 83.8218 87.599 84.2493 87.3012C84.6233 87.0403 84.7608 86.4633 85.0831 86.0959C85.3307 85.8134 85.7027 85.6394 86.0196 85.4178C86.1186 85.5144 86.2254 85.6196 86.394 85.7848C86.2151 85.912 86.0394 86.0371 85.8634 86.1618C85.8829 86.2069 85.9028 86.252 85.9222 86.2972C86.1799 86.2566 86.4371 86.216 86.7266 86.1705C86.8036 86.286 86.8931 86.5826 87.0849 86.6824C88.2368 87.2822 88.972 88.2833 89.672 89.3109C89.9019 89.6481 89.981 90.0842 90.1657 90.4574C90.6217 91.3799 90.7394 91.5501 90.6006 92.3884C90.5004 92.9944 90.3898 93.6406 89.9139 94.1343C89.7258 94.329 89.5254 94.6102 89.5154 94.8596C89.4906 95.4891 89.1447 95.5898 88.6361 95.5575C88.494 95.5484 88.3436 95.5666 88.2053 95.6039C87.3181 95.8425 87.2265 95.8176 86.7842 95.1375C86.1289 94.1306 85.8158 92.9791 85.4347 91.8599C85.1655 91.0692 84.96 90.2561 84.7326 89.4749Z" fill="black"/>
<path fill-rule="evenodd" clip-rule="evenodd" d="M70.368 77.0821C69.7405 76.7259 69.1051 76.414 68.5935 75.8983C67.6405 74.9357 66.6174 74.034 65.738 73.0084C64.8135 71.9303 63.8348 70.8674 63.2769 69.6033C63.3357 69.1042 63.986 69.6344 63.9984 69.0454C64.0021 68.8772 64.4143 68.7148 64.6429 68.5554C65.2103 68.1594 65.5272 68.0931 65.9406 68.533C66.3486 68.9675 66.8203 69.1232 67.3543 69.2363C68.1789 69.4111 68.748 70.0444 69.4538 70.4342C70.2089 70.8509 70.747 71.5219 71.3604 72.1047C71.6781 72.4062 72.0728 72.6377 72.3458 72.9716C72.6204 73.3075 72.8727 73.7113 72.97 74.1243C73.0288 74.3757 72.8399 74.7551 72.6477 74.9792C72.4104 75.2555 72.2982 75.6544 71.8827 75.7881C71.6425 75.8652 71.6764 76.1336 71.6296 76.3548C71.5758 76.6087 71.505 76.9177 71.0643 76.5987C70.7561 76.3763 70.4968 76.6919 70.368 77.0821Z" fill="black"/>
<path fill-rule="evenodd" clip-rule="evenodd" d="M115.845 70.5486C114.558 70.0185 114.004 69.0327 113.454 68.0746C112.971 67.2325 112.53 66.3557 112.171 65.454C111.812 64.5535 111.187 63.7002 111.466 62.567C112.28 63.1344 112.213 64.2192 112.995 64.9445C112.852 63.7972 112.256 62.9108 111.959 61.7021C112.37 61.9275 112.519 62.0091 112.702 62.1089C112.737 61.9121 112.774 61.7059 112.81 61.5004C113.151 61.4358 113.487 61.372 113.883 61.2966C113.989 61.4648 114.126 61.7133 114.291 61.9436C114.93 62.8395 114.934 62.8354 116.095 63.2483C116.225 63.2947 116.346 63.3701 116.464 63.4447C117.363 64.013 118.182 64.6533 118.677 65.6412C118.86 66.0065 119.11 66.6775 119.099 67.0665C119.096 67.1576 119.172 67.2644 119.239 67.3415C119.408 67.5374 119.331 67.7043 119.157 67.8033C118.649 68.0895 118.429 68.6528 117.979 68.99C117.786 69.1337 117.752 69.3251 117.717 69.5624C117.669 69.8855 117.035 70.3043 116.741 70.2363C116.558 70.1941 116.44 69.8586 116.191 70.1059C116.06 70.2359 115.961 70.3975 115.845 70.5486Z" fill="black"/>
<path fill-rule="evenodd" clip-rule="evenodd" d="M79.2644 44.2239C79.0673 44.2566 78.8606 44.2906 78.5752 44.3378C78.6879 44.549 78.7682 44.699 78.8523 44.8564C78.3159 45.3928 77.7576 45.9511 77.1818 46.5273C77.0891 46.5273 76.9756 46.5103 76.8687 46.5298C75.6017 46.7642 74.7579 46.0451 74.0542 45.1782C73.5046 44.501 73.032 43.755 72.6642 42.9411C72.4347 42.4329 72.2297 41.9648 72.3937 41.2744C72.7781 42.1193 73.1206 42.8715 73.4631 43.6241C73.524 43.6042 73.5849 43.5848 73.6462 43.5649C73.6185 43.4216 73.6143 43.2679 73.5588 43.1362C73.3298 42.5919 73.0692 42.0601 72.8534 41.5113C72.7578 41.2682 72.5527 40.9654 73.075 40.8523C73.2362 40.8175 73.3306 40.47 73.4536 40.2641C73.5613 40.0835 73.6657 39.9009 73.751 39.7551C74.2791 39.7066 74.2841 40.1684 74.6134 40.359C74.5368 40.0682 74.4601 39.7774 74.3591 39.3947C74.5281 39.2609 74.7538 39.082 74.9795 38.9027C75.122 39.0443 75.3109 39.27 75.4861 38.8538C75.6762 38.404 75.9571 38.2287 76.4123 38.5241C76.4537 38.551 76.5394 38.5717 76.5668 38.5493C77.094 38.1148 77.4047 38.5477 77.6487 38.8799C78.231 39.6739 78.5052 40.6274 78.854 41.5345C78.936 41.7474 79.1145 42.2473 78.5139 42.2713C78.48 42.2726 78.4539 42.4594 78.4244 42.5596C78.5495 42.5899 78.7417 42.6868 78.7894 42.6387C79.1261 42.3012 79.3075 42.7419 79.2744 42.8193C79.0718 43.2953 79.5411 43.755 79.2644 44.2239Z" fill="black"/>
<path fill-rule="evenodd" clip-rule="evenodd" d="M75.1738 20.1193C75.3064 20.2519 75.4393 20.3848 75.6411 20.5861C75.6779 20.2668 75.7086 20.0034 75.7421 19.7159C76.2069 19.6186 76.6861 19.496 77.1728 19.4239C77.4669 19.3804 77.7775 19.3816 78.0708 19.4268C78.2944 19.4616 78.1188 19.8783 78.5359 19.9147C78.8055 19.9383 79.0127 20.3964 79.2044 20.7154C79.3602 20.9743 79.127 21.5347 79.7184 21.5011C79.7387 21.8677 79.759 22.2347 79.7802 22.6012C79.7818 22.6369 79.7901 22.6721 79.7955 22.7077L81.4738 24.386C81.6536 24.386 81.8441 24.3628 82.026 24.3914C82.3064 24.4366 82.6083 24.7145 82.4646 24.8868C82.1448 25.2699 82.7181 25.5346 82.4907 25.8473C81.6171 26.1091 81.3417 26.1381 80.6309 26.0138C80.809 26.3986 80.964 26.7341 81.1586 27.1558C81.0451 27.2647 80.8956 27.5302 80.7482 27.5294C79.8174 27.5224 78.8379 27.7585 78.0082 27.0978C77.7833 26.9185 77.5116 26.778 77.3368 26.5589C76.9379 26.0594 76.5809 25.5263 76.2168 24.9995C76.0374 24.7398 75.8842 24.4614 75.7119 24.1963C75.4451 23.7859 75.5242 23.1944 75.0351 22.9007C75.1092 22.4028 74.8284 22.0263 74.649 21.5968C74.4051 21.0132 74.5563 20.4548 75.1738 20.1193Z" fill="black"/>
<path fill-rule="evenodd" clip-rule="evenodd" d="M40.3117 3.37489C40.752 3.37489 41.0532 3.37447 41.3539 3.37489C41.7569 3.37572 42.1931 3.3082 42.2854 3.89057C42.2954 3.95518 42.4461 4.05418 42.5182 4.04382C42.9954 3.97299 43.1192 4.42406 43.4112 4.62246C44.2036 5.16092 44.3204 6.04773 44.5184 6.86785C44.6315 7.33548 44.4803 7.67098 43.948 7.9895C43.3507 8.34696 42.6031 8.56897 42.1931 9.21844C41.831 9.22548 41.5349 9.79169 41.112 9.33856C41.0507 9.27311 40.9148 9.25116 40.8142 9.25282C39.3885 9.28015 38.4963 8.46169 37.7512 7.37027C37.373 6.8169 36.8996 6.32234 36.7513 5.64098C36.6904 5.3614 36.6548 5.07477 36.6349 4.78939C36.6278 4.69578 36.6829 4.53341 36.7484 4.5098C37.322 4.30477 37.7391 3.8156 38.2954 3.61637C38.9813 3.37116 39.7149 3.29743 40.3117 3.37489Z" fill="black"/>
<path fill-rule="evenodd" clip-rule="evenodd" d="M38.5007 58.1681C38.666 58.4278 38.7873 58.6192 39.0234 58.9907C39.0764 58.5972 39.0967 58.4626 39.1121 58.3276C39.1618 57.8798 39.1609 57.8807 39.7267 57.8231C39.7976 57.8156 39.9065 57.8252 39.9318 57.785C40.1898 57.3782 40.5928 57.2643 40.9996 57.3869C41.4606 57.5257 41.9555 57.6997 42.3142 58.002C43.7138 59.1817 44.5373 60.7627 45.1768 62.4402C45.2853 62.7264 45.1921 63.0892 45.1921 63.4123C45.0244 63.3937 44.8926 63.3792 44.7605 63.3643C44.7891 63.7694 44.6976 64.0697 44.2237 64.1653C44.0816 64.1943 43.8874 64.4064 43.8733 64.5493C43.8257 65.0372 43.3245 64.7995 43.1497 65.0534C42.8705 64.609 42.39 65.147 42.0761 64.8293C41.7754 64.5253 41.3637 64.2908 41.1648 63.9338C40.727 63.1472 40.3079 62.3288 40.0515 61.4722C39.9206 61.034 39.7263 60.7428 39.3887 60.544C38.8408 60.2221 38.415 59.8142 38.1474 59.2343C37.9241 58.7501 37.9146 58.7546 38.5007 58.1681Z" fill="black"/>
<path fill-rule="evenodd" clip-rule="evenodd" d="M59.6719 45.03C59.6719 44.9177 59.645 44.7616 59.6814 44.6216C59.7059 44.528 59.8662 44.4642 59.8803 44.3743C59.8956 44.2761 59.7804 44.1635 59.7792 44.0566C59.7784 43.9617 59.9117 43.8454 59.8857 43.7754C59.838 43.6465 59.7312 43.5273 59.6214 43.4378C59.5485 43.3781 59.4271 43.3773 59.2772 43.3367C59.3476 43.5815 59.4043 43.7787 59.4615 43.9762C59.0626 43.7331 58.6194 43.5393 58.8145 42.9532C58.9794 43.0236 59.1413 43.0936 59.3422 43.1797C59.4068 42.4744 58.7528 42.8413 58.501 42.5075C58.8696 42.551 59.1152 42.2971 59.4859 42.3464C59.6578 42.3691 59.8815 42.0038 60.1449 41.7545C60.5107 42.0531 60.9207 42.3874 61.4004 42.7788C61.4472 42.4926 61.4807 42.2888 61.5213 42.0407C62.0635 41.9359 62.6194 41.8286 63.1814 41.7201C63.4701 42.0887 63.6959 42.4251 63.9709 42.7146C64.2095 42.9648 64.5375 43.1317 64.7674 43.3881C65.4161 44.1121 65.7101 45.0262 65.9769 45.9304C66.0726 46.2539 66.1778 46.7659 65.5594 46.8525C65.5623 47.4464 64.936 47.5351 64.6535 47.9116C64.2994 48.3829 63.6731 48.4641 62.9971 48.1912C61.9848 47.7823 61.3196 46.992 60.673 46.2225C60.3496 45.8368 59.9863 45.4732 59.6719 45.03Z" fill="black"/>
<path fill-rule="evenodd" clip-rule="evenodd" d="M78.2878 59.6789C78.4701 59.741 78.6461 59.8007 78.8478 59.8694C78.8888 58.9193 77.9068 58.6529 77.7701 57.7781C77.9689 57.8659 78.1308 57.9032 78.2481 57.9964C78.4361 58.1464 78.5943 58.3327 78.8288 58.5672C78.7488 58.0908 78.6958 57.9815 78.4241 57.6555C79.0181 56.9373 79.0181 56.9373 79.7193 56.9348C80.1049 57.3693 80.4342 57.9417 80.9283 58.2433C81.4739 58.5767 81.6346 59.1458 82.0368 59.5538C82.4211 59.9444 82.6763 60.4762 82.931 60.9753C83.071 61.2487 83.1899 61.5979 83.1443 61.8853C83.0863 62.2486 82.9314 62.7825 82.6746 62.8856C82.2521 63.0559 82.3466 63.3545 82.2136 63.6113C82.0314 63.9622 81.782 64.3035 81.3247 64.3788C81.0576 64.4227 80.7395 64.6265 80.5436 64.5383C80.0668 64.3233 79.5743 64.0495 79.2218 63.6739C78.5566 62.9648 77.9618 62.1848 77.3927 61.3945C77.2498 61.1965 77.3157 60.8486 77.2734 60.4572C77.4631 60.6104 77.5385 60.6709 77.6984 60.7997C77.6156 60.2236 78.1192 60.026 78.2878 59.6789Z" fill="black"/>
<path fill-rule="evenodd" clip-rule="evenodd" d="M72.349 101.108C72.0404 100.939 71.8917 100.857 71.7475 100.777C71.4936 101.695 71.4307 101.743 70.6806 101.412C70.8785 101.873 71.0372 102.242 71.2099 102.643C71.014 102.756 70.8135 102.873 70.611 102.991C70.2448 102.625 69.8733 102.253 69.4674 101.847C69.223 102.397 69.8956 102.652 69.8294 103.183C69.2259 103.267 68.8759 102.857 68.5284 102.479C68.3387 102.273 68.2359 101.985 68.0404 101.786C67.169 100.901 66.3861 99.9449 65.6563 98.9426C65.5909 98.8527 65.5001 98.7806 65.419 98.7027C64.9791 98.2832 64.5181 97.8776 64.4854 97.1938C64.9244 96.925 65.1576 97.3392 65.4562 97.5956C65.7598 97.0932 65.0574 97.0261 65.0888 96.6558C65.1158 96.2092 65.9653 96.7788 65.7495 96.049H66.9726C67.3226 96.2954 67.6776 96.5394 68.0255 96.7924C68.3747 97.0463 68.6054 97.4113 69.0329 97.6179C69.4479 97.8192 69.7229 98.2939 70.0883 98.6158C70.3264 98.8258 70.4776 99.1145 70.8583 99.2089C71.1337 99.2768 71.2807 99.6947 71.6991 99.6409C71.8155 99.6256 72.0255 99.836 72.0847 99.9855C72.1978 100.27 72.2326 100.586 72.349 101.108Z" fill="black"/>
<path fill-rule="evenodd" clip-rule="evenodd" d="M64.5875 25.5581C64.976 25.5838 65.2444 25.3829 65.5998 25.6393C65.4192 25.7014 65.2883 25.7466 65.1455 25.7959C65.2788 26.2486 65.4271 26.6984 65.536 27.1574C65.5638 27.275 65.5021 27.5074 65.4205 27.5417C64.9673 27.7331 64.8302 28.2206 64.4773 28.4878C64.3212 28.6062 64.0872 28.6448 63.883 28.6679C63.7807 28.6791 63.6601 28.5246 63.5578 28.5354C63.4331 28.5487 63.3188 28.6576 63.1875 28.7321C62.9937 28.0471 63.0036 28.0193 62.2402 27.7592C61.7834 27.6035 61.6885 27.1545 61.3646 26.872C61.2921 27.0265 61.2221 27.1756 61.1439 27.3429C61.0299 27.2236 60.8382 27.1151 60.8386 27.0074C60.8444 25.6617 60.8431 25.6314 60.2289 24.825C59.8826 25.4335 60.5462 25.7855 60.5822 26.3807C60.4178 26.355 60.1721 26.3741 60.1436 26.3041C59.8549 25.6024 59.415 24.9397 59.866 24.0981C60.006 23.8367 60.0313 23.6996 60.3457 23.6942C60.5395 23.6913 60.7479 23.5774 60.9206 23.4681C61.3683 23.1852 61.7995 22.877 62.2779 22.551C62.3873 22.7142 62.4883 22.8654 62.4639 22.8285C62.8412 23.0916 63.2347 22.3833 63.2977 23.1218C63.3159 23.3314 63.7844 22.8314 63.7844 23.3803C63.7844 23.5923 64.1741 23.8048 64.3701 24.0007C64.3001 24.1821 64.2338 24.3553 64.1671 24.5284C64.2226 24.5669 64.2781 24.6055 64.334 24.644C64.4322 24.4572 64.5304 24.2704 64.6542 24.0355C64.8559 24.3785 64.9731 24.5769 65.1268 24.8374C64.9599 25.0603 64.7739 25.3092 64.5875 25.5581Z" fill="black"/>
<path fill-rule="evenodd" clip-rule="evenodd" d="M26.618 59.2989C26.3579 58.9709 26.152 58.7112 25.9234 58.4221C25.807 58.6602 25.7329 58.8114 25.6364 59.0086C25.2019 58.8048 24.9094 58.4685 24.6605 58.1176C24.1104 57.3418 23.6851 56.4861 23.1275 55.7091C22.7846 55.2315 22.7643 54.6313 22.8997 54.01C23.4146 53.9056 23.526 54.5108 23.9551 54.6636V53.5639C24.7661 53.4496 25.5477 53.3394 26.2643 53.2388C27.0161 53.9139 27.511 54.6433 27.8619 55.4858C28.0623 55.9659 28.4753 56.3262 28.6008 56.8755C28.6505 57.0925 28.3722 57.3845 28.7147 57.546C28.7205 57.5485 28.6128 57.8128 28.6095 57.8116C28.0503 57.6098 27.8623 58.4208 27.3242 58.2908C27.2894 58.2821 27.1942 58.49 27.1407 58.6039C27.0815 58.729 27.055 58.8723 26.9821 58.9875C26.9282 59.0736 26.8239 59.1275 26.618 59.2989Z" fill="black"/>
<path fill-rule="evenodd" clip-rule="evenodd" d="M51.6377 72.9606C51.7992 73.3343 51.9169 73.6064 52.085 73.9945C52.1919 73.7116 52.2412 73.5819 52.2934 73.4444C52.3439 73.4755 52.4268 73.497 52.4375 73.5376C52.5394 73.9249 52.7233 74.2559 53.0029 74.5499C53.1702 74.726 53.2912 74.9525 53.4051 75.1708C53.606 75.5573 53.891 75.8211 54.3524 75.9031C54.4249 75.7565 54.4994 75.6049 54.5342 75.5345C54.7479 75.6944 54.9803 75.8688 55.1534 75.9984C55.1534 76.1392 55.1683 76.1997 55.1514 76.2109C54.9468 76.3438 54.7376 76.4693 54.5466 76.5861C54.6021 76.8947 54.6518 77.1743 54.7268 77.5931C54.3884 77.4286 54.2033 77.3383 53.9365 77.2083C53.7886 77.5057 53.6404 77.8047 53.4809 78.1261C53.3293 78.1431 53.1516 78.1638 52.9341 78.1883V78.6903C52.3667 79.1153 51.9024 79.0581 51.4103 78.6095C50.8743 78.1208 50.27 77.7078 49.7233 77.1259C49.9531 76.9738 50.1752 76.8272 50.4187 76.6665C50.2944 76.2109 50.0712 75.8041 49.7494 75.4065C49.4275 75.0085 49.2511 74.4924 49.0195 74.0442C49.3505 73.6362 49.6118 73.9382 49.9154 74.0657C49.9283 73.9518 49.9809 73.8305 49.9449 73.7485C49.7183 73.239 49.8165 72.9872 50.2965 72.9652C50.7472 72.9441 51.1995 72.9606 51.6377 72.9606Z" fill="black"/>
<path fill-rule="evenodd" clip-rule="evenodd" d="M19.4882 77.4273C19.6775 77.7073 19.832 77.9364 20.0251 78.2218C20.0752 78.0656 20.1439 77.965 20.1282 77.8809C20.0511 77.4729 19.9513 77.0694 19.8469 76.6093H20.5035C20.5602 76.7273 20.6298 76.8719 20.7673 77.1581V76.2352C20.8957 76.1901 21.0051 76.1764 21.0817 76.1197C21.2569 75.9892 21.5344 75.6931 21.563 75.7163C21.85 75.9523 22.2046 75.8099 22.4829 75.9167C22.898 76.0758 23.2923 76.3533 23.2869 76.8826C23.2852 77.0409 23.0756 77.2169 23.1071 77.3499C23.1328 77.458 23.4227 77.482 23.5093 77.6042C23.5801 77.704 23.5859 77.9716 23.513 78.03C23.2202 78.2636 23.2848 78.566 23.3047 78.8493C23.33 79.203 23.1751 79.418 22.8611 79.507C22.5256 79.6023 22.4473 79.8173 22.3769 80.1383C22.2771 80.5918 21.966 80.8934 21.44 80.871C21.2581 80.8635 21.0697 80.8677 20.8932 80.9062C20.4442 81.0044 19.8784 80.8967 19.7384 80.5674C19.3967 79.7638 18.9022 79.0046 18.9941 78.059C19.0301 77.6903 19.2522 77.5855 19.4882 77.4273Z" fill="black"/>
<path fill-rule="evenodd" clip-rule="evenodd" d="M55.7132 57.105C55.994 57.1874 56.2872 57.2731 56.6476 57.3788C56.8004 57.0147 56.8456 56.6651 56.5233 56.34C56.9193 55.98 57.1827 56.5226 57.5708 56.4638C57.6069 56.2679 57.6454 56.0616 57.6827 55.8595C57.9867 55.5339 58.2609 56.1345 58.6283 55.8512C59.004 55.5613 59.0988 56.1871 59.4182 56.2588C59.5975 56.2989 59.7653 56.4858 59.8933 56.6431C60.3174 57.1634 60.3837 57.8994 60.9549 58.3538C61.0916 58.4623 61.0187 58.8355 61.0493 59.1673C60.416 58.8562 60.3775 59.8611 59.7674 59.6229C59.5797 59.9265 59.757 60.477 59.0707 60.5429C58.9982 60.4194 58.8847 60.226 58.7232 59.9501C58.5856 60.2372 58.519 60.3763 58.4506 60.5197C58.0662 60.6108 57.8902 60.2794 57.7639 60.0686C57.3443 59.3665 56.8008 58.8293 56.0979 58.4093C55.6655 58.1508 55.4282 57.7296 55.7132 57.105Z" fill="black"/>
<path fill-rule="evenodd" clip-rule="evenodd" d="M50.217 27.0934C49.6839 27.5109 49.2909 27.8191 48.7835 28.2171H47.8345C47.4651 27.6828 47.345 26.9799 46.8003 26.5388C46.7431 25.7949 46.2287 25.3339 45.7818 24.8153C45.6397 24.65 45.6703 24.3361 45.6099 24.0287C45.7731 23.9832 45.9346 23.9865 46.0191 23.9074C46.886 23.0968 47.7028 23.5524 48.3937 24.1054C48.9835 24.5771 49.4814 25.2013 49.8993 25.8367C50.1363 26.1967 50.13 26.7165 50.217 27.0934Z" fill="black"/>
</svg>
