<svg width="81" height="59" viewBox="0 0 81 59" fill="none" xmlns="http://www.w3.org/2000/svg">
<path fill-rule="evenodd" clip-rule="evenodd" d="M3.27069 51.7288C3.49892 51.7288 3.70519 51.7797 3.7433 51.7213C4.39732 50.7177 5.01365 49.6901 5.67265 48.6898C6.25253 47.8088 6.71643 46.8627 7.26566 45.9656C7.56099 45.4822 7.90768 45.0299 8.21501 44.5527C8.442 44.1994 8.56294 43.7198 8.87442 43.4915C9.31472 43.1685 9.22111 42.6474 9.5446 42.2725C10.0657 41.6699 10.4008 40.9082 10.8286 40.2231C11.5195 39.1167 12.2286 38.022 12.917 36.9144C13.3167 36.272 13.8022 35.671 13.9326 34.872C13.6874 35.0551 13.4733 35.2684 13.3171 35.5178C12.8512 36.2617 12.415 37.0242 11.9536 37.771C11.7299 38.133 11.4673 38.4706 11.2362 38.8285C10.9885 39.2124 10.7561 39.6063 10.5171 39.9961C10.2781 40.3859 10.0524 40.7847 9.79726 41.1633C9.26667 41.9511 8.72987 42.734 8.33927 43.6054C8.28253 43.7326 8.19844 43.8478 8.12637 43.9683C7.74821 44.6012 7.16336 45.1098 6.98318 45.8637C6.95916 45.9631 6.92188 46.0902 6.84773 46.1412C6.18708 46.5923 5.87809 47.3283 5.53347 47.974C5.17685 48.643 4.52282 49.1843 4.50087 50.0231C4.0904 50.1565 4.14383 50.6734 3.89034 50.8424C3.55939 51.0636 3.48856 51.3539 3.27069 51.7288ZM11.8575 44.7772C12.345 44.2073 12.7936 43.5976 13.3271 43.0744C15.3285 41.1132 17.3502 39.1718 19.3806 37.2404C20.3196 36.3466 21.1244 35.3102 22.2312 34.5895C22.5712 34.3683 22.8359 34.0258 23.1138 33.7193C23.3884 33.4157 23.8677 33.3946 24.023 32.8694C24.1133 32.5633 24.624 32.3918 24.9239 32.135C25.4238 31.7075 25.9362 31.2751 26.4018 30.8298C27.5756 29.7078 28.9901 28.8458 29.985 27.534C30.0297 27.4744 30.084 27.3899 30.1449 27.3791C30.6792 27.2876 30.8735 26.7794 31.2471 26.4931C31.6203 26.2073 31.9964 25.9224 32.3505 25.6134C33.0725 24.9838 33.7385 24.2792 34.511 23.7201C35.0225 23.3493 35.4363 22.8863 35.9267 22.5102C37.1068 21.6047 38.2856 20.7034 39.411 19.7263C39.8488 19.3465 40.2584 18.888 40.7501 18.6109C41.6709 18.0923 42.3945 17.338 43.2407 16.7346C44.4179 15.895 45.4803 14.8943 46.6599 14.0588C47.7712 13.2718 48.8473 12.4409 49.9466 11.6403C50.9287 10.9262 51.9228 10.2295 52.9119 9.52497C53.7548 8.92479 54.6002 8.3271 55.4389 7.72112C55.5702 7.62627 55.6725 7.49249 55.7972 7.36781C55.7028 7.30527 55.6584 7.26178 55.6456 7.26923C55.1655 7.56663 54.6432 7.8168 54.2237 8.1842C53.8161 8.54041 53.1235 8.48284 52.9251 9.11036C51.9961 9.77598 51.0637 10.4375 50.138 11.1076C49.1522 11.8221 48.1618 12.5304 47.1938 13.2685C46.387 13.8832 45.6538 14.606 44.8076 15.1569C43.599 15.9434 42.5092 16.8766 41.3685 17.7456C40.4125 18.4738 39.5468 19.3217 38.5859 20.0424C37.4249 20.9134 36.2776 21.7957 35.1982 22.7666C34.6816 23.2313 34.1858 23.7383 33.6064 24.1111C32.8049 24.6263 32.1687 25.3276 31.4136 25.8921C30.8279 26.3299 30.3106 26.8585 29.7319 27.3062C29.6313 27.3845 29.3753 27.2635 29.1073 27.2209C29.2461 27.5576 29.1081 27.9553 28.7942 28.0137C28.1526 28.133 27.89 28.7 27.4116 28.9999C27.2223 29.1183 27.1825 29.47 26.9949 29.5984C26.1831 30.1543 25.3969 30.7379 24.7193 31.4524C24.5002 31.6831 24.385 32.0236 24.1452 32.2207C23.7372 32.5562 23.1089 32.724 22.8657 33.1353C22.5729 33.6315 22.0087 33.8282 21.7847 34.3551C21.7321 34.4789 21.4699 34.4988 21.3406 34.6094C21.1973 34.7324 21.0884 35.0381 20.9782 35.0315C20.5545 35.0054 20.3167 35.2978 20.1875 35.5575C20.0168 35.9005 19.8164 36.2906 19.5152 36.3785C19.0431 36.516 19.1131 37.0225 18.7457 37.2081C18.2987 37.4334 17.9674 37.8381 17.5838 38.1583C17.1725 38.5012 16.9033 39.0095 16.5255 39.3996C15.5828 40.3738 14.6136 41.322 13.6551 42.2804C13.2558 42.6797 12.8474 43.0707 12.4602 43.4812C12.128 43.8328 11.8662 44.2313 11.8575 44.7772ZM12.2961 35.8263C11.6554 35.6209 11.2768 35.8723 10.9885 36.1643C10.7284 36.4282 10.6696 36.8921 10.1895 36.9351C10.2243 37.4483 9.61336 37.4044 9.47833 37.7499C9.31182 38.1769 8.80608 38.0386 8.58117 38.3447C8.72448 38.6338 8.72448 38.6338 8.04726 39.3027C7.60821 39.7372 7.60821 39.7372 7.03123 39.8627C6.99436 40.0673 6.95708 40.274 6.91525 40.5068C6.79803 40.402 6.71809 40.3308 6.49939 40.1353C6.593 40.4654 6.64395 40.6435 6.70939 40.875C6.38839 40.8854 6.06572 41.2105 5.6391 40.9533C5.5985 40.9293 5.35413 41.2445 5.16028 41.4479C4.93454 41.0266 4.72785 40.6427 4.49714 40.2136C4.84797 39.5504 5.27833 38.9026 5.84164 38.331C6.40744 37.7565 6.88584 37.095 7.45454 36.5238C7.96939 36.0057 8.5472 35.5488 9.11134 35.0808C9.64815 34.6347 9.99111 33.9678 10.6832 33.6994C11.2565 32.5264 12.6424 32.2708 13.4029 31.2776C13.7997 30.7594 14.4579 30.45 15.099 30.2321C15.3658 30.141 15.6715 30.1634 15.9597 30.1344L17.1531 30.863C17.2081 30.9048 17.2645 30.9454 17.3192 30.9885C18.1215 31.6209 18.1476 31.6305 17.8212 32.5173C17.6174 33.0706 17.3208 33.5896 17.0607 34.1347C16.8142 34.1476 16.5612 34.1604 16.2224 34.1782C16.3209 34.305 16.4067 34.3675 16.4228 34.4446C16.5322 34.9664 16.579 35.4788 16.043 35.8259C16.1221 36.475 15.4905 36.7885 15.3297 37.339C15.1752 37.8688 14.8944 38.3617 14.6666 38.8695C14.609 38.9975 14.5411 39.1209 14.4719 39.2572C14.7946 39.5235 15.0377 39.3226 15.2896 39.0683C16.2161 38.1322 17.1526 37.2052 18.0817 36.2712C18.8534 35.4954 19.6764 34.7825 20.5661 34.143C20.7483 34.0117 20.8291 33.7458 21.0002 33.5896C21.5958 33.0446 22.2047 32.5131 22.8197 31.99C23.4067 31.4909 23.8147 30.8017 24.5532 30.4537C24.8415 30.3179 25.0088 29.9418 25.2892 29.7674C25.5303 29.6175 25.6657 29.4182 25.8455 29.226C26.2613 28.7808 26.7513 28.3765 27.2803 28.0762C27.5474 27.9242 27.5872 27.3584 28.0755 27.5995C28.2918 27.3195 28.4852 27.0171 28.7287 26.7636C29.5137 25.946 30.4075 25.258 31.3254 24.5949C31.8874 24.1894 32.3874 23.6989 32.9151 23.2462C33.9705 22.3416 35.0089 21.4154 36.0862 20.5369C37.5144 19.3714 38.9657 18.2335 40.4204 17.1011C41.6692 16.1298 42.9023 15.1316 44.2045 14.2361C46.1198 12.9198 47.8976 11.422 49.8298 10.1231C51.3342 9.1116 52.839 8.08148 54.2908 7.00124C55.8113 5.86965 57.4283 4.89089 58.9584 3.78083C59.9525 3.06012 61.0687 2.51006 62.0984 1.83574C62.9844 1.25627 63.9242 0.767515 64.8011 0.175621C64.9092 0.102308 65.038 0.0592308 65.1619 0C65.4754 0.551302 65.0919 0.803964 64.8024 1.0645C64.5315 1.30763 64.2216 1.50686 63.718 1.88337C64.647 1.74669 65.0989 1.27035 65.6013 0.924911C65.8797 0.73355 66.0868 0.622959 66.4434 0.832959C66.3676 0.985799 66.2931 1.13698 66.2111 1.30349C66.5428 1.38426 66.9077 1.4729 67.317 1.57272C67.208 1.82497 67.0651 1.99976 67.1041 2.1087C67.1488 2.23213 67.3567 2.29675 67.5054 2.3945C67.3886 2.66083 66.9682 2.78136 67.0726 3.19308C67.0879 3.25314 66.9314 3.4213 66.9177 3.41426C66.4057 3.15497 66.4637 3.83219 66.1112 3.9142C65.9016 3.96308 65.4531 4.01402 65.4394 4.47544C65.4373 4.53467 64.9738 4.51976 64.8769 4.65148C64.7572 4.8155 64.7858 5.08018 64.4631 5.00976C64.3944 4.99444 64.256 5.00479 64.2531 5.02302C64.1036 5.81787 63.3029 5.63604 62.8523 5.97071C62.6174 6.14467 62.2372 6.18651 62.2219 6.58828C61.7103 6.52615 61.9054 7.38852 61.3964 7.25308C60.906 7.1226 61.0037 8.00278 60.457 7.74556C60.4197 7.72817 60.2031 8.11669 60.0535 8.30391C59.8742 8.52799 59.3113 8.19456 59.3647 8.77112C59.0677 8.87177 58.7753 9.03663 58.4721 9.05858C58.0049 9.09254 57.8098 9.2926 57.8123 9.7474C57.8127 9.83811 57.7369 9.97479 57.659 10.0125C57.4399 10.1169 57.1632 10.1314 56.9826 10.2743C56.7992 10.4188 56.6596 10.8686 56.5776 10.85C55.9434 10.705 56.0329 11.458 55.5826 11.5699C55.429 11.4933 55.243 11.4005 54.9775 11.2683C54.6826 12.1804 53.6947 12.4546 53.278 13.2619C53.1621 13.4872 52.9483 13.6372 52.6306 13.5991C51.9832 13.5224 51.5545 13.7631 51.4845 14.4776C51.4725 14.6031 51.345 14.818 51.2658 14.8205C50.4851 14.8441 50.4109 15.7881 49.7171 15.9666C49.3717 16.0557 49.2321 16.6426 48.7098 16.5407C48.6754 16.5341 48.6141 16.6994 48.5553 16.7776C48.4476 16.9222 48.2757 17.0464 48.2318 17.2067C48.1067 17.6599 47.5774 17.2146 47.4129 17.6209C47.309 17.8782 47.0936 18.1068 46.8844 18.3007C46.6508 18.5173 46.3377 18.6507 46.1144 18.8747C45.8659 19.1237 45.5743 19.1862 45.2678 19.3001C45.0189 19.3929 44.9041 19.9893 44.6921 20.0121C44.1234 20.0726 44.0177 20.5676 43.6851 20.8347C43.319 21.1296 42.9458 21.4163 42.5825 21.7153C42.334 21.9195 42.1692 22.2513 41.755 22.1925C41.7028 22.185 41.641 22.4104 41.5495 22.4866C41.1958 22.7815 41.0376 23.3353 40.4374 23.3199C40.3599 23.3179 40.285 23.4997 40.1959 23.583C39.4184 24.3099 38.6385 25.0335 37.8594 25.7579C37.277 25.6341 37.2323 26.2218 36.9328 26.4679C36.3372 26.9562 35.7677 27.4756 35.1832 27.9772C35.1339 28.0199 35.0561 28.0344 34.989 28.0501C33.9763 28.2875 33.9763 28.287 33.2858 28.9614C32.9122 28.8922 32.5017 28.705 32.1641 28.7932C31.9318 28.8537 31.8 29.2969 31.7466 29.6763C32.0324 29.4965 32.319 29.3163 32.8422 28.9875C32.6405 29.4526 32.3079 29.5843 32.3145 29.7525C32.329 30.1137 32.0411 30.0184 31.904 30.1422C30.9141 31.0369 29.949 31.9585 28.9512 32.8433C28.6915 33.0731 28.6732 33.6526 28.1074 33.4766C27.786 33.9508 27.0732 34.1389 27.0926 34.8633C27.0935 34.8973 27.0893 34.9462 27.0678 34.964C26.4788 35.4482 25.8877 35.9291 25.2967 36.4108C24.8746 36.3097 24.7044 36.6597 24.4786 36.8854C23.5351 37.829 22.5683 38.7493 21.7474 39.8126C21.4964 40.1386 21.247 40.5942 20.675 40.489C20.6083 40.477 20.4828 40.6116 20.4364 40.704C20.3134 40.9525 20.277 41.2739 20.0951 41.4557C19.9133 41.6376 19.5124 41.6152 19.357 41.8053C18.9548 42.2962 18.5999 42.8346 18.2929 43.3913C18.0067 43.9103 17.3626 44.4753 16.7235 44.6161V45.3086C16.176 45.896 15.5236 46.3951 14.9926 47.0218C14.4591 47.6514 13.88 48.2627 13.2322 48.7685C12.7451 49.1483 12.2601 49.4614 12.1346 50.1163C12.1172 50.2082 11.9813 50.2753 11.9043 50.3577C10.8659 51.4707 9.82128 52.5783 8.79241 53.6995C8.12347 54.4285 7.53987 55.2329 6.81377 55.9122C6.7243 55.9963 6.71685 56.1682 6.6746 56.292H5.96507C5.88762 56.4453 5.76998 56.5936 5.7385 56.758C5.64531 57.238 5.44111 57.5562 4.95691 57.7898C4.36211 58.0768 4.39773 58.1476 3.85513 57.7947C3.76773 57.738 3.6704 57.6962 3.5772 57.6481C3.25702 57.482 3.05448 58.1145 2.6962 57.7695C2.42448 57.5077 2.19998 57.656 1.91667 57.8304C1.6346 58.0039 1.4975 57.8908 0.973948 57.3942C1.00294 57.1639 1.02655 56.9796 1.05016 56.7953C0.921344 56.8143 0.774717 56.8015 0.669096 56.8611C0.542764 56.9324 0.451226 57.0657 0.341463 57.1755C0.297143 57.1341 0.222587 57.0985 0.212646 57.0496C0.129392 56.6308 -0.0557563 56.1893 0.0163147 55.7954C0.0801017 55.4454 0.470693 55.1675 0.650042 54.8228C1.28129 53.6109 1.90549 52.3965 2.65105 51.2483C3.05489 50.6262 3.31584 49.9183 3.83898 49.3637C3.9914 49.2017 3.95288 48.8596 4.10614 48.698C4.25608 48.539 4.59117 48.5618 4.50998 48.1931C4.49217 48.1124 4.57791 47.998 4.63673 47.9131C5.15862 47.1589 5.58028 46.3375 6.0972 45.5886C6.50188 45.0025 6.84981 44.3908 7.20726 43.7823C7.67117 42.9933 8.30738 42.309 8.62963 41.4342C8.64123 41.4023 8.6785 41.377 8.70791 41.3547C8.95478 41.167 9.20247 40.9815 9.45016 40.7951C9.22981 40.4281 9.47501 40.1949 9.673 39.9257C9.85856 39.6734 9.95383 39.3495 10.156 39.1151C10.7648 38.4093 11.1534 37.5643 11.6732 36.8038C11.8708 36.5156 12.0493 36.2149 12.2961 35.8263Z" fill="black"/>
<path fill-rule="evenodd" clip-rule="evenodd" d="M53.9789 26.2439C54.6934 25.5675 55.335 24.7809 56.146 24.2532C56.6936 23.897 57.1405 23.4339 57.6665 23.0632C59.0185 22.1118 60.3149 21.0692 61.6031 20.0329C62.7032 19.1482 63.8568 18.3339 64.9503 17.4413C66.0305 16.5598 67.1542 15.7161 68.3393 14.9875C68.7638 14.7262 69.1374 14.3936 69.5471 14.1231C70.4397 13.5337 71.3236 12.914 72.1657 12.2439C72.7261 11.7978 73.4087 11.5186 73.8987 10.969C74.0072 10.8472 74.1977 10.744 74.3576 10.7324C75.4925 10.6525 76.1287 9.72179 76.9948 9.19286C77.6667 8.7828 78.2436 8.21948 78.9002 7.78126C79.2406 7.55428 79.6519 7.38984 80.0533 7.31363C80.2894 7.26848 80.5694 7.45156 80.8614 7.54185C80.6961 7.76386 80.5599 7.95895 80.4103 8.14327C80.3341 8.2373 80.2347 8.31227 80.1452 8.39552L79.2829 9.08682C79.171 9.3983 78.9701 9.59132 78.6202 9.52173C78.2349 9.44511 78.5062 10.1149 78.0312 9.99475C77.7002 9.91067 77.6116 10.2491 77.4517 10.5034C77.274 10.785 76.9335 10.9934 76.6229 11.1558C75.7241 11.6259 75.0046 12.3383 74.2147 12.948C73.9322 13.1667 73.3142 12.912 73.3424 13.5453C72.9232 13.5809 72.7493 14.1562 72.4796 14.1455C71.8045 14.1181 71.7941 14.8475 71.2569 15.0174C70.7905 15.1644 70.4649 15.7248 69.987 16.0214C69.3184 16.4368 68.7315 16.9803 68.0808 17.4272C67.1613 18.0584 66.238 18.6781 65.4109 19.434C64.9569 19.8486 64.459 20.2152 63.9736 20.5937C63.6886 20.8158 63.39 21.0191 63.127 21.2097C63.03 21.1894 62.8478 21.1119 62.8184 21.1508C61.7539 22.5438 60.2992 23.4662 58.8843 24.4355C58.3421 24.8066 57.9706 25.3571 57.3832 25.7066C56.7321 26.0948 56.2003 26.6854 55.6266 27.199C55.2745 27.5138 55.0206 27.945 54.4134 27.8477C54.1839 27.8108 54.039 28.0813 53.9578 28.3704C53.8584 28.727 53.5904 29.031 53.2039 29.164C52.6978 29.3379 52.3478 29.6681 52.0156 30.0951C51.6159 30.6095 51.1259 31.0569 50.539 31.4011C50.008 31.7126 49.7586 32.3914 49.1091 32.5915C49.0139 32.6209 48.9501 32.7472 48.8673 32.8234C47.9411 33.6759 47.0423 34.5614 46.0805 35.3712C44.4113 36.7766 42.8278 38.2723 41.2178 39.7414C40.4275 40.4626 39.6509 41.2015 38.8585 41.9214C38.5942 42.1608 38.1751 42.2933 38.0259 42.5791C37.8454 42.9254 37.6068 43.0878 37.3081 43.2911C37.0054 43.4978 36.751 43.7414 36.23 43.6072C36.4114 43.8014 36.4611 43.8549 36.5506 43.9506C36.119 44.267 35.6923 44.5805 35.2591 44.8978C35.3063 44.9513 35.3763 45.0295 35.4335 45.0937C35.2098 45.2545 35.0002 45.4653 34.7463 45.5713C34.4907 45.6778 34.1917 45.6803 33.7282 45.7598C34.0223 45.9263 34.2083 46.0311 34.4481 46.1669C33.9804 46.4072 33.6466 46.5791 33.2842 46.7655C33.1603 46.6487 33.0054 46.5024 32.8497 46.3566C32.7432 46.4631 32.6368 46.5695 32.5146 46.6917C32.6716 46.7655 32.8211 46.8359 32.9959 46.9179C32.9586 47.0235 32.9396 47.1324 32.8853 47.219C32.7722 47.4004 32.6074 47.5553 32.5225 47.7471C32.3448 48.1505 32.358 48.1522 31.6936 48.4243C31.5975 48.4637 31.5114 48.5664 31.4555 48.6604C31.2525 49.0017 30.9357 49.3277 30.7335 49.3766C30.7774 49.483 30.888 49.6379 30.8528 49.6864C30.7646 49.8065 30.5608 49.8504 30.4912 49.9743C30.1959 50.4982 30.0327 51.151 29.2304 51.1055C28.991 51.4203 28.8067 51.8146 28.4973 52.0287C28.1464 52.2719 28.3523 52.8422 28.1096 52.8637C27.5587 52.9122 27.8859 53.3272 27.7277 53.512C27.3251 53.9208 26.8893 52.9719 26.4507 53.5443C26.6056 52.6624 26.9564 51.8626 27.5504 51.2281C28.3515 50.3736 29.0469 49.44 29.7912 48.544C30.5339 47.6506 31.4281 46.8835 32.2458 46.0514C32.5022 45.7904 32.7279 45.4992 32.9677 45.2217C33.4159 45.0561 33.7862 44.7827 34.1051 44.4277C34.3052 44.2049 34.499 43.9551 34.7471 43.801C35.0172 43.6341 34.8962 43.2071 35.356 43.1255C35.6592 43.0716 35.8808 42.6185 36.1633 42.3733C36.4329 42.1401 36.7709 41.9785 37.0124 41.723C37.2671 41.4533 37.4473 41.1373 37.7948 40.9323C38.1084 40.7479 38.4025 40.4572 38.5864 40.144C38.8862 39.6337 39.37 39.319 39.8054 39.0037C40.1607 38.7465 40.4788 38.4607 40.8044 38.1762C41.0828 37.9326 41.2973 37.6216 41.552 37.3594C41.8254 37.0785 42.1112 36.9361 42.4181 36.7422C42.8009 36.4995 43.0423 36.0401 43.3642 35.6922C43.5758 35.4636 43.802 35.1248 44.0563 35.0895C44.4067 35.0411 44.5467 34.7959 44.7903 34.6592C45.1096 34.4811 45.0458 33.972 45.4791 33.9252C45.559 33.3793 46.1567 33.5545 46.4206 33.2468C46.8004 32.8044 47.2146 32.3919 47.6201 31.9598C47.6652 32.0108 47.7141 32.0659 47.792 32.1545C48.1283 31.7478 48.4543 31.3518 48.784 30.9587C48.8445 30.8862 48.9327 30.7632 48.9899 30.7727C49.4045 30.8415 49.5677 30.5039 49.8133 30.2981C50.1165 30.0446 50.3762 29.7637 50.7386 29.5517C51.3276 29.2075 51.8586 28.7233 52.3184 28.2121C52.6692 27.8228 53.0155 27.5018 53.4922 27.2653C53.8497 27.088 54.1226 26.7293 53.9789 26.2439Z" fill="black"/>
<path fill-rule="evenodd" clip-rule="evenodd" d="M53.979 26.2439C54.1227 26.7293 53.8497 27.088 53.4923 27.2653C53.0155 27.5018 52.6693 27.8228 52.3184 28.2122C51.8587 28.7233 51.3277 29.2075 50.7387 29.5517C50.3762 29.7638 50.1165 30.0446 49.8133 30.2981C49.5677 30.504 49.4045 30.8415 48.9899 30.7728C48.9327 30.7632 48.8445 30.8863 48.784 30.9587C48.4543 31.3518 48.1284 31.7478 47.792 32.1545C47.7142 32.0659 47.6653 32.0108 47.6201 31.9599C47.2146 32.3919 46.8004 32.8044 46.4206 33.2468C46.1568 33.5545 45.5591 33.3793 45.4791 33.9253C45.0459 33.9721 45.1097 34.4811 44.7903 34.6592C44.5468 34.7959 44.4068 35.0411 44.0564 35.0896C43.802 35.1248 43.5759 35.4636 43.3642 35.6922C43.0424 36.0402 42.8009 36.4995 42.4182 36.7422C42.1113 36.9361 41.8255 37.0786 41.5521 37.3594C41.2974 37.6216 41.0828 37.9327 40.8045 38.1762C40.4789 38.4608 40.1608 38.7466 39.8054 39.0038C39.3701 39.319 38.8863 39.6338 38.5864 40.1441C38.4025 40.4572 38.1084 40.748 37.7949 40.9323C37.4474 41.1373 37.2672 41.4534 37.0124 41.723C36.771 41.9786 36.433 42.1401 36.1633 42.3733C35.8809 42.6185 35.6593 43.0716 35.3561 43.1255C34.8963 43.2071 35.0172 43.6341 34.7472 43.8011C34.4991 43.9551 34.3052 44.2049 34.1052 44.4277C33.7862 44.7827 33.4159 45.0561 32.9678 45.2218C32.9943 45.0072 32.9466 44.7289 33.0639 44.5914C33.266 44.3544 33.5998 44.2343 33.8239 44.0102C34.048 43.7866 34.1752 43.4664 34.3993 43.2423C34.6233 43.0182 34.9725 42.9076 35.1639 42.6661C35.634 42.0734 36.2366 41.6257 36.7598 41.0934C37.3136 40.5297 37.8636 39.9614 38.4377 39.4188C39.4347 38.4769 40.3961 37.4857 41.4738 36.6453C42.1796 36.0957 42.7425 35.4023 43.4471 34.8787C44.7634 33.9004 45.8834 32.6955 47.2184 31.7379C47.9623 31.2044 48.6001 30.5243 49.2914 29.9166C50.3236 29.0087 51.3803 28.1331 52.5156 27.3506C52.8813 27.0988 53.1477 26.7074 53.4877 26.4116C53.6087 26.3064 53.8133 26.2969 53.979 26.2439Z" fill="black"/>
</svg>
