<svg width="99" height="65" viewBox="0 0 99 65" fill="none" xmlns="http://www.w3.org/2000/svg">
<path fill-rule="evenodd" clip-rule="evenodd" d="M34.5053 26.8916C34.6457 27.0635 34.7078 27.1397 34.8027 27.2549C34.1876 27.3911 33.5854 27.5245 32.9757 27.6599C33.0668 27.7647 33.1347 27.843 33.2213 27.942C32.6099 28.0708 32.0218 28.1947 31.4046 28.3243C31.4829 28.4196 31.5458 28.4958 31.6158 28.5807C31.2642 28.695 30.9163 28.8396 30.5538 28.9154C30.3012 28.968 30.0282 28.9162 29.7656 28.9278C29.486 28.9402 29.6608 29.3242 29.3087 29.4273C28.9732 29.5251 28.6228 29.574 28.1983 29.6162C28.3176 29.7678 28.3751 29.842 28.4733 29.9675C27.8561 30.1041 27.2564 30.2371 26.6492 30.3717C26.737 30.4695 26.8086 30.5482 26.879 30.6264C26.1314 30.8203 25.3854 31.0141 24.5906 31.2208C24.7061 31.3588 24.7703 31.4358 24.8358 31.5137C24.0915 31.7175 23.3418 31.9225 22.5581 32.1375C22.6861 32.2978 22.7457 32.3727 22.7929 32.4315C22.0304 32.6366 21.2865 32.8366 20.5119 33.0446C20.6366 33.1817 20.7079 33.2604 20.7766 33.3362C20.0281 33.5317 19.2826 33.7272 18.4898 33.9347C18.6062 34.0718 18.6721 34.1488 18.7487 34.2391C18.0097 34.4284 17.2708 34.6173 16.5021 34.8144C16.5803 34.9731 16.6313 35.0762 16.7162 35.2489C16.0821 35.2638 15.4421 35.1524 14.9314 35.594C14.9927 35.6615 15.0639 35.7406 15.1489 35.8346C14.5507 35.9319 13.9593 36.0293 13.3231 36.1333C13.4183 36.3283 13.4684 36.4319 13.5608 36.6216C12.6384 36.5085 11.8299 36.7355 11.0806 37.1729C11.1502 37.252 11.2193 37.3303 11.3183 37.4417C11.1845 37.4686 11.0681 37.532 10.9828 37.5034C10.4999 37.3398 10.1325 37.4264 9.71371 37.8162C9.66815 37.8584 9.56667 37.8654 9.49915 37.8518C9.39892 37.8307 9.2701 37.7155 9.21501 37.747C8.96359 37.8932 8.71217 38.1036 8.4272 37.9011C8.13146 37.6911 7.99892 37.3154 7.69406 37.0909C7.62531 37.0404 7.68371 36.8163 7.68371 36.714C7.33785 36.5822 7.04542 36.4708 6.60596 36.3035C7.29809 36.0305 7.82495 35.823 8.41022 35.5927C8.02625 35.3927 7.80673 35.5223 7.53625 35.6822C7.34986 35.792 7.04708 35.7029 6.81264 35.7029C6.69501 35.0634 7.20116 35.0207 7.47454 34.9213C9.314 34.2532 11.0412 33.344 12.795 32.4966C14.6796 31.5857 16.488 30.5109 18.3979 29.6614C19.6728 29.0939 20.9005 28.4295 22.1836 27.8956C23.6309 27.2938 25.0147 26.5499 26.4806 26.0015C27.4274 25.6469 28.3047 25.1482 29.2615 24.802C30.1694 24.4735 31.0794 24.0899 31.9567 23.6844C32.9065 23.245 33.8683 22.8382 34.8383 22.4572C36.6513 21.7447 38.4522 21.0021 40.2743 20.3091C41.4722 19.8539 42.6593 19.3436 43.8505 18.8586C45.5906 18.1503 47.3638 17.5311 49.0964 16.7979C50.6007 16.1613 52.1892 15.7256 53.7143 15.132C54.9809 14.6395 56.2666 14.2054 57.5423 13.7411C59.8329 12.9065 62.123 12.0702 64.4235 11.263C65.9009 10.7448 67.4016 10.2788 68.86 9.71012C71.0399 8.86059 73.2894 8.22231 75.4847 7.43201C76.7969 6.95899 78.107 6.49136 79.4374 6.07053C81.0648 5.55651 82.6483 4.89876 84.2852 4.42035C86.7323 3.70462 89.1289 2.84349 91.5462 2.04201C93.365 1.43935 95.2135 0.925325 96.9557 0.105207C97.1955 -0.00745562 97.5049 0.0294083 97.7571 0C98.033 0.701657 97.1073 0.518994 97.1491 1.09888C97.3434 1.02846 97.502 0.945207 97.6702 0.917041C97.8474 0.887219 98.0334 0.910414 98.3345 0.910414C98.2368 1.16556 98.1701 1.34036 98.103 1.51639C98.2666 1.62491 98.5657 1.60047 98.5267 1.98651C98.5077 2.17953 98.0773 2.38166 98.4948 2.59249C98.4762 2.61941 98.4634 2.65544 98.4381 2.67118C98.2579 2.78053 98.0831 2.90314 97.8922 2.98888C96.9084 3.43124 95.9492 3.95355 94.9273 4.27704C93.5286 4.72024 92.1915 5.31586 90.8073 5.7868C88.7284 6.49385 86.647 7.19302 84.5748 7.91828C83.2609 8.37805 81.9612 8.87799 80.6477 9.3626C80.7339 9.45787 80.8051 9.5374 80.8764 9.61692C80.8482 9.64468 80.8238 9.69065 80.7944 9.69396C80.7422 9.70018 79.2614 9.91846 79.1649 9.94704C78.6041 10.1123 78.0424 10.2767 77.4518 10.4499C77.5773 10.5973 77.6431 10.6748 77.8092 10.8695C77.5586 10.8243 77.4319 10.8115 77.3118 10.7767C77.1796 10.7386 77.0272 10.6073 76.9295 10.6429C76.2833 10.8761 75.6496 11.1433 75.008 11.4017C75.0933 11.5028 75.1583 11.5794 75.3257 11.7778C75.0713 11.7289 74.945 11.7136 74.8245 11.6788C74.6928 11.6411 74.5407 11.5123 74.4426 11.5479C73.7973 11.7811 73.1644 12.0475 72.5232 12.3047C72.6089 12.4074 72.6735 12.4844 72.8421 12.6857C72.5836 12.6331 72.4581 12.6162 72.3376 12.5809C72.2063 12.5428 72.0539 12.4178 71.9553 12.4534C71.3112 12.6857 70.6792 12.9517 70.0384 13.2085C70.125 13.3128 70.1883 13.3891 70.359 13.5941C70.096 13.5382 69.9431 13.5481 69.8565 13.4773C69.6963 13.3464 69.5952 13.329 69.3794 13.4139C68.1815 13.8857 66.9675 14.3156 65.7361 14.7679C65.826 14.8711 65.8943 14.9489 65.9664 15.0314C65.6764 15.4547 65.3041 14.5654 64.9379 15.1096C64.7913 15.3275 64.2922 15.3076 63.9074 15.4083C64.0167 15.5417 64.0793 15.6175 64.1393 15.6908C64.1 15.7318 64.0619 15.7848 64.0109 15.8175C63.9906 15.8308 62.9949 15.8084 62.9584 15.8217C62.0758 16.1443 61.1935 16.4666 60.2943 16.7954C60.4003 16.9135 60.4716 16.993 60.5449 17.0742C59.6747 17.0825 59.2845 17.1653 58.524 17.5046C58.5969 17.5853 58.6677 17.6644 58.7386 17.7423C58.6835 17.7783 58.6176 17.8579 58.5683 17.8488C57.3895 17.6284 56.4455 18.3715 55.386 18.6345C54.8277 18.7733 54.3116 19.0822 53.7752 19.3146C53.8564 19.4103 53.9214 19.4873 53.9902 19.5685C53.909 19.605 53.8365 19.67 53.7831 19.6567C52.9062 19.4418 52.1113 19.8402 51.3985 20.1737C50.4794 20.604 49.4509 20.756 48.6076 21.3653C48.6548 21.4208 48.7215 21.4983 48.8532 21.652H47.2826C47.2466 21.828 47.2254 21.9311 47.1989 22.062C46.9226 22.4021 46.2284 21.7874 46.0396 22.5996C45.8258 22.5996 45.574 22.5831 45.3255 22.6063C45.2008 22.6183 44.9821 22.6974 44.9792 22.7554C44.9668 23.0085 44.8492 23.0341 44.6292 23.0631C44.3248 23.1025 43.8435 22.8009 43.7764 23.4318C43.7726 23.4657 43.5834 23.4856 43.479 23.5018C43.1613 23.5515 42.7036 23.3025 42.646 23.8982C42.3184 23.9267 41.9907 23.9549 41.6731 23.9822C41.584 24.1247 41.519 24.36 41.403 24.3882C41.1213 24.4573 40.8157 24.4317 40.5199 24.4437C40.4503 25.0641 39.9264 24.7891 39.6252 24.8682C39.5876 24.9353 39.5536 24.9689 39.5606 24.9871C39.5731 25.019 39.6137 25.0393 39.636 25.0695C39.6733 25.1196 39.7048 25.1735 39.7926 25.3081H38.3462C38.4858 25.4804 38.5471 25.5554 38.6109 25.6345C38.434 26.0317 37.9034 25.4812 37.7232 25.9729C37.5435 26.4629 37.0887 26.1146 36.7747 26.2144C36.4413 26.3208 36.1087 26.4302 35.7268 26.554C35.7458 26.5184 35.7139 26.5524 35.7214 26.5702C35.7342 26.6021 35.7744 26.6224 35.7964 26.6522C35.8328 26.7019 35.8639 26.7562 35.95 26.8916H34.5053Z" fill="black"/>
<path fill-rule="evenodd" clip-rule="evenodd" d="M82.3429 58.1651C86.4087 58.8037 85.7443 58.3258 85.6358 58.6406C85.9261 58.747 86.2194 58.8543 86.6543 59.0137C86.3155 59.2498 86.1018 59.399 85.8856 59.5493C85.934 59.6048 86.0019 59.6827 86.0703 59.761C86.0202 59.7974 85.963 59.8757 85.9121 59.872C84.6525 59.7788 83.4347 60.2095 82.1648 60.1226C80.8911 60.0356 79.5926 59.9867 78.3313 60.14C77.3041 60.2642 76.286 60.3027 75.2596 60.34C74.9432 60.3512 74.6847 60.0845 74.2999 60.2978C74.0121 60.4577 73.5647 60.3297 73.1878 60.3297H71.946C71.5695 60.3297 71.1934 60.3284 70.8169 60.3301C70.4421 60.3309 70.0668 60.3338 69.6919 60.3425C69.6646 60.3429 69.6385 60.3922 69.5432 60.4875C69.8966 60.533 70.1948 60.5711 70.4934 60.6088C70.4918 60.6569 70.4901 60.7045 70.4889 60.7522C70.0962 60.7621 69.7035 60.7758 69.3113 60.7799C68.8971 60.7849 68.4833 60.7828 68.0691 60.7795C67.9987 60.7791 67.8939 60.7828 67.8632 60.7418C67.4466 60.1822 66.9769 60.2514 66.4218 60.538C66.2135 60.6453 65.9037 60.5554 65.6402 60.5554C62.1021 60.5554 58.564 60.5496 55.0263 60.5637C54.6411 60.5653 54.1963 60.3756 53.8748 60.7791C53.8599 60.7969 53.7833 60.7973 53.7676 60.7791C53.4499 60.4055 53.0879 60.963 52.8352 60.7654C52.5088 60.5107 52.2893 60.555 51.9819 60.7637C51.8883 60.828 51.6431 60.7132 51.4903 60.6353C51.2766 60.526 51.2902 60.3748 51.4882 60.2423C51.4493 60.1959 51.4178 60.1238 51.3698 60.1097C51.3043 60.0911 51.1863 60.0911 51.1618 60.1292C51.0877 60.2443 51.0782 60.4117 50.9874 60.5024C50.8669 60.6233 50.6942 60.7629 50.5426 60.765C50.2816 60.7683 49.9602 60.5513 49.7713 60.644C49.4677 60.7936 49.2772 60.7749 48.9765 60.6523C48.7715 60.5691 48.4679 60.77 48.2069 60.7741C47.1561 60.7915 46.1048 60.7811 45.0784 60.7811C44.9749 60.613 44.8875 60.4709 44.8001 60.3297C44.6593 60.4494 44.5189 60.5695 44.2558 60.7936C43.8164 60.9046 43.0542 60.4858 42.5953 61.2488C42.4603 61.1001 42.3352 60.9622 42.2238 60.8395C41.3308 61.0893 40.4667 61.1253 39.604 60.83C38.7118 61.2417 37.7873 60.883 36.8855 61.0243C36.905 60.8164 36.9522 60.5807 36.9241 60.5716C36.5728 60.4535 36.6292 60.7741 36.5306 60.9891H35.3344C35.2739 61.1535 35.2258 61.284 35.1753 61.4223C35.1227 61.3962 35.0498 61.3838 35.0225 61.3416C34.8079 61.0143 34.4413 60.8801 34.1518 61.0264C33.4738 61.3697 32.7763 61.1879 32.0899 61.2264C31.4989 61.2595 30.9045 61.233 30.3002 61.3966C30.6622 61.4331 31.0242 61.47 31.3862 61.506C30.5586 61.5785 29.6789 62.0453 29.0596 61.2956C28.6255 61.3581 28.2784 61.4459 27.9297 61.4522C26.8466 61.4708 25.7626 61.4588 24.7018 61.4588C24.6351 61.651 24.5892 61.7819 24.5216 61.9778C24.339 61.7027 24.1903 61.4787 24.0416 61.2546C23.965 61.5644 23.7868 61.8858 23.4638 61.6638C23.1221 61.429 22.9266 61.5901 22.6138 61.6526C22.0422 61.7665 21.4313 61.6849 20.8195 61.8311C21.0999 61.8751 21.3803 61.919 21.6753 61.9658C21.6284 62.0391 21.5978 62.1302 21.5663 62.1306C20.7383 62.1385 19.9079 62.1753 19.0824 62.1244C18.4735 62.0867 17.8857 61.8142 17.2561 61.9119C17.1538 61.9281 17.0536 61.9575 16.9509 62.0851C17.2528 62.1169 17.5548 62.1484 17.8571 62.1799C16.9128 62.2772 15.9879 62.5349 15.036 62.182C14.6148 62.0258 14.0879 62.1559 13.5797 62.276C13.7872 62.3269 13.9951 62.3779 14.2097 62.4305C14.1728 62.4897 14.1434 62.5817 14.1119 62.5821C13.7367 62.59 13.3614 62.5837 12.9861 62.5813C12.7844 62.1049 12.4829 62.8124 12.1764 62.4993C11.9767 62.2959 11.5613 62.7743 11.1579 62.4032C10.9379 62.2019 10.3816 62.3675 9.96123 62.5137C10.2516 62.5589 10.5419 62.6049 10.8505 62.6529C10.7847 62.725 10.7449 62.8082 10.7031 62.8091C10.1389 62.8174 9.57312 62.79 9.00981 62.8198C7.91093 62.8774 6.7959 62.8729 5.72271 63.0775C5.14407 63.1877 4.57661 63.2104 4.00419 63.28C3.51295 63.3393 3.03413 63.5124 2.84235 64.1623C2.64644 64.1623 2.21111 64.2397 2.17259 64.149C2.00484 63.7522 1.49496 63.7108 1.38064 63.3695C1.27295 63.0468 1.09567 62.9474 0.828508 62.7975C0.289632 62.4947 0.173656 61.9156 0.4462 61.3511C0.297916 61.1937 0.147561 61.0351 0.00093392 60.8793C0.00756114 60.7977 -0.0156341 60.6995 0.0233008 60.6561C0.445372 60.1772 0.939928 59.932 1.61425 59.8484C2.71892 59.7113 3.79874 59.3729 4.93076 59.4259C5.5794 59.0299 6.29803 59.2697 6.9823 59.196C7.51744 59.1388 8.04721 59.0204 8.58318 58.9823C9.10715 58.9446 9.69117 59.1161 10.1505 58.94C10.8116 58.6874 11.4594 58.7193 12.1006 58.7681C12.9248 58.8311 13.6845 58.4985 14.4926 58.518C15.3202 58.537 16.1829 58.6716 16.9695 58.4902C18.4876 58.1398 20.0151 58.4885 21.5096 58.2732C23.3623 58.006 25.2328 58.2657 27.0599 58.0313C29.5206 57.7148 31.9719 57.9551 34.424 57.8457C34.7242 57.8324 35.0258 57.8474 35.3269 57.8432C35.5804 57.8399 35.8587 57.9103 36.0282 57.6282C36.1624 57.9849 36.4535 57.5926 36.6884 57.7645C36.8321 57.8697 37.19 57.6519 37.4567 57.6249C37.755 57.5955 38.0582 57.6183 38.3593 57.6183H39.1496H40.0529H40.9563H41.7466C42.0477 57.6183 42.3509 57.5964 42.6496 57.6237C43.0025 57.6564 43.3516 57.5375 43.7174 57.7877C43.8934 57.9082 44.3027 57.6361 44.6083 57.6274C45.5486 57.6022 46.4905 57.6345 47.4307 57.6096C47.7807 57.6009 48.1742 57.7736 48.4728 57.3971C48.6683 57.1498 48.8145 57.8287 49.1107 57.4588C49.2039 57.342 49.6732 57.3226 49.7233 57.4066C50.0079 57.8809 50.3297 57.161 50.5463 57.453C50.8537 57.8664 51.0446 57.3801 51.2923 57.3959C51.4323 57.4046 51.5706 57.4481 51.7098 57.475C51.9534 57.523 52.3402 57.6891 52.416 57.5976C52.725 57.224 53.0862 57.5901 53.425 57.4468C53.7758 57.2977 54.2335 57.3934 54.6444 57.3934C62.0209 57.3922 69.3983 57.4033 76.7752 57.3793C77.7589 57.376 78.7745 57.6229 79.7301 57.1664C80.2325 57.598 80.7287 57.1188 81.2378 57.1411C82.8147 57.2103 84.3961 57.1664 86.0844 57.1664C86.0276 57.3424 85.9932 57.5955 85.9361 57.6009C85.1392 57.6738 84.3671 57.8925 83.5466 57.8623C81.8926 57.8018 80.235 57.8432 78.579 57.8486C78.5194 57.849 78.4597 57.919 78.3997 57.9567C78.4751 57.9944 78.5463 58.0474 78.6258 58.0673C78.8251 58.1166 79.0077 58.3668 79.2422 58.0814C79.3027 58.0072 79.5296 58.0702 79.68 58.0702C81.8599 58.0702 84.0395 58.0702 82.3429 58.1651C78.4096 58.2206 78.4138 58.1804 78.4179 58.1406C78.0683 58.0466 77.7233 57.9232 77.3671 57.8697C77.1782 57.8416 75.9832 57.883 75.8118 57.859C75.6656 57.8382 75.4398 57.7836 75.3781 57.8552C75.0712 58.2098 74.6806 58.0632 74.3293 58.064C68.9824 58.0727 63.6355 58.0735 58.289 58.0607C57.975 58.0603 57.6171 58.2268 57.3322 57.9145C57.2779 57.8548 57.0812 57.8258 57.0418 57.8677C56.6993 58.2384 56.2656 58.0238 55.8771 58.0648C55.0814 58.1485 54.2675 57.9285 53.4772 58.2748C53.254 58.3726 52.9135 58.2317 52.6343 58.1692C52.0967 58.0487 51.5632 57.9621 51.0392 58.209C50.8561 58.2951 50.63 57.972 50.4792 58.2777C50.1901 57.914 49.7051 57.9729 49.4541 58.1046C49.0353 58.3249 48.7325 57.9074 48.3796 58.069C48.3167 58.0975 48.2218 58.0884 48.1829 58.1332C47.9973 58.3456 47.864 58.2972 47.6212 58.1655C47.386 58.0379 47.0173 58.0019 46.7684 58.093C46.4457 58.2114 46.0551 58.3026 45.807 58.252C45.4214 58.1737 45.095 58.2798 44.7429 58.293C41.9881 58.3941 39.2324 58.1559 36.4738 58.4948C34.4148 58.7474 32.3273 58.4045 30.2393 58.7085C28.3402 58.9843 26.3934 58.6368 24.4595 58.9408C22.9348 59.1807 21.36 58.8406 19.808 59.1736C19.0882 59.3281 18.3037 59.1525 17.5556 59.2134C16.8693 59.2697 16.1991 59.1115 15.478 59.3608C14.8057 59.5932 13.9931 59.4172 13.2425 59.4288C13.1266 59.4308 13.011 59.4735 12.8954 59.4975C13.0487 59.6516 13.1887 59.6558 13.3283 59.6508C14.6541 59.6048 15.9729 59.6669 17.3067 59.4611C18.9084 59.2142 20.5482 59.5286 22.1847 59.2358C23.7032 58.964 25.2987 59.4408 26.8275 58.9694C27.0425 58.9032 27.2255 59.4031 27.438 58.9881C27.6828 59.36 27.9119 58.9649 28.1484 58.9599C30.0011 58.9214 31.8638 59.1455 33.7053 58.7565C33.9522 58.7043 34.3216 58.6617 34.4629 58.7955C34.7831 59.0987 34.9396 58.6252 35.2176 58.73C35.4483 58.817 35.7378 58.7478 36.0012 58.7478C37.5077 58.7478 39.0141 58.7603 40.5197 58.7395C40.907 58.7342 41.3386 58.9106 41.6861 58.5457C41.7251 58.5051 41.9284 58.6372 42.0602 58.6662C42.235 58.7048 42.5195 58.8017 42.5725 58.7321C42.7825 58.4575 42.9068 58.6973 43.0861 58.7255C43.2647 58.7532 43.4722 58.5362 43.6669 58.5362C43.9812 58.5362 44.3486 58.3792 44.5996 58.7246C44.8179 58.4662 45.1182 58.5217 45.4003 58.5242C45.6865 58.5266 46.005 58.431 46.2088 58.7441C46.4118 58.4235 46.7353 58.5258 47.0202 58.525C48.9032 58.5192 50.7866 58.5656 52.6679 58.5097C54.5193 58.4542 56.3874 58.7669 58.2231 58.2959C58.4493 58.513 58.7429 58.3962 58.9964 58.4165C59.3237 58.4434 59.6612 58.3067 59.9947 58.3055C60.3807 58.3042 60.8028 58.1721 61.1358 58.5022C61.5044 58.0984 61.9849 58.3088 62.4057 58.3071C67.3757 58.2901 72.3461 58.2968 77.3166 58.2943C77.6794 58.2943 78.0426 58.2723 82.3429 58.1651Z" fill="black"/>
<path fill-rule="evenodd" clip-rule="evenodd" d="M32.2451 42.6572C32.0492 43.0018 31.9663 43.1484 31.8586 43.3381H32.9385C32.9471 43.3058 32.9558 43.2735 32.9641 43.2416C32.8593 43.2143 32.7554 43.182 32.6498 43.1604C32.547 43.1393 32.4431 43.1298 32.3134 43.1115C32.3304 42.9761 32.3109 42.8096 32.3611 42.7856C32.61 42.6634 32.8697 42.5358 33.1389 42.4898C33.7428 42.3867 34.3563 42.3403 34.9627 42.2512C35.2642 42.2065 35.5591 42.1175 35.8441 42.0516C36.1796 42.5491 35.5318 42.3834 35.4999 42.6509C36.2823 42.933 36.9554 42.2786 37.715 42.3991C37.2109 42.2715 36.7085 42.0934 36.1319 42.3933C36.2007 42.272 36.24 42.0963 36.3436 42.0408C36.5553 41.9269 36.798 41.8631 37.0349 41.8068C37.4222 41.7153 37.8496 41.9659 38.2174 41.6606C38.5049 41.4224 38.9154 41.7062 39.2459 41.3802C39.412 41.2162 39.8726 41.3516 40.24 41.3516C39.938 41.9808 39.4389 41.7318 39.0351 41.8105C38.671 41.8814 38.3181 42.0127 37.983 42.2483C38.8019 42.1754 39.6431 42.1933 40.4342 42.0031C41.1856 41.8221 41.915 41.545 42.7037 41.3967C42.1747 41.3678 41.645 41.3388 41.116 41.3098V41.1731C42.2302 40.997 43.3453 40.821 44.4595 40.6454C44.4723 40.7042 44.4843 40.7634 44.4967 40.8222C43.9757 40.9581 43.4546 41.0944 42.9344 41.2302C43.4194 41.2895 43.9106 41.5566 44.3679 41.1553C45.3844 41.1975 46.3644 40.6686 47.4222 40.9693V41.7194C47.2367 41.8031 47.0333 41.5285 46.8345 41.7919C46.7401 41.9166 46.3938 41.6544 46.3072 42.0122C46.284 42.1092 46.0811 42.262 46.0479 42.2421C45.4974 41.9166 44.9594 42.3208 44.4218 42.2496C44.254 42.2272 44.0954 42.1373 43.8982 42.0661C43.8676 42.2289 43.8286 42.4331 43.7893 42.6381C43.4716 42.3726 43.0669 42.95 42.7757 42.5022C42.7186 42.6621 42.6722 42.7926 42.6088 42.9699C42.2029 42.8262 41.8222 42.5375 41.3592 42.7976C41.4229 42.8763 41.4843 42.9521 41.6371 43.1414C40.9358 43.0478 40.329 42.9674 39.7019 42.8841C39.4277 43.1583 39.1722 43.4131 38.9725 43.6127C38.6171 43.6086 38.4689 43.1923 38.1056 43.5344C37.8219 43.802 37.3663 43.9242 36.9653 44.017C36.7081 44.0766 36.4032 43.995 36.1353 43.9213C35.9451 43.8687 35.7915 44.075 35.5446 43.8646C35.2861 43.6446 35.3151 44.1056 35.1818 44.2274C35.0571 44.3405 34.8724 44.4714 34.7237 44.4606C34.1272 44.4159 33.5656 44.7307 32.9691 44.6056C32.9385 44.5989 32.9153 44.555 32.8892 44.5285C32.2505 45.185 31.3069 44.8976 30.6061 45.2513C30.0208 45.5466 29.3448 45.1639 28.847 45.644C27.2274 45.9915 25.5706 46.1795 24.0083 46.7735C23.0473 46.6596 22.2231 47.2196 21.2919 47.3265C20.4316 47.4259 19.5341 47.6371 18.7343 47.9436C17.2866 48.4978 15.7023 48.5492 14.3131 49.2587C13.8086 49.1489 13.4992 49.4401 13.1525 49.7466C12.9607 49.916 12.6231 49.9198 12.397 49.9848C11.909 49.6017 11.6261 49.0897 11.0811 48.9124C11.1771 48.5392 11.2737 48.1623 11.3884 47.7146C12.638 47.3074 13.9274 46.7636 15.325 46.5316C15.9719 46.4239 16.5763 46.0689 17.2224 45.9542C18.0264 45.8113 18.8067 45.5483 19.6049 45.4443C20.4582 45.3325 21.2621 45.0541 22.0893 44.8686C22.5996 44.7538 23.1343 44.6288 23.6363 44.5546C24.4867 44.4295 25.277 44.0862 26.1348 44.0066C26.6509 43.959 27.1483 43.7357 27.6603 43.6152C28.0095 43.5324 28.3972 43.7519 28.7306 43.4682C29.0139 43.2267 29.4935 43.5804 29.73 43.1588C30.3613 43.2702 30.9482 43.0171 31.5546 42.9272C31.7124 42.904 31.8595 42.8112 32.2451 42.6572Z" fill="black"/>
</svg>
