<svg width="102" height="137" viewBox="0 0 102 137" fill="none" xmlns="http://www.w3.org/2000/svg">
<path fill-rule="evenodd" clip-rule="evenodd" d="M73.7066 57.8979C73.6428 57.895 73.5786 57.8917 73.5148 57.8888C73.2589 58.906 73.0774 59.9502 72.7254 60.9327C72.3741 61.9119 72.0635 62.8861 71.8526 63.9692C72.3625 63.7323 72.6798 63.4759 72.7858 63.0029C72.9465 62.2839 73.316 61.6141 73.2883 60.8503C73.7236 60.4411 73.3231 59.8819 73.567 59.389C73.7737 58.9711 73.6718 58.4007 73.7066 57.8979ZM95.7127 111.775C95.5396 111.33 95.3983 111.122 95.3855 110.906C95.3461 110.256 95.3246 109.619 95.1833 108.967C95.0417 108.313 94.8756 107.66 94.7538 107.008C94.5712 106.031 94.1031 105.093 94.2377 104.059C94.2406 104.04 94.1429 104.008 94.0646 103.967C93.867 105.048 94.227 106.059 94.3392 107.09C94.4133 107.775 94.5086 108.453 94.6822 109.123C94.7273 109.298 94.5935 109.519 94.5264 109.779C94.5952 109.844 94.7538 109.956 94.852 110.108C94.8872 110.163 94.7091 110.353 94.7443 110.41C94.8396 110.566 95.0562 110.663 95.1104 110.822C95.1539 110.95 95.0301 111.136 94.9605 111.362C95.1005 111.439 95.2977 111.547 95.7127 111.775ZM32.6228 122.251C32.8104 122.896 32.9045 123.523 33.1749 124.063C33.4533 124.619 33.6554 125.244 34.169 125.585C34.0518 125.851 33.9719 126.03 33.8078 126.4C34.3799 125.976 34.7394 126.013 35.0513 126.418C35.1855 126.593 35.4576 126.728 35.4837 126.908C35.5628 127.449 35.888 127.155 36.2168 127.191C35.4381 126.403 35.0786 125.448 34.6251 124.565C34.1732 123.685 33.4906 123.015 32.9057 122.256C32.8784 122.22 32.7641 122.251 32.6228 122.251ZM70.0219 81.3309C70.1586 80.8065 69.9187 80.22 70.2965 79.7528C70.2136 78.8022 70.8548 77.9709 70.748 77.0162C71.1191 76.6637 70.8378 76.1546 71.0259 75.7827C71.4169 75.0085 71.3084 74.1205 71.6402 73.3368C71.6737 73.2581 71.5407 73.109 71.4857 72.9922C71.3904 73.0692 71.2624 73.1272 71.2052 73.2258C70.7674 73.9855 70.5786 74.8404 70.2795 75.6539C70.0132 76.3771 69.7294 77.1147 69.6507 77.8566C69.529 78.9965 69.6189 80.1587 69.6189 81.3309H70.0219ZM98.9894 48.7291C98.9894 48.206 98.8925 47.6576 99.0164 47.1655C99.1414 46.6701 98.4729 46.2311 98.9874 45.7663C98.5351 45.3695 98.849 44.8481 98.7654 44.3912C98.6817 43.9352 98.5976 43.4779 98.5409 43.0173C98.4522 42.2974 98.5197 41.5241 98.2696 40.8697C98.0683 40.3453 98.2472 39.8234 98.0604 39.3777C97.8342 38.8363 97.867 38.3087 97.8632 37.7673C97.8612 37.4372 97.7439 37.1456 97.6644 36.837C97.565 36.4526 97.3662 36.1424 97.208 35.8011C97.8056 35.5294 96.7598 34.9764 97.3943 34.7113C97.3235 34.556 97.2717 34.3878 97.1765 34.2495C97.0825 34.1128 96.86 34.0175 97.1293 33.8469C97.0394 33.7127 96.9499 33.5789 96.8667 33.4542C96.5713 33.6435 96.3021 33.8158 95.9968 34.0113C96.2652 34.2234 96.4686 34.4789 96.7291 34.5672C97.1197 34.6989 96.8277 34.7859 96.7548 34.8989C97.1338 35.1342 96.7929 35.4258 96.8286 35.6814C96.8629 35.9282 96.7826 36.1681 96.8381 36.4008C96.9296 36.7873 96.819 37.2988 97.4196 37.4152C97.2597 37.4906 97.1115 37.561 96.952 37.6364C97.3761 37.9504 97.1429 38.2672 96.9839 38.6031C97.2034 38.6363 97.4105 38.6678 97.681 38.7084C97.6106 38.9556 97.5439 39.152 97.5008 39.3537C97.4747 39.4775 97.4337 39.637 97.4859 39.7335C97.838 40.3884 98.0832 41.1662 98.0852 41.744C98.0865 42.0829 97.9751 42.4747 98.1072 42.7493C98.4348 43.4298 98.3499 44.0826 98.1929 44.7615C98.1759 44.8348 98.1826 44.9657 98.2256 44.993C98.5757 45.2105 98.5404 45.5497 98.5384 45.8852C98.5346 46.5247 98.528 47.1647 98.5433 47.8038C98.5479 47.986 98.7219 48.235 98.651 48.336C98.3996 48.6947 98.8693 48.6289 98.9894 48.7291ZM40.1762 51.5428C40.1248 51.5486 40.0735 51.5548 40.0221 51.5606C40.0221 51.8505 40.0511 52.1446 40.0138 52.43C39.9757 52.7216 39.873 53.0049 39.7595 53.444C39.9741 53.258 40.0515 53.1909 40.206 53.0571C40.317 53.6863 40.3891 54.2773 40.5291 54.8518C40.7552 55.7759 40.9971 56.695 41.1558 57.6353C41.2386 58.1273 41.4644 58.5962 41.3931 59.1136C41.8757 59.4739 41.4677 60.0646 41.7891 60.5384C42.0604 60.9373 41.9539 61.581 42.0629 62.1062C42.1801 62.6728 42.3607 63.227 42.2816 63.8176C42.6572 64.1403 42.3329 64.6713 42.5363 64.9418C42.8635 65.3779 42.6394 65.8066 42.7359 66.2221C42.7749 66.3907 42.8474 66.5514 42.8967 66.7183C42.9957 67.0534 43.1609 67.3881 43.1704 67.7265C43.1928 68.4878 43.5296 69.1687 43.658 69.9018C43.7101 70.2005 43.9951 70.4585 44.2565 70.8632C44.2896 70.5853 44.3447 70.4623 44.3078 70.379C43.9516 69.5663 43.798 68.6754 43.6836 67.8329C43.4952 66.4503 42.8863 65.1452 42.9592 63.7244C42.5226 63.2655 42.8175 62.6297 42.5433 62.09C42.2977 61.6066 42.4742 60.9153 42.2472 60.4142C42.0359 59.9482 42.1499 59.4863 42.0045 59.0481C41.4267 57.3097 41.1549 55.4963 40.7014 53.7273C40.5158 53.002 40.351 52.271 40.1762 51.5428ZM69.2411 41.4959C68.6724 41.5349 68.6641 41.8815 68.7138 42.2663C68.7664 42.6731 68.7449 43.5259 68.5945 43.8341C68.5009 44.0263 68.4578 44.136 68.6057 44.3092C69.0207 44.7979 68.3974 44.6762 68.264 44.8679C68.4181 44.9404 68.5688 45.0108 68.7598 45.1003C68.5444 45.6234 68.2814 46.1118 68.1969 46.6929C68.1406 47.0847 68.4301 47.4058 68.2611 47.7632C68.2354 47.8171 68.1791 47.856 68.1426 47.8962C68.0573 47.8266 67.9819 47.7649 67.8771 47.6791C67.6013 48.1857 68.1704 48.0685 68.2164 48.17V49.2187C68.049 49.2755 67.9339 49.314 67.8254 49.3508C68.0134 49.5907 68.1662 49.7858 68.3485 50.0189C68.1223 50.1966 67.9467 50.3346 67.7997 50.4497C68.1493 50.97 68.0842 51.462 67.9451 51.9628C67.9235 52.0386 67.9007 52.1836 67.9227 52.1927C68.4491 52.4159 68.1406 52.9859 68.3899 53.4117C68.9756 52.5953 68.5755 51.7433 68.7693 50.8225C68.8315 50.7786 69.0071 50.6535 69.1636 50.5421C68.8994 49.9282 68.8418 49.8988 68.998 49.5758C69.1736 49.2117 68.8186 48.9487 68.9309 48.6061C69.051 48.2379 69.1032 47.8456 69.1574 47.46C69.1686 47.3784 69.046 47.2848 69.01 47.1875C68.9752 47.0922 68.9342 46.9729 68.9619 46.8855C69.0787 46.5214 69.2212 46.1656 69.3538 45.8069C68.9449 45.4089 69.331 45.0394 69.3828 44.6542C69.3989 44.5329 69.2904 44.3966 69.2465 44.2645C69.2138 44.165 69.1442 43.9923 69.1757 43.97C69.5248 43.721 69.2436 43.2637 69.4279 43.0616C69.7617 42.6955 69.3881 42.3649 69.4672 42.123C69.7916 41.1277 69.5074 40.1278 69.6205 39.1408C69.6549 38.8405 69.7096 38.5427 69.7584 38.2192C69.6756 38.2233 69.5257 38.1869 69.4805 38.2399C69.2382 38.5216 69.5857 38.9946 69.1761 39.2501C69.1603 39.2597 69.3099 39.4837 69.3314 39.6163C69.3517 39.7385 69.3521 39.9332 69.2788 39.9907C68.6964 40.448 68.9619 40.9513 69.2411 41.4959ZM90.1781 125.742C91.1113 124.814 91.9472 124.018 92.5101 122.973C93.295 121.516 93.7465 119.981 93.7991 118.325C93.8074 118.063 94.0199 117.742 93.925 117.559C93.7423 117.205 93.7386 116.959 94.0136 116.686C94.048 116.651 94.0397 116.504 94.002 116.478C93.6512 116.225 93.7742 115.852 93.8057 115.548C93.8981 114.658 93.5361 113.842 93.4772 112.977C93.3633 113.284 93.2204 113.593 93.2391 113.893C93.2565 114.18 93.1273 114.415 93.1177 114.678C93.1065 115.015 93.1252 115.354 93.1123 115.691C93.1012 115.981 93.1268 116.297 93.0208 116.553C92.9131 116.814 93.039 117.058 92.9193 117.337C92.7114 117.823 93.0262 118.393 92.7238 118.948C92.4658 119.422 92.9003 120.158 92.2226 120.539C92.4099 120.688 92.4803 120.883 92.4368 121.116C92.3676 121.481 91.3081 123.134 90.9353 123.397C90.6557 123.595 90.6893 124.09 90.237 124.106C90.2175 124.398 90.1935 124.69 90.1798 124.982C90.1711 125.167 90.1781 125.353 90.1781 125.742ZM29.2214 79.3829C29.2011 79.7511 29.1203 79.9893 29.1899 80.1695C29.4393 80.8173 29.7346 81.4477 30.0237 82.0798C30.0966 82.2388 30.2378 82.3676 30.302 82.5288C30.4694 82.9484 30.4396 83.4615 30.8219 83.7759C31.1744 84.0659 30.6964 84.8073 31.4365 84.8595C31.642 85.8631 32.2819 86.7043 32.5333 87.6715C32.6899 88.2737 33.1617 88.7099 33.2329 89.3014C33.3526 90.2967 34.2096 91.0373 34.1558 92.0844C34.1533 92.1345 34.2717 92.1813 34.3053 92.2447C34.5497 92.7074 34.9274 93.1555 34.9887 93.643C35.0633 94.2304 35.6154 94.6284 35.5102 95.2464C35.5073 95.2626 35.6071 95.2961 35.6581 95.3214C35.7678 95.0625 35.8739 94.8136 35.9878 94.5468C35.8051 94.4797 35.6751 94.4317 35.5322 94.3791C35.5102 94.0564 35.5243 93.7209 35.4551 93.4032C35.3851 93.083 35.0562 92.6987 35.1544 92.4891C35.3309 92.1121 34.9158 91.9543 35.0024 91.611C35.0591 91.3852 34.8131 90.976 34.5853 90.8082C34.1972 90.5229 34.669 90.0295 34.4354 89.9695C33.8257 89.8133 34.3041 89.3946 34.1516 89.1494C33.986 88.8826 33.8364 88.6043 33.6989 88.3222C33.5465 88.0099 33.4177 87.6864 33.2744 87.3699C33.1451 87.085 32.9931 86.8091 32.8813 86.5179C32.7562 86.1932 32.6849 85.8469 32.5524 85.5259C32.4331 85.2368 32.2633 84.9684 32.1142 84.6917C31.9651 84.4155 31.8073 84.1429 31.6644 83.8629C31.5065 83.5527 31.3512 83.2408 31.2141 82.9214C31.0907 82.6344 31.0228 82.3204 30.877 82.0466C30.727 81.7662 30.4963 81.5297 30.3315 81.2559C30.1521 80.9577 30.02 80.6313 29.8452 80.3306C29.6845 80.0535 29.4939 79.7942 29.2214 79.3829ZM13.2059 98.9394C13.0713 98.2506 12.899 97.8306 12.9338 97.4288C12.9781 96.9268 12.8418 96.465 12.6596 96.0645C12.3655 95.4179 12.2106 94.7415 12.0122 94.0746C11.6924 93.0006 11.4045 91.9175 11.103 90.8381C10.8383 89.8875 10.3707 88.9841 10.4258 87.9581C10.0373 87.355 10.3338 86.5428 9.76926 85.9604C9.56051 85.7446 9.63299 85.2774 9.50749 84.9514C9.43956 84.7746 10.0368 84.6296 9.52696 84.5252C9.02701 84.4229 9.62181 84.2365 9.46772 84.1197C8.93092 83.713 8.85056 83.0884 8.75986 82.4977C8.64636 81.7604 8.26613 81.1168 8.11619 80.3803C7.99607 79.7938 7.90453 79.1472 7.57317 78.5806C7.36897 78.2318 7.31015 77.7742 7.27163 77.3571C7.16394 76.1844 6.76506 75.0777 6.48879 73.9486C6.18642 72.7122 5.99962 71.4543 5.6811 70.2241C5.90145 69.9056 5.28761 69.5982 5.66826 69.2772C5.52204 68.9653 5.34394 68.6634 5.2379 68.3382C5.12772 68.0007 5.22672 67.6527 5.0921 67.2713C4.74169 66.2809 4.56441 65.2292 4.32707 64.1995C4.16802 63.5116 4.04832 62.8132 3.86731 62.131C3.66974 61.3892 3.30607 60.6739 3.22116 59.9237C3.0679 58.5701 2.71749 57.2517 2.55802 55.913C2.41056 54.6804 2.16122 53.4386 2.28009 52.1724C2.34678 51.4637 2.30412 50.7434 2.28589 50.0289C2.27926 49.7485 2.23743 49.4768 2.15169 49.1889C2.00051 48.6794 2.02039 48.0784 2.1198 47.5441C2.2892 46.6349 2.36997 44.8555 2.16494 43.8594C2.05642 44.0793 1.834 44.3129 1.86009 44.5142C1.9769 45.4122 1.64305 46.2534 1.59997 47.1316C1.47116 49.7808 1.88412 52.4097 1.84104 55.0532C1.83855 55.2014 1.81039 55.3663 1.86216 55.4959C2.27761 56.5331 2.28258 57.6514 2.50914 58.7255C2.55471 58.9404 2.5195 59.1513 2.72784 59.3178C2.9863 59.524 2.30163 59.7278 2.68311 59.9295C3.22737 60.217 2.7498 60.864 3.17559 61.2148C3.27252 61.2948 3.10974 61.6829 3.07784 61.9305C3.06914 62.0005 3.0766 62.0958 3.11761 62.1447C3.42577 62.5088 3.42909 62.5059 3.19755 62.9404C3.35619 63.1603 3.79234 63.2958 3.42204 63.6764C3.74098 64.1084 3.48542 64.7753 4.01725 65.129C4.08104 65.1717 4.11707 65.3982 4.09015 65.4152C3.78985 65.5987 4.01974 65.7375 4.08808 65.9222C4.17299 66.1525 4.12122 66.4366 4.21814 66.6587C4.5495 67.4162 4.81997 68.1883 4.7653 69.0225C4.74376 69.3456 4.88086 69.5767 5.00388 69.8327C5.12731 70.0895 5.31122 70.3227 5.23252 70.6433C5.14678 70.9912 5.5266 71.3453 5.2292 71.697C5.68814 72.1775 5.54151 72.8572 5.77222 73.3907C6.30985 74.6341 6.14749 76.0523 6.81062 77.2502C6.78826 77.9779 7.11548 78.6374 7.22482 79.3266C7.32713 79.9744 7.6995 80.5725 7.55784 81.2858C7.4982 81.5852 7.68914 81.9766 7.86311 82.2687C8.05571 82.5909 7.81713 82.9658 8.13731 83.3021C8.36595 83.5415 8.20193 84.2224 8.43305 84.3773C8.9011 84.6905 8.2069 85.0629 8.59376 85.2807C8.77849 86.4363 9.61808 87.3497 9.78997 88.5107C10.2924 88.7538 10.135 89.2703 10.2704 89.6663C10.4175 90.0971 10.6648 90.4943 10.6581 90.9756C10.6557 91.1549 10.7567 91.3339 10.7613 91.5145C10.7675 91.7174 10.659 91.9374 10.7066 92.1221C10.7936 92.4588 11.3474 92.675 10.9543 93.136C11.1423 93.4504 11.3511 93.7553 11.5118 94.0833C11.6336 94.3314 11.6299 94.662 11.7943 94.8637C12.1385 95.2841 11.8287 95.8383 12.0942 96.2069C12.4197 96.6601 12.032 97.1675 12.3704 97.5543C12.802 97.8198 12.7018 98.4092 13.2059 98.9394ZM28.7413 131.617C28.4642 131.401 27.9941 131.719 28.0165 131.163C28.0181 131.119 27.6056 131.105 27.4378 130.996C26.9048 130.652 26.358 130.352 25.7562 130.141C25.5632 130.072 25.3942 129.889 25.2542 129.724C24.6312 128.99 23.9875 128.281 23.1177 127.83C22.996 127.767 23.2494 127.209 22.7897 127.589C22.7288 127.64 22.5084 127.46 22.3564 127.448C21.9377 127.414 21.5922 127.24 21.3321 126.926C21.2016 126.77 21.1175 126.565 21.048 126.369C20.8852 125.909 20.7936 125.416 20.5828 124.981C19.9429 123.659 19.5407 122.249 19.0151 120.885C18.8274 120.398 18.7007 119.887 18.5271 119.393C18.3544 118.901 18.1067 118.429 17.9833 117.926C17.799 117.173 17.5061 116.47 17.2141 115.758C16.937 115.082 16.756 114.367 16.5245 113.671C16.0515 112.249 15.6426 110.798 15.0686 109.417C14.75 108.652 14.789 107.868 14.6113 107.105C14.6005 107.059 14.6486 106.999 14.6697 106.946C14.0571 106.993 14.2613 106.419 14.1523 106.163C13.7149 105.14 13.4097 104.063 13.0079 103.023C12.8882 102.713 12.8981 102.709 13.1363 102.249C12.9855 102.169 12.713 102.1 12.7039 102.006C12.6099 101.046 11.9297 100.238 11.9964 99.2376C12.0039 99.1217 11.8622 98.9978 11.7951 98.874C11.7123 98.7207 11.5557 98.5575 11.5677 98.4101C11.6551 97.3576 10.9854 96.5325 10.7468 95.5794C10.603 95.0066 10.5848 94.3998 10.2224 93.8717C10.0981 93.6898 10.2398 93.3249 10.2733 92.8664C9.77258 92.4808 9.49299 91.7858 9.52157 90.9669C9.52406 90.8915 9.55181 90.7962 9.51743 90.7436C8.74287 89.5739 8.90565 88.0791 8.18826 86.8853C8.13358 86.7938 8.29015 86.5751 8.35808 86.39C7.79104 85.9865 7.61914 85.3482 7.47293 84.6573C7.30684 83.8737 7.04051 83.1091 6.78412 82.3478C6.4366 81.3164 6.10855 80.2821 5.90104 79.211C5.83477 78.8705 5.684 78.5475 5.59453 78.2103C5.51832 77.9258 5.60903 77.5824 5.39696 77.3525C5.01382 76.9362 5.4711 76.3083 5.00346 75.931C5.06767 75.2968 4.60417 74.7919 4.564 74.1967C4.52258 73.5808 4.20861 73.0208 4.16429 72.4508C4.09222 71.5085 3.76666 70.6346 3.60471 69.7225C3.45974 68.9065 3.43944 68.0272 3.00784 67.2692C2.93867 65.8369 2.24944 64.5504 2.04855 63.1433C1.95494 62.4864 1.70518 61.8514 1.57015 61.1912C1.49974 60.8482 1.40364 60.504 1.38914 60.1462C1.38459 60.0331 1.43719 59.8769 1.38086 59.814C0.899559 59.2722 0.911571 58.6207 0.931452 57.9633C0.56737 57.7243 0.768257 57.3507 0.70737 57.0388C0.646896 56.7282 0.496955 56.4229 0.495299 56.1152C0.4866 54.373 0.193346 52.6508 0.228553 50.8991C0.257961 49.4295 -0.140914 47.9484 0.0537601 46.4779C0.272458 44.8228 0.228967 43.1184 0.923583 41.5353C1.2508 40.7897 1.57429 40.0711 2.06512 39.403C2.52985 38.7709 3.05962 38.2196 3.61092 37.6811C4.20737 37.0979 4.91772 36.7227 5.76435 36.6092C6.1069 36.5632 6.44447 36.441 6.7692 36.3134C7.30352 36.1039 7.8598 36.0231 8.41317 35.9026C9.14382 35.7431 9.8608 35.7572 10.5865 35.7071C11.4373 35.6482 12.1828 36.0732 12.9955 36.1846C13.0961 36.1983 13.1624 36.4642 13.1951 36.5234C13.4225 36.5073 13.6358 36.4286 13.7845 36.494C14.1358 36.6494 14.4597 36.8681 14.7881 37.0714C15.059 37.2396 15.3498 37.3916 15.5784 37.6074C15.8311 37.8464 15.991 38.1865 16.2507 38.4143C16.4818 38.6172 16.8538 38.6715 17.0571 38.8898C17.3893 39.2464 17.4515 39.794 17.8673 40.1237C18.0218 40.2455 18.052 40.5184 18.2016 40.6514C18.6187 41.0221 18.7931 41.5456 19.1029 41.9681C19.3854 42.3521 19.2706 42.8756 19.7478 43.2008C20.1222 43.4559 20.292 43.9998 20.5812 44.3941C20.8815 44.8029 21.2758 45.1525 21.5239 45.5882C22.1216 46.6407 23.0502 47.4679 23.5328 48.5949C23.5878 48.7229 23.6715 48.9097 23.7746 48.935C24.5111 49.1135 24.6101 49.8992 25.1109 50.294C25.0512 50.6494 25.2873 50.6241 25.5226 50.6324C25.6129 50.6357 25.75 50.697 25.781 50.7682C26.0561 51.404 26.6148 51.7263 27.1367 52.1206C27.5302 52.4176 27.7779 52.9018 28.1138 53.282C28.3876 53.5918 28.6639 53.9162 28.9977 54.1514C29.3146 54.3751 29.2893 54.9102 29.7735 54.9492C29.67 55.5552 30.3783 55.5713 30.5228 55.9739C30.6827 56.4171 31.229 56.449 31.3835 56.9589C31.4995 57.34 31.9825 57.61 32.3018 57.9294C32.6481 58.2756 32.9939 58.6219 33.3477 58.9752C33.4255 58.9056 33.5038 58.8356 33.5817 58.7665C33.5775 58.9508 34.0783 58.8895 33.8029 59.2482C33.7325 59.3397 33.8211 59.6599 33.9367 59.7692C34.3707 60.1797 34.6408 60.7704 35.1962 61.0326C35.5914 61.2189 35.6382 61.5876 35.8453 61.8746C36.2305 62.4085 36.788 62.8186 37.2797 63.2742C37.3252 63.3169 37.4644 63.3024 37.4723 63.3347C37.7573 64.5707 39.0794 64.8598 39.7003 65.783C39.9968 66.2237 40.2744 66.6777 40.5672 67.1366C40.8091 66.7958 41.0452 66.8413 41.2833 67.1035C41.3169 67.0343 41.3807 66.9668 41.3724 66.9097C41.3065 66.4499 41.3625 65.8949 41.1189 65.5577C40.7801 65.0876 41.0464 64.5752 40.7834 64.101C40.5382 63.6594 40.5618 63.0667 40.4752 62.539C40.3941 62.044 40.3978 61.5209 40.2333 61.0566C39.8191 59.8877 39.837 58.6256 39.3697 57.4621C39.1477 56.9121 39.2045 56.2531 39.1142 55.6463C39.062 55.2975 39.0512 54.9007 38.8706 54.624C38.6644 54.3092 38.7915 53.9311 38.6374 53.7066C38.4415 53.4212 38.4879 53.1578 38.4336 52.8782C38.2928 52.1504 38.1524 51.4189 37.9478 50.7078C37.5961 49.4855 37.191 48.2785 37.085 46.9998L36.7304 46.0915C36.3001 45.6359 36.4637 45.0075 36.2769 44.4736C36.112 44.0039 35.7413 43.5135 36.0545 42.9514C36.0888 42.8893 36.0918 42.7791 36.0599 42.7162C35.5338 41.6703 35.0343 40.0661 34.9477 39.0969C34.9432 39.0455 35.0107 38.9569 34.9945 38.942C34.4213 38.4296 34.7829 37.6124 34.3741 37.0499C34.4606 35.876 33.817 34.7995 33.9151 33.622C33.9259 33.4923 33.8468 33.3531 33.8 33.221C33.597 32.6436 33.3829 32.0712 33.467 31.4375C33.51 31.1082 33.4156 30.8124 33.2594 30.5072C33.117 30.2297 33.3112 29.8933 33.1062 29.5508C32.8357 29.0985 32.9873 28.5174 32.8341 27.9793C32.5309 26.916 32.4687 25.784 32.3146 24.6802C32.1838 23.7424 31.9725 22.8051 31.7426 21.8777C31.5977 21.2933 31.5997 20.6724 31.4419 20.0797C31.2791 19.4666 31.2862 18.8139 31.0112 18.2236C30.9677 18.1304 30.988 18.0062 30.9855 17.896C30.9755 17.3898 30.9631 16.9031 30.7867 16.3987C30.6268 15.9414 30.8836 15.3743 30.5332 14.9204C30.5332 13.8662 30.5381 12.8117 30.5315 11.7575C30.5261 10.9594 30.623 10.2068 30.8952 9.42558C31.1437 8.71025 31.239 7.91623 31.4233 7.15865C31.6975 6.03327 32.0011 4.91824 32.4716 3.86368C32.6638 3.43374 32.6862 2.95907 32.8751 2.56309C33.3903 1.48161 34.116 0.581137 35.3582 0.234451C35.8146 0.107291 36.2533 -0.0119992 36.7358 0.0099535C37.4122 0.0406044 38.0936 0.0538588 38.7679 0.0087109C39.6568 -0.0509341 40.5142 0.2038 41.2693 0.525634C43.1849 1.34202 45 2.37173 46.1539 4.22942C46.7388 4.31599 46.6551 4.91907 46.9339 5.24463C47.2126 5.5706 47.4508 5.93137 47.703 6.27972C47.901 6.5535 47.8203 6.83185 47.689 7.12634C48.0729 7.26262 48.2655 7.5567 48.5 7.87978C48.8728 8.39297 48.734 9.03623 49.1544 9.55191C49.5032 9.98102 49.5595 10.6533 49.9078 11.1462C49.5931 11.6329 50.4285 11.8424 50.1891 12.3109C50.6513 12.6311 50.168 13.2793 50.5146 13.5096C50.8899 13.7594 51.0825 14.1185 51.2958 14.437C51.6587 14.9779 51.6558 15.7268 52.2067 16.187C52.0389 16.3117 51.9722 16.4223 52.1669 16.6058C52.1971 16.6339 51.9602 16.8936 52.2083 17.0717C52.6627 17.3973 52.9373 17.862 53.0901 18.3963C53.2335 18.9 53.5648 19.315 53.6236 19.8842C53.6593 20.2304 53.6584 20.725 53.9115 20.9805C54.1981 21.2701 54.1969 21.6288 54.3651 21.9353C54.5519 22.2758 54.7714 22.6055 54.7204 23.0366C54.7076 23.1468 54.8294 23.3079 54.9333 23.3891C55.1375 23.5482 55.1682 23.7408 55.1645 23.9777C55.1599 24.2801 55.0203 24.6661 55.5509 24.7216C55.5952 24.7266 55.5725 25.0675 55.6387 25.2282C55.9577 26.0011 56.357 26.7429 56.5164 27.5759C56.5293 27.643 56.5475 27.7266 56.5943 27.7672C57.0636 28.1785 57.1083 28.7485 57.2719 29.3006C57.3693 29.6287 57.3307 30.1025 57.7797 30.3419C58.068 30.496 57.7648 30.7031 57.6571 30.8692C58.2991 31.1583 57.8804 32.0132 58.4483 32.3578C58.5319 32.4088 58.5207 32.6208 58.5468 32.7596C58.5742 32.9 58.5431 33.1125 58.6247 33.1705C58.9002 33.3656 58.8538 33.6257 58.9076 33.897C58.954 34.1339 59.3959 34.3936 59.3471 34.5282C59.2228 34.8695 59.5107 35.0071 59.548 35.246C59.5931 35.5294 59.6345 35.8131 59.6776 36.0964C59.6884 36.1672 59.6722 36.2625 59.7124 36.306C60.279 36.9198 60.1945 37.8646 60.9169 38.4362C60.6075 38.6375 60.3822 38.7842 60.1428 38.9395C60.1925 39.0082 60.2169 39.0774 60.2633 39.0994C60.5147 39.2182 60.7844 39.3044 61.0217 39.4452C61.131 39.5098 61.276 39.7335 61.2449 39.7824C60.8858 40.3395 61.3427 40.4016 61.72 40.542V41.5291C62.1334 41.5655 62.3235 41.8447 62.1433 42.1152C61.8629 42.536 62.1177 42.8164 62.3666 42.9179C62.7601 43.0786 62.8545 43.306 62.8475 43.6742C62.845 43.8076 62.8761 44.0072 62.9647 44.0669C63.4477 44.39 63.4506 44.9135 63.6316 45.3807C63.7401 45.6607 63.6299 46.0327 63.9832 46.2642C64.2338 46.4282 64.3664 46.77 64.5552 47.0301C64.7661 47.32 64.9612 47.6249 65.1997 47.89C65.4097 48.1231 65.2991 48.2528 65.1567 48.4537C65.1061 48.5249 65.2991 48.7399 65.3178 48.8969C65.348 49.1504 65.3261 49.4105 65.3261 49.6971C65.558 49.6081 65.7316 49.5414 65.9805 49.4461C65.9039 49.7675 65.5912 50.0011 65.949 50.2434C66.1019 50.347 66.3607 50.5015 66.0265 50.7156C66.1056 50.7612 66.2029 50.8614 66.2605 50.8424C66.5973 50.7314 66.7712 50.3992 66.6702 50.0583C66.6416 49.9622 66.5132 49.9001 66.4622 49.8056C66.4324 49.7518 66.4668 49.6631 66.4742 49.5695C66.5981 49.5248 66.7286 49.4776 66.8872 49.4204C66.8168 49.3082 66.6681 49.1355 66.6942 49.1027C66.9294 48.8087 66.5923 48.4193 66.7083 48.2863C67.0119 47.9388 66.8868 47.5781 66.8984 47.2268C66.9125 46.8255 66.9609 46.4539 67.1138 46.0704C67.2235 45.7962 67.2173 45.4723 67.1709 45.1305C67.0959 44.5768 66.9626 43.9509 67.3594 43.422C67.0574 43.0326 67.3851 42.6437 67.383 42.2535C67.3801 41.7163 67.1925 41.1604 67.516 40.6224C67.7757 40.19 67.3697 39.586 67.8113 39.1652C67.733 38.5008 68.0035 37.8638 68.0101 37.2255C68.0221 36.0165 68.2984 34.8463 68.5365 33.6953C68.8091 32.3777 69.1976 31.0663 69.7303 29.7939C70.4526 28.0696 71.2599 26.4 72.3534 24.9018C73.0588 23.9363 73.4821 22.6958 74.6982 22.1498C74.7657 22.1196 74.7607 21.9531 74.8179 21.8686C75.2988 21.1529 75.998 20.6848 76.77 20.382C77.0368 20.2776 77.2857 20.2035 77.533 20.032C77.8113 19.839 78.1195 19.6609 78.5101 19.658C78.8559 19.6555 79.1993 19.5159 79.5464 19.4492C79.8939 19.383 80.3007 19.6062 80.5881 19.2264C80.6159 19.19 80.7331 19.2272 80.8081 19.2206C81.6804 19.1469 82.5539 19.0835 83.4246 18.9895C83.7738 18.9518 84.118 18.7749 84.4605 18.7853C85.0338 18.8031 85.6016 18.9489 86.1757 18.9874C86.7378 19.0251 87.3123 18.9369 87.8673 19.0118C88.4542 19.091 89.0536 19.2301 89.5941 19.4658C90.1723 19.7176 90.8512 19.7185 91.3487 20.1323C91.8192 20.5237 92.4695 20.6575 92.8717 21.058C93.2788 21.4643 94.058 21.6093 94.0281 22.4071C94.0257 22.4725 94.1412 22.5678 94.222 22.6067C95.0458 23.0014 95.2521 23.8414 95.5806 24.5655C95.7661 24.9734 95.8233 25.4759 95.8051 25.9303C95.7885 26.3478 96.2661 26.1096 96.2793 26.4024C96.2893 26.6224 96.2619 26.8581 96.3323 27.0581C96.5328 27.6301 96.7233 28.1984 96.7333 28.8131C96.7349 28.9162 96.7519 29.0363 96.807 29.1192C97.28 29.8345 97.2291 30.6811 97.4076 31.4694C97.4851 31.814 97.7116 32.2265 97.5973 32.4891C97.4333 32.8656 97.587 33.151 97.6495 33.4443C97.8467 34.3758 97.7878 35.3583 98.2497 36.2443C98.3901 36.5127 98.2161 36.9596 98.3752 37.2002C98.5533 37.4703 98.3694 37.7101 98.4936 37.9885C98.6697 38.3816 98.871 38.8376 98.7794 39.3466C98.7045 39.7658 99.0516 40.1402 99.0122 40.6075C98.9778 41.0192 99.1576 41.4446 99.2102 41.8683C99.2628 42.2941 99.1058 42.753 99.436 43.1337C99.4732 43.1768 99.4376 43.2803 99.4417 43.3553C99.5163 44.6795 99.4819 46.0215 99.6903 47.3246C100.089 49.8164 99.781 52.312 99.8895 54.8026C99.9048 55.1588 99.887 55.1592 100.293 55.6802C100.322 55.1658 100.346 54.7475 100.377 54.2136C100.541 54.2898 100.776 54.3428 100.78 54.4095C100.81 54.9351 100.823 55.4649 100.782 55.9888C100.768 56.1686 100.589 56.3355 100.489 56.5016C100.161 56.3629 100.635 55.6861 99.9636 55.8517C100.168 56.2411 100.112 56.6988 100.509 57.0521C100.835 57.3412 100.311 57.8453 100.498 58.2645C100.504 58.2769 100.432 58.3121 100.425 58.3431C100.321 58.7905 100.015 59.1918 99.9404 59.6003C99.8704 59.9871 100.202 60.4436 100.339 60.8747C100.369 60.9679 100.324 61.0843 100.308 61.233C100.172 61.1614 100.071 61.1079 99.8796 61.0069C100.1 61.9571 100.46 62.8853 99.6389 63.7091C100.252 64.3826 99.6381 65.0449 99.5685 65.7197C99.5523 65.8713 99.2044 65.9885 98.9555 66.1583C99.2098 66.1972 99.4169 66.2291 99.629 66.2614C99.4132 66.7999 99.38 67.1321 99.436 67.7894C99.4475 67.9265 99.4119 68.0769 99.3622 68.2082C99.2156 68.6017 99.1816 68.9678 99.2065 69.4288C99.2181 69.6359 99.1373 69.848 99.1 70.058C99.0619 70.2688 99.0594 70.4929 98.9816 70.6868C98.8652 70.9767 99.3966 71.2824 98.9857 71.5089C98.6274 71.7061 98.895 72.0892 98.668 72.2864C98.598 72.3469 98.4671 72.3369 98.1308 72.4098C98.463 72.4977 98.6403 72.5444 98.8354 72.5962C98.7306 72.6886 98.8089 72.6194 98.888 72.5494C99.2123 73.0055 98.7152 73.3874 98.7836 73.7784C98.8714 74.282 98.4154 74.4655 98.2306 74.8959C98.4282 74.9771 98.5761 75.0379 98.7687 75.1175C98.7231 75.7765 98.8784 76.457 98.4195 77.0911C98.1685 77.4378 98.2845 78.0471 98.603 78.9426C98.3864 78.7836 98.3093 78.6978 98.2145 78.6655C98.1229 78.6344 98.0132 78.6589 97.8591 78.6589C98.1047 79.0238 98.3151 79.3357 98.5259 79.6484C98.2878 79.9702 98.0446 80.2813 98.299 80.7245C98.3483 80.8102 98.2696 81.0099 98.1946 81.1192C98.0248 81.3661 98.0177 81.5811 98.2054 81.818C98.2667 81.8959 98.3259 82.0864 98.3044 82.1009C97.6946 82.4998 98.5632 82.8879 98.3077 83.2785C98.1577 83.5067 98.021 83.7432 97.9266 83.8985C98.0728 84.0721 98.2 84.2079 98.3097 84.3558C98.5421 84.6681 97.9966 84.92 98.2729 85.3217C98.4489 85.5777 98.3487 86.0553 98.3044 86.4256C98.1486 87.7291 98.6448 88.9891 98.5371 90.2863C98.873 90.942 98.7181 91.6507 98.7716 92.3383C98.8043 92.762 98.9099 93.1808 98.9907 93.6004C99.0652 93.9864 98.9199 94.3642 99.1468 94.7825C99.3365 95.1329 99.1319 95.6763 99.2409 96.0984C99.3121 96.3722 99.6029 96.5818 99.2197 96.8233C99.5329 97.0275 99.4318 97.3452 99.4405 97.6318C99.4616 98.3513 99.6426 99.0368 99.839 99.7243C99.9181 100.001 99.9632 100.342 99.8704 100.599C99.7686 100.88 100.334 101.08 99.909 101.33C100.062 101.735 100.155 102.146 100.124 102.586C100.096 102.983 100.199 103.352 100.32 103.742C100.555 104.495 100.668 105.289 100.788 106.072C100.853 106.496 100.833 106.91 100.986 107.346C101.145 107.794 101.09 108.357 100.785 108.816C100.693 108.953 100.617 109.1 100.642 109.35C100.814 109.212 100.985 109.074 101.156 108.936C101.483 109.433 101.03 109.654 100.757 109.993C100.965 110.223 100.895 110.641 101.349 110.749C101.434 110.769 101.46 111.138 101.469 111.348C101.492 111.846 101.363 112.264 100.715 112.377C101.2 112.537 101.406 112.753 101.166 113.179C101.141 113.224 101.345 113.468 101.52 113.533C101.112 113.998 101.464 114.753 100.822 115.21C100.997 115.175 101.172 115.14 101.415 115.092C101.363 115.654 101.459 116.337 101.208 116.849C100.927 117.42 101.253 118.112 100.671 118.608C100.457 118.626 100.174 118.648 99.8932 118.672C99.892 118.708 99.8912 118.746 99.8899 118.783C100.093 118.821 100.296 118.859 100.571 118.91C100.578 119.404 100.361 119.835 100.169 120.282C99.6182 121.559 98.8722 122.703 98.0306 123.81C97.6027 124.372 97.1119 124.856 96.6517 125.377C96.216 125.87 95.8237 126.404 95.366 126.874C94.2 128.072 92.9988 129.233 91.4377 129.926C90.7365 130.739 89.7238 131.042 88.8129 131.499C87.3487 132.235 85.7992 132.77 84.2559 133.313C83.4337 133.602 82.6115 133.896 81.7752 134.14C80.9352 134.386 80.0414 134.437 79.2474 134.859C79.1289 134.921 78.9578 134.902 78.8125 134.894C78.1883 134.857 77.5959 134.947 77.0417 135.259C76.9241 135.326 76.7667 135.322 76.6275 135.348C76.2076 135.428 75.7822 135.23 75.3439 135.545C75.0685 135.743 74.5483 135.45 74.2115 135.795C74.1746 135.833 74.0657 135.803 73.9907 135.8C72.4338 135.735 70.9041 136.172 69.3389 136.04C68.8468 135.999 68.3431 135.954 67.8353 136.22C67.5814 136.353 67.0997 136.399 66.8102 136.042C66.56 136.354 66.2096 136.245 65.8935 136.249C64.9897 136.259 64.0851 136.225 63.183 136.264C62.7232 136.283 62.2312 136.066 61.7975 136.467C61.5705 136.677 61.3642 135.968 61.0412 136.358C60.4331 136.256 59.8574 136.529 59.2444 136.492C58.3439 136.438 57.3908 136.302 56.5471 136.527C55.6872 136.756 54.865 136.648 54.0291 136.693C53.1278 136.741 52.222 136.685 51.319 136.715C51.0092 136.725 50.6928 136.827 50.3991 136.938C50.1087 137.047 49.8428 136.535 49.5665 136.93C49.2522 136.809 48.9382 136.585 48.6238 136.93C48.3471 136.568 48.0717 136.983 47.7942 136.932C47.5158 136.879 47.2483 136.955 46.9463 136.786C46.6572 136.625 46.2219 136.684 45.8557 136.711C44.5303 136.81 43.2322 136.532 41.9871 136.209C40.7759 135.895 39.5412 135.609 38.3599 135.165C38.1959 135.103 37.9933 135.109 37.8132 135.127C36.4857 135.256 35.2393 134.715 33.9338 134.661C33.8116 134.656 33.7018 134.503 33.5734 134.448C33.3493 134.353 33.1161 134.281 32.8858 134.2C32.6559 134.119 32.4302 134.002 32.1929 133.971C31.982 133.943 32.3399 133.425 31.8661 133.649C31.7037 133.725 31.4225 133.619 31.2228 133.533C30.9349 133.408 30.6699 133.229 30.399 133.067C29.8257 132.723 29.2537 132.377 28.6833 132.029C28.4381 131.879 28.5587 131.751 28.7413 131.617Z" fill="black"/>
</svg>
