<svg width="133" height="108" viewBox="0 0 133 108" fill="none" xmlns="http://www.w3.org/2000/svg">
<path fill-rule="evenodd" clip-rule="evenodd" d="M55.9366 59.7131C56.0862 59.6145 56.2585 59.5462 56.3657 59.4215C56.6225 59.1229 56.8031 58.7435 57.0976 58.4949C57.7798 57.9192 58.0896 57.0755 58.672 56.4306C58.8514 56.2313 58.6074 55.7215 59.145 55.7492C59.1007 55.5678 58.9777 55.3586 59.0299 55.2116C59.109 54.9891 59.4594 54.9042 59.4126 54.5832C59.3973 54.4793 59.382 54.3683 59.3314 54.2804C59.3086 54.2407 59.1815 54.2191 59.1351 54.2461C59.0862 54.2746 59.0597 54.3699 59.0539 54.4387C59.0477 54.5165 59.1156 54.6342 59.0817 54.6719C58.5738 55.2331 58.3556 55.9857 57.7575 56.5097C57.4385 56.7884 57.1581 57.2325 56.9734 57.6164C56.8077 57.961 56.7178 58.1785 56.3421 58.3686C55.8774 58.6039 55.5763 59.0657 55.9366 59.7131ZM64.1983 53.4293V53.9743C64.4041 53.8948 64.5773 53.8281 64.9973 53.6658C64.5864 54.2349 64.3337 54.5836 64.0492 54.9784C63.9585 54.7555 63.9067 54.5186 63.8541 54.5182C63.6992 54.5182 63.5414 54.6048 63.3898 54.6698C63.1731 54.7622 63.3645 55.2588 62.9283 55.1412C62.814 55.4932 62.4313 55.7691 62.6272 56.209C62.8451 56.2653 63.063 56.322 63.3454 56.3954C62.7262 56.9268 62.7266 56.9272 62.3501 57.8832C62.3249 57.9474 62.2909 58.0112 62.2486 58.0658C61.9678 58.4312 61.9666 58.4299 62.2528 58.7418C62.9975 57.763 62.9975 57.7631 63.1288 56.9595C63.256 57.0212 63.2895 57.1993 63.543 57.0407C63.8727 56.8352 63.4366 56.351 63.9651 56.2496C64.3988 56.1663 63.9833 55.6481 64.1896 55.4481C64.4066 55.4829 64.6017 55.5641 64.7715 55.528C64.9488 55.4899 65.1021 55.3383 65.1576 55.3039C65.1307 54.9788 65.1095 54.7253 65.0847 54.4188H65.5084C66.0054 53.9582 65.7826 53.3704 66.184 52.984C66.2275 52.9422 66.1612 52.7856 66.1347 52.6125C65.916 52.6999 65.7441 52.7682 65.573 52.8365C65.513 52.6924 65.4599 52.564 65.4065 52.4356C65.2918 52.4907 65.1 52.5226 65.0747 52.6046C64.9323 53.0759 64.5603 53.2727 64.1983 53.4293ZM16.8186 47.6818C16.7085 47.8156 16.5714 47.9357 16.4922 48.0865C16.0238 48.9795 15.6928 49.9375 15.1494 50.8012C14.898 51.2009 14.8354 51.7186 14.6793 52.18C14.5343 52.6079 14.2112 53.0577 14.2701 53.452C14.3475 53.9661 13.5228 54.2258 14.0029 54.7551C13.5655 55.5247 13.4591 56.4065 13.1654 57.225C12.9778 57.749 12.7831 58.2754 12.6572 58.8155C12.5288 59.3627 12.3092 59.9177 12.2649 60.44C12.2214 60.9574 11.8018 61.4755 12.158 62.0583C12.2434 62.1983 12.0214 62.7355 11.8598 62.7774C11.3491 62.9091 11.4572 63.0843 11.7103 63.3548C11.2712 63.7251 11.7451 64.3356 11.3193 64.7543C11.1267 64.9441 11.1246 65.3429 11.0712 65.6528C11.0186 65.9564 11.1673 66.0549 11.4576 65.9373C11.5086 65.5836 11.4601 65.1656 11.6362 64.8914C11.8623 64.5398 11.5251 64.0626 11.9973 63.7822C12.2285 63.6451 11.9534 63.1543 12.3486 62.9928C12.4041 62.97 12.3921 62.7952 12.4219 62.6941C12.8303 61.3186 13.0581 59.8933 13.5576 58.5446C13.7407 58.0501 13.7478 57.5241 13.9706 57.0245C14.1628 56.5933 14.2498 56.098 14.4453 55.6448C14.6524 55.1652 14.7236 54.6354 14.8673 54.1326C15.4787 51.9907 16.3059 49.9206 16.8186 47.6818ZM22.4526 48.0061C22.0691 48.3603 21.7427 48.5156 21.7079 48.7202C21.5741 49.5101 21.1719 50.1504 20.8115 50.8413C20.4636 51.5082 20.2404 52.2546 19.9343 52.9575C19.6298 53.6575 19.298 54.3948 19.2318 55.1387C19.1282 56.2943 18.6573 57.3136 18.3243 58.3852C18.0136 59.3851 17.8579 60.4293 17.4056 61.3906C17.244 61.7327 17.2043 62.1465 17.174 62.533C17.1289 63.1091 17.1409 63.672 16.9731 64.254C16.8079 64.826 16.8791 65.4618 16.7631 66.0786C16.6654 66.5975 16.4889 67.1244 16.4865 67.6687C16.484 68.2113 16.358 68.7452 16.3025 69.2725C16.1857 70.3821 15.8353 71.4367 15.7078 72.5351C15.692 72.6697 15.8196 72.8234 15.7985 72.9547C15.7715 73.1196 15.658 73.2695 15.5847 73.4277C15.5205 73.5665 15.4601 73.7069 15.3934 73.8572C15.5122 73.8738 15.5843 73.88 15.6543 73.8949C15.687 73.902 15.745 73.9322 15.743 73.9426C15.6435 74.4707 15.8714 74.9578 15.9438 75.4722C16.0358 74.9934 15.8776 74.4326 16.0756 74.0614C16.3344 73.5748 16.0606 73.0413 16.293 72.6871C16.6078 72.2075 16.3982 71.7486 16.4898 71.2933C16.5511 70.9864 16.7594 70.6302 16.6641 70.3908C16.5606 70.1307 16.5631 70.0176 16.6364 69.7417C16.7623 69.2708 16.9222 68.7609 16.9156 68.2817C16.9002 67.1078 17.0717 65.9729 17.3989 64.8596C17.6475 64.0142 17.8131 63.1481 17.9999 62.2932C18.1888 61.4291 18.5338 60.6239 18.743 59.7748C19.0284 58.6175 19.4409 57.4992 19.7379 56.3432C19.933 55.586 20.2901 54.8322 20.51 54.0783C20.725 53.339 20.9238 52.5988 21.2112 51.8806C21.4962 51.1702 21.7659 50.4532 22.0061 49.7271C22.1693 49.2355 22.2699 48.7231 22.4526 48.0061ZM128.265 45.5661C128.853 45.7404 129.343 45.6783 129.793 45.4145C130.101 45.2335 130.357 44.8532 130.666 44.8168C131.071 44.7683 131.185 44.4142 131.465 44.3152C131.867 44.1723 131.903 43.918 131.957 43.5638C131.996 43.3074 132.235 43.1219 132.567 43.3807C132.599 43.155 132.63 42.9479 132.664 42.7126C132.747 42.7781 132.833 42.8133 132.835 42.8514C132.854 43.4483 132.802 44.017 132.148 44.2974C132.085 44.3247 131.995 44.3396 131.964 44.3893C131.204 45.6067 130.977 45.627 129.596 46.5017C129.236 46.7291 129.051 47.1578 128.568 47.2452C127.847 47.377 127.258 47.944 126.475 47.9204C126.39 47.9179 126.309 48.0641 126.212 48.0948C125.679 48.2625 125.236 48.7243 124.61 48.5897C124.174 48.9633 123.613 48.9285 123.117 49.0859C122.417 49.3075 121.619 49.1974 120.994 49.687C120.9 49.7619 120.706 49.7006 120.56 49.7213C120.173 49.776 119.785 49.6186 119.389 49.9119C119.101 50.1252 118.63 49.8245 118.242 50.1463C117.999 50.3468 117.563 50.1906 117.189 50.2933C116.514 50.4785 115.814 50.5808 115.152 50.8422C114.776 50.9904 114.814 50.5841 114.642 50.3791C114.5 50.5833 114.365 50.7763 114.152 51.0812C114.023 51.0812 113.748 51.0194 113.524 51.1002C113.332 51.1694 113.21 51.4162 113.035 51.5567C112.785 51.7575 112.524 51.9481 112.247 52.1088C112.178 52.1486 112.033 52.0549 112.014 52.05C111.675 52.4236 111.341 52.7918 110.983 53.1865C110.849 53.0759 110.754 53.0271 110.706 52.9488C110.653 52.8639 110.646 52.7516 110.597 52.5677C110.448 52.68 110.342 52.7487 110.25 52.8332C110.161 52.9161 110.087 53.0159 110.007 53.1078C109.91 52.9811 109.814 52.8543 109.688 52.6899C109.452 52.9517 108.878 52.8759 108.893 53.498C109.097 53.4384 109.29 53.3191 109.453 53.3514C109.645 53.3895 109.812 53.5585 110.077 53.7246C109.905 53.8613 109.754 54.0501 109.559 54.1218C108.997 54.3289 108.567 54.6909 108.192 55.1403C107.894 55.4978 107.541 55.7848 107.155 55.9008C107.176 56.0408 107.192 56.1506 107.208 56.2607C106.768 56.2744 106.609 56.6273 106.409 56.9272C106.351 57.0138 106.336 57.1484 106.26 57.1997C105.695 57.58 105.315 58.1164 105.007 58.7C104.814 59.0678 104.58 59.3146 104.073 59.2488C104.174 59.3482 104.203 59.3722 104.227 59.4012C104.454 59.6771 104.001 59.8817 104.148 60.1501C103.66 60.7233 103.561 61.5737 102.873 61.9324C102.938 62.3048 102.995 62.6353 103.081 63.1381C102.869 62.9841 102.801 62.9352 102.694 62.8577C102.7 63.1373 102.184 63.2338 102.542 63.6596C102.686 63.8319 102.671 64.3302 102.523 64.5141C102.264 64.8359 102.352 65.1503 102.347 65.4655C102.33 66.6323 102.216 67.8161 102.369 68.9631C102.602 70.7048 102.516 72.4423 102.584 74.1812C102.601 74.6343 102.897 75.0729 102.787 75.5559C102.742 75.7572 102.583 75.9461 102.583 76.1412C102.583 76.3354 102.737 76.5251 102.788 76.726C102.893 77.1381 102.573 77.5059 102.591 77.8725C102.628 78.6189 102.398 79.3156 102.341 80.0396C102.335 80.1142 102.372 80.2152 102.336 80.2616C101.768 80.9827 101.784 81.9122 101.466 82.7261C100.906 84.1576 100.317 85.5783 99.5673 86.9062C98.765 88.3274 97.9963 89.8218 96.4985 90.7111C96.3105 90.8229 96.2517 91.1419 96.0682 91.2765C95.8805 91.4132 95.5674 91.3838 95.3901 91.5275C95.012 91.8344 94.686 92.2059 94.2577 92.6317C93.7565 92.483 93.2118 92.7283 92.7931 93.1122C92.2248 93.6333 91.3935 93.6258 90.8641 94.2169C90.4421 94.6887 89.8634 94.9724 89.2711 95.216C88.6602 95.4674 88.0757 95.7838 87.4611 96.0257C87.0411 96.1914 86.6969 96.529 86.1837 96.5252C86.0656 96.5244 86.0337 97.043 85.5951 96.9581C85.3855 96.9175 85.0873 97.0318 84.9121 97.1764C84.5836 97.4473 84.2237 97.3644 83.8662 97.3922C83.3286 97.4336 82.7686 97.2546 82.2566 97.603C82.1274 97.6904 81.8681 97.6676 81.7057 97.6034C81.4875 97.5168 81.3437 97.2178 81.0484 97.5235C80.9842 97.5893 80.6996 97.4108 80.5124 97.3946C79.4471 97.3044 78.4998 96.9556 77.7414 96.1736C77.5343 95.9598 77.3351 95.8136 76.9913 95.783C76.5891 95.7474 76.1335 95.6049 75.832 95.3526C75.4989 95.0735 75.0694 95.1787 74.7583 94.9128C74.6068 94.7831 74.3122 94.7922 74.2025 94.6477C73.6706 93.9518 72.8083 93.7952 72.1447 93.3235C71.75 93.4527 71.8507 92.8103 71.7098 92.9329C71.4021 93.2013 71.3279 92.9213 71.2173 92.7995C71.0546 92.621 70.9402 92.3981 70.7799 92.1558C70.5993 92.2457 70.413 92.3381 70.0667 92.5104C69.9163 92.3095 69.7867 91.9719 69.5489 91.8572C69.1778 91.6774 69.0444 91.0516 68.4409 91.2657C68.3527 91.2972 68.144 91.0114 68.0019 90.8615C67.936 90.7919 67.8656 90.6175 67.8511 90.6233C67.2489 90.8668 66.9734 90.1391 66.452 90.1573C66.3853 90.1598 66.2859 90.1453 66.254 90.101C65.8679 89.5662 65.2487 89.4631 64.702 89.2071C64.2517 88.9963 63.8798 88.619 63.5062 88.3406C63.5969 88.1029 63.6631 87.9293 63.7464 87.7106C63.4664 87.991 63.2415 88.2159 63.0775 88.3796C62.2905 88.0316 61.5428 87.9053 61.0951 87.1399C61.0363 87.3474 61.0019 87.4691 60.9447 87.6704C60.7501 87.5114 60.5931 87.2906 60.3934 87.2409C60.0865 87.1643 59.7357 87.2898 59.4623 87.0098C59.4346 86.9816 59.2337 87.1477 59.1028 87.1871C59.0108 87.2144 58.8112 87.1763 58.8112 87.173C58.8319 86.625 58.3336 86.8665 58.1116 86.7012C57.9679 86.5943 57.8651 86.432 57.716 86.263C57.668 86.6544 57.4609 86.8164 57.1622 86.8744C56.9609 86.9133 56.6805 87.028 56.5654 86.9398C56.2324 86.6855 56.0182 86.7517 55.6844 86.9584C55.4678 87.0922 55.1012 86.9837 54.7557 86.9837C54.5669 86.9278 54.747 86.3545 54.3386 86.5604C54.0284 86.7165 54.2782 86.9696 54.4592 87.1208C53.8801 87.5118 54.1067 86.5227 53.5831 86.7435C53.3562 86.8396 53.0004 86.6316 52.7067 86.5629C52.464 87.045 53.0472 87.0926 53.0882 87.4049C53.0882 87.6551 52.8438 87.8871 52.6466 87.7798C52.4656 87.682 52.302 87.5917 52.22 87.8075C52.1989 87.8643 52.4789 88.0573 52.2241 88.1919C52.0725 88.2723 51.894 88.3038 51.7267 88.3522C51.0474 88.5494 50.4621 88.9035 50.0529 89.4805C49.7493 89.9084 49.5136 90.3843 49.2473 90.8387C48.9809 91.2935 48.7478 91.7719 48.4359 92.1927C48.2524 92.44 47.9446 92.5949 47.6978 92.7879C47.9633 93.0294 47.9459 93.2704 47.7296 93.6209C47.2902 94.3329 47.011 95.1559 46.509 95.8141C46.1391 96.2995 45.8454 96.7994 45.5596 97.3292C45.2747 97.8586 44.8824 98.3307 44.5328 98.8249C44.4947 98.8791 44.4293 98.9143 44.3763 98.9583C44.2603 98.5196 44.1439 98.0797 44.0275 97.6399C43.9849 97.639 43.9418 97.6386 43.8991 97.6382C43.8743 97.7852 43.8241 97.9343 43.832 98.0797C43.8407 98.2247 43.9074 98.366 43.9488 98.5093C43.5425 98.467 43.5421 99.2233 42.9763 98.9288V100.203C43.3462 99.7307 43.639 99.3559 43.9339 98.979C44.3489 99.4027 43.7674 99.6781 43.7732 100.04C42.9456 100.591 42.8259 101.639 42.1458 102.355H41.1525V103.022C40.9177 102.927 40.7504 102.86 40.4998 102.759C40.4646 103.002 40.4343 103.204 40.3979 103.453C40.1191 103.536 39.8035 103.593 39.5247 103.727C39.3388 103.817 39.229 104.079 39.0418 104.151C38.8446 104.226 38.5965 104.167 38.3704 104.169C38.336 104.169 38.2888 104.171 38.2689 104.193C37.7188 104.788 36.9542 104.985 36.1921 105.233C36.1656 105.206 36.098 105.102 36.0024 105.052C35.8586 104.976 35.6954 104.938 35.5401 104.884C35.5579 105.069 35.5753 105.253 35.5944 105.449C34.4263 105.742 34.4263 105.742 33.9815 105.536C33.8199 105.902 33.675 106.173 33.1518 106.23C32.0832 106.347 31.0336 106.657 29.9476 106.639C29.7073 106.635 29.482 107.031 29.2372 106.668C29.0235 107.085 28.8209 106.531 28.6304 106.657C28.3807 106.824 28.1524 107.054 27.9068 106.663C27.5953 106.802 27.2843 106.941 26.9691 107.082C26.7611 106.9 26.6369 106.546 26.2181 106.859C26.0388 106.993 25.6954 106.914 25.719 106.514C25.719 106.512 25.5856 106.481 25.5707 106.503C25.3412 106.836 25.0753 106.136 24.8649 106.529C24.8177 106.616 24.8251 106.733 24.8177 106.776C24.6052 106.564 24.3799 106.338 24.0518 106.01C23.9785 106.401 23.9404 106.604 23.8766 106.945C23.7143 106.734 23.5407 106.602 23.5055 106.44C23.4467 106.17 23.2831 106.133 23.1249 106.247C22.9186 106.396 23.0491 106.569 23.2011 106.703C23.2234 106.722 23.2338 106.755 23.2632 106.804C22.8204 107.048 22.7276 106.549 22.5102 106.459C21.6855 106.854 20.8786 106.791 20.0875 106.514C19.4944 106.306 18.7836 106.283 18.4456 105.585C18.4079 105.507 18.1259 105.855 17.983 105.55C17.9018 105.687 17.8206 105.823 17.7125 106.004C17.5543 105.758 17.406 105.527 17.237 105.266C17.0531 105.35 16.8679 105.482 16.672 105.5C16.5979 105.506 16.4488 105.118 16.4206 105.129C15.8337 105.361 15.5425 104.934 15.2339 104.598C14.9059 104.24 14.4896 104.057 14.0584 103.884C13.983 103.14 13.375 103.269 12.6642 103.257C13.0933 102.982 13.3195 102.838 13.5456 102.693C13.4446 102.593 13.3373 102.488 13.194 102.347C13.0954 102.496 12.9956 102.649 12.9156 102.77C12.7777 102.744 12.7106 102.752 12.6754 102.723C12.144 102.274 11.642 101.786 11.0778 101.383C10.8363 101.211 11.0053 100.789 10.5654 100.743C10.4296 100.729 10.2134 100.271 10.2523 100.056C10.3161 99.6984 10.2362 99.5854 9.93379 99.4006C9.62231 99.2105 9.42225 98.8385 9.17249 98.547C8.40166 97.6469 7.35746 96.9974 6.77302 95.9267C5.86799 95.5075 5.60663 94.5205 4.96296 93.8665C4.46592 93.3624 4.41166 92.5547 3.84296 92.0709C3.78787 92.0233 3.82018 91.851 3.83882 91.7412C3.9084 91.3316 3.73858 91.0524 3.4445 90.7683C2.89444 90.2377 2.71302 89.49 2.49846 88.795C2.30296 88.1604 1.85769 87.5777 1.99852 86.8545C1.5603 86.3156 1.57148 85.5891 1.25213 85.0216C1.06864 84.6965 1.31965 84.5681 1.30391 84.3833C1.27822 84.0901 1.0471 83.8204 0.937751 83.5276C0.801893 83.1639 0.602663 82.8264 0.65568 82.3927C0.692959 82.0895 0.813905 81.7163 0.46432 81.4549C0.434083 81.4322 0.570355 81.2155 0.593965 81.0822C0.615917 80.9583 0.639527 80.7496 0.578225 80.7102C0.224497 80.4857 0.399704 80.2252 0.422485 79.9241C0.450237 79.5488 0.262604 79.1632 0.229882 78.7763C0.191775 78.3277 0.253905 77.8704 0.212485 77.4223C0.162781 76.8863 0.422899 76.3052 0 75.8189C0.542189 75.4171 0.0952663 74.8766 0.134615 74.4181C0.167337 74.0378 0.312722 73.6493 0.24645 73.2351C0.208343 72.9953 0.518166 72.7571 0.458107 72.427C0.405089 72.1358 0.47426 71.8235 0.438639 71.5265C0.409231 71.283 0.786568 71.0556 0.461006 70.7917C0.439882 70.7744 0.591065 70.4662 0.718225 70.3626C0.906272 70.2102 1.14485 70.1199 1.3884 69.9886C1.10716 69.8059 0.877278 69.6572 0.707041 69.5467C0.778698 69.089 0.874379 68.7066 0.890947 68.3206C0.919527 67.6442 0.783669 66.9401 0.92574 66.2939C1.13615 65.3421 0.993669 64.3758 1.15935 63.4509C1.31716 62.5719 1.32296 61.6694 1.57686 60.8083C1.59675 60.7412 1.60503 60.6633 1.64604 60.6119C1.80219 60.4164 2.12568 60.3083 1.82663 59.9397C1.74296 59.8365 2.03497 59.4857 2.01053 59.2645C1.96704 58.8719 2.17331 58.5707 2.25325 58.2261C2.40361 57.5729 2.66414 56.9612 2.74822 56.2723C2.82692 55.6241 3.11396 54.9941 3.17858 54.3107C3.22331 53.836 3.47142 53.3825 3.60728 52.9136C3.85083 52.0707 3.96639 51.193 4.28905 50.3716C4.94929 48.6879 5.44509 46.9462 6.26562 45.3138C6.65083 44.5475 7.05302 43.7622 7.3413 42.9388C7.52811 42.4045 7.88473 41.9455 8.17302 41.4833C9.13935 39.9309 9.65669 38.1316 10.8396 36.7075C11.5049 34.919 12.9947 33.6458 13.8095 31.9509C14.4618 31.6974 14.5757 30.9924 14.9899 30.5372C15.4066 30.0787 15.837 29.6218 16.1824 29.1107C16.9417 27.9882 18.0186 27.1701 18.8971 26.1665C19.2417 25.773 19.5217 25.3398 20.1343 25.2715C20.0246 25.1426 19.9583 25.0652 19.8812 24.9749C21.444 23.4129 22.9617 21.7917 24.5982 20.301C25.4456 19.529 26.2533 18.708 27.1318 17.9765C28.5124 16.8267 29.9368 15.7299 31.4035 14.682C33.991 12.8334 36.791 11.3675 39.6382 10.004C41.7047 9.01447 43.8631 8.21216 46.031 7.43967C48.0672 6.71441 50.1167 6.03263 52.1666 5.3521C52.8985 5.10896 53.6577 4.94743 54.4078 4.76186C55.0581 4.60074 55.7179 4.47607 56.3645 4.30252C56.9771 4.13808 57.6108 4.1095 58.223 3.88541C58.6724 3.72098 59.2055 3.84938 59.7088 3.6547C60.1983 3.465 60.7894 3.54867 61.2939 3.3834C61.7582 3.23139 62.2959 3.30678 62.6943 2.9518C63.5306 2.97583 64.3035 2.63535 65.1087 2.52642C65.9259 2.41541 66.7088 2.15902 67.5044 1.99334C68.2359 1.84133 69.0585 1.83429 69.72 1.3708C70.7808 1.43293 71.762 0.991391 72.805 0.884941C73.9101 0.77145 74.9899 0.411923 76.1227 0.466598C76.8095 0.0536391 77.5849 0.390385 78.2844 0.22429C79.8307 -0.141864 81.3876 0.0594379 82.9388 0.0229882C84.4817 -0.0134615 86.0267 0.0387278 87.5692 0.00310651C88.1635 -0.0105621 88.7157 0.130266 89.2848 0.233402C89.8506 0.336124 90.4694 0.0606805 90.9971 0.466598C91.6714 0.301331 92.2753 0.703935 92.9364 0.70642C93.3572 0.708077 93.8286 0.74784 94.1877 0.938787C94.927 1.33186 95.7525 1.33104 96.5213 1.57749C97.2859 1.82228 98.0137 2.20707 98.8325 2.27417C98.9174 2.56453 99.4518 2.36364 99.4153 2.80642C99.412 2.84784 99.5789 2.95015 99.6614 2.94476C100.715 2.87435 101.537 3.49027 102.461 3.82784C103.639 4.25861 104.807 4.73784 105.935 5.25476C107.294 5.87731 108.785 6.19624 110.037 7.10127C110.755 7.61902 111.67 7.85967 112.486 8.2453C113.193 8.57914 113.799 9.09648 114.473 9.46056C114.9 9.69086 115.1 10.3718 115.751 10.1817C116.122 10.4667 116.484 10.7657 116.867 11.0333C117.272 11.3162 117.687 11.59 118.117 11.8323C119.678 12.7112 121.027 13.8548 122.299 15.1049C122.767 15.5651 123.364 15.9043 123.784 16.3988C125.124 17.9749 126.562 19.4743 127.706 21.209C128.032 21.7052 128.319 22.2316 128.584 22.7643C128.972 23.5463 129.513 24.2326 129.809 25.0813C130.296 26.4743 130.826 27.837 131.058 29.3132C131.209 30.2671 131.359 31.2268 131.535 32.1704C131.735 33.2469 131.685 34.3002 131.696 35.3618C131.704 36.133 131.856 36.8521 132.091 37.5749C132.179 37.8458 132.134 38.1581 132.166 38.4497C132.189 38.668 132.246 38.8825 132.275 39.1004C132.344 39.6318 132.546 40.1599 132.183 40.6876C132.117 40.7845 132.418 41.0968 132.369 41.2513C132.23 41.68 132.247 42.2193 131.679 42.4202C131.452 42.5001 131.238 42.6534 131.055 42.8154C130.422 43.3745 129.804 43.9511 129.183 44.5243C129.113 44.5886 129.001 44.6784 129.009 44.7451C129.068 45.2533 128.679 45.3826 128.265 45.5661Z" fill="black"/>
</svg>
