<svg width="194" height="142" viewBox="0 0 194 142" fill="none" xmlns="http://www.w3.org/2000/svg">
<path fill-rule="evenodd" clip-rule="evenodd" d="M174.662 34.923C174.599 34.8865 174.536 34.8505 174.472 34.814C174.319 35.0199 174.201 35.2725 174.004 35.4196C173.79 35.5799 173.432 35.5774 173.261 35.7609C172.904 36.1444 172.445 36.3172 172.003 36.5383C171.856 37.2276 171.214 37.4218 170.748 37.793C170.384 38.0841 170.006 38.3617 169.658 38.6719C169.556 38.7634 169.535 38.9473 169.477 39.089C169.857 38.9345 170.065 38.5878 170.496 38.7063C170.815 38.7945 170.782 38.5104 170.903 38.3534C171.004 38.2229 171.451 38.2577 171.463 38.1769C171.531 37.73 171.893 37.66 172.186 37.4748C172.517 37.2657 172.87 37.0511 173.114 36.7562C173.36 36.458 173.681 36.4804 173.97 36.3938C173.898 36.2128 173.829 36.038 173.717 35.7547H174.662V34.923ZM65.8267 12.839C65.0621 13.252 64.7966 14.0037 64.4454 14.6938C64.1144 15.3445 63.9591 16.0805 63.6596 16.7321C63.3233 17.4644 63.1527 18.2282 63.122 18.975C63.0901 19.7557 62.5645 20.5108 62.963 21.3247C63.076 21.1309 63.2053 20.9586 63.279 20.7651C63.3291 20.6343 63.2802 20.469 63.3121 20.3273C63.4273 19.8133 63.5582 19.303 63.6824 18.7915C63.817 18.2398 64.0809 17.7125 63.9989 17.1198C64.5837 15.8975 64.8041 14.5236 65.5646 13.3737C65.6731 13.2093 65.7402 13.0175 65.8267 12.839ZM181.482 42.9717C181.63 42.9866 181.731 43.0285 181.77 42.9957C182.412 42.4535 183.077 41.9341 183.675 41.3464C184.915 40.1282 185.909 38.6992 186.831 37.2441C187.247 36.5889 187.736 35.9274 187.928 35.1106C188.014 34.7424 187.707 34.8252 187.668 34.6525C186.894 36.1535 186.204 37.708 185.109 38.9995C183.962 40.3527 182.719 41.6256 181.482 42.9717ZM172.674 14.8599C172.884 14.9962 173.057 15.1134 173.235 15.2235C173.413 15.3341 173.596 15.4373 173.777 15.5437C173.482 16.083 173.483 16.078 173.851 16.3448C173.995 16.4492 174.203 16.5788 174.222 16.7192C174.298 17.2697 174.634 16.9475 174.79 16.9731C174.756 16.5755 174.723 16.2002 174.691 15.8254C175.173 15.5131 174.707 15.1966 174.676 14.8901C174.656 14.6992 174.506 14.5057 174.368 14.3562C174.341 14.3276 174.099 14.4991 173.925 14.5948C173.799 14.3222 173.698 14.1064 173.536 13.7573C173.863 13.8911 174.033 13.9607 174.2 14.029C174.401 13.5373 173.85 13.7258 173.807 13.5224C173.756 13.2818 173.795 13.0217 173.795 12.6932H172.271C172.199 12.4998 172.159 12.395 172.062 12.1357C172.003 13.008 172.003 13.008 172.384 13.3393C172.428 13.2085 172.473 13.0776 172.52 12.9396C172.723 13.1293 172.902 13.2979 173.063 13.4479C173.264 13.3356 173.387 13.2673 173.603 13.1472C173.505 13.8422 173.004 13.9718 172.674 14.2286V14.8599ZM157.885 107.089C157.73 107.395 157.52 107.69 157.566 107.737C157.885 108.066 157.713 108.45 157.74 108.803C157.769 109.177 157.832 109.583 157.723 109.924C157.609 110.277 158.139 110.558 157.759 110.88C158.115 111.164 157.946 111.56 157.967 111.91C157.99 112.285 157.972 112.663 157.972 113.039C157.972 114.469 157.97 115.9 157.976 117.33C157.976 117.473 158.026 117.615 158.053 117.757C158.136 117.159 158.352 116.603 158.394 116.049C158.495 114.728 158.379 113.398 158.631 112.076C158.737 111.518 158.503 110.922 158.469 110.363C158.401 109.273 158.146 108.242 157.885 107.089ZM158.11 133.398C158.396 132.976 158.672 132.641 158.869 132.265C159.515 131.03 160.585 129.999 160.701 128.504C160.705 128.447 160.808 128.402 160.854 128.343C161.192 127.907 161.395 127.414 161.356 126.859C161.314 126.264 161.501 125.731 161.736 125.207C161.846 124.961 161.9 124.74 161.569 124.484C161.42 124.678 161.225 124.846 161.147 125.056C161.026 125.384 161.011 125.751 160.904 126.086C160.608 127.015 160.432 127.988 159.913 128.839C159.843 128.955 159.764 129.115 159.79 129.232C159.92 129.83 159.594 130.358 159.295 130.714C158.678 131.451 158.533 132.453 157.745 133.032L158.11 133.398ZM74.467 11.4812C73.9463 11.2108 73.5189 10.9883 73.086 10.7634C73.0119 10.8297 72.9021 10.9283 72.7961 11.0231C72.8752 11.113 72.9444 11.1909 72.9837 11.2356C72.473 11.6362 71.9723 12.0292 71.4769 12.4182C71.5179 12.4683 71.6575 12.5938 71.6392 12.6236C71.4731 12.8966 71.2648 13.1438 71.0962 13.4156C70.7197 14.0236 70.2873 14.6242 70.6261 15.424C71.1169 15.0869 71.3833 14.4121 72.0899 14.4767C72.0166 14.2883 71.8567 14.0667 71.9105 13.9834C72.164 13.5912 72.4113 13.1347 72.7857 12.8982C73.1668 12.6567 73.4936 12.3101 73.5856 11.994C73.7272 11.5069 74.0627 11.6577 74.467 11.4812ZM105.803 90.3128L105.962 90.153C105.902 90.0999 105.837 89.9968 105.783 90.0022C105.347 90.0436 104.817 90.0382 104.666 89.8808C104.07 89.2604 103.33 89.5051 102.686 89.6277C102.09 89.7412 101.546 90.1281 100.978 90.392C100.798 90.476 100.62 90.5883 100.431 90.6148C100.351 90.626 100.252 90.3737 100.116 90.5804C100.027 90.7167 99.9544 90.8637 99.7585 91.2133C100.44 90.9416 100.889 91.7261 101.427 91.1338C101.436 91.1238 101.694 91.2601 101.702 91.3421C101.734 91.6441 101.987 91.6321 102.105 91.5629C102.679 91.2253 103.318 91.4171 103.926 91.321C103.963 91.0924 103.996 90.8853 104.005 90.8277C104.16 90.9818 104.35 91.1711 104.506 91.3268C104.463 91.3417 104.331 91.3877 104.378 91.3715C104.526 91.5198 104.717 91.7104 104.88 91.8744C104.978 91.5198 104.63 90.882 105.344 90.6575C105.693 90.9453 106.061 90.9851 106.51 90.7792C106.252 90.6086 106.027 90.4603 105.803 90.3128ZM108.848 94.0564C108.558 94.507 108.067 93.9218 107.769 94.2867C107.417 93.9139 106.932 94.143 106.514 94.0162C106.307 94.0618 106.724 93.4508 106.194 93.7246C105.861 93.8969 105.404 93.829 104.953 93.8737C104.902 93.6149 104.857 93.385 104.784 93.0192C104.69 93.2889 104.644 93.4202 104.589 93.5759C104.308 93.3895 104.029 93.2052 103.71 92.9944C103.771 92.7806 103.836 92.552 103.905 92.3105C103.469 92.0359 102.967 91.9075 102.281 92.1535C102.745 92.3739 103.112 92.5479 103.509 92.7359C103.392 92.9749 103.292 93.1799 103.191 93.3854C102.988 93.2872 103.133 92.6692 102.594 93.0573C102.686 93.2636 102.784 93.4802 102.88 93.6944C102.795 93.7399 102.724 93.8041 102.695 93.7888C102.323 93.5929 101.957 93.3858 101.589 93.1812C101.247 93.8066 100.617 94.0353 99.867 94.2622C99.9399 94.0518 99.9925 93.8998 100.072 93.6704C99.8583 93.537 99.7693 93.1141 99.3083 93.163C99.3737 93.515 99.4354 93.8451 99.4947 94.1633C99.126 94.3285 99.0739 94.4275 99.1915 94.6648C98.6679 95.0774 98.578 94.2842 98.1597 94.2374C98.1187 94.507 98.0868 94.7141 98.0537 94.9299C97.8267 94.8956 97.7074 94.6023 97.3951 94.8471C96.9602 95.1872 96.3782 95.3388 95.9462 95.6809C95.5101 96.0263 95.1655 95.8565 94.7376 95.666C94.7227 95.8669 94.7094 96.045 94.6895 96.3125C94.0985 96.2024 93.6399 96.5884 93.1106 96.7562C91.8465 97.1571 90.6316 97.684 89.3927 98.1475C88.2851 98.5617 87.2033 99.0421 86.1048 99.4808C85.1998 99.8424 84.2947 100.205 83.3773 100.532C82.131 100.976 80.9314 101.54 79.7008 102.023C78.7395 102.4 77.776 102.828 76.8184 103.243C76.5024 103.38 76.2186 103.658 75.8144 103.558C75.729 103.537 75.5944 103.591 75.5228 103.656C74.6567 104.435 73.424 104.436 72.4983 105.087C72.4449 105.124 72.3566 105.14 72.2924 105.128C71.3522 104.942 70.665 105.56 69.8975 105.896C68.6773 106.431 67.4247 106.856 66.1308 107.166C65.8582 107.231 65.5666 107.272 65.3268 107.403C65.0994 107.527 64.8579 107.436 64.6591 107.524C64.404 107.638 64.1443 107.796 63.9587 108.001C63.6978 108.289 63.5283 107.699 63.2227 107.998C62.9994 108.216 62.5566 108.189 62.2518 108.349C61.7531 108.61 61.1222 108.505 60.6873 108.959C60.597 109.053 60.2959 109.032 60.1431 108.959C59.8664 108.826 59.7641 108.782 59.5901 109.133C59.4949 109.326 59.0301 109.368 58.722 109.417C57.7432 109.573 56.863 110.136 55.8408 110.102C55.0472 110.653 54.0862 110.596 53.2052 110.829C53.0023 110.884 52.8051 110.962 52.5996 111.002C52.2161 111.076 51.8292 110.909 51.4299 111.201C51.1491 111.406 50.638 111.072 50.2867 111.442C50.2188 111.515 49.9173 111.447 49.7814 111.357C49.4248 111.119 49.5988 111.501 49.5188 111.543C49.3917 111.61 49.1937 111.536 49.0595 111.596C48.4498 111.872 47.8102 111.986 47.1566 111.902C46.0006 111.753 44.8963 112.191 43.7465 112.163C43.399 112.154 43.0436 112.398 42.692 112.135C42.0388 112.471 41.3847 111.993 40.7332 112.138C40.4602 112.198 40.1355 112.42 39.9338 112.335C39.3999 112.109 38.8623 112.172 38.3221 112.128C37.7862 112.084 37.2547 111.984 36.7208 111.909C36.6496 111.899 36.539 111.916 36.5133 111.876C36.283 111.524 35.9127 111.733 35.6601 111.644C35.0847 111.44 34.4531 111.569 33.9067 111.242C33.4979 110.997 33.1185 110.799 32.9176 110.547C32.8427 110.706 32.7714 110.859 32.6695 111.076C31.8432 110.443 30.6205 110.543 29.9317 109.455H29.0937C28.9885 109.268 28.9053 108.992 28.8233 108.992C28.2475 108.996 27.7695 108.964 27.8114 108.177C27.8176 108.056 27.5049 107.918 27.1271 107.619C27.2762 108.055 27.34 108.242 27.4531 108.573C27.0144 108.281 26.6988 108.086 26.3994 107.868C26.1169 107.662 25.7979 107.472 25.5925 107.201C25.3527 106.886 24.9501 106.791 24.7417 106.45C24.5553 106.145 24.3532 105.837 24.0997 105.591C23.8334 105.332 23.6979 104.981 23.343 104.764C23.1073 104.62 23.0613 104.165 22.9271 103.843C23 103.764 23.1011 103.655 23.1988 103.549C23.2858 103.627 23.3641 103.697 23.5455 103.858C23.514 103.623 23.5376 103.47 23.4734 103.377C23.2191 103.007 22.8194 102.83 22.428 102.642C22.2698 102.565 22.0639 102.467 22.008 102.327C21.9297 102.132 22.0275 101.867 21.9463 101.675C21.8808 101.519 21.5317 101.426 21.5337 101.309C21.5441 100.72 21.1324 100.197 21.286 99.5955C20.8619 98.6366 21.1303 97.6247 21.0611 96.6389C20.9327 94.8077 21.4492 93.0814 22.0519 91.4009C22.7308 89.5068 23.7302 87.7709 24.9741 86.1688C25.8406 85.0529 26.664 83.9109 27.6101 82.8531C28.9044 81.4059 30.0418 79.8257 31.1333 78.2178C31.4675 77.7261 31.6328 77.1446 31.9952 76.6488C32.3361 76.1824 32.5411 75.5975 32.7221 75.0379C32.8853 74.5347 32.9495 73.997 33.0295 73.4706C33.0933 73.0473 32.9056 72.5896 33.2486 72.1994C33.3161 72.1232 33.256 71.9128 33.2204 71.7732C33.1773 71.6059 33.0498 71.4505 33.0411 71.2861C32.9147 68.863 31.598 66.8583 29.7465 65.5291C28.6166 64.7177 27.4079 64.0653 26.254 63.314C24.6274 62.2557 22.8989 61.3734 21.2815 60.3007C20.0231 59.4664 18.6902 58.7453 17.3921 57.9716C15.9358 57.1038 14.3867 56.3831 13.0944 55.2561C12.3832 55.1401 12.005 54.484 11.3829 54.2069C10.6875 53.8971 10.2219 53.2572 9.58444 52.8359C8.85503 52.3538 8.24781 51.6869 7.58468 51.1033C7.20361 50.7674 6.91326 50.3395 6.40876 50.1258C6.15154 50.0173 5.88065 49.7547 5.78166 49.4975C5.58201 48.9776 5.13675 48.7038 4.80166 48.3224C3.19704 46.4937 1.93 44.4819 1.15379 42.1491C0.832783 41.1849 0.721777 40.1609 0.27444 39.2393C0.431008 38.4201 0.011422 37.6588 0.0420729 36.8473C0.0718954 36.0579 -0.0933709 35.2332 0.0818362 34.4835C0.34444 33.3598 0.312132 32.1486 0.952073 31.1222C1.16166 29.5723 2.67391 26.8419 3.36148 25.7944C4.1671 24.5679 5.25894 23.5904 6.34621 22.6469C6.89627 22.1693 7.5648 21.7025 8.35385 21.5269C8.8629 21.4134 9.32391 21.1533 9.84994 21.0286C10.3325 20.9143 10.7065 20.8144 11.1783 21.0041C11.3523 21.0741 11.6161 20.8815 11.8423 20.8675C12.2548 20.8418 12.6736 20.8289 13.0836 20.8704C13.3905 20.9014 13.6772 21.2001 14.0023 20.9192C14.3515 21.2701 14.7984 20.9722 15.1728 21.0949C15.5013 21.2025 15.7933 21.42 16.1209 21.5306C16.6515 21.7087 17.1999 21.8338 17.7376 21.9928C17.9033 22.0417 18.0739 22.1047 18.2151 22.2012C19.0684 22.784 20.0886 22.9546 21.0255 23.3262C22.027 23.7238 23.0804 24.0042 24.0454 24.4876C24.7347 24.833 25.4765 25.0467 26.1815 25.3313C26.9229 25.6308 27.6353 26.0052 28.3908 26.2715C29.9404 26.8179 31.3731 27.6189 32.8522 28.3181C34.7418 29.2115 36.6276 30.1137 38.5069 31.0291C41.7977 32.6312 45.0773 34.2557 48.3719 35.8491C49.185 36.2426 50.0179 36.6224 50.8815 36.8709C51.2999 36.9915 51.6308 37.2549 52.0409 37.3535C52.6572 37.5014 53.2686 37.6708 53.8882 37.7992C54.3791 37.9011 54.9179 37.863 55.3665 38.051C56.1576 38.382 57.0117 38.3936 57.8219 38.6582C58.6772 38.9374 59.5934 38.5688 60.3183 37.962C60.6347 37.6969 60.8978 37.3696 61.2026 37.0901C62.3984 35.9941 62.683 34.6844 62.1847 33.1597C61.9651 32.4879 61.7009 31.8189 61.727 31.0895C61.2734 30.6733 61.7361 29.9944 61.2921 29.5752C61.3878 28.7447 61.1479 27.9238 61.4478 27.0593C61.6462 26.4878 61.8256 25.8221 61.7407 25.1366C61.5253 23.3924 61.8993 21.6594 62.0062 19.9256C62.0803 18.7219 62.3876 17.4954 62.7298 16.2967C62.963 15.4804 63.3337 14.7269 63.6174 13.9453C63.9351 13.0697 64.5585 12.2964 65.0973 11.5119C66.2318 9.86172 67.7428 8.6071 69.4121 7.53059C70.6207 6.75106 71.8836 6.06846 73.2525 5.62527C73.8212 5.44136 74.4483 5.38172 75.015 5.22556C75.6425 5.05243 76.2899 5.21893 76.8416 5.01059C77.431 4.78775 77.9993 4.78651 78.5667 4.8358C79.6391 4.92899 80.7069 5.09716 81.7689 5.27775C82.8078 5.45462 83.7695 5.8858 84.7504 6.25692C86.0406 6.74609 87.2505 7.36947 88.3485 8.2074C88.5183 8.33704 88.7391 8.42361 88.8642 8.58556C89.5447 9.46574 90.2555 10.3293 90.8565 11.2625C91.875 12.8444 93.0277 13.971 94.4431 15.0691C94.6725 15.2467 94.825 15.523 95.0143 15.755C95.3858 15.6237 95.648 15.4621 95.9135 15.4555C96.2225 15.4485 96.4586 15.3101 96.7286 15.2302C97.0057 15.1482 97.3479 15.1428 97.6208 15.2306C97.9141 15.325 98.0731 14.8872 98.3863 15.1246C98.4728 15.1896 98.7355 15.0218 98.9173 14.9605C99.1157 14.8938 99.3344 14.8599 99.5071 14.7522C99.7722 14.5869 99.8724 15.0786 100.164 14.8678C100.319 14.7559 100.584 14.8069 100.792 14.7559C101.029 14.6983 101.254 14.5861 101.492 14.5397C101.824 14.4747 102.117 14.6789 102.419 14.7249C102.63 14.7567 102.874 14.3902 103.134 14.3251C103.476 14.2402 103.821 14.2663 104.181 14.1185C104.502 13.9867 105.066 13.8704 105.228 14.5173C105.239 14.5596 105.561 14.5231 105.772 14.5231C105.672 14.3169 105.602 14.1711 105.529 14.0186C105.896 13.8679 106.172 13.3899 106.617 13.8128C106.773 13.5655 106.912 13.8343 107.013 13.8219C107.304 13.7859 107.412 13.078 107.881 13.5829C108.192 13.4545 108.494 13.2934 108.816 13.2151C108.948 13.1832 109.146 13.4139 109.272 13.3783C109.455 13.3265 109.597 13.0088 109.817 13.2714C110.02 13.5154 110.116 13.1447 110.214 13.2242C110.308 13.3012 110.327 13.4707 110.38 13.5999C111.143 13.3567 111.143 13.3567 111.327 12.6824C111.522 12.7752 111.728 12.8386 111.89 12.9604C112.033 13.0668 112.128 13.2387 112.231 13.365C112.355 13.16 112.482 12.9488 112.605 12.7458C114.191 13.1641 114.309 13.1306 114.875 12.0889H115.641C115.691 12.1949 115.761 12.3453 115.843 12.5188C115.985 11.9514 115.985 11.9514 116.556 11.6386C116.797 11.574 116.367 12.2446 116.882 11.924C117.16 11.7505 117.48 11.7538 117.803 11.9559C117.948 12.047 118.221 12.0226 118.4 11.9551C118.755 11.8205 119.265 11.8246 119.198 11.1925C119.186 11.084 119.373 10.8869 119.674 11.0948C119.966 11.2961 120.417 11.2683 120.872 11.3553C120.805 11.1582 120.741 10.968 120.658 10.722C121.291 10.9507 121.813 11.1022 122.3 10.5787C122.456 10.4109 122.68 10.7821 123.016 10.5779C123.477 10.2975 124.098 10.2801 124.727 10.1318C124.744 10.0199 124.775 9.81284 124.805 9.62024C124.86 9.59414 124.893 9.56266 124.922 9.56639C125.194 9.59953 126.252 9.43757 126.563 9.34148C127.099 9.17704 127.64 9.02876 128.183 8.8871C130.72 8.22479 133.151 7.22905 135.661 6.49716C137.444 5.97734 139.228 5.44219 141.039 4.99982C142.563 4.62787 144.098 4.24225 145.603 3.76799C146.444 3.5029 147.34 3.41385 148.208 3.23491C148.483 3.17817 148.746 3.06964 149.02 3.0158C149.475 2.92592 149.936 2.8613 150.394 2.78592C150.853 2.71053 151.331 2.69438 151.765 2.54775C152.744 2.21763 153.79 2.25947 154.776 1.91485C155.329 1.72142 155.987 1.89041 156.598 1.67627C157.097 1.50189 157.737 1.64314 158.171 1.3942C158.674 1.10592 159.209 1.26621 159.722 1.02805C160.234 0.791124 160.924 0.989941 161.536 0.781183C161.777 0.698757 162.149 0.895917 162.423 1.0384C162.814 1.24178 163.152 1.32006 163.509 0.98497C163.671 0.833373 165.652 0.0397633 165.728 0.113491C166.148 0.523136 166.512 0.15284 167.014 0C166.955 0.244793 166.922 0.393491 166.881 0.540118C166.848 0.662308 166.807 0.782426 166.747 0.973787C167.266 0.803136 167.282 0.444024 167.227 0.0447337C167.439 0.166923 167.613 0.319349 167.661 0.286213C167.921 0.11142 168.124 0.187219 168.396 0.274615C168.585 0.335089 168.849 0.134201 169.086 0.0807692C169.23 0.0484615 169.39 0.0538462 169.536 0.0795266C169.751 0.118047 169.918 0.516923 170.18 0.175207C170.43 -0.149112 170.648 0.376923 170.797 0.219112C171.223 -0.229882 171.532 0.289527 171.891 0.322663C172.195 0.350828 172.592 0.40716 172.674 0.861124C172.682 0.905858 172.953 0.970888 173.034 0.919527C173.191 0.820533 173.321 0.644083 173.505 0.815562C174.006 1.28444 174.745 1.34615 175.229 1.84527C175.346 1.9658 175.535 2.10249 175.681 2.09172C176.018 2.06728 176.156 2.31 176.305 2.4968C176.517 2.76272 176.742 2.99675 177.015 3.20178C177.303 3.41716 177.489 3.6984 177.942 3.7274C178.288 3.74935 178.47 4.25716 178.889 4.41083C180.075 4.84615 181.17 5.51592 182.197 6.21467C183.2 6.89645 184.256 7.52604 185.173 8.36065C185.739 8.87675 186.339 9.36633 186.892 9.90438C187.78 10.7676 188.381 11.8611 189.172 12.7909C190.273 14.0833 190.903 15.6063 191.636 17.0891C192.293 18.4175 192.692 19.8191 193.03 21.263C193.237 22.149 193.21 23.1021 193.667 23.9296C193.683 23.9586 193.674 24.005 193.668 24.0415C193.5 24.9353 193.932 25.7741 193.901 26.6592C193.871 27.5241 193.916 28.3918 193.885 29.2567C193.872 29.6042 193.723 29.9447 193.675 30.2938C193.632 30.6128 193.662 30.9135 193.471 31.2328C193.327 31.4735 193.405 31.8388 193.248 32.1544C193.155 32.3408 193.386 32.6759 193.438 32.9501C193.495 33.2537 193.472 33.5391 193.056 33.5602C192.97 34.1695 192.465 34.6492 192.379 35.1897C192.209 36.2538 191.376 36.9662 191.139 37.9624C190.628 38.2627 190.747 38.942 190.28 39.3176C189.915 39.6113 189.748 40.1419 189.456 40.5395C189.134 40.9786 188.768 41.3857 188.424 41.8091C188.357 41.8911 188.24 42 188.257 42.0712C188.406 42.7236 187.893 43.0007 187.542 43.3623C186.964 43.9559 186.394 44.5598 185.782 45.1165C184.737 46.0666 183.676 46.9953 182.482 47.7719C181.697 48.2822 181.061 49.0385 180.248 49.4854C179.344 49.9829 178.528 50.5959 177.657 51.1315C176.553 51.8104 175.411 52.4234 174.279 53.0554C173.087 53.7219 171.85 54.3005 170.667 54.9778C169.965 55.3795 169.317 55.9093 168.575 56.1996C167.548 56.6006 166.676 57.253 165.725 57.7674C164.545 58.4057 163.466 59.2308 162.346 59.9792C161.382 60.6229 160.63 61.4998 159.799 62.2905C159.459 62.614 159.164 62.9702 158.713 63.2017C158.315 63.4063 158.022 63.8251 157.811 64.2741C157.396 65.158 156.976 66.0411 156.714 66.9813C156.608 67.362 156.671 67.7869 156.608 68.1837C156.56 68.4865 156.874 68.9699 156.238 69.0424C156.198 69.0469 156.169 69.3062 156.168 69.4475C156.161 70.2378 156.177 71.0289 156.16 71.8192C156.15 72.3324 156.559 72.7743 156.391 73.307C156.853 73.7605 156.51 74.405 156.805 74.948C157.062 75.4206 156.951 76.0796 157.079 76.6388C157.243 77.3533 157.618 78.0434 157.656 78.7575C157.702 79.6066 158.151 80.3045 158.281 81.1172C158.401 81.8586 158.9 82.5391 159.02 83.2809C159.18 84.2667 159.504 85.1912 159.767 86.1402C159.794 86.2383 159.647 86.3841 159.572 86.5266C159.679 86.5635 159.81 86.6086 159.975 86.665C160.011 87.3617 160.146 88.0501 160.406 88.7202C160.507 88.9816 160.42 89.3109 160.465 89.6021C160.507 89.8771 160.643 90.1393 160.674 90.4143C160.711 90.7366 160.704 91.0398 160.892 91.3467C161.05 91.6035 161.111 91.9498 161.121 92.2596C161.132 92.5959 161.187 92.8999 161.362 93.1816C161.526 93.4459 160.927 93.7308 161.403 93.9992C161.736 94.1877 161.46 94.5982 161.604 94.8107C161.947 95.3176 161.822 95.9153 161.998 96.4554C162.112 96.803 162.191 97.2085 162.257 97.5924C162.322 97.9706 162.157 98.3877 162.457 98.7261C162.092 98.9195 162.485 99.0624 162.498 99.2302C162.512 99.4017 162.605 99.5657 162.626 99.7376C162.652 99.9389 162.645 100.145 162.639 100.349C162.636 100.429 162.559 100.56 162.585 100.581C163.181 101.053 162.867 101.809 163.147 102.388C163.276 102.653 163.269 102.999 163.357 103.311C163.48 103.744 163.732 104.172 163.64 104.679C163.601 104.891 163.718 105.181 163.858 105.364C164.108 105.693 164.085 106.05 164.067 106.408C164.04 106.951 164.137 106.926 164.266 107.51C164.389 108.066 164.727 108.564 164.732 109.123C164.737 109.63 165.353 110.124 164.787 110.653C164.782 110.659 164.954 110.854 165.044 110.96C165.278 111.235 165.247 111.584 165.337 111.898C165.452 112.299 165.46 112.632 165.229 112.985C165.359 113.015 165.462 113.039 165.564 113.062C165.591 113.089 165.638 113.113 165.641 113.142C165.723 113.787 165.794 114.433 165.882 115.078C165.96 115.649 165.682 116.253 166.093 116.801C166.227 116.98 165.731 117.239 166.086 117.532C166.164 117.596 165.997 117.957 165.942 118.182C166.069 118.227 166.2 118.272 166.326 118.316C166.292 118.964 165.58 119.495 166.071 120.189C165.723 120.333 165.158 120.229 165.212 120.941C165.415 120.841 165.559 120.77 165.692 120.704C165.769 120.762 165.874 120.806 165.872 120.845C165.858 121.098 165.821 121.349 165.791 121.6C165.781 121.68 165.746 121.825 165.759 121.83C166.339 122.024 165.731 122.543 166.072 122.894C166.383 123.215 165.969 123.726 165.843 124.113C165.727 124.468 165.686 124.803 165.648 125.16C165.595 125.659 165.626 126.222 165.395 126.63C165.15 127.06 165.341 127.509 165.14 127.884C164.936 128.265 164.678 128.614 164.75 129.079C164.221 129.685 164.266 130.539 163.838 131.184C163.753 131.31 163.555 131.36 163.401 131.449V132.565C163.101 132.742 162.698 132.809 162.701 133.275C162.153 133.57 162.869 133.901 162.665 134.239C162.573 134.248 162.43 134.304 162.375 134.257C162.231 134.134 162.148 134.011 161.96 134.226C161.828 134.376 161.907 134.418 161.96 134.559C162.099 134.929 161.795 135.446 161.728 135.378C161.305 134.951 161.265 135.504 161.067 135.6C160.989 135.638 160.9 135.79 160.919 135.864C161.095 136.564 160.525 136.737 160.113 136.98C158.934 137.673 158.926 137.66 157.972 137.696C157.972 137.909 157.943 138.131 157.979 138.342C158.033 138.656 157.872 138.86 157.649 138.995C156.958 139.411 156.272 139.844 155.545 140.186C154.855 140.512 154.132 140.871 153.392 140.965C152.287 141.105 151.254 141.596 150.104 141.521C149.017 141.45 147.921 141.495 146.829 141.509C145.667 141.523 144.577 141.172 143.464 140.911C142.705 140.733 141.989 140.499 141.281 140.172C140.841 139.969 140.33 139.834 139.802 139.919C139.096 140.032 138.466 139.745 137.845 139.47C136.147 138.719 134.872 137.791 133.433 136.75C132.698 136.219 131.937 135.74 131.302 135.072C130.256 133.968 129.533 132.754 128.809 131.017C128.435 130.118 127.923 129.263 127.386 128.446C126.344 126.863 125.685 125.343 124.721 123.337C123.917 121.664 123.33 119.917 122.649 118.207C122.291 117.308 121.888 116.413 121.579 115.485C121.273 114.563 120.952 113.647 120.405 112.801C120.079 112.297 119.883 111.658 119.552 111.133C118.933 110.15 118.481 109.09 117.988 108.05C117.39 106.791 116.732 105.55 116.216 104.266C115.756 103.119 115.03 102.133 114.572 100.992C114.12 99.8631 113.499 98.8002 112.937 97.7167C112.399 96.6808 111.694 95.8105 110.573 95.3408C109.899 95.0588 109.303 94.6491 108.848 94.0564Z" fill="black"/>
</svg>
