<svg width="71" height="70" viewBox="0 0 71 70" fill="none" xmlns="http://www.w3.org/2000/svg">
<path fill-rule="evenodd" clip-rule="evenodd" d="M63.7297 27.1258C63.3512 27.0081 63.0132 27.233 62.7899 26.9307C62.5567 26.6146 62.3612 26.2924 62.367 25.8629C62.3857 24.5092 62.3902 23.1552 62.362 21.802C62.3558 21.4856 62.4751 21.2511 62.5977 20.9918C62.9299 20.2898 63.2845 19.6014 63.7902 19.0049C64.0263 18.7262 64.2993 18.4963 64.6509 18.3604C64.8381 18.2884 64.9989 18.5224 65.2416 18.3C65.4354 18.1227 65.6703 18.6234 65.961 18.6036C66.1383 19.0505 65.7705 19.2568 65.5303 19.5347C65.8376 19.6755 66.1603 19.6643 66.4486 19.8366C66.731 20.0056 66.9526 20.1593 66.886 20.4994C66.8039 20.9198 67.1457 21.0759 67.3378 21.3269C67.2538 21.4392 67.0595 21.5121 67.1229 21.6848C67.6369 23.0918 67.2625 24.0557 66.8122 25.2088C66.6876 25.5294 66.5032 25.9101 66.485 26.1851C66.4407 26.8619 65.9805 27.3494 65.8699 27.979C65.7883 28.4446 65.4851 28.7275 64.9512 28.6997C64.851 28.6943 64.7661 28.9255 64.4997 28.872C64.4273 28.7946 64.1961 28.6595 64.2015 28.5336C64.2181 28.1169 64.1626 27.7905 63.7376 27.595C63.6817 27.5694 63.7297 27.3179 63.7297 27.1258Z" fill="black"/>
<path fill-rule="evenodd" clip-rule="evenodd" d="M41.265 60.9572C41.728 61.0744 42.3071 60.724 42.6828 61.272C42.5262 61.5843 42.373 61.8899 42.228 62.1791C42.4276 62.3833 42.5507 62.2884 42.7383 62.2155C43.4329 61.9434 43.5965 62.0328 43.8413 62.7266C43.8769 62.8273 43.8595 62.9772 43.9722 63C44.7641 63.157 44.5827 63.9514 44.912 64.4087C44.5728 64.8097 45.1411 65.2118 44.9547 65.5357C44.7443 65.9019 44.8118 66.4122 44.3789 66.6557C44.2509 66.7278 44.316 66.8566 44.299 66.9614C44.1507 67.8747 43.7585 68.5971 42.812 68.9082C42.6869 68.9496 42.6294 69.1521 42.363 69.0734C42.2433 68.8282 42.095 68.5246 41.9463 68.2206C41.709 68.1452 41.2882 68.361 41.3515 67.7927H40.0588C39.978 67.1776 40.0667 66.5269 39.5725 66.0639C39.5336 66.0274 39.5299 65.9052 39.5601 65.8505C39.853 65.3228 39.6608 64.6986 39.8815 64.1776C39.9934 63.9137 40.0733 63.7203 39.9138 63.478C39.5291 62.8931 39.9176 62.4408 40.2199 62.0254C40.5037 61.6348 40.898 61.3241 41.265 60.9572Z" fill="black"/>
<path fill-rule="evenodd" clip-rule="evenodd" d="M52.3778 31.9821C52.2154 32.347 51.8762 32.2534 51.5212 32.3341C51.5941 32.8063 51.358 33.315 51.7366 33.7664C51.3817 33.7789 51.3817 33.7789 51.194 33.6385C50.9401 33.7863 50.8556 34.0585 50.6696 34.3256C50.7276 33.5043 50.3938 32.9124 49.8081 32.5218C49.5422 32.4696 49.5024 32.6688 49.3715 32.7193C48.9275 31.9005 48.9163 31.4917 49.2692 29.3419C49.4527 28.2277 50.028 27.3095 50.842 26.3833C51.0872 26.3299 51.4885 27.0382 51.8601 26.3622C52.22 27.0013 51.5581 27.3538 51.5221 27.9693C51.8812 27.8073 52.2295 27.6773 52.5932 27.8057C52.7841 27.9705 52.5364 28.241 52.7452 28.4183C53.0749 28.6983 53.3682 29.0035 52.9159 29.4244C53.4046 29.7864 52.7953 30.1024 52.8695 30.4682C52.9407 30.8211 52.8848 31.2001 52.8848 31.579C52.5286 31.5086 52.4627 31.0886 52.0792 31.1557C51.7499 31.5873 52.3298 31.6573 52.3778 31.9821Z" fill="black"/>
<path fill-rule="evenodd" clip-rule="evenodd" d="M10.9351 55.4894C10.7918 55.2185 10.4249 55.3784 10.1871 55.2757V54.7708C10.1598 54.7401 10.1258 54.6846 10.1117 54.6892C9.48959 54.8971 9.16527 54.2456 8.62101 54.1781C8.10036 54.1135 7.80213 53.7212 7.69982 53.2022C7.65923 52.9935 7.75077 52.8414 7.93633 52.7416C7.04456 51.9944 7.6029 51.2513 7.8916 50.4933C8.2619 49.522 9.02403 49.4069 9.88515 49.4541C10.0579 49.9387 9.96095 50.3405 9.63332 50.642C10.3109 51.0844 10.5122 50.4242 10.9414 50.3011C11.0809 50.5675 11.2056 50.8052 11.3162 51.0156C11.3104 51.265 10.9459 51.3528 11.1224 51.6316C11.4268 51.9948 11.532 51.4091 11.8489 51.5048C12.2751 51.8884 12.225 52.4736 12.2142 53.0026C12.3894 53.0481 12.4913 53.0751 12.6491 53.1161C12.592 53.3977 12.1985 53.4789 12.2101 53.7813C12.2088 54.1097 12.5576 53.8604 12.6582 54.1035C12.1218 54.5459 11.7569 55.2094 10.9351 55.4894Z" fill="black"/>
<path fill-rule="evenodd" clip-rule="evenodd" d="M37.1675 39.7422H38.0933C38.283 39.932 38.2337 40.4406 37.9794 40.9745C38.5137 41.4111 38.7216 40.7769 39.0149 40.6411C39.3599 40.6249 39.3798 40.924 39.5322 40.9604C39.6295 41.2893 39.234 41.3589 39.3616 41.6989C39.5985 41.8389 40.1092 41.7072 40.2119 42.1115C40.2852 42.4006 40.3552 42.7792 39.9911 43.0368C40.1402 43.089 40.2707 43.1346 40.4016 43.1801C40.3722 43.5007 39.9406 43.7409 40.1978 44.1568C39.712 44.8046 38.8881 45.066 38.2556 45.5821C38.1409 45.6757 37.899 46.0008 37.5788 45.7854C37.4496 45.6119 37.7478 45.6123 37.7209 45.4562C37.4036 45.2565 37.0064 45.4976 36.6647 45.3211C36.5587 45.0697 36.7247 44.7011 36.3213 44.5462C35.8433 44.7756 35.3616 44.8676 34.9408 44.2082C35.4917 43.8474 36.2331 43.7244 36.3561 42.8989C35.8972 42.8856 35.613 43.2928 35.176 43.3549C35.0853 43.2729 34.9776 43.176 34.8314 43.0443C34.8 43.0215 34.8563 42.9925 34.8985 42.9117C35.1541 42.4259 35.9502 42.4917 36.0065 41.8149C36.5106 41.6157 36.4721 41.054 36.5636 40.7028C36.6692 40.2964 36.883 40.067 37.1675 39.7422Z" fill="black"/>
<path fill-rule="evenodd" clip-rule="evenodd" d="M18.0442 65.538C18.1734 65.2377 18.4335 65.1702 18.2219 64.8219C18.0802 64.6719 17.7468 64.9159 17.4531 64.7543C17.4369 64.6765 17.4162 64.5738 17.3885 64.4358C17.3554 64.3816 17.2911 64.3555 17.2514 64.4143C17.1284 64.5978 16.9486 64.5928 16.7593 64.5891C16.2064 64.5787 16.0879 64.4193 16.0423 63.8551C16.0225 63.6066 16.2233 63.4956 16.2432 63.2549C16.0589 63.2417 15.8812 63.2288 15.6385 63.2114C15.4596 62.3756 15.9475 61.6396 16.1045 60.8683C16.1844 60.4769 16.7879 60.2872 17.2733 60.2913C17.4502 60.3717 17.3947 60.544 17.42 60.6123C17.5016 60.7714 17.5301 60.7416 17.6126 60.6711C17.8632 60.4566 18.1647 60.4036 18.366 60.6989C18.5727 61.0021 18.8664 60.9561 19.1414 61.0046C19.2984 61.1661 19.1811 61.3637 19.2226 61.5377C19.3605 61.7294 19.5664 61.6114 19.7726 61.6739C20.1972 61.9593 19.9942 62.5835 20.3509 62.9414C19.1629 64.8235 18.8784 65.1565 18.0442 65.538Z" fill="black"/>
<path fill-rule="evenodd" clip-rule="evenodd" d="M31.0559 17.1386C30.9445 16.538 30.5427 16.3346 29.9368 16.4916C29.3954 15.4648 29.5884 14.3953 29.7106 13.3578C29.7363 13.1374 29.8647 12.8682 29.8274 12.6342C29.7541 12.1732 30.0329 11.8024 30.1066 11.3816C30.1638 11.0556 30.6567 10.9827 30.9632 10.8125C31.3745 11.1758 31.3745 11.1758 31.4871 11.7005C31.6205 11.7092 31.7638 11.7184 31.6619 11.7117C32.2385 11.732 31.9983 12.1156 32.2426 12.2245C32.3818 12.2866 32.5997 12.4266 32.5446 12.6466C32.4547 13.0061 32.9861 13.2534 32.76 13.557C32.5305 13.8647 32.6651 14.2197 32.5317 14.4807C32.19 15.15 32.0823 15.8794 31.8906 16.5827C31.7651 17.0433 31.5265 17.1717 31.0559 17.1386Z" fill="black"/>
<path fill-rule="evenodd" clip-rule="evenodd" d="M54.8963 49.9924C54.731 49.8499 54.6175 49.6846 54.3479 49.6627C53.6624 49.6067 53.6644 49.5802 53.5008 48.8235C52.9988 48.6557 52.5279 48.8202 52.107 49.0161C51.8933 48.8003 52.0412 48.6015 51.9529 48.4138C52.1091 48.36 52.24 48.3148 52.4024 48.2589V46.9629C52.1774 47.0345 51.967 47.1016 51.6506 47.2019C51.5292 47.2114 51.4957 46.9534 51.3213 46.8999C51.5727 46.2455 52.0967 45.8425 52.5523 45.3831C53.1082 45.5053 53.7108 44.8844 54.2103 45.538C54.1896 45.577 54.1573 46.3238 54.2021 46.4754C54.0927 46.4882 53.9883 46.5027 53.8835 46.5127C53.8102 46.5197 53.7365 46.5209 53.6628 46.5251C53.4801 46.6932 53.6222 46.9944 53.3687 47.1613C53.9366 46.9629 54.4303 46.7206 54.8014 46.2803C54.9584 46.4658 55.1133 46.6174 55.4016 46.5408C54.907 46.9413 55.5706 47.4471 54.9853 47.817C55.4285 47.8356 55.4745 47.5457 55.6505 47.4844C55.8154 47.4272 56.0001 47.4272 56.1637 47.404C56.365 47.8203 56.6429 48.1815 56.4226 48.7208C56.136 48.9697 55.4521 48.9138 55.3403 49.6216C55.8518 49.5222 56.189 49.2335 56.4412 48.98C56.761 49.0389 56.7316 49.195 56.7212 49.3416C56.1496 49.3011 56.2047 50.0131 55.7226 50.1531C55.3357 50.2653 55.0127 50.5987 54.5289 50.9235C54.5773 50.4882 54.7422 50.2409 54.8963 49.9924Z" fill="black"/>
<path fill-rule="evenodd" clip-rule="evenodd" d="M44.5256 16.1258C44.393 16.2587 44.2601 16.3913 44.1267 16.5246C44.519 16.7814 43.7258 17.2362 44.2845 17.4657C43.4184 18.4913 43.4072 18.5174 43.3604 19.5881H42.3084C42.2218 19.5446 42.3034 19.3611 42.2226 19.2447C41.1693 19.1221 40.9448 18.8773 40.9104 17.8207C40.9013 17.5374 40.9945 17.2251 40.6963 17.0184C40.9158 16.7131 40.7928 16.3213 41.0223 15.9845C41.463 15.3388 42.018 14.8119 42.5478 14.2598C42.7661 14.1533 42.9653 14.2196 43.1475 14.2399C43.2461 14.6595 42.6749 14.92 43.0734 15.3686C43.2022 15.1814 43.3236 15.0041 43.4503 14.8194C43.8475 15.2982 44.5214 15.4361 44.5256 16.1258Z" fill="black"/>
<path fill-rule="evenodd" clip-rule="evenodd" d="M61.47 0.536391C61.3138 0.801479 60.9531 0.490828 60.7932 0.79071C61.1117 0.956391 61.4509 0.837929 61.8196 0.885562C61.9559 1.35609 62.2296 1.78811 62.4102 2.28142C62.7921 3.32645 62.5415 4.22734 62.1555 5.16716C62.0022 5.54118 61.7744 5.68284 61.3358 5.5913C61.2281 5.36018 61.0989 5.08266 60.9506 4.76456C60.7004 4.67178 60.3082 4.77325 60.1139 4.3226C60.1375 3.57249 60.1698 2.73746 59.626 2.02751C59.7896 1.72888 59.9379 1.45923 60.0944 1.17426C59.9693 1.12911 59.8393 1.08189 59.6425 1.01065C59.7486 0.646568 59.8774 0.299053 60.2021 0H61.1581C61.2907 0.15574 61.5247 0.261775 61.47 0.536391Z" fill="black"/>
<path fill-rule="evenodd" clip-rule="evenodd" d="M28.7702 28.2628C28.614 28.5121 28.3721 28.4239 28.1774 28.4376C27.6377 27.9538 27.9844 27.1863 27.5806 26.6627C28.2507 25.3522 28.2507 25.3522 29.3935 24.8241C29.6238 24.8813 29.7564 25.0403 29.84 25.2507C29.9042 25.4988 29.4735 25.5543 29.618 25.8397C29.8326 26.087 29.9929 25.9284 30.1511 25.7556C30.801 26.0108 30.6403 26.8516 31.2061 27.195C31.1423 27.6597 31.2835 28.1423 31.1328 28.6145L30.1938 29.78C30.0459 29.7862 29.898 29.7929 29.7526 29.7995C29.6217 29.5721 29.3488 28.8418 29.3894 28.7631C29.1964 28.607 28.9959 28.445 28.7702 28.2628Z" fill="black"/>
<path fill-rule="evenodd" clip-rule="evenodd" d="M16.416 28.6685C16.1906 28.7633 16.4035 29.0781 16.2288 29.093C15.9028 29.1638 15.7785 28.9895 15.6878 28.8466C15.4977 28.5467 15.7388 28.1404 15.5801 27.884C15.3796 27.5592 15.3026 27.3505 15.5433 27.0125C15.7433 26.7321 15.6323 26.3506 15.7992 25.9944C16.1985 25.1403 16.1762 25.0719 17.1048 25.0794C17.1313 25.1059 17.1793 25.1312 17.181 25.1593C17.188 25.3085 17.1843 25.4584 17.1843 25.6382C17.4863 25.8121 17.9485 25.6812 18.1163 26.199C18.2426 26.5888 18.6481 26.863 18.5557 27.3728C18.4857 27.7618 18.5822 28.1478 18.2057 28.4846C18.0181 28.6527 17.8342 28.977 17.8487 29.3419C17.8586 29.6054 17.6366 29.7673 17.3334 29.803C17.053 29.8357 16.8989 29.6692 16.7888 29.4927C16.6305 29.238 16.5361 28.9431 16.416 28.6685Z" fill="black"/>
<path fill-rule="evenodd" clip-rule="evenodd" d="M23.6049 36.5724C23.9259 36.5724 24.225 36.5724 24.5248 36.5724C24.7638 36.7249 24.5592 36.9937 24.6831 37.1768C24.8409 37.3255 25.0384 37.2091 25.2182 37.2555C25.4771 37.7794 25.8105 38.2852 25.9795 38.8414C26.163 39.4429 25.8892 40.0381 25.6892 40.6039C25.2315 40.7923 25.019 40.4407 24.7605 40.1893C24.461 40.1888 24.1628 40.1888 23.8567 40.1888C23.7031 39.7572 23.4889 39.3994 22.9393 39.5149C22.6821 39.2122 23.0337 38.7371 22.6216 38.5039C22.8254 38.2206 23.0171 37.9385 23.0677 37.574C23.1174 37.2182 23.3025 36.9154 23.6049 36.5724Z" fill="black"/>
<path fill-rule="evenodd" clip-rule="evenodd" d="M0.0428384 40.0606C0.453312 39.5089 1.05515 39.3308 1.70627 39.2745C2.14698 39.8117 1.39603 39.9169 1.33597 40.2632C1.81893 40.7205 2.21698 39.9534 2.67384 40.2433C2.94266 40.4906 2.57899 40.5929 2.52142 40.7706C2.68296 40.9847 2.95674 40.7627 3.11911 40.8986C3.30426 41.3666 2.99444 41.8881 3.38461 42.3375C3.0168 42.6701 3.08763 43.3121 2.55787 43.5764C2.06663 43.489 1.76509 43.1216 1.3981 42.8341C1.07337 42.5802 0.548992 42.6299 0.278105 42.0041C0.44917 41.4482 -0.16302 40.8136 0.0428384 40.0606Z" fill="black"/>
<path fill-rule="evenodd" clip-rule="evenodd" d="M68.0794 38.2008C67.6991 37.9767 67.3239 37.9142 67.077 37.4888C67.2365 37.3923 67.42 37.2813 67.6035 37.1703C67.0936 37.0129 66.6781 37.4913 66.2287 37.1516C66.4756 36.7171 67.0095 36.7221 67.3409 36.4289C67.3765 36.1667 67.2195 36.1667 67.0203 36.1033C66.6926 35.9993 66.6293 36.5117 66.3153 36.3369C66.1939 36.2259 66.1393 36.0407 66.2739 35.9633C67.0008 35.5441 67.5956 34.9601 68.2339 34.432C68.6129 34.1189 68.7367 34.0339 69.3357 33.9238C69.2901 34.1553 69.0677 34.2394 68.9393 34.415C69.24 34.7431 69.4918 34.4647 69.7594 34.3483C69.7983 34.8126 70.174 35.1991 69.9922 35.8353C69.286 36.4193 68.9049 37.4494 68.0794 38.2008Z" fill="black"/>
</svg>
