<svg width="32" height="69" viewBox="0 0 32 69" fill="none" xmlns="http://www.w3.org/2000/svg">
<path fill-rule="evenodd" clip-rule="evenodd" d="M12.0218 0C11.8503 0.478817 11.789 1.04544 11.4878 1.42112C10.3517 2.83935 9.57548 4.45929 8.69282 6.02621C8.12246 7.03811 7.75465 8.12621 7.27749 9.17C6.80116 10.2109 6.50045 11.3313 6.12684 12.4186C5.66169 13.7714 5.25412 15.1478 4.85483 16.515C4.54252 17.5853 4.02684 18.6478 4.0927 19.8191C3.53518 21.1574 3.56169 22.6506 2.98637 23.9901C2.86666 24.268 2.96897 24.6408 3.11394 24.9883C3.36495 24.0299 3.61678 23.0722 3.86655 22.1138C4.06992 21.3322 4.33418 20.5597 4.45844 19.7657C4.67258 18.4009 5.21146 17.1276 5.47986 15.7744C5.72258 14.5525 6.18607 13.365 6.64542 12.1986C6.91175 11.5214 7.21039 10.8305 7.42371 10.1562C7.63619 9.48521 8.21649 8.95296 8.15933 8.19704C8.95832 7.3558 8.9285 6.0726 9.7395 5.23799C9.88447 4.24142 10.6727 3.58367 11.0596 2.73456C11.468 1.83864 12.1622 1.17219 12.617 0.333018C12.6886 0.200059 12.8195 0.115148 13.0005 0.159053C13.4988 0.433254 12.5345 0.776213 13.0498 1.06036C13.5145 1.11793 13.2934 0.406746 13.8078 0.416686C13.8078 0.966331 13.7709 1.52509 13.8223 2.07556C13.8509 2.38 13.4632 2.4732 13.5659 2.76728C13.0651 3.20592 12.892 3.83592 12.5979 4.39757C12.5296 4.52763 12.4869 4.74633 12.4393 4.77077C11.7028 5.14935 11.54 5.87006 11.323 6.56095C11.2522 6.78669 10.9738 6.63177 10.879 6.81195C11.2157 7.05343 11.2165 7.54095 11.067 7.70414C10.3774 8.45467 10.3629 9.45787 9.98968 10.3194C9.49181 11.4688 9.04282 12.6518 8.83075 13.9051C8.74915 14.3856 8.5524 14.8644 8.354 15.2849C7.85944 16.3295 7.86027 17.4843 7.47134 18.5351C7.09027 19.5623 7.09566 20.6744 6.65909 21.6988C6.46442 22.1544 6.40063 22.7347 6.36459 23.2657C6.33353 23.7196 6.25234 24.1206 5.904 24.4337C5.97897 24.5157 6.0527 24.5969 6.15873 24.7137C6.03447 25.0194 5.83193 25.3317 5.89696 25.714C5.98477 26.2305 5.71471 26.7011 5.63643 27.1948C5.47282 28.2237 5.29844 29.2443 5.18371 30.2839C5.11702 30.8907 5.17542 31.5741 4.95051 32.094C4.67258 32.7372 4.96252 33.3647 4.75086 33.9326C4.48205 34.6554 4.69868 35.4109 4.51684 36.0972C4.22442 37.2006 4.48453 38.3178 4.29731 39.3947C3.89015 41.7337 4.20495 44.0793 4.09518 46.4183C4.07737 46.794 3.99578 47.2086 4.12169 47.5366C4.2327 47.8257 4.11092 48.1207 4.28944 48.4139C4.40211 48.5991 4.44353 48.9988 4.154 49.2311C4.44974 49.5082 3.82098 49.9212 4.29193 50.1863C4.32548 50.2053 4.28862 50.3855 4.25382 50.4791C4.2298 50.5433 4.15317 50.5876 4.08649 50.6543C4.22442 50.7778 4.36193 50.9016 4.54459 51.0652C4.54459 51.595 4.5301 52.1525 4.55081 52.7088C4.56075 52.9896 4.43524 53.2903 4.71027 53.5525C4.80927 53.6465 4.79228 53.9079 4.76246 54.0818C4.70737 54.4008 4.46051 54.6592 4.74589 55.0436C4.93311 55.2959 4.62743 55.766 4.97909 56.0758C5.05447 56.1421 4.97868 56.3653 4.99939 56.5124C5.05944 56.9419 4.85483 57.3938 5.14436 57.8076C5.39826 58.1704 4.9998 58.7089 5.44589 59.0386C5.46412 59.0518 5.45376 59.1115 5.44755 59.1479C5.2798 60.1151 5.76566 61.0272 5.68406 61.9914C5.66376 62.2321 5.58672 62.4922 5.78057 62.7391C6.27015 63.3624 6.15294 64.1622 6.33394 64.8759C6.46731 65.4036 6.47891 65.9139 7.11761 66.1409C7.43944 66.2556 7.65317 66.6156 7.42122 66.9519C7.18471 67.294 7.19672 67.5264 7.4643 67.823C7.53885 67.905 7.47548 68.1117 7.47548 68.2765C7.26921 68.5002 6.98962 68.3279 6.70548 68.3987C6.50335 68.1568 6.28879 67.9008 6.05974 67.6266C5.59252 68.409 5.22513 68.4741 4.60921 68.1274C3.62424 67.5732 3.31317 66.6044 2.97187 65.655C2.73578 64.9973 2.60447 64.3031 2.38868 63.6375C2.18365 63.0037 2.14885 62.3344 1.86471 61.7085C1.70027 61.3469 1.69613 60.8669 1.64643 60.4564C1.51678 59.3844 1.12371 58.351 1.16264 57.2612C1.17507 56.9191 0.847019 56.7104 0.909563 56.3351C0.958853 56.0373 1.07027 55.6591 0.724829 55.4027C0.686309 55.3741 0.695835 55.2611 0.705776 55.1902C0.84619 54.1879 0.346664 53.2377 0.472995 52.2341C0.537196 51.7246 0.148261 51.2893 0.234415 50.7446C0.315599 50.2306 0.34832 49.6714 0.234829 49.1707C-0.184342 47.3258 0.0985572 45.4652 0.0360128 43.6141C-0.0136913 42.1479 0.0190305 40.6787 0.028143 39.2112C0.0347702 38.109 0.404238 37.0308 0.251812 35.917C0.586072 35.3405 0.335066 34.6686 0.511516 34.1016C0.69335 33.5172 0.564119 32.9178 0.736013 32.3885C0.919918 31.8214 0.747196 31.1852 1.02927 30.7114C1.33412 30.2002 0.853232 29.5715 1.38175 29.1585C1.32501 28.6064 1.52507 28.0845 1.57063 27.5551C1.60584 27.1438 1.74418 26.7847 1.84773 26.414C2.03495 25.7438 1.99228 25.0501 2.13353 24.3857C2.26566 23.7627 2.4011 23.1373 2.54359 22.5205C2.82814 21.2879 3.16282 20.066 3.44406 18.8288C3.6201 18.0542 3.82388 17.2581 4.13246 16.5229C4.4369 15.7989 4.42365 15.0003 4.77157 14.3024C5.17915 13.4851 5.26613 12.5611 5.66418 11.7356C6.05643 10.9221 6.31572 10.0485 6.64211 9.20604C7.33631 7.41296 8.20489 5.70976 9.06601 3.99953C9.57672 2.98556 10.3028 2.10538 10.8827 1.13615C11.1639 0.665621 11.5276 0.310237 12.0218 0Z" fill="black"/>
<path fill-rule="evenodd" clip-rule="evenodd" d="M23.7572 44.8033C23.7447 44.5117 23.741 44.3187 23.9261 44.1232C24.1722 43.8639 23.6652 43.7285 23.7414 43.4506C23.7799 43.3106 23.6892 43.0604 23.758 43.0161C24.1519 42.7601 23.7522 42.4138 23.857 42.2208C24.0384 41.8849 23.929 41.5693 23.9713 41.2499C24.0268 40.8254 23.8756 40.3913 24.1859 39.9787C24.4385 39.6428 23.9083 39.2456 24.1767 38.8078C24.3109 38.5895 24.2513 38.2088 24.1871 37.9222C24.1047 37.5515 24.506 37.3581 24.4373 36.9952C24.3822 36.7045 24.4667 36.3884 24.4157 36.0964C24.3524 35.7365 24.7591 35.5244 24.6518 35.1723C24.545 34.8198 24.936 34.6078 24.8917 34.2483C24.8494 33.8995 24.7769 33.5052 25.1037 33.2148C25.0627 32.4829 25.0635 31.7635 25.5482 31.1393C25.6028 31.0688 25.5718 30.9164 25.5527 30.8067C25.4748 30.3519 25.6161 29.9281 25.8642 29.5852C26.0224 29.3656 25.9806 29.1726 26.0079 28.9618C26.0348 28.7518 26.0597 28.5567 26.1392 28.3405C26.4627 27.4587 26.8007 26.5789 27.1035 25.6942C27.5231 24.4698 28.0147 23.2856 28.5669 22.1225C28.6468 21.9543 28.8083 21.8433 28.6054 21.6031C28.3945 21.8889 28.0955 22.0509 27.9853 22.4394C27.8834 22.8001 27.4899 23.1145 27.4812 23.4558C27.4713 23.863 26.869 23.8874 27.0534 24.4135C27.1412 24.6645 26.7721 25.0696 26.6222 25.4096C26.4114 25.8868 26.0937 26.3548 26.0365 26.8514C25.9574 27.5365 25.6708 28.1442 25.4736 28.7746C25.2744 29.4112 25.1667 30.069 24.9766 30.7064C24.7873 31.3414 24.4857 31.9788 24.4576 32.6275C24.4273 33.3254 24.2082 33.9823 24.1469 34.6724C24.1043 35.1554 24.1171 35.7133 23.9344 36.1465C23.7799 36.5135 23.7257 36.8507 23.7634 37.1965C23.8064 37.5892 23.4345 37.8224 23.5024 38.2366C23.5865 38.7498 23.5443 39.2882 23.5157 39.813C23.49 40.2902 23.7261 40.8589 23.413 41.2251C23.0037 41.7039 23.8839 42.1918 23.2966 42.5799C23.5757 42.9688 23.6167 43.3557 23.3024 43.7517C23.2804 43.7803 23.3256 43.9004 23.3719 43.9393C23.6623 44.1816 23.5293 44.5105 23.5103 44.7814C23.3765 46.6784 23.763 48.5494 23.7671 50.4381C23.7671 50.4646 23.8172 50.4912 23.8947 50.5686C24.1506 49.7456 23.7286 48.8774 24.1378 48.1584C23.9866 47.8572 23.8454 47.5772 23.7265 47.3416C23.8238 47.0574 24.1117 47.2297 24.1974 47.0334C24.1142 46.9178 23.8843 46.8143 23.985 46.6813C24.318 46.2414 23.8549 45.9735 23.8002 45.6152C23.9332 45.4876 24.0678 45.3575 24.2488 45.1832C24.0653 45.0419 23.8885 44.9052 23.7572 44.8033ZM27.5798 56.6362H27.026C26.8864 56.7278 26.9763 56.7891 27.036 56.8794C27.2091 57.1432 27.0815 57.5943 27.5827 57.6643C27.7376 57.6858 27.8275 57.8971 27.8238 58.1183C27.8176 58.5155 28.1001 58.6733 28.4716 58.6948V60.1603C28.2943 60.3172 28.187 60.526 27.9012 60.4858C27.7339 60.4622 27.5065 60.3843 27.3822 60.5765C27.0749 61.0525 26.4867 61.0802 26.1972 60.8868C25.7901 60.6146 25.298 60.4357 25.0134 59.8769C24.528 58.923 24.2248 57.9298 23.9874 56.9121C23.7683 55.9735 23.642 55.0109 23.4834 54.0591C23.3811 53.4444 23.4245 52.8103 23.2651 52.2345C23.0932 51.6161 23.1901 50.9898 23.0464 50.405C22.807 49.4283 22.7171 48.4922 23.0091 47.5139C23.0559 47.3581 22.8828 47.0781 22.8281 46.8429C22.6173 45.9304 22.5108 44.0739 22.7287 43.0968C22.7937 42.8048 22.4669 42.5923 22.6264 42.3417C22.7912 42.0825 23.0124 41.8613 22.6256 41.6177C23.0671 40.8813 22.2536 40.0574 22.8165 39.2829C23.0108 39.0161 22.8037 38.5253 23.0431 38.1376C23.1532 37.9595 22.7038 37.6745 22.8617 37.3133C22.9888 37.1787 23.1396 37.0197 23.2937 36.8565C23.1301 36.738 23.0282 36.593 23.0704 36.3822C23.1914 35.7833 23.2224 35.1574 23.3657 34.5788C23.567 33.7624 23.7431 32.9352 23.9506 32.1193C24.4083 30.3175 24.8378 28.5161 25.4686 26.7591C25.9524 25.4092 26.4826 24.0949 27.1176 22.808C27.7066 21.6147 28.3689 20.5324 29.5398 19.8436C29.6682 19.9289 29.6102 20.0515 29.6218 20.1571C29.6338 20.2632 29.5841 20.3862 29.7714 20.4951C29.9594 20.2528 30.1595 19.9939 30.408 19.6733C30.775 20.0619 31.173 20.0606 31.5532 20.0287C31.9496 20.7946 31.4248 21.3049 31.0852 21.821C30.8483 22.1817 30.6503 22.5243 30.5095 22.943C29.9988 24.4603 29.4201 25.9543 28.8672 27.4574C28.5826 27.4462 28.8431 27.1087 28.6017 27.0743C28.5785 27.0991 28.5097 27.1381 28.4969 27.1903C28.3979 27.6045 28.8353 27.9081 28.7238 28.3397C28.5822 28.8868 28.4732 29.4427 28.3598 29.9969C28.0976 31.2826 27.5769 32.5086 27.5661 33.8568C27.5628 34.3377 27.3773 34.8298 27.299 35.3239C27.2476 35.6491 27.473 36.0318 27.137 36.3068C27.3002 37.3477 26.7398 38.3422 26.9241 39.374C27.0095 39.852 26.6226 40.3055 26.9113 40.7703C26.6052 41.1907 26.6909 41.6761 26.6864 42.1454C26.6814 42.6723 26.6851 43.1996 26.6851 43.7264C26.6851 44.216 26.6644 44.7068 26.6922 45.1948C26.7133 45.553 26.6156 45.9051 26.7974 46.28C26.9154 46.5248 26.4391 46.9 26.8508 47.1987C26.3559 47.9699 27.0563 48.6919 26.9316 49.4747C26.6967 50.9509 27.2555 52.4118 27.137 53.8963C27.4605 54.2446 26.9519 54.668 27.1656 54.9322C27.4779 55.3195 27.335 55.713 27.3495 56.1011C27.3574 56.3057 27.5231 56.3914 27.5798 56.6362Z" fill="black"/>
<path fill-rule="evenodd" clip-rule="evenodd" d="M12.9038 34.2683C12.9038 35.8116 12.9229 37.3553 12.8922 38.8978C12.8831 39.3559 13.1109 39.8683 12.6855 40.2804C12.6342 40.3305 12.6681 40.4825 12.7663 40.5766C12.9875 40.7878 12.9713 41.0227 12.8011 41.2666C12.7427 41.3503 12.6578 41.4841 12.6876 41.5491C12.9345 42.0963 13.0177 42.6331 12.6777 43.1732C13.154 43.7324 12.881 44.3955 12.8831 44.9994C12.8873 46.2188 13.2994 47.4059 13.1296 48.632C13.632 49.3792 13.0687 50.307 13.5405 51.0592C13.0658 51.584 13.4804 52.1216 13.6875 52.4998C13.9716 53.0192 13.5732 53.5817 13.9994 54.0845C14.1982 54.3189 14.0338 54.862 14.1013 55.2782C14.2239 54.9448 14.4579 54.7327 14.6857 54.5165C14.4658 54.1176 14.1957 53.7457 14.2521 53.2441C14.2831 52.9653 14.337 52.6518 14.0479 52.4414C14.4534 52.173 14.0296 51.9174 13.9563 51.7521C13.8602 51.5355 13.888 51.4763 14.0135 51.3292C14.0698 51.263 14.0756 51.0857 14.0263 51.0074C13.4866 50.15 14.1323 49.1046 13.5815 48.2542C13.7244 47.8197 13.7633 47.4026 13.3793 47.0567C13.8681 46.7362 13.1784 46.2921 13.3793 46.1563C13.8113 45.8643 12.9792 45.4409 13.5458 45.2616C13.5579 44.8901 13.6854 44.4734 13.5608 44.1553C13.1039 42.9893 13.4725 41.798 13.3669 40.6263C13.3429 40.3575 13.8449 40.0779 13.3599 39.7995C13.8544 39.5204 13.3665 39.2462 13.359 38.9686C13.3379 38.2293 13.5123 37.5111 13.6771 36.8003C13.714 36.6412 13.7939 36.4756 13.8101 36.2946C13.8383 35.9793 13.5802 35.7093 13.7799 35.3373C13.9215 35.0747 13.8395 34.6709 13.8018 34.3366C13.6722 33.1847 14.1965 32.0801 14.0325 30.929C14.0068 30.7492 14.1464 30.673 14.2347 30.5591C14.2781 30.5028 14.2719 29.4433 14.2616 29.2896C14.2512 29.1396 14.1986 28.9466 14.269 28.8447C14.7594 28.1365 14.5594 27.2509 14.8949 26.5037C14.9653 26.3467 14.9425 26.1396 14.9338 25.9573C14.9102 25.4661 14.9993 25.02 15.3832 24.6741C15.3095 24.5925 15.2362 24.5118 15.2014 24.4733C15.2967 23.4121 15.8078 22.4789 15.8422 21.4367C15.848 21.2595 15.795 21.0772 15.9606 20.9178C16.0526 20.8291 16.0737 20.668 16.1296 20.533C16.3243 20.5508 16.3926 20.7318 16.519 20.8366C16.6163 21.1253 16.0447 21.3262 16.4585 21.701C16.7609 21.9748 16.116 22.198 16.2684 22.5978C16.3773 22.8823 16.3802 23.3396 16.2166 23.5649C15.9677 23.9075 16.1719 24.197 16.1184 24.5192C16.3595 24.1423 16.311 23.6026 16.9133 23.3272C16.9249 23.7053 16.577 23.9638 16.845 24.308C16.968 24.4012 16.9676 24.1001 17.1063 24.1262C17.3789 24.4592 17.057 24.7102 16.9758 25.0022C16.8976 25.2834 17.0889 25.6082 16.8897 25.8691C16.6494 26.1839 17.2074 26.4225 16.9034 26.7596C16.8226 26.7886 16.6921 26.8359 16.5273 26.8951C16.5927 26.9783 16.6511 27.0525 16.7547 27.1838C16.5902 27.2973 16.4134 27.4203 16.2303 27.5466C16.5132 27.7931 16.6428 27.9695 16.3665 28.2462C16.3189 28.2943 16.4481 28.5995 16.3454 28.7859C16.8416 29.0373 15.8819 29.1666 16.2928 29.4109C16.3989 29.5174 16.5053 29.6238 16.6147 29.7328C16.9158 29.5949 16.5886 29.2283 16.8565 29.0763C17.0868 29.2892 16.9883 29.5775 16.9464 29.8028C16.9208 29.9386 16.8537 30.299 16.4295 30.0583C16.2216 29.9403 15.9979 30.3715 16.0787 30.6714C16.1375 30.8892 16.2659 31.0499 16.077 31.2865C15.9192 31.4844 15.826 31.7392 16.0613 31.9989C16.2821 32.2424 15.7415 32.4238 15.9714 32.7585C16.0414 32.8604 15.9118 33.292 15.8123 33.5074C15.6777 33.799 15.8811 34.1357 15.6235 34.3722C15.9934 34.5284 15.5982 34.8606 15.8119 35.1273C16.0182 35.3841 15.5522 35.3411 15.3907 35.5088C15.9697 35.8066 15.3087 36.0916 15.389 36.4047C15.563 36.6313 15.7846 36.5128 16.0165 36.4859C16.1851 35.6149 15.8538 34.687 16.1731 33.8516C16.4879 33.0261 15.9374 32.0676 16.654 31.3482C16.8421 31.5105 16.8048 31.8042 16.7269 31.9521C16.3939 32.585 16.647 33.2692 16.5024 33.8963C16.1623 35.3663 16.3255 36.8479 16.3102 38.3237C16.3065 38.6944 15.918 38.8564 15.9921 39.2271C15.8463 38.706 15.6802 38.1995 16.0857 37.6941C15.9731 37.4688 15.8521 37.2269 15.7328 36.9879C15.377 37.1449 15.4329 37.572 15.1898 37.7612C15.5249 38.2914 15.8136 38.8199 15.5013 39.4649C15.3795 39.7159 15.8902 40.0509 15.3944 40.2498C15.8666 41.127 15.5394 42.0689 15.6015 42.9781C15.6624 43.8765 15.6148 44.782 15.6148 45.6758C15.7792 45.914 16.0555 45.6899 16.2953 45.8966C16.1748 47.4871 16.7741 49.107 16.3264 50.7676V49.2379C16.0385 49.2226 15.9818 49.4256 15.8471 49.5121C15.918 49.5921 15.9888 49.6716 16.0385 49.7279C15.679 50.2734 16.2833 50.7133 16.0161 51.3562C16.3144 51.0944 16.4088 50.8902 16.7331 51.067C16.6486 51.2601 16.4245 51.3794 16.3011 51.5608C16.6876 51.7604 17.0243 52.0288 16.9622 52.5051C16.8346 53.4748 17.1564 54.3993 17.2393 55.3449C17.289 55.9091 17.3586 56.4898 17.4414 57.0589C17.5193 57.5924 17.7073 58.1097 17.6481 58.6623C18.1468 59.1485 17.5893 59.9111 18.1 60.3944C17.9339 61.0331 18.4264 61.5844 18.3357 62.2219C18.2963 62.4994 18.7176 62.7119 18.5448 63.0267C18.4023 63.2856 19.0042 63.5067 18.556 63.7482C18.6902 63.9872 19.0891 64.0672 18.988 64.4437C18.853 64.6205 18.8182 64.4225 18.6687 64.372C18.2628 64.7361 17.6742 64.9295 17.3358 65.444C17.149 65.3649 17.2302 65.1838 17.1581 65.0679C16.999 64.9175 16.7998 65.0376 16.5973 64.9805C16.5575 64.8657 16.5119 64.7344 16.4655 64.6007C16.3202 64.5083 16.3123 64.693 16.1909 64.7274C15.9809 64.6272 15.8065 64.4739 15.843 64.1856C15.8919 63.7975 15.7092 63.467 15.4959 63.2036C15.1132 62.7305 14.9197 62.1987 14.9603 61.625C14.9806 61.3384 14.5345 61.0816 14.9434 60.7854C14.7988 60.7337 14.6679 60.6873 14.4761 60.6189C14.5751 60.0171 14.2889 59.467 14.1543 58.8826C13.9721 58.0927 13.8784 57.2883 13.608 56.5101C13.4986 56.1936 13.4953 55.8237 13.3752 55.477C13.2625 55.1515 13.3607 54.792 13.1602 54.4312C12.9995 54.1425 13.2277 53.6409 13.0708 53.3468C12.8827 52.9935 12.8015 52.7686 13.0931 52.4679C13.1188 52.4414 12.8972 52.2338 12.9163 52.134C13.0045 51.6738 12.6251 51.3209 12.6702 50.8695C12.7133 50.4379 12.7038 50.0063 12.4581 49.6049C12.2539 49.2715 12.821 48.9053 12.4519 48.5537C12.3401 47.5335 12.1471 46.522 12.2154 45.4849C12.2357 45.175 12.3554 44.8201 12.0199 44.5467C11.916 44.4618 12.0887 44.2965 12.1355 44.1677C12.2867 43.751 12.3248 43.2854 12.1226 42.8944C12.0071 42.6708 11.9487 42.4521 12.0348 42.2818C12.1197 42.1137 12.2158 42.0578 12.0518 41.8602C11.9288 41.7119 11.9565 41.4638 12.1164 41.2563C12.3065 41.0086 12.3372 40.6205 12.1504 40.4444C11.8389 40.1508 12.4569 39.9685 12.1483 39.7117C11.8464 39.4611 11.9669 39.061 12.029 38.7678C12.0763 38.5441 12.039 38.2993 12.133 38.1009C12.338 37.6664 12.2051 37.2207 12.2154 36.7837C12.2258 36.3443 12.5795 35.9934 12.4681 35.5188C12.4229 35.3257 12.3625 35.1828 12.2279 35.0565C12.5124 34.8407 12.4453 34.3292 12.9038 34.2683Z" fill="black"/>
<path fill-rule="evenodd" clip-rule="evenodd" d="M12.9022 34.2695C13.0335 33.8387 12.5928 33.7207 12.4669 33.4693C12.3824 33.2129 12.6657 33.1425 12.6723 32.9677C12.6976 32.3517 12.7941 31.7441 12.8612 31.1373C12.9726 30.1333 13.0907 29.15 13.316 28.158C13.4643 27.5039 13.4469 26.813 13.8077 26.2087C13.4945 25.744 13.7923 25.2585 13.8478 24.8199C13.9228 24.2239 13.883 23.5123 14.472 23.0716C14.2157 22.8413 14.1481 22.6006 14.3648 22.2954C14.6435 21.9027 14.7649 21.4607 14.7156 20.9716C14.6982 20.7959 14.6924 20.6269 14.8394 20.4571C15.1961 20.0446 15.1932 19.5272 15.1542 18.9925C15.2897 18.9457 15.4206 18.9006 15.5519 18.8554C15.8563 18.5385 15.1447 18.331 15.4322 18.1003C15.7126 17.8754 15.4839 17.5213 15.7345 17.3303C15.8451 17.4409 15.9516 17.5474 16.0609 17.6571C15.7296 17.8957 15.8016 18.1322 16.0684 18.3646C16.0613 18.4396 16.0837 18.5448 16.0439 18.58C15.5461 19.0223 15.5717 19.6942 15.4338 20.243C15.2632 20.9219 15.177 21.6405 15.0088 22.333C14.8514 22.98 14.6091 23.6398 14.5412 24.2674C14.4638 24.9881 14.2836 25.6968 14.2223 26.4233C14.1635 27.1113 14.1005 27.8249 13.8429 28.5113C13.6615 28.9946 13.6896 29.577 13.6312 30.1035C13.5509 30.8233 13.1781 31.518 13.3595 32.2623C13.4465 32.6201 13.031 32.8111 13.1135 33.1897C13.1822 33.5061 13.1126 33.8549 13.0882 34.1879C13.0857 34.219 12.9681 34.2422 12.9022 34.2695Z" fill="black"/>
</svg>
