<svg width="86" height="85" viewBox="0 0 86 85" fill="none" xmlns="http://www.w3.org/2000/svg">
<path fill-rule="evenodd" clip-rule="evenodd" d="M4.61528 59.2077H5.34717C5.57291 59.3805 5.348 59.6567 5.51907 59.8576C5.66238 59.8655 5.80735 59.8734 6.02274 59.885C6.18924 59.542 6.30771 59.0441 6.90126 59.2082C7.12907 59.262 6.94806 59.5569 7.11208 59.6311C7.45836 59.745 7.69569 59.5532 8.01877 59.3767C8.43877 59.9661 9.20422 60.1074 9.71617 60.6351C9.81558 61.0406 9.63788 61.4937 9.95226 61.8905C10.0508 62.0148 10.0173 62.4008 9.89842 62.5131C9.53392 62.8577 9.97546 63.2102 9.85782 63.4458C9.68427 63.7942 9.82262 64.07 9.75469 64.3393C10.0687 64.4698 10.1797 64.3016 10.3855 64.0862C10.424 64.9171 10.5591 65.6656 10.1266 66.3937C9.96344 66.4115 9.78534 66.431 9.52688 66.46C9.62629 66.8232 9.28374 67.0887 9.29782 67.4495C9.32019 68.0439 9.13504 68.5786 8.83309 69.0645C8.58001 69.4704 8.62143 69.8983 8.61439 70.344C8.26481 70.665 7.90694 70.9926 7.54203 71.3273C7.55777 71.3405 7.50516 71.2966 7.3896 71.2005C7.23303 71.3314 7.07688 71.5551 6.87765 71.6048C6.60345 71.6727 6.41706 71.9618 6.06913 71.8628C5.82516 71.7932 5.54558 71.8442 5.28214 71.8508C5.06179 71.8566 4.82569 71.8305 4.62522 71.9009C4.3651 71.9916 4.14392 72.2484 3.88587 72.2828C3.4054 72.3466 2.91001 72.3011 2.38108 72.3011C2.11558 71.7966 1.53487 71.6769 1.07013 71.4698C0.501848 71.2163 0.232203 70.7776 0.0540964 70.3025C-0.127324 69.8179 0.187055 69.3167 0.414866 68.893C0.707292 68.3504 1.08711 67.843 1.61149 67.4864C1.23043 66.8738 0.880842 66.286 1.38534 65.6022C1.53072 63.6153 2.77043 62.1059 3.65723 60.4466C3.8925 60.0067 4.46907 59.8013 4.61528 59.2077Z" fill="black"/>
<path fill-rule="evenodd" clip-rule="evenodd" d="M79.0988 20.6506C79.0276 20.7367 78.9642 20.8134 78.8992 20.8916C78.9543 21.0677 79.1332 20.9861 79.2587 21.0515C79.4671 21.206 79.197 21.4939 79.4343 21.6803C79.511 21.6724 79.653 21.7002 79.7065 21.6438C80.397 20.919 80.5225 21.2205 81.1351 21.7677C81.2075 21.8327 81.2444 21.8335 81.3467 21.8426C82.7567 21.9657 83.3042 22.5161 83.4625 23.9066C83.6459 23.929 83.7031 23.6345 83.9624 23.7484C84.1012 24.204 84.6798 24.4927 84.5514 25.1426C84.5249 25.278 84.8107 25.4752 84.9523 25.6438C84.4097 26.0957 85.456 26.7232 84.8049 27.1622C84.8185 27.4518 85.147 27.5044 85.2087 27.7554C85.2808 28.0457 85.0538 28.2209 84.9793 28.4537C84.7204 29.2664 84.1641 29.9208 83.7615 30.6544C83.4223 31.2728 82.6647 31.535 82.0832 31.8709C81.77 31.8092 81.6702 31.5345 81.4548 31.4078C81.3894 31.5743 81.3384 31.7039 81.2527 31.9206C81.1056 31.7056 80.9839 31.5283 80.8712 31.3647C80.5647 31.5644 80.7764 31.8361 80.6173 32.0515H79.0769C78.9978 31.9719 78.8412 31.8154 78.6552 31.6294C78.1172 32.1509 77.6578 31.7371 77.1736 31.4314C76.5333 32.0796 75.8817 31.0938 75.2228 31.4625C74.9394 31.1506 74.5128 30.9907 74.5807 30.4779C74.5882 30.4216 74.5256 30.3048 74.4871 30.3006C73.7217 30.2228 73.7917 29.4714 73.4951 29.041C73.6828 28.5726 74.0332 28.2068 74.4064 27.8589C74.4892 27.7823 74.5662 27.6311 74.6466 27.6307C75.6506 27.6261 75.6916 26.6793 76.1348 26.13C76.5188 25.6541 76.6621 25.0589 76.8228 24.4989C76.9794 23.9551 77.0846 23.3868 77.1045 22.7937C77.1256 22.1562 77.0896 21.3663 77.9805 21.107C78.1391 21.0606 78.2576 20.8593 78.3819 20.7185C78.5943 20.4779 78.828 20.5184 79.0988 20.6506Z" fill="black"/>
<path fill-rule="evenodd" clip-rule="evenodd" d="M56.4313 36.3344C56.0564 36.4967 55.6675 36.6363 55.2123 36.6156C54.3487 36.5771 53.4797 36.5676 52.6173 36.6198C52.1874 36.6459 51.7446 36.5817 51.3772 36.4851C51.0852 36.4093 50.8905 36.8401 50.6557 36.5146C50.4639 36.2495 50.1574 36.4561 49.9267 36.3708C49.6657 36.2743 49.4475 36.032 49.1033 36.2051C48.95 36.2702 49.2035 36.6227 48.8531 36.5941C48.1709 36.5473 48.5702 35.6617 48.0006 35.4948C47.9601 35.6112 47.9137 35.7417 47.8644 35.8804C47.6859 35.9156 47.5707 35.7301 47.5628 35.6596C47.4962 35.0914 47.183 34.5703 47.2468 33.9788C47.2704 33.7651 47.3023 33.5795 47.4042 33.365C47.7053 32.7292 47.9795 32.0428 47.9058 31.3271C47.8606 30.8872 48.2239 30.6109 48.1742 30.1744C48.1319 29.8016 47.9721 29.3464 48.3784 29.0287C48.3784 28.3519 48.4182 27.6714 48.3685 26.9979C48.3022 26.1061 48.8253 25.5759 49.4371 25.0917C49.5278 25.0205 49.7241 25.0822 49.86 25.0822C50.0294 25.4554 50.2307 25.7892 50.2146 26.3666C50.4217 25.9615 50.5264 25.7167 50.7414 25.5279C51.0355 25.2694 51.2915 25.1911 51.6009 25.4773C51.7305 25.5974 51.8167 25.7814 52.0474 25.7623C52.6964 25.7072 53.1575 26.0638 53.5335 26.5219C53.8931 26.9593 54.4502 27.2054 54.5372 27.9211C54.6001 28.4376 55.0566 28.897 55.2902 29.4035C55.9173 30.7613 56.5514 32.117 57.116 33.5008C57.3881 34.1673 57.1064 34.8399 56.8476 35.4737C56.7291 35.7628 56.5763 36.0378 56.4313 36.3344Z" fill="black"/>
<path fill-rule="evenodd" clip-rule="evenodd" d="M62.3525 50.8428C62.386 51.2532 62.292 51.6923 62.4672 51.8836C62.7555 52.1972 62.1288 52.391 62.4974 52.6333C63.0744 52.1877 63.0479 51.3526 63.5855 50.8817C63.9649 51.0465 64.3373 51.2242 64.5208 51.4955C64.829 51.5486 64.87 51.3493 65.0659 51.264C65.6454 51.5883 66.3516 51.8472 66.7741 52.43C67.3084 53.1677 67.8129 53.9551 67.8087 54.9326C67.8067 55.3845 67.7706 55.8397 67.8149 56.2874C67.962 57.7649 67.5084 59.1309 67.0652 60.4978C66.8801 61.0686 66.5723 61.5855 66.2107 62.051C65.9535 62.2088 65.6876 62.1036 65.3654 62.1426L64.8981 61.6749C64.5817 61.6364 64.5287 62.0809 64.2292 62.1351C64.0457 62.1674 63.9753 62.0104 63.861 61.9164C63.7831 61.9873 63.704 62.0589 63.605 62.1488C63.557 62.0088 63.5118 61.8775 63.4663 61.7462C63.4136 61.672 63.3739 61.694 63.3047 61.7764C62.7981 62.3799 62.1114 62.4097 61.3874 62.3505C60.9255 62.0544 60.6555 61.5391 59.994 61.3792C59.3122 61.2148 59.0326 60.1026 59.3466 59.4204C59.6038 58.8609 59.9161 58.3468 59.4684 57.716C59.3441 57.5408 59.3644 57.1635 59.4651 56.9468C59.7418 56.3525 59.6846 55.6951 59.895 55.092C60.0905 54.5312 60.2057 53.9406 60.4248 53.3905C60.4915 53.2236 60.5722 53.0782 60.5822 52.8902C60.619 52.1902 61.0291 51.6434 61.3675 51.0722C61.5841 50.7073 61.9598 50.8581 62.3525 50.8428Z" fill="black"/>
<path fill-rule="evenodd" clip-rule="evenodd" d="M34.691 33.6425C34.6243 33.5854 34.5469 33.5195 34.4508 33.4375C34.3949 33.5912 34.3472 33.7212 34.2905 33.8761C33.5876 33.5759 33.0156 34.0832 32.3744 34.203C32.1209 34.2502 31.1608 34.4109 30.9123 34.3873C30.8423 34.3802 30.7362 34.3235 30.7101 34.3508C30.4086 34.659 30.0168 34.5082 29.6734 34.5869C29.3785 34.6544 29.1184 34.1897 28.8396 34.5666C28.2796 34.104 27.6235 34.4345 27.0163 34.3541C26.6472 34.3057 26.267 34.345 25.8984 34.345C25.7857 34.2324 25.6793 34.1259 25.5724 34.0195C25.6561 33.8703 25.8727 33.7817 25.7774 33.5348C25.4597 33.3137 25.0642 33.5382 24.7233 33.3957C24.4085 33.1182 24.2457 32.8232 24.6148 32.4654C24.6955 32.3871 24.821 32.3192 24.8467 32.2243C25.0903 31.3412 25.8541 31.3023 26.547 31.1901C27.2582 31.0753 27.8691 30.7489 28.4233 30.5025C28.7166 29.7308 28.2746 29.1302 28.2618 28.477C28.249 27.8657 28.4068 27.2365 28.063 26.6421C27.9814 26.5009 27.9259 26.1645 28.1384 26.0212C28.4909 25.7818 28.4548 25.2459 28.8607 25.0963C29.043 25.0292 29.2617 25.0748 29.4754 25.2351C29.6796 25.3883 29.5027 25.7122 29.796 25.7595C30.0259 25.7959 30.1356 25.6132 30.2375 25.4757C30.409 25.2442 30.6575 25.262 30.8448 25.3237C31.1016 25.4082 31.3232 25.6008 31.5597 25.747C31.8964 25.344 32.152 25.8108 32.3218 25.9152C32.5579 26.0593 32.8317 26.1753 33.045 26.3613C33.2712 26.558 33.4712 26.7859 33.687 26.9946C33.8212 27.1247 33.9049 27.2564 33.9463 27.4564C33.9761 27.5993 34.1256 27.6453 33.991 27.8744C33.8465 28.1217 34.2938 27.929 34.3891 28.1912C34.7697 29.24 35.4399 30.1537 35.862 31.1901C35.9531 31.4129 35.9622 31.5898 35.8968 31.806C35.6752 32.5403 35.3471 33.201 34.691 33.6425Z" fill="black"/>
<path fill-rule="evenodd" clip-rule="evenodd" d="M30.6187 0C31.5937 0.0550888 31.5937 0.0550888 31.7528 1.11379C32.3165 0.587337 32.3165 0.587337 32.8897 0.437396C33.0513 0.86568 33.2741 1.28237 33.8739 1.14237C33.9555 1.12331 34.0793 1.19911 34.156 1.26373C34.6058 1.64479 34.7802 2.25781 35.2747 2.60367C35.2507 3.33556 35.7477 4.05213 35.4781 4.75876C35.1923 5.50888 35.1202 6.31574 34.7097 7.03852C34.2077 7.92243 33.6664 8.7558 32.8968 9.49639C32.4813 9.45538 32.0386 9.4761 31.8004 9.95864C31.6985 9.86834 31.619 9.7971 31.5395 9.72627C30.8047 10.4648 30.6174 11.6109 29.712 12.1904C29.3545 12.3618 29.1437 11.9037 28.8865 11.9969C28.5497 12.1187 28.3302 11.6892 28.0158 11.8925C27.7425 12.0698 27.4592 11.9663 27.2082 11.9418C26.9455 11.5989 27.5847 11.4444 27.3121 11.1325C27.1096 11.0902 27.0052 11.4522 26.7318 11.2381C26.5728 10.4934 26.8345 9.81988 27.1179 9.1058C27.4248 8.33124 27.8531 7.56663 27.815 6.68728C27.8013 6.37207 28.0187 6.16373 28.1355 5.91604C28.4802 5.18663 28.7221 4.42491 28.9987 3.67479C29.3463 2.73166 29.4502 1.69947 30.0131 0.818462C30.1916 0.539704 30.3996 0.303609 30.6187 0Z" fill="black"/>
<path fill-rule="evenodd" clip-rule="evenodd" d="M37.8539 62.3708C37.6592 62.5974 37.8829 62.8729 37.6547 63.0311C37.3299 63.0837 37.0822 62.8372 37.1046 62.6277C37.1887 61.8469 36.6718 61.4952 36.1698 61.1038C36.0223 60.9895 35.9018 60.8412 35.7688 60.7078C35.5617 60.2464 35.8777 59.8848 36.002 59.4859C36.1702 59.3675 36.3549 59.44 36.5334 59.4387C36.714 59.5344 36.5334 59.9312 36.9211 59.8711C37.175 59.7837 37.2711 59.4097 37.2724 59.2979C37.2794 58.6319 37.4376 58.0279 37.7599 57.4559C37.4335 56.7518 37.9674 56.1483 37.9935 55.4814C38.0212 54.7756 38.3754 54.2069 38.8463 53.6917C39.0447 53.4742 39.2605 53.6047 39.4664 53.5239C39.4511 53.9104 39.929 54.0322 39.6797 54.6692C40.0869 54.2252 40.0703 53.7567 40.4447 53.7882C41.0466 53.8383 41.742 53.8184 42.2101 54.1191C42.6615 54.4095 43.4676 54.535 43.4125 55.375C43.4088 55.4351 43.4535 55.5204 43.5032 55.5589C44.366 56.2278 44.4306 57.2795 44.7549 58.1994C45.015 58.9355 45.2358 59.6831 45.2321 60.49C45.2304 60.9394 44.7677 61.2761 45.0167 61.7168C44.7648 62.1169 44.298 62.3062 44.2243 62.8886C43.3077 62.1331 42.4051 63.0613 41.5308 62.7958C41.3303 62.8944 41.4115 63.0783 41.3253 63.2046C41.1733 63.3492 40.9716 63.2129 40.9774 63.2108C40.6009 63.3455 40.8121 63.6507 40.5624 63.6922C40.4398 63.6201 40.4783 63.4991 40.4696 63.3807C40.2397 63.1152 39.9042 63.3662 39.6408 63.2249C39.5124 63.0961 39.3798 62.9632 39.2435 62.8277C38.8575 63.0742 38.7892 63.5124 38.5891 63.9245C38.3161 63.7791 38.1786 63.5882 38.2072 63.2626C38.2362 62.9292 38.2569 62.5813 37.8539 62.3708Z" fill="black"/>
<path fill-rule="evenodd" clip-rule="evenodd" d="M31.3107 83.6249C31.1736 83.4091 31.2548 83.2273 31.0816 83.1531C30.848 83.3962 31.0738 83.7289 30.9408 84.0138C30.8281 84.0254 30.7262 84.0354 30.5428 84.054V82.9651C30.334 83.6083 29.4037 83.3826 29.2919 84.0478C29.1208 83.7827 28.8603 83.8092 28.6006 83.832C28.3719 83.9902 28.6002 84.2673 28.4349 84.4525C28.1934 84.5477 27.9378 84.4989 27.6777 84.4815C27.5005 84.2466 27.6355 83.9757 27.5907 83.7231C27.3455 83.4625 27.1297 83.1568 26.7379 83.0819C26.8497 82.8976 26.7035 82.6039 26.7644 82.5426C27.0365 82.2692 26.8091 81.7995 27.2192 81.5816C27.5986 81.3803 27.1459 80.8348 27.5444 80.5962C27.1115 80.122 27.7469 79.7111 27.6181 79.2153C27.5005 78.7642 27.5928 78.2581 27.5928 77.8054C27.3919 77.7051 27.3799 77.8733 27.2764 77.9114C26.9773 77.9292 27.2722 77.5672 27.0494 77.5241C27.0009 77.5577 26.921 77.5817 26.9003 77.631C26.6228 78.2887 26.3312 78.9519 26.5134 79.6887C26.7052 80.4604 26.7545 80.4683 26.448 81.4375C26.361 81.7129 26.8866 81.8041 26.53 82.0787C26.332 82.2307 26.6062 82.6147 26.2777 82.7638C26.4103 82.997 26.4463 83.2832 26.6704 83.4654C26.6281 83.5847 26.5341 83.5938 26.4239 83.6C26.0789 83.6195 25.8598 83.4729 25.7873 83.1332C25.7264 82.8483 25.8917 82.5413 25.6987 82.2659C25.5607 82.0683 25.801 81.7974 25.5682 81.5974C25.5123 81.5502 25.5127 81.3207 25.5674 81.2784C25.9493 80.9835 25.6423 80.7333 25.586 80.4347C25.5305 80.1423 25.497 79.8138 25.6933 79.4746C25.9364 79.0567 25.7629 78.587 25.5781 78.1347C25.4738 77.8799 25.2472 78.0286 25.1436 77.8733C25.4481 77.4989 25.3218 77.0731 25.3147 76.6932C25.1938 76.557 24.9937 76.5876 24.9912 76.612C24.9556 76.9492 24.5277 77.2449 24.8707 77.6219C24.5758 77.8824 24.3691 78.3049 23.8066 78.1533C23.8501 77.9068 23.9387 77.6318 24.0149 77.4177C24.099 77.1828 24.2386 76.972 24.2022 76.7081C24.1595 76.4016 24.531 76.2239 24.4333 75.8967C24.3331 75.5612 24.6184 75.5339 24.8127 75.3839C25.0086 75.2336 24.7684 74.8223 25.0894 74.6512C24.9059 74.4905 24.7133 74.5912 24.5248 74.5651C24.3335 74.8181 24.4706 75.1764 24.1541 75.4382C23.689 75.8226 23.7532 75.8847 23.4628 76.9857C23.3572 77.3858 23.1538 77.7598 22.984 78.1715C22.4625 77.7913 22.5445 77.2992 22.7413 76.827C22.9061 76.431 22.9931 76.0131 23.1248 75.6271C23.2483 75.2659 23.1828 74.7278 23.6857 74.5005C24.0241 74.3476 23.9603 73.8307 24.3326 73.6708C24.4552 73.8013 24.5708 73.9632 24.8699 73.8191C24.7265 73.6414 24.5882 73.4699 24.4453 73.2931C24.7456 73.112 25.0045 73.1473 25.2219 73.4326C25.6096 72.8291 26.4277 73.0147 26.8344 72.5214C27.1886 72.5318 27.271 72.8403 27.5046 72.9894C27.551 72.854 27.5961 72.7231 27.6429 72.5881C27.7954 72.4833 27.9432 72.9393 28.1454 72.5781C28.2034 72.4746 28.5749 72.4899 28.7787 72.5429C28.9373 72.5844 29.0715 72.7571 29.1945 72.8913C29.3706 73.0839 29.6332 72.8871 29.8204 73.0309C29.5719 73.4012 29.8821 73.6422 30.0026 73.9098C30.1762 74.2958 30.7755 73.9231 30.9619 74.5294C30.9715 74.58 30.643 74.662 30.7623 74.836C31.1968 75.4709 30.9818 76.3064 31.4279 76.9347C31.4635 76.9848 31.4051 77.0987 31.4387 77.1542C31.6764 77.5486 30.8269 77.9358 31.4337 78.3248C31.4337 78.739 31.5377 79.1888 31.4097 79.5591C31.2113 80.1328 31.2154 80.7002 31.2096 81.2805C31.2092 81.3501 31.2336 81.4205 31.251 81.5158C31.4722 81.5526 31.5257 81.3327 31.6391 81.2308C31.7178 81.16 31.5878 80.9433 31.8765 80.9094C31.8831 81.8525 32.0335 82.7986 31.3107 83.6249Z" fill="black"/>
<path fill-rule="evenodd" clip-rule="evenodd" d="M53.3444 8.07001C53.3531 7.87616 53.3527 7.76598 53.2438 7.69515C52.9327 7.50338 52.8698 8.1135 52.545 7.87947C52.4667 7.85421 52.4452 7.79912 52.4957 7.74859C52.7534 7.49054 53.1419 7.19273 52.8031 6.83569C52.4129 6.42314 53.0404 6.2703 52.9186 5.96959C53.2732 5.87267 53.5578 5.44853 53.9922 5.73474C54.0813 5.79356 54.1364 5.91036 54.3659 5.85362C55.2837 5.13042 55.8288 4.04231 56.248 2.92149C56.3917 2.53669 56.6431 2.32918 56.8461 2.04089C58.186 2.94758 58.186 2.94758 58.6769 2.72474C59.0882 3.27977 59.5069 3.83853 59.4419 4.59444C59.4146 4.90799 59.5098 5.159 59.6743 5.40338C59.287 5.88178 59.6096 6.34154 59.782 6.74912C59.999 7.2619 59.8051 7.77261 59.9253 8.26841C59.9402 8.33095 60.0259 8.3761 60.0972 8.44693C59.7873 8.93859 59.6573 9.55036 59.0621 9.94675C58.5613 9.84817 57.9698 10.1037 57.3986 9.82042C56.8507 9.54746 56.2227 9.57231 55.6549 9.40042C55.1296 9.24095 54.6562 8.90876 54.1256 8.63539C53.6468 8.73439 53.3631 9.17675 53.0019 9.49237C52.3189 9.52717 51.6466 9.7761 51.2283 10.1452C50.6666 10.2624 50.047 9.98651 49.518 10.4057C49.3366 10.1692 49.154 9.93101 49.062 9.81131C49.9886 10.0072 49.9393 9.89912 51.215 9.3122C52.0016 8.9506 52.4829 8.16776 53.3444 8.07001Z" fill="black"/>
<path fill-rule="evenodd" clip-rule="evenodd" d="M22.8875 57.1359C22.8552 57.4209 22.8349 57.599 22.8171 57.7522C22.7484 57.8546 22.709 57.8343 22.6386 57.7506C22.5214 57.6114 22.3748 57.5145 22.3893 57.2842C22.4154 56.8717 22.3839 56.4558 22.4004 56.0424C22.4137 55.7077 22.3909 55.3814 22.1668 55.1229C21.8338 54.7377 21.9945 54.2908 21.9312 53.8927C22.3855 53.4847 22.5483 53.0175 22.6568 52.4501C22.7678 51.8727 22.7459 51.2547 23.0532 50.6988C23.1804 50.4689 23.0743 50.1106 23.0743 49.8211C23.3104 49.5788 23.5822 49.3792 23.631 49.0329H24.1007C24.3443 49.2769 24.0925 49.6144 24.2598 49.8832C24.4371 49.9595 24.6496 50.0067 24.6438 49.7296C24.638 49.4326 25.1669 49.4276 24.7535 48.965C25.5641 49.136 26.1506 49.3667 26.709 49.2504C27.0378 49.2922 26.832 49.6115 27.1207 49.7341C27.9217 50.0746 28.2262 50.6938 28.2796 51.5169C28.3442 52.5134 28.1003 53.4454 27.8223 54.3815C27.6094 55.0964 27.2251 55.5346 26.4132 55.5988C25.6768 55.6572 25.352 56.1083 25.3346 56.8683C25.328 57.1653 25.3338 57.4627 25.3338 57.7489C25.106 57.9117 25.1064 57.6189 24.9929 57.6226C24.693 57.4896 24.5957 58.0057 24.2668 57.8003C24.0701 57.657 24.3306 57.3708 24.1272 57.1985C24.0784 57.227 23.9852 57.2552 23.9848 57.285C23.9785 57.6131 23.6455 57.8396 23.7188 58.2029C23.7387 58.3011 23.5412 58.2899 23.431 58.2936C23.2206 58.1718 23.315 57.9668 23.3034 57.7949C23.2906 57.6118 23.3005 57.4275 23.3005 57.3078C23.1932 57.1102 23.0644 57.1869 22.8875 57.1359Z" fill="black"/>
<path fill-rule="evenodd" clip-rule="evenodd" d="M9.00418 31.0716C9.23779 31.1582 9.36826 31.2066 9.48217 31.2489C9.55631 31.4257 9.48921 31.5322 9.39104 31.6598C9.21459 31.888 9.20258 32.1402 9.44157 32.3444C9.88684 32.7259 9.81104 33.0399 9.42998 33.4549C9.21998 33.684 9.04933 34.0754 9.25601 34.4859C9.04891 34.794 8.80453 34.3036 8.69394 34.4109C8.42388 34.6723 8.12938 34.5422 7.84814 34.5666C7.58637 34.589 7.32169 34.5712 7.05785 34.5712H6.23524C5.98548 34.246 5.64791 33.9366 5.48761 33.5535C5.37163 33.2781 5.25731 32.9628 5.17779 32.6584C5.08418 32.3026 5.60566 32.156 5.30122 31.7753C5.13098 31.5628 5.22252 31.1408 5.19601 30.8127C4.67246 30.3844 3.78566 30.6881 3.44228 29.916C3.47666 29.8816 3.5301 29.8286 3.6266 29.7321C3.504 29.5457 3.18589 29.5594 3.11962 29.2383C3.08441 29.0685 3.03761 28.7218 2.77832 28.6125C2.86655 28.429 2.95477 28.2451 3.04589 28.0546C3.09311 28.0823 3.18175 28.1072 3.18589 28.1424C3.20412 28.2898 3.15649 28.4576 3.21075 28.5856C3.26542 28.714 3.41205 28.803 3.51684 28.9078C3.69495 28.8449 3.61376 28.6655 3.68708 28.5346C3.94223 28.574 4.23175 28.9699 4.4401 28.405C4.52376 28.6241 4.57305 28.7537 4.64015 28.9306C4.80211 28.9153 5.04483 28.9666 5.14299 28.871C5.63879 28.3843 6.24436 27.9709 6.50116 27.2953C6.69749 26.7801 7.10672 26.5096 7.46045 26.1455C7.80258 26.3675 7.78684 26.6392 7.63524 26.831C7.44264 27.0746 7.44223 27.2829 7.58264 27.5919C7.78891 27.3633 8.02998 27.1827 8.14927 26.9416C8.28513 26.6657 8.38371 26.4205 8.73702 26.4417C8.96359 26.7043 8.76104 27.0319 8.86542 27.2986C9.15743 27.3069 9.03276 27.1114 9.07584 26.9884C9.35211 26.7933 9.62755 26.8157 9.83051 27.099C9.99578 27.3293 10.0571 27.6275 10.3139 27.8023C10.504 27.932 10.4721 28.1796 10.41 28.3143C10.0985 28.9869 9.98211 29.7184 9.76879 30.418C9.64743 30.8152 9.40305 30.9096 9.00418 31.0716Z" fill="black"/>
<path fill-rule="evenodd" clip-rule="evenodd" d="M67.8176 7.68256C68.0438 7.678 68.0757 7.93398 68.272 7.99196C68.1804 8.09344 68.11 8.17214 68.0396 8.25042C68.1046 8.3519 68.2115 8.39042 68.32 8.36019C68.5748 8.28853 68.6381 7.95054 68.9475 7.90829C69.2748 7.92942 69.4342 8.26616 69.725 8.41445C70.4664 8.7922 70.8868 10.2452 70.6338 11.0732C70.4366 11.716 70.4449 12.3494 70.7 13.0717C70.6793 13.1732 70.4946 13.0726 70.3732 13.1446C70.1193 13.471 70.4031 13.7287 70.5265 14.0128C70.4465 14.3301 70.1168 14.4336 69.9797 14.6979C69.6446 14.4162 69.3456 14.2729 68.8846 14.4407C68.4799 14.5881 68.3039 14.1172 68.0467 13.9001C68.1237 13.8036 68.1846 13.7286 68.2455 13.6524C67.956 13.413 67.8114 13.6458 67.6834 13.8061C67.4407 14.1089 67.5248 14.632 66.9797 14.7505C66.8045 14.7886 66.9217 15.0872 66.908 15.2658C66.8811 15.6145 66.6802 15.7723 66.3836 15.832C66.0635 15.6704 66.3795 15.3018 66.1132 15.1436C65.5913 15.5246 65.8261 16.38 65.0806 16.7387C65.2918 16.0001 65.5333 15.3507 65.6542 14.6792C65.7764 14.0024 66.4557 13.4673 66.1393 12.5937C65.7077 13.4553 65.4819 14.3027 65.1804 15.1315C65.0851 14.6685 65.1071 14.2543 65.3017 13.7871C65.6749 12.8903 65.9214 11.9405 66.2279 11.0156C66.3923 10.5211 66.5531 10.0232 66.7573 9.5448C66.8119 9.4164 66.8877 9.31037 66.9122 9.15628C67.0422 8.34403 67.0928 8.27818 67.8176 7.68256Z" fill="black"/>
</svg>
