<svg width="83" height="80" viewBox="0 0 83 80" fill="none" xmlns="http://www.w3.org/2000/svg">
<path fill-rule="evenodd" clip-rule="evenodd" d="M39.6625 23.5111H40.295C40.4081 23.7489 40.4487 24.0164 40.7001 24.151C41.9352 24.1854 41.5459 24.0914 42.9624 25.5125H45.8291C46.257 25.7064 46.3796 26.3061 46.9421 26.2076C47.3434 26.7584 48.3268 26.7601 48.3346 27.7037C48.3359 27.8379 48.5832 27.97 48.7161 28.1029C48.4982 28.7106 47.9875 29.0821 47.5605 29.5386C47.4192 29.7655 46.9603 29.3683 46.9471 29.7908C46.9342 30.1996 46.5291 29.9768 46.3866 30.2179C46.2872 30.386 45.9617 30.42 45.7326 30.5161C45.6415 30.437 45.5587 30.3649 45.4783 30.2953C45.3702 30.7149 44.9701 30.7795 44.6677 30.9497C44.4498 30.9812 44.4179 30.6437 44.0808 30.7828C43.9445 30.9526 43.7358 31.2132 43.5307 31.4679C43.3054 31.2848 43.17 31.0736 42.984 31.1871C42.499 31.4824 42.0363 31.8146 41.5695 32.1381C41.111 32.4554 40.4271 32.6509 39.8667 32.5788C39.4293 32.5221 39.1075 33.0456 38.603 32.631V33.524C38.3545 33.7841 37.9394 33.5091 37.753 33.997C37.6516 33.3111 36.785 33.6756 36.7001 33.0241C36.3435 33.1926 35.9774 33.4345 35.692 32.9006C35.6236 32.7838 35.7872 32.7702 35.8258 32.6712C35.8158 32.4512 35.6265 32.5655 35.513 32.5225C35.2832 32.2926 35.3834 31.8366 35.8668 30.9427C34.806 30.2729 34.3748 29.0962 33.6885 28.1676C33.7361 27.4253 34.1818 26.9626 34.8346 26.6773C35.0259 26.5932 35.2479 26.599 35.4526 26.5443C35.9968 26.3985 36.5332 26.1864 37.1251 26.1972C38.1776 26.2167 38.4754 25.9499 38.8063 24.9364C38.9691 24.4364 39.0139 23.8599 39.6625 23.5111Z" fill="black"/>
<path fill-rule="evenodd" clip-rule="evenodd" d="M69.7291 65.6155C69.0954 66.009 68.4699 66.1233 68.0827 66.6324C67.9356 66.8262 67.7302 66.8958 67.5314 66.9393C66.8003 67.0987 66.3153 67.7888 65.5279 67.8414C65.387 67.8505 65.2611 68.0899 65.1282 68.2225C64.3184 68.1467 63.5621 68.6251 62.7428 68.4565C62.5311 68.4126 62.295 68.548 62.1004 68.3728C61.5751 67.9006 60.9224 67.7412 60.253 67.6637C59.6441 67.5933 59.3128 67.1555 58.9247 66.7794C58.8526 66.5404 59.0647 66.1225 58.498 66.1859V65.1445C59.1015 64.3766 59.9627 64.0589 60.9758 63.914C61.9417 63.776 62.8956 63.4882 63.823 63.1734C64.2318 63.035 64.5649 62.7505 64.8138 62.2708C65.4595 61.0237 65.94 59.7239 66.3579 58.3951C66.6731 57.394 66.6528 57.3878 67.5069 56.9338C68.122 57.0875 67.8743 57.6438 67.9592 57.9872C68.1933 57.7531 68.4186 57.5274 68.6307 57.3153C68.9409 57.546 69.0962 57.737 69.1273 58.0248C69.4727 58.0389 69.8368 58.2311 70.1164 57.7854C70.3078 58.2141 70.0062 58.7335 70.6453 58.9601C70.7907 58.763 70.9821 58.5028 71.1796 58.2357C71.4617 58.5592 71.2132 58.8951 71.4017 59.1486C71.6166 59.2832 71.7401 59.137 71.8697 58.9945C71.9219 59.028 71.996 59.0492 72.0234 59.0968C72.7586 60.3771 72.5705 61.6259 71.861 62.8383C71.5077 63.443 71.0363 63.9612 70.5078 64.4205C70.1156 64.761 69.8592 65.1798 69.7291 65.6155Z" fill="black"/>
<path fill-rule="evenodd" clip-rule="evenodd" d="M55.7048 48.9904C55.4144 49.0194 55.1381 49.1494 54.9944 48.7953C54.6461 49.0508 54.3901 49.5628 53.8839 49.0902C53.7576 48.9721 53.6056 48.9862 53.5041 49.1258C53.3372 49.3544 53.0824 49.185 52.8766 49.2898C52.5676 50.2719 51.7831 50.8804 51.0222 51.4967C50.9278 51.5733 50.7816 51.7129 50.6722 51.7141C49.6682 51.7228 48.6617 51.8086 47.6593 51.6731C47.3648 51.2954 46.7145 51.7783 46.5045 51.1956C46.0916 51.1889 45.7333 51.0423 45.3692 50.8456C44.9931 50.6422 44.6605 50.3593 44.2919 50.1799C43.724 49.9033 43.4183 49.4481 43.1358 48.9489C42.9482 48.6172 42.8082 48.2585 42.6421 47.9014C42.8339 47.5332 42.9826 47.1314 43.3392 46.846C43.5438 46.6816 43.7335 46.5892 43.9978 46.5168C44.6762 46.3308 45.2685 45.9572 45.8397 45.5144C47.1913 44.4669 48.4786 43.3452 49.7688 42.2269C50.0211 42.0078 50.3305 41.944 50.5985 41.787C50.8118 41.9456 51.0674 42.0583 50.9911 42.383C51.3503 42.6046 51.7504 42.3486 52.0871 42.5433C52.1157 42.8647 51.7379 42.5487 51.7309 42.8643C52.0113 43.0317 52.3771 42.8705 52.7121 42.943C52.8646 43.1841 53.1727 43.2885 53.2701 43.6078C53.35 43.8696 53.7013 44.1972 53.6288 44.3277C53.4391 44.6702 53.7758 44.872 53.7195 45.1553C53.6627 45.4407 53.7729 45.8093 53.6288 46.0139C53.4623 46.2508 53.8338 46.5254 53.4552 46.6899C53.8674 46.9517 54.2372 47.351 54.651 47.4036C55.1037 47.4615 55.1149 48.2104 55.7048 47.8525V48.9904Z" fill="black"/>
<path fill-rule="evenodd" clip-rule="evenodd" d="M26.3065 58.3255C25.7627 58.591 25.5369 59.2777 24.8572 59.4645C24.6306 58.7484 25.7921 58.6253 25.4325 57.9477C25.1111 57.765 24.7959 57.5178 24.4372 57.4026C24.1191 57.3007 24.0015 57.1379 23.8702 56.8468C23.6805 56.4243 23.4295 56.008 22.985 55.7297C22.985 55.472 22.9581 55.2102 22.9908 54.9568C23.0641 54.386 23.2058 53.8566 23.6569 53.4242C24.7793 52.3494 26.0269 51.5048 27.5301 51.0496C27.89 50.9407 28.2127 50.7075 28.5738 50.5198C28.6256 50.0294 28.9276 49.5618 28.8948 48.9865C28.8804 48.7384 29.0779 48.3349 29.5079 48.2504C29.7299 48.2069 29.927 48.0408 30.2145 47.888V49.3601C30.5748 49.0051 30.8234 48.7595 31.0549 48.5313C32.4011 49.3319 33.3508 50.3318 33.6259 51.8743C33.4668 51.9306 33.3363 51.9766 33.1661 52.0371V52.9756C32.5721 53.4238 32.517 54.1209 32.2838 54.6879C31.9922 55.3962 31.6555 56.0304 31.1348 56.5829C30.6842 57.0613 30.1288 57.4469 29.8471 58.079C29.7754 58.2393 29.6131 58.4145 29.4532 58.4708C28.8373 58.6875 28.4343 59.1406 28.0536 59.6931C27.9836 59.5005 27.936 59.3701 27.8432 59.1149C27.6924 59.6004 27.603 59.9607 27.1254 60.1976C26.5422 60.4868 26.3372 60.1484 26.0331 59.87C25.8886 60.0258 25.7701 60.1811 25.5489 60.0618C25.5233 59.9992 25.4582 59.9201 25.4764 59.8729C25.6343 59.4682 25.8331 59.0892 26.1872 58.8121C26.3367 58.6949 26.4589 58.5558 26.3065 58.3255Z" fill="black"/>
<path fill-rule="evenodd" clip-rule="evenodd" d="M45.2581 10.3732C45.1156 10.316 45.1015 10.1545 44.9135 10.239C44.8489 10.7758 45.0353 11.3888 44.5473 11.9459C44.3555 12.0168 43.9252 11.9128 43.8063 12.2947C43.7111 12.6012 43.61 12.8327 43.3101 12.8783C42.9634 12.8725 43.2256 12.4206 42.9075 12.4243C42.5969 12.426 42.5128 12.7333 42.3044 12.8725C42.2005 12.807 42.1416 12.6815 42.1959 12.5958C42.3537 12.3473 42.5269 12.1162 42.3591 11.8055C42.1155 11.5955 41.9987 11.9045 41.8182 11.9397C41.6897 11.8614 41.7051 11.7148 41.7461 11.6369C42.1884 10.792 42.3628 9.85959 42.6917 8.98107C42.0319 8.56024 41.3468 8.28149 40.704 7.96297C39.9791 7.60385 39.487 7.05918 38.8657 6.5203H37.8932C37.8882 5.94995 38.5414 5.79959 38.408 5.16587C38.0734 4.93433 37.9872 5.78261 37.5713 5.648C37.4661 5.58421 37.4301 5.48894 37.4537 5.30918C38.0709 4.91196 38.8624 4.8722 39.5471 4.53876C40.2761 4.18421 41.1173 4.14155 41.908 3.96385C42.7302 3.77912 43.53 3.94894 44.37 3.80687C44.964 3.35084 44.8609 2.55723 45.1173 1.91273C45.3853 1.2409 45.6806 0.607581 46.2389 0.117581C46.4489 -0.0663239 46.6448 0.0152737 46.8813 0.0355696C46.9182 0.3748 46.3184 0.422433 46.5342 0.869357C46.8254 0.728114 47.1187 0.586457 47.3966 0.451428C47.6335 0.465925 47.6137 0.624978 47.6112 0.773262C48.7034 1.0222 48.8923 1.1419 49.2825 2.27598C49.3678 2.52326 49.4337 2.85504 49.4225 3.16237C49.4076 3.57533 49.4187 3.98912 49.4187 4.39669C49.5016 4.56362 49.6859 4.48078 49.8363 4.58598V6.27882C48.9809 6.57249 48.7854 7.48249 48.2938 8.14894C48.0784 8.44137 47.9198 8.77811 47.303 8.85474C47.5992 8.52669 47.8642 8.33823 47.9724 8.0835C48.0767 7.83705 48.3629 7.64527 48.2801 7.34415C48.2147 7.2232 48.1645 7.21699 48.1078 7.29693C47.7831 7.75835 47.5374 8.29847 46.9335 8.4832C46.9588 8.9032 46.813 8.8361 46.6051 8.59379C46.3677 8.75616 46.5173 8.99681 46.4858 9.19811C46.4618 9.34805 46.4775 9.48101 46.2559 9.49385C45.7162 9.52492 45.6011 10.0601 45.2581 10.3732Z" fill="black"/>
<path fill-rule="evenodd" clip-rule="evenodd" d="M24.3361 26.2075C24.3854 26.6697 24.3105 26.9704 23.9215 27.115C23.6192 27.1113 23.5347 26.8039 23.3263 26.6643C23.0608 26.9418 22.7966 26.9866 22.4731 26.7232C22.2063 26.5065 21.9773 26.2062 21.9479 25.9304C21.8903 25.382 21.5486 25.0784 21.199 24.7698C20.5363 24.1841 20.0848 23.4758 19.7559 22.6582C19.5948 22.2568 19.584 21.9785 19.7953 21.5647C20.1581 20.8547 20.6779 20.4671 21.428 20.3358C21.9189 20.2496 22.3778 19.9791 22.8798 20.1249C22.9941 19.9265 23.1685 19.8598 23.2211 19.6461C23.4966 18.5257 23.9439 17.4682 24.4931 16.4547C24.8692 15.7597 25.194 15.7162 25.894 16.1039C26.3305 16.3462 26.7667 16.5417 27.1498 16.8975C27.6783 17.3887 27.8979 17.653 28.1928 18.3729C28.4823 19.0811 28.6501 19.7919 28.6422 20.5578C28.6389 20.9078 28.4873 21.3046 28.8514 21.6011C28.9069 21.6459 28.8948 21.8327 28.8534 21.9275C28.5693 22.5753 28.7022 23.3221 28.3054 23.9575C27.8618 24.6683 27.4364 25.3923 26.7646 25.8968C26.5405 26.0654 26.244 26.2472 25.884 26.2174C25.4023 26.1776 24.9144 26.2075 24.3361 26.2075Z" fill="black"/>
<path fill-rule="evenodd" clip-rule="evenodd" d="M12.3662 38.9183C12.3662 39.1871 12.2862 39.4538 12.3798 39.5495C12.8384 40.0172 12.2419 40.4003 12.3223 40.824C11.7933 41.3244 11.6351 42.0588 11.1981 42.6113C10.9533 42.9211 10.699 43.228 10.1842 43.1771C9.90333 43.1489 9.57363 43.3279 9.3396 43.5768C9.11055 43.4078 8.87156 43.2587 8.57333 43.4422C8.5431 43.6261 8.84381 43.6816 8.72327 43.9525C8.31611 44.0859 7.86049 44.2317 7.40736 44.3841C6.94594 44.5398 6.34534 44.5763 6.06286 44.894C5.73274 45.2643 5.31481 45.5049 4.95818 45.9038C4.67818 45.7124 4.33895 45.6288 3.97777 45.5836C4.14676 45.2883 4.54771 45.21 4.41227 44.7312C4.21718 44.8886 4.04528 45.0273 3.87505 45.1649C3.75493 45.0924 3.73795 44.9288 3.78972 44.8733C3.98233 44.6662 4.07759 44.4487 3.94629 44.0917C3.30511 44.0759 2.65481 43.8212 2.00244 43.5101C1.80943 43.1667 2.21286 42.883 2.21783 42.5877C1.94446 42.3764 1.81233 42.5061 1.67647 42.6602C1.29955 42.5301 1.16617 42.1901 1.32771 41.9109C1.54931 41.5269 1.72659 41.1049 2.21576 40.8762C3.6344 40.2127 4.98759 39.4128 6.40996 38.8048C7.03582 37.7411 6.92067 36.3515 7.95369 35.4767H8.62345C8.73239 35.8056 8.96807 35.8598 9.30481 35.9584C9.89753 36.132 10.5458 36.4161 10.7698 37.0842C10.9223 37.5406 11.2975 37.826 11.4848 38.2551C11.619 38.5625 11.8936 38.8661 12.3662 38.9183Z" fill="black"/>
<path fill-rule="evenodd" clip-rule="evenodd" d="M41.409 74.9993C41.2541 74.8846 41.2102 74.7549 41.1696 74.7632C40.8154 75.1339 40.5201 75.4437 40.1295 75.8534C40.0981 76.0572 40.564 75.7759 40.5814 76.0452C39.8951 76.4449 38.9685 76.5923 38.8795 77.6854C38.9064 77.7127 39.0128 77.8192 39.1914 77.9981C39.3831 77.7376 39.5749 77.4771 39.7708 77.2111C40.0073 77.4655 39.9349 77.6055 39.7845 77.755C39.4175 78.1203 39.0207 78.38 38.4698 78.4103C38.0871 78.431 37.7462 78.7499 37.313 78.5904C37.2566 78.7532 37.2107 78.8841 37.1643 79.0179C37.0193 79.1057 37.0106 78.9247 36.8499 78.8762C36.8209 79.2482 36.4204 79.2619 36.224 79.5037C35.8612 79.3555 35.5845 78.9288 35.2043 78.9906C35.0237 79.02 34.7495 78.6252 34.6269 79.1053C34.4297 78.8522 34.2491 78.6198 34.0983 78.426H33.1718C32.6176 78.1659 32.4589 77.6775 32.2436 77.2331C32.3136 77.1159 32.3802 77.0053 32.444 76.8984L32.0137 76.4681C32.0307 76.1475 32.2502 75.901 32.4163 75.6413C32.5828 75.3808 32.8466 75.4189 33.101 75.5216C33.1146 75.7175 32.7849 75.8294 32.9962 76.1036C33.5019 75.7635 34.1199 75.6774 34.6637 75.4139C35.0452 74.4016 35.0146 73.2477 35.8392 72.3849C36.031 72.1844 36.1739 71.7611 36.0973 71.3713C36.0554 71.1605 36.2514 71.1667 36.4212 71.1675C36.6854 71.4786 36.4465 71.8738 36.5678 72.2109C37.3101 71.8916 37.5515 71.4451 37.5288 70.6676C37.5217 70.4257 37.7417 70.1793 37.6307 69.8611C37.4368 69.8218 37.4753 69.9775 37.4372 70.0923C37.4053 70.1892 37.3105 70.2646 37.2446 70.3507C37.144 70.482 37.0172 70.5268 36.8594 70.4663C36.9037 69.3297 37.2301 68.8559 38.2449 68.462C38.4947 68.7043 38.2292 69.0439 38.4135 69.3181C38.6388 69.2838 38.7163 69.0547 38.9151 68.9164C39.0427 69.1516 39.1011 69.4403 39.3691 69.5832C39.5902 69.6669 39.6867 69.4664 39.8665 69.3297C40.6498 69.6545 41.2711 70.0985 41.2984 71.0926C41.3079 71.4359 41.7064 71.8054 41.4885 72.1119C41.2197 72.4917 41.6223 72.7382 41.5258 73.0733C41.392 73.5393 41.8522 73.9377 41.7557 74.4459C41.7068 74.7023 41.5556 74.8241 41.409 74.9993Z" fill="black"/>
<path fill-rule="evenodd" clip-rule="evenodd" d="M65.8283 20.1075H66.479C66.7321 20.3456 66.4835 20.682 66.6393 20.9537C67.029 21.1645 67.1148 20.7416 67.3459 20.5975C67.3927 20.6219 67.4519 20.641 67.4958 20.6774C67.7526 20.8907 67.9001 21.1848 68.1842 21.4035C69.11 22.1172 69.2881 23.2082 68.7426 24.382C68.4928 24.9205 68.2563 25.5198 67.8434 25.9113C67.5029 26.2335 67.5853 26.6531 67.3219 26.9596C67.0651 27.2583 66.7399 27.4683 66.5544 27.8783C66.3373 28.3559 65.6568 28.4669 65.3246 28.9188C64.7224 28.7817 64.6304 29.2924 64.3955 29.6358C64.2912 29.7886 64.1342 29.905 63.9702 30.0694C63.6487 30.0065 63.3464 29.8097 62.9711 29.7952C62.6513 29.7824 62.3494 29.3819 62.0073 29.7729C61.5222 29.3467 60.9987 29.8992 60.5542 29.7397C60.0651 29.5649 59.5022 29.6163 59.0664 29.2249C58.9148 29.089 58.5723 29.1458 58.318 29.1495C57.9928 29.1541 57.8731 28.9474 57.8338 28.8513C57.6871 28.4425 58.2463 28.43 57.9539 28.1016C57.8342 27.8891 57.5554 28.1223 57.3736 27.9516C57.2763 27.7851 57.3301 27.6045 57.3471 27.4268C57.7079 27.2715 58.0425 27.1071 58.4621 27.0934C59.0644 27.0739 59.5593 26.6697 60.1131 26.4605C61.2534 26.0306 62.3034 25.4507 63.1691 24.5601C63.4793 24.2408 63.6939 23.8867 63.8807 23.4952C64.2713 22.678 64.6718 21.8654 65.0794 21.0564C65.2592 20.7002 65.465 20.3564 65.8283 20.1075Z" fill="black"/>
<path fill-rule="evenodd" clip-rule="evenodd" d="M0.271996 18.3059C0.431463 18.4563 0.590102 18.6062 0.745013 18.7524C1.57176 18.7226 1.77306 17.9953 1.94247 17.468C2.43288 15.9396 3.04176 14.4567 3.55661 12.9391C3.70448 12.5034 3.82916 12.4106 4.81951 11.9396C4.93176 12.4607 5.22543 12.6699 5.80075 12.6935C6.16359 12.708 6.61549 13.0559 6.83046 13.3835C7.00649 13.6519 7.41365 13.9332 7.35442 14.1461C7.26205 14.4779 7.78892 14.6912 7.43685 15.013C7.38673 15.0594 7.6717 15.2416 7.62655 15.4583C7.55655 15.7938 8.09087 16.0812 7.82868 16.3629C7.50353 16.7121 8.00845 16.932 7.85022 17.2103C7.83407 17.2389 7.83821 17.2878 7.84939 17.3218C7.98401 17.7327 7.11004 17.7633 7.49898 18.3428C7.63566 18.5466 7.26247 18.9123 7.09679 19.1985C6.89052 19.5551 6.63206 19.843 6.35661 20.1313C6.10519 20.3951 5.84797 20.6486 5.43916 20.6987C5.0933 20.217 4.7259 21.0077 4.33531 20.7965C4.24129 21.5276 3.33336 21.4733 3.08815 22.124C3.02768 22.3025 3.30478 22.363 3.33294 22.5548C3.25632 23.0469 2.84501 23.1798 2.51324 23.0203C1.98472 22.7664 1.44543 22.8704 0.895369 22.7992C0.847321 22.315 0.710221 21.8697 0.352351 21.5503C0.148564 21.3677 0.0744217 21.0893 0.182114 20.958C0.690339 20.3376 0.199096 19.7991 0.0793922 19.2461C-0.027886 18.7495 -0.0775901 18.7603 0.271996 18.3059Z" fill="black"/>
<path fill-rule="evenodd" clip-rule="evenodd" d="M70.8821 42.5874C71.1459 42.3236 71.3845 42.085 71.6218 41.8473C73.2405 41.5867 74.8588 41.3494 76.528 41.7897C77.0168 41.6779 77.2446 41.1982 77.3743 40.7985C77.5437 40.2745 77.9811 39.9399 78.1347 39.4196C78.2491 39.0324 78.7709 39.1305 78.9379 38.8174C79.3065 38.9694 79.5588 39.1098 79.4415 39.5472C79.9626 39.5174 80.4017 39.5108 80.6862 39.956C80.9062 40.2998 81.4678 40.26 81.568 40.8171C81.6389 41.2082 81.9504 41.5557 82.1363 41.8912C81.6364 42.628 82.3509 43.2311 82.3153 43.9034C82.1628 44.3441 82.0212 44.7674 81.3622 44.796C80.9911 44.8121 80.6009 45.1426 80.2811 45.4069C79.869 45.7482 79.5107 45.7519 79.0944 45.4019C79.077 45.9537 78.5949 46.0464 78.2263 46.2651C78.1422 46.2183 78.0233 46.0916 77.9144 46.0995C77.1788 46.1508 76.4986 45.7594 75.8164 45.7623C75.1156 45.7652 74.4595 45.6612 73.9107 45.3427C73.3279 45.0051 72.6503 44.9364 72.094 44.5325C71.8592 44.3619 71.6463 44.2786 71.5469 43.9647C71.4007 43.5012 70.8589 43.2266 70.8821 42.5874Z" fill="black"/>
</svg>
