<svg width="27" height="35" viewBox="0 0 27 35" fill="none" xmlns="http://www.w3.org/2000/svg">
<path fill-rule="evenodd" clip-rule="evenodd" d="M10.676 7.82302C10.6744 8.16266 10.0104 8.41698 10.5464 8.83284C10.5837 8.86225 10.5903 9.01053 10.5551 9.04325C10.1222 9.44917 10.3658 9.96319 10.3455 10.4221C10.3066 11.323 10.3575 12.2272 10.3277 13.1289C10.2975 14.0398 10.4027 14.9436 10.1446 15.8656C9.95905 16.5279 10.0448 17.2917 10.1256 17.9966C10.2125 18.7513 9.81533 19.4335 9.89154 20.1604C9.99757 21.1649 9.51462 22.1125 9.65586 23.1133C9.66124 23.1501 9.66828 23.1932 9.65462 23.2255C9.2226 24.2544 9.26609 25.3827 8.9832 26.4434C8.87716 26.8415 8.57024 27.223 8.83284 27.6691C9.1468 27.8053 9.36633 27.5373 9.63059 27.4889C10.4333 27.3414 11.2046 27.0295 12.0334 27.0196C12.2711 26.5594 12.7682 26.8937 13.1351 26.6617C13.4446 26.4666 13.937 26.3738 14.3496 26.3672C14.763 26.361 15.072 25.9816 15.4965 26.1204C15.9082 25.6697 16.5076 25.9348 17.0204 25.7132C17.9374 25.3168 18.9485 25.1234 19.909 24.7966C20.4657 24.6069 20.8368 24.3057 21.1338 24.0133C21.2763 23.3564 21.0298 22.8863 20.785 22.4766C20.1149 21.3546 19.4351 20.2254 18.6333 19.1974C17.3782 17.5891 16.228 15.9099 15.0653 14.2386C14.1139 12.8713 13.1973 11.48 12.2724 10.0945C11.7579 9.3245 11.369 8.46751 10.676 7.82302ZM20.6181 28.6014C20.3659 28.8541 20.1525 29.067 19.9396 29.2799C19.9131 29.2559 19.8866 29.231 19.8601 29.207C19.8071 29.1606 19.7139 29.0674 19.706 29.0744C18.9257 29.7301 17.7717 29.2298 17.0034 29.9438C16.8725 29.8478 16.7213 29.6175 16.5598 29.7471C16.2595 29.9878 16.0018 30.0851 15.6986 29.7898C15.6431 29.7355 15.564 29.7446 15.5433 29.8411C15.4307 30.3659 15.0686 30.2624 14.6747 30.2773C14.3094 30.2918 13.9582 30.5299 13.5904 30.6351C12.6058 30.9172 11.5496 30.906 10.6019 31.3269C10.2966 31.4623 10.1069 30.9549 9.74036 31.2859C9.57053 31.4395 9.22095 31.6437 8.84154 31.5596C8.53876 31.493 8.26166 31.7556 7.92657 31.8003C7.31562 31.8815 6.81858 32.2567 6.60361 32.8954C6.55059 32.8424 6.49757 32.7894 6.44497 32.7368C6.00219 32.8855 5.88787 33.1179 6.25775 33.4733C6.15089 33.5797 6.04444 33.6862 5.93716 33.7938C5.85763 33.7226 5.77811 33.6514 5.70148 33.583C5.31213 33.7649 5.4074 34.4185 4.95882 34.4549C4.58769 34.4856 4.26089 34.585 3.97302 34.7275C3.60976 34.5684 3.93615 34.194 3.67728 34.0357C3.53189 34.1281 3.45154 34.3621 3.14047 34.1815C3.10817 33.9007 2.97604 33.5511 3.31651 33.25C2.93089 32.9667 2.50178 32.8892 2.02213 32.8843C1.51805 32.8797 1.03964 32.7496 0.838757 32.1656C0.68716 31.7245 0.0153254 31.7373 0 31.126C0.0269231 31.0883 0.108521 30.9735 0.183491 30.8538C0.470533 30.3941 0.801893 30.0462 1.42527 29.9053C2.40195 29.6846 3.30615 29.1163 4.28491 28.9411C5.11 28.7928 5.17959 28.2141 5.33864 27.6877C5.4484 27.3257 5.52047 26.9152 5.55858 26.5437C5.67663 25.3947 6.09414 24.2892 6.04195 23.1203C6.50586 22.3557 6.11941 21.4755 6.38823 20.6678C6.65 19.8833 6.32941 19.0122 6.51911 18.2319C6.86953 16.7921 6.66491 15.352 6.70964 13.9147C6.75396 12.4853 6.71917 11.0538 6.71917 9.62355C6.71917 8.15562 6.8774 6.66533 6.67527 5.22556C6.47189 3.77876 6.56716 2.35018 6.48432 0.93858C6.82769 0.595207 7.14704 0.275858 7.4229 0C7.64615 0.223254 7.87189 0.448994 8.11337 0.690059C8.42775 0.244793 8.83284 0.276272 9.09379 0.394734C10.1682 0.881834 11.1043 1.50935 11.7107 2.62189C12.636 4.32095 13.6865 5.9529 14.7033 7.60183C15.4828 8.86722 16.3191 10.1015 17.1674 11.3064C18.2605 12.8585 19.291 14.4685 20.5498 15.9074C21.0435 16.472 21.3268 17.2341 21.9349 17.6843C22.238 17.9092 21.7808 18.4195 22.3652 18.4556C22.7401 18.4788 22.6887 18.9837 22.9414 19.1841C23.2325 19.4153 23.3614 19.781 23.6004 20.0299C23.8381 20.2776 23.8514 20.6351 24.1347 20.8401C24.4002 21.0319 24.5228 21.3517 24.7125 21.6085C25.1557 22.2099 25.5363 22.8465 25.8884 23.4985C26.3096 24.2792 26.2653 25.0815 25.8412 25.8586C25.7906 25.9509 25.7364 26.0777 25.6854 26.1257C25.4204 26.3776 25.6109 26.8477 25.3545 26.9989C24.7183 27.3746 24.184 27.9557 23.4583 28.128C23.0954 28.2137 22.796 28.3678 22.4973 28.5422C22.2041 28.7141 21.8682 28.4983 21.5563 28.7493C21.3392 28.9237 20.9267 28.9688 20.6181 28.6014Z" fill="black"/>
</svg>
