<svg width="32" height="29" viewBox="0 0 32 29" fill="none" xmlns="http://www.w3.org/2000/svg">
<path fill-rule="evenodd" clip-rule="evenodd" d="M13.258 3.17202C13.0596 3.17202 12.9697 3.19936 12.9113 3.16788C12.0622 2.71143 11.334 2.90238 10.6456 3.527C10.2157 3.91717 9.76713 4.34214 9.28914 4.61469C8.28139 5.18877 7.77938 6.18202 7.08807 6.99469C6.27914 7.94611 5.78293 9.13279 5.22417 10.2681C4.40902 11.927 4.05943 13.6708 3.90204 15.4734C3.80056 16.6389 4.03955 17.7689 4.31417 18.903C4.40446 19.2766 4.69233 19.6133 4.59997 20.0313C5.07298 20.2168 4.51423 20.8004 5.02162 21.046C5.33766 21.1985 5.53275 21.6011 5.7821 21.891C5.83014 21.9465 5.896 21.9933 5.92582 22.0571C6.3479 22.9617 7.17298 23.441 7.95582 23.9521C8.76227 24.4789 9.71245 24.7627 10.6262 24.8207C12.0146 24.9081 13.4407 25.0563 14.8154 24.631C15.549 24.4036 16.3322 24.3278 17.0161 23.9546C18.3473 23.2281 19.698 22.5832 20.9067 21.594C22.4549 20.3266 23.7091 18.8798 24.6651 17.1621C25.1013 16.3776 25.443 15.5235 25.7031 14.6632C25.9686 13.7859 26.1496 12.8697 26.2453 11.9576C26.3795 10.6844 26.1533 9.42398 25.7975 8.20208C25.6145 7.57208 25.3987 6.91309 25.0284 6.38581C24.6022 5.77984 24.0571 5.19995 23.4395 4.80149C22.7494 4.35581 22.0693 3.7664 21.1456 3.81735C20.9489 3.30788 20.6341 3.90433 20.3529 3.72498C19.8227 3.38658 19.2068 3.23374 18.6054 3.04238C18.2322 2.9235 17.883 3.0225 17.5309 2.92143C16.6768 2.67705 16.6748 2.69404 15.7776 2.91273C15.7142 2.92806 15.6161 2.80007 15.5291 2.73546C15.3816 2.87339 15.2259 3.01877 15.0693 3.16581C14.7628 2.75451 14.4464 2.98149 14.1353 3.13309C13.999 2.9964 13.8661 2.86344 13.729 2.72676C13.5703 2.8767 13.4113 3.02705 13.258 3.17202ZM15.3199 28.0241C14.7496 28.0241 14.3337 28.0485 13.9216 28.0195C12.6363 27.9297 11.3688 27.7822 10.1192 27.3974C9.45565 27.1932 8.71754 27.1431 8.07801 26.8672C7.40991 26.5789 6.69707 26.381 6.11139 25.869C5.57707 25.4018 4.96943 24.9984 4.38168 24.5974C3.45677 23.9653 2.75014 23.1941 2.256 22.2058C1.66162 21.9229 1.67156 21.2358 1.31742 20.781C0.982748 20.3502 0.858902 19.7658 0.621979 19.272C0.4447 18.903 0.742925 18.413 0.279848 18.169C0.369316 17.684 0.112097 17.2491 0.0727478 16.793C0.005233 16.0085 -0.0515126 15.1963 0.0764756 14.4275C0.329967 12.9062 0.672097 11.408 1.25322 9.9525C1.82109 8.52972 2.7373 7.33185 3.45636 6.01137C3.62908 5.69451 3.93062 5.39421 4.24707 5.22439C4.5805 5.04463 4.41689 4.44445 4.94044 4.49871C5.48429 3.67859 6.29571 3.16126 7.06653 2.59297C8.03701 1.87765 9.11559 1.38723 10.2472 1.00161C10.7177 0.841315 11.2421 0.757232 11.7006 0.733622C12.5116 0.691788 13.2646 0.509125 13.9899 0.22167C15.0051 -0.18052 16.0419 0.107764 17.0629 0.0091844C17.3913 0.361255 17.8333 0.275516 18.2081 0.214214C18.6186 0.147528 18.8733 0.451965 19.2457 0.478474C20.5202 0.569599 21.6907 1.08445 22.8849 1.49202C24.1888 1.93688 25.3606 2.63936 26.4971 3.40025C28.178 4.52522 29.5171 5.95546 30.3446 7.82309C30.6582 8.53055 30.8462 9.27238 31.0417 10.0242C31.3586 11.246 31.2364 12.4588 31.2025 13.665C31.1726 14.7125 30.8288 15.7381 30.4428 16.7263C30.1512 17.4711 29.8592 18.2158 29.5622 18.9585C29.5365 19.0231 29.4297 19.0724 29.4309 19.1275C29.4491 20.2234 28.6936 20.8833 28.0487 21.6065C27.9025 21.7705 27.7041 21.9155 27.6262 22.1085C27.1035 23.4062 25.9367 24.0614 24.9161 24.8575C23.8574 25.6834 22.6471 26.265 21.4435 26.8316C20.3972 27.3241 19.2594 27.5668 18.1253 27.8286C17.13 28.0585 16.15 27.9707 15.3199 28.0241Z" fill="black"/>
</svg>
