<svg width="31" height="29" viewBox="0 0 31 29" fill="none" xmlns="http://www.w3.org/2000/svg">
<path fill-rule="evenodd" clip-rule="evenodd" d="M15.8224 11.3881C15.3221 11.7029 14.7729 11.9058 14.2282 12.1291C13.9246 12.2529 13.6036 12.0823 13.3675 12.2231C13.0075 12.4377 12.5039 12.2824 12.2669 12.5338C11.924 12.8983 11.5603 12.8738 11.1569 12.8892C10.9813 12.8954 10.8164 12.8751 10.6292 12.9766C10.0071 13.3137 9.84469 13.8928 9.72209 14.5087C9.66576 14.792 9.79043 15.0782 9.62724 15.3739C9.47854 15.6436 9.88984 15.9484 9.71546 16.2355C9.1915 17.0974 9.81197 18.1346 9.2702 18.9854C9.87907 19.4145 9.05688 20.0325 9.47854 20.5254C9.62516 20.6973 9.10659 20.9367 9.27889 21.2001C9.60321 21.6967 9.43008 22.2605 9.54108 22.8726C10.0824 22.7339 10.5898 22.6204 11.0861 22.4696C11.3163 22.4 11.5152 22.205 11.745 22.1635C11.9658 22.1238 12.1829 22.1387 12.3241 21.9262C12.6004 22.328 12.7072 21.9158 12.8833 21.8139C13.0949 21.6922 13.3124 21.5799 13.5311 21.4714C14.4974 20.9913 15.518 20.6099 16.4359 20.047C17.6897 19.2786 18.9774 18.548 19.9843 17.4317C20.5124 16.846 21.0874 16.3013 21.6565 15.7538C22.3639 15.0728 22.834 14.2299 23.3327 13.4011C24.4739 11.5045 24.7497 9.36679 25.0778 7.24318C25.1014 7.08951 25.1871 6.85756 24.915 6.78507C24.8442 6.79874 24.7592 6.7917 24.7075 6.82939C23.5655 7.66152 22.412 8.4543 21.1321 9.08927C20.1413 9.58052 19.0221 9.83981 18.1983 10.6164C17.7634 10.3745 17.7543 10.3679 17.635 10.527C17.5981 10.5758 17.625 10.6719 17.6226 10.7461C17.1491 10.7121 16.7722 11.3529 16.2383 10.9354C16.0515 10.7892 15.8336 10.8136 15.6282 10.9267C15.6514 11.101 15.9111 11.171 15.8224 11.3881ZM25.5992 20.5618C26.6509 19.7384 27.377 18.671 28.1226 17.6231C28.5633 17.9851 27.8231 18.1218 28.0219 18.4208C26.9616 19.586 26.0412 20.8766 24.7021 21.787C24.2966 22.0633 23.8604 22.3524 23.4947 22.7119C23.2288 22.9733 22.9575 22.8702 22.7272 22.6146C22.4654 22.7513 22.6862 23.0201 22.5665 23.197C22.2206 23.3597 21.8313 23.4517 21.56 23.7541C21.3458 23.9931 20.8844 23.6555 20.7614 24.0999C20.3377 24.0726 20.1782 24.4893 19.87 24.6632C19.5532 24.8422 19.1667 24.7655 18.8892 25.0464C18.7322 25.205 18.5595 25.0128 18.4369 24.8728C17.8313 25.4357 17.1885 25.8251 16.3435 25.3487C16.2594 25.5865 16.1936 25.8375 16.0126 25.9382C15.5039 26.1183 14.9696 25.7501 14.5815 26.2124C14.3512 26.0483 14.2021 25.8238 14.1748 25.509C13.9449 25.6755 14.0994 26.0487 13.7332 25.9928C13.5907 25.9713 13.4652 26.0069 13.3261 26.0997C12.6861 26.5255 12.6791 26.5151 12.0801 26.0007C11.8962 26.1469 12.0176 26.3511 11.96 26.6121C10.9378 26.5537 10.3562 27.2437 9.88404 28.0431C9.6757 27.9383 9.76144 27.7524 9.67611 27.6376C9.05937 27.5991 8.8009 27.0851 8.43848 26.7044C8.27487 26.8626 8.43434 27.0673 8.32333 27.2595C8.20611 27.3187 8.04209 27.3845 7.89712 27.4794C7.52931 27.7209 7.18801 27.5651 7.06954 27.2561C6.9399 26.9186 6.71209 26.7086 6.48221 26.4849C6.04315 26.057 5.7909 25.565 5.89363 24.9466C5.45292 24.8716 5.24913 24.5448 4.98073 24.2979V23.5142C5.17789 23.3556 5.43883 23.1452 5.69647 22.9373C5.10209 21.5012 4.51268 20.1294 3.86653 18.7774C3.41629 17.836 3.02197 16.8705 2.52203 15.948C1.8357 14.6826 1.16593 13.4106 0.354928 12.2194C0.0567036 11.7812 -0.0667284 11.3077 0.0351651 10.7142C0.653982 10.0411 1.39747 9.60785 2.36173 10.1749C2.63676 10.3368 2.72789 9.76649 3.00375 10.1024C3.15286 10.2838 3.42872 10.1695 3.64451 10.1666C3.88931 10.1633 4.14777 10.2557 4.37641 10.0125C4.47002 9.91312 4.73138 9.92472 4.9041 9.95537C5.72546 10.0987 6.52901 9.84519 7.28203 9.6675C7.97623 9.50389 8.7773 9.56975 9.39363 9.0549C9.55102 8.92318 9.70842 9.1543 9.84428 9.2591C10.0725 9.08182 10.2548 8.9033 10.5613 8.79105C12.095 8.23105 13.6417 7.70336 15.1361 7.02987C15.9036 6.68359 16.6123 6.23957 17.3682 5.88129C18.137 5.5172 18.8146 4.97418 19.549 4.59436C20.7531 3.9714 21.6465 2.98809 22.745 2.27194C23.5792 1.72809 24.1206 0.866966 25.0119 0.403061C25.4319 0.184777 25.8117 -0.0865248 26.3597 0.0265521C26.4724 0.848327 27.1351 0.679747 27.6823 0.684304C27.8082 0.809807 27.8956 0.963889 28.024 1.01525C28.9303 1.37643 29.3834 2.17833 29.9111 2.91022C29.974 2.99762 30.0718 3.05353 30.0577 3.18981C29.9815 3.92584 30.3356 4.60389 30.3021 5.35442C30.2333 6.89359 30.3095 8.43939 30.2731 9.98105C30.242 11.3073 29.9811 12.6112 29.5921 13.8733C29.0806 15.5338 28.1992 17.0059 27.1629 18.4018C26.6977 19.0284 26.1729 19.5835 25.6303 20.131C25.5011 20.2615 25.5226 20.3829 25.5992 20.5618Z" fill="black"/>
</svg>
