<svg width="41" height="55" viewBox="0 0 41 55" fill="none" xmlns="http://www.w3.org/2000/svg">
<path fill-rule="evenodd" clip-rule="evenodd" d="M37.468 42.856C37.4042 42.5615 36.997 42.5196 37.0782 42.1866C37.1764 41.7811 36.8666 41.5168 36.7738 41.1789C36.6723 40.8102 36.519 40.4565 36.3948 40.0936C35.9951 38.9252 36.1036 37.6308 35.5084 36.5079C35.4612 36.4197 35.4964 36.2884 35.4906 36.1774C35.433 35.1717 34.9571 34.2294 35.0391 33.2026C34.5566 32.1045 34.7409 30.8802 34.3818 29.7506C34.2455 29.3219 34.3271 28.8402 34.1631 28.373C34.0036 27.9157 34.1581 27.3938 33.9386 26.8831C33.7178 26.3707 33.9792 25.7664 33.7277 25.1638C33.5074 24.6357 33.6192 23.9655 33.4904 23.3496C33.3367 22.6131 33.4685 21.8369 33.2593 21.071C33.0915 20.4568 33.2622 19.7858 33.0369 19.1289C32.8753 18.6575 32.9457 18.0768 33.0219 17.5611C33.1019 17.0197 32.6935 16.5977 32.7718 16.0704C32.8157 15.7759 32.7796 15.4694 32.7796 15.1683C32.7796 14.8294 32.7473 14.4865 32.7892 14.1531C32.826 13.8631 32.563 13.4883 32.6566 13.3996C33.0658 13.0099 32.4922 12.8309 32.5311 12.5103C32.6077 11.8795 32.435 11.2035 32.5858 10.6013C32.7482 9.95305 32.0461 9.43489 32.447 8.81649C32.2776 8.23122 32.3344 7.63104 32.3286 7.03501C32.324 6.62081 32.3315 6.20661 32.3265 5.79282C32.3215 5.37613 32.2996 4.95862 32.4744 4.56388C32.1157 4.24122 32.5059 3.76199 32.2412 3.41862C32.0581 3.48489 31.9587 3.80672 31.687 3.55696C31.3846 3.27945 31.0963 3.3424 30.837 3.64477C30.7438 3.75329 30.6527 3.88666 30.4788 3.85229C30.1913 3.88832 30.3706 3.04998 29.8475 3.52051C30.0894 3.70607 30.1097 4.00388 30.2576 4.23128C30.188 4.25655 30.1201 4.2756 30.0571 4.30501C29.2668 4.67572 28.6124 4.80288 27.7214 4.75607C27.1941 5.27631 27.1941 5.27631 27.0753 5.82927C26.8321 5.95518 26.4941 5.78288 26.304 6.0753C26.2783 6.04797 26.2531 6.02104 26.2257 5.99205V5.48341C25.9888 6.05832 25.6355 5.78578 25.3596 5.95187C25.3393 6.12542 25.3182 6.30311 25.2971 6.48164C25.1132 6.5885 24.916 6.6556 24.7342 6.77406C24.4182 6.97992 24.0441 7.09962 23.6871 7.23672C23.5454 7.2914 23.4924 6.88962 23.2675 7.14229C23.1279 7.29968 22.8931 7.30548 22.7158 7.45211C22.3115 7.78637 21.7789 7.92471 21.3328 8.17696C20.9235 8.4085 20.4766 8.24323 20.1051 8.49962C19.1764 9.14081 18.073 9.33879 17.052 9.753C16.9774 9.54175 16.9311 9.41045 16.8859 9.28246C16.4945 9.44814 16.5417 9.92572 16.2253 10.127C15.5928 10.1904 15.2672 10.3026 14.7172 10.6245C14.6782 10.6468 14.5892 10.5843 14.5233 10.5615C14.3406 10.3242 14.6621 10.2103 14.6563 9.99696C14.52 9.93524 14.3879 9.90998 14.2702 10.0467C14.257 10.3018 14.2441 10.5549 14.2288 10.8457H13.045C12.7745 11.0234 12.6954 11.3485 12.3305 11.3046C12.2295 11.3129 12.227 11.0349 12.0385 11.1426C12.0099 11.2541 12.0166 11.3957 11.9507 11.4496C11.8061 11.5684 9.09976 12.4138 8.96597 12.4138C8.93987 12.4134 8.91336 12.3919 8.88644 12.3799C8.84088 12.249 8.79449 12.1181 8.74644 11.9806C8.44863 12.1446 8.7597 12.5066 8.48715 12.659C8.30987 12.4586 8.34425 12.0999 8.00626 12.017C7.91431 12.1694 7.67905 12.222 7.70265 12.4979C7.75567 12.5791 7.82816 12.6909 7.90354 12.8057C7.53035 13.0322 7.16626 12.7203 6.82828 12.7746C6.42981 12.8384 6.01313 12.9705 5.71946 13.1905C5.59851 13.3992 5.76585 13.6059 5.59106 13.7616C5.41875 13.736 5.34792 13.4779 4.98881 13.6266C4.98508 13.6307 4.8778 13.7401 4.8078 13.8697C4.73407 14.006 5.05632 14.1336 4.93041 14.1659C4.56052 14.2603 4.62597 14.5453 4.50129 14.7727C4.34307 15.061 4.26561 15.329 4.32857 15.599C4.39691 15.8919 4.04277 16.0899 4.27887 16.4539C4.45076 16.7182 4.35425 17.1904 4.30496 17.5603C4.16123 18.6405 4.48597 19.6831 4.58621 20.7376C4.64005 21.3018 4.76845 21.8775 4.7581 22.4553C4.74691 23.106 4.78834 23.087 4.95981 23.6519C5.02816 23.8764 5.36987 24.0181 5.19052 24.3291C4.94283 24.7591 5.36118 25.1857 5.21662 25.6202C5.86319 26.7659 5.75052 28.1038 6.15147 29.3004C6.33289 29.843 6.17964 30.4129 6.40786 30.8843C6.78934 31.6717 6.73508 32.5535 7.04573 33.3318C7.2607 33.8707 7.08425 34.4539 7.29135 34.9228C7.75484 35.9723 7.63431 37.159 8.15372 38.1796C8.03443 38.8125 8.39396 39.3758 8.40887 40.005C8.42378 40.6234 8.74644 41.2302 8.80319 41.854C8.83177 42.1667 9.13496 42.327 9.07076 42.6638C9.01733 42.9458 8.97922 43.3315 9.12585 43.5274C9.34538 43.8198 9.28656 44.0973 9.27082 44.3736C9.25218 44.6875 9.58313 44.8532 9.51727 45.1854C9.37851 45.8846 9.90703 46.5245 9.73473 47.2357C10.0918 47.6884 9.82295 48.2596 9.98822 48.7132C10.1866 49.2554 10.129 49.7868 10.1974 50.3219C10.2769 50.9432 10.3784 51.5844 11.0072 51.9539C11.1538 51.6797 11.4056 51.7219 11.6135 51.7559C12.5832 51.9129 13.506 51.5583 14.4537 51.4829C14.858 51.4506 15.2941 51.2328 15.7154 51.3123C16.224 51.408 16.6092 51.0505 17.093 51.058C17.7702 51.0691 18.4218 50.8633 19.0704 50.6682C19.5828 50.5141 20.1635 50.7481 20.6576 50.4027C20.7496 50.3385 20.7997 50.65 20.9795 50.5642C21.0279 50.4238 21.0731 50.2925 21.1199 50.1562C21.2201 50.2424 21.3539 50.3857 21.3742 50.3712C21.8596 50.022 22.4374 50.0142 22.9846 49.8796C23.1843 49.8303 23.3081 49.631 23.5417 49.841C23.7409 50.0212 23.9232 49.7466 24.0694 49.6878C25.0863 49.2802 26.123 48.9493 27.2086 48.8296C27.5744 48.7894 27.6937 48.5264 27.9235 48.3615C27.9496 48.3872 27.9724 48.4195 28.0031 48.4394C28.0751 48.4866 28.105 48.6336 28.2462 48.4965C28.503 48.2468 28.9421 48.3843 29.1864 48.0223C29.4002 47.705 29.9378 48.1134 30.1698 47.6938C31.4298 47.478 32.5303 46.8447 33.6627 46.3149C34.994 45.6916 36.3579 45.1121 37.2758 44.398C37.823 43.7345 37.0575 43.3306 37.468 42.856ZM40.2216 40.2415C40.485 40.8086 40.9932 41.2455 40.5173 41.8714C40.4254 41.9932 40.6105 42.0242 40.6478 42.1083C40.985 42.8717 40.8856 43.6827 40.9224 44.4817C40.9406 44.8839 40.6805 45.1394 40.5339 45.4538C40.425 45.6891 40.268 45.6199 40.1412 45.4422C40.005 45.6584 39.6595 45.5516 39.5643 45.7955C39.5224 45.9985 39.6562 46.0847 39.7589 46.1886C39.7121 46.4284 39.4508 46.2661 39.3369 46.4235C39.1484 46.6836 38.839 46.474 38.6066 46.5585C38.0731 46.7528 37.3682 46.677 37.178 47.4486C37.1515 47.5547 37.0177 47.7067 36.8144 47.6839C36.5112 47.7096 36.6996 47.389 36.5617 47.2842C36.5116 47.2262 36.4308 47.2349 36.4097 47.3335C36.2469 48.0923 36.2506 48.0931 35.329 48.1834C35.2822 48.3139 35.235 48.4448 35.1969 48.552C34.8912 48.736 34.8183 48.3371 34.5926 48.3603C33.3442 49.1816 33.029 49.576 31.2011 49.5801C31.2765 49.6675 31.3436 49.7454 31.4111 49.8232C31.2479 49.9189 31.1701 50.3671 30.8739 49.9566C30.6378 50.1024 30.4125 50.2735 30.1619 50.3886C29.5919 50.65 29.0096 50.8227 28.4678 50.3542C28.1841 50.5779 28.2396 51.0315 27.8291 51.0708C27.639 51.1089 27.593 50.9163 27.3988 50.8285C27.1606 50.9561 26.8081 50.9863 26.6739 51.3794C26.5927 51.6176 26.3599 51.5119 26.1901 51.519C26.0037 51.5264 25.9449 51.2303 25.7063 51.3057C25.1877 51.7033 24.6857 52.2144 23.9808 51.8876C23.7745 52.0943 23.5545 52.3138 23.335 52.5338C22.8318 52.5292 22.43 52.3093 22.0411 52.6162C21.7615 52.837 21.228 52.4642 20.9169 52.8788C20.2803 52.7272 19.7219 53.1704 19.0907 53.1103C18.2507 53.03 17.4389 53.1716 16.6643 53.515C16.6009 53.5432 16.5235 53.5618 16.456 53.5539C15.3807 53.426 14.3556 53.8778 13.2737 53.802C12.5194 53.749 11.7457 53.6782 10.9885 53.9864C10.6659 54.1177 10.0972 54.1624 9.90123 53.9744C9.55372 53.6409 9.11218 54.3505 8.90757 53.7826C8.53437 53.7739 8.12017 53.8605 7.80413 53.7225C7.60366 53.6351 7.25076 53.638 7.17165 53.356C7.05277 52.9297 6.61372 52.8622 6.3768 52.5694C6.46378 52.3904 6.59632 52.2451 6.58307 52.0028C6.54952 51.4026 6.75952 50.7063 6.52052 50.2225C6.2662 49.7073 6.59715 49.1034 6.13076 48.6792C6.05538 48.6109 6.10011 48.3864 6.12331 48.2397C6.27035 47.3099 5.76958 46.4363 5.89384 45.5102C5.44526 44.0849 5.5223 42.5507 4.99047 41.1424C5.08946 40.0042 4.56094 38.9583 4.49508 37.8321C4.46899 37.3943 4.45739 36.8629 4.27804 36.4715C4.06473 36.0059 4.27763 35.4562 4.01419 35.122C3.67745 34.6941 4.14839 34.1175 3.6439 33.797C3.72757 33.1686 3.56479 32.5631 3.39538 31.979C3.1191 31.0243 3.32372 29.9784 2.78567 29.0689C2.6523 28.8444 2.69828 28.4803 2.74301 28.1932C2.79354 27.866 2.4949 27.7032 2.48455 27.3826C2.44893 26.3053 2.0252 25.2735 2.05336 24.1821C1.5936 23.6499 2.01733 22.9573 1.7307 22.3961C1.43993 21.8282 1.62549 21.2247 1.62177 20.6432C1.61928 20.2592 1.31443 19.9933 1.3662 19.6064C1.41094 19.2738 1.4068 18.9267 1.36579 18.5929C1.33265 18.3265 1.61348 18.0673 1.52112 17.9355C1.37076 17.7202 1.3894 17.5255 1.3749 17.3113C0.463661 16.8947 0.0834239 16.152 0.0130097 15.1828C-0.0499489 14.3146 0.104548 13.4572 0.720051 12.8906C1.57952 12.0994 2.37147 11.1977 3.46579 10.6816C4.97887 9.96879 6.5197 9.34045 8.10567 8.79495C9.38597 8.35465 10.653 7.85844 11.9354 7.41566C14.3067 6.59761 16.6838 5.79613 19.0563 4.98098C20.7028 4.41477 22.3438 3.83199 23.9915 3.26868C24.5205 3.08808 25.068 2.96175 25.5978 2.78323C26.5219 2.473 27.4319 2.11803 28.3609 1.82477C29.6276 1.42507 30.9025 1.04856 32.1844 0.700629C32.5406 0.60412 32.8405 0.473233 33.1276 0.24128C33.5579 -0.105821 33.5745 -0.0851107 34.1312 0.346901C34.0595 0.426014 33.9883 0.504712 33.9058 0.595008C34.243 0.798795 34.3826 0.684889 34.3652 0.34483C34.5363 0.14767 34.7392 0.280215 34.9057 0.236724C35.0772 0.315422 35.0163 0.491043 35.066 0.607434C35.3141 0.781398 35.5863 0.620688 35.8385 0.719682C35.8886 1.00217 36.0672 1.1869 36.3869 1.23992V3.96039C36.2494 4.10578 36.099 4.26483 35.9487 4.42388C36.5004 4.94536 36.8421 5.51862 36.4586 6.28903C36.7398 6.44933 36.3264 6.73388 36.5977 6.96459C36.7278 7.07519 36.6719 7.47862 36.6077 7.72548C36.5228 8.05063 36.966 8.20554 36.8202 8.52158C36.6234 8.66613 36.6222 8.36791 36.483 8.39732C36.1314 8.88317 36.746 8.74069 36.8438 8.93205C36.7713 9.01199 36.6996 9.09069 36.6321 9.16442C36.7029 9.24767 36.7684 9.32513 36.8326 9.40092C36.6868 9.54714 36.5538 9.6801 36.4201 9.8143C36.6437 10.3279 36.9448 10.8399 36.8347 11.4193C36.7315 11.9607 37.1143 12.3807 37.094 12.9092C37.0745 13.4 36.8823 13.9431 37.2874 14.4049C37.3619 14.4898 37.289 14.6973 37.2998 14.8468C37.3251 15.1993 37.1246 15.5191 37.2725 15.9118C37.3967 16.241 37.347 16.6627 37.2857 17.0289C37.2074 17.4944 37.5777 17.8291 37.5483 18.2938C37.5222 18.7043 37.3147 19.1968 37.7472 19.5567C37.7658 19.5721 37.7546 19.6296 37.7492 19.6661C37.5885 20.7434 38.0371 21.7744 37.9886 22.8476C37.9696 23.2676 37.9021 23.6909 38.1725 24.1262C38.3548 24.4199 38.0164 24.8602 38.1721 25.2868C38.2533 25.51 38.3842 25.7383 38.4148 25.9744C38.4422 26.1819 38.5358 26.4581 38.3552 26.6143C38.0309 26.8939 38.648 27.0181 38.4277 27.253C38.7433 27.6444 38.4227 28.1328 38.6418 28.559C38.8564 28.9752 38.8017 29.4826 38.9098 29.9196C39.1857 31.0309 39.1032 32.1998 39.5038 33.2825C39.2201 33.8247 39.6351 34.3305 39.5887 34.8822C39.5427 35.4318 39.6272 36.0734 39.8911 36.5415C40.0824 36.8815 39.7287 37.0998 39.8906 37.2551C40.1176 37.4734 39.8865 37.7667 40.1102 37.9667C40.3695 38.1983 40.186 38.5313 40.2336 38.815C40.2626 38.9898 40.1914 39.1696 40.3496 39.3344C40.6582 39.6558 40.3442 39.9247 40.2216 40.2415Z" fill="black"/>
</svg>
