<svg width="101" height="50" viewBox="0 0 101 50" fill="none" xmlns="http://www.w3.org/2000/svg">
<path fill-rule="evenodd" clip-rule="evenodd" d="M24.2089 25.008C23.832 24.7707 23.7413 25.1157 23.5334 25.1401C23.2877 25.1696 23.0202 25.03 22.8002 25.2756C22.2895 25.8443 21.5034 25.9632 20.9065 26.4399C20.3208 26.9075 19.5471 27.1565 18.9361 27.6291C18.6205 27.873 18.3268 28.1232 17.9068 28.141C17.7055 28.6741 17.1224 28.8153 16.7939 29.2329C16.4484 29.6723 16.0061 30.0356 15.6159 30.4415C15.577 30.4813 15.6043 30.5844 15.5993 30.7008C15.7497 30.7956 15.9013 30.8528 16.0558 30.6689C16.3639 30.3023 16.856 30.1835 17.1671 29.8016C17.4868 29.4089 17.9184 29.1301 18.3248 28.8199C19.6792 27.7865 21.0858 26.8508 22.5749 26.0195C23.1192 25.7155 23.733 25.4889 24.2089 25.008ZM31.189 37.8938C31.73 37.4796 31.7258 36.79 32.0572 36.2556C31.79 36.3985 31.539 36.5642 31.4069 36.797C30.9401 37.6196 30.1916 38.1792 29.5604 38.8473C29.3405 39.0801 29.0141 39.2441 28.8177 39.4446C28.5862 39.6803 28.4354 40.1421 28.1335 40.2427C27.5963 40.4213 27.4016 40.9498 26.9431 41.183C26.499 41.4087 26.1142 41.7343 25.7017 42.0077C24.9151 42.5279 24.2487 43.2581 23.2567 43.4528C23.0351 43.4963 22.8715 43.8107 22.647 43.8707C22.3666 43.9457 22.2982 44.1043 22.0505 44.4171C22.8756 44.1014 23.5334 43.9403 24.0958 43.6143C24.9793 43.1024 25.8475 42.5552 26.7049 41.9936C28.1886 41.0219 29.4892 39.8758 30.7048 38.6091C30.9086 38.3967 31.1207 38.2111 31.4152 38.1378C31.3622 38.0802 31.3125 38.0268 31.189 37.8938ZM51.1564 2.84659C50.256 2.62002 49.5903 3.07647 48.8696 3.05204C48.6083 3.45008 48.1212 3.08393 47.7583 3.41032C47.528 3.61825 46.9664 3.535 46.5704 3.54162C46.1554 3.54908 45.9483 3.91275 45.5709 3.90281C44.8465 3.88375 44.1879 4.2147 43.5124 4.39322C42.8505 4.56884 42.165 4.71713 41.513 5.00251C40.5587 5.42085 39.4789 5.49458 38.51 5.92535C37.9074 6.19292 37.2708 6.38428 36.6499 6.61085C36.0944 6.81381 35.5526 7.07352 34.981 7.20689C34.3825 7.34689 33.7803 7.41316 33.3553 7.93298C33.3073 7.9918 33.1445 7.96778 33.036 7.96405C32.8086 7.95618 32.5895 7.95038 32.4453 8.17819C32.3115 8.38902 32.1164 8.46606 31.8679 8.41926C31.6264 8.37411 31.4719 8.50375 31.2802 8.64458C30.9165 8.91133 30.5168 9.22363 30.0939 9.29612C29.2046 9.44979 28.5779 10.214 27.6621 10.2521C27.4268 10.8013 26.7757 10.6526 26.3843 11.0196C26.0318 11.3493 25.3732 11.3315 24.9644 11.6268C24.1298 12.2299 22.9887 12.2693 22.3015 13.1196C22.2676 13.1614 22.1665 13.1515 22.0961 13.1623C21.2751 13.2894 20.7673 14.1038 19.9137 14.1597C18.9129 14.95 17.6724 15.3306 16.6439 16.0741C16.2177 16.007 16.1469 16.591 15.7124 16.5612C15.2253 16.5277 15.1023 17.0541 14.7709 17.2724C14.7092 17.313 14.6719 17.3913 14.6086 17.4281C13.4973 18.0805 12.4597 18.8227 11.4503 19.6367C10.247 20.6071 9.0678 21.5913 7.98963 22.6972C7.86578 22.8248 7.89022 22.9598 7.99957 23.0745C8.16856 23.1408 8.28993 23.0927 8.39762 22.9672C8.66271 22.657 9.01312 22.4375 9.29851 22.1384C9.60336 21.8182 10.0047 21.5287 10.3676 21.2288C11.1761 20.5607 11.949 19.8251 12.8412 19.2908C13.5979 18.8372 14.2896 18.2888 15.065 17.8643C15.7455 17.4911 16.4683 17.1688 17.0242 16.5972C17.9495 16.6764 18.3297 15.6156 19.1905 15.5609C19.5318 15.0225 20.1444 14.9781 20.6522 14.7321C21.1256 14.5026 21.5195 14.0992 22.0008 13.8996C23.3842 13.3259 24.6008 12.3902 26.0807 12.0332C26.6622 11.2922 27.6576 11.281 28.3692 10.7226C28.9565 10.2616 29.7683 10.1336 30.4547 9.78571C31.5084 9.25097 32.5803 8.73778 33.6858 8.32772C34.2371 8.1231 34.764 7.85387 35.3526 7.70352C36.082 7.5163 36.8089 7.21807 37.5048 6.91943C38.6318 6.43565 39.7812 6.05292 40.9501 5.69878C42.1865 5.32434 43.4237 4.95073 44.6572 4.56718C45.8 4.21221 46.9738 3.9786 48.1133 3.6402C49.0925 3.34943 50.1296 3.30636 51.1564 2.84659ZM46.5501 7.39825L46.7729 7.62068C46.6802 7.78263 46.4925 7.78884 46.3881 7.73127C45.8315 7.4231 45.3071 7.44215 44.786 7.81204C44.8357 7.91476 44.8854 8.01872 44.936 8.1231C44.786 8.23038 44.6543 8.22872 44.5383 8.09618C44.431 7.97358 44.3101 7.91724 44.1366 8.01334C44.0939 8.12227 44.0434 8.2515 43.9916 8.38281C43.8073 8.3505 43.6896 8.04233 43.4436 8.25192C43.3504 8.41387 43.6333 8.42133 43.5757 8.57002C43.5148 8.59405 43.4158 8.65991 43.3902 8.63837C42.7481 8.10446 42.1708 8.6773 41.59 8.78251C40.9973 8.8902 40.4208 9.22115 39.8119 9.07245C39.5029 8.99748 39.3061 9.49618 38.9508 9.1205C38.8091 8.97056 38.3758 9.09606 38.0813 9.09606L37.6767 9.50115C37.47 9.50032 37.1937 9.01156 37.0707 9.56825C36.9775 9.98908 36.6395 9.69665 36.4316 9.8205C35.8335 10.1759 35.0854 10.2123 34.5296 10.6767C34.4471 10.7458 34.3465 10.8738 34.2736 10.8618C33.6651 10.7583 33.282 11.206 32.7941 11.486C32.7804 11.6082 32.7605 11.7863 32.7319 12.0485C32.2117 11.9598 31.7892 12.1922 31.3365 12.4221C30.7446 12.7224 30.11 13.0608 29.4088 12.92C29.1122 12.8603 28.8857 13.3358 28.5589 12.9514C28.4375 12.8085 28.1703 13.0422 28.1302 13.1917C28.0254 13.5806 27.7106 13.7803 27.477 14.064C27.3925 13.9869 27.3134 13.9149 27.2338 13.8424C26.8958 14.3378 26.2393 14.3113 25.8235 14.6861C25.8222 14.6874 25.7734 14.6364 25.7468 14.6099C25.7199 14.583 25.6934 14.5565 25.6632 14.5258C25.5074 14.6712 25.3517 14.817 25.1922 14.9661C25.0112 14.6078 24.824 15.0009 24.6964 14.9549C24.1712 14.7673 24.0797 15.4847 23.6344 15.4288C23.6116 15.4259 23.5474 15.5642 23.5503 15.5663C23.7765 15.7187 23.6597 15.821 23.5317 15.9776C23.3337 16.2195 23.2753 15.8587 23.1241 15.9159C22.8644 16.014 21.6388 16.7401 21.4934 16.9949C21.411 17.1398 21.3716 17.2467 21.2026 17.2272C20.6998 17.1705 20.5026 17.9272 19.9161 17.6949C19.767 17.6361 19.6726 17.5478 19.5587 17.4609C19.2924 17.6211 19.5637 17.9488 19.3288 18.1501C19.0753 18.3671 18.7792 18.4856 18.4838 18.5684C18.2589 18.631 18.1135 18.5995 18.0609 18.9222C18.0046 19.2684 17.5552 19.3103 17.2847 19.4577C17.0697 19.5749 16.8825 19.6536 16.6108 20.0384C18.3061 19.4192 19.4651 18.2814 20.9823 17.7467C21.1571 17.9119 20.9732 18.0569 20.8208 18.2309C20.6692 18.4048 20.4413 18.4305 20.2608 18.5262C19.666 18.8418 19.0024 19.0319 18.5555 19.5849C17.4835 19.9245 16.7139 20.7571 15.7783 21.3212C14.7892 21.9172 13.8067 22.6056 13.0868 23.5185C12.6279 24.1009 12.1366 24.639 11.6176 25.1555C11.2585 25.5129 10.9081 25.8683 10.4608 26.1541C10.0639 26.4076 9.57561 26.7278 9.48034 27.3039C8.32803 28.5391 7.68561 30.1159 6.70354 31.4683C6.32413 31.991 6.05075 32.6442 5.92028 33.2767C5.82294 33.7481 5.52223 34.0902 5.40294 34.5429C5.23975 35.1576 4.98543 35.7213 4.94567 36.3948C4.90797 37.036 4.70833 37.6764 4.75927 38.3362C4.7862 38.6841 4.57413 39.0598 4.6433 39.3311C4.88312 40.273 5.22111 41.1942 5.57856 42.1013C5.96501 43.0813 6.83732 43.5211 7.75022 43.8856C7.81525 43.9113 7.91383 43.8616 7.97223 43.8931C8.37277 44.1106 8.76667 44.3404 9.16223 44.5662C9.55158 44.1656 9.94093 44.8197 10.3303 44.5666C10.7528 44.8598 11.2751 44.6689 11.6976 44.8143C12.905 45.2293 14.1293 44.9845 15.3388 44.9903C16.0661 44.9936 16.8403 44.8222 17.5096 44.5347C18.1268 44.2692 18.7916 44.2199 19.4034 43.9192C19.9857 43.633 20.6791 43.4864 21.235 43.1774C22.1532 42.6666 23.11 42.2276 24.0113 41.6887C24.6165 41.3271 25.2527 40.9978 25.7966 40.558C26.3288 40.1264 26.8644 39.7146 27.4529 39.3646C27.6095 39.2714 27.7342 39.1161 27.856 38.974C28.5406 38.1767 29.42 37.5885 30.0993 36.7688C31.1236 35.5308 32.3832 33.7924 32.7961 31.6609C32.9303 30.9704 33.1519 30.287 33.2145 29.5833C33.2981 28.6464 32.8421 28.0217 32.0038 27.6001C31.7954 27.4957 31.5585 27.3847 31.3489 27.2555C31.2317 27.183 30.9844 27.3333 30.7769 27.1822C30.6448 27.0856 30.5247 27.2778 30.4095 27.3864C30.2538 27.2418 30.0972 27.0964 29.9216 26.9336C29.8723 27.0753 29.8267 27.2066 29.7704 27.3669H28.3236C28.2805 27.2505 28.2329 27.12 28.1712 26.9514C27.6799 27.2306 27.7147 28.0433 26.9977 28.081C26.4315 28.1112 26.048 28.7955 25.4283 28.4827C25.1823 29.0324 25.1823 29.0324 24.6177 28.7284C24.1924 28.8717 24.16 29.5029 23.6763 29.5986C23.2351 29.6856 22.987 30.0774 22.5931 30.2551C22.1785 30.4423 21.8061 30.7356 21.4404 31.0152C20.8928 31.4339 20.3672 31.8809 19.8321 32.3162C19.6941 32.4284 19.5947 32.5593 19.3851 32.6078C19.0045 32.6952 18.5903 33.3475 18.5352 33.7742C18.4586 34.3694 18.3505 34.9592 18.0825 35.5569C18.1417 35.8348 18.4652 35.9471 18.6209 36.179C19.9522 36.3128 21.2188 36.1674 22.3831 35.4596C22.1996 35.1555 22.0422 35.0992 21.7158 35.2794C21.4955 35.4011 21.2702 34.8619 20.9061 35.1514C20.6199 34.3971 20.2367 33.739 20.3631 32.9292C21.1161 32.1248 21.8799 31.3142 23.004 30.9323C23.7053 30.6946 24.7594 30.4668 25.3343 30.5513C25.5294 30.5803 25.6048 30.7555 25.799 30.8052C26.1225 30.8876 26.0376 31.5681 26.516 31.4464C26.9924 31.3254 26.7894 32.0656 27.2177 31.9148C27.4364 32.2222 27.8402 32.2888 28.0796 32.5477C28.3948 32.8886 28.6504 33.2858 28.9312 33.659C28.6483 34.0923 29.4631 34.5106 28.9486 34.9472C29.5057 35.3059 28.737 35.6658 28.9408 35.9893C29.188 36.382 28.1554 35.9632 28.633 36.5286C28.7444 36.6612 28.2515 36.9403 28.1554 37.2787C28.097 37.4862 27.7831 37.6693 27.5089 37.818C26.9745 38.1075 26.615 38.653 26.0778 38.9935C25.8276 39.1513 25.4929 39.0064 25.3898 39.2155C25.2747 39.4487 25.1541 39.6517 24.9723 39.8331C24.8356 39.9694 24.6803 40.0067 24.4993 40.063C23.6361 40.3314 22.7787 40.5795 21.8583 40.5024C21.0974 40.4382 20.3266 40.618 19.5719 40.2933C19.2468 40.1537 18.9419 40.0004 18.6321 39.8331C17.713 39.3361 16.709 39.0304 15.7932 38.4977C15.164 38.1324 14.7887 37.6498 14.476 37.0621C14.2308 36.6011 13.9831 36.1413 13.7669 35.6629C13.6576 35.4214 13.5627 35.2152 13.5664 34.9534C13.5731 34.4642 13.6199 33.968 13.5573 33.4867C13.4355 32.5481 13.7735 31.6924 14.09 30.8768C14.341 30.2319 14.8807 29.6881 15.3384 29.138C16.2571 28.0338 17.4989 27.3085 18.6624 26.5219C20.1398 25.5237 21.6993 24.6332 23.3192 23.8719C23.9782 23.562 24.684 23.3504 25.3757 23.1147C25.4358 23.094 25.548 23.229 25.6876 23.328C25.7647 23.1909 25.8537 23.0323 25.9407 22.8774C27.1075 22.8774 28.1927 22.8231 29.2692 22.8985C29.8889 22.9424 30.5611 23.084 31.0818 23.3959C31.4367 23.6084 31.7934 23.4179 32.111 23.6648C32.8417 24.2326 33.6237 24.7338 34.3751 25.276C34.817 25.5954 35.2532 25.9176 35.65 26.3024C36.3616 26.9929 36.8474 27.8523 37.4617 28.6136C37.6663 28.8667 37.8813 29.2536 37.7297 29.6152C37.5719 29.9913 38.1414 30.3222 37.745 30.6747C38.1253 30.8764 37.8192 31.388 38.1745 31.6009C37.7065 31.8158 37.7065 31.8158 37.9339 32.2101C37.7761 32.5283 37.6241 32.8343 37.4924 33.099C37.6087 33.3554 37.9032 33.1748 37.9803 33.4556C37.5276 34.2016 37.5785 35.1419 37.2045 35.9553C37.0264 35.9765 36.8487 35.9976 36.688 36.0167C36.4411 36.3062 36.7816 36.4077 36.8611 36.6657C36.2725 37.5707 35.7788 38.5772 35.0738 39.4868C34.2699 40.5248 33.2899 41.3727 32.4118 42.327C31.9889 42.7868 31.4065 43.0452 30.9724 43.5104C30.5955 43.9146 30.4513 44.5471 29.835 44.7227C29.9208 45.1485 29.485 45.0048 29.3197 45.1543C29.0965 45.3561 28.7548 45.3718 28.6864 45.7943C28.6293 46.1468 28.1351 46.0996 27.9289 46.3597C27.7044 46.2934 27.8879 46.0035 27.6886 45.9227C27.2661 45.8813 27.2003 46.3431 26.8784 46.4516C26.9754 46.5606 27.0462 46.6405 27.1382 46.7445C26.5798 47.0522 26.1097 47.5298 25.408 47.5045C25.3351 47.502 25.225 47.4842 25.1939 47.5232C24.6343 48.2194 23.7612 48.2696 23.0119 48.5322C22.3897 48.75 21.8181 49.182 21.1061 49.1158C20.6733 49.5221 20.0147 49.1141 19.5864 49.537C19.0554 49.3796 18.6284 49.8348 18.0974 49.7756C17.5767 49.7176 17.0445 49.7632 16.5176 49.7632C16.1784 49.7632 15.84 49.7619 15.5012 49.7632C14.6964 49.7656 13.9347 49.4289 13.1067 49.5076C12.8035 49.5366 12.41 49.3034 12.3483 48.8614C12.1648 48.9662 12.2273 49.0917 12.2091 49.2123C10.6409 49.0412 9.26123 48.3106 7.83596 47.724C6.93052 47.3517 6.06732 46.8716 5.24389 46.3559C3.9172 45.5251 2.73383 44.5185 2.00194 43.0688C1.68673 42.4446 1.38064 41.8217 1.09111 41.188C0.794541 40.5368 0.720813 39.819 0.384068 39.2246C0.153772 38.8183 0.407677 38.4029 0.169512 38.0682C-0.0798376 37.719 -0.0222636 37.4303 0.138032 37.0538C0.210517 36.8844 -0.0421453 36.5688 0.0121151 36.2855C0.218801 35.2011 0.234541 34.0836 0.593239 33.0249C0.760991 32.5299 0.913003 32.0262 1.08655 31.5383C1.26383 31.038 1.51939 30.5562 1.75466 30.1226C2.20531 29.2929 2.50933 28.3477 3.23584 27.6846C3.43466 27.5032 3.50714 27.2464 3.60365 27.0417C4.08993 26.0116 4.79448 25.1232 5.40501 24.1792C6.15265 23.0227 7.21052 22.1161 8.18348 21.1477C10.0379 19.3016 12.2195 17.8709 14.3402 16.3694C15.0178 15.8898 15.8218 15.5907 16.5574 15.1902C16.7475 15.0867 16.8987 14.9119 17.09 14.7507H18.2324C18.7029 13.9567 19.4754 13.4758 20.3063 13.1055C20.9827 12.8044 21.5949 12.4006 22.2452 12.0593C22.8624 11.7354 23.4874 11.4251 24.1203 11.1331C24.6579 10.8854 25.0779 10.3851 25.7278 10.3793C25.8682 10.033 26.1478 10.5942 26.1847 10.3482C26.2282 10.0533 26.4237 10.0694 26.5769 9.94641C26.755 9.80352 26.9625 9.73973 27.1448 9.66227C27.9525 9.3189 28.6699 8.76387 29.4784 8.48636C30.3171 8.1989 31.0304 7.65837 31.8646 7.43097C32.6785 7.20896 33.3205 6.5073 34.2388 6.60713C34.2624 6.60961 34.2902 6.55576 34.3192 6.53298C35.1389 5.886 36.2249 5.88849 37.1187 5.37032C37.6315 5.07292 38.3162 5.01908 38.9139 4.81115C40.166 4.37624 41.4244 3.95127 42.6989 3.58926C43.7108 3.3018 44.7148 2.98535 45.7453 2.75215C46.874 2.49618 48.0267 2.3247 49.1215 1.91423C49.3853 1.81523 49.715 1.83801 50.0041 1.87695C50.3272 1.92044 50.5053 1.64624 50.8126 1.61269C51.3457 1.55429 51.8664 1.41801 52.416 1.39565C52.9102 1.37576 53.4217 1.2602 53.8947 1.14837C54.5512 0.992628 55.1899 0.982687 55.8435 0.959078C56.2722 0.943753 56.6429 0.660439 57.1077 0.721741C57.4916 0.772687 57.9191 0.841859 58.2592 0.515883C58.2985 0.47819 58.4054 0.51464 58.4799 0.510084C59.9168 0.423102 61.3441 0.18038 62.7918 0.278131C63.0726 0.297184 63.3687 0.360971 63.6156 0.0751726C63.7875 -0.124058 63.9147 0.245824 64.152 0.21393C64.7907 0.127362 65.4501 -0.182875 66.078 0.266119C66.3721 -0.0441173 66.7544 0.0689596 67.1061 0.0623324C67.7837 0.0503206 68.5094 -0.0934072 69.1257 0.101267C69.7561 0.300084 70.3534 0.252037 70.966 0.278131C71.6424 0.307125 72.3242 0.244167 72.9977 0.298013C73.4939 0.337776 73.9644 0.532865 74.4863 0.532037C74.9838 0.531208 75.5297 0.306297 75.9928 0.691918C76.3933 0.254522 76.7524 0.881622 77.1422 0.736652C77.5709 0.577599 77.8542 1.05352 78.2937 0.97896C78.7331 0.904403 79.207 0.895705 79.644 0.975646C80.7437 1.17778 81.874 1.18647 82.9534 1.44452C83.508 1.57707 84.0581 1.90221 84.4305 2.3102C84.8289 2.35576 84.6719 2.05008 84.8235 1.88689C85.0919 1.91423 85.3649 1.85872 85.712 2.00162C86.1511 2.18221 86.6452 2.30523 87.1588 2.35328C87.7648 2.4092 88.4722 2.40298 88.9167 2.99778C90.1647 2.90872 91.3008 3.36103 92.4187 3.80754C93.6779 4.31038 94.9089 4.89026 96.1267 5.48878C97.5553 6.19044 98.715 7.25121 99.7609 8.43127C100.215 8.94322 100.188 9.19795 99.7919 9.74097C99.1868 9.44357 98.6003 9.13872 98.1256 8.6218C97.8783 8.35298 97.4861 8.18026 97.1274 8.05766C95.5733 7.52541 94.0598 6.88754 92.425 6.57068C91.7254 6.43523 90.9802 6.3089 90.3022 5.98831C90.0541 5.87068 89.719 5.93653 89.3495 5.91417C89.1395 5.70541 88.8839 5.45026 88.7009 5.26843C88.2117 5.21334 88.4685 5.66192 88.2125 5.70582C87.1219 5.22618 87.1219 5.22618 86.5996 5.42499C86.5541 5.29369 86.5077 5.16281 86.46 5.02778C86.2915 5.12429 86.2148 5.36742 85.9299 5.19801C85.9054 5.12843 85.8603 4.99713 85.8102 4.85257C85.456 5.10316 85.1512 4.95115 84.773 4.84967C84.4735 4.7689 84.073 5.16612 83.6563 4.97476C83.6311 4.86997 83.6058 4.76766 83.5685 4.61399C83.2251 4.80701 82.8934 4.94162 82.5624 4.56511C82.2708 4.23251 81.7932 4.31618 81.4855 4.11529C81.307 4.2586 81.3529 4.37168 81.36 4.47772C81.5062 4.73452 81.874 4.40068 82.0542 4.83724C81.1732 4.69144 80.3497 4.9876 79.5155 4.60653C79.2716 4.49511 79.1245 4.44914 79.016 4.19192C78.946 4.02541 78.7737 3.79056 78.4722 3.94257C78.4225 4.23168 78.8114 4.24908 78.8416 4.59949C77.9992 4.47979 77.1679 4.73494 76.3266 4.44417C76.1257 4.37458 75.7852 4.73287 75.5781 4.5386C75.3056 4.28263 75.026 4.36795 74.7431 4.35553C74.3674 4.33896 73.8874 4.49553 73.638 4.31742C73.2682 4.05399 73.0615 4.48476 72.7835 4.35346C72.7529 4.33896 72.7036 4.33937 72.6725 4.35346C72.3685 4.49097 72.2732 4.09251 71.9738 4.09955C71.6917 4.10618 71.3736 4.3634 71.2216 4.23748C70.9184 3.98523 70.6425 4.35801 70.5994 4.29713C70.3219 3.90571 70.1766 4.38245 69.9574 4.38328C69.4111 4.38411 69.1767 4.11156 69.0342 3.67831C68.4415 3.53789 68.2692 4.07097 67.9121 4.33316C67.8421 4.27186 67.7771 4.17411 67.6884 4.14346C67.3819 4.03784 67.2063 4.45991 66.8845 4.35429C66.6886 4.2905 66.5457 4.20145 66.2669 4.31369C65.8871 4.46695 65.3664 4.44127 65.2828 3.77937C65.2645 3.6373 65.0533 3.63523 64.91 3.72801C64.8122 3.89535 65.096 3.90239 65.079 3.94713C64.9257 4.14097 64.8334 4.25819 64.6929 4.43588C64.3765 4.09789 63.9776 4.10038 63.5937 4.13186C63.4723 3.87091 63.4317 3.60334 63.1811 3.47079C62.9885 3.51843 63.0747 3.69736 63.0179 3.81789C62.7706 4.01133 62.4459 3.82742 62.1435 3.93346C62.284 4.31245 62.6584 3.95665 62.7926 4.21097C62.6903 4.58085 62.2537 4.51375 62.0636 4.76973C61.6916 4.59452 61.3644 4.29133 60.9092 4.35263C60.524 4.4044 60.085 4.18156 59.7437 4.58582C59.6952 4.44665 59.6492 4.31576 59.6037 4.18488C59.5771 4.17204 59.5502 4.1592 59.5237 4.14636C59.4293 4.51375 58.9732 4.61565 58.8979 5.0021C58.6676 4.83683 58.7492 4.44292 58.3934 4.40192C58.3031 4.57505 58.0301 4.52535 57.8764 4.66908C57.6014 4.92588 57.3417 5.19884 57.0617 5.47884C56.6877 5.43369 56.259 5.62671 55.9044 5.27423C55.7702 5.33884 55.8547 5.52357 55.7727 5.63831C55.7193 5.72239 55.66 5.71784 55.6141 5.61553C55.4898 5.3376 55.3722 5.05718 55.2645 4.80742C55.0831 4.79748 54.9754 4.80701 54.9547 4.85381C54.731 5.22908 55.3697 5.28748 55.0901 5.62257C54.8656 5.87192 54.7322 5.62505 54.5769 5.48381C54.415 5.56541 54.5011 5.7518 54.4063 5.87896C54.0989 6.03263 53.7386 5.93529 53.3832 6.11133C53.0717 6.26582 52.5233 6.31594 52.1219 5.98044C51.9865 5.86778 51.7156 5.85825 51.6071 5.9821C51.2053 6.44393 50.8818 5.95103 50.514 5.91251C50.4353 6.07985 50.3624 6.23393 50.2912 6.38553H49.797C49.6819 7.02837 49.2544 7.17002 48.6716 7.03417L48.2686 6.63115C47.9576 6.76162 48.2939 7.13109 47.9646 7.315C47.5181 6.91778 47.0397 7.06979 46.5501 7.39825Z" fill="black"/>
</svg>
