<svg width="29" height="32" viewBox="0 0 29 32" fill="none" xmlns="http://www.w3.org/2000/svg">
<path fill-rule="evenodd" clip-rule="evenodd" d="M1.15568 21.0505C0.794908 20.6023 -0.124619 20.8803 0.0141387 20.0485C0.183133 19.0321 1.05006 18.8026 1.86727 18.719C3.24781 18.5773 4.64035 18.5417 6.02958 18.5007C7.79574 18.4485 9.56396 18.446 11.3309 18.4013C12.7235 18.3656 12.7123 18.3536 12.4414 16.9296C11.8636 13.889 11.5356 10.8251 11.6544 7.72481C11.7062 6.36872 11.8578 5.02339 12.2157 3.70913C12.4244 2.94286 12.7231 2.21262 13.1605 1.54534C14.3699 -0.298265 15.9977 -0.459804 17.739 0.887178C18.5935 1.54824 19.2737 2.21759 19.6547 3.23777C19.9273 3.96842 19.6821 4.44889 19.0744 4.7144C18.2539 5.07351 18.0522 5.72795 17.9383 6.50789C17.5212 9.36712 17.826 12.2139 18.0592 15.062C18.111 15.6961 18.2481 16.3274 18.2518 16.9607C18.2585 17.8918 18.7505 18.0707 19.5541 18.0078C21.5377 17.8529 23.5346 17.8247 25.4718 17.2871C25.6764 17.2299 25.9079 17.1218 26.0823 17.367C26.161 17.7849 25.6267 17.8077 25.5339 18.1117C25.8284 18.364 26.0715 18.1445 26.3163 18.142C26.6933 18.1382 27.4914 17.4175 27.187 18.6316C27.8335 18.7301 28.1119 19.1257 28.2142 19.7574C28.3095 20.343 28.2933 20.8181 27.6463 21.0385C25.1756 21.8797 22.5968 22.2115 20.0329 22.5785C19.2658 22.6882 19.168 22.9479 19.3296 23.5775C19.8726 25.6937 20.3299 27.8479 22.2555 29.2562C22.6113 29.5159 22.613 29.9885 22.7911 30.3563C23.0624 30.9151 22.5943 31.1827 22.3276 31.5136C22.0534 31.8545 21.7328 31.6441 21.4047 31.5492C17.9515 30.5548 15.9986 28.0811 14.7137 24.893C14.0477 23.2408 14.0025 23.3327 12.1527 23.5498C10.3294 23.7635 8.48704 23.8024 6.6542 23.94C5.09017 24.0568 3.69887 23.5953 2.41775 22.7392C2.10668 22.5313 1.81384 22.255 1.42325 22.2786C0.956032 22.3072 0.713724 22.0707 0.585736 21.6842C0.437452 21.2348 0.965145 21.2456 1.15568 21.0505Z" fill="black"/>
</svg>
