<svg width="82" height="65" viewBox="0 0 82 65" fill="none" xmlns="http://www.w3.org/2000/svg">
<path fill-rule="evenodd" clip-rule="evenodd" d="M26.4562 33.9526C26.3145 34.6389 25.8494 35.2921 26.0035 36.0385C26.0366 36.1992 25.9442 36.3028 25.8589 36.4312C25.7587 36.5819 25.8001 37.9318 25.767 38.1211C25.6746 38.6517 26.2197 39.1293 25.9807 39.5944C25.6961 40.1474 25.89 40.5835 25.9728 41.1141C26.1754 42.4131 26.6115 43.5998 27.3633 44.8983C27.3231 44.4344 27.3401 44.132 27.5617 43.9029C27.3927 43.8052 27.2121 43.8781 27.1206 43.6764C27.3393 42.7324 26.8207 41.8473 26.7387 40.8942C26.6612 40.0053 26.4313 39.1251 26.4487 38.2106C26.4761 36.7919 26.4562 35.3721 26.4562 33.9526ZM40.0913 53.324C40.5109 53.5961 40.7958 53.9734 41.1968 54.2547C42.1565 54.9273 43.2297 55.3527 44.2586 55.8738C44.696 56.095 45.1864 56.0001 45.4283 55.6095C46.238 54.3011 47.1008 53.0199 47.5718 51.5305C47.7921 50.8334 48.0514 50.1491 48.285 49.4557C48.5335 48.7193 48.6131 47.9406 48.7883 47.1871C48.9573 46.4586 48.8562 45.6778 49.0235 44.9124C49.2538 43.8599 48.6715 42.814 48.8231 41.7375C48.4113 41.3983 48.6843 40.9054 48.5451 40.4982C48.2403 39.6068 47.9677 38.7043 47.6948 37.8022C47.2255 36.2477 46.4439 34.8208 45.5442 33.5115C44.8484 32.4987 44.0713 31.4968 43.0706 30.685C42.3669 30.1138 41.6636 29.5645 40.8658 29.1619C39.53 28.4868 38.1537 27.9036 36.5979 28.0187C36.373 28.0353 36.1452 28.037 35.9211 28.0183C34.3314 27.8866 33.5726 28.7925 32.762 29.9245C32.3453 30.5064 32.2211 31.2499 31.6681 31.7387C31.746 31.9081 32.0906 32.0307 31.7957 32.2759C31.6176 32.4238 31.6399 32.6048 31.6565 32.7833C31.6884 33.1296 31.2419 32.8595 31.227 33.1267C31.6449 33.5313 31.4461 33.8312 31.0791 34.1021C30.9954 34.0338 30.9196 33.9716 30.7796 33.8573C30.6889 34.6339 30.725 35.3505 30.5589 36.0683C30.3195 37.1067 30.6831 38.1845 30.8268 39.2225C30.9615 40.2 31.1599 41.2297 31.6399 42.1463C31.6565 42.1778 31.5061 42.2971 31.4287 42.3803C32.1548 42.8832 32.3801 43.7319 32.7471 44.4381C33.4226 45.7374 34.0746 47.0298 35.1155 48.0785C35.2754 48.2392 35.195 48.455 35.2824 48.5722C35.4879 48.8485 35.4431 49.1861 35.5798 49.4756H36.0093C36.2765 49.5763 36.1439 49.8679 36.3411 50.0327C36.5072 50.1715 36.7495 50.1255 36.8941 50.4461C37.1111 50.927 37.5953 51.3163 38.0319 51.6609C38.456 51.9956 38.5554 52.6869 39.2708 52.7184C39.516 52.7292 39.5093 53.133 39.6705 53.324H40.0913ZM40.9963 62.3813C40.6641 63.0324 39.9563 62.793 39.4426 62.9968C39.0823 63.1389 38.5997 63.4727 38.2121 63.2416C37.7962 62.9943 37.5075 63.3725 37.1376 63.2855C36.8816 63.225 36.5515 63.1542 36.3055 63.4479C36.24 63.5261 35.987 63.5423 35.888 63.4798C35.6274 63.3157 35.4042 63.0983 35.161 63.4851C34.5704 63.1148 33.8853 63.3542 33.2578 63.1873C32.5358 62.9955 31.8085 62.8025 31.0547 62.7806C30.8401 62.5664 30.6268 62.3535 30.4143 62.1406C30.1944 62.4045 29.9504 62.4438 29.6406 62.2761C28.5065 61.6606 27.2254 61.2994 26.194 60.529C25.4157 59.9479 24.5318 59.5163 23.8509 58.7748C23.1343 57.9945 22.2413 57.386 21.4941 56.6214C20.4138 55.5159 19.503 54.2675 18.4646 53.128C18.3466 52.5295 17.8296 52.2002 17.5244 51.7289C17.1942 51.2198 16.7606 50.7936 16.4653 50.2502C16.179 49.7233 15.8841 49.1848 15.448 48.7462C15.2732 48.5702 15.4227 48.4128 15.6116 48.2492C15.3171 47.8689 14.818 47.7057 14.6593 47.1292C14.5322 46.6682 14.055 46.2838 13.7705 45.8161C12.9309 44.4352 12.1468 43.029 11.4385 41.5789C11.1792 41.0474 11.0363 40.4394 10.6942 39.9742C10.3458 39.5012 10.3073 38.9255 9.98052 38.4508C9.64874 37.9691 9.41513 37.4079 9.20638 36.8561C8.57803 35.1956 7.78484 33.6076 7.15649 31.9421C6.49294 30.1829 5.78342 28.4437 5.19898 26.6527C4.99519 26.0277 4.70774 25.4304 4.5172 24.788C4.28856 24.0171 4.10259 23.231 3.83626 22.4738C3.57987 21.7448 3.22365 21.0569 3.16359 20.2603C3.14993 20.0893 2.88235 19.9083 2.96768 19.6776C3.04265 19.4754 2.57129 19.4278 2.87697 19.1366C3.02194 18.9991 2.63383 18.8583 2.54271 18.6789C2.40809 18.4159 2.48389 18.1222 2.41099 17.8344C2.05726 16.4348 1.58342 15.0692 1.33655 13.6331C1.19738 12.8229 1.09756 11.9734 0.737618 11.179C0.530103 10.7209 0.781109 10.0946 0.474186 9.59466C0.620399 8.74016 0.107618 7.94573 0.245547 7.08999C0.283654 6.85431 -0.0667605 6.6617 0.220695 6.34857C0.329216 6.23052 -0.0651037 5.9004 0.0094525 5.56076C0.0728253 5.27371 0.0227069 4.96099 0.0227069 4.65987C0.0227069 4.35874 0.033062 4.05721 0.0206359 3.7565C-0.0116718 2.97365 0.225665 2.31549 0.670518 1.6449C1.06939 1.04431 1.48442 0.514128 2.0672 0.101584C2.27638 -0.0462858 2.47229 -0.00817929 2.67815 0.0618207C2.94448 0.471466 2.52324 0.72827 2.45365 1.06129C2.39815 1.32555 2.07963 1.47549 2.17945 1.85573C2.242 2.09555 1.9446 2.36105 2.26726 2.66259C2.57626 2.9517 1.89075 3.19567 2.11028 3.58087C2.19726 3.5991 2.3004 3.62022 2.41886 3.64508C2.43212 3.65792 2.48348 3.6865 2.48141 3.71093C2.42466 4.44697 2.63797 5.15028 2.73448 5.86726C2.76016 6.05365 2.58123 6.10212 2.50294 6.24667C2.6359 6.29265 2.7672 6.33821 2.89809 6.38336C2.99998 6.63809 3.02525 6.87916 2.77342 7.08129C2.79703 7.13099 2.80697 7.20431 2.84797 7.23164C3.17105 7.44661 3.11389 7.79164 3.20336 8.10561C3.67596 9.75869 3.85158 11.4913 4.54123 13.0847C4.54413 14.0672 5.083 14.8956 5.33525 15.8073C5.49265 16.376 5.67862 16.9546 5.82732 17.5142C5.98099 18.0916 6.53146 18.5592 6.34839 19.2265C6.87608 20.0677 6.97425 21.0763 7.40667 21.9507C7.71774 22.5803 7.82584 23.2737 8.11288 23.9194C8.38916 24.5411 8.59667 25.2316 8.86135 25.867C9.26147 26.8287 9.55762 27.8332 10.0845 28.7544C10.369 29.2531 10.6184 29.8176 10.8139 30.3664C11.7218 32.908 13.0158 35.2598 14.2547 37.6406C14.625 38.3518 15.1522 38.9971 15.2931 39.8053C15.3664 40.2265 15.7971 40.381 15.8696 40.8205C15.9206 41.1278 16.3373 41.3577 16.4739 41.6729C16.6305 42.0349 16.8302 42.3538 17.0331 42.6864C17.3583 43.2199 17.7663 43.7505 17.6466 44.412C17.8371 44.5719 17.8429 44.3631 17.9332 44.3474C18.6158 45.0064 18.646 45.1083 18.354 45.7917C18.458 45.8907 18.5624 45.9905 18.6618 46.0854C18.7483 46.0125 18.8254 45.947 18.8887 45.8936C19.6045 46.4544 20.0642 47.1225 19.8936 48.0462C20.1487 48.1423 20.1947 47.806 20.4449 47.9257C20.9767 48.6609 21.4709 49.4955 22.1174 50.1872C22.5987 50.7021 23.0871 51.2211 23.5978 51.7135C24.1396 52.2367 24.6652 52.7764 25.1974 53.309C25.7301 53.8417 26.2097 54.444 26.8066 54.8913C27.8844 55.699 28.9501 56.5179 30.1244 57.2116C31.0708 57.7704 32.055 58.2082 33.0437 58.6394C33.7113 58.9306 34.4594 59.0747 35.1867 59.1758C35.5483 59.2259 35.8842 59.2938 36.2226 59.4169C36.3477 59.462 36.5213 59.4637 36.6236 59.3067C36.6787 59.0329 36.4699 58.8457 36.2968 58.7794C35.2841 58.3921 34.5704 57.6089 33.7958 56.9188C33.0379 56.2437 32.3337 55.5051 31.6341 54.7683C30.4918 53.5663 29.5209 52.2408 28.6995 50.7919C28.1805 49.8766 27.5944 49.0042 27.1177 48.0574C26.3763 46.5857 25.7583 45.0739 25.3474 43.4829C25.2906 43.2613 25.0305 43.1317 25.108 42.9068C25.2206 42.5816 24.6673 42.3505 24.9253 42.1273C25.2799 41.8208 24.7613 41.7305 24.8566 41.4836C24.9419 41.2612 24.893 40.9994 24.6681 40.777C24.5248 40.6353 24.7497 40.4597 24.8797 40.3164C24.3881 40.0931 24.4755 39.5808 24.451 39.2258C24.3744 38.1016 24.309 36.9531 24.461 35.8442C24.5703 35.0428 24.6395 34.2127 24.8818 33.4303C25.1187 32.6657 25.4588 31.9317 25.6692 31.1613C25.8146 30.6282 26.1845 30.243 26.3949 29.765C26.5991 29.3011 26.9653 28.9229 27.1608 28.4988C27.447 27.8771 28.0534 27.6435 28.4154 27.1282C28.7509 26.6511 29.3796 26.3847 29.8957 26.1043C30.5274 25.7609 31.1876 25.406 31.888 25.2026C32.5607 25.0075 33.2089 24.747 33.9052 24.5974C34.8214 24.4003 35.7153 24.1667 36.6629 24.1696C37.0854 24.1708 37.4661 23.8941 37.9258 23.9426C38.5003 24.0031 39.0682 23.9513 39.6477 24.1547C40.1774 24.3406 40.7714 24.2259 41.3616 24.3671C43.5548 24.8919 43.9454 24.858 46.0226 25.9573C46.33 26.1196 46.5135 26.5264 46.9351 26.4725C48.1645 27.8096 49.6544 28.9084 50.6286 30.4783C51.8136 32.3877 52.7232 34.4198 53.349 36.5815C53.5238 37.1858 53.8713 37.7388 53.8747 38.4007C54.2346 37.2124 53.3938 36.2034 53.3225 34.8075C53.8883 35.7954 54.0316 36.6428 54.2338 37.458C54.5013 38.5419 54.701 39.6338 54.7424 40.7683C54.7611 41.2819 54.8899 41.8295 54.9313 42.37C54.9682 42.8563 54.5916 43.2398 54.6811 43.7484C54.7582 44.1867 54.7813 44.6692 54.6819 45.0975C54.3547 46.5012 54.0834 47.9149 53.6796 49.3066C53.2451 50.8035 52.5724 52.1712 51.8683 53.5294C51.4093 54.4141 50.9048 55.3076 50.1203 55.9641C49.801 56.2304 49.7612 56.7473 49.2779 56.8563C49.2493 56.8629 49.2998 57.0679 49.1838 57.145C48.9361 57.3094 49.1159 57.5529 49.0182 57.7505C50.2334 58.0802 51.4151 58.3051 52.5886 58.5636C53.4704 58.7579 54.3626 58.7579 55.2424 58.9347C56.1109 59.1099 57.0541 59.066 57.9434 58.9513C59.2468 58.7831 60.5702 58.6584 61.8331 58.2654C63.0662 57.8814 64.2044 57.2638 65.3712 56.7183C65.737 56.5473 65.8413 56.0221 66.3313 56.0361C67.0177 55.0814 68.2164 54.6759 68.8261 53.5928C69.1914 52.9429 69.8699 52.4773 70.3263 51.8415C70.9911 50.9166 71.5793 49.9428 72.2383 49.0171C72.773 48.2661 73.1553 47.4274 73.625 46.6441C74.3159 45.4914 74.7786 44.1896 75.2363 42.9147C75.4947 42.1948 75.8252 41.5031 76.0063 40.7434C76.2618 39.6677 76.6918 38.6322 76.6106 37.4965C76.577 37.0322 76.3008 36.6225 76.365 36.1184C76.4035 35.8173 76.5472 35.6579 76.7278 35.4793C77.0492 35.9842 77.1528 36.6101 77.7256 37.149C77.5777 36.7004 78.2554 36.5492 77.7964 36.0431C77.581 35.8049 77.825 35.2598 77.4307 34.9674C77.6121 34.8162 77.7269 34.7205 77.9571 34.5283C78.0822 34.6965 78.2645 34.8825 78.3713 35.1045C78.4625 35.2942 78.4215 35.5725 78.8526 35.4408C78.5594 35.0415 78.6538 34.6025 78.6567 34.1261C79.1293 34.1452 79.5564 34.0098 79.9358 34.296C80.0799 34.2057 79.9084 33.9841 80.1168 33.9207C80.2986 34.115 80.5625 34.2562 80.6813 34.5408C80.7803 34.7781 80.9017 35.0063 81.0168 35.247C81.2612 35.0486 80.9957 34.7611 81.2227 34.5934C81.46 34.9446 81.6042 35.3037 81.5918 35.749C81.5628 36.8404 81.5499 37.9343 81.5959 39.0245C81.6199 39.5861 81.4 40.0902 81.3184 40.62C81.1419 41.757 80.8404 42.8944 80.4266 43.9688C80.0774 44.8747 79.9018 45.8605 79.3232 46.674C78.7081 48.822 77.1822 50.456 76.1011 52.3406C75.8373 52.8012 75.4214 53.2038 75.0573 53.5936C73.6847 55.0624 72.447 56.6624 70.9261 57.9895C68.8277 59.8207 66.5322 61.3653 63.9621 62.4463C62.9059 62.8903 61.7921 63.2142 60.675 63.5187C59.8615 63.7403 59.0045 63.7912 58.225 64.14C58.1621 64.1682 58.0829 64.1607 58.0117 64.1698C56.714 64.3309 51.7722 64.5712 50.7669 64.3719C49.6776 64.1561 48.5663 64.0973 47.4881 63.8438C46.4638 63.6024 45.451 63.3091 44.4325 63.0424C44.3617 63.0241 44.259 63.0713 44.2105 63.0353C43.2744 62.3366 42.1971 62.3051 40.9963 62.3813Z" fill="black"/>
</svg>
