<svg width="217" height="127" viewBox="0 0 217 127" fill="none" xmlns="http://www.w3.org/2000/svg">
<path fill-rule="evenodd" clip-rule="evenodd" d="M36.6298 98.3077C36.6298 98.0521 36.5868 97.8578 36.6373 97.6913C36.8531 96.9768 37.1244 96.2764 37.0817 95.5097C37.5432 95.2637 37.3017 94.7733 37.4201 94.4133C38.0497 92.5001 38.7667 90.6151 39.3979 88.5959C39.1043 88.7185 38.9005 88.8034 38.6975 88.8883C38.5439 89.3054 38.782 89.7486 38.5555 90.1835C38.3484 90.5807 38.0882 90.9556 37.9669 91.4058C37.9155 91.5955 37.5568 91.7347 37.5543 91.9004C37.5386 92.8858 36.8282 93.6549 36.7694 94.6341C36.7359 95.1829 36.378 95.6945 36.4041 96.2785C36.4323 96.899 36.0056 97.4631 36.18 98.1001C36.1978 98.1656 36.2438 98.2236 36.2769 98.2857C36.3503 98.2903 36.4236 98.2948 36.6298 98.3077ZM67.4729 39.5586C67.5508 39.4041 67.6162 39.2409 67.7094 39.0959C67.8242 38.9187 67.9488 38.7377 68.0615 38.572C68.4082 38.0613 68.4508 37.4462 68.7437 36.9322C69.2299 36.0789 69.4975 35.1407 69.8479 34.2332C70.3868 32.8386 70.6908 31.3653 71.3345 30.0013C71.5018 29.6468 71.8568 29.1982 71.5487 28.6829C71.2152 29.2558 70.9373 29.8282 70.5715 30.3372C70.135 30.9461 70.0642 31.7178 69.6156 32.3109C69.6442 33.2607 69.1351 34.0737 68.8696 34.9369C68.5979 35.82 68.2976 36.718 67.9116 37.5795C67.6518 38.1603 67.3685 38.7923 67.4729 39.5586ZM62.2084 38.0662C62.756 37.0121 63.386 36.1079 63.7099 35.1047C64.2281 33.5005 65.0685 32.0524 65.6943 30.5046C65.9549 29.8605 66.2634 29.2007 66.7004 28.6722C67.1884 28.0819 67.1689 27.2295 67.8076 26.7511C68.4873 25.3946 69.2784 24.1052 70.1602 22.8729C70.3442 22.6157 70.3516 22.4169 70.2013 22.1766C69.8624 22.0971 69.734 22.3432 69.6193 22.566C69.3157 23.1558 68.9939 23.7527 68.6501 24.3003C68.2537 24.9307 67.9579 25.6042 67.5823 26.2379C67.2053 26.8724 66.8243 27.5041 66.4531 28.1416C65.6082 29.5917 65.0295 31.1627 64.3445 32.6858C63.7604 33.9843 63.1797 35.2919 62.5555 36.5755C62.3492 36.9997 62.0746 37.4346 62.2084 38.0662ZM58.0652 34.8069C58.0283 34.4478 58.1824 34.1185 58.336 33.8194C58.5742 33.3547 58.715 32.781 59.0555 32.4435C59.4676 32.0355 59.3426 31.3524 59.9005 31.0853C60.352 30.0701 60.7724 29.04 61.2636 28.0442C61.9876 26.5767 62.6694 25.0752 63.5401 23.6959C64.5184 22.1456 65.585 20.6491 66.5074 19.0602C66.6772 18.7678 66.8881 18.4977 66.9208 17.9634C66.4581 18.4269 66.0468 18.7123 65.8041 19.1033C64.7524 20.7965 63.7136 22.4997 62.8351 24.2936C62.191 25.6087 61.4554 26.8816 60.7326 28.149C60.231 29.03 59.6971 29.9156 59.3024 30.8318C58.7664 32.0761 58.1513 33.2839 57.6456 34.5397C57.624 34.594 57.6708 34.676 57.6791 34.7145C57.7682 34.869 57.8866 34.7978 58.0652 34.8069ZM31.6814 86.4756C30.8244 86.8475 30.8439 87.9037 30.1434 88.4053C30.0548 89.0465 29.6228 89.5444 29.4174 90.128C29.1518 90.881 28.9547 91.6647 28.755 92.4363C28.5939 93.0601 28.7223 93.7585 28.7223 94.4887C29.4207 93.8662 29.4368 93.0096 29.8311 92.3324C30.2279 91.6506 30.4914 90.8823 30.7457 90.1288C31.0029 89.3659 31.4817 88.716 31.7435 87.9534C31.9991 87.2091 32.1942 86.4412 32.6523 85.6675C32.2824 85.7064 32.2037 85.9342 32.0504 86.0502C31.8657 86.1902 31.5973 85.9765 31.4395 86.2055C31.5107 86.285 31.5816 86.3646 31.6814 86.4756ZM58.8811 110.954C60.2459 111.043 61.491 110.417 62.8136 110.171C63.8449 109.979 64.8237 109.571 65.8571 109.356C66.9171 109.136 67.9555 108.793 69.0075 108.55C70.0352 108.311 71.0218 107.928 72.0734 107.756C72.7461 107.647 73.4188 107.395 74.2302 107.229C73.5252 106.947 73.0224 107.345 72.5079 107.312C71.9384 107.275 71.4687 107.647 70.9091 107.566C70.4224 107.496 70.0348 108.112 69.4259 107.789C69.3207 107.923 69.1832 108.098 69.0514 108.266C68.7143 108.266 68.3796 108.177 68.1278 108.283C67.4452 108.571 66.7071 108.647 66.0083 108.868C65.3543 109.074 64.634 109.284 63.9547 109.325C63.2224 109.368 62.5398 109.736 61.7971 109.595C61.6285 109.563 61.5399 109.705 61.414 109.759C61.1609 109.868 60.8676 109.953 60.6229 110C60.3847 110.046 60.0823 110.421 59.7994 110.059C59.4755 110.502 58.9147 110.064 58.5871 110.361C58.1285 110.777 57.5876 110.716 57.0703 110.725C56.6424 111.297 55.9498 111.262 55.3492 111.507C55.9652 111.876 56.4597 111.317 56.9684 111.422C57.4865 111.528 57.9571 110.958 58.4628 111.372C58.5953 111.239 58.7283 111.106 58.8811 110.954ZM59.058 20.5791C58.218 21.458 57.7512 22.5722 57.2165 23.6338C56.6801 24.6987 55.9337 25.6737 55.5708 26.9806C56.1118 26.8041 56.3827 26.5871 56.5194 26.1625C56.6892 25.6336 56.852 25.0843 57.1378 24.6175C57.3647 24.2468 57.5752 23.9184 57.6663 23.4727C57.7491 23.0647 58.317 22.9003 58.3998 22.4256C58.4102 22.3643 58.5241 22.3233 58.5403 22.2603C58.7983 21.2571 59.495 20.4768 59.9465 19.5717C60.1548 19.1542 60.4398 18.6862 60.8618 18.3627C61.2707 18.0491 61.3581 17.4137 61.9338 17.251C62.5369 16.191 63.6097 15.4666 64.0458 14.2878C64.8328 13.5716 65.1658 12.4848 66.041 11.8411C66.0965 11.3888 66.6967 11.1962 66.5662 10.6213C66.3873 10.7045 66.3231 10.8905 66.1934 10.9994C65.645 11.4608 65.3062 12.189 64.4729 12.3021C64.2943 12.3261 64.0193 12.5982 64.0152 12.7619C64.0019 13.2858 63.7497 13.5526 63.2891 13.6926C62.6616 14.9298 61.4985 15.8112 61.0159 17.154C60.8763 17.5426 60.5135 17.8487 60.3586 18.2351C60.2903 18.4053 59.5948 18.0897 60.0658 18.646C60.1755 18.7756 59.6756 18.9749 59.6582 19.3249C59.6371 19.7561 59.3376 20.0278 58.9052 20.1326C58.8613 20.1433 58.8331 20.222 58.8049 20.2606C58.8774 20.3517 58.9441 20.4358 59.058 20.5791ZM120.479 52.7579C119.959 53.1597 119.631 52.4809 119.195 52.6498C118.313 52.0016 117.175 51.8032 116.369 50.9922C116.139 50.7607 115.752 50.4778 115.2 50.7337C115.641 51.0208 116.033 51.2747 116.424 51.5319C117.684 52.3628 119.116 52.8536 120.439 53.5636C120.992 53.8606 121.668 53.8945 122.125 54.423C122.302 54.6285 122.679 54.5092 122.954 54.5556C123.505 54.6475 123.813 55.1587 124.412 55.1823C124.903 55.2017 125.401 55.4763 125.882 55.6922C126.325 55.8901 126.797 56.096 127.237 56.2198C127.717 56.3549 128.159 56.5553 128.614 56.7318C129.424 57.0458 130.222 57.3937 131.033 57.7064C132.203 58.1579 133.299 58.7722 134.456 59.2593C135.241 59.5894 136.023 60.0367 136.762 60.5072C137.177 60.7711 137.168 60.7852 137.914 60.6754C137.264 60.2844 136.661 59.9224 136.048 59.5537C136.143 59.4543 136.241 59.3504 136.35 59.2361C137.419 59.8337 138.484 60.4339 139.473 61.1671C140.154 61.672 142.13 62.3339 143.036 62.3575C143.355 62.3658 143.547 62.695 143.844 62.5948C144.251 62.4569 144.491 62.9013 144.883 62.8388C145.214 62.7862 145.569 62.8769 145.896 62.8156C146.296 62.7406 146.547 63.1196 146.936 63.0637C147.268 63.0161 147.612 63.0463 147.951 63.0554C148.861 63.0807 149.748 62.9771 150.596 62.6213C150.659 62.5944 150.742 62.5936 150.813 62.6043C151.742 62.7452 152.625 62.2386 153.541 62.3927C153.955 62.4623 154.188 62.0853 154.581 62.138C154.988 62.1926 155.422 62.2166 155.817 62.128C156.103 62.0638 156.399 62.0659 156.688 61.9727C156.995 61.8745 157.361 61.8799 157.685 61.9375C158.121 62.0153 158.54 61.3124 158.968 61.923C159.346 61.5477 159.734 61.6268 160.125 61.8985C160.454 61.4848 160.765 61.749 161.079 61.9242C161.346 62.0733 161.559 61.6078 161.825 61.8484C161.991 61.9992 162.108 61.5664 162.332 61.8522C162.439 61.9872 162.819 61.913 163.076 61.9226C163.302 61.9308 163.528 61.9242 163.754 61.9242C163.98 61.9242 164.206 61.9371 164.431 61.9222C165.578 61.8459 166.683 62.285 167.841 62.1732C168.153 62.1425 168.507 62.3624 168.816 62.5186C169.131 62.6777 169.373 62.6491 169.591 62.3769C169.937 62.7597 170.391 62.782 170.87 62.8466C171.653 62.9519 172.47 62.8943 173.216 63.2662C173.396 63.3565 173.66 63.2799 173.887 63.2799C174.828 63.2799 175.769 63.2886 176.71 63.2753C177.061 63.2704 177.448 63.3951 177.739 63.0711C178.029 63.4257 178.429 63.2493 178.782 63.2741C179.157 63.2998 179.535 63.2799 179.912 63.2799C180.288 63.2799 180.666 63.2567 181.04 63.2869C181.356 63.3122 181.707 63.1432 181.987 63.463C182.089 63.5794 182.232 63.4543 182.369 63.3926C182.926 63.1411 183.44 63.1859 183.819 63.7413C184.03 63.4038 184.477 63.4021 184.614 63.5317C184.939 63.837 185.234 63.5756 185.531 63.6171C185.882 63.6655 186.259 63.3085 186.599 63.5872C186.944 63.8697 187.321 63.6419 187.772 63.7848C187.862 63.8254 187.678 64.1228 187.943 64.1887C188.421 64.0126 188.898 63.7641 189.447 64.1381C189.765 64.3552 190.268 63.9849 190.581 64.3908C191.155 64.3125 191.588 64.7946 192.083 64.8232C192.602 64.8526 193.052 65.162 193.568 65.0833C193.849 65.0403 194.032 65.2614 194.255 65.3422C195.954 65.959 197.664 66.5475 199.341 67.238C201.494 68.1248 203.468 69.3057 205.442 70.5073C205.842 70.7513 206.213 71.0694 206.539 71.3668C207.664 72.3915 208.93 73.2725 209.901 74.4571C211.409 76.2991 212.778 78.2346 213.767 80.4204C214.112 81.1817 214.491 81.9496 214.733 82.7266C215.045 83.7245 215.573 84.6846 215.565 85.7752C215.565 85.8489 215.544 85.9417 215.58 85.9939C216.162 86.8451 215.957 87.8147 216.027 88.7495C216.112 89.8853 216.337 91.0111 216.243 92.158C216.659 92.5478 216.226 92.9363 216.236 93.3265C216.257 94.1168 216.243 94.9079 216.243 95.6982V97.2796C215.728 97.6259 216.293 98.323 215.791 98.6734C215.865 99.5337 215.334 100.228 215.159 101.001C214.975 101.81 214.595 102.509 214.347 103.269C213.794 104.958 212.709 106.355 211.921 107.912C211.791 108.168 211.365 108.319 211.322 108.562C211.228 109.102 210.592 109.232 210.553 109.846C210.525 110.295 209.944 110.56 209.611 110.907C209.352 111.178 209.536 111.626 209.145 111.857C208.863 112.024 208.688 112.366 208.413 112.554C207.238 113.361 206.126 114.254 204.929 115.035C204.042 115.615 203.016 115.972 202.232 116.714C201.541 116.809 201.064 117.336 200.46 117.615C199.859 117.894 199.226 118.085 198.629 118.382C197.982 118.703 197.305 118.99 196.599 119.207C195.766 119.463 194.979 119.836 194.109 120.027C193.587 120.141 193.068 120.409 192.526 120.551C192.155 120.648 191.789 120.876 191.427 120.863C191.083 120.85 190.793 121.156 190.452 120.968C190.421 120.951 190.376 120.896 190.375 120.897C189.767 121.466 188.886 121.303 188.221 121.698C187.905 121.886 187.671 121.836 187.444 121.577C187.288 121.722 187.132 121.868 186.989 122.001C186.892 121.937 186.81 121.882 186.727 121.827C186.388 122.455 185.677 122.183 185.172 122.442C184.892 122.586 184.479 122.621 184.147 122.657C183.743 122.701 183.402 123.043 183.007 122.912C182.662 122.798 182.376 123.236 182.047 122.958C181.419 123.58 180.548 123.241 179.821 123.516C179.133 123.776 178.378 123.891 177.664 124.002C177.03 124.101 176.407 124.428 175.732 124.283C175.397 124.212 175.19 124.609 174.805 124.527C174.512 124.466 174.124 124.365 173.885 124.728C173.645 124.315 173.418 124.786 173.168 124.747C172.854 124.696 172.549 124.832 172.237 124.92C171.696 125.071 171.073 124.866 170.534 125.184C169.607 125.052 168.735 125.553 167.803 125.416C167.294 125.341 166.855 125.738 166.314 125.652C165.836 125.576 165.3 125.518 164.855 125.659C163.684 126.031 162.487 125.689 161.33 125.879C158.954 126.27 156.57 126.029 154.192 126.077C151.821 126.126 149.449 126.094 147.077 126.082C146.715 126.08 146.346 126.17 145.987 125.992C145.694 125.846 145.439 126.211 145.116 126.093C144.193 125.753 143.201 126.006 142.283 125.821C141.511 125.666 140.758 125.697 139.998 125.623C139.615 125.585 139.268 125.371 138.847 125.392C138.5 125.41 138.153 125.483 137.771 125.273C137.451 125.097 136.954 125.28 136.573 125.171C134.637 124.614 132.575 124.614 130.693 123.829C129.925 123.871 129.232 123.557 128.505 123.39C127.443 123.145 126.406 122.82 125.355 122.544C124.846 122.41 124.272 122.394 123.845 122.106C123.379 121.79 122.84 121.765 122.355 121.61C121.387 121.3 120.515 120.761 119.524 120.523C119.154 120.433 118.814 120.21 118.443 120.142C117.697 120.004 117.163 119.451 116.447 119.223C115.459 118.908 114.481 118.477 113.6 117.933C112.282 117.12 110.875 116.47 109.59 115.595C108.639 114.947 107.568 114.477 106.585 113.871C106.318 113.706 106.014 113.611 105.767 113.358C105.232 112.809 104.402 112.862 103.747 112.534C103.716 112.519 103.644 112.521 103.638 112.534C103.498 112.873 103.233 112.504 103.073 112.631C102.771 112.87 102.428 112.746 102.108 112.746C101.832 112.746 101.589 113.077 101.266 112.772C101.075 112.591 100.801 113.013 100.623 112.895C100.388 112.74 100.277 112.849 100.06 112.895C99.1448 113.09 98.205 112.967 97.2747 112.967C97.0282 112.615 96.6459 112.729 96.3481 112.778C95.9729 112.84 95.7629 112.471 95.4216 112.532C94.8636 112.632 94.3848 112.171 93.8211 112.306C93.4181 111.826 92.7156 112.341 92.3138 111.855C91.4146 112.03 90.674 111.391 89.7917 111.369C89.3038 111.357 88.8155 111.027 88.3433 110.807C87.4208 110.378 86.4234 110.174 85.4724 109.832C85.2724 109.759 85.0085 109.872 84.8027 109.807C84.5827 109.738 84.5206 110.196 84.2667 109.911C84.0782 109.701 84.0439 110.102 83.8339 110.064C83.6355 110.027 83.4176 110.037 83.1898 110.119C82.6944 110.294 82.1717 110.418 81.6502 110.487C81.1519 110.553 80.6366 110.442 80.1582 110.714C79.9959 110.807 79.7937 110.705 79.6947 110.487C79.5668 110.928 79.1944 111.038 78.8581 111.161C78.7773 111.191 78.6253 111.026 78.4397 110.909C77.8689 111.495 76.9987 111.291 76.3045 111.635C75.8228 111.873 75.2504 111.768 74.7877 112.07C74.7459 112.097 74.6084 111.98 74.4729 111.906C74.1005 112.297 73.5526 112.384 73.0253 112.54C72.4607 112.706 71.8974 112.81 71.3204 112.749C71.0707 112.978 70.8839 113.206 70.4817 113.233C69.8198 113.276 69.232 113.71 68.544 113.716C68.3237 114.104 68.0992 113.441 67.8254 113.731C67.6465 113.921 67.3478 114.019 67.0856 114.106C66.8139 114.196 66.4784 113.984 66.2345 114.227C66.0129 114.448 65.6185 114.201 65.4591 114.542C64.6506 114.482 63.9265 114.814 63.1673 115.003C61.9727 115.301 60.745 115.462 59.5799 115.89C59.3811 115.963 59.1375 115.919 58.9147 115.92C58.5162 115.92 58.1074 115.862 57.8229 116.199C57.6845 116.074 57.6037 116 57.5213 115.926C57.1759 116.309 56.7306 116.383 56.2394 116.378C55.5195 116.373 54.7789 116.247 54.146 116.789C54.0143 116.902 53.7119 116.807 53.4899 116.827C52.9158 116.879 52.3053 116.656 51.7763 117.051C51.387 116.625 50.9794 116.999 50.6116 117.068C49.4378 117.289 48.2722 117.602 47.0702 117.482C46.7181 117.447 46.5574 117.725 46.2588 117.741C45.9726 117.756 45.6325 117.517 45.4991 117.607C45.1988 117.809 44.9159 117.715 44.638 117.715C44.3307 117.715 44.1791 118.032 43.8249 117.975C43.3109 117.894 42.7741 117.957 42.2472 117.954C41.2179 117.949 40.223 118.28 39.1763 118.198C38.1665 118.118 37.143 118.217 36.1299 118.159C35.8027 118.141 35.5413 118.72 35.166 118.208C34.9358 117.894 34.6305 118.538 34.3277 118.251C33.6314 118.678 32.9683 118.161 32.2853 118.176C31.5323 118.194 30.7784 118.163 30.0266 118.188C29.6841 118.2 29.4758 117.867 29.0997 117.935C28.8371 117.982 28.5181 118.061 28.2493 117.829C28.0418 117.65 27.9237 118.111 27.7129 117.949C27.5663 117.838 27.4557 117.726 27.2382 117.72C26.199 117.692 25.2136 117.439 24.2324 117.081C23.8227 116.931 23.3642 116.787 22.868 116.796C22.3966 116.803 21.9104 116.598 21.4489 116.435C19.513 115.749 17.5932 115.016 15.752 114.103C15.064 113.762 14.4746 113.245 13.7365 112.966C13.3849 112.833 13.1533 112.469 13.0108 112.09C12.9483 112.152 12.8953 112.205 12.834 112.267C12.3618 111.987 11.9095 111.663 11.4514 111.365C10.9121 111.015 10.3794 110.614 9.91428 110.131C9.38286 109.579 8.90362 108.972 8.20031 108.572C7.82256 108.358 7.64611 107.835 7.3193 107.483C6.63339 106.746 5.98599 105.972 5.36552 105.171C4.76948 104.401 4.25256 103.574 3.76546 102.762C2.83682 101.216 1.91605 99.6281 1.41072 97.8752C1.25581 97.338 0.930665 96.843 0.935221 96.2627C0.939778 95.7106 0.626227 95.2521 0.510665 94.7488C0.375636 94.1607 0.380606 93.5332 0.301079 92.923C0.212026 92.2446 -0.0650744 91.5914 0.014038 90.8752C0.0873517 90.2055 0.0335055 89.5216 0.0289493 88.8436C0.0181801 87.2112 0.575281 85.7176 1.11333 84.2107C1.48777 83.1611 1.98025 82.1592 2.30416 81.0872C2.49593 80.4523 3.0112 79.9689 3.29327 79.3534C3.9622 77.8933 4.94717 76.6296 5.89859 75.3443C6.20966 74.9239 6.7212 74.6323 6.81232 74.0516C6.82185 73.9895 6.88978 73.9315 6.9399 73.8806C7.17765 73.6391 7.39469 73.3686 7.66433 73.1698C7.94475 72.9635 8.24877 72.8078 8.20321 72.3898C8.63688 72.4064 8.60043 71.9553 8.82493 71.7607C9.07966 71.5387 9.32445 71.3001 9.54439 71.0433C11.1995 69.1127 13.0162 67.3378 14.8238 65.5543C15.3929 64.9922 16.0399 64.5093 16.6235 63.9608C17.2543 63.3681 17.7998 62.6739 18.4766 62.1437C19.5453 61.3066 20.4781 60.313 21.562 59.5069C22.5155 58.7978 23.4512 58.0577 24.3583 57.3034C25.2277 56.5814 26.1447 55.9183 27.0183 55.2038C27.8169 54.551 28.6175 53.8821 29.4998 53.3217C29.9832 53.0148 30.3891 52.572 30.8356 52.1988C31.5107 51.6338 32.1788 51.039 32.8614 50.4943C34.3294 49.3238 35.5919 47.954 36.8825 46.6174C38.5662 44.8745 40.0217 42.9364 41.3845 40.9259C42.6304 39.0868 43.6369 37.1107 44.7904 35.2236C46.4742 32.4695 47.7462 29.5113 49.2965 26.696C50.1075 25.2239 50.7549 23.6611 51.732 22.2756C51.9209 22.0081 52.0203 21.6473 52.2034 21.3441C52.2688 21.236 52.3542 21.0852 52.3753 20.9701C52.4842 20.3811 53.3089 20.1972 53.1892 19.4964C53.5413 19.0921 53.784 18.6087 54.0996 18.1904C54.252 17.9874 54.3991 17.847 54.5167 17.5819C54.7242 17.1126 54.8779 16.5663 55.3285 16.2204C55.4408 16.1343 55.582 16.0079 55.5974 15.8858C55.7092 14.9915 56.3794 14.3984 56.7791 13.6627C57.1676 12.9474 57.6042 12.2615 58.1004 11.6021C58.5502 11.0044 58.947 10.3665 59.4395 9.78996C60.1879 8.91475 60.7438 7.88712 61.7557 7.22481C62.1339 6.97671 62.4002 6.54552 62.7883 6.23156C64.3039 5.00387 66.1698 3.48623 68.5585 2.73114C69.4487 2.02286 70.6921 1.98227 71.523 1.16215C72.288 1.03333 72.9209 0.554932 73.7178 0.442683C74.9348 0.271618 76.1301 0.00942867 77.3748 0.00197305C78.4546 -0.00423997 78.6733 0.00362985 79.5436 0.33002C80.3918 0.648541 81.2687 0.899547 82.1331 1.17458C83.4934 1.60742 84.8462 2.05641 86.0316 2.95523C87.4846 4.057 88.0252 5.12978 89.2599 6.81227C89.7776 7.51807 90.2175 8.29097 90.6139 9.07298C90.9747 9.78375 91.2133 10.5558 91.5347 11.2881C91.8843 12.0863 92.2479 12.8704 92.511 13.7116C92.6456 14.1428 92.4985 14.7016 92.8953 15.0085C93.3145 15.332 92.8771 15.9193 93.3377 16.1885C93.1795 17.3355 93.8903 18.3561 93.812 19.5042C93.7875 19.8596 94.0381 20.2295 94.1442 20.5981C94.4473 21.6469 94.7481 22.694 94.9324 23.7763C95.0972 24.7472 95.3292 25.7127 95.615 26.655C95.7542 27.1114 95.9364 27.5985 96.305 27.9465C97.109 28.7045 97.4843 29.6985 97.8508 30.6964C97.9701 31.0211 98.3959 31.065 98.4543 31.4241C99.4095 31.9046 99.3366 31.9708 99.9065 32.6025C100.853 33.6517 101.208 35.0252 102.008 36.1456C102.503 36.8394 102.957 37.5621 103.451 38.2568C104.136 39.219 104.881 40.141 105.521 41.1313C105.837 41.6205 106.253 42.0198 106.597 42.4775C107.302 43.4181 107.992 44.4346 108.973 45.1043C110.148 45.9062 110.904 47.2139 112.272 47.7602C113.338 48.8471 114.716 49.4501 116.015 50.1758C116.31 50.7242 117.161 50.5867 117.354 51.2606C117.779 50.8949 117.883 51.5754 118.182 51.5224C118.609 51.4466 118.736 51.8351 119.014 51.9809C119.323 52.1424 119.629 52.3392 119.96 52.4175C120.214 52.4779 120.264 52.6821 120.479 52.7579Z" fill="black"/>
</svg>
