<svg width="161" height="198" viewBox="0 0 161 198" fill="none" xmlns="http://www.w3.org/2000/svg">
<path fill-rule="evenodd" clip-rule="evenodd" d="M42.4585 143.845C42.2891 144.123 42.1268 144.207 42.0448 144.394C41.6492 145.295 41.4388 146.252 41.16 147.188C40.8896 148.097 40.6303 149.02 40.4919 149.955C40.3507 150.907 39.9079 151.755 39.7161 152.696C39.473 153.886 39.1371 155.044 39.0944 156.278C39.0708 156.954 39.4614 157.548 39.3446 158.217C39.3322 158.29 39.3363 158.368 39.3446 158.443C39.3558 158.539 39.35 158.667 39.5633 158.574C39.6026 157.801 39.6598 157.006 39.7455 156.218C39.8752 155.032 39.9957 153.855 40.2127 152.679C40.3035 152.186 40.4087 151.697 40.5686 151.236C40.7446 150.728 40.7446 150.198 40.9065 149.686C41.3178 148.385 41.7308 147.084 42.0742 145.761C42.2229 145.189 42.5803 144.672 42.4585 143.845ZM108.313 124.295C108.743 123.898 109.013 123.478 109.159 123.108C109.605 121.98 109.984 120.827 110.465 119.71C111.111 118.215 111.763 116.714 112.269 115.169C112.535 114.358 113.04 113.528 112.666 112.535C112.237 113.472 111.742 114.341 111.433 115.272C110.974 116.66 110.414 118.001 109.834 119.339C109.6 119.879 109.283 120.409 109.181 120.976C109.065 121.613 108.81 122.172 108.582 122.759C108.398 123.232 108.085 123.72 108.313 124.295ZM91.4031 29.4036C91.2332 29.2338 91.1802 29.1808 91.1268 29.1278C91.4793 28.8908 91.618 28.3317 92.2103 28.4924C92.2103 28.2037 92.2377 27.9767 92.2037 27.7592C92.159 27.4797 92.3462 27.3488 92.5086 27.2079C92.7326 27.0137 92.8573 27.3384 93.0483 27.3421C93.175 26.9023 93.3009 26.4669 93.426 26.0329C93.6733 26.0995 93.4347 26.5311 93.9504 26.464C93.7992 25.9972 94.4801 25.9616 94.4814 25.4555C94.3372 25.3461 94.2026 25.2206 94.0473 25.1315C93.8601 25.0239 93.8108 25.3867 93.6215 25.303C93.5291 25.1684 93.6116 24.9853 93.4484 24.9066C93.4886 25.1767 92.9476 25.3643 93.3506 25.7002C93.0023 26.042 92.6987 26.4512 92.2965 26.7043C91.8918 26.9594 91.6901 27.3604 91.3683 27.6673C91.0149 28.0044 90.5796 28.3039 90.3576 28.7156C90.1248 29.1464 89.7595 29.4347 89.4928 29.817C89.2476 30.1682 88.9663 30.4992 88.6681 30.8065C88.3371 31.147 88.0853 31.5591 87.8326 31.9373C87.5949 32.2927 87.2407 32.588 86.9044 33.189C88.4212 32.4339 89.0686 31.0012 90.3584 30.4818C90.4711 30.1935 90.3112 29.9222 90.4467 29.7271C90.7494 29.6248 91.012 29.5358 91.4031 29.4036ZM5.79595 143.285C6.1795 142.862 5.64062 142.563 5.6663 142.171C5.78269 140.392 5.29269 138.633 5.45175 136.849C5.46831 136.662 5.52796 136.423 5.44056 136.294C5.12039 135.818 5.20364 135.296 5.24299 134.8C5.28524 134.271 5.02678 133.808 5.01394 133.312C4.97914 131.996 4.93897 130.675 5.01932 129.363C5.10216 128.022 4.69376 126.729 4.76459 125.393C4.82216 124.305 4.77908 123.211 4.77287 122.12C4.77204 121.945 4.84701 121.744 4.45766 121.436C4.78115 122.486 4.27873 123.283 4.31725 124.162C4.35121 124.951 4.34003 125.742 4.32015 126.532C4.29944 127.339 4.59062 128.102 4.57613 128.922C4.55542 130.054 4.41169 131.195 4.74802 132.334C4.91163 132.888 4.73104 133.534 4.78861 134.13C4.84701 134.739 4.67098 135.335 4.95719 135.976C5.18127 136.478 5.00192 137.16 5.00192 137.762C5.00192 138.176 4.86897 138.655 5.03258 138.988C5.29891 139.534 5.09056 140.094 5.25169 140.595C5.43725 141.17 5.47246 141.736 5.44471 142.314C5.42565 142.704 5.68577 142.956 5.79595 143.285ZM8.78979 117.351C8.2824 118.512 8.39589 119.731 8.39216 120.938C8.38719 122.632 8.45056 124.328 8.37642 126.018C8.27577 128.331 8.63157 130.62 8.61707 132.925C8.61666 133 8.60423 133.079 8.61914 133.151C8.70074 133.545 8.85524 133.923 8.84571 134.338C8.8337 134.865 8.90453 135.401 8.82541 135.916C8.74713 136.425 9.11204 136.808 9.07725 137.294C9.03956 137.817 9.0263 138.351 9.08056 138.872C9.13565 139.406 8.82997 139.993 9.28973 140.478C9.32577 140.516 9.3208 140.661 9.28311 140.69C8.81713 141.055 9.19778 141.398 9.29098 141.755C9.4082 142.205 9.62689 142.639 9.52749 143.13C9.5192 143.172 9.60867 143.234 9.65299 143.288C9.76151 143.283 9.88039 143.313 9.99595 143.12C10.1322 142.89 9.71678 142.8 9.72796 142.505C9.76607 141.442 9.63808 140.381 9.56932 139.322C9.47447 137.851 9.11991 136.389 9.29388 134.902C9.30216 134.828 9.3266 134.727 9.28973 134.681C8.93062 134.223 9.04163 133.683 9.08843 133.191C9.13938 132.655 8.86435 132.204 8.84571 131.703C8.77115 129.664 8.87802 127.629 8.65973 125.582C8.45802 123.684 8.61707 121.748 8.61707 119.829C8.61707 119.64 8.54334 119.404 8.6295 119.272C9.03666 118.649 8.74465 117.992 8.78979 117.351ZM115.932 156.242C116.029 156.415 116.246 156.503 116.149 156.753C115.838 156.974 115.657 157.387 115.245 157.513C115.122 157.55 115.015 157.593 115.036 157.705C115.113 158.117 114.676 158.268 114.611 158.542C114.519 158.926 114.226 159.074 114.015 159.31C113.829 159.518 113.638 159.713 113.335 159.834C113.123 159.918 113.055 160.361 112.922 160.645C112.802 160.901 112.459 160.826 112.324 161.04C112.242 161.226 112.49 161.564 112.113 161.577C111.756 161.588 111.875 161.897 111.774 162.049C111.619 162.282 111.209 162.154 111.198 162.459C111.175 163.065 110.646 163.356 110.442 163.87C110.251 163.693 110.095 163.548 109.938 163.403C109.669 163.704 109.917 163.972 110.004 164.211C109.681 164.519 109.331 164.419 108.92 164.328C109.293 164.653 109.135 165.012 109.123 165.344C108.832 165.648 108.524 165.928 108.082 166.429C109.738 165.916 110.134 164.486 111.082 163.619C111.201 163.751 111.29 163.879 111.559 163.828C111.611 163.066 112.372 162.771 112.826 162.238C112.705 162.1 112.633 162.018 112.559 161.934C112.959 161.428 113.517 161.06 113.825 160.449C113.962 160.179 114.221 159.823 114.548 159.801C115.174 159.759 115.447 159.315 115.681 158.887C115.798 158.674 115.924 158.681 116.074 158.62C116.181 158.576 116.181 158.516 116.083 158.463C115.901 158.34 115.63 158.548 115.488 158.314C115.488 158.227 115.458 158.132 115.493 158.082C115.749 157.713 116.241 157.601 116.49 157.268C116.752 156.918 116.699 156.378 117.066 156.049C117.094 156.023 117.12 155.996 117.146 155.969C117.44 155.984 117.529 156.674 118.061 156.194C117.746 155.86 117.463 155.561 117.202 155.285C116.722 155.614 116.499 156.144 115.932 156.242ZM12.3697 116.111C12.2285 116.269 12.0438 116.38 12.0458 116.489C12.057 117.112 11.7319 117.664 11.7604 118.306C11.8234 119.734 11.7799 121.167 11.7799 122.597C11.7799 123.689 11.7609 124.781 11.7853 125.872C11.8089 126.935 11.7397 127.991 11.9709 129.062C12.1601 129.939 12.0098 130.873 12.2024 131.79C12.3958 132.711 12.173 133.677 12.4215 134.636C12.605 135.342 12.5213 136.14 12.4401 136.884C12.354 137.675 12.7496 138.38 12.6986 139.165C12.6166 140.44 13.0693 141.62 13.479 142.859C13.8215 142.297 13.351 141.902 13.3535 141.441C13.3572 140.827 13.3013 140.226 13.177 139.606C12.9993 138.724 13.1095 137.796 12.9401 136.879C12.7558 135.879 12.9803 134.838 12.7127 133.808C12.5338 133.121 12.7032 132.373 12.4894 131.641C12.3279 131.086 12.3979 130.438 12.4741 129.846C12.5532 129.235 12.221 128.719 12.2239 128.13C12.2401 124.742 12.2409 121.353 12.2231 117.965C12.2198 117.382 12.6493 116.863 12.3697 116.111ZM87.3406 26.5046C87.0324 27.0418 86.7822 27.6329 86.2819 27.9871C85.1047 28.8192 84.6797 30.3277 83.4317 31.082C83.3311 31.8615 82.6543 32.2695 82.2463 32.8402C81.6656 33.6513 81.1512 34.5116 80.5402 35.2919C79.9873 35.9989 79.5329 36.7569 79.0375 37.495C78.5417 38.2323 78.0496 38.9795 77.507 39.6775C76.8273 40.5518 76.404 41.5737 75.7371 42.4547C75.2778 43.0607 74.7418 43.6559 74.5724 44.4495C74.5525 44.5423 74.4067 44.6007 74.3433 44.6922C73.8194 45.4518 73.2465 46.1846 72.7917 46.984C71.9406 48.4821 71.0778 49.9704 70.1392 51.4172C70.0207 51.5998 69.6881 51.8343 69.9375 52.2576C70.1143 52.0807 70.3413 51.9428 70.4383 51.7423C71.0227 50.5324 71.8312 49.4617 72.5142 48.314C73.0328 47.4417 73.5501 46.566 74.06 45.6879C74.77 44.4644 75.6945 43.3688 76.4243 42.1498C76.8994 41.3566 77.5016 40.6314 77.9403 39.8402C78.7318 38.4125 79.7677 37.1583 80.6036 35.7645C81.2584 34.6714 82.1009 33.6815 82.8515 32.6418C83.5891 31.6192 84.3525 30.5725 85.2824 29.6886C85.497 29.4844 85.6597 29.2616 85.7616 28.9824C85.8706 28.6846 86.4281 28.8188 86.3825 28.3569C86.979 27.9046 87.2602 27.1798 87.8202 26.6972C87.9002 26.6285 87.925 26.5891 87.8397 26.522C87.6843 26.4367 87.505 26.4835 87.3406 26.5046ZM1.32755 122.308C1.19707 122.642 0.679735 122.9 1.1221 123.332C0.753049 123.531 1.17015 123.665 1.16932 123.839C1.16766 124.075 0.900504 124.155 0.919143 124.424C0.945652 124.809 0.466421 125.17 0.920386 125.606C1.10098 125.78 0.512812 126.002 0.758847 126.262C1.00695 126.523 0.916244 126.657 0.742279 126.909C0.618847 127.088 0.763818 127.425 0.484646 127.587C0.979202 128.225 0.596066 128.958 0.702516 129.64C0.751806 129.95 0.639143 130.291 0.908374 130.55C0.55506 130.89 0.575356 131.461 0.782043 131.66C1.19749 132.058 0.692575 132.401 0.887664 132.807C1.06494 133.177 1.00861 133.706 1.14364 134.163C1.23601 134.474 1.16145 134.835 1.16145 135.174C1.16145 135.551 1.21695 135.938 1.14405 136.299C1.08441 136.593 1.55618 136.856 1.16145 137.132C1.29648 137.464 1.44725 137.782 1.3963 138.169C1.3524 138.502 1.37601 138.846 1.39009 139.184C1.40914 139.649 1.44228 140.098 1.56695 140.57C1.70861 141.106 1.99027 141.669 1.84074 142.271C1.80056 142.432 1.94015 142.535 1.98364 142.662C2.12074 143.059 2.3005 143.489 2.26323 143.887C2.21891 144.361 2.36843 144.835 2.55979 145.122C2.86216 145.576 2.64305 146.04 2.84684 146.483C3.10405 147.044 3.30246 147.681 3.38737 148.281C3.56672 149.553 4.39595 150.64 4.34252 151.968C4.33382 152.186 4.73808 152.272 4.7795 152.57C4.94394 153.739 5.40991 154.815 5.84482 155.906C5.82411 155.457 6.12192 154.954 5.58636 154.603C5.3921 154.475 5.46334 154.272 5.45465 154.094C5.44263 153.834 5.52672 153.521 5.41157 153.323C4.81802 152.302 4.68299 151.136 4.29074 150.058C4.1321 149.623 4.23897 149.175 4.0563 148.803C3.63547 147.942 3.39731 147.042 3.13843 146.126C2.92015 145.354 2.73086 144.549 2.57802 143.782C2.41897 142.985 2.13731 142.146 2.28849 141.29C2.30755 141.181 2.33944 141.018 2.28311 140.96C1.91778 140.579 2.05157 140.109 2.08346 139.692C2.11867 139.231 1.81465 138.879 1.825 138.429C1.83867 137.856 1.77695 137.29 1.66139 136.707C1.47873 135.79 1.64814 134.812 1.40044 133.871C1.31719 133.555 1.38719 133.197 1.38719 132.859C1.38719 132.558 1.335 132.244 1.40086 131.959C1.47666 131.633 1.12997 131.35 1.29441 131.091C1.53175 130.718 1.26542 130.489 1.16394 130.203C1.11796 130.074 1.22897 130.001 1.30725 129.926C1.47252 129.768 1.43607 129.466 1.37228 129.412C1.08772 129.169 1.16062 128.872 1.16518 128.585C1.16973 128.234 1.06784 127.857 1.3611 127.56C0.972575 127.229 1.24305 126.784 1.16104 126.401C1.06991 125.974 1.4166 125.547 1.16145 125.12C1.65311 124.207 1.25299 123.247 1.32755 122.308ZM134.632 115.633C134.503 115.8 134.46 115.83 134.462 115.857C134.57 117.601 134.296 119.326 134.179 121.106C134.133 121.187 134.008 121.132 133.843 121.161C133.669 121.474 133.922 121.94 133.569 122.255C133.487 122.328 133.57 122.576 133.674 122.758C133.887 123.134 133.88 123.534 133.451 123.825C133.198 123.809 133.45 123.477 133.21 123.438C132.798 123.786 133.316 124.052 133.329 124.333C133.307 124.656 132.983 124.438 132.901 124.621C132.946 124.822 133.126 124.733 133.239 124.785C133.494 126.34 133.33 126.12 132.882 127.52C133.009 128.001 133.479 127.855 133.86 128.041C133.101 128.294 134.004 128.894 133.452 129.244C133.178 129.126 133.038 128.76 132.664 128.609C132.697 128.954 132.508 129.28 132.817 129.561C133.208 129.915 133.205 130.292 132.92 130.724C132.835 130.853 132.884 131.069 132.872 131.229C133.056 131.295 133.187 131.343 133.314 131.389C133.261 131.447 133.222 131.529 133.175 131.534C132.954 131.556 132.689 131.487 132.522 131.587C132.349 131.691 131.966 131.894 132.299 132.18C132.537 132.384 131.977 132.623 132.385 132.779C132.43 132.796 132.181 132.865 132.06 132.917C131.878 133.138 132.438 133.303 132.122 133.536C131.985 133.637 131.919 133.783 131.979 133.925C132.344 134.803 131.891 135.396 131.298 135.947C131.28 135.965 131.304 136.022 131.294 136.057C131.274 136.123 131.243 136.186 131.199 136.293C131.067 136.037 130.947 135.807 130.839 135.598C130.921 135.111 131.476 135.239 131.673 134.869C131.567 134.586 131.481 134.263 131.21 134.05C130.711 134.127 131.043 134.568 130.887 134.825C130.744 135.061 130.52 135.346 130.602 135.727C130.678 136.087 130.618 136.476 130.618 136.931C130.084 136.861 129.741 137.156 129.488 137.589C129.491 138.034 129.925 138.004 130.158 138.196C129.967 138.533 129.355 138.27 128.942 137.66C128.134 138.061 128.935 138.612 128.811 139.08C128.672 139.392 128.298 139.068 128.139 139.328C128.069 139.827 128.556 139.813 128.744 139.986C128.641 140.299 128.773 140.633 128.579 140.867C128.646 141.133 129.177 140.925 129.034 141.368C128.813 141.614 128.654 141.45 128.494 141.276C128.062 141.467 128.131 142.066 127.683 142.232C127.832 142.48 128.022 142.626 128.378 142.664C128.063 143.234 129.087 143.849 128.24 144.412C128.049 144.309 128.226 143.805 127.716 144.011C127.512 144.357 128 144.597 127.941 144.986C127.884 145.362 127.707 145.651 127.592 145.98C127.409 145.925 127.305 145.558 127.043 145.846C126.965 145.997 127.003 146.115 127.121 146.234C127.301 146.416 127.312 146.702 127.164 146.83C126.699 147.234 126.657 147.835 126.378 148.321C126.144 148.73 126.149 149.321 125.513 149.418C125.474 149.424 125.422 149.539 125.427 149.599C125.454 149.989 125.128 150.243 125.051 150.572C124.968 150.93 124.614 151.067 124.527 151.373C124.415 151.767 123.87 151.931 123.881 152.218C123.9 152.679 123.212 152.464 123.369 152.908C122.981 152.986 122.767 153.3 122.494 153.555V154.433C122.192 154.731 121.866 154.777 121.494 154.579C121.214 154.806 121.439 155.135 121.321 155.42C121.21 155.46 121.079 155.508 120.908 155.571V156.297C120.74 156.365 120.611 156.418 120.465 156.477C120.35 156.828 120.981 157.083 120.577 157.489C120.468 157.543 120.473 157.348 120.299 157.359C120.328 157.674 119.92 157.949 120.204 158.372C119.847 158.526 119.328 158.229 119.104 158.86V159.866C118.371 160.249 117.857 160.939 117.074 161.221C117.14 161.413 117.319 161.332 117.475 161.417C117.472 161.71 116.996 161.76 117.067 162.076C117.151 162.448 116.837 162.432 116.659 162.576C116.433 162.757 116.241 162.974 115.939 163.039V163.478C115.871 163.598 115.777 163.628 115.658 163.623C115.55 163.62 115.441 163.635 115.345 163.64C115.157 163.892 115.329 164.166 115.174 164.529C115.034 164.735 114.472 164.774 114.523 165.347C114.532 165.45 114.157 165.475 113.995 165.656C113.523 166.185 112.922 166.582 112.491 167.161C112.278 167.447 111.987 167.659 111.643 167.824C111.322 167.979 111.249 168.407 111.019 168.69C110.798 168.962 110.307 168.902 110.274 169.373C110.262 169.539 109.995 169.44 109.911 169.541C109.72 169.769 109.409 169.797 109.246 170.145C109.002 170.667 108.293 170.789 107.931 171.275C107.623 171.688 107.211 172.013 106.734 172.194C106.328 172.347 106.359 172.987 105.821 172.943C105.396 173.515 104.705 173.779 104.239 174.302C104.042 174.523 103.821 174.7 103.532 174.779C103.344 174.829 103.3 175.356 102.973 174.949C102.751 175.233 102.646 175.625 102.191 175.689C102.096 175.703 102.171 175.972 101.92 176.069C101.397 176.271 101.026 176.757 100.481 176.958C100.321 177.017 100.088 177.123 100.029 177.195C99.2455 178.147 98.0315 178.446 97.1074 179.173C97.0196 179.242 96.9604 179.359 96.8647 179.407C96.1481 179.765 95.3326 179.938 94.7055 180.457C94.0949 180.962 93.3763 181.264 92.6655 181.536C92.2559 181.693 92.0119 182.077 91.582 182.147C91.1019 182.226 90.766 182.557 90.4409 182.895C90.2656 182.773 90.1546 182.696 90.0445 182.619C89.8465 183.282 89.2401 183.484 88.7045 183.7C88.5132 183.777 88.3094 183.877 88.1408 183.971C86.9761 184.615 85.7687 185.149 84.4967 185.541C84.3666 185.581 84.2606 185.695 84.1363 185.761C83.5249 186.087 82.8954 186.294 82.1771 186.225C81.6246 186.173 79.9864 186.67 79.3399 186.997C78.0633 187.641 76.7983 188.311 75.5031 188.915C74.5906 189.342 73.6396 189.687 72.6994 190.052C71.6916 190.444 70.6744 190.812 69.7229 191.373C69.2826 190.92 68.8303 191.326 68.3656 191.405C67.83 191.496 67.9311 192.232 67.41 192.306C67.0592 192.511 66.8997 192.039 66.6032 192.083C66.3219 192.224 66.5336 192.497 66.4168 192.695C66.2445 192.846 66.0954 192.781 65.9429 192.58C65.9081 192.521 65.8609 192.53 65.8009 192.627C65.5967 192.958 65.228 193.086 64.9083 193.191C64.6643 193.272 64.434 193.3 64.241 193.501C63.9572 193.798 63.6623 193.729 63.3923 193.451C63.0348 193.822 62.725 194.199 62.088 194.159C61.8158 194.143 61.5946 194.7 61.1477 194.573C60.9796 194.846 60.6958 194.859 60.4535 194.788C60.0012 194.657 60.2427 195.232 59.8691 195.275C58.8539 195.392 57.8909 195.778 56.8798 195.971C56.3471 196.072 55.7316 195.98 55.2441 196.371C55.0838 196.499 54.9484 196.241 54.7972 196.177C54.6588 196.315 54.5259 196.448 54.371 196.603C54.0371 196.554 53.6499 196.755 53.3338 196.468C53.1847 196.332 53.1611 196.484 53.0903 196.53C52.3244 197.019 51.4148 197.033 50.5852 197.303C49.973 197.503 49.2987 197.329 48.7685 197.549C47.8916 197.913 46.9323 197.444 46.1164 197.962C45.3981 197.853 44.6642 198.136 43.9364 197.765C43.6075 197.597 43.1192 197.772 42.7091 197.73C41.2275 197.577 39.7538 197.339 38.4412 196.592C37.8319 196.245 37.2578 195.771 36.5972 195.596C35.8732 195.405 35.2854 194.955 34.5618 194.759C33.9778 194.601 33.489 194.088 32.9622 193.726C32.0919 193.129 31.2432 192.499 30.1729 192.27C30.0354 192.241 29.8486 192.135 29.7086 192.042C29.1503 191.669 28.4921 191.474 27.9454 191.133C27.3783 190.78 26.7239 190.527 26.2442 190.048C25.6424 189.448 24.7614 189.184 24.3559 188.323C24.1446 187.875 23.6145 187.588 23.3162 187.167C23.0408 186.778 22.8171 186.376 22.4096 186.087C22.1921 185.934 22.0836 185.629 21.9191 185.397C21.4155 184.686 20.6567 184.228 20.0996 183.571C19.815 183.236 19.4787 182.955 19.2053 182.598C18.9667 182.285 18.5484 182.069 18.2783 181.746C16.9197 180.121 15.3926 178.619 14.4913 176.653C14.3571 176.36 13.9155 176.347 13.8501 176.151C13.7577 175.874 13.5535 175.743 13.4181 175.535C12.721 174.47 12.0036 173.416 11.3616 172.318C11.2203 172.077 10.9528 171.779 11.101 171.412C11.2067 171.152 10.9577 170.979 10.8562 170.843C10.3824 170.208 10.2855 169.484 10.1894 168.739C10.1446 168.396 10.0009 168.066 9.90192 167.731L9.93755 166.706C10.1989 166.067 9.75985 165.536 9.47985 165.129C9.07477 164.539 8.78565 163.897 8.42571 163.292C8.03305 162.632 7.66317 161.948 7.32228 161.265C6.90476 160.428 6.5121 159.566 6.1563 158.701C5.52092 157.157 4.91908 155.592 4.48831 153.969C4.25636 153.094 3.94281 152.24 3.64334 151.384C3.29624 150.392 2.86092 149.428 2.7408 148.369C2.26861 148.057 2.66376 147.533 2.43553 147.138C2.2479 146.813 2.17459 146.419 2.06648 146.051C1.79808 145.133 1.68914 144.178 1.44725 143.256C1.40044 143.077 1.51228 143.082 1.55453 143.014C1.66512 142.838 1.65973 142.626 1.58269 142.487C1.44766 142.245 1.01027 142.11 1.38719 141.737C1.22772 141.45 1.23145 141.114 1.13908 140.821C0.772516 139.654 1.14613 138.358 0.485475 137.253C0.468907 137.226 0.479676 137.179 0.483818 137.141C0.645356 135.692 0.128019 134.28 0.239853 132.829C0.25725 132.604 0.521924 132.414 0.408019 132.285C0.194291 132.044 0.265534 131.795 0.26512 131.549C0.264705 131.312 0.210445 131.137 0.0402083 130.957C-0.138312 130.769 0.347131 130.633 0.151214 130.428C-0.0397325 130.229 0.0381373 130.007 0.0360663 129.797C0.0261255 128.78 0.0671314 127.762 0.0124568 126.748C-0.00659641 126.389 0.323936 126.076 0.0928119 125.717C0.429557 125.408 0.219972 125.01 0.249794 124.655C0.283759 124.245 0.136717 123.776 0.287486 123.426C0.488788 122.958 0.523167 122.503 0.470149 122.041C0.413404 121.544 0.818078 121.155 0.712871 120.664C0.672279 120.475 0.823463 120.327 0.871096 120.169C1.08192 119.46 1.27453 118.738 1.37518 118.007C1.54956 116.74 1.99482 115.557 2.41855 114.369C2.69855 113.585 3.0208 112.802 3.43376 112.081C4.24228 110.67 5.0566 109.262 6.06352 107.967C6.65293 107.21 7.2382 106.441 7.78329 105.643C8.35778 104.803 9.13441 104.101 9.82033 103.337C10.3853 102.708 11.0986 102.216 11.5082 101.44C11.6403 101.19 11.8959 101.008 12.2372 100.964C12.1544 100.865 12.0901 100.788 12.0015 100.683C12.3648 100.463 12.5151 100.01 13.008 99.8924C13.3887 99.8017 13.3576 99.286 13.65 99.047C14.447 98.395 14.9361 97.4026 15.936 96.9723C16.1584 96.5121 16.4488 96.1219 16.9674 95.9645C16.9769 95.3834 17.6326 95.6812 17.7713 95.2745C17.9341 95.1846 17.6959 95.2016 17.751 95.0247C18.1507 94.8781 18.4013 94.4142 18.8015 94.1586C19.2128 93.896 19.4741 93.4756 20.0126 93.3087C20.4578 93.1707 20.773 92.6111 21.1856 92.1986H21.9113C21.9349 91.9824 21.9544 91.8039 21.9734 91.6328C22.4617 91.3362 23.071 91.3317 23.4724 90.8392C23.8079 90.4283 24.4238 90.3935 24.8078 89.9665C25.0762 89.6682 25.5024 89.491 25.8864 89.3253C26.074 89.2441 26.3267 89.3112 26.5681 89.3112C27.2946 88.477 28.1819 87.9087 29.2828 87.7095C30.1485 86.9577 31.3683 86.8401 32.2195 86.0966C32.5024 85.8497 32.8159 85.9085 33.1034 85.7441C34.4392 84.9782 35.8177 84.2915 37.1415 83.4975C38.1852 82.8708 39.3027 82.363 40.4066 81.8431C41.0925 81.5197 41.6956 81.1067 42.2746 80.6167C43.4804 79.5969 44.6609 78.5498 45.8509 77.5135C47.0699 76.4519 48.264 75.3588 49.4987 74.3208C51.3655 72.7523 52.9855 70.9447 54.7305 69.2601C55.9072 68.1244 56.9394 66.8495 58.0669 65.6636C59.0987 64.5776 60.0422 63.3992 61.0309 62.2663C62.3158 60.793 63.5228 59.2493 64.7119 57.696C66.0531 55.9436 67.2808 54.107 68.482 52.2563C69.6115 50.5171 70.6093 48.6934 71.7036 46.9359C72.6745 45.3769 73.6843 43.8319 74.6975 42.2944C75.4348 41.1744 76.1128 40.0155 76.8517 38.8967C77.7957 37.4685 78.7554 36.0507 79.8071 34.6963C80.2457 34.1309 80.6048 33.5084 81.0592 32.9459C81.2783 32.6746 81.4618 32.3304 81.7406 32.1212C82.0309 31.9029 82.0554 31.5612 82.2761 31.3106C83.0714 30.4085 83.7664 29.4272 84.5803 28.5317C85.4883 27.5331 86.3084 26.45 87.242 25.4679C87.4905 25.2065 87.848 25.028 88.0696 24.794C88.3268 24.5223 88.4622 24.1549 88.8661 23.9855C89.1672 23.8595 89.0889 23.3281 89.5843 23.2838C89.7433 23.2693 89.88 22.846 90.0623 22.6227C90.5614 22.0114 91.2896 21.685 91.8214 21.1188C92.3619 20.5426 92.8863 19.9333 93.5055 19.452C94.488 18.6887 95.3678 17.8043 96.3552 17.0588C97.2959 16.3484 98.0982 15.421 99.2186 14.9902C99.5214 14.8739 99.2973 14.4253 99.6788 14.5089C101.258 13.4146 102.831 12.3091 104.421 11.231C105.088 10.7787 105.84 10.4593 106.544 10.072C107.456 9.5696 108.307 8.93338 109.31 8.58463C110.528 8.16131 111.547 7.27327 112.855 7.05333C113.229 6.49995 113.968 6.61634 114.424 6.20049C114.604 6.03729 114.759 6.20338 114.872 6.3322C115.754 5.76019 116.663 5.28054 117.672 4.9525C118.927 4.54451 120.125 3.96214 121.378 3.5438C123.304 2.90054 125.228 2.25522 127.225 1.82901C128.029 1.65711 128.817 1.47942 129.636 1.36759C130.394 1.26404 131.139 0.981965 131.916 0.891255C132.01 0.880485 132.105 0.723503 132.183 0.736343C133.078 0.887112 133.914 0.345337 134.8 0.506876C135.478 0.630308 136.068 0.199953 136.742 0.262911C137.376 0.321728 138.061 0.416166 138.653 0.246757C140.018 -0.142592 141.394 0.0276451 142.744 0.0988877C143.61 0.144864 144.5 0.166402 145.36 0.29729C146.719 0.503562 148.106 0.704036 149.385 1.20232C151.155 1.89072 152.825 2.7651 154.355 3.95593C155.536 4.87421 156.324 6.02196 157.114 7.22108C157.659 8.04617 158.014 8.97315 158.338 9.87528C158.579 10.5471 158.689 11.315 158.877 12.0295C159.149 13.0588 159.226 14.1204 159.511 15.1493C159.669 15.7255 159.683 16.372 159.725 16.971C159.905 19.5684 160.086 22.1708 160.001 24.7815C159.986 25.2616 159.657 25.6497 159.747 26.1588C159.824 26.5966 159.878 27.1007 159.735 27.5012C159.528 28.0794 159.659 28.675 159.508 29.2164C159.347 29.795 159.394 30.3712 159.295 30.9353C159.087 32.1245 158.641 33.2698 158.633 34.4975C157.779 36.3788 157.517 38.4489 156.688 40.3568C156.079 41.7563 155.467 43.165 154.91 44.5882C154.476 45.6975 153.865 46.7127 153.423 47.8132C153.251 48.2423 152.817 48.5613 152.61 48.9494C152.412 49.3205 152.402 49.8134 152.19 50.2404C152.006 50.6103 151.801 50.8771 151.463 50.9665C151.712 51.7171 150.904 52.0207 150.833 52.6461C150.766 53.233 150.334 53.7823 150.045 54.3394C149.756 54.8981 149.42 55.4341 149.151 56.0024C148.867 56.603 148.566 57.1916 148.256 57.7789C147.966 58.3294 147.788 58.9387 147.563 59.5231C147.334 60.1171 146.9 60.5913 146.608 61.1571C146.318 61.7208 146.197 62.3438 145.859 62.886C145.534 63.4087 145.309 63.9944 145.045 64.542C145.298 64.7416 145.301 64.4471 145.435 64.4562C145.721 64.7673 145.403 64.9346 145.225 65.0626C144.953 65.2581 145.177 65.5597 145 65.7705C144.845 65.9565 144.667 66.1826 144.647 66.405C144.621 66.6739 144.498 66.8731 144.414 67.1055C144.335 67.3229 144.494 67.6659 144.043 67.6129C143.842 67.839 143.995 68.114 143.945 68.3642C143.674 68.469 143.466 68.6475 143.389 69.0356C143.295 68.7888 143.245 68.6591 143.195 68.527C142.716 68.7569 142.665 69.2556 142.879 69.5331C143.228 69.985 142.899 70.2695 142.798 70.54C142.876 70.8697 143.408 70.6614 143.257 71.1327C142.706 71.2566 142.11 71.3829 142.14 72.1695C141.527 72.6143 141.704 73.4088 141.335 73.9878C140.988 74.5304 140.997 75.2594 140.601 75.8269C140.395 76.121 140.658 76.5265 140.445 76.8914C140.203 77.3068 140.242 77.8258 139.995 78.2889C139.835 78.5892 139.868 79.0552 139.703 79.4441C139.583 79.7286 139.649 80.0923 139.631 80.4295C139.504 80.4572 139.401 80.48 139.268 80.5086C139.554 81.0512 139.218 81.5412 139.093 82.0366C138.958 82.5705 138.742 83.1052 138.453 83.5716C138.243 83.9075 138.219 84.2468 138.391 84.4837C138.566 84.726 138.168 84.9849 138.497 85.1398C138.062 85.4115 138.552 86.056 138.021 86.3024C137.776 86.4159 137.883 86.7933 137.625 86.9221C137.902 87.0389 137.772 87.415 138.024 87.5471C137.717 88.3192 137.717 88.3192 137.355 88.5114C137.618 88.9546 137.769 89.3692 137.252 89.819C136.959 90.0737 137.336 90.6673 136.976 91.0177C137.084 91.1192 137.264 91.2882 137.159 91.376C136.807 91.668 137.095 92.1265 136.871 92.3891C136.6 92.706 136.763 93.032 136.725 93.3492C136.683 93.6972 136.914 94.0182 136.742 94.4137C136.592 94.755 136.831 95.2107 136.498 95.5578C136.33 95.7338 136.819 95.8253 136.602 96.0925C136.452 96.2768 136.906 96.5104 136.58 96.8078C136.337 97.0303 136.516 97.4469 136.496 97.7758C136.478 98.0749 136.492 98.3756 136.492 98.6771C136.737 98.6402 136.737 98.6403 136.82 98.5649C136.931 98.6212 136.932 98.7214 136.948 98.8304C136.997 99.1725 136.63 99.3817 136.698 99.7573C136.746 100.02 136.811 100.33 136.598 100.611C136.434 100.826 136.812 100.993 136.733 101.265C136.673 101.473 136.447 101.574 136.483 101.846C136.655 103.142 136.092 104.396 136.278 105.675C136.049 105.859 136.042 105.575 135.916 105.569C135.896 105.589 135.845 105.617 135.846 105.642C135.925 106.898 135.465 108.119 135.594 109.376C135.627 109.694 135.287 109.98 135.578 110.328C135.771 110.56 135.233 110.846 135.549 111.132C135.193 111.431 135.403 111.832 135.369 112.185C135.337 112.521 135.363 112.862 135.363 113.201C135.363 113.577 135.283 113.977 135.384 114.324C135.495 114.703 134.777 115.034 135.362 115.386C134.966 115.661 135.17 116.071 135.144 116.422C135.112 116.834 135.136 117.25 135.136 117.664C135.136 118.04 135.173 118.421 135.128 118.792C135.056 119.401 134.807 119.991 134.913 120.619C135.015 121.222 134.498 121.686 134.699 122.273H134.358C134.434 120.099 134.857 117.942 134.632 115.633Z" fill="black"/>
</svg>
