<svg width="178" height="196" viewBox="0 0 178 196" fill="none" xmlns="http://www.w3.org/2000/svg">
<path fill-rule="evenodd" clip-rule="evenodd" d="M169.905 98.0093C169.915 97.2712 169.834 96.7344 169.727 96.1616C169.552 95.2217 169.24 94.3279 169.031 93.4059C168.714 92.0017 168.092 90.7128 167.595 89.3811C167.432 88.9466 167.277 88.4661 167.011 88.0457C166.755 87.6394 166.509 87.2119 166.354 86.7447C166.337 86.6933 166.27 86.5244 166.069 86.6685C166.119 86.8719 166.108 87.0715 166.238 87.3341C166.731 88.327 167.043 89.401 167.447 90.4332C167.881 91.5378 168.228 92.6682 168.536 93.8052C168.7 94.4112 168.893 95.0267 169.067 95.6215C169.282 96.3583 169.357 97.1793 169.905 98.0093ZM112.047 57.7991C112.357 57.7854 112.465 58.0948 112.831 57.9681C113.193 57.8417 113.417 57.5928 113.718 57.4246C114.137 57.189 114.3 56.7797 114.32 56.3581C114.336 55.9994 114.63 56.1253 114.785 55.9584C114.813 55.2323 114.776 54.5103 113.999 53.8998C113.383 55.2468 112.263 56.2185 112.047 57.7991ZM137.834 154.275C136.109 155.116 132.339 158.073 131.825 159.627C132.283 159.34 132.799 159.284 132.958 158.683C133.016 158.464 133.347 158.331 133.485 158.115C133.683 157.804 134.053 158.097 134.275 157.814C134.506 157.521 134.952 157.358 135.095 157.043C135.292 156.611 135.747 156.624 135.992 156.314C136.223 156.022 136.472 155.664 136.792 155.543C137.167 155.401 137.208 154.871 137.627 154.902C138.07 154.934 137.956 154.271 138.394 154.346C138.777 153.9 139.382 153.726 139.74 153.241C139.867 153.069 139.931 152.939 139.748 152.753C139.246 152.827 138.901 153.213 138.538 153.455C138.273 153.417 138.178 153.07 137.901 153.263C137.883 153.282 137.838 153.309 137.837 153.337C137.832 153.636 137.834 153.936 137.834 154.275ZM147.31 158.736C146.227 159.128 145.627 160.093 144.718 160.668C143.777 161.264 142.919 161.966 142.062 162.668C141.179 163.392 140.334 164.162 139.479 164.907C139.658 164.998 139.894 165.045 140.058 164.876C140.664 164.25 141.709 164.282 142.172 163.451C142.8 163.442 143.083 162.915 143.506 162.587C143.805 162.355 144.173 162.201 144.462 162.223C144.732 161.766 144.99 161.493 145.422 161.295C145.778 161.131 145.978 160.683 146.414 160.585C146.123 159.97 146.17 159.913 147.073 159.667C147.048 159.526 146.828 159.5 146.896 159.21C146.994 159.098 147.152 158.917 147.31 158.736ZM118.404 125.817C119.744 124.092 120.795 122.226 121.791 120.334C122.991 118.055 124.127 115.741 125.309 113.452C125.441 113.195 125.451 113.005 125.272 112.747C122.801 116.889 120.654 121.166 118.412 125.391C118.353 125.503 118.404 125.674 118.404 125.817ZM36.0865 66.8788C35.7033 67.2623 35.3198 67.5912 35.0046 67.9764C34.6948 68.3542 34.2739 68.5965 33.9451 68.9643C33.5052 69.4568 33.1891 70.0396 32.7062 70.4956C31.7481 71.3998 30.9607 72.451 30.1415 73.4799C28.8578 75.0924 27.8729 76.8875 26.8179 78.6413C26.5748 79.0451 26.3962 79.4883 26.1879 79.9137C29.5989 75.7116 32.514 71.1558 36.1615 67.1658C36.1863 67.1385 36.1296 67.0362 36.0865 66.8788ZM87.2126 183.602C87.2946 183.939 87.3426 184.14 87.3911 184.34C86.7893 184.37 87.16 185.137 86.5842 185.296C85.9729 185.336 85.2435 185.226 84.5373 185.509C84.2117 185.64 84.2415 185.752 84.3939 185.974C84.9345 185.963 85.4903 186.078 85.9207 185.738C86.1833 185.839 86.0073 186.13 86.2454 186.201C86.9454 186.201 87.7154 186.371 88.357 186.156C89.0661 185.919 89.7359 186.026 90.4197 185.985C91.1305 185.943 91.8463 185.976 92.5599 185.976C92.7476 185.976 92.9356 185.984 93.1224 185.971C93.1862 185.967 93.2471 185.912 93.3092 185.88C93.3129 185.702 93.3788 185.518 93.2657 185.35C92.6005 185.609 92.6183 185.578 92.1664 185.177C91.9283 184.966 92.1822 184.83 92.1395 184.691C92.0148 184.28 91.5546 184.487 91.3351 184.285C91.1293 184.146 91.4917 183.845 91.1214 183.739C90.9644 184.094 91.2639 184.612 90.7084 184.81C90.1099 184.527 90.1099 184.527 89.7119 185.147C89.6928 185.43 90.1402 185.166 90.1323 185.506C89.8531 185.466 89.5317 185.731 89.4518 185.193C89.4277 185.033 88.9936 184.934 88.8528 184.861C88.5919 184.842 88.589 185.117 88.41 185.004C88.1164 184.818 88.0915 184.491 87.9412 184.256C88.0712 184.063 88.2982 183.983 88.3334 183.783C87.9652 183.553 87.8678 184.066 87.5704 183.936C87.4996 183.87 87.4189 183.794 87.2126 183.602ZM94.3816 155.001C94.416 154.199 94.9536 153.578 95.1362 152.831C95.3603 151.912 95.6615 151.015 95.9054 150.102C96.1133 149.322 96.359 148.558 96.5077 147.757C96.6601 146.936 96.9919 146.154 97.1915 145.335C97.3982 144.486 97.5705 143.621 97.8605 142.796C98.0232 142.334 98.2055 141.887 98.3057 141.402C98.4184 140.855 98.5335 140.292 98.7671 139.792C99.0045 139.284 98.7912 138.613 99.3702 138.228C99.5102 138.135 99.4456 137.884 99.3918 137.71C99.3644 137.624 99.2402 137.491 99.253 137.479C99.7293 137.031 99.5533 136.37 99.8387 135.796C99.6225 135.838 99.4994 135.796 99.4129 136.063C99.0152 137.286 98.5402 138.484 98.1537 139.711C98.0178 140.141 97.7561 140.561 97.8451 141.05C97.3087 141.942 97.2068 142.986 96.9927 143.957C96.7723 144.955 96.4795 145.944 96.2206 146.922C95.6482 149.085 95.186 151.281 94.4561 153.401C94.5858 153.944 93.9914 154.412 94.3816 155.001ZM21.5335 142.687C21.3977 142.419 21.3194 142.12 21.1284 141.944C21.0232 141.848 20.8555 141.879 20.7896 141.639C20.5225 140.664 20.2499 139.685 19.8796 138.748C19.6903 138.268 19.6307 137.73 19.2571 137.312C18.2564 136.194 17.2834 135.051 16.3034 133.914C16.2115 133.807 16.0545 133.752 16.0553 133.565C16.0561 133.304 15.8072 133.209 15.6577 133.059C15.5268 132.928 15.4361 132.705 15.0923 132.688C15.7724 134.271 16.595 135.683 17.4387 137.079C18.2402 138.405 19.0603 139.72 19.9078 141.017C20.2934 141.606 20.6082 142.229 20.9437 142.844C20.9872 142.923 21.0874 142.971 21.1309 143.008C21.2709 142.896 21.3877 142.803 21.5335 142.687ZM83.894 79.5061C84.3707 79.4287 84.2494 78.9689 84.5199 78.7415C84.7874 78.5166 85.0074 78.2254 85.2199 77.9206C86.0222 76.7691 86.9259 75.6868 87.8012 74.5862C88.4328 73.7931 89.093 73.0069 89.668 72.1889C90.2441 71.3691 90.9309 70.6335 91.4598 69.7857C91.9626 68.9809 92.7923 68.4002 93.0437 67.4251C92.5102 67.0474 92.1014 67.0457 91.6772 67.5614C91.0638 68.307 90.5063 69.0993 89.9405 69.883C89.5462 70.4297 89.219 71.0283 88.7907 71.5448C87.9457 72.5625 87.2759 73.7007 86.5718 74.8058C85.7206 76.1424 84.874 77.4832 84.0062 78.809C83.843 79.0592 83.8037 79.2535 83.894 79.5061ZM130.253 163.145C130.683 162.705 131.259 162.523 131.784 162.243C132.404 161.911 132.97 161.482 133.582 161.133C133.814 161.001 133.741 160.551 134.143 160.635C134.744 159.548 135.717 158.853 136.708 158.147C136.844 158.239 136.955 158.315 137.059 158.386C137.168 158.282 137.277 158.179 137.382 158.079C137.306 157.996 137.236 157.917 137.167 157.841C137.317 157.576 137.685 157.914 137.817 157.586C137.68 157.533 137.551 157.484 137.421 157.435C137.458 156.747 137.457 156.744 138.089 156.608C138.213 156.581 138.289 156.533 138.286 156.398C138.316 156.213 138.144 156.155 138.064 156.042C138.186 155.784 138.696 155.697 138.465 155.303C137.745 155.534 137.353 156.138 136.819 156.556C136.198 157.041 135.541 157.479 134.946 158.008C134.372 158.52 133.788 159.027 133.195 159.509C132.525 160.052 131.777 160.501 131.168 161.125C130.957 161.34 130.777 161.648 130.521 161.739C130.18 161.861 129.983 162.102 129.748 162.323C129.497 162.558 129.259 162.808 129.029 163.038C129.476 163.434 129.879 162.586 130.253 163.145ZM120.893 191.299C121.113 191.45 121.315 191.424 121.525 191.328C122.413 190.924 123.351 190.635 124.263 190.306C125.905 189.712 127.495 189.013 129.075 188.285C131.773 187.042 134.415 185.685 136.968 184.164C138.059 183.514 139.142 182.848 140.193 182.135C141.317 181.373 142.382 180.522 143.503 179.754C144.578 179.018 145.537 178.137 146.573 177.353C147.443 176.694 148.158 175.848 149.096 175.269C149.283 175.153 149.424 174.96 149.578 174.794C149.73 174.632 149.933 174.498 150.013 174.305C149.757 174.16 149.65 174.262 149.545 174.378C149.074 174.896 148.494 175.316 147.94 175.705C146.61 176.641 145.404 177.725 144.106 178.695C143.413 179.214 142.754 179.812 142.034 180.256C140.411 181.255 138.862 182.366 137.232 183.358C135.042 184.692 132.763 185.851 130.54 187.118C130.012 187.418 129.413 187.513 128.904 187.806C127.782 188.452 126.627 189.036 125.407 189.454C124.483 189.771 123.644 190.274 122.687 190.54C122.096 190.704 121.446 190.92 120.893 191.299ZM9.8485 73.9177C9.98063 73.7794 10.0804 73.6754 10.1811 73.5702C9.93713 73.3855 9.91974 73.0856 9.77228 72.8636C9.91352 72.4316 10.5253 72.9444 10.6206 72.4398C10.5336 72.2489 10.2349 72.4324 10.1869 72.1785C10.1186 71.79 10.4143 71.5286 10.527 71.2088C10.7084 71.1608 10.9117 71.2946 11.0679 71.1165C10.8873 70.8825 10.7303 70.6397 10.9312 70.3469C11.3309 69.7658 11.4423 69.002 12.0496 68.5546C12.2699 68.3919 12.1788 68.0497 12.4443 67.9259C12.2898 67.3916 12.6775 67.0407 12.9028 66.6497C13.6389 65.3715 14.3579 64.0804 15.1664 62.8486C16.24 61.2133 17.3174 59.5706 18.5343 58.043C19.3735 56.9893 20.1232 55.8457 21.1413 54.9365C21.3012 54.7941 21.3194 54.6396 21.1736 54.5269C17.0651 58.0803 14.2651 62.5719 11.8872 67.3738C11.7468 67.2259 11.6349 67.0602 11.4042 67.1604C11.2253 67.5316 11.0861 67.9375 10.8521 68.2771C10.5626 68.6971 10.5622 69.0629 10.8865 69.3814C10.6595 69.8105 10.4669 70.1746 10.2888 70.5117C10.1053 70.53 9.86962 70.4935 9.8282 70.5668C9.53536 71.0875 9.05033 71.5543 9.315 72.2506C8.80968 72.2162 8.87471 72.6975 8.63157 72.871C8.81672 73.2521 8.12086 73.5027 8.50773 73.9596C8.78358 74.2855 8.62536 74.6115 8.20702 74.7619C8.15276 74.7072 8.09932 74.6542 8.02394 74.5784C8.06329 74.9197 7.55755 75.0547 7.72406 75.4093C7.90962 75.6027 7.97796 75.0974 8.17885 75.4308C7.93944 76.0098 7.75098 76.6589 7.41216 77.2168C7.18642 77.5892 7.2353 77.8601 7.32974 78.2759C7.59234 77.8216 7.64909 77.3374 8.13909 77.1787C7.98252 77.0213 7.80151 76.8975 8.02311 76.627C8.22441 76.3806 8.46506 76.4079 8.72145 76.3872C8.81382 76.3801 8.82873 76.2882 8.77654 76.2352C8.64607 76.1888 8.51518 76.1424 8.32258 76.0741C8.75418 75.2585 9.04992 74.4065 9.61116 73.6804C9.69317 73.7624 9.74619 73.8154 9.8485 73.9177ZM19.8697 69.1896C20.7242 68.7183 21.1028 67.9304 21.6773 67.3431C22.1702 66.839 22.5943 66.2293 23.0333 65.6581C23.508 65.041 24.0929 64.5315 24.5572 63.9239C25.2427 63.0255 25.9195 62.1258 26.7239 61.3293C26.9372 61.1185 27.2317 60.9383 27.339 60.6815C27.6273 59.9906 28.2643 59.6357 28.7261 59.1175C29.1892 58.5981 29.5011 57.9573 30.0652 57.517C30.2144 57.4006 30.397 57.4184 30.5482 57.1873C31.1724 56.2371 32.1781 55.5976 32.772 54.6044C33.2302 54.5406 33.262 54.0535 33.5507 53.8145C33.8436 53.5722 34.0958 53.2806 34.3907 52.9857C33.8469 52.75 33.7392 53.2275 33.4865 53.3771C32.3757 54.0328 31.3277 54.797 30.373 55.6635C28.5049 57.358 26.8386 59.2488 25.2804 61.2262C24.8935 61.717 24.4346 62.142 24.0759 62.6411C22.8519 64.3439 21.6594 66.0703 20.4885 67.8099C20.2304 68.1939 19.9761 68.618 19.8697 69.1896ZM60.4109 28.5772C59.9768 28.2512 59.7059 28.4364 59.4305 28.6401V29.4118C58.7483 29.4462 58.9019 30.3007 58.2736 30.5741C57.7579 30.799 57.3843 31.3494 56.9527 31.7508C57.0612 32.0026 57.4178 31.8104 57.4986 32.131C57.8772 31.7959 58.1423 31.2923 58.7495 31.4112V30.8768C59.1944 30.7604 59.457 30.4005 59.7618 30.0965C60.0505 29.8082 60.6014 29.7829 60.6287 29.2333C61.1688 29.2846 61.144 28.6588 61.5375 28.4778C61.8904 28.3162 62.1464 27.9385 62.4371 27.6481C62.7453 27.3408 62.9777 26.9428 63.2697 26.6586C63.5642 26.372 63.768 25.9984 64.1043 25.7639C64.4568 25.5187 64.9141 25.3675 65.0731 24.9397C65.2442 24.4807 65.5892 24.2732 66.0076 24.0885C65.8336 23.3653 66.4155 23.3284 66.9279 23.229C66.8107 23.1122 66.7573 23.0588 66.7018 23.0033C66.7158 22.7316 67.0153 22.9449 67.0986 22.7672C67.326 22.2822 67.5326 21.7354 67.9866 21.4558C68.4969 21.1423 68.75 20.6324 69.1455 20.2385C70.7013 18.6898 72.286 17.1738 73.9229 15.7117C74.0344 15.6123 74.1242 15.4371 74.2485 15.411C74.9891 15.2557 75.3627 14.6252 75.9012 14.2057C76.4823 13.7525 76.9727 13.1639 77.5762 12.7891C78.4854 12.2254 79.373 11.6571 80.0867 10.9032C80.2358 10.9575 80.2478 11.1257 80.3281 11.0855C80.761 10.6854 81.0981 10.1266 81.538 10.028C82.1307 9.89547 82.3072 9.45269 82.8378 9.11678C81.7654 9.22902 81.7654 9.22902 81.1934 9.78695C80.8376 9.51896 80.4686 10.0554 80.0527 9.77038C79.9558 10.18 80.0237 10.7338 79.3452 10.6539C79.2119 10.6381 79.112 10.7057 79.0694 10.7993C78.7538 11.4959 78.019 11.7006 77.478 12.1201C77.051 12.4511 76.5916 12.8694 76.0043 12.7133C75.7665 13.2774 75.4265 13.6237 74.97 13.8594C74.8487 13.7463 74.7675 13.6709 74.6718 13.5819C74.5413 13.8701 74.4117 14.1555 74.2791 14.4484C73.8881 14.4612 73.5547 14.6559 73.2155 14.8456V15.2933C72.8539 15.3468 72.646 15.6168 72.431 15.8579C72.2334 16.0799 71.878 16.0708 71.7695 16.4705C71.6929 16.7542 71.3218 16.9584 71.0823 17.1974C70.8284 17.2525 70.5373 17.1303 70.2407 17.3267C70.449 17.4083 70.5783 17.4588 70.8632 17.5702C70.2589 17.5905 70.2585 18.0693 69.9851 18.31C69.5332 18.7072 69.1261 19.1545 68.7003 19.5803C68.8879 20.0368 68.2128 19.7796 68.2339 20.1656C68.2587 20.6138 67.6826 20.1474 67.5993 20.5007C67.6631 20.5814 67.7223 20.656 67.6652 20.5844C67.1296 21.1212 66.6322 21.6194 66.1351 22.1181C66.0187 22.2743 65.9889 21.8365 65.81 22.0481C65.4927 22.3687 66.324 22.4909 65.9148 22.8194C65.764 22.8654 65.7599 22.5754 65.5681 22.7013C65.4575 22.8794 65.6513 23.1478 65.4177 23.3131C65.3018 23.1661 65.1829 23.0161 65.0785 23.0551C64.8312 23.1615 64.8594 23.2837 64.861 23.3918C64.8689 23.8719 64.7749 24.2927 64.2547 24.4774C64.2476 24.9401 63.7497 24.9053 63.541 25.1758C63.3123 25.4715 62.9491 25.6745 62.7635 25.9884C62.1638 27.002 61.1854 27.6481 60.4109 28.5772ZM1.14157 93.4514C0.817252 93.2481 0.855773 92.891 0.937371 92.6433C1.45388 91.0739 1.71441 89.4399 2.17873 87.8548C2.4227 87.0214 2.6269 86.1391 2.73459 85.2548C2.81992 84.5544 3.16909 83.9232 3.27429 83.2165C3.38737 82.4561 3.71128 81.7403 3.8782 80.9819C4.01903 80.3424 4.38767 79.7691 4.55293 79.1164C4.79193 78.1707 5.115 77.2446 5.44926 76.3267C5.66299 75.7398 5.79761 75.1069 6.21885 74.6152C6.32986 74.486 6.30542 74.3456 6.35264 74.216C6.55435 73.6605 6.7395 73.1017 7.01039 72.5674C7.5766 71.4499 8.03471 70.2773 8.61707 69.1693C9.04039 68.3649 9.41317 67.5398 9.81122 66.7255C10.1948 65.9419 10.5941 65.1652 11.0087 64.3977C11.9804 62.5984 13.0329 60.8455 14.208 59.1726C15.1271 57.8637 16.1477 56.6352 17.2118 55.4336C18.0745 54.4602 18.9108 53.4578 19.8891 52.6133C20.6741 51.9357 21.3649 51.1404 22.1958 50.546C22.9795 49.9856 23.7379 49.3784 24.5021 48.8018C26.2724 47.4672 28.0912 46.2093 29.9555 45.0218C31.0531 44.3226 32.1731 43.6421 33.2558 42.928C34.5258 42.0905 35.8815 41.4029 37.1535 40.5696C37.8982 40.082 38.7349 39.6761 39.5227 39.2296C40.2857 38.7972 41.1037 38.4741 41.8393 37.9941C42.5741 37.5148 43.383 37.1487 44.153 36.7514C44.8775 36.3783 45.5655 35.8125 46.4374 35.7333C46.8106 35.1187 47.5449 35.1199 48.0938 34.8134C48.6372 34.5098 49.2191 34.2327 49.7381 33.8997C50.2733 33.5563 50.8283 33.2208 51.3672 32.8957C52.4619 32.2358 53.4867 31.4758 54.5731 30.8172C55.2367 30.415 55.7291 29.843 56.3393 29.3957C57.5007 28.5441 58.5697 27.5512 59.5481 26.4768C59.9399 26.0464 60.3694 25.6438 60.8706 25.3514C61.2521 25.1281 61.2641 24.6796 61.5847 24.4124C62.1033 23.9808 62.5494 23.4622 63.0357 22.9904C63.1972 22.8335 63.3393 22.6785 63.2966 22.4379C63.5298 22.4126 63.7075 22.3932 63.8719 22.3754C64.0451 22.2051 63.7626 22.2258 63.7804 22.0858C63.9614 21.8733 64.1026 21.5971 64.4299 21.4972C64.7372 21.4032 64.6829 21.0325 64.9257 20.8445C65.4542 20.4344 65.5809 19.6043 66.3605 19.4345C66.5775 18.8087 67.106 18.404 67.4734 17.8842C67.6577 17.6236 67.9034 17.3925 68.2492 17.3163C68.5466 17.2513 68.3486 16.695 68.7877 16.7559C69.2433 15.7291 70.2651 15.2544 71.0488 14.5867C72.3055 13.5164 73.4884 12.3446 74.9361 11.4802C75.6601 11.0478 76.2872 10.3888 77.0162 9.93399C78.6556 8.91216 80.2279 7.77683 81.9903 6.9534C82.7185 6.61293 83.3713 6.10967 84.1019 5.77624C85.6519 5.06796 87.2031 4.35719 88.8052 3.76944C89.1051 3.65967 89.3834 3.49358 89.7371 3.55488C90.117 3.62033 90.2495 3.18376 90.5904 3.07068C90.9938 2.93607 91.4225 3.01062 91.833 2.79151C92.0591 2.67056 92.4613 2.64612 92.7243 2.50654C93.5784 2.05257 94.5878 2.14453 95.4307 1.67068C95.7497 1.49175 96.1527 1.56009 96.4928 1.53855C97.6484 1.46524 98.7071 0.86713 99.871 0.950799C100.508 0.996775 101.095 0.85429 101.654 0.60784C101.833 0.528728 102.017 0.43719 102.165 0.499734C102.68 0.719675 103.179 0.493521 103.676 0.465355C104.207 0.435533 104.722 0.220976 105.278 0.255355C105.841 0.289734 106.451 0.397426 106.963 0.233403C107.88 -0.0602661 108.791 0.0602664 109.702 0.0523966C110.158 0.0486688 110.654 -0.150148 111.088 0.252042C111.316 0.463284 111.508 -0.235887 111.849 0.136894C112.052 0.358077 112.281 0.293462 112.543 0.157604C112.782 0.0333434 113.06 0.435947 113.29 0.249142C113.517 0.065651 113.886 -0.0813904 113.968 0.0548818C114.175 0.397012 114.491 -0.0722779 114.64 0.222219C114.652 0.245829 114.704 0.264468 114.734 0.26074C115.735 0.14145 116.682 0.584231 117.692 0.514231C118.282 0.473225 118.913 0.615296 119.483 0.802515C120.029 0.982278 120.596 1.05228 121.142 1.13678C122.094 1.28299 122.961 1.71044 123.906 1.84547C124.162 1.88234 124.224 2.50985 124.635 2.08778C124.842 2.41376 125.185 2.22074 125.447 2.31062C125.643 2.37689 125.794 2.57323 126.013 2.75092C126.543 2.7008 127.036 2.94476 127.579 3.16098C128.619 3.57476 129.637 4.03328 130.608 4.57092C131.944 5.30985 133.333 5.99494 134.402 7.1282C134.622 7.3618 134.893 7.17044 135.107 7.35394C136.355 8.42009 137.707 9.35453 138.764 10.6506C139.207 11.1928 139.865 11.5941 140.323 12.1467C141.244 13.2563 142.307 14.2334 143.077 15.4926C143.534 16.2398 144.124 16.9385 144.611 17.6899C145.62 19.2502 146.569 20.847 147.182 22.6106C147.64 23.9294 148.127 25.2387 148.48 26.5961C148.601 27.0629 148.556 27.5504 148.71 27.9667C148.869 28.3983 148.917 28.8087 148.897 29.2395C148.881 29.5804 149.22 29.7875 149.151 30.1665C149.098 30.4622 149.034 30.8023 149.324 31.1113C149.456 31.2529 149.355 31.6145 149.356 31.8767C149.358 32.2532 149.414 32.6422 149.339 33.0025C149.276 33.2987 149.754 33.5472 149.373 33.8293C149.729 34.1188 149.549 34.5189 149.577 34.8722C149.603 35.209 149.583 35.5494 149.583 35.8883V37.0182C149.583 37.3566 149.495 37.7265 149.601 38.028C149.807 38.6096 149.651 39.2035 149.777 39.7938C149.915 40.442 149.831 41.1436 149.802 41.82C149.776 42.4103 150.13 42.9251 150.051 43.5361C149.975 44.1288 149.898 44.7816 150.071 45.33C150.265 45.9496 150.073 46.6123 150.312 47.1454C150.598 47.7808 150.323 48.4054 150.498 48.9911C150.882 50.2685 150.848 51.6238 151.198 52.8842C151.639 54.4751 151.881 56.1108 152.402 57.6872C152.741 58.7132 153.114 59.7326 153.452 60.759C153.788 61.7758 154.331 62.731 154.838 63.6832C155.473 64.8745 156.238 65.9837 157.057 67.061C157.88 68.1421 158.857 69.0852 159.693 70.1489C160.074 70.6335 160.537 71.0374 160.906 71.5377C161.304 72.0774 161.912 72.461 162.312 72.999C163.314 74.3452 164.666 75.3968 165.52 76.8619C167.057 78.3165 168.022 80.2115 169.333 81.8422C169.986 82.6545 170.412 83.6481 170.953 84.5515C171.853 86.0522 172.595 87.6319 173.352 89.2059C174.049 90.6531 174.609 92.1513 175.109 93.6743C175.469 94.769 175.775 95.882 176.155 96.9697C176.309 97.4108 176.092 97.9285 176.468 98.3075C176.427 99.365 176.997 100.333 176.92 101.396C177.267 102.011 177.169 102.687 177.129 103.335C177.099 103.83 177.485 104.2 177.39 104.714C177.303 105.188 177.233 105.745 177.402 106.167C177.708 106.936 177.576 107.697 177.588 108.458C177.618 110.227 177.619 111.998 177.585 113.767C177.575 114.347 177.769 114.95 177.458 115.517C177.185 116.015 177.566 116.611 177.224 117.116C177.1 117.3 177.45 117.418 177.382 117.669C177.249 118.156 177.531 118.678 177.204 119.181C176.95 119.571 177.335 120.119 176.958 120.549C176.731 120.808 177.494 121.178 176.922 121.472C177.017 122.102 176.797 122.692 176.693 123.298C176.607 123.798 176.839 124.312 176.536 124.816C176.278 125.246 176.68 125.851 176.242 126.273C176.406 127.02 175.976 127.696 175.994 128.439C176.007 128.999 175.855 129.572 175.715 130.123C175.499 130.977 175.307 131.838 175.137 132.701C175.074 133.019 174.982 133.316 174.887 133.619C174.834 133.787 174.65 133.867 174.652 134.09C174.664 135.5 174.143 136.805 173.722 138.11C173.469 138.895 173.286 139.723 172.886 140.476C172.778 140.681 172.787 141.058 172.615 141.258C172.111 141.845 171.988 142.591 171.751 143.275C171.621 143.653 171.475 143.994 171.249 144.312C171.207 144.372 171.099 144.418 171.098 144.472C171.083 145.48 170.425 146.231 170.042 147.087C169.672 147.914 169.147 148.675 168.799 149.51C168.098 151.194 167.056 152.696 166.291 154.344C166.042 154.882 165.68 155.368 165.447 155.749C165.322 156.125 165.663 156.154 165.611 156.447C165.557 156.704 165.297 156.81 164.948 156.897C165.102 157.721 164.476 158.261 164.109 158.878C163.239 160.337 162.304 161.762 161.317 163.143C160.667 164.052 160.041 164.975 159.275 165.813C156.848 168.467 154.322 171.024 151.729 173.509C150.74 174.457 149.75 175.414 148.712 176.309C147.831 177.069 146.946 177.84 146.021 178.539C143.859 180.173 141.694 181.807 139.409 183.277C137.663 184.401 135.857 185.415 134.051 186.434C132.894 187.088 131.713 187.686 130.506 188.24C128.576 189.126 126.631 189.969 124.661 190.766C122.808 191.515 120.831 191.853 119.023 192.699C117.794 192.702 116.723 193.467 115.486 193.431C114.962 193.79 114.319 193.729 113.744 193.839C113.154 193.952 112.57 194.225 111.923 194.127C111.628 194.082 111.361 194.405 111.001 194.347C110.701 194.299 110.371 194.283 110.103 194.505C109.828 194.15 109.656 194.689 109.355 194.584C109.053 194.479 108.647 194.463 108.354 194.58C107.637 194.867 106.852 194.598 106.196 194.83C105.485 195.082 104.784 194.836 104.136 195.036C103.34 195.281 102.598 194.844 101.828 195.002C101.761 195.015 101.662 194.872 101.576 194.801C101.412 194.868 101.493 195.049 101.391 195.215C101.138 195.074 100.895 194.865 100.62 194.804C100.297 194.732 99.9459 194.787 99.5516 194.787C99.3648 195.014 99.1532 195.272 98.9676 195.499C98.5161 195.39 98.1649 195.545 97.7855 195.35C97.6198 195.264 97.2114 195.427 96.9144 195.48C96.5259 195.55 96.1838 195.11 95.9079 195.299C95.5401 195.55 95.1909 195.455 94.8401 195.457C91.5642 195.47 88.2883 195.47 85.0128 195.457C84.6619 195.456 84.2585 195.621 83.9686 195.257C83.6099 195.811 83.2864 195.146 82.9173 195.219C82.5785 195.287 82.2256 195.147 81.8739 195.056C81.2746 194.9 80.6044 195.027 79.9649 195.008C79.537 194.994 79.1203 195.073 78.6871 194.813C78.3416 194.606 77.8587 194.758 77.4146 194.645C76.8795 194.508 76.3104 194.322 75.7272 194.332C75.332 194.338 74.9535 194.348 74.5658 194.131C74.2775 193.97 73.821 194.262 73.5423 193.883C72.7735 193.928 72.0818 193.603 71.3545 193.443C69.6045 193.06 67.8967 192.545 66.2076 191.956C64.7923 191.463 63.3683 190.994 61.9583 190.487C61.501 190.323 61.0446 190.139 60.6031 189.943C59.0117 189.237 57.3901 188.567 55.8919 187.693C54.5574 186.913 53.1843 186.193 51.88 185.352C51.1866 184.905 50.3901 184.592 49.664 184.171C47.9538 183.177 46.2738 182.138 44.6464 181.013C43.2194 180.027 41.7652 179.077 40.5416 177.824C40.2202 177.495 39.8048 177.259 39.4614 176.949C39.0708 176.595 38.7573 176.139 38.3277 175.852C37.7686 175.479 37.3486 174.96 36.8217 174.575C36.4125 174.276 36.4589 173.636 35.8164 173.503C35.3496 173.406 35.3355 172.641 34.7859 172.508C34.6003 171.81 33.8179 171.663 33.4824 171.038C33.1577 170.435 32.5099 170.005 32.0037 169.5C31.4971 168.993 30.9272 168.534 30.4968 167.968C29.7049 166.927 28.6731 166.109 27.8712 165.098C27.1058 164.135 26.1262 163.335 25.5662 162.22C25.4336 161.956 25.1996 162.065 25.0497 161.898C24.8935 161.723 24.9159 161.488 24.7477 161.336C24.0639 160.721 23.501 159.996 22.9273 159.285C22.1122 158.274 21.3227 157.237 20.5017 156.235C19.2252 154.678 18.1172 153.015 17.0162 151.342C16.2989 150.251 15.6204 149.136 14.9307 148.027C14.1297 146.74 13.3178 145.461 12.5449 144.158C11.9564 143.164 11.4345 142.131 10.8575 141.131C10.3998 140.337 9.91145 139.562 9.42228 138.788C8.74548 137.717 8.10595 136.621 7.43867 135.55C6.48808 134.026 5.65761 132.448 4.88761 130.837C4.4995 130.025 4.10311 129.212 3.81565 128.342C3.63506 127.796 3.40642 127.219 3.14631 126.705C2.61447 125.654 2.39453 124.527 2.03707 123.433C1.91116 123.048 1.89252 122.658 1.79684 122.286C1.70696 121.939 1.65311 121.594 1.58228 121.246C1.37021 120.205 1.35157 119.124 0.959738 118.12C0.934471 118.055 0.917075 117.978 0.92453 117.909C1.05956 116.722 0.589028 115.58 0.681809 114.387C0.764649 113.325 0.316069 112.283 0.470152 111.206C0.0845305 110.595 0.371572 109.899 0.229501 109.269C-0.152807 107.574 0.0675482 105.865 0.0269565 104.163C-0.0128068 102.47 0.0232287 100.775 0.0166015 99.0804C0.0116311 97.8793 0.314826 96.7183 0.502874 95.5452C0.543051 95.2917 0.717016 95.0213 0.692992 94.7301C0.651158 94.2326 0.823051 93.8184 1.14157 93.4514Z" fill="black"/>
</svg>
