<svg width="123" height="171" viewBox="0 0 123 171" fill="none" xmlns="http://www.w3.org/2000/svg">
<path fill-rule="evenodd" clip-rule="evenodd" d="M4.45617 54.0461C4.38203 53.7685 4.24038 53.619 3.97901 53.6695C3.52919 53.7561 3.27736 54.0328 3.25168 54.4975C3.23759 54.7523 3.38754 54.8016 3.59961 54.7639C4.03535 54.6864 4.23748 54.3464 4.45617 54.0461ZM2.15529 135.873C2.59972 134.624 2.88759 133.334 3.2612 132.067C2.5289 133.228 2.13251 134.49 2.15529 135.873ZM5.44901 51.4544C7.30298 49.4555 9.23771 47.5356 11.2027 45.6456C8.81481 47.1198 6.97038 49.1278 5.44901 51.4544ZM41.9874 31.6705C45.815 29.9391 48.9985 27.3454 52.0371 24.5504C48.8672 26.932 45.7015 29.3162 42.3175 31.393C42.1965 31.4675 42.0971 31.5773 41.9874 31.6705ZM85.763 127.865C84.6505 131.666 82.442 134.889 81.3303 138.579C82.7286 137.593 86.3392 129.103 85.763 127.865ZM40.8682 165.653C41.6146 165.653 42.368 165.718 43.1065 165.642C46.1327 165.331 49.1191 164.757 52.105 164.191C56.5353 163.353 60.6219 161.47 64.8144 159.925C66.7487 159.212 68.599 158.239 69.9095 156.524C74.2404 150.853 77.7271 144.748 80.2024 138.01C82.1781 132.632 84.7487 127.476 86.8603 122.144C88.368 118.338 89.3301 114.351 89.7613 110.259C90.1204 106.85 89.9187 103.431 89.9432 100.015C89.963 97.2062 89.9133 94.3992 90.0902 91.581C90.2145 89.5961 89.7692 87.5284 89.599 85.4951C89.2987 81.9148 89.3529 78.3787 90.441 74.9056C91.445 71.7014 92.8061 68.6504 94.4961 65.768C97.9169 59.9319 102.205 54.7328 106.703 49.7131C109.119 47.0175 111.489 44.2953 113.487 41.2738C117.163 35.7139 118.926 29.5734 118.774 22.9246C118.656 17.7268 116.379 13.6913 111.895 10.9493C104.1 6.18345 95.8708 4.65836 87.0367 7.56067C80.1949 9.80854 74.1033 13.3802 68.5306 17.9165C65.0551 20.7459 61.8819 23.9133 58.4158 26.751C53.6952 30.6168 48.8991 34.3674 43.3393 36.9959C39.0366 39.0304 34.5139 40.4615 29.9652 41.8068C26.082 42.9554 22.3791 44.5058 18.8807 46.5407C14.8431 48.8893 11.4334 51.8939 9.07327 55.9874C8.79286 56.4749 8.78209 56.4687 8.14339 56.482C7.94955 56.4861 7.93753 56.6472 7.87251 56.7765C7.28185 57.9549 6.89623 59.1842 6.88049 60.5167C6.86972 61.4168 7.21724 62.7041 6.90907 63.1374C5.91955 64.5274 6.66469 65.874 6.84694 67.0453C7.07351 68.4984 7.45416 70.0061 7.89943 71.462C9.01653 75.1169 10.3001 78.7064 12.1206 82.0639C13.7898 85.1439 15.4068 88.2512 15.8885 91.7396C16.0277 92.7507 17.2463 93.905 15.9457 94.9849C15.9453 94.9853 16.0368 95.0859 16.0758 95.146C16.7662 96.2101 17.115 97.4113 17.1676 98.6452C17.2185 99.824 17.6398 100.926 17.6903 102.091C17.7719 103.971 18.4694 105.799 18.0664 107.731C17.8833 108.61 17.926 109.542 17.9243 110.45C17.9206 112.472 17.2355 114.398 17.1295 116.425C17.0897 117.184 16.4266 118.149 16.0613 119.018C14.7516 122.135 12.4283 124.509 10.39 127.109C8.47227 129.555 6.31759 131.953 6.11588 135.306C6.03469 136.659 5.63209 138.087 6.33002 139.356C8.20759 142.768 9.19505 146.636 11.771 149.695C13.7757 152.075 15.1219 154.96 17.5644 157.028C19.9531 159.051 22.2337 161.229 24.9931 162.724C26.3475 163.457 27.721 164.208 29.3111 164.559C33.1317 165.402 36.9751 165.707 40.8682 165.653ZM72.4875 8.20061C72.6983 8.13683 72.9265 8.10493 73.1175 8.00345C77.887 5.46689 82.8578 3.45801 88.1298 2.22452C88.3203 2.17978 88.5817 2.18641 88.6947 1.89357C88.3381 1.94452 88.003 1.98428 87.6708 2.04186C83.2936 2.80316 79.2361 4.47363 75.2949 6.45186C74.3141 6.94434 73.2405 7.32665 72.5074 8.22381C71.3323 8.30582 70.6149 9.29742 69.598 9.70541C69.4199 9.77665 69.2277 10.1006 69.4994 10.3756C69.5897 10.4667 69.7144 10.5255 69.7703 10.4182C70.3622 9.28955 71.7978 9.20132 72.4875 8.20061ZM59.1635 25.3701C60.5278 24.5214 61.6135 23.362 62.697 22.2014C61.5302 23.2688 60.1203 24.0695 59.1854 25.3933C58.1893 25.7462 57.5526 26.5551 56.8414 27.2684C57.7452 26.797 58.521 26.1658 59.1635 25.3701ZM89.2701 133.904C88.4781 136.071 87.7197 138.224 86.1168 140.008C85.1479 141.086 84.3755 142.384 83.7364 143.691C83.5048 144.165 83.0794 144.309 82.8371 144.733C82.2717 145.723 82.0642 146.842 81.3402 147.804C79.7082 149.973 78.0974 152.151 76.3938 154.269C75.2697 155.667 74.2176 157.135 73.0495 158.5C70.8729 161.042 68.0949 162.748 65.0111 163.962C61.4478 165.365 57.9179 166.887 54.2755 168.05C47.4875 170.218 40.5592 171.091 33.389 170.236C29.0693 169.721 24.8622 168.905 21.1601 166.699C15.2395 163.17 10.3585 158.471 6.91114 152.409C6.78191 152.182 6.61582 151.976 6.46049 151.764C5.05138 149.848 3.77937 147.868 3.13239 145.534C2.8118 144.38 2.33836 143.271 1.81564 142.182C0.265286 138.951 0.563097 135.698 1.81523 132.458C3.07564 129.196 5.18061 126.427 7.53369 123.972C10.6779 120.692 12.1533 116.887 12.623 112.49C13.06 108.4 12.3421 104.439 11.6136 100.464C11.1666 98.0239 10.7669 95.5743 10.2869 93.1413C9.51233 89.2192 7.70807 85.7233 5.85535 82.2188C3.44345 77.6555 1.59984 72.8516 0.485227 67.7859C-0.447554 63.547 0.0122095 59.3847 1.4557 55.3881C2.28742 53.0855 3.36848 50.8256 5.12055 48.9605C6.82623 47.1442 8.54724 45.3656 10.5814 43.9151C15.4702 40.428 20.8598 37.9817 26.5741 36.201C33.0982 34.1681 39.452 31.7629 45.0264 27.6677C49.1568 24.6332 53.0867 21.3585 56.8613 17.8942C62.0011 13.1768 67.3845 8.78547 73.6058 5.53771C79.6366 2.38978 85.9353 -0.0606296 92.8289 0.00232898C103.205 0.0971811 112.088 3.76369 118.382 12.2979C123.036 18.6103 123.79 25.8435 122.269 33.3952C121.995 34.7588 121.717 36.1219 121.398 37.4755C120.58 40.9527 119.165 44.15 117.088 47.0825C115.877 48.7915 114.572 50.428 113.36 52.1188C111.938 54.1032 110.354 55.9216 108.716 57.6943C106.82 59.7475 105.14 61.9507 103.543 64.2317C102.987 65.0261 102.105 65.5082 101.567 66.3632C99.5332 69.596 97.4182 72.7808 95.9661 76.3367C95.182 78.2561 94.3826 80.1279 94.2281 82.2908C94.134 83.6171 94.2148 84.9388 94.0993 86.2568C93.9261 88.2309 94.2666 90.1764 94.5806 92.1058C94.7011 92.8464 93.8031 93.4457 93.9965 93.4975C95.0432 93.7754 94.3072 94.3636 94.3287 94.791C94.3411 95.0437 94.1808 95.3212 94.238 95.5532C95.2097 99.4959 94.7897 103.523 94.8726 107.505C94.9496 111.202 95.2727 114.968 94.2732 118.592C93.9083 119.913 93.6424 121.27 93.2576 122.591C92.7958 124.175 91.9437 125.661 91.8017 127.315C91.6016 129.643 90.4249 131.594 89.5774 133.675C89.531 133.79 89.3591 133.854 89.244 133.944C89.3525 132.705 90.3677 131.78 90.4033 130.506C89.5335 132.354 88.4475 134.105 87.9968 136.143C88.4214 135.397 88.8455 134.651 89.2701 133.904Z" fill="black"/>
<path fill-rule="evenodd" clip-rule="evenodd" d="M51.0573 43.4717C53.4874 42.0456 55.4578 40.0914 57.3022 37.9939C55.2283 39.8292 53.1896 41.7039 51.0573 43.4717ZM65.1045 31.2665C65.0238 31.1803 64.943 31.0942 64.8622 31.008C62.7328 32.9535 60.4261 34.7006 58.5771 36.9601L65.1045 31.2665ZM16.1522 134.355C14.9042 135.593 14.3359 139.435 15.1548 140.226C15.3884 138.281 15.3946 136.262 16.1522 134.355ZM25.5997 56.9598C22.6717 58.9442 20.0585 61.2207 18.7935 64.685C20.807 61.8838 23.0188 59.2627 25.5997 56.9598ZM69.1028 27.7371C73.9983 23.9024 79.1319 20.4985 84.876 18.0829C81.113 18.5811 70.6751 25.4788 69.1028 27.7371ZM67.381 119.198C66.2113 121.535 65.4864 124.037 64.7976 126.533C64.0931 129.086 63.1421 131.551 62.317 134.057C61.537 136.426 60.41 138.682 59.4358 140.987C63.6051 134.263 65.16 126.616 67.381 119.198ZM25.4966 81.6942C25.516 81.5505 25.4841 81.3434 25.5661 81.2767C25.7144 81.1558 25.7911 81.3401 25.8896 81.449C26.1688 81.7555 26.0383 82.2182 26.4211 82.5251C27.1273 83.0905 27.6131 83.8021 27.9648 84.7009C28.2647 85.4672 29.0831 86.0243 29.6411 86.6994C29.7657 86.8498 29.9219 87.1041 29.7612 87.3178C29.4625 87.7142 29.7019 87.8443 30.0308 87.9375C30.4371 88.0518 30.6521 88.3591 30.79 88.7133C31.2879 89.989 31.9506 91.2006 32.0989 92.6059C32.1946 93.5126 32.3408 94.5962 32.6767 95.2576C33.612 97.1008 33.646 99.0443 33.5573 100.89C33.477 102.562 33.1556 104.274 33.2326 105.949C33.2989 107.396 32.5711 108.575 32.3686 109.922C32.1234 111.554 30.9926 112.977 30.7698 114.673C30.6322 115.714 29.5329 116.505 29.5425 117.33C29.564 119.236 27.8753 120.262 27.5771 121.981C27.4822 122.528 27.2582 123.347 26.7826 123.867C25.8055 124.935 25.5198 126.413 24.5079 127.477C23.2338 128.816 22.5723 130.61 21.2137 131.939C20.3977 132.738 19.7599 133.769 19.0458 134.688C18.3988 135.52 18.4568 136.81 18.2431 137.91C17.9332 139.501 18.8466 140.741 19.2587 142.139C20.2437 145.48 22.2964 148.242 24.6996 150.471C29.3929 154.823 35.0141 156.253 41.264 153.975C41.8985 153.744 42.5322 153.511 43.1722 153.296C46.9248 152.036 50.1668 149.954 53.178 147.398C57.1187 144.053 58.9847 139.388 61.168 134.973C61.9318 133.428 62.2287 131.535 62.8053 129.82C63.2 128.646 63.625 127.474 63.8967 126.269C64.1705 125.054 64.5437 123.874 64.9074 122.69C65.2702 121.508 65.7813 120.366 66.0688 119.168C66.3248 118.103 66.8487 117.151 67.0695 116.046C67.3644 114.57 67.8461 113.1 68.2471 111.626C69.6885 106.328 70.7667 100.96 71.4161 95.5041C71.7761 92.4804 72.0383 89.4282 72.6645 86.4559C74.6875 76.8493 79.1112 68.3615 85.2041 60.7332C87.9274 57.3239 90.8165 54.0459 93.6674 50.7401C97.7498 46.0071 99.965 40.3735 101.634 34.4637C102.672 30.7893 102.492 27.1592 101.143 23.6133C100.374 21.5924 99.2285 19.9049 96.8112 19.5061C94.5605 19.1345 92.3644 19.6676 90.2362 20.0611C88.9708 20.2955 87.5924 20.8974 86.3224 21.5116C83.276 22.9858 80.186 24.3779 77.5372 26.5234C76.9064 27.0337 76.1211 27.1021 75.4906 27.612C74.6838 28.2643 74.12 29.1453 73.2399 29.7314C72.7345 30.0674 72.129 30.1001 71.663 30.5308C68.7081 33.2604 65.368 35.5563 62.7009 38.6165C61.7752 39.6793 60.6316 40.5495 59.623 41.5436C55.836 45.2743 51.4289 48.0656 46.4642 49.8894C40.378 52.1252 34.698 55.1224 29.3847 58.7843C27.353 60.1843 25.1768 61.5048 23.72 63.6334C22.8755 64.8681 21.7895 66.1269 21.6577 67.5414C21.4622 69.6335 21.2493 71.8184 21.9618 73.9027C22.1337 74.4055 21.8271 75.1063 21.934 75.2782C22.3461 75.9381 22.5947 76.6845 23.0412 77.3174C24.0054 78.6855 25.335 79.8548 25.4966 81.6942ZM24.3409 122.042C24.6615 121.921 24.7411 121.6 24.8516 121.344C25.9045 118.906 27.0428 116.498 27.7473 113.927C28.1595 112.422 28.8826 110.988 28.859 109.374C28.1313 112.228 26.863 114.889 25.9621 117.678C25.4841 119.158 24.5899 120.489 24.365 122.064C23.078 123.761 22.4464 125.8 21.4059 127.626C22.5064 125.828 23.8 124.129 24.3409 122.042ZM72.1103 115.259C72.0656 114.984 72.1087 114.74 71.8349 114.603C71.7864 115.025 71.4464 115.428 72.0056 115.799C72.3307 116.014 72.025 116.363 71.9418 116.623C71.1925 118.963 70.4639 121.312 69.7403 123.655C69.0519 125.886 68.2297 128.086 67.7136 130.371C67.4547 131.518 66.8984 132.549 66.4772 133.631C66.2834 134.128 66.1202 134.603 66.1202 135.143C66.1197 136.241 66.0435 136.27 65.0279 135.692C64.943 135.644 64.8146 135.673 64.6775 135.665C64.6775 135.787 64.6398 135.908 64.6829 135.98C65.3307 137.056 65.1936 138.345 64.4327 139.381C63.9307 140.064 63.4738 140.756 63.2568 141.654C62.9308 143.005 62.0042 144.069 60.9282 144.958C60.8304 145.038 60.608 145.001 60.5976 145.189C60.5371 146.303 59.6404 146.838 58.964 147.501C58.3183 148.135 57.5222 148.597 56.9154 149.293C55.877 150.484 54.7089 151.47 53.2857 152.263C52.6288 152.629 51.9615 153.325 51.23 153.612C48.5274 154.671 45.8773 155.857 43.1399 156.844C38.5145 158.513 33.9608 158.023 29.3702 156.909C26.6696 156.254 24.2283 155.046 21.9966 153.387C21.1433 152.752 20.4528 151.98 19.7516 151.196C17.0721 148.201 15.1937 144.773 14.2502 140.877C13.6458 138.381 14.0269 135.941 15.277 133.694C15.6058 133.103 15.8589 132.328 16.9686 132.462C17.4519 132.52 17.9316 131.621 18.3064 131.05C20.9569 127.016 23.112 122.73 24.8475 118.228C26.6745 113.488 28.2688 108.699 28.8843 103.612C29.3312 99.9187 28.8321 96.3768 27.9321 92.813C27.2113 89.9588 25.7219 87.5726 24.0212 85.2489C22.7467 83.508 21.6068 81.6694 20.3484 79.9161C19.9024 79.2948 20.4653 78.8984 20.5974 78.0994C19.9086 79.0359 19.7955 78.8478 19.5022 78.0774C19.209 77.3074 18.6713 76.5884 18.2468 75.842C17.3389 74.244 16.8199 72.5019 16.8025 70.7067C16.7958 70.0258 16.44 69.4575 16.532 68.813C16.6476 68.0003 16.7043 67.1669 16.9342 66.3853C17.3401 65.0032 17.5948 63.546 18.946 62.6074C19.3192 62.3481 19.0976 61.5437 19.5217 61.0885C21.3367 59.1397 23.0457 57.0629 25.3155 55.6178C30.7159 52.1791 36.3722 49.2503 42.2974 46.7824C46.4228 45.0639 50.3615 42.8931 53.6129 39.7004C58.3978 35.0026 63.4308 30.5806 68.6087 26.3255C73.5174 22.292 78.7769 18.8305 84.8085 16.6646C87.3409 15.7555 89.9376 15.2158 92.6212 15.0306C96.4517 14.7663 99.32 16.5097 101.546 19.4054C105.819 24.9669 106.822 31.2259 105.178 37.9566C104.073 42.4835 102.444 46.8243 100.148 50.8876C99.0699 52.7946 98.0426 54.7248 96.2645 56.1757C95.4162 56.8678 94.9618 58.0367 94.3099 58.9761C92.0802 62.1878 89.2753 64.9419 87.056 68.173C86.0677 69.6116 85.2322 71.1292 84.3007 72.5938C82.2678 75.7902 80.8798 79.3179 79.3514 82.7579C78.0102 85.7762 77.5252 89.0745 77.0418 92.3433C76.5216 95.8653 75.9707 99.3839 75.3709 102.893C75.0247 104.92 74.7832 107.013 74.0621 108.912C73.5613 110.232 73.5427 111.637 72.9433 112.916C72.5991 113.65 72.969 114.655 72.1103 115.259Z" fill="black"/>
<path fill-rule="evenodd" clip-rule="evenodd" d="M59.6333 100.813C59.746 100.872 59.859 100.932 59.9717 100.991C60.3337 100.03 61.3626 99.3474 60.8892 98.0356C60.4704 98.9613 60.0521 99.8871 59.6333 100.813ZM38.0625 64.6895C35.7136 65.1306 33.3046 67.3425 33.5494 68.8411C34.6868 66.9838 36.3353 65.7938 38.0625 64.6895ZM57.9661 50.4928C57.8974 50.4012 57.8282 50.3101 57.7595 50.2194C54.6297 52.932 51.4996 55.645 48.3703 58.358C48.4366 58.4355 48.5033 58.5129 48.57 58.5908L57.9661 50.4928ZM67.0015 41.8612C69.9436 39.6887 72.9673 37.6422 76.2171 35.9398C79.5021 34.2188 82.8252 32.5823 86.1952 31.056C79.3484 33.8522 72.5829 36.7993 67.0015 41.8612ZM45.8615 129.711C46.6531 128.421 47.6136 127.283 48.2593 125.872C49.7211 122.681 51.4176 119.595 52.8085 116.363C54.8816 111.549 57.0632 106.785 59.6209 102.203C59.7808 101.916 59.9295 101.627 59.5049 101.211C54.4177 110.533 50.8009 120.442 45.8615 129.711ZM67.2985 46.8345C65.9722 47.4281 65.3166 48.7109 64.3647 49.6896C63.1147 50.4161 62.4234 51.7246 61.3108 52.6023C59.3926 54.1154 57.4235 55.58 55.6292 57.2318C51.9159 60.6511 47.8157 63.4436 43.269 65.6413C41.5812 66.4577 39.6121 66.6321 38.1698 68.0437C37.2876 68.9069 36.2152 69.6048 36.1357 70.9568C36.0176 72.9599 36.3308 74.8954 37.2958 76.696C39.0802 80.0245 41.4838 82.9342 43.5847 86.0486C45.7679 89.2852 47.7188 92.5785 48.2158 96.6091C48.6905 100.464 48.4047 104.286 48.1782 108.114C48.1322 108.889 47.6074 109.629 47.5788 110.527C47.5394 111.781 47.5266 113.175 46.7301 114.203C45.2932 116.058 44.8169 118.32 43.8763 120.378C43.5681 121.054 43.757 122.049 43.1642 122.565C42.3731 123.255 42.1602 124.163 41.7816 125.03C41.6342 125.368 41.4292 125.708 41.1695 125.966C40.3125 126.818 39.7728 127.943 39.1759 128.915C38.0041 130.824 36.6998 132.514 35.0538 134.012C34.5795 134.444 33.8302 134.391 33.5452 135.065C33.2603 135.737 32.7363 136.234 32.1871 136.698C31.6263 137.171 31.3396 137.791 31.1168 138.515C31.5281 138.633 31.7936 138.465 32.0645 138.366C33.7685 137.742 35.2257 136.641 36.8713 135.892C39.7579 134.579 42.1929 132.674 44.121 130.128C45.5637 128.223 46.5429 126.067 47.5755 123.94C49.6216 119.726 51.7009 115.524 53.6199 111.252C54.6948 108.858 55.8127 106.489 57.0023 104.155C58.9789 100.278 60.74 96.3018 62.4565 92.3101C63.8312 89.1133 64.969 85.8175 65.7138 82.4003C66.3632 79.4169 67.4957 76.5891 68.6028 73.7564C70.7107 68.3626 72.855 62.9905 76.3302 58.2735C79.4524 54.0354 82.6148 49.8259 85.4364 45.3732C87.5422 42.0497 89.37 38.6097 90.2672 34.7457C90.3633 34.3311 90.6706 33.7872 90.3182 33.4824C90.0195 33.2239 89.5324 33.5635 89.1551 33.7126C85.1986 35.2783 81.39 37.1426 77.7049 39.2754C77.0393 39.6606 76.4478 40.5316 75.4293 40.1058C75.2855 40.0458 74.9852 40.2475 75.0726 40.4202C75.3812 41.0308 74.7823 41.0233 74.5528 41.1749C73.1035 42.1329 71.6729 43.1142 70.2592 44.1253C69.1533 44.916 68.385 46.043 67.2985 46.8345ZM38.0948 124.952C38.4142 124.93 38.5057 124.671 38.6229 124.441C40.1058 121.531 41.2055 118.452 42.5521 115.483C43.1978 114.057 42.977 112.348 44.0618 111.08C44.2474 110.863 44.189 110.649 43.9301 110.538C43.5905 110.392 43.4078 110.619 43.3697 110.897C43.2222 111.979 42.7053 112.928 42.3462 113.936C41.4209 116.532 40.6281 119.165 39.39 121.654C38.8756 122.689 38.3052 123.779 38.1209 124.977C37.206 126.189 36.5528 127.539 36.0421 128.963C36.6828 127.604 37.9118 126.547 38.0948 124.952ZM78.2827 61.8613C78.6845 62.5415 78.5482 62.9685 78.2781 63.6271C77.62 65.2329 76.2759 66.4946 76.022 68.286C75.9317 68.9255 75.4351 69.4085 75.1311 69.9466C74.3569 71.3159 74.2082 72.9093 73.5119 74.2435C72.8513 75.5093 72.568 76.8956 71.8945 78.1332C71.5366 78.7902 71.6625 79.6082 71.1966 80.2453C70.8822 80.6744 70.1051 83.3456 70.0148 83.8596C69.7883 85.1544 69.5248 86.4429 69.2635 87.7315C69.2187 87.9527 69.1193 88.1801 68.8182 88.1325C68.5076 88.0836 68.3572 88.2248 68.4765 88.5007C68.923 89.5345 68.3899 90.4607 67.9927 91.2725C66.8375 93.6318 65.8343 96.057 64.8199 98.4722C64.619 98.951 63.6858 98.8209 64.0184 99.7748C64.1862 100.257 63.644 101.091 63.2687 101.714C62.9034 102.322 62.6578 103.001 62.3268 103.631C59.8893 108.278 57.6493 113.017 55.5269 117.817C54.3497 120.48 52.9448 123.041 51.7047 125.676C51.3915 126.343 51.1865 127.09 50.9761 127.803C50.7826 128.457 50.4989 129.396 49.6995 129.807C49.5512 129.883 49.4589 129.951 49.4104 130.103C48.4329 133.181 45.8068 134.791 43.465 136.594C41.7883 137.885 39.7434 138.648 37.8409 139.54C36.6638 140.092 35.581 140.97 34.2096 141.163C32.8349 141.358 31.4693 141.606 30.0755 141.634C28.7235 141.662 27.4735 141.345 26.3539 140.568C25.7674 140.162 25.6783 139.645 25.9343 138.991C26.5684 137.371 27.5248 136.015 28.9977 135.052C29.5619 134.683 30.165 134.363 30.5406 133.76C30.8086 133.33 31.2626 133.871 31.7605 133.382C33.5221 131.649 34.6193 129.542 35.7492 127.424C38.0895 123.038 39.8316 118.399 41.5091 113.735C42.2348 111.717 42.6125 109.613 42.9426 107.497C43.1514 106.161 43.2918 104.825 43.3813 103.478C43.4223 102.853 43.6737 102.34 44.4404 102.72C44.8977 102.947 45.0385 102.615 45.2531 102.379C45.4055 102.212 45.3744 102.021 45.2278 101.88C44.9602 101.624 44.7279 101.891 44.5187 101.992C43.6605 102.41 43.38 102.161 43.4235 101.222C43.5445 98.6362 43.6099 96.0491 42.9381 93.5067C42.6038 92.2397 42.1345 91.024 41.5228 89.8758C39.7347 86.5179 37.4251 83.4913 35.3826 80.2941C33.8886 77.9539 32.3519 75.6141 32.038 72.7577C31.9647 72.0929 31.437 71.2828 32.3565 70.7431C32.4074 70.7137 32.4522 70.6192 32.448 70.5587C32.2699 67.946 32.3507 67.8805 34.1264 66.0493C35.2787 64.861 36.6841 64.0342 38.116 63.3761C43.3846 60.9534 47.8244 57.4286 52.1706 53.6564C57.4612 49.0642 62.2813 43.9405 67.7777 39.6084C73.7994 34.8633 80.6871 31.6118 87.9982 29.3656C91.8573 28.1802 94.7166 31.0601 93.8753 35.065C93.0353 39.0637 91.5189 42.8064 89.5047 46.3673C87.1922 50.4547 84.5425 54.327 81.9786 58.2503C81.2753 59.3269 80.6789 60.4945 79.821 61.4877C79.3762 62.0026 79.0461 62.4549 78.2827 61.8613Z" fill="black"/>
<path fill-rule="evenodd" clip-rule="evenodd" d="M67.298 46.8346C66.6333 48.1074 65.587 48.9897 64.3643 49.6897C65.3161 48.7109 65.9718 47.4281 67.298 46.8346Z" fill="black"/>
</svg>
