<svg width="36" height="18" viewBox="0 0 36 18" fill="none" xmlns="http://www.w3.org/2000/svg">
<path fill-rule="evenodd" clip-rule="evenodd" d="M23.4632 3.10511C23.8116 4.04162 23.3825 4.22304 22.5031 4.48109C20.611 5.03653 18.7666 5.78955 16.9594 6.5902C14.4983 7.67997 12.0976 8.906 9.65584 10.0413C8.11625 10.7571 6.93454 12.0138 5.46951 12.8003C4.16726 13.4995 3.32187 14.5922 2.37045 15.6169C2.21969 15.7793 2.1501 16.0183 1.99602 16.1761C1.74087 16.4374 2.11903 17.2679 1.16223 16.9419C0.335898 16.6607 -0.143747 16.3297 0.0385016 15.4152C0.305661 14.0765 1.24963 13.1934 2.18241 12.3165C4.80761 9.84789 7.91454 8.07967 11.0351 6.35121C14.3243 4.52914 17.7858 3.06742 21.3674 1.93541C22.8419 1.46943 24.3223 0.911919 25.9331 0.896179C25.1884 1.55932 24.1914 1.62932 23.3154 1.96399C22.3395 2.33719 21.3289 2.62174 20.329 2.92908C20.0262 3.02227 19.7495 3.10926 19.7263 3.48701C19.5772 3.44724 19.4173 3.34991 19.2918 3.38304C17.0485 3.97204 14.9535 4.91932 12.9429 6.06168C12.7706 6.15985 12.8974 6.32387 12.9226 6.45352C12.7271 6.30855 12.52 6.21535 12.2914 6.33547C10.8102 7.1121 9.26815 7.78517 7.97501 8.89068C9.7043 8.23872 11.1296 6.97085 12.9168 6.44233C15.067 5.18565 17.3786 4.30133 19.7193 3.48411C20.3373 3.25008 20.9523 3.00861 21.5737 2.78452C22.1088 2.59192 22.0616 2.64659 22.5048 3.13411C22.6957 3.34369 23.1422 3.24677 23.4641 3.10884L23.4632 3.10511Z" fill="black"/>
<path fill-rule="evenodd" clip-rule="evenodd" d="M23.464 3.10898C23.7042 3.24566 23.9428 3.19265 23.9904 2.93915C24.0327 2.71714 23.8098 2.65874 23.5978 2.7014C23.3911 2.74324 23.1662 2.88034 22.9321 2.48478C23.7821 1.98194 24.7588 1.79472 25.6617 1.7885C26.3675 1.78353 27.0646 0.924065 27.845 1.74211C27.9875 1.89205 28.1618 0.976255 28.7778 0.97087C29.5163 0.965071 30.2556 0.712408 30.9912 0.729805C32.2227 0.759213 33.4002 0.321817 34.6354 0.409213C34.9812 0.433651 35.3147 0.339627 35.4911 0.728976C35.5943 0.956373 35.5214 1.16596 35.359 1.34655C35.0753 0.571166 34.7108 2.38122 34.3976 1.3101C34.2626 0.847852 34.0335 1.27531 33.9346 1.37223C33.4591 1.83531 32.6642 1.41158 32.2127 2.02915C32.1245 2.14927 31.6507 1.87217 31.6809 1.48945C31.7306 0.863592 31.2791 1.01643 31.0111 1.10921C30.524 1.27862 30.9933 1.45756 31.0351 1.65762C31.2062 2.47442 30.4242 2.42306 30.0564 2.44336C29.2715 2.48643 28.5342 2.37377 27.857 2.99838C27.4196 3.40223 27.4105 2.51336 26.9051 2.52288C26.7511 2.96815 26.3903 3.33513 25.8477 3.57454C25.6406 3.29288 26.1629 2.95696 25.7288 2.65708C25.0276 2.82898 24.4522 4.17886 23.4635 3.10566C23.4631 3.10525 23.464 3.10898 23.464 3.10898Z" fill="black"/>
<path fill-rule="evenodd" clip-rule="evenodd" d="M31.0167 0C30.3465 0.549645 29.5699 0.60142 28.5107 0.526864C29.3946 -0.211657 30.2479 0.121361 31.0167 0Z" fill="black"/>
</svg>
