<svg width="33" height="37" viewBox="0 0 33 37" fill="none" xmlns="http://www.w3.org/2000/svg">
<path fill-rule="evenodd" clip-rule="evenodd" d="M18.7833 1.47527C19.0298 1.12734 18.8985 0.775271 18.9536 0.450123C18.9855 0.260833 19.1006 -0.0547885 19.2079 0.00817011C19.9679 0.455093 20.9927 -0.265617 21.6413 0.576454C24.2752 3.99279 27.8245 6.49746 30.7007 9.67231C30.9033 9.89557 31.1199 10.1052 31.3245 10.3263C32.5075 11.6021 32.5071 11.6025 31.0594 12.428C29.57 13.2775 29.4246 13.2829 28.0105 12.1501C25.0726 9.79657 22.1471 7.42651 19.3466 4.909C18.4731 4.12409 17.6803 3.25509 17.4865 2.02492C17.4343 1.69563 17.4132 1.34894 17.4562 1.02089C17.4943 0.733022 17.5913 0.367697 17.9442 0.339531C18.3107 0.310537 18.2511 0.689945 18.3269 0.922726C18.3965 1.13563 18.4516 1.35764 18.7833 1.47527Z" fill="black"/>
<path fill-rule="evenodd" clip-rule="evenodd" d="M7.37801 15.0315C8.8505 15.1255 10.1051 15.8027 11.3349 16.5449C14.0052 18.1574 16.3993 20.1862 19.1227 21.7204C19.6491 22.017 19.6442 22.2895 19.1616 22.7406C17.7591 24.0507 16.3968 23.4576 15.0776 22.7107C12.4296 21.2113 9.82429 19.6374 7.19369 18.1081C6.51192 17.7118 5.80446 17.3593 5.10115 17.001C4.69482 16.7935 4.6331 16.4422 4.66334 16.0496C4.69482 15.6432 4.95079 15.5401 5.33145 15.4436C6.00825 15.2717 6.6602 15.0058 7.37801 15.0315Z" fill="black"/>
<path fill-rule="evenodd" clip-rule="evenodd" d="M5.81246 36.3327C4.26998 36.3327 2.72791 36.3398 1.18584 36.3286C0.695007 36.3248 0.176427 36.3211 0.023173 35.6857C-0.116413 35.1054 0.407966 35.059 0.704534 34.8105C1.27655 34.3309 1.94589 34.1093 2.65832 33.9995C5.75737 33.5203 8.85891 33.3153 11.9691 33.927C12.3055 33.9937 12.6621 33.9854 12.8125 34.3628C12.9827 34.789 12.5664 34.905 12.3891 35.1663C11.5624 36.3866 10.3471 36.387 9.08217 36.3476C7.99323 36.3141 6.90223 36.341 5.81246 36.341V36.3327Z" fill="black"/>
</svg>
