<svg width="41" height="57" viewBox="0 0 41 57" fill="none" xmlns="http://www.w3.org/2000/svg">
<path fill-rule="evenodd" clip-rule="evenodd" d="M36.1882 52.0128C36.6376 53.0827 37.0746 54.0656 37.4569 55.0688C37.5633 55.348 37.8458 55.8065 37.4697 55.9689C37.0559 56.1474 36.819 55.6611 36.6591 55.3438C35.7955 53.6348 34.975 51.9035 34.1167 50.192C31.5251 45.024 28.6224 40.0325 25.6157 35.0969C21.6522 28.5906 17.1631 22.4455 12.8181 16.1998C10.5222 12.8998 8.06059 9.71046 6.05503 6.21295C5.50953 5.26112 5.10527 4.25378 4.83355 3.19342C4.3742 1.40076 5.2084 0.202477 7.03503 0.0744889C8.0026 0.00655991 8.98716 -0.142553 9.90669 0.359045C10.4108 0.634075 10.8088 0.907033 10.4182 1.57721C10.0869 2.14549 10.347 2.6707 10.5094 3.27254C11.0913 5.43384 12.5688 7.12419 13.9191 8.65094C15.6434 10.5998 17.2389 12.6674 18.8584 14.6788C20.7563 17.0356 22.5448 19.5167 24.2878 22.016C26.4495 25.1154 28.296 28.4137 30.5028 31.4838C31.156 32.3909 31.8863 33.4152 31.9173 34.6694C31.9182 34.7021 31.9484 34.7535 31.9757 34.7626C33.3596 35.2248 32.6372 37.1811 34.0236 37.655C34.1694 37.7051 34.3545 37.9362 34.3508 38.0787C34.3036 39.89 35.8286 41.0589 36.2209 42.697C36.3621 43.286 36.6127 43.9251 37.2908 44.2072C37.413 44.2582 37.5658 44.4222 37.5708 44.5398C37.6358 46.1287 39.0346 47.2603 39.0482 48.8637C39.0491 48.9693 39.0888 49.1217 39.1646 49.1727C40.4631 50.052 39.5295 51.8459 40.6901 52.8383C41.0629 53.1573 40.0647 54.7884 39.443 54.7292C38.7985 54.6679 38.8399 54.8468 38.9335 55.2867C38.9878 55.5435 39.0627 55.8537 38.6974 55.9295C38.3014 56.0111 38.2256 55.6822 38.1043 55.3973C37.6781 54.3957 37.2332 53.4016 36.7859 52.4092C36.6972 52.2125 36.616 51.9751 36.1882 52.0128Z" fill="black"/>
<path fill-rule="evenodd" clip-rule="evenodd" d="M0.00050639 22.0624C-0.0193753 20.8869 0.543938 20.5332 2.08725 20.6516C3.06228 20.7266 3.77471 21.1379 4.34258 22.0562C5.7811 24.3819 7.55678 26.4853 8.96506 28.8392C9.44512 29.6415 9.22601 29.7893 8.43861 30.2541C6.87666 31.1765 6.02796 30.2011 5.13453 29.2753C3.54317 27.6276 1.95057 25.9745 0.811926 23.9553C0.442045 23.3001 0.105713 22.6332 0.00050639 22.0624Z" fill="black"/>
</svg>
