<svg width="30" height="49" viewBox="0 0 30 49" fill="none" xmlns="http://www.w3.org/2000/svg">
<path fill-rule="evenodd" clip-rule="evenodd" d="M29.12 42.882C29.0628 44.1594 29.0562 45.4418 28.9269 46.7121C28.8681 47.292 28.8201 48.0947 27.92 48.0513C26.8655 47.9999 26.2761 47.2419 26.3125 46.3112C26.4504 42.7615 26.0097 39.2594 25.4605 35.7578C24.8524 31.8792 23.8712 28.0706 22.3088 24.5192C21.0397 21.6356 19.3771 18.8741 17.4623 16.3011C13.5116 10.9906 8.82452 6.39463 3.89594 2.02066C3.50701 1.67563 3.02695 1.39563 2.88529 0.842675C2.8244 0.603267 2.65914 0.340249 2.93417 0.11658C3.19138 -0.0934197 3.44819 0.0167578 3.66482 0.161728C4.19541 0.517113 4.73346 0.869598 5.22097 1.28007C10.992 6.13451 16.4491 11.2959 20.7726 17.5329C26.0549 25.1538 28.8839 33.5857 29.12 42.882Z" fill="black"/>
<path fill-rule="evenodd" clip-rule="evenodd" d="M18.0516 39.8736C17.9261 40.7165 18.0553 41.583 17.724 42.4077C17.6039 42.7063 17.5111 42.9718 17.1578 43.0207C15.8626 43.1984 14.644 42.0382 14.5499 40.7095C13.8694 31.1489 10.7836 22.7108 3.089 16.463C2.44782 15.9427 1.76977 15.4577 1.06604 15.0265C0.456341 14.6529 -0.252358 14.131 0.0889441 13.4935C0.520956 12.6875 1.31705 13.3258 1.86214 13.6174C4.44427 15.0004 6.60433 16.9298 8.62853 19.0186C13.5157 24.0615 16.4064 30.1229 17.7273 36.9709C17.9108 37.9223 17.9468 38.9023 18.0516 39.8736Z" fill="black"/>
</svg>
