<svg width="32" height="33" viewBox="0 0 32 33" fill="none" xmlns="http://www.w3.org/2000/svg">
<path fill-rule="evenodd" clip-rule="evenodd" d="M13.6571 1.28861C14.5829 0.581567 15.3338 0.832573 16.3039 2.14601C17.3158 3.51577 17.5258 5.19867 18.0506 6.75565C18.3488 7.63956 18.5584 8.55825 18.7406 9.47447C18.8752 10.1496 19.1229 10.2267 19.7322 9.94127C21.9416 8.90535 24.1733 7.91831 26.4013 6.9234C26.8465 6.72417 27.3022 6.53447 27.771 6.40689C28.3861 6.23997 29.053 6.1008 28.4884 7.18559C30.0922 6.73784 31.4914 7.89636 31.4375 9.3879C31.416 9.97109 31.0552 10.0577 30.7322 10.2424C27.6074 12.0293 24.4773 13.807 21.3426 15.5757C19.9898 16.339 20.0859 16.5254 20.677 17.9486C21.2623 19.3573 21.5356 20.9184 21.7871 22.439C22.2659 25.3313 22.9257 28.1587 24.172 30.8282C24.4094 31.3372 24.6952 31.9855 24.1811 32.3727C23.7715 32.6813 23.1191 33.0723 22.5803 32.3864C22.5173 32.3057 22.3893 32.2373 22.2874 32.2307C19.8759 32.0783 19.1312 30.2272 18.4101 28.3898C17.3311 25.6412 16.5735 22.7865 15.782 19.948C15.5339 19.0583 15.323 18.8839 14.4569 19.349C11.8425 20.7507 9.25499 22.202 6.63227 23.5888C4.75221 24.5825 3.00594 23.8899 1.24103 23.5735C0.748959 23.4852 0.262687 22.5922 0.042746 21.973C-0.175952 21.3562 0.492983 20.9975 0.950675 20.6919C4.9502 18.0211 8.94434 15.3379 13.2288 13.1331C13.8754 12.8005 14.0282 12.523 13.8303 11.7555C13.0644 8.78482 12.4174 5.78352 11.7539 2.78719C11.6097 2.13606 11.4308 1.44559 11.8525 0.814349C12.1726 0.334289 12.5346 -0.10435 13.2139 0.0219817C14.0432 0.176065 13.3593 0.849141 13.6571 1.28861Z" fill="black"/>
</svg>
