<svg width="91" height="41" viewBox="0 0 91 41" fill="none" xmlns="http://www.w3.org/2000/svg">
<path fill-rule="evenodd" clip-rule="evenodd" d="M36.9778 33.4838L30.095 35.9504C32.533 35.5312 34.8231 34.6866 36.9778 33.4838ZM52.9494 32.2942C50.2156 32.9333 47.53 33.6598 44.7585 33.9895C47.6629 34.2281 50.3374 33.343 52.9494 32.2942ZM46.1689 23.8607C46.1834 22.78 45.4859 22.9155 44.8459 23.0078C42.6817 23.3189 41.5692 24.9869 40.5209 26.5919C39.7567 27.7616 39.1097 29.0738 39.0919 30.5513C39.0848 31.1146 39.2348 31.5623 39.9638 31.1601C41.954 30.0617 43.7433 28.7267 45.0344 26.821C45.6495 25.913 46.0765 24.9173 46.1689 23.8607ZM44.7697 32.7113C46.5301 32.7987 48.2192 32.3137 49.9054 31.8854C57.1912 30.0343 63.3284 26.157 68.8912 21.2098C72.6069 17.9049 75.9711 14.2781 79.2139 10.5255C79.51 10.1833 79.7958 9.82546 80.2415 9.66889C80.7423 9.49327 81.096 9.53344 80.8603 10.2007C80.8027 10.3652 80.5745 10.5188 80.8864 10.6145C81.9621 10.945 81.6705 11.7287 81.4796 12.4416C81.1217 13.7794 80.2262 14.834 79.4599 15.9316C77.3135 19.0071 75.0487 22.0042 72.4102 24.6783C69.9606 27.1606 67.1788 29.2602 64.3399 31.2807C62.5327 32.5668 60.6767 33.85 58.5494 34.4311C57.1361 34.8171 55.9946 35.6803 54.6157 36.073C51.9723 36.8256 49.3313 37.5471 46.569 37.7004C44.2955 37.8263 42.1478 37.3756 40.17 36.2445C39.5181 35.8713 38.9051 35.8452 38.2432 36.1177C36.4592 36.8517 34.6462 37.5305 32.8391 38.1796C29.8991 39.2362 26.805 39.8215 23.7084 40.2837C18.7695 41.021 13.8235 41.2534 8.88334 40.2738C5.97979 39.6981 3.15452 38.9417 0.974168 36.7407C0.400085 36.1612 -0.0257141 35.5217 0.00120895 34.6605C0.0123924 34.2894 0.129611 34.0086 0.492866 33.8533C0.922392 33.6702 0.960085 33.9746 1.15807 34.253C2.51541 36.1624 4.67878 36.4126 6.73446 36.8359C12.3995 38.0027 18.0359 37.4684 23.6587 36.4851C27.9614 35.7325 32.1494 34.5674 36.1962 32.9134C36.5176 32.7821 36.9608 32.7933 36.6932 32.1865C35.7609 30.0724 35.9112 27.9107 36.67 25.807C37.841 22.5597 39.7488 19.927 43.2546 18.9213C45.1384 18.3808 46.3946 18.993 47.4997 20.598C50.3159 24.6866 48.7705 29.0891 45.5596 31.7247C45.2717 31.9604 44.9843 32.196 44.6972 32.4313C44.7213 32.5249 44.7457 32.6181 44.7697 32.7113Z" fill="black"/>
<path fill-rule="evenodd" clip-rule="evenodd" d="M81.0396 4.49881C83.2444 3.80461 85.3067 2.82917 87.1586 1.44159C85.1191 2.46053 83.0795 3.47988 81.0396 4.49881ZM85.5975 13.7633C85.6493 11.4222 86.0995 9.13082 86.4594 6.82787C86.5133 6.48366 86.7585 6.1084 86.3261 5.80769C85.9106 5.51899 85.59 5.8139 85.3088 5.99905C83.775 7.0068 82.0312 7.50798 80.3603 8.1997C79.3049 8.6371 78.3237 9.27745 77.2256 9.69372C75.5349 10.3341 73.8901 11.102 72.2457 11.8583C71.4123 12.2415 70.4356 12.2179 69.7108 12.9481C68.9996 13.6643 68.2288 13.4485 67.3536 12.2551C66.9066 11.6463 66.7236 10.8344 67.484 10.2566C68.1095 9.78153 68.7826 9.34662 69.4875 9.00325C74.1535 6.73136 78.8377 4.49716 83.5062 2.23065C84.5541 1.72201 85.5689 1.14213 86.592 0.582954C88.4522 -0.43391 89.2395 -0.160951 90.2336 1.72201C91.0053 3.18372 91.067 4.62639 90.548 6.18337C89.5494 9.18053 88.6361 12.2063 88.2177 15.3521C88.134 15.9825 88.139 16.6241 88.0798 17.2587C88.0119 17.9935 87.6672 18.1811 87.0364 17.7487C85.6377 16.7911 85.5196 16.4684 85.5975 13.7633Z" fill="black"/>
</svg>
