<svg width="27" height="26" viewBox="0 0 27 26" fill="none" xmlns="http://www.w3.org/2000/svg">
<path fill-rule="evenodd" clip-rule="evenodd" d="M21.4273 12.8653C20.9427 13.0215 20.7389 13.441 20.5189 13.8138C19.4805 15.5725 17.7541 16.6424 16.2974 17.9687C15.7701 18.4487 14.8481 18.3854 14.1601 17.9662C12.0522 16.6822 10.4911 15.0295 10.3043 12.379C10.2041 10.9546 10.0877 9.5343 10.0777 8.10531C10.0757 7.82324 10.2144 7.42105 9.84703 7.31253C9.48378 7.20442 9.36656 7.63022 9.22159 7.85223C7.58094 10.3656 5.96638 12.8964 4.3394 15.4189C3.83035 16.2079 3.36106 17.0322 2.76709 17.7521C2.42496 18.1667 2.47756 19.2912 1.46981 18.778C-0.104566 17.9761 -0.290128 17.586 0.330759 16.2659C1.99419 12.7295 4.05691 9.40921 5.97177 6.00945C6.80182 4.53572 7.68283 3.09057 8.52034 1.62099C9.63247 -0.331141 10.5238 -0.665402 12.1483 1.42134C12.9863 2.49785 13.3375 3.76199 13.4299 5.09448C13.5989 7.52708 13.7277 9.96259 13.8785 12.3968C13.8934 12.635 13.6916 12.9635 14.0437 13.0823C14.3266 13.178 14.5316 12.9183 14.7259 12.7584C16.5364 11.2681 17.9732 9.42413 19.5141 7.67868C20.434 6.63655 21.3312 5.57123 22.3004 4.57714C23.2311 3.62282 23.7219 3.85519 24.7421 4.61235C27.1586 6.40584 26.8595 8.80986 26.4238 11.2139C26.0804 13.1084 25.5001 14.962 24.9691 16.8201C24.4837 18.5167 24.1482 20.311 23.8723 22.0871C23.7571 22.8289 24.1585 23.3989 24.5209 23.929C24.9061 24.4924 24.8573 25.066 24.5271 25.4566C24.1544 25.8977 23.6909 25.3642 23.3475 25.1629C21.4186 24.0326 20.5902 22.3232 20.6792 20.0852C20.7621 18.0072 21.1808 15.9838 21.4969 13.9422C21.5524 13.5831 21.7031 13.2261 21.4273 12.8653Z" fill="black"/>
</svg>
