<svg width="76" height="33" viewBox="0 0 76 33" fill="none" xmlns="http://www.w3.org/2000/svg">
<path fill-rule="evenodd" clip-rule="evenodd" d="M70.1909 3.62065C69.6329 3.20106 69.0311 2.99811 68.2839 3.26112C68.8228 4.15041 69.5638 3.57716 70.1909 3.62065ZM64.0752 3.26112C62.9229 2.61787 61.7528 2.9397 60.5855 3.06189C61.7486 3.12858 62.9121 3.19485 64.0752 3.26112ZM34.7556 28.4731C36.4998 28.8857 37.9229 28.5609 39.2115 27.3349C37.5286 27.6787 36.2388 28.5001 34.7556 28.4731ZM29.8725 9.55325C29.675 9.0529 29.3461 9.13781 29.023 9.27242C28.2137 9.60917 27.6093 10.3377 26.6944 10.4835C26.5341 10.5092 26.4811 10.7246 26.5527 10.8493C26.638 10.9972 26.8369 11.2233 26.9288 11.1989C27.4399 11.0634 28.345 10.8957 28.3628 10.6778C28.4469 9.65018 29.3324 9.85189 29.8725 9.55325ZM59.3773 3.02503C56.7124 2.64314 54.0275 3.00349 51.341 3.14142C48.0539 3.31041 44.8095 3.94456 41.6085 4.59319C38.5306 5.21698 35.5852 6.49728 32.5864 7.50379C32.3379 7.58704 31.8611 7.59698 32.0185 8.01988C32.12 8.29201 32.5089 8.27669 32.7889 8.12882C33.7432 7.6239 34.7742 7.3174 35.7737 6.9268C41.075 4.85497 46.634 4.03485 52.2423 3.47195C54.6119 3.23379 56.9986 3.16876 59.3773 3.02503ZM34.6777 27.4331C35.2526 27.3788 35.6995 27.3535 36.1419 27.2927C39.5748 26.818 42.6237 22.9469 40.3452 19.1532C38.6772 16.376 36.455 14.1728 34.0444 12.0803C33.2673 11.4056 32.6042 11.4913 31.8769 11.8823C30.7767 12.4734 29.7102 13.1295 28.6486 13.7885C28.0335 14.1704 27.2225 14.3654 26.8803 15.0286C26.561 15.647 25.4625 15.3815 25.5458 16.3346C24.1271 16.832 24.2841 18.3633 23.6247 19.3599C23.4255 19.661 22.8427 19.9017 23.0535 20.4028C23.319 21.0353 23.5224 21.6877 24.0083 22.2353C25.4335 23.8403 27.3037 24.7801 29.1261 25.797C30.8902 26.7811 32.7889 27.3009 34.6777 27.4331ZM35.2551 10.3063C38.1711 12.5231 40.3957 15.0315 42.0629 17.9711C43.4579 20.4318 44.4773 23.0438 43.798 25.9904C43.1903 28.6276 41.4192 30.2144 39.0931 31.363C36.1029 32.8392 33.1928 32.227 30.4611 30.8457C28.2613 29.7327 25.9596 28.6848 24.2348 26.7931C22.2893 24.6592 20.2763 22.5886 20.1032 19.4402C19.9615 16.8598 21.002 14.8293 22.7412 13.0296C24.4511 11.2602 26.4525 9.87799 28.5367 8.60556C27.3774 6.91314 25.1432 7.32361 23.8927 5.89047C23.6032 5.5587 22.6468 5.81053 22.7367 4.84544C22.757 4.62509 22.5093 4.68805 22.3995 4.77171C21.3218 5.59183 20.4727 4.4271 19.4678 4.4213C18.5429 4.4155 17.7385 3.84556 16.9871 3.24704C16.749 3.05734 16.254 3.0242 15.8183 3.04118C14.8967 3.07722 13.8939 3.46822 13.0667 2.64686C12.8663 2.44805 12.5635 2.66923 12.317 2.72805C12.1045 2.77941 11.9161 2.94592 11.6792 2.81213C11.2264 2.55615 11.226 2.55657 11.0537 3.09006C9.67898 1.97544 8.05614 2.22728 6.47141 2.24964C5.4417 2.26455 4.37762 2.60793 3.41129 1.86527C3.30857 1.78615 2.59531 1.18598 2.33188 2.14527C2.18525 2.67876 0.324248 2.30308 0.0835971 1.77331C-0.0348645 1.51237 -0.0419059 1.35497 0.157325 1.1984C0.342887 1.05219 0.52555 1.16361 0.658094 1.29698C1.12076 1.76213 1.50596 2.19663 1.90567 1.1839C1.98478 0.984259 2.76431 0.935798 3.17768 1.02319C3.8288 1.16112 3.95431 0.84633 3.99448 0.251123C4.40661 0.600295 4.84235 0.845916 5.10247 1.21497C5.6459 1.98704 6.17691 1.33882 6.7104 1.28497C6.81064 1.27503 6.98253 1.22864 6.88727 1.08988C6.5994 0.669466 6.59194 0.191478 7.07863 0.0842001C7.7459 -0.0624272 8.50306 -0.0404745 9.10863 0.334792C9.50792 0.582484 9.6417 0.840117 10.181 0.396922C10.8143 -0.123729 11.6676 0.50917 12.4384 0.510413C12.665 0.510827 12.4115 0.770946 12.3576 0.922543C12.2238 1.30112 12.5038 1.31231 12.7834 1.37402C13.2904 1.48627 13.0203 1.18763 12.9822 1.03106C12.8994 0.688934 13.1044 0.656626 13.355 0.656212C14.7778 0.653727 16.1099 1.17438 17.495 1.39266C17.9154 1.45893 17.6374 1.89592 17.6801 2.29065C18.2906 1.5629 18.8999 1.05467 19.315 2.34988C19.3593 2.48781 19.4583 2.64811 19.6347 2.47456C19.7292 2.38177 19.8124 2.14982 19.8621 2.16059C20.0589 2.20284 19.9665 2.38095 19.9644 2.52012C19.9611 2.70692 20.0858 2.81337 20.2535 2.74958C22.0085 2.08189 23.2913 3.19154 24.5144 4.05639C25.8345 4.98958 27.2245 5.77201 28.6858 6.38379C29.2496 6.61988 29.4745 6.93467 29.728 7.35923C30.3422 6.91272 31.0679 7.32816 31.7571 7.03408C33.7147 6.19947 35.7053 5.41953 37.7341 4.78C42.5189 3.27106 47.4537 2.59177 52.449 2.20864C55.7829 1.95349 59.1114 2.05911 62.4424 2.05456C63.1424 2.05331 63.8441 2.17964 64.5428 2.26041C64.8651 2.29728 65.3145 2.2571 65.3286 2.69947C65.341 3.10083 64.793 2.81047 64.6103 3.11781C65.6429 3.72461 66.7638 3.27686 67.9061 3.55355C67.786 2.85521 67.1262 2.99603 66.8698 2.53586C67.4389 2.53586 67.9753 2.44432 68.4682 2.55284C69.9494 2.87923 71.4749 3.00142 72.9192 3.50095C73.1764 3.59 73.5699 3.45414 73.1764 3.99882C72.8906 4.39521 73.3985 4.3339 73.5728 4.21917C74.0318 3.91763 74.5015 4.10899 74.6241 4.4474C74.791 4.90923 75.2528 5.3955 74.9629 5.91367C74.7902 6.22183 74.5259 6.93343 73.9705 6.18456C73.8826 6.06651 73.7033 5.87018 73.6499 5.8942C72.1799 6.55444 70.9174 4.6255 69.4076 5.56615C69.1177 5.74716 68.6795 5.48621 68.3183 5.45515C67.405 5.37562 66.4896 4.72905 65.5514 5.49035C65.1111 5.84698 64.7628 5.19669 64.2566 5.17805C62.3948 5.10887 60.6522 5.70201 58.85 5.93893C58.6309 5.96751 58.399 5.89503 58.1782 5.91781C56.2704 6.11455 54.2955 5.71982 52.4602 6.56728C51.9254 6.81414 51.4222 6.43059 50.8464 6.46828C48.9544 6.59296 47.1737 7.37994 45.2551 7.29586C44.9006 7.28012 44.452 7.48432 44.1824 7.92793C44.0519 8.14248 43.5573 8.28124 43.2678 8.22947C41.2838 7.87698 39.5984 8.79527 37.8409 9.42071C37.0718 9.6945 36.2964 9.95047 35.2551 10.3063Z" fill="black"/>
</svg>
