<svg width="51" height="66" viewBox="0 0 51 66" fill="none" xmlns="http://www.w3.org/2000/svg">
<path fill-rule="evenodd" clip-rule="evenodd" d="M22.8554 37.5165C23.7525 37.0688 24.1547 36.3108 24.1874 35.3453C23.7434 36.0689 23.2994 36.7925 22.8554 37.5165ZM29.0373 16.2771C29.0058 16.0974 28.8596 16.0597 28.6442 16.1123C28.1315 16.2382 26.4933 18.0718 26.4279 18.6223C26.4167 18.7151 26.4598 18.853 26.5281 18.9085C26.664 19.0183 26.7882 18.9703 26.8855 18.8091C27.3706 18.0085 28.1236 17.4481 28.7478 16.7721C28.8716 16.6375 29.0555 16.5621 29.0373 16.2771ZM46.4512 10.1635C46.3613 10.6929 46.119 11.0217 45.6207 11.0731C45.3792 11.0979 45.2533 11.1385 45.1489 11.4127C44.7857 12.3637 44.0256 12.9283 43.1148 13.321C42.9317 13.4001 42.5921 13.4547 42.7358 13.7418C42.8551 13.9795 43.1177 13.9717 43.4076 13.8449C44.5927 13.3276 45.3846 12.3207 46.307 11.4935C46.5141 11.3079 47.0754 10.7591 46.4512 10.1635ZM6.6394 41.0741C4.01792 42.612 1.6723 46.2566 1.82638 48.5488C2.46383 47.1906 3.10419 45.8449 3.93135 44.5816C4.74567 43.3381 5.83212 42.3121 6.6394 41.0741ZM34.2948 15.7784C34.1506 16.345 33.9667 16.7986 33.9435 17.26C33.9307 17.516 33.9659 17.7185 33.6863 17.7513C32.657 17.8714 32.2606 18.8746 31.4592 19.3165C30.4978 19.8463 30.2381 20.7405 29.997 21.7876C29.5948 23.5335 30.0231 25.2599 29.8347 26.9962C29.7348 27.9145 29.7833 28.9123 29.8935 29.86C30.0985 31.6154 29.5874 33.249 29.2067 34.917C28.9437 36.0685 29.0145 37.2556 28.2798 38.3366C27.1519 39.9972 25.6256 41.0488 23.8557 41.8462C23.3412 42.0773 22.9979 41.8524 22.6727 41.2903C22.7539 42.1324 22.4155 42.2132 21.7702 42.2894C20.3611 42.455 18.9842 42.7574 17.6803 41.9153C17.5992 41.8627 17.4513 41.8482 17.3606 41.8834C15.693 42.5325 14.0441 42.0317 12.4059 41.7637C11.8621 41.6747 11.527 41.5968 11.0308 42.0326C10.5594 42.4463 9.98531 42.9666 9.14614 42.7864C8.54058 42.6563 8.85703 43.3808 8.53934 43.6678C5.39845 46.5092 4.38159 50.2163 4.11774 54.3144C4.00342 56.0835 4.0175 57.8596 4.09413 59.5951C4.16413 61.174 4.59904 62.8238 5.27212 64.329C5.46348 64.7569 5.6917 65.1562 5.43697 65.6006C5.13792 66.1213 4.67028 65.6909 4.31738 65.6818C3.02839 65.6491 2.52472 64.8526 2.06869 63.6435C1.61762 62.4452 0.955728 61.3016 0.765195 60.0213C0.281408 56.774 -0.405752 53.5362 0.307088 50.2201C1.12804 46.4028 2.5678 42.9881 5.73644 40.4433C6.61579 39.7371 7.45206 38.8722 8.51945 38.8022C10.1713 38.6937 11.8459 38.4563 13.5213 38.8366C15.2117 39.2197 16.9344 39.2893 18.6206 38.7604C21.9624 37.7129 23.3292 35.0442 23.9087 31.9244C24.4993 28.7446 24.1332 25.4873 24.339 22.276C24.6128 18.0023 26.5807 15.1488 30.4792 13.8681C31.9753 13.3769 33.5911 13.2195 35.2184 13.5148C37.2315 13.8797 39.2312 14.1345 41.279 13.4278C43.0576 12.8144 44.8582 10.9604 44.9795 9.07995C45.1141 6.98948 45.1469 4.89238 45.2309 2.79859C45.2612 2.05013 45.4227 1.31948 45.7002 0.629007C45.8862 0.168001 46.3393 -0.119455 46.7937 0.0482969C47.3057 0.237173 47.0443 0.636877 46.8099 0.947114C46.6351 1.17824 46.6989 1.36463 46.9279 1.50546C47.169 1.65291 47.3094 1.59368 47.4453 1.32279C47.8147 0.587173 48.1328 0.766522 48.39 1.41475C48.5855 1.90682 49.2019 1.77593 49.5125 2.38439C50.0626 3.46007 50.157 4.49723 50.1541 5.61599C50.1537 5.72865 50.1885 5.84794 50.162 5.95273C49.9971 6.59558 49.8671 8.61563 50.0576 9.40345C50.1823 9.91954 49.805 10.3789 50.022 10.895C50.0945 11.0673 49.8484 11.1978 49.6351 11.0839C49.5067 11.0151 49.3584 10.8739 49.3605 11.1551C49.3746 13.0563 49.2653 13.5421 48.6282 14.3246C47.9903 15.1074 47.0112 15.5059 46.3998 16.3351C46.2022 16.6027 45.8452 16.3823 45.5987 16.1918C45.4248 16.0576 45.2566 15.8459 45.0201 16.0613C44.8445 16.2216 44.7277 16.5269 44.8569 16.6669C45.4003 17.2546 44.9352 17.3052 44.5123 17.3938C43.5982 17.5864 42.6438 18.0346 41.7769 17.9053C40.2183 17.673 38.66 17.6904 37.1072 17.5462C36.5331 17.4928 35.9487 17.366 35.6434 16.7042C35.4106 16.1992 34.786 16.1756 34.2948 15.7784Z" fill="black"/>
</svg>
