<svg width="47" height="38" viewBox="0 0 47 38" fill="none" xmlns="http://www.w3.org/2000/svg">
<path fill-rule="evenodd" clip-rule="evenodd" d="M12.1093 20.8543C12.8619 17.6335 13.5918 14.4943 14.3307 11.3567C14.6066 10.1862 14.8302 8.99616 15.2109 7.85918C15.7025 6.39042 16.7894 6.1038 18.0448 6.4161C21.4289 7.25859 22.8508 9.84445 24.0947 12.6809C24.4095 13.3991 24.8 14.085 25.1712 14.7784C25.696 15.7592 25.8016 15.763 26.5012 14.8352C27.7268 13.2094 28.2483 11.2685 28.9085 9.39297C29.8181 6.80711 30.5086 4.14462 31.5851 1.61758C32.0254 0.58415 33.1967 -0.208631 33.944 0.0490025C34.716 0.314505 35.4641 0.674446 36.1835 1.06545C38.1609 2.14072 39.2996 3.96776 40.3177 5.86936C42.1774 9.34285 44.1577 12.7559 45.6758 16.4033C45.8767 16.8863 46.23 17.3676 46.0966 17.8924C45.9661 18.4076 45.8469 19.2978 44.9779 18.4329C44.8408 18.2966 44.6987 18.1902 44.4845 18.256C43.0448 18.6997 42.5009 17.6463 41.9061 16.6978C40.1669 13.9268 38.4376 11.1488 36.6947 8.37983C36.5257 8.11143 36.4192 7.64711 36.0108 7.75025C35.7184 7.82397 35.7689 8.26385 35.6529 8.53433C34.81 10.4989 34.622 12.6494 33.9092 14.6508C33.5173 15.7514 33.0982 16.837 32.4561 17.8224C32.0436 18.4544 31.6484 19.0828 30.806 19.2331C30.567 19.2758 30.2824 19.4485 30.1519 19.6486C29.372 20.844 28.2557 20.4012 27.2099 20.2952C24.3295 20.0027 22.1483 18.5754 20.5582 16.1879C20.5027 16.1047 20.3789 16.0662 20.2037 15.9531C19.9696 16.6999 19.613 17.3055 19.4846 18.1094C19.0261 20.9898 18.6289 23.8917 17.5975 26.6589C17.1903 27.7508 16.4108 28.4052 15.4503 28.7734C14.6231 29.0903 13.7856 28.3837 12.8599 28.4653C11.0618 28.6243 10.0044 27.3904 9.05584 26.0977C8.61389 25.495 8.24318 24.8398 7.83561 24.2011C6.71064 25.297 6.78726 26.8176 6.44182 28.1281C5.92655 30.0819 5.22324 31.9483 4.49259 33.8147C4.02413 35.0121 3.82697 36.2995 3.00188 37.3826C2.31969 38.2777 1.44821 37.8449 0.754423 37.7968C0.275192 37.7641 -0.207352 37.0463 0.0929435 36.186C2.19046 30.1797 3.11951 23.9422 3.66004 17.6318C3.76484 16.4083 4.50377 15.4051 5.28371 15.5186C6.0388 15.6279 6.78602 15.8798 7.50176 16.1585C9.28283 16.8519 10.3747 18.2788 11.3074 19.8619C11.493 20.1763 11.558 20.5814 12.1093 20.8543Z" fill="black"/>
</svg>
