<svg width="56" height="108" viewBox="0 0 56 108" fill="none" xmlns="http://www.w3.org/2000/svg">
<path fill-rule="evenodd" clip-rule="evenodd" d="M18.9422 91.8429L19.0926 91.9891C17.9009 93.0764 16.7089 94.1637 15.5172 95.2514C15.5143 95.246 15.511 95.2414 15.5077 95.236C16.653 94.1053 17.7974 92.9741 18.9422 91.8429ZM27.6608 72.7155C27.686 70.8682 27.5349 69.0382 27.1728 67.2244C26.5064 63.8814 25.0298 61.2293 21.4502 60.2775C17.2295 59.1554 10.8616 60.2447 8.16639 65.5747C7.14249 67.5997 6.68024 69.6343 6.86456 71.8565C6.94822 72.8655 7.40716 73.6379 8.30101 74.1391C10.0692 75.1315 11.8851 76.0498 13.5949 77.1355C17.5273 79.6323 21.7112 79.7764 26.0806 78.7165C26.7259 78.5599 27.0196 78.2389 27.1824 77.6317C27.6152 76.0163 27.7142 74.374 27.6608 72.7155ZM0.65568 107.398C0.892604 107.225 1.12994 107.053 1.36396 106.883C0.949763 106.504 0.543018 107.131 0 106.653C5.0574 103.562 9.34521 99.6175 13.522 95.543C17.7237 91.444 21.91 87.3298 24.9883 82.301C24.7742 81.8934 24.4776 82.0437 24.2457 82.0661C21.2808 82.3531 18.4667 81.7592 15.7769 80.5592C12.8191 79.2396 9.93876 77.7522 7.17314 76.0697C3.5903 73.8898 2.60988 71.4969 3.43538 67.3876C4.55124 61.8311 9.02337 57.8362 14.6863 57.26C19.8253 56.7373 24.203 58.2934 27.7279 62.0478C29.4978 63.9332 30.2959 66.3517 30.8025 68.8419C31.2606 71.0968 31.4511 73.3861 31.3873 75.6895C31.3521 76.964 31.3505 76.9975 32.5554 76.4284C35.6764 74.9543 38.4611 72.9914 40.8241 70.4701C43.4998 67.6159 45.4134 64.27 47.0508 60.7368C49.729 54.9595 50.6527 48.756 51.5664 42.5488C52.2618 37.822 52.8467 33.0727 53.0641 28.3036C53.3069 22.9679 52.9444 17.64 52.1906 12.3449C51.8104 9.67451 51.2127 7.04226 50.798 4.37563C50.6108 3.17279 49.951 2.01676 49.7128 0.769183C49.6631 0.508236 49.485 0.237348 49.7505 0.0613127C50.0343 -0.127149 50.2115 0.162792 50.3959 0.339656C50.6328 0.568709 50.9989 0.698768 51.0387 1.08232C51.2669 3.2577 52.6504 5.04374 53.0583 7.16735C53.4829 9.37794 54.0607 11.5587 54.5027 13.7664C54.9454 15.9799 55.1604 18.2273 55.3547 20.4765C55.8629 26.3701 55.6856 32.2398 55.0328 38.1218C54.5772 42.2212 54.1191 46.3222 53.3499 50.366C52.6537 54.0305 51.8315 57.6585 50.2994 61.1436C49.1023 63.8653 47.8067 66.5008 46.2066 68.9778C44.9599 70.9088 43.5702 72.73 41.7337 74.2253C40.4542 75.267 39.2174 76.3443 37.8261 77.2452C36.0525 78.393 34.2635 79.5801 32.2311 80.121C30.554 80.5671 29.8034 81.7555 29.2873 83.0834C28.5053 85.0935 27.3717 86.8915 26.0992 88.5566C22.3536 93.4604 17.9465 97.7536 13.2909 101.791C11.0911 103.699 8.71769 105.38 6.05562 106.566C4.40669 107.301 2.65254 107.815 0.65568 107.398Z" fill="black"/>
</svg>
