<svg width="63" height="45" viewBox="0 0 63 45" fill="none" xmlns="http://www.w3.org/2000/svg">
<path fill-rule="evenodd" clip-rule="evenodd" d="M53.8966 34.5869C51.1132 36.0441 48.57 37.2846 45.9266 38.3081C48.1396 38.1213 52.2692 36.216 53.8966 34.5869ZM21.8043 18.7126C32.7695 12.8057 43.8245 7.07524 55.1218 1.82482C43.5445 6.52145 32.6034 12.4768 21.8043 18.7126ZM4.37514 32.083C4.63236 32.5797 5.08342 32.7988 5.51833 32.9947C6.92082 33.6272 8.30839 34.3102 9.75561 34.8201C14.4257 36.4657 19.189 37.7605 24.1267 38.3126C29.564 38.9207 35.0165 39.0628 40.4268 38.1967C45.6482 37.3608 50.5325 35.5814 54.6521 32.1145C55.4751 31.422 56.2464 30.6582 56.7683 29.6774C58.1095 27.1574 58.1563 24.4481 58.0627 21.6903C57.8887 16.5675 56.9982 11.5366 56.2265 6.48914C56.1519 6.00204 56.0757 5.63382 55.3828 5.88234C52.9825 6.74222 50.774 8.09666 48.2921 8.71837C47.1816 8.9963 46.4489 9.74269 45.5732 10.3362C44.4528 11.0959 43.0437 11.1212 41.8417 11.7876C40.6488 12.4491 39.3296 12.9105 38.0886 13.5198C37.7034 13.7087 37.7105 14.2948 37.2312 14.2148C36.1324 14.0322 35.5313 14.7901 34.886 15.4342C34.5526 15.7668 34.2221 16.0829 33.7391 15.9967C33.3572 15.9284 33.1128 16.1603 32.8038 16.2407C31.3313 16.6259 30.4479 17.8788 29.2048 18.6112C26.795 20.0302 24.147 20.9539 21.789 22.5129C20.0079 23.6905 18.0844 24.7256 16.0523 25.5461C14.2551 26.2714 12.7163 27.6548 10.9075 28.3308C8.50348 29.2296 6.73526 31.1064 4.37514 32.083ZM14.2298 23.1371C15.3929 22.8621 16.266 22.0975 17.188 21.402C16.488 21.6133 15.8651 22.0126 15.1837 22.211C14.6328 22.3717 14.3715 22.6567 14.2522 23.1612C12.8812 23.536 11.7169 24.2774 10.6519 25.1928C11.9343 24.6647 13.1753 24.0625 14.2298 23.1371ZM62.6827 24.6349C62.6947 26.5394 62.751 28.4364 62.3844 30.3293C62.2187 31.1884 61.8733 31.9691 61.5854 32.769C60.6332 35.4182 58.7432 37.2912 56.3557 38.6717C55.0564 39.4227 53.6937 40.0664 52.3413 40.7212C51.9635 40.9039 51.5514 41.2609 51.0842 40.838C51.0258 40.7854 50.8481 40.7833 50.781 40.833C49.0575 42.1138 47.1712 42.769 44.4905 43.259C41.0535 43.8882 37.5787 43.9942 34.1127 44.0236C31.053 44.0497 28.0037 43.72 24.9556 43.2847C20.9834 42.7177 17.1379 41.6652 13.3836 40.3874C10.3898 39.3684 7.4336 38.1797 4.7065 36.3833C2.55721 34.9675 0.901232 33.4317 0.148214 30.9846C-0.252733 29.6807 0.15277 28.7143 1.45046 28.6605C3.76668 28.5652 5.42224 27.2472 7.2381 26.1264C14.7836 21.4683 22.4169 16.9614 30.2408 12.7784C38.0617 8.5966 45.9282 4.51258 54.0341 0.904883C54.6177 0.645179 55.1997 0.366835 55.8077 0.180445C56.4941 -0.0299693 57.2272 -0.256123 57.5602 0.757427C57.7321 1.28056 58.3903 1.20104 58.7337 1.68565C59.5977 2.90299 59.9825 4.24749 60.2115 5.65991C60.9882 10.441 61.9358 15.1969 62.4097 20.0232C62.5601 21.5545 62.5948 23.0974 62.6827 24.6349Z" fill="black"/>
</svg>
