<svg width="58" height="61" viewBox="0 0 58 61" fill="none" xmlns="http://www.w3.org/2000/svg">
<path fill-rule="evenodd" clip-rule="evenodd" d="M19.1763 6.47272C18.7658 6.47272 18.4742 6.48763 18.1847 6.46899C17.7932 6.44373 17.5712 6.66574 17.4022 6.96811C17.3302 7.09734 17.2834 7.30402 17.4466 7.34959C17.7464 7.43325 17.9941 7.28414 18.2207 7.06503C18.451 6.84302 18.8772 6.97142 19.1763 6.47272ZM16.6948 23.9392C15.4087 24.051 14.4051 24.7042 13.515 25.5744C14.7501 25.3653 15.6642 24.5414 16.6948 23.9392ZM25.0919 44.4235C25.574 44.2748 26.0499 44.1004 26.5391 43.9824C28.0638 43.615 29.0405 42.3877 30.3005 41.6057C30.5291 41.4636 30.621 41.1447 30.4736 40.902C30.2938 40.605 30.0685 40.8166 29.9389 40.9831C28.6768 42.6126 26.7942 43.3039 25.0919 44.4235ZM31.0858 54.6638C32.0401 54.3672 33.0114 54.1158 33.9458 53.7658C37.6865 52.3646 40.9686 50.1507 44.1812 47.8394C44.4545 47.6427 45.1061 47.0856 44.5382 46.3715C40.7102 50.2347 35.8694 52.3716 31.0858 54.6638ZM20.3141 2.87911C17.0394 2.59041 6.70714 10.1757 5.21063 13.6011C9.63596 9.16751 14.3326 5.11994 20.3141 2.87911ZM25.3959 4.29527C25.4435 4.85817 25.8188 5.56024 24.705 5.16302C24.1131 4.95178 23.7776 5.92225 22.9737 6.01337C22.5421 6.06183 21.8375 6.29089 21.2729 6.47645C20.9039 6.59823 20.4342 6.45491 20.3041 7.00331C20.2639 7.17231 20.1463 7.29201 19.9819 7.19757C19.1435 6.71586 18.5951 7.39515 17.9945 7.72154C15.5425 9.05568 13.1778 10.577 11.1109 12.4256C8.15767 15.0666 5.36347 17.8976 3.0017 21.1106C2.95738 21.1711 2.9346 21.2717 2.87744 21.2953C2.34519 21.5144 2.97146 23.0031 1.73093 22.395C0.0372608 21.5654 -0.350017 20.8248 0.293237 19.5665C1.04957 18.0869 1.87341 16.6364 2.74779 15.2223C5.91602 10.0978 10.3471 6.28633 15.5338 3.36331C19.0271 1.39462 22.8784 0.429527 26.8783 0.144557C29.9621 -0.0753842 33.0491 -0.125088 36.0877 0.587338C37.146 0.83503 38.2423 1.0674 39.195 1.5545C39.6941 1.81006 40.2098 1.93598 40.6613 2.1497C42.4154 2.97894 44.4297 3.35047 45.804 4.93769C46.1399 5.32497 46.8395 5.28645 47.3668 5.64059C52.3401 8.98154 55.4756 13.5672 56.4187 19.4488C57.3395 25.1909 57.5553 30.9818 56.1781 36.7222C55.8683 38.0133 55.2623 39.1507 54.6696 40.3316C53.989 41.6881 53.0997 42.9502 52.6126 44.4073C52.5083 44.7192 52.3749 45.0759 52.1405 45.2805C50.733 46.5098 49.7526 48.114 48.4263 49.4204C46.9277 50.8966 45.2879 52.1483 43.5358 53.3036C42.1536 54.2148 40.8825 55.3133 39.5458 56.2891C37.9147 57.4791 35.9286 58.0627 34.0142 58.725C32.248 59.336 30.4193 59.6313 28.5873 59.9357C28.2858 59.9854 28.0356 60.1631 27.8086 59.804C27.7469 59.7063 27.5365 59.6102 27.4367 59.6429C24.5476 60.6001 20.7034 59.6843 18.3793 58.4778C15.4588 56.9614 12.788 55.061 10.6652 52.5692C8.95046 50.5557 7.75424 48.1849 7.09525 45.5489C6.58785 43.5205 6.01791 41.5158 5.66915 39.446C5.18371 36.569 5.96241 34.0001 7.39265 31.577C8.59424 29.5408 9.93998 27.5986 11.3619 25.7037C12.7851 23.8062 14.8839 23.013 16.9599 22.3536C19.45 21.5625 22.0632 21.2162 24.7129 21.3181C26.5677 21.3894 28.1416 22.0459 29.4737 23.3183C31.3053 25.0679 32.6303 27.1637 33.6766 29.4522C34.551 31.3658 34.5866 33.4621 34.9813 35.478C35.0758 35.9572 34.7498 36.3014 34.1728 36.3416C33.6837 36.3756 33.2984 36.581 33.4927 37.1994C33.5693 37.1994 33.6062 37.2023 33.6422 37.199C34.1144 37.1576 34.1811 36.2086 34.7759 36.598C35.3144 36.9509 35.1694 37.6033 35.1234 38.1649C34.9296 40.5271 34.0556 42.5919 32.2812 44.1841C30.8103 45.5033 29.5039 46.9741 27.486 47.6659C23.4119 49.0634 21.3943 47.8788 18.4257 45.1314C17.4503 44.2288 17.1562 42.9531 16.6993 41.7672C15.3362 38.2308 17.9991 35.8582 20.9842 35.8259C20.6616 37.037 19.0466 36.7898 18.5019 38.0452C19.5192 37.7375 20.1579 37.1423 20.9167 36.7918C21.2547 36.6357 21.8508 36.224 21.9845 36.6489C22.1432 37.153 22.9819 37.358 22.4033 38.3571C21.787 39.4216 21.1068 40.5722 20.7726 41.8202C20.4876 42.8827 21.1781 43.716 22.2376 43.6224C25.2033 43.3615 27.7597 42.0824 29.8216 40.0499C31.1541 38.7373 31.5166 36.8167 31.3687 34.9457C31.2125 32.9787 31.1222 30.9839 30.3096 29.1204C30.0652 28.5608 28.9237 26.5462 28.4221 26.1705C28.0435 25.8872 27.5957 25.7517 27.0983 25.7546C26.8423 25.7559 26.4198 26.028 26.3755 25.3943C26.3544 25.0919 25.8196 25.0824 25.7993 25.3243C25.731 26.1357 25.1064 25.9319 24.7096 25.9559C22.5313 26.086 20.5021 26.8912 18.3938 27.3311C17.5339 27.5108 16.7801 28.133 16.5009 29.0761C16.3742 29.5036 16.1323 29.8651 15.8009 30.0673C14.0774 31.1169 13.6102 32.9522 12.7934 34.5966C12.3088 35.572 11.3967 36.2944 11.0587 37.4078C10.5025 39.2406 10.4714 41.0999 10.8719 42.9199C11.3151 44.9317 11.8246 46.9518 12.6791 48.8389C13.9159 51.5693 16.2963 52.9217 18.9837 53.883C20.0237 54.2554 21.2203 54.04 22.185 54.8291C22.3358 54.9525 23.2305 54.4637 23.8509 54.4041C29.7392 53.8375 35.0103 51.6095 39.9915 48.5038C43.1925 46.5082 45.5919 43.7956 47.6973 40.7475C50.895 36.1183 51.8418 30.8526 51.959 25.388C52.0174 22.6456 51.9396 19.8941 51.5817 17.1604C51.0677 13.2337 49.0547 10.4122 45.5774 8.50686C43.9886 7.6358 42.3521 6.83266 40.7607 5.97568C40.1195 5.63024 39.1296 5.13154 37.9938 5.37757C37.0068 5.5913 35.8408 5.03006 34.7113 4.99651C33.4956 4.96089 32.3023 4.48828 31.0597 4.81633C30.7391 4.90083 30.6674 4.79479 30.8443 4.47337C30.981 4.22485 30.6687 4.09272 30.5564 4.1942C29.5425 5.10379 28.0948 4.31556 27.0018 5.1974C26.3419 5.72965 26.1365 4.46592 25.3959 4.29527Z" fill="black"/>
</svg>
