<svg width="53" height="51" viewBox="0 0 53 51" fill="none" xmlns="http://www.w3.org/2000/svg">
<path fill-rule="evenodd" clip-rule="evenodd" d="M7.53074 10.4797C7.01092 10.8632 6.64642 11.2087 6.43808 11.6991C6.38134 11.8333 6.30222 11.9865 6.46211 12.0822C6.53708 12.1274 6.75992 12.081 6.76033 12.0723C6.774 11.4539 7.77347 11.3826 7.53074 10.4797ZM44.0857 42.1462C44.1586 42.2063 44.231 42.2663 44.3035 42.3264C45.2823 41.616 46.0966 40.7532 46.7332 39.721C46.266 40.064 45.892 40.4985 45.4823 40.8961C45.0342 41.3302 44.5525 41.7308 44.0857 42.1462ZM16.096 19.2376C17.0495 17.8003 18.2262 16.51 18.7299 14.8317C17.337 16.0002 16.7633 17.657 16.096 19.2376ZM37.0422 29.3656C36.1537 30.4835 34.88 31.3633 34.7297 32.9526C35.7664 31.9316 36.7137 30.8534 37.0422 29.3656ZM8.70045 9.38412C10.8804 7.52063 13.4016 6.08418 15.3844 3.97341C12.8681 5.41608 10.4865 7.0269 8.70045 9.38412ZM42.7296 30.269C40.6722 32.9157 38.6712 35.4896 36.6702 38.0634C40.5447 34.7697 42.4251 32.3114 42.7296 30.269ZM9.50027 19.4053C9.60382 19.3365 9.74009 19.2976 9.76702 19.2202C10.7843 16.3166 12.8201 14.2017 15.0369 12.1796C16.1378 11.1751 16.8681 9.82442 17.8323 8.35939C14.7557 9.34974 9.63489 16.3232 9.50027 19.4053ZM23.89 50.4385C12.2518 50.2401 4.31116 43.6928 1.02364 33.2682C-0.862215 27.2871 -0.0441673 21.4842 2.67175 15.9989C5.415 10.459 9.5069 6.03572 15.0775 3.20258C17.4045 2.01921 19.8988 1.15436 22.3492 0.230276C23.3048 -0.130079 24.3191 -0.0414395 25.3244 0.315602C26.6002 0.768738 27.9583 0.957614 29.3016 0.912052C32.2797 0.811815 34.9405 1.76613 37.4067 3.28377C39.0689 4.30726 40.8628 5.13442 42.351 6.43004C46.9755 10.4565 50.1802 15.4095 51.9981 21.2609C52.6841 23.4665 52.4438 25.721 52.2301 27.9511C52.1067 29.236 51.6042 30.5063 51.4025 31.7386C51.2455 32.697 50.4627 33.3925 50.5248 34.0316C50.6176 34.9975 50.2225 35.6084 49.8335 36.2819C46.1736 42.6163 40.4394 46.2099 33.6838 48.4441C31.291 49.2357 28.865 49.8984 26.3719 50.2724C25.4085 50.4165 24.4219 50.4058 23.89 50.4385Z" fill="black"/>
</svg>
