<svg width="231" height="175" viewBox="0 0 231 175" fill="none" xmlns="http://www.w3.org/2000/svg">
<path fill-rule="evenodd" clip-rule="evenodd" d="M50.9357 142.975C50.9444 142.929 50.9531 142.881 50.9614 142.835H46.5075C46.5075 142.881 46.5075 142.929 46.5079 142.975H50.9357ZM54.7108 141.949C56.706 142.305 57.6566 142.122 57.9966 141.186C57.0879 142.653 55.8606 141.28 54.7108 141.949ZM108.345 48.6328C110.322 47.9684 112.068 46.9329 113.72 45.7292C111.929 46.6972 110.137 47.6648 108.345 48.6328ZM166.624 1.26805C166.861 1.5584 166.914 1.66899 166.953 1.66444C168.672 1.47018 170.391 1.32479 172.122 1.49586C172.278 1.51118 172.434 1.45361 172.461 1.27674C172.5 1.01953 172.297 0.94994 172.112 0.959881C170.345 1.05142 168.578 1.15621 166.624 1.26805ZM144.674 170.147C139.652 170.287 134.796 169.177 129.921 168.204C134.702 169.876 139.613 170.581 144.674 170.147ZM34.3217 61.1392C30.1142 63.3953 26.1773 65.9986 23.3019 69.9248C26.6461 66.5826 30.304 63.6385 34.3217 61.1392ZM92.9395 49.153C98.1638 47.9042 103.132 46.0055 107.773 43.2801C102.937 45.5126 97.9666 47.4047 92.9395 49.153ZM173.25 1.31112C177.892 1.74189 182.361 2.90663 186.703 4.5974C182.498 2.37935 178.018 1.26887 173.25 1.31112ZM76.0918 140.611C72.06 139.495 67.9482 138.961 63.7838 138.832C58.7952 138.677 53.8074 138.768 48.8192 138.915C46.1252 138.994 43.4283 138.963 40.7348 139.049C40.0787 139.07 39.3953 138.565 38.6783 139.118C40.6118 139.429 42.4897 139.463 44.3483 139.438C50.2709 139.359 56.1919 139.086 62.1158 139.212C66.8071 139.312 71.4818 139.679 76.0918 140.611ZM176.189 5.17438C176.174 5.12177 176.16 5.06917 176.146 5.01657C175.061 4.96355 173.974 4.8397 172.891 4.87118C169.363 4.97349 165.836 4.95278 162.465 6.38882C161.581 6.76491 160.443 6.67337 159.5 7.17248C158.209 7.85633 156.728 7.9284 155.386 8.63627C153.318 9.72728 151.198 10.7665 149.041 11.691C147.612 12.3036 146.417 13.2588 145.111 14.0416C144.095 14.6509 143.186 15.4938 142.235 16.2203C140.45 17.5834 138.764 19.0501 137.25 20.6759C135.714 22.3256 134.238 24.047 132.79 25.7842C131.36 27.4982 130.001 29.2763 128.534 30.9572C126.807 32.935 125.168 34.9853 123.721 37.1561C122.998 38.2413 121.931 38.9343 121.174 39.9863C120.548 40.8553 119.884 41.8287 119.016 42.5709C117.47 43.8931 115.862 45.1291 114.138 46.206C108.378 49.8037 102.129 52.2852 95.6371 54.1764C93.6374 54.7592 91.6529 55.4899 89.5061 55.4327C88.8447 55.4153 88.121 55.4282 87.5271 55.6725C86.3338 56.1621 85.0941 56.4123 83.8428 56.5125C81.1852 56.725 78.5807 57.2875 75.9295 57.5654C71.6334 58.0161 67.3369 58.4282 63.0254 58.6241C60.4023 58.7434 57.8218 59.2293 55.1858 59.2823C53.4992 59.3163 51.8217 59.9301 50.1463 60.3108C42.2242 62.1105 35.0101 65.3218 29.1835 71.1372C28.445 71.874 27.3967 71.8247 26.7725 72.673C23.9646 76.4886 21.105 80.2662 18.0863 83.9227C14.9143 87.7653 13.2053 92.4681 10.7238 96.7182C10.2189 97.5827 10.2562 97.5988 9.2207 98.0561C9.1159 98.1021 9.0749 98.3034 9.01318 98.4372C7.78715 101.1 6.33164 103.661 5.34667 106.432C4.73034 108.166 3.96697 109.875 3.9388 111.755C3.83981 118.303 6.54744 123.548 11.5104 127.675C14.3087 130.002 17.535 131.645 20.8341 133.138C27.6771 136.235 34.8535 137.824 42.3671 137.88C49.846 137.935 57.3169 137.463 64.8044 137.778C72.2045 138.09 79.2311 139.692 85.9349 142.818C93.9741 146.569 101.431 151.314 108.852 156.127C113.94 159.426 119.137 162.538 124.75 164.879C132.644 168.172 140.869 169.273 149.379 168.603C154.527 168.198 159.628 167.469 164.658 166.367C178.455 163.343 191.543 158.437 203.747 151.262C209.314 147.989 214.457 144.205 218.664 139.248C221.5 135.906 224.08 132.4 225.761 128.311C226.747 125.912 227.375 123.447 226.992 120.827C226.519 117.594 225.495 114.533 223.921 111.672C220.737 105.883 216.306 101.042 212.026 96.0828C207.828 91.2197 203.726 86.316 201.35 80.1825C199.976 76.6369 199.062 73.0284 198.743 69.2815C197.924 59.6891 198.561 50.1069 199.14 40.5285C199.407 36.1036 200.061 31.6965 199.729 27.2443C199.506 24.2587 198.978 21.3502 197.616 18.6467C195.554 14.5527 191.463 10.2533 186.175 8.11024C186.037 8.05432 185.881 8.00337 185.78 7.90314C184.564 6.69864 182.97 6.57272 181.409 6.33911C181.004 6.27822 180.469 6.29935 180.229 6.05373C179.369 5.17148 178.179 5.89633 177.192 5.31852C176.758 5.06461 175.747 5.38355 174.99 5.25846C175.39 5.2303 175.789 5.20213 176.189 5.17438ZM148.504 174.515C148.717 174.564 148.93 174.614 149.144 174.663C145.235 174.991 141.343 174.911 137.48 174.315C131.985 173.467 126.746 171.766 121.732 169.372C116.835 167.034 112.191 164.26 107.673 161.262C101.085 156.89 94.4459 152.604 87.4161 148.953C81.5705 145.917 75.4055 144.022 68.8375 143.432C66.2558 143.2 63.6737 143.012 61.0166 142.974C61.314 142.489 61.7319 142.876 62.2045 142.603C61.4266 142.603 60.6591 142.374 60.2656 142.659C59.7226 143.054 59.1162 143.137 58.7364 142.934C57.1082 142.069 55.4373 142.716 53.8012 142.673C52.5039 142.639 51.2493 143.255 49.9073 143.184C48.2024 143.092 46.5038 143.398 44.7836 142.876C44.0153 142.642 43.0369 142.887 42.1414 143.129C41.3142 143.351 40.2394 143.425 39.5121 143.073C38.2881 142.48 37.0471 142.869 35.8261 142.648C32.8293 142.108 29.8699 141.484 26.9618 140.592C22.8131 139.318 18.8997 137.515 15.1106 135.41C8.83093 131.922 4.77673 126.548 2.06081 120.06C-0.659659 113.56 -0.771493 107.06 2.23312 100.584C3.81496 97.1747 5.39265 93.7633 7.27147 90.5052C8.47472 88.4185 9.8946 86.4705 11.5982 84.7615C13.115 83.2393 14.0395 81.3526 15.0104 79.4966C17.5697 74.6015 20.5905 70.0408 24.5834 66.1846C28.6157 62.2894 33.3533 59.477 38.5072 57.3592C45.3614 54.543 52.5751 53.3683 59.9094 52.6563C70.4612 51.632 81.0283 50.6338 91.2748 47.6764C98.4956 45.5921 105.472 42.9284 111.81 38.7901C114.613 36.9589 116.893 34.5839 119.077 32.073C122.925 27.6469 126.504 22.9875 130.563 18.7461C133.479 15.6992 136.486 12.7406 139.999 10.3697C146.156 6.21527 152.727 2.89793 160.019 1.30698C167.834 -0.397871 175.666 -0.702308 183.369 2.02231C190.701 4.61521 196.662 8.88024 200.073 16.0969C201.939 20.0438 202.529 24.3038 202.551 28.6264C202.592 36.565 201.834 44.4829 201.903 52.4248C201.949 57.8057 201.784 63.1932 202.632 68.5351C203.669 75.0634 206.576 80.711 210.708 85.8024C213.484 89.2241 216.415 92.5124 219.255 95.8795C222.66 99.9175 225.806 104.135 228.071 108.948C232.05 117.406 231.377 125.671 227.032 133.769C224.488 138.511 221.21 142.685 217.375 146.468C215.751 148.07 214.015 149.536 212.304 151.02C210.755 152.364 209.057 153.571 207.238 154.602C205.798 155.418 204.537 156.536 203.09 157.39C197.843 160.484 192.45 163.268 186.834 165.64C183.473 167.06 180.025 168.232 176.573 169.374C173.812 170.288 170.994 171.041 168.136 171.683C165.779 172.211 163.418 172.807 161.04 173.249C159.764 173.486 158.422 173.257 157.105 173.459C154.484 173.86 151.85 174.195 149.189 174.207C148.922 174.209 148.655 174.231 148.516 174.521C146.829 174.203 145.151 174.46 143.47 174.506C145.149 174.658 146.828 174.727 148.504 174.515Z" fill="black"/>
</svg>
