<svg width="42" height="35" viewBox="0 0 42 35" fill="none" xmlns="http://www.w3.org/2000/svg">
<path fill-rule="evenodd" clip-rule="evenodd" d="M14.0936 1.50825C12.7263 1.45523 11.4928 1.79861 10.4614 2.74713L14.0936 1.50825ZM22.6725 29.2369C24.3322 29.0998 25.7728 28.4694 27.0407 27.4244C25.5843 28.0283 24.1284 28.6326 22.6725 29.2369ZM18.3586 34.4116C12.4525 34.6526 7.37149 31.6352 3.19717 26.8698C0.340007 23.6084 -0.287922 19.6378 0.106812 15.4387C0.568646 10.5238 2.90391 6.56068 6.53024 3.38748C10.0348 0.319909 14.1404 -0.739617 18.7268 0.518726C20.2892 0.947424 21.2563 2.03594 21.9157 3.44174C22.1096 3.85553 22.2169 4.33559 21.8416 4.71127C21.4841 5.07038 21.1557 4.69429 20.8156 4.58908C18.9356 4.00754 17.1731 4.58204 15.455 5.23358C12.3336 6.41737 9.99214 8.5708 8.02013 11.2337C5.80788 14.2209 4.86598 17.5499 4.86308 21.2151C4.86184 23.0285 5.64261 24.3589 7.09066 25.4072C11.5069 28.6045 16.4607 29.0535 21.5351 27.8755C26.7515 26.6643 31.0903 23.7716 34.2838 19.4643C37.5589 15.0472 37.8372 10.31 34.8541 5.57488C34.3488 4.77299 34.6065 4.00547 34.5435 3.23299C34.505 2.76494 34.9701 2.52719 35.5285 2.586C36.7632 2.71565 37.5585 3.43222 38.239 4.39399C39.7927 6.59133 40.5747 9.07571 41.0084 11.6901C41.7879 16.3876 41.0286 20.7794 38.345 24.7748C38.1603 25.0485 38.0004 25.3198 37.655 25.481C37.0821 25.7477 36.7036 26.1536 36.4815 26.842C36.3055 27.3867 35.6921 27.82 35.2124 28.2329C30.5697 32.2354 25.2625 34.5139 18.3586 34.4116Z" fill="black"/>
</svg>
