<svg width="60" height="57" viewBox="0 0 60 57" fill="none" xmlns="http://www.w3.org/2000/svg">
<path fill-rule="evenodd" clip-rule="evenodd" d="M54.9049 14.5654C54.7222 15.347 54.33 15.6655 53.6921 15.8009C53.5699 15.6369 53.4295 15.4481 53.3169 15.2969C52.7034 14.9212 52.1045 14.5546 51.5412 14.2096C51.5412 13.9205 51.5975 13.7101 51.5292 13.5547C51.397 13.2544 51.2181 12.9512 51.3262 12.6344C51.4935 12.1444 51.6708 11.6362 51.9583 11.2137C52.3878 10.582 52.9163 10.0179 53.3715 9.46326H53.9667C54.4766 9.90604 54.9472 10.2229 55.2938 10.6421C55.6434 11.0646 55.8696 11.5889 56.1715 12.1054C55.4388 12.9069 54.8014 13.6885 54.9049 14.5654Z" fill="black"/>
<path fill-rule="evenodd" clip-rule="evenodd" d="M33.1291 0.43284C33.2161 0.918698 33.7682 1.15396 33.7989 1.73095C33.813 1.99893 33.9497 2.21598 33.7736 2.50923C33.581 2.83107 33.4916 3.2142 33.3578 3.56959C33.3118 3.52982 33.2588 3.48385 33.2062 3.43787C32.8413 3.72615 32.7841 3.79533 32.529 4.45308C31.9462 4.60343 31.3096 4.76787 30.5855 4.95467C30.1535 4.65976 29.5459 4.58521 29.0484 4.25012C28.9316 3.41509 27.9665 2.85426 28.3161 1.85604C28.471 1.69698 28.6537 1.50976 28.8757 1.28154C28.988 1.34781 29.0994 1.43272 29.2245 1.48533C29.7654 1.71272 30.2082 1.4468 30.5934 1.13325C30.9981 0.803964 31.3431 0.400533 31.7432 0H32.5385C32.3736 0.255148 32.2212 0.491657 32.058 0.743905C32.6014 1.12331 32.659 0.390178 33.1291 0.43284Z" fill="black"/>
<path fill-rule="evenodd" clip-rule="evenodd" d="M58.2273 25.2746H58.5872C58.8586 25.6171 59.1228 25.9505 59.4281 26.3357C59.4823 26.9144 59.5399 27.5676 59.0072 28.0882C59.0524 28.5646 58.6912 28.9506 58.7475 29.4555C58.789 29.8221 58.6659 30.2354 58.5152 30.5838C58.4344 30.7718 58.1412 30.8679 57.9432 31.0059C57.1885 30.4935 56.5133 30.0346 56.0627 29.7285C55.3743 28.5575 55.7802 27.6695 56.0586 26.7698C56.4152 25.6159 56.7043 25.2451 57.8102 24.5969C57.9386 24.8061 58.0678 25.0157 58.2273 25.2746Z" fill="black"/>
<path fill-rule="evenodd" clip-rule="evenodd" d="M9.12599 17.0397C9.28214 17.8342 8.66291 18.6282 7.57729 19.1488C7.5164 19.0954 7.43895 19.0271 7.36729 18.9641C7.27451 19.0432 7.1925 19.1136 7.11463 19.1799C6.65321 18.9943 6.20421 18.8137 5.65167 18.5917C5.53528 18.3871 5.36297 18.0848 5.17285 17.7513C5.32776 17.6092 5.44208 17.4523 5.59617 17.3785C5.71628 17.3214 5.88528 17.3674 6.04557 17.3674C6.11682 17.0174 6.18599 16.6794 6.25475 16.3439C5.9909 15.8829 5.69723 15.3705 5.38492 14.825C5.6293 14.598 5.84137 14.4004 6.05261 14.2041H6.61966C7.53794 14.878 8.6335 15.3734 9.12599 17.0397Z" fill="black"/>
<path fill-rule="evenodd" clip-rule="evenodd" d="M24.05 42.521C24.2372 42.2605 24.3694 42.0758 24.5781 41.785C24.7711 41.7142 25.0971 41.5949 25.4736 41.4565C25.5266 41.7407 25.5652 41.9465 25.6203 42.2398C25.7818 42.1909 25.9334 42.1449 26.085 42.099C26.5621 41.9644 26.2855 42.6573 26.7531 42.7107C26.9585 42.7339 27.1151 43.1867 27.3541 43.5309C27.4705 44.0238 27.3201 44.5535 26.9337 45.0427C26.9937 45.1106 27.0629 45.1885 27.1424 45.2784C27.0364 45.3732 26.9266 45.4714 26.8024 45.5828C26.7411 45.529 26.6085 45.396 26.5978 45.4055C26.0084 45.9109 25.5465 45.3749 25.0557 45.2055C24.6324 45.0593 24.2352 44.8356 23.8379 44.6521C23.6048 44.1849 23.3716 43.7185 23.104 43.1829C23.0713 42.2062 23.1421 42.0302 23.8848 41.4802C23.939 41.8215 23.9862 42.118 24.05 42.521Z" fill="black"/>
<path fill-rule="evenodd" clip-rule="evenodd" d="M41.3143 40.2904C40.8781 40.1272 40.5542 40.0062 40.2427 39.8899V39.6388C39.7424 39.4777 39.2457 39.3183 38.7214 39.1497C38.5979 38.4919 38.4894 37.9108 38.3975 37.42C38.7773 36.9673 39.3224 36.9354 39.4673 36.3749C39.5245 36.1521 39.964 36.0274 40.3517 35.7802C40.4279 35.967 40.5008 36.1455 40.5894 36.3621C40.5828 36.3787 40.5165 36.5531 40.4502 36.7274C40.5053 36.7614 40.5608 36.7954 40.6159 36.8293C40.7282 36.6471 40.8408 36.4648 41.004 36.2002C41.4083 36.7399 41.8825 37.1309 42.0072 37.6122C42.1211 38.0504 42.4148 38.4741 42.221 39.0577C42.0275 39.6397 41.2683 39.5759 41.3143 40.2904Z" fill="black"/>
<path fill-rule="evenodd" clip-rule="evenodd" d="M16.1818 27.9764H15.0348C14.7813 28.3331 15.2192 28.9022 14.2951 29.1151C13.4886 29.0844 12.5873 28.6491 12.0054 27.6426V26.7301C12.321 26.4145 12.5277 26.2078 12.7696 25.9663C12.8131 26.0003 12.9208 26.0848 13.0293 26.1697C13.3536 25.7779 13.7869 26.0181 14.0747 25.9647C14.9822 26.419 15.8396 26.8183 16.1818 27.9764Z" fill="black"/>
<path fill-rule="evenodd" clip-rule="evenodd" d="M9.63205 46.7375H10.1113C10.1519 46.8589 10.1954 46.989 10.2645 47.1957C10.7057 47.1356 11.3021 47.1584 11.4955 47.532C11.7329 47.9905 12.3384 47.9565 12.4523 48.635V50.4745C11.7068 50.9512 11.2296 49.9787 10.5739 50.1352C10.1067 49.8391 9.92075 49.3155 9.46554 49.0119C9.21951 48.8479 9.03187 48.4652 9.06294 48.0742C9.08406 47.8153 9.06708 47.5535 9.06708 47.3025L9.63205 46.7375Z" fill="black"/>
<path fill-rule="evenodd" clip-rule="evenodd" d="M0.493529 34.5398C0.674534 33.8642 -0.259075 33.5846 0.0714575 32.9049C0.333647 32.6423 0.616546 32.3586 0.988499 31.9862C1.54477 32.265 2.19175 32.5305 2.77495 32.8974C3.37388 33.2744 3.57974 33.9632 3.91773 34.5642C3.80838 34.8454 3.70814 35.1043 3.59424 35.3976C2.47341 35.632 1.55513 35.0836 0.493529 34.5398Z" fill="black"/>
<path fill-rule="evenodd" clip-rule="evenodd" d="M36.0992 53.5642C35.6676 52.9951 35.0687 52.9798 34.4942 52.793C34.3471 52.5796 34.169 52.3212 33.9375 51.9853V50.2034C34.0821 50.0948 34.2904 49.9391 34.6458 49.6724C34.8993 49.7237 35.3441 49.8124 35.7306 49.8902C36.6932 50.3794 36.7011 51.3731 37.1186 52.2272C36.798 52.6476 36.455 53.0978 36.0992 53.5642Z" fill="black"/>
<path fill-rule="evenodd" clip-rule="evenodd" d="M16.3365 38.9991C16.4579 39.0301 16.5598 39.0562 16.7052 39.0931V40.1729C16.5006 40.4492 16.3258 40.6853 16.199 40.8563C15.5289 40.6745 14.9544 40.5188 14.3136 40.3452C14.2891 40.2048 14.2535 39.9977 14.2158 39.7798C14.1106 39.7566 14.0083 39.7339 13.8824 39.7065C13.5527 38.8404 14.377 38.2995 14.5132 37.5639C15.009 37.5879 15.1449 36.7649 15.789 37.0838C15.8031 37.1306 15.8329 37.2308 15.8909 37.4255C16.0338 37.4466 16.2342 37.4761 16.4418 37.5067L16.9516 38.0166C16.7512 38.3372 16.5445 38.6673 16.3365 38.9991Z" fill="black"/>
<path fill-rule="evenodd" clip-rule="evenodd" d="M46.8524 26.2312C47.0546 26.1434 47.2058 26.0775 47.3607 26.01C47.8266 26.802 48.7337 27.4241 48.5834 28.6315C48.2011 28.8436 47.7732 29.0809 47.3718 29.3033C47.0604 29.1439 46.751 28.9861 46.4991 28.8572C46.2059 28.4861 45.9404 28.1502 45.6455 27.7766C45.5593 27.2601 45.4653 26.6951 45.3667 26.1016C45.6061 25.9164 45.812 25.7578 46.1172 25.5221H46.7518C46.7824 25.7375 46.8118 25.9458 46.8524 26.2312Z" fill="black"/>
<path fill-rule="evenodd" clip-rule="evenodd" d="M49.6992 44.5564C49.6213 44.6997 49.5435 44.8426 49.4453 45.0232C49.7941 45.2055 50.0724 45.261 50.347 44.8459C50.3802 45.0584 50.4299 45.1702 50.4054 45.2618C50.3429 45.4937 50.2468 45.7162 50.1528 45.9742C50.5442 45.7551 50.5748 45.7236 50.806 45.268C50.9915 45.7742 51.2309 46.1817 51.2711 46.6084C51.3084 47.0043 51.1328 47.4206 51.0495 47.8365C50.9161 47.7785 50.7509 47.6654 50.7144 47.6973C50.3822 47.9914 50.0513 47.9479 49.715 47.7325C49.3774 47.5167 49.0974 47.6136 48.8737 47.9624C48.6956 47.8195 48.5863 47.7321 48.4541 47.6256C48.5138 47.3833 48.5751 47.1336 48.6397 46.8689C48.4608 46.7836 48.3087 46.7111 48.1294 46.6257C48.2292 46.178 48.3286 45.7311 48.4504 45.1847C48.7697 44.971 49.179 44.6981 49.5874 44.4247L49.6992 44.5564Z" fill="black"/>
<path fill-rule="evenodd" clip-rule="evenodd" d="M35.4982 15.0976C35.1636 14.8971 34.903 14.7306 34.633 14.5815C33.9338 14.1959 33.9351 14.1979 33.6911 13.4234C33.629 13.2266 33.5602 13.0278 33.4624 12.8472C33.3295 12.6016 33.1443 12.3829 33.0217 12.1331C32.9157 11.9182 32.8656 11.6759 32.7856 11.4298C32.9985 11.1531 33.2235 10.8802 33.5171 10.7596C35.0124 11.6659 35.0049 11.3983 35.9555 13.9709C35.8019 14.3495 35.6469 14.7306 35.4982 15.0976Z" fill="black"/>
<path fill-rule="evenodd" clip-rule="evenodd" d="M44.9151 3.34098C45.0203 3.35299 45.1984 3.37328 45.3831 3.39399C46.0446 4.23689 46.5379 5.1237 46.3126 6.16914C45.9647 6.21636 45.661 6.2582 45.3297 6.30334C45.0609 6.01175 44.7817 5.70896 44.6214 5.535C44.2321 5.38009 43.9065 5.35482 43.7976 5.1879C43.4111 4.59766 43.3278 3.91879 43.4426 3.16163C43.7131 3.00216 44.0154 2.82322 44.3774 2.6095C44.5601 2.85802 44.7216 3.07754 44.9151 3.34098Z" fill="black"/>
<path fill-rule="evenodd" clip-rule="evenodd" d="M44.3058 13.9825V14.6051C44.5795 14.6316 44.8554 14.6585 45.1735 14.6896V15.1995C46.2562 15.583 46.1266 16.4516 46.1088 17.3231C44.8086 17.5538 44.0175 16.7631 43.2661 15.9831C43.1572 15.5358 43.0574 15.1262 42.9385 14.6386C43.1928 14.1557 43.6397 13.9602 44.3058 13.9825Z" fill="black"/>
<path fill-rule="evenodd" clip-rule="evenodd" d="M19.6895 15.6116C19.9774 15.4385 20.2189 15.2931 20.4641 15.1456C21.1479 15.735 22.1242 15.9815 22.5309 16.72C22.6478 17.0833 22.7223 17.3144 22.8263 17.6375C22.7521 17.7862 22.6295 18.0318 22.5463 18.1987C22.3504 18.2894 22.2253 18.3474 22.0675 18.4207C21.746 18.2853 21.3774 18.1304 21.0088 17.9755C20.1924 17.4569 19.6365 16.7415 19.6895 15.6116Z" fill="black"/>
<path fill-rule="evenodd" clip-rule="evenodd" d="M18.1243 56.6039C17.8903 56.2609 17.6505 55.9105 17.4297 55.587C17.4852 55.3915 17.5312 55.2291 17.5771 55.0668C17.5341 55.0485 17.4906 55.0303 17.4475 55.0121C17.778 54.5735 18.1081 54.1348 18.418 53.7235C19.6506 53.9956 19.9228 55.0129 20.279 55.8687C20.1154 56.193 19.9422 56.5364 19.7919 56.8346C19.289 56.765 18.7597 56.6917 18.1243 56.6039Z" fill="black"/>
<path fill-rule="evenodd" clip-rule="evenodd" d="M14.4129 7.16037C14.673 6.90523 14.8594 6.72256 15.0656 6.52002C15.6149 6.5515 16.1198 6.48688 16.5936 7.0912C17.1458 7.79493 17.3997 7.8583 17.555 8.34292C17.5649 8.37481 17.6055 8.39635 17.632 8.42286C17.3454 8.68381 17.4245 9.32085 16.6711 9.21605C16.4197 8.96298 16.0324 8.80268 15.5387 8.73724C15.1472 8.68505 14.8097 8.23357 14.4116 7.93245C14.5284 7.76677 14.6084 7.65327 14.692 7.5344C14.6224 7.4412 14.5413 7.33227 14.4129 7.16037Z" fill="black"/>
</svg>
