<svg width="104" height="101" viewBox="0 0 104 101" fill="none" xmlns="http://www.w3.org/2000/svg">
<path fill-rule="evenodd" clip-rule="evenodd" d="M59.3067 84.0185C59.0134 83.8635 58.5508 83.6192 58.057 83.3582C58.1552 83.2029 58.2227 83.0956 58.3329 82.9212C58.2078 82.7792 58.033 82.6383 57.9369 82.4565C57.8417 82.2755 57.8247 82.0535 57.7746 81.8526C57.6379 81.8062 57.5074 81.7619 57.3877 81.7213V81.2313C57.5393 81.1592 57.693 81.0855 57.8864 80.9931C57.7845 80.7885 57.6921 80.6025 57.5828 80.3843C57.7911 80.2521 57.9949 80.0127 58.1892 80.021C58.8432 80.0475 59.5212 79.8193 60.1537 80.1631C60.2428 80.2119 60.3608 80.2211 60.466 80.2235C61.2302 80.2434 61.9804 80.2513 62.7487 80.4199C63.7034 80.6286 64.7112 80.5901 65.6937 80.6845C66.0428 80.7181 66.3825 80.8353 66.7296 80.9016C67.0415 80.9608 67.4093 80.7616 67.6615 81.1145C67.6881 81.1518 67.8032 81.1311 67.8765 81.1286C68.7857 81.0992 69.6381 81.3866 70.5154 81.5531C71.3177 81.7051 72.1258 81.8335 72.9169 82.0369C74.546 82.4548 76.1949 82.7858 77.8016 83.3106C78.4225 83.5135 79.0686 83.726 79.7264 83.8524C79.9016 83.8859 80.0491 84.0611 80.3995 84.3022H79.3147C79.311 84.3482 79.3072 84.3945 79.3031 84.4414C79.68 84.5809 80.0561 84.7209 80.4836 84.88C80.3957 85.0349 80.3125 85.1824 80.2383 85.3132C80.3158 85.4288 80.3941 85.5448 80.508 85.7142C80.1075 86.0004 79.7459 86.2593 79.3805 86.5202C79.3271 86.3877 79.2749 86.2585 79.197 86.065C79.0401 86.1359 78.8889 86.2034 78.7344 86.273C78.606 86.2228 78.4486 86.1611 78.2912 86.0998C78.1321 86.0385 77.9722 85.9772 77.8811 85.9424C77.6115 86.0137 77.3804 86.075 77.1824 86.1276C77.0005 85.9453 76.8672 85.8128 76.7346 85.6798C76.0669 86.1905 75.4618 85.5734 74.8218 85.5672C74.6918 85.5655 74.5634 85.4309 74.4333 85.4292C73.6381 85.4185 72.8958 85.1753 72.1333 84.9906C71.4353 84.8208 70.6952 84.8307 69.9757 84.7404C69.5528 84.6874 69.134 84.5983 68.7153 84.5172C68.2953 84.436 67.816 84.718 67.4449 84.3076C67.4101 84.269 67.3028 84.2972 67.2287 84.2922C66.0565 84.2173 64.8831 84.1547 63.7125 84.0607C63.2515 84.0234 62.7992 83.8851 62.3382 83.8495C61.8524 83.8114 61.3599 83.8205 60.8724 83.8466C60.4118 83.8714 59.9537 83.9447 59.3067 84.0185Z" fill="black"/>
<path fill-rule="evenodd" clip-rule="evenodd" d="M22.4607 82.1235C22.0378 81.8679 21.7371 81.6856 21.4451 81.5092C21.7938 80.5627 21.7938 80.5627 20.6606 80.0119C20.5276 80.1452 20.3946 80.2778 20.1884 80.4845C20.096 80.342 20.0036 80.1991 19.8715 79.9953C20.2261 79.6602 20.2161 79.2332 19.811 78.8359C20.142 78.5427 20.4203 78.2962 20.7811 77.9761C20.8967 77.9707 21.1497 77.9578 21.4144 77.945C21.4417 77.8174 21.4637 77.7143 21.4865 77.6074C21.5428 77.5784 21.6049 77.5188 21.6667 77.5196C21.9959 77.5242 22.302 77.3506 22.5916 77.3191C23.9216 77.1754 25.2048 76.6717 26.5766 76.8204C26.9092 76.8565 27.3731 76.5148 27.5848 76.6494C27.9484 76.8801 28.1551 76.5628 28.4384 76.5993C28.8083 76.6469 29.1919 76.6403 29.5634 76.5993C29.7593 76.5777 29.9416 76.4348 30.1147 76.3536C30.2294 76.4588 30.3102 76.5334 30.3251 76.5467C31.0819 76.294 31.7719 76.2977 32.6086 76.5843C32.6376 76.5661 32.7859 76.3959 32.9317 76.398C34.0065 76.4137 35.0797 76.487 36.1542 76.4953C36.8223 76.5007 37.4904 76.4108 38.1593 76.3938C38.3556 76.3888 38.5545 76.4874 38.8046 76.5516C38.822 76.5359 38.9012 76.4642 38.9765 76.3963C39.0619 76.4717 39.1439 76.5446 39.2375 76.6278C39.9188 76.2397 40.6338 76.405 41.3441 76.417C41.3441 76.5756 41.3441 76.6506 41.3441 76.726C41.1569 76.8221 40.9701 76.9182 40.7601 77.0255C40.7129 76.9841 40.6346 76.9149 40.5501 76.8399C39.7391 77.2678 38.832 76.9604 37.9729 77.2272C38.202 77.2479 38.4592 77.3436 38.6535 77.2707C38.9318 77.1667 39.0929 77.6364 39.4086 77.3444C39.5241 77.238 39.8567 77.3668 40.2361 77.402C40.2245 77.4082 40.3687 77.3241 40.4979 77.2483C40.623 77.3626 40.7038 77.4368 40.7845 77.5101C41.0256 77.1526 41.3839 77.3216 41.6954 77.3001C41.8072 77.4123 41.9136 77.5188 42.0636 77.6683C41.8014 77.7197 41.5728 77.7648 41.3441 77.8091C41.3462 77.8501 41.3478 77.8903 41.3499 77.9309C41.632 77.9516 41.9145 77.9719 42.3104 78.0005C42.1941 78.3766 42.0942 78.6984 41.9687 79.1039C40.9792 79.0054 39.9756 78.9047 39.1203 78.8194C38.7918 79.1329 38.5793 79.3363 38.3867 79.5198C37.8657 79.3906 37.6693 78.9739 37.4249 78.6081C37.2588 78.7771 37.1275 78.9109 37.0269 79.0141C36.6699 78.9515 36.3401 78.8935 36.0742 78.8471C35.8945 79.135 35.7636 79.3446 35.641 79.5409H34.8962C34.7873 79.6697 34.6672 79.8122 34.5375 79.9655H33.5078C33.473 79.8669 33.4275 79.736 33.3451 79.5012C32.8952 79.6337 32.4388 79.7683 32.0138 79.8938C31.7032 79.8541 31.3983 79.799 31.091 79.7787C30.7915 79.7588 30.4162 79.6623 30.2062 79.8006C29.8902 80.0085 29.5891 79.9812 29.2677 80.0011C28.9388 80.021 28.5548 79.9518 28.298 80.1001C28.0574 80.2393 27.8552 79.9348 27.6001 80.1962C27.4414 80.3577 26.9829 80.226 26.652 80.3867C26.8802 80.431 27.1088 80.4758 27.388 80.5304C26.8081 80.9678 26.3678 80.4613 25.8853 80.4236C25.3352 80.3809 24.948 80.8125 24.4161 80.791C24.5561 80.8593 24.6961 80.9272 24.8245 80.9898C24.7827 81.0362 24.7359 81.1265 24.6994 81.1223C24.5246 81.1029 24.3532 81.0536 24.1792 81.0229C23.9601 80.984 23.7389 80.9533 23.5012 81.0316C23.647 81.1016 23.7923 81.1712 24.0806 81.3096H22.9809C22.8016 81.5904 22.6516 81.8244 22.4607 82.1235Z" fill="black"/>
<path fill-rule="evenodd" clip-rule="evenodd" d="M23.2214 21.0886C23.4289 21.2207 23.6989 21.393 24.0233 21.6001C23.8257 21.6672 23.6948 21.712 23.5498 21.7613C23.5631 21.8122 23.5614 21.8971 23.5921 21.9108C23.8447 22.0263 24.1036 22.1278 24.3608 22.2339C24.073 22.6286 24.6321 22.9927 24.348 23.3319C24.167 23.5626 23.986 23.7929 23.7934 24.0381C22.7562 23.5564 21.6888 23.6521 20.6951 23.7933C19.9297 23.9027 19.1725 23.906 18.4146 23.9818C18.0314 24.0207 17.6814 24.3015 17.2668 24.1926C17.1065 24.1508 16.9553 24.0737 16.8 24.0133C16.554 24.6739 16.0105 24.6839 15.342 24.618C15.2521 24.3624 15.1598 24.1011 15.0922 23.9097C14.8151 23.6533 14.5716 23.4276 14.2696 23.1488C14.2286 23.2279 14.1321 23.4143 14.1139 23.4495C13.1397 23.643 12.3009 23.2913 11.5003 23.7718C11.4054 23.7022 11.292 23.6194 11.1693 23.5303C10.8169 23.616 10.4395 23.708 10.068 23.7991C9.96941 23.5941 9.89982 23.4479 9.80828 23.2569C9.74284 23.4371 9.69562 23.5672 9.61609 23.785C9.32864 23.7018 9.03497 23.6169 8.70361 23.5208C8.63982 23.6513 8.56692 23.8008 8.46544 24.0083C8.31343 23.9325 8.16225 23.8579 8.00319 23.7788C7.54385 24.1727 6.96272 23.8708 6.5216 23.9698C6.29959 23.8579 6.14923 23.7813 5.9732 23.6923C5.90402 23.8857 5.85722 24.0162 5.82201 24.1135C4.94805 24.2212 4.08941 24.3268 3.24651 24.4308C3.18686 24.594 3.13965 24.7244 3.07337 24.9063C2.98142 24.7174 2.91183 24.5737 2.83562 24.4167C2.34231 24.4039 2.24207 24.9386 1.82207 25.1258C1.5516 24.9717 1.24799 24.7986 0.936509 24.6213C0.917456 24.4179 0.900473 24.2398 0.881834 24.0456C0.568698 23.8882 0.00911243 24.0684 0 23.452C0.229882 23.2967 0.459349 23.1414 0.744319 22.9488C0.554201 22.8858 0.427041 22.8431 0.291183 22.7984C0.313136 22.3254 0.678462 22.1427 1.08935 21.9365C1.39254 21.9365 1.87343 22.0789 2.11657 21.8988C2.39201 21.695 2.6368 21.9456 2.90107 21.7389C3.14669 21.5471 3.60893 21.8453 3.93822 21.5272C4.03805 21.4303 4.35325 21.415 4.4655 21.4999C4.77491 21.7343 5.02882 21.4974 5.30509 21.4879C5.68077 21.475 6.05686 21.4846 6.43296 21.4846C6.77136 21.4846 7.19012 21.6109 7.43036 21.4572C7.87189 21.1752 8.31426 21.4324 8.75663 21.2899C9.19941 21.1478 9.73166 21.3123 10.2105 21.2435C10.6843 21.1756 11.1076 21.4431 11.6142 21.2899C12.0967 21.1445 12.6596 21.2878 13.1832 21.2505C13.6815 21.2145 14.1764 21.1197 14.6689 21.0294C15.1622 20.9395 15.6966 21.2447 16.17 20.8235C16.2959 20.7121 16.6062 20.8069 16.8319 20.8069C18.3359 20.8069 19.8402 20.7817 21.3434 20.8194C21.9498 20.8347 22.5533 20.9884 23.2214 21.0886Z" fill="black"/>
<path fill-rule="evenodd" clip-rule="evenodd" d="M57.3088 94.3124C56.9443 94.5348 56.7334 94.6632 56.5255 94.7895C56.8034 94.9088 57.1046 95.0385 57.4533 95.1884C57.3709 95.3922 57.3191 95.521 57.2383 95.7203C57.8307 96.2927 56.9488 96.605 56.8726 97.1787C56.3093 96.89 55.7655 96.6112 55.2001 96.3213C55.176 96.3917 55.1334 96.5163 55.0609 96.7297C53.3109 96.3465 51.5186 96.185 49.7036 96.1092C49.9318 96.0645 50.1605 96.0201 50.3883 95.9754C50.3866 95.9402 50.3846 95.9054 50.3825 95.8702H48.6383C48.594 95.9928 48.5468 96.1229 48.4946 96.267H48.0385C47.2495 96.267 46.4575 96.2281 45.6714 96.2782C44.9511 96.3237 44.237 96.4646 43.3643 96.5855C42.9492 96.7785 42.4754 97.2855 41.6412 97.1339C41.526 96.9948 41.3397 96.7698 41.1114 96.494C41.1417 96.4335 41.205 96.3097 41.2692 96.1837C40.9395 95.6917 40.5924 95.1735 40.2793 94.7063C40.4549 94.1587 40.6098 93.6749 40.8053 93.064C41.3289 92.6162 42.1208 92.4671 42.883 92.4464C45.024 92.388 47.1675 92.4149 49.3097 92.4365C49.6924 92.4398 50.0739 92.5794 50.4566 92.651C50.8406 92.7227 51.2689 92.4924 51.6205 92.8523C51.6951 92.929 51.9063 92.8722 52.0542 92.878C53.2421 92.9232 55.5294 93.5681 56.8026 94.2101C56.8929 94.2552 57.0068 94.2532 57.3088 94.3124Z" fill="black"/>
<path fill-rule="evenodd" clip-rule="evenodd" d="M74.8253 20.934C74.6546 20.9933 74.5237 21.0384 74.2897 21.1196C74.5631 21.3234 74.7872 21.4907 75.0502 21.6866C74.9744 21.8055 74.899 21.9232 74.8116 22.0598C74.9388 22.1203 75.0841 22.1903 75.2308 22.2607V22.5097C75.0883 22.5764 74.9354 22.648 74.7826 22.7197C74.8605 22.8075 74.9296 22.8862 74.9988 22.9649C74.8017 23.0668 74.6153 23.1637 74.3481 23.302C72.7584 23.201 71.0618 23.5145 69.3715 23.1798C69.516 23.2494 69.6606 23.319 69.8097 23.3911C69.1362 23.8658 68.5029 23.0722 67.8431 23.3393C67.8265 23.3695 67.7934 23.4031 67.8004 23.4209C67.8128 23.4532 67.853 23.4731 67.8754 23.5029C67.9122 23.553 67.9441 23.6069 68.0622 23.7895C67.527 23.7026 67.0983 23.633 66.6034 23.5522C66.728 23.6964 66.7951 23.7738 66.8631 23.8525C66.4919 24.2622 66.1672 23.6781 65.7128 23.7622C65.8135 23.8981 65.8653 23.9685 65.9564 24.0915C65.3777 24.2791 64.8194 24.5645 64.2387 24.6208C63.5751 24.6859 63.2757 25.3788 62.6784 25.3478C62.5566 25.8075 62.4489 26.2147 62.3342 26.6471H61.5323C61.4474 26.5626 61.2428 26.4487 61.2502 26.3506C61.3032 25.6141 60.4927 25.2575 60.5254 24.4875C60.5809 23.1732 61.1102 22.1543 62.3599 21.4907C63.2301 21.0285 64.1459 20.7066 65.1396 20.5538C65.712 20.466 66.2832 20.4084 66.8523 20.3285C67.4239 20.2481 67.9814 20.0998 68.5692 20.1243C69.1325 20.1475 69.6979 20.1293 70.2624 20.1293C70.8643 20.1293 71.474 20.0696 72.0667 20.1437C72.874 20.244 73.6705 20.4366 74.4657 20.6151C74.5912 20.6433 74.6865 20.8061 74.8253 20.934Z" fill="black"/>
<path fill-rule="evenodd" clip-rule="evenodd" d="M49.426 65.7361H48.6569C48.5351 65.2192 48.4216 64.7379 48.299 64.2173H47.7763C47.3985 63.5902 48.1246 63.0832 47.8753 62.5468C48.2791 61.9582 48.8718 61.841 49.4712 61.6915C50.674 61.392 51.9125 61.3775 53.1182 61.1932C54.6462 60.9604 56.1585 60.991 57.6624 61.0565C59.4775 61.1356 61.2987 61.3684 63.0483 61.9325C63.2115 61.9851 63.3436 62.1355 63.537 62.2742C63.3623 62.3318 63.2351 62.3741 63.0939 62.4209C63.1026 62.471 63.0922 62.5501 63.1228 62.5716C63.3834 62.7593 63.651 62.937 63.9384 63.1325C63.8614 63.2265 63.7992 63.3027 63.7396 63.3756C63.8204 63.5177 63.9036 63.6639 63.9956 63.8271C63.7918 63.9223 63.6394 63.9936 63.4878 64.0648C63.5656 64.1547 63.6331 64.2322 63.7052 64.315C63.2123 64.53 62.8259 64.7578 62.1983 64.4587C61.5812 64.1642 60.7793 64.2202 60.0557 64.1945C59.0028 64.1572 57.9474 64.1961 56.8933 64.1796C56.4658 64.1729 56.0284 64.2881 55.6159 63.9795C55.4672 63.8681 55.1441 63.9894 54.8537 64.0077C54.9813 64.156 55.0484 64.2334 55.2012 64.4111C54.6678 64.4111 54.2237 64.4422 53.7863 64.4012C53.4181 64.3668 53.0573 64.2491 52.5301 64.1319C52.7189 64.3585 52.7827 64.4351 52.8755 64.5465C52.3424 64.7835 51.8499 64.5817 51.2042 64.3071C51.3682 64.5788 51.4275 64.6762 51.5579 64.8928C51.1168 64.7996 50.7668 64.7263 50.3062 64.6294C50.4603 64.812 50.5249 64.8887 50.6483 65.0353C50.365 65.0626 50.1281 65.0858 49.8369 65.114C49.7118 65.3037 49.5602 65.5332 49.426 65.7361Z" fill="black"/>
<path fill-rule="evenodd" clip-rule="evenodd" d="M36.4497 63.6951C36.3023 63.5476 36.1958 63.4412 36.002 63.2473C35.9361 63.4615 35.8699 63.6764 35.8579 63.7158C35.138 63.6073 34.6587 63.5352 34.0093 63.4379C34.1882 63.6694 34.2445 63.7427 34.3448 63.8732C34.2201 63.9125 34.112 63.9473 34.0026 63.9821C33.9124 63.799 33.8378 63.6487 33.7119 63.3935C33.5595 63.6019 33.4509 63.7506 33.3345 63.91C32.589 63.8355 31.8078 63.7576 31.0763 63.6851C31.0005 63.8081 30.9653 63.8417 30.9719 63.8599C30.984 63.8922 31.0245 63.9121 31.0469 63.9419C31.085 63.9921 31.1182 64.0463 31.2345 64.219C30.5602 64.1159 29.9866 64.0281 29.2642 63.9171C29.4489 64.135 29.5148 64.212 29.5806 64.2899C29.142 64.6705 28.734 64.2385 28.1984 64.1441C28.3227 64.3524 28.3803 64.4485 28.454 64.5728C27.9205 64.8478 27.4376 64.1031 26.8991 64.5222C27.0424 64.5918 27.1837 64.661 27.3961 64.765C26.9732 64.8573 26.6092 64.9364 26.0777 65.052C25.5621 64.8142 25.1503 64.3093 25.0219 63.5302C24.8534 63.5174 24.6757 63.5041 24.4019 63.4838C24.4396 63.22 24.4768 62.9619 24.5278 62.6103C24.5315 62.6153 24.447 62.5042 24.3774 62.4127C24.43 62.3017 24.4462 62.2259 24.4913 62.1779C25.1284 61.5052 25.8537 61.1034 26.825 60.9738C27.4347 60.8922 28.0688 60.9282 28.6495 60.775C29.97 60.4266 31.2987 60.6134 32.6221 60.5782C33.9372 60.543 35.2548 60.5372 36.5695 60.5807C37.5764 60.6147 38.5116 60.9315 39.3297 61.5599C39.234 61.6642 39.1599 61.745 39.0787 61.8337C39.0816 62.2537 39.4154 62.3348 39.7542 62.4603C39.6905 62.5419 39.6329 62.6157 39.5277 62.7499C39.6917 62.8609 39.8698 62.9814 40.0061 63.0738C39.8814 63.3041 39.799 63.4553 39.6851 63.6657C39.538 63.7402 39.3206 63.8512 39.1052 63.961C38.2656 63.4818 37.3544 63.8703 36.4497 63.6951Z" fill="black"/>
<path fill-rule="evenodd" clip-rule="evenodd" d="M53.8361 1.95079C53.7868 2.28298 53.7558 2.49091 53.7234 2.71044C53.3043 2.38695 52.9427 3.01032 52.4402 2.53937C52.4651 2.61766 52.4245 2.48967 52.3715 2.3215H51.6201C51.5091 2.45736 51.3753 2.62097 51.1848 2.85375C51.0949 2.59777 51.0489 2.4673 50.9818 2.27718C50.7959 2.28712 50.5917 2.29789 50.3245 2.31239C50.462 2.46481 50.5329 2.54434 50.6579 2.68351C50.3291 2.71209 50.0474 2.73653 49.7807 2.76014C49.7525 2.80902 49.7185 2.84257 49.7252 2.86079C49.7376 2.89268 49.7782 2.91257 49.8001 2.9428C49.8378 2.99292 49.8701 3.04677 49.9161 3.11635C48.9485 3.42949 48.0481 2.69055 47.0101 3.03558C47.0672 3.1176 47.1289 3.20623 47.2474 3.37647C46.9388 3.37647 46.5781 3.48541 46.4144 3.35245C46.1291 3.1205 45.8155 3.12091 45.5782 3.20251C44.6011 3.53925 43.5312 3.39718 42.5711 3.84038C42.3296 3.95221 41.9639 3.79481 41.6056 3.75547C41.3935 4.11002 41.1541 4.2376 40.4123 4.2757C40.5978 4.06032 40.7386 3.89629 40.9313 3.67263H40.2892C40.2458 3.43446 40.2081 3.22777 40.1671 3.0041C39.962 2.97221 39.7549 2.94032 39.5449 2.9076C39.6423 2.49008 39.7301 2.11357 39.8328 1.67245C40.3663 1.28268 41.0754 1.09132 41.7497 0.808424C42.1958 0.62162 42.7397 0.949667 43.0776 0.473336C43.836 0.397951 44.5998 0.355702 45.3524 0.241383C47.9458 -0.153765 50.556 0.112566 53.1552 0.000731975C53.588 -0.0179071 54.0088 0.328365 54.4355 0.021442C54.8157 0.489489 55.4055 0.0993119 55.8686 0.386353C56.2356 0.61375 56.7322 0.633217 57.269 0.769489C57.0085 0.891679 56.8556 0.963336 56.6697 1.05032C56.8051 1.52292 57.3353 1.45831 57.5809 1.74908C57.4488 1.80292 57.32 1.85552 57.1915 1.90771C57.2715 2.05186 57.3506 2.19476 57.4318 2.34055C57.0259 2.60399 56.6369 2.69428 56.2045 2.76511C55.787 2.83345 55.4221 2.38736 55.0273 2.71913C54.6749 2.49215 54.3224 2.26434 53.8361 1.95079Z" fill="black"/>
<path fill-rule="evenodd" clip-rule="evenodd" d="M45.0072 13.5509C44.8398 13.821 44.7661 13.9394 44.6878 14.0658C44.9558 14.2468 45.1844 14.4013 45.4168 14.5582C45.3547 14.6332 45.3112 14.6862 45.2333 14.7811C45.2855 14.8962 45.365 15.0313 45.406 15.1775C45.435 15.2806 45.4118 15.3982 45.4118 15.5751C45.0917 15.7474 44.7533 15.9292 44.559 16.034C43.9886 16.1293 43.7671 15.455 43.3002 15.8017C42.903 15.3767 42.5319 15.8187 42.1484 15.8278C41.0959 15.8535 40.0413 15.8613 38.9901 15.8232C38.6107 15.8095 38.2366 15.6447 37.8382 15.5432C37.7727 15.7342 37.728 15.8655 37.6828 15.9964C37.3817 16.3194 37.1133 15.7342 36.7318 15.9922C36.4713 16.1678 36.0078 16.0879 35.6421 16.051C35.307 16.0175 34.9806 15.8891 34.513 15.7661C34.6488 16.0075 34.7047 16.1074 34.8327 16.3343C33.977 16.1413 33.1917 16.5046 32.3914 16.0895C32.0737 15.9247 31.5995 16.0622 31.1886 16.2271C31.5614 16.266 31.9342 16.3049 32.3069 16.3439C32.3053 16.3799 32.304 16.4164 32.3028 16.4524H30.7644C30.6704 16.3497 30.4803 16.1417 30.3279 15.9752C30.4049 15.7868 30.4666 15.6356 30.5441 15.4446C30.3623 15.4074 30.2591 15.3862 30.1046 15.3543C30.0744 15.1779 30.0388 14.9712 30.004 14.7691C29.8636 14.7194 29.7331 14.6734 29.603 14.6278V14.0653C30.3465 14.0426 31.1045 14.019 31.8625 13.9953C31.8629 13.9427 31.8629 13.8906 31.8629 13.8384H29.9456C29.6589 13.4184 30.0591 13.1495 30.1469 13.1645C30.6182 13.2456 30.9691 12.9048 31.4077 12.8923C33.4833 12.8331 35.5576 12.7449 37.6323 12.6765C38.196 12.6579 38.7618 12.65 39.3243 12.6786C40.4973 12.7374 41.6766 12.766 42.8384 12.9209C43.5525 13.0158 44.2392 13.3198 45.0072 13.5509Z" fill="black"/>
<path fill-rule="evenodd" clip-rule="evenodd" d="M14.4333 3.94091C13.9428 4.16996 13.5705 4.34434 13.196 4.51913C13.0631 4.38576 12.9301 4.2528 12.7458 4.06848C12.6965 4.21056 12.6572 4.32322 12.5988 4.49138H11.5778C11.5475 4.37624 11.521 4.27434 11.4742 4.09665C11.2605 4.16209 11.1685 4.36961 10.9763 4.51168H10.2333C10.1914 4.39363 10.1446 4.26274 10.0585 4.02044C9.98805 4.2089 9.94829 4.31369 9.90024 4.44251C9.33279 4.68564 8.71066 4.80866 8.04421 4.78008C7.73936 4.76766 7.42788 4.90931 7.11391 4.98263C7.0435 4.91801 6.96397 4.84553 6.88859 4.77635C6.80202 4.85257 6.72001 4.92588 6.60569 5.02736C6.33314 4.88695 6.05439 4.74322 5.84066 4.63304C5.49811 4.69517 5.19243 4.75067 4.84285 4.81363C4.79314 4.65209 4.75338 4.52369 4.70533 4.36712C4.07243 4.3257 3.63669 3.89369 3.15332 3.53375C3.24941 3.43766 3.32894 3.35813 3.48841 3.19825H4.48042C4.48581 3.156 4.49119 3.11375 4.49616 3.07109C4.12794 2.9634 3.7593 2.85529 3.30657 2.72274C3.49255 2.52393 3.58947 2.42121 3.72119 2.28079C4.66184 2.28079 5.63521 2.2957 6.60817 2.27458C7.10936 2.2634 7.63373 2.40837 8.10012 2.06085C8.34326 1.87943 8.60421 2.39221 8.83575 2.12629C9.09876 1.82434 9.27646 2.44813 9.57592 2.13209C9.69894 2.00203 10.109 2.16647 10.3869 2.15612C10.7543 2.14328 11.1201 2.06085 11.4866 2.05961C13.9333 2.0505 16.3817 2.10269 18.8263 2.03393C19.9981 2.00162 21.164 1.75434 22.3466 1.8289C22.8411 1.4818 23.3833 1.64085 23.9404 1.5957C23.7395 2.26712 23.163 1.94073 22.5773 2.22322C23.2462 2.26008 23.6745 2.28411 24.2921 2.31848C24.0121 2.47091 23.8638 2.55209 23.6521 2.66766C23.7731 2.82754 23.8862 2.9605 23.9794 3.10629C24.0655 3.24132 24.1301 3.38961 24.2883 3.69487C23.9723 3.53334 23.8336 3.46209 23.6178 3.35109C23.5453 3.52712 23.4844 3.67499 23.4198 3.83156C23.3063 3.76612 23.1936 3.7015 23.0333 3.60872C22.9376 3.67458 22.8221 3.75452 22.6978 3.84026C22.6349 3.78351 22.5562 3.71144 22.477 3.63979C22.3457 3.77109 22.2124 3.90405 22.0633 4.05316C21.8326 3.93428 21.5956 3.81209 21.3363 3.67872C21.2812 3.79304 21.2113 3.93677 21.1425 4.07842C21.0609 4.08215 20.9872 4.08547 20.8803 4.09002C20.8385 3.96949 20.7937 3.84109 20.7362 3.67458H20.1795C20.1488 3.7628 20.1033 3.89411 20.0283 4.11198C19.7123 4.03825 19.3867 3.96245 19.0578 3.88541C19.0044 4.01919 18.953 4.14884 18.871 4.35387C18.7004 4.09458 18.5554 3.87422 18.415 3.6605C18.2758 3.87795 18.1275 4.10949 18.0095 4.29381C17.4168 4.41186 17.2059 4.10493 17.0887 3.57476C16.9114 3.82203 16.7785 4.00718 16.5896 4.27061H15.663C15.6378 4.19482 15.5943 4.06558 15.54 3.90529H15.1043C15.2157 4.037 15.2803 4.11446 15.347 4.19274C15.1805 4.44458 14.9059 4.35925 14.4333 3.94091Z" fill="black"/>
<path fill-rule="evenodd" clip-rule="evenodd" d="M69.2158 76.5757C69.0965 76.8226 68.9776 77.0686 68.8086 77.4199C68.7312 77.19 68.6976 77.091 68.6314 76.8955C68.4118 76.7663 67.9165 76.8951 67.7963 76.4908C67.7354 76.2858 67.8593 76.0257 67.9057 75.7548C67.7089 75.6653 67.424 75.5357 67.0611 75.3708C67.1179 74.7943 67.1767 74.1904 67.2454 73.4895C67.2612 73.5073 67.1883 73.4249 67.0234 73.2385C67.301 73.2895 67.4741 73.3218 67.7197 73.3665C67.7429 73.1681 67.7744 72.9059 67.8199 72.5203C68.3621 72.2867 68.9578 71.993 69.5799 71.7718C70.2153 71.5465 70.9513 71.5693 71.537 71.3183C72.2109 71.0288 72.9635 71.5266 73.5434 70.972C73.6179 71.0408 73.6987 71.1153 73.7791 71.1895C74.5843 70.7728 75.4429 71.0399 76.4747 70.9323C76.2899 71.1402 76.217 71.2222 76.1454 71.303C76.2154 71.3817 76.285 71.4599 76.4407 71.6356C75.7436 71.5912 75.1281 71.8166 74.5511 71.4094C73.9054 71.7346 73.2311 71.928 72.4872 71.8725C71.6153 71.807 70.8121 72.0854 69.8864 72.4569C70.19 72.6852 70.3959 72.8401 70.6249 73.0124C70.6725 72.8732 70.7173 72.7419 70.7616 72.611C70.8275 72.5886 70.8921 72.5572 70.96 72.546C71.4546 72.4623 71.9508 72.6537 72.4652 72.3488C72.8326 72.1314 73.415 72.4851 73.8238 72.0949C73.8433 72.0763 73.8967 72.0949 73.9344 72.0924C74.9947 72.017 76.0543 71.9255 77.1159 71.8762C77.4273 71.8621 77.7902 71.73 78.0536 72.0709C78.0975 72.1276 78.2843 72.1276 78.3742 72.0862C79.4101 71.6161 80.5007 71.9818 81.5582 71.8683C81.67 71.8559 81.7839 71.8667 81.9011 71.8667C82.0308 71.9984 82.1625 72.1322 82.3315 72.3041H83.6615C83.8305 72.4544 83.9407 72.553 84.0778 72.6756C83.9162 72.7315 83.7853 72.7771 83.5861 72.8463C83.8251 73.0012 84.0343 73.1375 84.337 73.3346C83.9253 73.6324 83.5629 73.8942 83.2237 74.1398C82.6094 73.9501 82.1078 73.2882 81.4302 73.8872C81.257 73.4759 81.0951 73.0467 80.4701 73.2758C80.456 73.362 80.4398 73.4643 80.4228 73.5699C80.5815 73.6469 80.7269 73.7169 80.8901 73.7952C80.7973 73.8399 80.7368 73.8764 80.6714 73.8988C80.2659 74.0379 79.9486 73.364 79.4615 73.8192C79.1587 74.1013 78.6554 73.9124 78.2239 74.0756C77.6746 74.2827 76.9887 74.1257 76.1027 74.1257C76.5128 73.9344 76.6631 73.864 76.9593 73.7256H75.7312C75.7991 73.9041 75.8637 74.0752 75.9544 74.315H74.5942C74.3055 74.4625 74.1547 74.5399 73.9021 74.6692C74.035 74.4724 74.4774 74.0392 74.5491 74.0002C74.1154 73.6714 73.8312 74.1502 73.4199 74.1887C73.5015 74.2914 73.5599 74.366 73.6813 74.5201C73.1826 74.6186 72.7195 74.723 72.2519 74.8001C71.8758 74.8614 71.5941 75.0316 71.3647 75.4085C71.1617 75.3493 70.9488 75.2872 70.6991 75.2147C70.1825 75.6123 69.6689 76.0083 69.1553 76.4043C69.1752 76.4618 69.1955 76.5186 69.2158 76.5757Z" fill="black"/>
<path fill-rule="evenodd" clip-rule="evenodd" d="M20.4293 47.8143C20.5573 47.8777 20.6849 47.9415 20.8125 48.0053C20.7947 48.0513 20.7773 48.0981 20.7594 48.1444C20.3925 48.1444 19.9368 48.009 19.6792 48.1768C19.3184 48.4124 19.106 48.0894 18.8293 48.1436C18.4793 48.2115 18.1371 48.079 17.759 48.2977C17.4123 48.4982 16.9061 48.4849 16.5847 48.1871C16.231 48.2538 15.9179 48.3006 15.6109 48.3735C15.3338 48.4394 15.0679 48.8411 14.7863 48.3826C14.5655 48.7533 14.3228 48.5611 14.0817 48.4095C13.8241 48.7492 13.4583 48.557 13.1423 48.5893C12.8445 48.62 12.5376 48.5682 12.2406 48.6026C11.8173 48.6518 11.3761 48.6862 10.9843 48.8366C10.4326 49.0478 9.86347 49.0515 9.28815 49.1265C9.91773 49.3539 10.6074 49.392 11.1794 49.2127C11.5861 49.0851 11.9606 49.0996 12.3487 49.0499C12.9199 48.9774 13.4592 48.7724 14.0618 48.7968C14.5903 48.8184 15.1785 49.0445 15.6731 48.6257C15.9162 48.8316 16.0893 48.8627 16.4016 48.6311C16.6013 48.4829 17.0673 48.5715 17.3502 48.697C17.5817 48.7993 17.8281 48.5168 18.0344 48.808C18.0978 48.8971 18.4205 48.8838 18.5745 48.8117C19.3868 48.4302 20.2028 48.5649 21.0308 48.7165C21.1621 48.7405 21.3207 48.591 21.459 48.6038C22.3773 48.69 23.3105 48.4062 24.223 48.7372C24.37 48.7902 24.5858 48.6113 24.7726 48.603C25.261 48.5823 25.7526 48.6233 26.2397 48.5897C26.9397 48.5413 27.6012 48.6585 28.3973 49.0052C27.8874 49.0325 27.5304 49.052 27.1729 49.0714L27.1365 49.1795C27.233 49.211 27.3274 49.2508 27.426 49.2719C27.5292 49.2934 27.6356 49.2972 27.7715 49.3121C27.6555 49.5461 27.5557 49.7474 27.4554 49.9487C27.3626 49.8659 27.281 49.7926 27.163 49.6873C27.0238 49.7619 26.8772 49.8406 26.637 49.9694C26.6912 49.6434 26.7343 49.3862 26.7886 49.0636C26.7633 49.0383 26.6568 48.9318 26.5657 48.8407C26.0687 48.9405 25.5849 49.0383 25.075 49.1406C25.181 49.2549 25.2763 49.3572 25.3658 49.4533C25.5443 49.3825 25.7162 49.3137 25.8757 49.2504C26.2025 49.7979 25.6238 49.6704 25.4892 49.8617C25.5754 50.0402 25.6462 50.1865 25.7663 50.4346C25.57 50.3803 25.3517 50.3637 25.3422 50.3103C25.2506 49.7955 24.957 49.6414 24.4769 49.7615C24.426 49.8932 24.3758 50.0224 24.2673 50.3012C24.1054 49.9276 23.991 49.6637 23.8494 49.3373C24.182 49.2889 24.3895 49.2586 24.5966 49.2288C24.5987 49.1829 24.6008 49.1365 24.6032 49.0909C24.2694 49.0718 23.9351 49.0528 23.5242 49.03C23.5652 49.1539 23.5901 49.2297 23.6439 49.3929C23.5909 49.5155 23.5019 49.7201 23.3979 49.9603C22.8532 49.8924 22.2763 50.0854 21.6239 49.7292C21.7295 49.993 21.7987 50.1649 21.8803 50.3695H21.2921C21.1795 50.0415 21.0548 49.6786 20.9231 49.2947H20.5884C20.6741 49.4956 20.7466 49.6658 20.8224 49.8439C20.397 49.9508 20.0255 50.0444 19.5637 50.1604C19.4427 50.0568 19.2584 49.8994 19.072 49.7395C18.9328 50.0349 18.7994 50.3186 18.6508 50.635C18.5716 50.4731 18.5021 50.3306 18.4308 50.1852C18.1065 50.8069 17.5995 50.9473 16.9422 50.8028C17.0507 50.6185 17.1356 50.4739 17.281 50.2262C16.8991 50.2047 16.6216 50.1881 16.301 50.1699V50.8272C15.3823 50.942 14.493 51.0526 13.5975 51.1644C13.559 51.2779 13.5138 51.4092 13.4476 51.603C12.8006 51.1221 12.0803 51.3731 11.3906 51.2944C11.3227 51.1544 11.2527 51.0115 11.1616 50.8252C11.0953 51.0053 11.0473 51.1358 10.9988 51.2671C10.8526 51.1946 10.7068 51.1221 10.4728 51.0057C10.4284 51.2655 10.3941 51.4639 10.3808 51.5421C10.0047 51.9634 9.69241 52.313 9.35525 52.6907C9.28815 52.5114 9.23927 52.3809 9.18377 52.2318C9.03134 52.4559 8.88347 52.6737 8.7298 52.9003C8.38726 52.4248 8.1172 51.9688 8.64034 51.4883C8.49205 51.3326 8.39016 51.2253 8.28205 51.1122C8.16898 51.1772 8.05673 51.2418 7.87572 51.3466C7.76306 51.2497 7.6301 51.1354 7.45075 50.9813C7.5075 50.2975 7.29584 49.5577 7.73158 48.8995C8.59726 48.3201 9.63442 48.3984 10.5788 48.13C11.5986 47.84 12.6241 47.946 13.6501 47.92C13.9081 47.9133 14.1351 47.9195 14.365 47.7124C14.4897 47.5998 14.8107 47.6495 15.0203 47.7075C15.1619 47.7464 15.2522 48.0144 15.4237 47.7452C15.9249 47.9158 16.3996 47.6134 16.9099 47.6756C17.5034 47.7476 18.1123 47.6921 18.7141 47.6921H20.4078C20.4148 47.7331 20.4223 47.7733 20.4293 47.8143Z" fill="black"/>
<path fill-rule="evenodd" clip-rule="evenodd" d="M40.4182 32.8958V32.3785C40.1916 32.3437 39.9845 32.3122 39.6847 32.2662C39.8263 32.0256 39.9294 31.8504 39.9613 31.7965C40.6232 31.2568 41.223 32.4452 41.6538 31.717C42.1189 31.7816 42.4648 31.8694 42.8106 31.8711C45.669 31.8823 48.5274 31.8508 51.3854 31.8905C52.5187 31.9067 53.6503 32.0711 54.8589 32.1747L55.1033 32.4191C55.0602 32.4642 55.0176 32.5491 54.9741 32.5495C54.0715 32.5574 53.169 32.5537 52.266 32.5566C52.0912 32.5574 51.916 32.5752 51.7404 32.6535C52.1625 32.8337 52.6023 32.7678 53.0335 32.7786C53.4846 32.7898 53.9402 32.743 54.3863 32.7923C54.7906 32.8374 55.1837 32.9778 55.706 33.107C55.4388 33.2023 55.3079 33.2491 55.0677 33.3349C55.2768 33.4227 55.409 33.4786 55.5643 33.544C55.5705 33.6791 55.5771 33.8244 55.5842 33.9827C55.3845 34.1086 55.1977 34.2821 54.9782 34.3492C54.7719 34.4122 54.5296 34.3807 54.306 34.3588C53.8508 34.3144 53.3603 34.5124 52.9466 34.1703C52.5286 34.5563 52.0225 34.3165 51.5586 34.3542C51.0731 34.3931 50.5815 34.3625 50.0186 34.3625C49.9175 34.4996 49.785 34.6798 49.6383 34.879C49.3509 34.7937 49.1193 34.7245 48.7511 34.6147C48.7275 34.6301 48.5767 34.8069 48.4367 34.7986C48.0089 34.7734 47.5802 34.9146 47.1452 34.6545C46.7021 34.3898 46.1818 34.7034 45.6649 34.6251C44.7897 34.4921 43.8797 34.5886 43.0045 34.5886C42.939 34.7738 42.8931 34.9047 42.8384 35.0596C42.7195 35.0273 42.5923 35.0298 42.5252 34.9676C42.2556 34.717 42.0216 34.3915 41.5668 34.698C41.7267 34.7738 41.8737 34.8438 42.0589 34.932C41.4769 35.1967 40.989 34.9805 40.4679 34.746C40.4534 34.5862 40.4377 34.4081 40.4219 34.2304C40.289 34.097 40.156 33.964 40.0052 33.8137C40.0661 33.7395 40.1279 33.6637 40.2252 33.5449C39.9965 33.3995 39.7679 33.2537 39.4858 33.0743C39.6035 32.9012 39.7215 32.7272 39.8321 32.5644C40.004 32.6618 40.1506 32.7446 40.4182 32.8958Z" fill="black"/>
<path fill-rule="evenodd" clip-rule="evenodd" d="M21.8764 36.096C21.7467 36.1453 21.6167 36.1946 21.4228 36.2683C21.5578 36.415 21.6664 36.5322 21.7745 36.6498C21.8884 36.5359 21.9414 36.4829 22.0205 36.4038C22.1444 36.6424 22.2636 36.8723 22.3742 37.0847C22.2674 37.2939 22.1725 37.4795 22.0661 37.6886C21.7674 37.7777 21.4319 37.9633 21.0977 37.9608C20.22 37.9546 19.3994 38.1231 18.5677 38.4036C18.1113 38.5576 17.5517 38.3555 17.0903 38.6554C16.1993 38.51 15.3614 38.9482 14.475 38.8902C14.258 38.8762 13.9883 39.0779 13.8231 39.0033C13.5124 38.8625 13.3459 39.1972 13.0593 39.1243C12.8344 39.0667 12.5291 39.0062 12.3514 39.2949C11.4054 39.2601 10.5509 39.7029 9.62347 39.8123C8.83731 39.9046 8.07891 40.2352 7.40625 40.4319C7.19004 40.7347 7.0314 40.9575 6.85785 41.2007C6.71081 41.1133 6.58737 41.0818 6.5385 41.0039C6.33595 40.68 6.1566 40.3428 5.96524 40.0044H5.42471C5.46282 39.7273 5.49802 39.4697 5.5469 39.1123C5.55394 39.1209 5.46613 39.0149 5.40234 38.9379C5.63264 38.1927 6.2995 38.0979 6.80276 38.0125C7.68128 37.863 8.51838 37.5569 9.42714 37.484C10.4158 37.4037 11.4083 37.1866 12.3953 37.0247C12.9719 36.9302 13.541 36.8462 14.1147 36.8636C14.4357 36.8735 14.6568 36.6854 14.9269 36.6362C15.2545 36.5761 15.6016 36.6225 15.94 36.6217C16.2399 36.6204 16.7245 36.7265 16.8041 36.5927C17.017 36.2352 17.3384 36.772 17.49 36.4328C17.5119 36.3835 17.695 36.4059 17.8035 36.3959C18.3403 36.3475 18.866 36.4431 19.4168 36.2025C19.8849 35.9979 20.4859 36.2791 21.014 35.9652C21.2294 35.8372 21.5844 35.944 21.876 35.944C21.8764 35.9946 21.8764 36.0451 21.8764 36.096Z" fill="black"/>
<path fill-rule="evenodd" clip-rule="evenodd" d="M74.2433 61.2228H73.4691V60.4802C73.3295 60.3485 73.2318 60.2288 73.108 60.1476C73.0255 60.0933 72.9066 60.095 72.7778 60.0656V58.6627C73.1494 57.7775 73.9463 57.225 74.7921 56.7321C75.8798 56.0983 77.0395 55.5827 78.2362 55.2426C79.1118 54.9941 80.0164 54.7725 80.9446 54.6499C81.7088 54.5492 82.4863 54.5931 83.2223 54.4382C83.8718 54.3011 84.4898 54.2257 85.1546 54.2618V54.705H83.8416C83.8399 54.758 83.8387 54.811 83.837 54.864H85.3281C85.2577 55.1767 85.2577 55.1767 85.172 55.2699C85.3281 55.3445 85.4822 55.4178 85.7166 55.5301C85.4839 55.8063 85.2772 56.0515 85.1699 56.1787C84.3187 56.4401 83.5558 56.4082 82.8437 56.6819C82.3757 56.8625 81.8049 56.5345 81.3758 56.9553C79.7447 57.1583 78.3136 57.9096 76.8652 58.608C76.487 58.7898 76.1465 59.0512 75.77 59.2372C75.0439 59.595 74.5846 60.1277 74.4988 60.9565C74.4897 61.0439 74.3485 61.1172 74.2433 61.2228Z" fill="black"/>
<path fill-rule="evenodd" clip-rule="evenodd" d="M92.5998 93.3299C92.6172 93.4919 92.6246 93.5635 92.6404 93.7155C92.0547 93.8845 91.4185 93.6998 90.8278 93.9607C91.107 93.9765 91.3862 93.9984 91.6657 94.0059C91.9619 94.0134 92.258 94.0076 92.524 94.0076C92.6544 94.1455 92.7526 94.249 92.8706 94.3741C92.7162 94.4292 92.5853 94.4764 92.3471 94.5618C92.5554 94.65 92.688 94.7059 92.9034 94.7974C92.8259 95.0468 92.746 95.3044 92.664 95.5678C91.7196 95.6842 90.8605 95.7899 89.9538 95.9017C89.9443 95.9485 89.9232 96.0516 89.8838 96.2447C89.4282 96.1788 88.9531 96.0806 88.4735 96.0487C87.9487 96.0139 87.4202 96.0409 86.8813 96.0409C86.7264 96.1879 86.5657 96.3416 86.4058 96.494C86.0135 96.5205 85.6606 96.3084 85.2224 96.4555C84.9225 96.5561 84.5046 96.3051 84.0676 96.3905C84.2056 96.4621 84.3439 96.5346 84.6181 96.6779H83.0843C82.8528 96.8933 82.6701 97.0639 82.4328 97.2847C82.1942 96.9944 82.0091 96.7682 81.8492 96.5739C81.7498 96.2948 81.6557 96.0318 81.5609 95.7671C81.6272 95.6598 81.6943 95.5509 81.7933 95.3906H81.0092C80.7221 94.9909 80.916 94.737 81.1869 94.4951C81.4582 94.4644 81.7357 94.4338 82.0132 94.4031L82.0115 94.2743C81.7299 94.2519 81.4482 94.2292 81.128 94.2031C81.128 94.0788 81.0846 93.938 81.1351 93.8812C81.4909 93.4823 81.9349 93.3196 82.4829 93.322C85.8313 93.3378 89.1797 93.3299 92.5998 93.3299Z" fill="black"/>
<path fill-rule="evenodd" clip-rule="evenodd" d="M41.3027 51.0219C41.3653 50.5737 41.4146 50.2237 41.4871 49.7068C41.5322 49.6728 41.7331 49.5204 42.0574 49.2743C43.6997 48.8365 45.5603 49.1178 47.4043 49.0519C47.7974 49.0382 48.1677 49.0821 48.5641 49.24C48.9534 49.3949 49.4629 49.2159 49.9007 49.2913C50.2669 49.3551 50.5966 49.6028 50.959 49.7179C51.3276 49.8348 51.7439 49.8277 52.0881 49.9868C52.4609 50.1591 52.7745 50.4602 53.124 50.712C53.0155 50.8206 52.9625 50.8736 52.9335 50.9026C53.1377 51.3101 53.3361 51.7049 53.5382 52.1083C53.3593 52.2823 53.1721 52.4649 52.9256 52.7056C52.0343 52.4459 51.0381 52.3647 50.1716 51.7732C49.7847 51.9153 49.3784 52.2148 48.9108 51.7898C48.8209 51.7086 48.5065 51.8295 48.3193 51.9116C48.0103 52.0478 47.7531 52.0553 47.5493 51.7185C47.039 51.9476 46.5913 52.0391 46.0047 51.8457C45.4 51.6465 44.6785 51.8018 43.9876 51.8018C43.5912 52.0897 43.1604 52.4032 42.7031 52.7358C42.3449 52.4049 41.9377 52.2119 42.0036 51.6444C42.0234 51.4775 41.8279 51.2695 41.6966 51.1088C41.6453 51.0463 41.4995 51.0612 41.3027 51.0219Z" fill="black"/>
<path fill-rule="evenodd" clip-rule="evenodd" d="M75.4418 43.0469C75.3523 43.177 75.2728 43.2922 75.1382 43.4881C75.3502 43.5755 75.4973 43.6359 75.6654 43.7051V44.7025C75.4252 44.8516 75.1846 45.0016 74.9319 45.159C74.3636 44.9734 73.7825 44.7845 73.1098 44.5654C72.9048 44.6342 72.6186 44.9941 72.245 44.6072C72.1654 44.5248 71.9733 44.5377 71.832 44.5314C69.4624 44.432 67.0927 44.3364 64.6419 44.2365C64.2559 43.633 64.0918 42.793 63.1475 42.1531C63.8437 42.0773 64.2169 42.0371 64.5901 41.9965C64.5934 41.9597 64.5968 41.9228 64.6005 41.8855C64.3089 41.8433 64.0169 41.8006 63.6366 41.7451C63.775 41.5127 63.8789 41.3375 64.0115 41.1151C64.3909 41.2435 64.8125 40.954 65.1605 41.3313C65.2152 41.391 65.3705 41.3616 65.4794 41.3657C66.3902 41.3993 67.2969 41.4473 68.2073 41.5364C69.1832 41.6312 70.1847 41.6942 71.1436 41.8545C72.6099 42.0993 74.1238 42.2823 75.4418 43.0469Z" fill="black"/>
<path fill-rule="evenodd" clip-rule="evenodd" d="M37.1703 41.7817C37.0361 41.9577 36.901 42.135 36.7996 42.2675H35.1651C34.3446 41.7688 34.4423 40.7565 33.7104 40.0238H34.746C34.7538 39.9716 34.7617 39.9194 34.7691 39.8668C34.5915 39.8316 34.4138 39.7964 34.1536 39.745C34.1408 39.5872 34.1247 39.3843 34.1023 39.1072C35.3871 39.1072 36.6372 38.9717 37.8388 39.1544C38.6436 39.277 39.4405 39.2331 40.2279 39.3478C41.0604 39.4692 41.8768 39.7048 42.699 39.897C43.4044 40.0623 44.1052 40.2433 44.8098 40.5888C44.705 40.7685 44.635 40.8886 44.5625 41.0129C44.7572 41.1463 44.9763 41.2966 45.1991 41.449C45.1076 41.5514 45.0368 41.6313 44.9771 41.6976C45.062 41.8135 45.1441 41.927 45.2725 42.1027C45.0082 42.3015 44.7733 42.4779 44.4101 42.7517C44.1483 42.6701 43.7163 42.5351 43.2843 42.4005C42.332 42.1147 41.2456 42.5877 40.3861 41.8881C40.1712 41.9436 39.9694 42.0525 39.7835 42.0306C39.5043 41.997 39.2413 41.577 38.9604 42.0318C38.714 41.6404 38.4924 41.9838 38.2381 42.0144C37.9109 42.0534 37.5575 41.8765 37.1703 41.7817Z" fill="black"/>
<path fill-rule="evenodd" clip-rule="evenodd" d="M14.2464 67.4884C14.0964 67.5414 13.9656 67.5878 13.7522 67.6636C14.591 67.8686 14.4663 68.6009 14.7235 69.1092C14.5069 69.4393 14.3151 69.7317 14.0923 70.0701C13.6967 70.013 13.4089 69.764 13.2105 69.395C13.1289 69.467 13.0469 69.5403 12.9972 69.5851C12.5892 69.4877 12.2118 69.3974 11.7467 69.2869C11.6663 69.1498 11.5404 68.9344 11.3739 68.6502C10.8727 68.8163 10.3417 68.9812 9.81857 69.1692C9.32857 69.3448 8.84769 69.5449 8.36224 69.7346V69.9583C8.51467 70.0316 8.6671 70.1049 8.84603 70.1906C8.79633 70.3054 8.73792 70.4876 8.71597 70.4831C8.30301 70.4015 8.43887 70.8422 8.24544 70.964C8.19408 70.9101 8.1423 70.8563 8.06319 70.7734C7.9323 70.8401 7.79396 70.9114 7.57775 71.0219C7.50526 70.8463 7.44437 70.6989 7.37106 70.5208C7.28946 70.5858 7.21491 70.645 7.0542 70.7726C6.91834 70.445 6.84337 70.0995 6.65076 69.8435C6.44781 69.5739 6.18147 69.3672 6.35088 68.9903C6.06011 68.9385 5.85301 68.9016 5.6397 68.864C5.90147 68.1072 5.90147 68.1072 5.60449 67.4445C6.03982 67.1906 6.47224 66.754 6.93698 66.7163C7.48289 66.672 8.011 66.2044 8.66171 66.5635C8.54366 66.7511 8.45047 66.8986 8.33781 67.0775H7.36236C7.20786 67.2718 7.07739 67.4362 6.95355 67.5919C7.04757 67.6909 7.09106 67.7369 7.13455 67.7825C7.18757 67.7295 7.23686 67.635 7.29485 67.6292C8.32289 67.529 9.35177 67.4321 10.3819 67.3583C10.4991 67.3496 10.6259 67.4818 10.7253 67.5364C10.9083 67.442 11.0956 67.3459 11.289 67.2465C10.5877 66.7722 9.8513 66.7793 9.06431 67.073C9.06431 66.8857 9.06431 66.7085 9.06431 66.5312C9.09041 66.5047 9.11692 66.455 9.14384 66.4545C10.046 66.4479 11.0069 66.252 11.8345 66.4997C12.6343 66.7395 13.6156 66.7064 14.2464 67.4884Z" fill="black"/>
<path fill-rule="evenodd" clip-rule="evenodd" d="M19.6122 100.617C19.4569 100.527 19.1516 100.455 19.0605 100.276C18.7652 99.6899 18.5191 99.0735 18.3174 98.4493C18.2507 98.2443 18.3771 97.9767 18.4297 97.647C18.4479 97.6677 18.3783 97.5894 18.2822 97.4809C18.5498 97.3078 18.8157 97.1359 19.0779 96.9661H27.0273C27.1399 97.0874 27.2356 97.1893 27.3768 97.3409C27.1151 97.3803 26.908 97.4113 26.5957 97.4581C26.9796 97.6168 27.2762 97.7398 27.7939 97.9535C27.3329 98.0463 27.1109 98.091 26.8885 98.1362C26.8877 98.1706 26.8868 98.2049 26.8864 98.2389C27.0861 98.2704 27.2857 98.3019 27.487 98.3338C27.685 98.6958 27.5425 98.9613 27.2431 99.1841C25.2884 99.1617 23.3491 99.5888 21.3858 99.4306C21.3113 99.4243 21.2359 99.4297 21.1609 99.4297C20.6759 99.8017 20.1909 100.174 19.6122 100.617Z" fill="black"/>
<path fill-rule="evenodd" clip-rule="evenodd" d="M84.7513 30.6452C85.3225 30.5607 85.8091 30.443 86.2983 30.4294C86.7498 30.4161 87.1735 30.2434 87.6797 30.4811C88.1038 30.68 88.6949 30.5217 89.2242 30.4128C88.8519 30.2745 88.4795 30.1361 88.0529 29.9775C88.5056 29.7426 88.8328 29.8864 89.213 30.0466C89.5138 30.1734 89.9545 29.9634 90.1247 30.4762C89.9114 30.5068 89.7043 30.5366 89.4462 30.5735C89.5465 30.6911 89.5962 30.7893 89.6757 30.8357C89.9172 30.9761 90.1703 31.0962 90.4209 31.2255C90.5211 31.1435 90.6048 31.0751 90.6926 31.0035C90.9444 31.0851 91.0252 31.3336 91.0165 32.0232C90.0709 32.1139 89.6185 32.0009 88.5781 31.4003C88.4497 31.4756 88.3001 31.5639 88.1303 31.6637C87.9883 31.5858 87.8358 31.5026 87.6374 31.394C87.5376 31.469 87.4258 31.5535 87.3123 31.6388C87.0178 31.5738 86.7113 31.5059 86.4052 31.4384C86.201 31.8886 85.7839 31.0962 85.508 31.6069C85.4061 31.7958 84.931 31.7838 84.6117 31.8671C84.545 31.8053 84.4638 31.7291 84.3652 31.6376C84.3263 31.7411 84.2894 31.8385 84.2124 32.041C83.9519 32.1384 83.6077 32.2672 83.1487 32.4382V31.4632C82.8928 31.4355 82.7146 31.416 82.4951 31.3924C82.6823 31.2714 82.8497 31.1633 82.9669 31.0871C82.8078 30.7578 82.7378 30.6124 82.6256 30.3797C83.3326 30.2169 83.9949 30.0645 84.6767 29.9071C84.7496 29.9841 84.8461 30.0872 84.9886 30.2393C84.7293 30.2786 84.5222 30.3101 84.1768 30.3631C84.453 30.4985 84.6167 30.5793 84.7513 30.6452Z" fill="black"/>
<path fill-rule="evenodd" clip-rule="evenodd" d="M101.927 61.8552C101.741 61.943 101.602 62.0084 101.289 62.1559C101.796 62.1845 102.136 62.2039 102.54 62.2267C102.449 62.0039 102.38 61.8332 102.299 61.6369C102.7 61.5441 103.059 61.4609 103.506 61.3573C103.445 61.5391 103.394 61.6903 103.318 61.9173C103.369 61.9372 103.471 61.9765 103.611 62.0304C103.683 62.17 103.778 62.3559 103.872 62.5398C103.348 62.7701 102.788 63.0149 102.362 63.2017C101.483 63.4254 100.733 63.6164 99.9545 63.8139C99.9073 63.6723 99.8638 63.5426 99.8203 63.4134C99.5362 63.285 99.2524 63.1566 98.8838 62.9893C99.3295 62.8244 99.7064 62.6848 100.228 62.4914C99.8054 62.4562 99.525 62.4326 99.2441 62.409C99.2114 62.3696 99.1783 62.3303 99.1456 62.2913C99.2889 62.2636 99.4322 62.2362 99.5751 62.2089C100.259 62.1352 101.016 61.5255 101.927 61.8552Z" fill="black"/>
</svg>
