<svg width="39" height="54" viewBox="0 0 39 54" fill="none" xmlns="http://www.w3.org/2000/svg">
<path fill-rule="evenodd" clip-rule="evenodd" d="M35.2702 42.4841H36.0659C36.21 42.7057 36.3604 42.9368 36.512 43.1708C36.6259 43.0681 36.7079 42.9944 36.8317 42.883C37.1267 43.0486 37.4315 43.2201 37.731 43.3883C37.7683 43.6298 37.8002 43.8369 37.8333 44.0531C38.0193 43.9479 38.1655 43.8646 38.3026 43.7867C38.491 44.1777 38.6571 44.5215 38.8365 44.8935C38.7868 44.9101 38.6625 44.9523 38.4985 45.0078V45.5247C37.902 45.7293 37.4497 46.2459 36.7742 46.069C36.7348 46.5271 36.3161 46.6779 36.0501 46.7371C35.4197 46.8771 34.8904 47.3741 34.2972 47.3857C33.6051 47.399 33.0799 47.7796 32.4773 47.9515C31.7541 48.1582 31.0097 48.379 30.2923 48.6557C29.5928 48.9253 28.8575 49.2778 28.0548 49.2521C26.7857 49.9882 25.3112 50.0722 23.9439 50.491C22.879 50.817 21.8049 51.2233 20.6572 51.3074C20.2579 51.3368 19.8773 51.7506 19.461 51.1401C19.1582 51.6943 18.802 52.0003 18.2072 51.9805C17.7897 51.9668 17.351 52.0658 16.9497 52.1988C15.8988 52.5454 14.8037 52.656 13.7297 52.8768C12.7435 53.0798 11.7295 53.1498 10.7632 53.3635C9.46092 53.6518 8.18062 53.4501 6.89494 53.5321C6.66837 53.5466 6.43601 53.3627 6.19784 53.3274C5.93979 53.2893 5.60388 53.4173 5.42619 53.2943C5.19548 53.1344 5.02482 53.279 4.83678 53.2417C4.55926 53.1866 4.2863 53.1071 3.95536 53.0238C3.83358 52.8097 3.42352 52.724 3.42435 52.3015C3.42477 52.195 3.22181 51.9916 3.12198 51.9974C2.36565 52.0409 2.19045 51.4184 1.86323 50.8932C1.73648 49.8714 2.23394 49.1552 3.19198 48.7132C3.3179 48.6548 3.45127 48.5993 3.58672 48.5778C4.11855 48.4937 4.68601 48.5115 5.17684 48.3247C5.71654 48.1197 6.2434 48.1359 6.78559 48.1218C7.30624 48.1085 7.91968 48.2568 8.32145 48.0306C8.7692 47.7784 9.32796 48.1781 9.64897 47.6761C10.0019 48.0485 10.3498 47.4914 10.7015 47.6707C11.0775 47.3472 11.5452 47.5212 11.9586 47.4276C12.3417 47.341 12.7364 47.2909 13.1042 47.1944C14.3158 46.8746 15.543 46.6857 16.7815 46.5408C17.3183 46.0711 18.0593 46.5172 18.6359 46.1021C19.1309 45.7459 19.794 45.8109 20.3685 45.6838C21.0213 45.5392 21.7055 45.4295 22.3765 45.3201C23.0032 45.2178 23.6196 45.0451 24.2491 44.9279C25.1774 44.7551 26.0621 44.353 27.0222 44.2817C27.4265 43.805 28.0635 44.2163 28.5461 43.853C28.9507 43.5477 29.5501 43.4956 30.0409 43.4169C31.2392 43.2251 32.2983 42.6411 33.463 42.3876C33.7389 42.3275 34.0144 42.2637 34.3337 42.1917C34.3759 42.4683 34.4078 42.6754 34.458 43.0027C34.74 42.8229 34.9654 42.6788 35.2702 42.4841Z" fill="black"/>
<path fill-rule="evenodd" clip-rule="evenodd" d="M16.3891 29.6394C16.3274 29.7011 16.274 29.7545 16.2209 29.8079C16.0747 29.5822 15.9281 29.3569 15.7467 29.0773C15.675 29.2802 15.6291 29.4111 15.5553 29.6195C15.224 29.5789 14.7758 29.6543 14.5418 29.4646C14.162 29.1572 13.9134 29.5975 13.5837 29.4807C13.2847 29.3747 12.8502 29.5147 12.6327 29.3449C12.2782 29.0682 11.9207 29.2231 11.5798 29.1357C11.2456 29.0504 10.9291 28.8938 10.5799 28.7584C10.3931 28.8172 10.1724 28.8868 9.88201 28.9779C9.77308 28.7749 9.66538 28.5724 9.47609 28.2182C9.36053 28.5914 9.32201 28.7144 9.2603 28.9145C8.22438 28.3189 6.9826 28.656 5.94586 28.1346C5.91976 28.0161 5.89657 27.9138 5.83609 27.6433C5.74414 27.9117 5.70562 28.0256 5.66006 28.1578C5.39746 28.0886 5.11621 28.0144 4.82379 27.937C4.80432 27.7605 4.78485 27.5829 4.75627 27.3227C4.64858 27.4006 4.58272 27.4482 4.48331 27.5203C4.3603 27.4586 4.21864 27.3873 4.01858 27.2871C3.94154 27.4611 3.87527 27.6106 3.81148 27.7547C3.55964 27.5771 3.30698 27.3985 3.00834 27.1877C2.99675 27.0825 2.97728 26.9044 2.9516 26.6741C2.69189 26.8046 2.4587 26.9214 2.15799 27.0726C1.76243 26.4989 0.953491 26.233 0.699586 25.4617C0.80355 25.347 0.876864 25.2662 0.950592 25.1855C0.734379 24.9692 0.63497 25.0293 0.405503 25.5156C0.332189 25.5205 0.258462 25.5317 0.185976 25.5263C0.156154 25.5243 0.128817 25.4862 0.0323077 25.4129C0.102722 25.2513 0.181006 25.072 0.267574 24.8731C0.195503 24.6872 0.112663 24.4734 0 24.1835C0.287041 24.2879 0.461834 24.3508 0.678876 24.43C0.610533 24.1607 0.56 23.9607 0.473846 23.6218C0.869823 23.8008 1.11586 23.9122 1.39669 24.0389C1.33166 24.1189 1.26994 24.1943 1.19497 24.2862C1.38923 24.3848 1.58556 24.485 1.8258 24.6076V23.8472C2.08219 23.7167 2.29965 23.6061 2.53367 23.4868C3.06923 23.7092 3.61473 23.9362 4.17183 24.1678C4.42077 24.0704 5.37509 24.1934 5.80751 24.3898C5.88373 24.3206 5.96243 24.2489 6.08047 24.1421C6.30994 24.2514 6.56053 24.3707 6.82396 24.4962C6.75107 24.5791 6.68314 24.6573 6.61479 24.7352C6.66491 24.7721 6.73325 24.857 6.77095 24.845C7.20172 24.7112 7.6068 24.3823 8.07568 24.8205C8.16266 24.9017 8.4671 24.7522 8.67006 24.7058C9.59953 24.4937 10.4528 24.6263 11.2033 25.2298C11.3785 25.1821 11.5711 25.0856 11.7612 25.0894C11.9853 25.0935 12.3428 25.2977 12.4082 25.2194C12.7458 24.8143 12.9218 25.3076 13.1737 25.3105C13.4193 25.3139 13.6463 25.3279 13.906 25.446C14.3454 25.6465 14.8653 25.6887 15.3573 25.7508C17.0117 25.9592 18.6266 26.3079 20.2234 26.8075C21.456 27.1927 22.7119 27.5108 23.8969 28.0256C24.6951 28.3719 25.5628 28.6933 26.1899 29.2587C26.7566 29.7686 27.4276 30.2205 27.8695 30.9487C27.8074 31.046 27.7324 31.164 27.6459 31.3003C27.6939 31.3562 27.7614 31.4341 27.8393 31.5236C27.5734 31.7754 27.3033 32.031 26.9997 32.3184C26.6547 32.214 26.2943 32.0682 26.0922 31.5712C26.0495 31.8562 26.0189 32.0633 25.9853 32.2869H25.6635C25.6067 32.1395 25.5575 32.0098 25.5069 31.8773C25.3851 31.9547 25.2733 32.026 25.1213 32.1229C25.0082 32.0384 24.896 31.9539 24.7862 31.8719C24.6139 32.0314 24.4312 32.2016 24.2428 32.376C23.9686 32.0384 23.7776 31.736 23.5212 31.5066C23.2723 31.2837 22.7521 31.4991 22.634 30.9263C22.6796 30.8555 22.7554 30.7382 22.8734 30.5556C22.6378 30.5436 22.4211 30.5324 22.1208 30.5171C22.2712 30.6856 22.342 30.7656 22.492 30.9346C22.2062 30.9197 21.9692 30.9735 21.8085 30.8865C21.4283 30.6807 21.0385 30.5713 20.6235 30.4587C20.2325 30.3526 19.8576 30.3079 19.465 30.266C19.1158 30.2288 18.7774 30.0958 18.4282 30.0556C18.0596 30.0138 17.6748 30.0788 17.3136 30.0092C16.9918 29.9475 16.6931 29.7661 16.3891 29.6394Z" fill="black"/>
<path fill-rule="evenodd" clip-rule="evenodd" d="M9.33105 1.49916V0.549816C9.71626 0.143898 10.1611 -0.0536755 10.8325 0.0125967C10.8951 0.116975 11.0106 0.309579 11.1465 0.536975C11.8929 0.0776263 12.177 1.07461 12.7631 0.916384C13.6048 1.4739 14.2323 2.25094 15.0955 2.73763C15.2218 2.80887 15.3117 2.94473 15.4173 3.05201C16.16 3.80461 16.9884 4.44786 17.8541 5.05591C18.4497 5.47467 18.9873 5.98206 19.5183 6.4849C20.0978 7.03372 20.7021 7.53822 21.4067 7.9197C21.5334 7.98845 21.6212 8.12804 21.7289 8.23325C22.1564 8.65201 22.5424 9.13041 23.0262 9.47005C23.416 9.74301 23.7038 10.1063 24.0489 10.4115C24.6453 10.9388 25.1411 11.5804 25.6734 12.1798C26.2089 12.7828 26.7606 13.3743 27.2577 14.008C27.4648 14.2727 27.5489 14.6339 27.6947 14.9636C27.3616 15.2552 27.0812 15.5012 26.6488 15.8806C26.3295 16.0612 26.1692 15.4611 25.7918 15.3231C25.668 15.418 25.557 15.5037 25.4812 15.5617C25.0363 15.4698 24.618 15.3832 24.0099 15.2573C22.7624 14.2363 21.3093 13.1519 19.952 11.9362C19.3071 11.3592 18.5785 10.8195 17.8006 10.3685C17.2448 10.0462 16.8107 9.51396 16.307 9.09064C14.9725 7.96982 13.6317 6.81916 12.5038 5.50076C11.4447 4.26189 10.1487 3.20899 9.33105 1.49916Z" fill="black"/>
</svg>
