<svg width="119" height="38" viewBox="0 0 119 38" fill="none" xmlns="http://www.w3.org/2000/svg">
<path fill-rule="evenodd" clip-rule="evenodd" d="M66.5294 22.2131C66.2167 22.2628 65.933 22.4032 65.754 22.3191C65.1584 22.0391 64.5143 22.03 63.8951 21.9074C63.1359 21.7566 62.3195 21.7972 61.5938 21.6199C60.5968 21.3764 59.577 21.1966 58.5813 21.0442C57.5549 20.8868 56.5546 20.5658 55.5038 20.5169C55.0337 20.495 54.5756 20.2336 54.1079 20.0928C54.0578 20.0779 53.9828 20.1437 53.9021 20.1802C53.9083 20.2759 53.9153 20.3778 53.924 20.5078C54.5412 20.5948 55.1944 20.5633 55.7299 20.7994C56.2108 21.0111 56.7398 20.8065 57.0976 21.0256C57.528 21.289 58.0196 21.0264 58.3415 21.2919C58.7201 21.6046 59.1583 21.2625 59.4971 21.5156C59.903 21.8188 60.4013 21.5135 60.7795 21.6891C61.3105 21.936 61.9525 21.6891 62.3559 21.9505C62.9027 22.3046 63.5654 21.8279 64.0073 22.346C64.6059 22.2127 65.1476 22.5072 65.7197 22.5722C66.3662 22.6459 67.0488 22.6186 67.6469 22.8294C68.1572 23.0096 68.7147 22.8588 69.1223 23.0676C69.5005 23.2614 69.882 23.1028 70.1678 23.271C70.5534 23.4975 70.9386 23.4279 71.3267 23.4855C71.6502 23.5336 71.9753 23.5973 72.2976 23.674C72.8903 23.8152 73.4814 24.0368 74.1147 23.9312C74.2613 23.9068 74.4978 23.8657 74.5521 23.9382C74.8909 24.3901 75.4115 23.9867 75.7918 24.241C76.225 24.5305 76.7304 24.3251 77.2009 24.3769C77.3496 24.3934 77.5571 24.316 77.642 24.391C77.9614 24.6705 78.3822 24.4842 78.6742 24.6312C79.0768 24.8333 79.3875 24.5421 79.7424 24.6022C80.273 24.6908 80.8073 24.7613 81.3417 24.8296C81.7977 24.888 82.2554 24.9319 82.7682 24.9886C82.7839 24.9754 82.8614 24.9095 82.9053 24.8723C83.1704 25.0085 83.4069 25.1303 83.5854 25.2227C84.0563 24.9886 84.4672 24.9696 84.8756 25.204C85.3263 25.4625 85.7094 25.1692 86.1012 25.0479C86.5523 24.9083 86.8862 25.5735 87.4288 25.132C87.7009 24.9108 88.2588 25.0396 88.7364 25.0073C88.0115 24.5906 87.2805 24.5119 86.5643 24.6225C85.8275 24.7372 85.1453 24.2004 84.4154 24.5152C83.988 24.1996 83.6015 24.4303 83.201 24.6279C83.0092 24.4576 82.8216 24.2907 82.6066 24.0994C82.3573 24.1975 82.1332 24.2862 81.8979 24.3789C81.5682 24.1482 81.2236 23.9863 80.8761 24.3644C80.7336 24.2224 80.6007 24.0894 80.4449 23.9333C79.5979 23.8914 78.714 24.0281 77.8603 23.7113C77.4995 23.5775 77.1015 23.5128 76.7154 23.4839C75.991 23.43 75.274 23.4147 74.5446 23.2987C73.7663 23.1753 72.9852 22.865 72.1601 23.0088C72.0263 23.0324 71.8581 22.8568 71.6974 22.7681C71.5972 22.853 71.5102 22.9876 71.4344 22.9818C70.8288 22.9355 70.2241 22.8704 69.6223 22.7897C69.5307 22.7772 69.4537 22.6538 69.3692 22.5817C69.293 22.6513 69.2122 22.7242 69.09 22.836C68.8067 22.6911 68.5051 22.5366 68.2028 22.3821C68.1775 22.4078 68.1543 22.4517 68.1237 22.4583C67.6337 22.5577 67.1814 22.2056 66.6806 22.334C66.6193 22.3498 66.5162 22.2019 66.5294 22.2131ZM18.234 12.8202C18.1959 12.6674 18.1702 12.5655 18.1304 12.4069C18.0397 12.474 17.9689 12.527 17.8893 12.5866C17.3281 12.2739 16.7648 11.9409 16.1845 11.6423C15.4058 11.2417 14.6093 10.8988 13.8625 10.4104C13.2288 9.99622 12.4269 9.75847 11.8959 9.21794C11.3934 8.70806 10.5866 8.76646 10.2018 8.13894C9.43509 8.03622 9.05734 7.31427 8.41243 7.00817C8.22272 6.91829 8.09515 6.75427 7.83917 6.73977C7.58112 6.72445 7.58444 6.66273 7.29574 6.1193C7.21663 6.10812 7.11308 6.0903 7.0087 6.08078C6.93456 6.07374 6.80574 6.10273 6.79166 6.07291C6.45118 5.35096 5.49894 5.53196 5.0926 4.91563C5.05408 4.85764 5.02923 4.74581 4.9874 4.74001C3.79822 4.58303 3.08414 3.54711 2.03083 3.14989C1.63651 3.00078 1.47704 2.58948 1.10633 2.42877C0.947692 2.35959 0.801065 2.26101 0.63 2.16533C0.584852 1.98847 0.566213 1.76687 0.470947 1.58545C0.375266 1.4032 0.203373 1.2603 0 1.02587C0.605976 0.757464 1.17302 0.969535 1.68746 0.69492C1.2716 0.675452 0.85574 0.655985 0.410059 0.634861C0.385207 0.542908 0.35787 0.441429 0.330533 0.341192C1.76408 -0.117743 1.78396 -0.166204 3.46562 0.522198C4.65521 1.00971 5.93675 1.32823 6.95609 2.18232C7.93361 2.40267 8.70899 3.04013 9.58213 3.4738C10.7725 4.06527 11.9017 4.7777 13.0792 5.39527C14.5612 6.17314 16.0611 6.91746 17.5625 7.65764C18.9679 8.3506 20.4168 8.93752 21.8785 9.50829C22.8428 9.8848 23.7971 10.3276 24.7634 10.7202C25.7302 11.1129 26.7102 11.4733 27.6873 11.8411C28.4038 12.1103 29.1067 12.4669 29.8494 12.6044C30.6351 12.7498 31.2233 13.3044 31.9929 13.4453C32.4783 13.5343 32.9137 13.8562 33.4422 13.763C33.5151 13.7497 33.6145 13.7302 33.6646 13.7655C34.4951 14.3557 35.5144 14.3909 36.4377 14.7061C37.397 15.0333 38.3786 15.2968 39.3574 15.5631C39.8988 15.7105 40.4546 15.7859 40.9794 16.0121C41.5986 16.2788 42.2941 16.2407 42.9394 16.4573C43.7359 16.7245 44.5705 16.9063 45.3882 17.072C46.1872 17.234 46.9833 17.4133 47.7719 17.6105C49.3098 17.9944 50.8962 18.1688 52.4014 18.6986C52.7995 18.839 53.2286 18.7504 53.6643 18.9194C54.2517 19.1476 55.0312 18.9426 55.5643 19.2292C56.1528 19.5452 56.8359 19.1302 57.3217 19.6347C58.4877 19.6015 59.5837 20.087 60.748 20.0982C61.0938 20.1011 61.438 20.2407 61.7839 20.3119C62.1662 20.391 62.5481 20.4718 62.9329 20.536C63.2825 20.5948 63.6872 20.3943 63.968 20.7646C64.5595 20.6855 65.1145 20.9324 65.6832 20.9676C66.4118 21.0127 67.0993 21.3834 67.8466 21.2165C68.2591 21.6763 68.9338 21.2107 69.3683 21.6473C69.4441 21.7235 69.6558 21.6639 69.8049 21.6688C70.2365 21.6829 70.6515 21.6535 71.0778 21.8722C71.4427 22.0594 71.9119 21.7831 72.3502 22.0884C72.6028 22.264 73.0771 22.1199 73.4354 22.1199C73.5841 22.269 73.7175 22.402 73.8546 22.5395C74.4709 22.1203 74.9808 22.3995 75.4782 22.7876C75.7963 22.4061 76.3062 22.4657 76.5957 22.6256C76.9685 22.8307 77.3065 22.7847 77.6586 22.7909C78.6866 22.8091 79.6836 23.1455 80.729 23.0481C80.9979 23.0228 81.294 23.2946 81.5695 23.4259C81.7074 23.3728 81.8627 23.2892 82.028 23.2544C82.4902 23.1566 82.9305 23.3952 83.4288 23.2867C83.8418 23.1968 84.3554 23.3629 84.7646 23.5476C84.9899 23.6491 85.067 23.495 85.1743 23.5046C85.7827 23.5597 86.4222 23.2569 87.0108 23.6856C87.1587 23.7928 87.4511 23.7017 87.6769 23.7017C89.2956 23.7017 90.9143 23.6968 92.533 23.7059C92.8979 23.7075 93.2872 23.6881 93.6202 23.8057C93.9624 23.9266 94.1682 23.5315 94.4963 23.6918C94.7083 23.7957 94.966 23.8061 95.2431 23.8666C95.4899 23.8198 95.7998 23.715 96.1112 23.7096C97.3153 23.6897 98.5252 23.635 99.7239 23.7187C101.216 23.8231 102.671 23.5025 104.147 23.4337C105.21 23.3844 106.256 22.9475 107.393 22.6629C107.602 22.7395 107.919 22.8559 108.26 22.981C108.3 22.9458 108.38 22.8746 108.478 22.788C108.683 23.0353 108.888 23.2817 109.128 23.5704C108.488 23.7336 107.952 23.8703 107.323 24.031C107.486 24.2592 107.587 24.4013 107.709 24.5728H108.874C109.019 24.719 109.126 24.8259 109.314 25.0139C109.055 25.2069 108.796 25.4 108.498 25.6228C108.722 25.7098 108.851 25.7599 108.993 25.815C109.13 26.4404 108.72 26.8157 108.346 27.203C108.418 27.2821 108.488 27.3612 108.505 27.3811C108.233 27.6495 107.971 27.9084 107.657 28.2178C107.358 28.1461 106.987 27.7555 106.542 28.0985C106.613 28.1784 106.684 28.2584 106.818 28.4091C106.325 28.3296 105.896 28.26 105.467 28.1908C105.454 28.2476 105.439 28.3056 105.425 28.3627C105.634 28.4128 105.842 28.463 106.117 28.5288C105.835 28.675 105.607 28.7939 105.311 28.9476C105.247 28.8159 105.192 28.7028 105.086 28.4841C104.906 28.4733 104.629 28.4568 104.29 28.4369C104.385 28.6614 104.454 28.825 104.581 29.124C104.306 29.124 104.129 29.1365 103.955 29.122C102.695 29.0172 101.475 29.4455 100.208 29.3672C98.9324 29.2885 97.6471 29.3846 96.3701 29.3216C96.0984 29.3084 95.9323 29.7308 95.6134 29.4214C95.5148 29.3257 95.1221 29.5353 95.0215 29.4392C94.6578 29.093 94.5302 29.6194 94.2378 29.5979C93.73 29.5602 93.2885 29.3071 92.7512 29.3278C91.135 29.3895 89.5143 29.3701 87.896 29.3394C87.2863 29.3282 86.6803 29.1692 86.0694 29.1323C85.4427 29.0946 84.8122 29.124 84.1856 29.0789C85.1076 28.8217 87.2813 28.8507 88.2646 28.9869C88.096 28.9364 87.9279 28.8859 87.7593 28.8353C87.809 28.7811 87.8591 28.7268 87.9088 28.6721C87.2333 28.6721 86.5548 28.6349 85.8825 28.6808C84.9183 28.7471 84.0058 28.2795 83.0391 28.4464C82.7007 28.1457 82.2106 28.3619 81.9079 28.1896C81.4253 27.9154 81.0202 28.4278 80.5261 28.1349C80.1529 27.9137 79.5991 27.9974 79.0246 27.9344C78.9799 27.898 78.8482 27.7907 78.7164 27.6834C78.7401 27.6337 78.7637 27.584 78.7869 27.5343C79.8766 27.6491 80.9664 27.7638 82.1108 27.8847C82.1436 27.8562 82.255 27.7592 82.3664 27.6623C82.2459 27.5418 82.1394 27.4353 82.033 27.3293C81.9232 27.4109 81.8134 27.4925 81.5761 27.6694C81.5119 27.4097 81.4522 27.1682 81.3926 26.9267L81.1594 27.1243C81.0567 27.1752 80.9536 27.2266 80.8239 27.2908C80.8003 27.1769 80.7792 27.0737 80.7485 26.9255C80.2979 26.8153 79.8182 26.6985 79.3332 26.58C79.2359 26.7863 79.163 26.9408 79.0801 27.1164C78.6858 26.9727 78.3006 26.8327 77.9286 26.6972C77.8181 26.7627 77.6983 26.8343 77.5314 26.9333C77.304 26.6455 77.0973 26.3833 76.8902 26.1211C76.7664 26.2445 76.713 26.2979 76.6351 26.3758C76.4429 26.2818 76.2408 26.1832 76.0262 26.0784C76.1397 25.9682 76.2474 25.8639 76.365 25.7499C76.4383 25.8137 76.5162 25.8817 76.6355 25.9856C76.8281 25.8978 77.0456 25.798 77.2887 25.687C77.3508 25.8647 77.3964 25.996 77.4453 26.1356C77.7617 26.0283 78.0753 25.9218 78.4228 25.8038C78.8627 26.1555 79.4347 25.8634 80.005 25.9902C80.126 26.1049 80.2854 26.2561 80.4453 26.4069C80.7589 25.9968 81.2178 26.2884 81.6502 26.141C81.6564 26.0407 81.6643 25.9123 81.678 25.6837C81.5177 25.8088 81.4436 25.8659 81.3089 25.9711C81.1988 25.8071 81.0782 25.6282 80.9507 25.4385C80.7597 25.641 80.6317 25.7769 80.4847 25.933C80.2461 25.8108 80.0104 25.6899 79.7623 25.5623C79.433 25.8866 79.1099 25.7019 78.7413 25.5221C78.4311 25.3705 78.0653 25.3328 77.7008 25.2392C77.6263 25.1079 77.5335 24.9452 77.3483 24.6196C77.2133 24.9468 77.1524 25.0943 77.0609 25.3163C76.7312 25.2682 76.3799 25.2173 76.0287 25.1651C75.6741 25.1125 75.2537 25.1593 74.9812 24.9812C74.6154 24.7414 74.388 25.296 74.0153 25.0027C73.7655 24.806 73.3347 24.8391 72.988 24.7699C72.8294 25.0015 72.711 25.175 72.4889 25.5006C72.9085 25.4629 73.1633 25.4397 73.5493 25.4045C73.5278 25.3846 73.6292 25.4786 73.7589 25.5984C73.7013 25.6725 73.6446 25.745 73.5708 25.8407C73.6247 25.9065 73.6872 25.9827 73.7481 26.0569C73.7088 26.0971 73.6628 26.1832 73.6226 26.1803C73.2933 26.1567 72.9657 26.0958 72.6364 26.0875C72.2827 26.0792 71.8432 26.2536 71.593 26.0999C71.2132 25.8668 70.8624 26.0486 70.4834 25.9359C70.3512 25.8104 70.1901 25.6568 69.9809 25.4579C69.8144 25.5776 69.6434 25.7007 69.3845 25.8866C70.5256 26.4346 71.7077 26.4847 73.0133 26.7523C72.4082 26.9333 71.9343 26.8981 71.4944 26.8405C71.2327 26.8066 70.9941 26.6044 70.6805 26.6281C70.4316 26.6471 70.0787 26.4499 69.9416 26.5601C69.5924 26.8405 69.4972 26.4056 69.2681 26.411C68.9674 26.4181 68.6621 26.4417 68.366 26.4052C68.0164 26.3626 67.6772 26.2433 67.3284 26.1923C67.0111 26.1459 66.7096 26.0991 66.3935 26.0022C65.8882 25.8477 65.3009 25.9612 64.7442 26.1368C65.1199 26.1679 65.4951 26.1994 66.0373 26.2449C64.9907 26.7022 64.1606 26.0855 63.3057 26.1865C63.1388 25.9591 63.0046 25.6978 62.7966 25.5242C62.6918 25.4368 62.4541 25.5093 62.0391 25.5093C62.4085 25.6903 62.5502 25.7595 62.6939 25.8299C62.6413 25.8763 62.5895 25.9587 62.5456 25.9546C62.083 25.9136 61.6232 26.044 61.1556 25.7599C60.8109 25.5503 60.3392 25.7831 59.8823 25.5685C59.3542 25.3204 58.682 25.3975 58.0847 25.274C57.4973 25.1523 56.9046 25.0665 56.321 24.9075C55.4673 24.6751 54.5727 24.5943 53.7173 24.3669C52.8641 24.1404 51.945 24.2294 51.1373 23.7817C50.7305 23.5559 50.2476 23.6872 49.7833 23.5128C48.8016 23.145 47.7396 22.9943 46.7161 22.7329C46.1698 22.5937 45.6537 22.3585 45.0705 22.3373C44.3725 22.3117 43.9157 22.0027 43.6241 21.4348C43.5441 21.5984 43.4762 21.7384 43.4025 21.8896C43.3188 21.815 43.2405 21.7455 43.1618 21.6755C43.0856 21.7438 43.0061 21.815 43.0086 21.8126C42.5919 21.6775 42.2262 21.4572 41.867 21.4675C41.3762 21.4812 41.0846 21.1486 40.4492 21.0218C39.4522 21.2281 38.4544 20.2941 37.2197 20.2887C37.1899 20.0878 37.1584 19.8803 37.0979 19.476C36.9202 19.7859 36.8142 19.971 36.7852 20.0215C35.7721 19.8675 34.9901 19.498 34.2337 19.0569V18.7442C34.0647 18.8278 33.9401 18.9247 33.8021 18.9492C33.6195 18.9815 33.4273 18.9575 33.2061 18.9575C33.0988 18.8336 32.9762 18.6928 32.8362 18.5313H31.8417C31.7837 18.3681 31.7373 18.2368 31.6793 18.0731C31.5671 18.1444 31.4611 18.2119 31.2883 18.3217C31.0676 18.1228 30.8311 17.9095 30.6418 17.7389C30.6153 17.4904 30.5966 17.3172 30.5631 17.0062C30.3233 17.3657 30.1679 17.5981 30.0039 17.8441C29.3288 17.5778 28.7149 17.1822 27.9598 17.0468C27.2938 16.9275 26.7458 16.4047 26.052 16.2068C25.6693 16.0974 25.3595 15.6931 24.8728 15.7942C24.6396 15.4177 24.225 15.3833 23.8617 15.2359C23.4073 15.052 22.8101 15.1663 22.4924 14.7521C22.1718 14.335 21.5194 14.5731 21.3053 14.0463C20.8389 13.9937 20.4636 13.6673 20.0428 13.567C19.5578 13.4519 19.1841 13.2543 18.8234 12.9399C18.7074 12.8389 18.4804 12.8654 18.234 12.8202Z" fill="black"/>
<path fill-rule="evenodd" clip-rule="evenodd" d="M118.891 20.9082C118.847 21.0089 118.708 21.1741 118.746 21.2586C119.153 22.1459 118.905 23.0231 118.73 23.8983C118.586 24.6191 118.474 25.3741 118.045 25.9814C117.25 27.1059 116.759 28.4914 115.416 29.1657C115.378 29.8819 114.345 29.7738 114.312 30.4953C113.565 30.8578 113.113 31.5669 112.477 32.0594C112.077 32.3688 111.688 32.6885 111.312 33.0261C111.167 33.1557 110.926 33.1773 110.662 33.2726C110.58 33.4411 110.457 33.6905 110.303 34.0049C110.021 34.1842 109.669 34.4075 109.265 34.6643C109.255 34.8556 109.24 35.1087 109.226 35.3788C109.096 35.426 108.965 35.4736 108.835 35.5212C108.619 35.9574 109.079 35.8398 109.217 35.9864C108.946 36.5754 108.465 36.949 107.898 37.2799C107.536 37.0037 107.169 36.7241 106.767 36.4163V34.9041C106.612 34.7409 106.458 34.5798 106.297 34.4104C106.39 33.6954 106.166 32.9623 106.511 32.2412C106.677 31.8949 106.726 31.4844 107.042 31.2239C107.244 31.0578 107.166 30.6614 107.58 30.6407C107.671 30.6362 107.736 30.2108 107.823 29.983C107.995 29.5302 108.391 29.2432 108.698 28.9044C109.43 28.0967 110.175 27.2836 111.015 26.596C111.85 25.9147 112.592 25.1103 113.564 24.5946C113.848 24.4439 114.06 24.1589 114.313 23.9456C114.558 23.7393 114.815 23.5459 115.135 23.2924C114.736 23.1201 114.334 22.9473 113.875 22.7489C113.818 22.9014 113.773 23.0244 113.725 23.1532C112.741 23.0617 111.88 22.4872 110.862 22.2929V21.7888C110.092 21.549 109.362 21.3216 108.632 21.0942C108.329 20.9948 108.049 21.4471 107.658 21.1C107.816 21.0263 107.966 20.9559 108.116 20.8859C107.576 20.9853 107.112 20.0641 106.536 20.866C105.823 20.031 104.524 20.4261 103.925 19.4353C103.866 19.4883 103.787 19.5596 103.68 19.6569C103.114 19.4424 102.544 19.1475 101.939 19.0186C101.31 18.884 101.111 18.2234 100.352 18.0581C99.6037 18.1745 98.7545 17.9616 98.0342 17.361C97.9278 17.0379 97.83 16.7401 97.7253 16.4224C97.782 16.3272 97.8491 16.2141 97.9158 16.101C97.7832 15.9676 97.6499 15.8347 97.4995 15.6843C97.8035 15.5315 98.1013 15.382 98.4021 15.2308C98.2608 15.0899 98.1279 14.957 97.9609 14.7901C98.1589 14.6741 98.3495 14.5627 98.598 14.4169C99.0544 14.9707 99.7689 14.5647 100.397 14.8472C101.28 15.2444 102.307 15.3107 103.256 15.5766C104.364 15.8869 105.454 16.2634 106.554 16.6039C107.725 16.9659 108.893 17.3324 110.088 17.6191C111.068 17.8535 111.985 18.3273 112.986 18.5187C113.324 18.9325 113.934 18.544 114.272 18.9573C115.122 18.8699 115.82 19.4772 116.654 19.483C116.82 19.4842 116.983 19.601 117.153 19.6317C117.913 19.7692 118.627 19.9668 118.891 20.9082Z" fill="black"/>
</svg>
