<svg width="85" height="19" viewBox="0 0 85 19" fill="none" xmlns="http://www.w3.org/2000/svg">
<path fill-rule="evenodd" clip-rule="evenodd" d="M64.919 0.000987049C65.9847 0.604064 66.9896 1.26057 68.0673 1.75886C69.2051 2.28531 70.3976 2.68998 71.6373 2.96087C72.6612 3.18495 73.662 3.50223 74.7289 3.39661C75.5321 3.81868 76.3973 3.5772 77.2332 3.60827C77.5757 3.62069 77.9224 3.41773 78.2687 3.41152C78.6423 3.40489 78.9762 3.21974 79.3063 3.19779C80.5282 3.11578 81.6337 2.5504 82.839 2.42738C82.9276 2.41827 83.0055 2.30643 83.1202 2.21779C83.4487 2.434 83.7618 2.64028 84.1508 2.89625C83.8178 3.1427 83.5792 3.31915 83.1948 3.60329H84.3247C84.1984 3.89779 84.1205 4.0788 84.0153 4.32442C84.0559 4.38986 84.1292 4.50874 84.2535 4.7088C84.0936 5.11513 84.0033 5.67637 83.6922 6.05744C83.259 6.5872 82.6833 7.01341 82.1216 7.41933C81.8822 7.59288 81.5218 7.68566 81.222 7.67282C80.5555 7.64548 79.9599 8.07667 79.2794 7.92797C79.1799 7.90602 79.0433 8.05264 78.9057 8.13176C78.8614 8.00625 78.8154 7.87537 78.7682 7.74158H74.5417C74.9596 7.96898 75.3999 7.90229 75.8311 7.91306C76.3199 7.92424 76.8099 7.91223 77.2991 7.91637C77.7336 7.9201 78.1685 7.93211 78.6013 8.14128C77.7493 8.14128 76.8964 8.14584 76.044 8.14004C75.0313 8.13341 73.9983 8.24939 73.068 7.69146C72.0507 7.70679 71.1328 7.31661 70.1789 7.03992C69.6902 6.89826 69.3331 6.67004 68.9997 6.33371C68.9463 6.38714 68.8937 6.44057 68.7955 6.53957C68.1204 6.17548 67.4572 5.72773 66.7282 5.45602C66.2246 5.2688 66.027 4.71915 65.4898 4.62016C65.2926 4.58412 65.1162 4.43874 64.8237 4.28838C64.4957 4.18069 63.9655 4.53442 63.5737 4.07838C63.5202 4.1314 63.4672 4.18483 63.3823 4.26974C63.2937 4.21921 63.1947 4.16205 63.0907 4.10241C63.0381 4.23288 62.9863 4.3617 62.9288 4.50418H62.5547C62.643 4.3588 62.7018 4.26105 62.7618 4.16247C62.6985 4.13347 62.6152 4.06223 62.5754 4.0817C62.293 4.21963 62.0171 4.37247 61.7433 4.52779C61.4981 4.66696 61.2579 4.81525 60.9588 4.99335C60.8822 4.94365 60.765 4.86785 60.6295 4.78004C60.5682 4.90803 60.4982 5.05383 60.4266 5.2046C60.3669 5.14951 60.3135 5.10063 60.2543 5.04596C60.0227 5.23359 59.8057 5.55294 59.5526 5.58566C58.8584 5.67471 58.3531 6.15602 57.7152 6.35359C57.3921 6.45341 57.113 6.7359 56.8462 6.97199C55.9611 7.75608 54.9927 8.39974 53.9025 8.84542C53.7973 8.74726 53.7161 8.67188 53.6337 8.59483C53.5032 8.72614 53.3711 8.85992 53.2008 9.03182H52.232C52.0916 9.26211 51.9636 9.47377 51.8195 9.70986H51.4235C51.2938 9.87347 51.204 10.1075 51.0507 10.1601C50.3412 10.4036 49.6921 10.9052 48.8331 10.4339C48.4673 10.2334 47.8991 10.4003 47.4207 10.5863C47.8734 10.6136 48.3257 10.6414 48.7784 10.6692L48.7726 10.8H47.2562C47.209 10.6663 47.163 10.5354 47.0851 10.3146C46.5541 10.8241 46.0103 10.6269 45.4818 10.397C44.7387 10.0727 44.0196 9.73844 43.3669 9.20951C42.5231 8.52608 41.6276 7.87619 40.5992 7.46075C40.5014 7.4214 40.4198 7.34353 40.2521 7.23045H38.9299C38.8864 7.16418 38.85 7.13063 38.8562 7.11241C38.8674 7.0801 38.9084 7.0598 38.9312 7.0304C38.9697 6.97986 39.0041 6.92602 39.0708 6.82827H38.2622C38.2072 6.6659 38.1628 6.53543 38.1082 6.37389C38.0216 6.35939 37.9185 6.34282 37.6443 6.29726C37.7818 6.49359 37.8443 6.58264 37.9135 6.68081C37.8555 6.74418 37.7838 6.82329 37.6757 6.94258C37.9284 6.9927 38.1554 7.03744 38.3824 7.083C36.9028 7.31951 35.4875 7.90767 33.9852 7.65874C33.7127 8.4275 33.1398 8.61886 32.405 8.59193C31.4453 9.47584 30.4877 10.402 29.4816 11.2718C28.4328 12.1781 27.2399 12.9282 25.9012 13.2376C24.773 13.4981 23.5792 13.9248 22.393 13.3436C22.3014 13.2989 22.1697 13.3333 22.057 13.3383C20.9109 13.3942 19.9218 12.8922 18.936 12.4212C18.5235 12.2245 18.2025 11.8393 17.7941 11.6289C17.2337 11.3402 16.6169 11.2022 15.9989 11.0457C14.893 10.7661 13.7954 10.8961 12.6957 10.8576C11.6801 10.822 10.6872 10.9873 9.71882 11.2996C9.61651 11.3327 9.48438 11.3323 9.38456 11.2967C9.28722 11.2615 9.21391 11.1604 9.1058 11.068C9.06065 11.2022 9.01757 11.3306 8.94302 11.5526C8.7645 11.4847 8.5897 11.418 8.3942 11.3439C8.37432 11.4197 8.3474 11.5208 8.30225 11.6935C7.38645 11.9557 6.63716 12.8342 5.51716 12.6565L5.1829 12.9903C5.25414 13.0699 5.32538 13.1494 5.42355 13.2592C4.88675 13.6597 4.27828 13.9902 3.83964 14.4748C3.37367 14.9901 2.94249 15.5153 2.2632 15.98C2.20604 16.1022 2.08799 16.3536 1.94757 16.6523C1.78893 16.7434 1.57479 16.8664 1.3826 16.9766C1.31923 17.658 1.31923 17.658 0.979586 18.0664L0 17.0868V15.1123C0.0488757 15.0779 0.377337 14.9623 0.388935 14.8199C0.437396 14.2387 1.03675 14.0627 1.20201 13.586C1.37722 13.0798 1.8142 12.7779 2.15509 12.3984C2.61899 11.8811 3.07544 11.3559 3.51243 10.815C4.4974 9.5972 6.53485 8.33513 8.39089 7.90809C8.82953 7.80744 9.24083 7.59412 9.67533 7.46945C10.0854 7.35182 10.5356 7.62229 10.9569 7.26235C11.1308 7.11406 11.538 7.23791 11.579 7.23791C11.9195 7.41229 12.0876 7.49844 12.2852 7.59951C12.1373 7.80454 12.0557 7.91803 11.9385 8.08122H13.3191C12.9512 7.95282 12.8204 7.90726 12.6058 7.83229C13.225 7.18365 13.8178 6.69116 14.7414 7.19525C14.8296 7.24329 14.9543 7.2346 15.0624 7.23625C16.4595 7.25613 17.6773 7.73205 18.8246 8.5327C19.2893 8.85661 19.904 9.1188 20.5237 9.03264C21.1313 8.94815 21.6619 9.2414 22.2389 9.26998C23.9905 9.35655 25.5111 8.70667 26.9111 7.74116C27.6529 7.22921 28.3798 6.67791 29.0359 6.06199C30.1758 4.99211 31.5443 4.34637 32.987 3.86631C34.0241 3.52128 35.1321 3.39661 36.1929 3.1369C37.3046 2.86519 38.4018 3.05779 39.4949 2.9327C40.2036 2.85152 40.7628 3.17294 41.295 3.50347C42.4705 4.23205 43.5868 5.05507 44.7549 5.79649C45.2925 6.13738 45.9436 6.2343 46.5645 6.32294C47.7015 6.48489 48.7946 6.18087 49.8479 5.80933C50.6982 5.51028 51.5055 5.08613 52.326 4.70466C53.7024 4.06471 54.9587 3.22554 56.2427 2.42116C57.5359 1.61099 58.9226 0.90933 60.485 0.67365C60.9621 0.601579 61.4227 0.39862 61.8817 0.231283C62.8849 -0.135285 63.9224 0.0589752 64.919 0.000987049Z" fill="black"/>
</svg>
