<svg width="62" height="34" viewBox="0 0 62 34" fill="none" xmlns="http://www.w3.org/2000/svg">
<path fill-rule="evenodd" clip-rule="evenodd" d="M45.503 4.66771C45.2574 4.31481 45.0677 4.04309 44.8846 3.78007C44.7401 3.97143 44.6266 4.12262 44.47 4.33013C44.347 4.07581 44.2733 3.92339 44.1884 3.74818C44.108 3.92007 44.0363 4.0725 43.9692 4.21581H43.6839C43.6482 4.01327 43.6122 3.80658 43.5695 3.56179H42.6069C42.2574 2.897 41.8258 2.66297 41.6058 2.98149C41.6762 3.06889 41.7798 3.1451 41.8042 3.24161C41.8266 3.33025 41.764 3.44043 41.7114 3.65084C41.4339 3.43339 41.2322 3.22794 40.9899 3.10244C40.852 3.0312 40.6469 3.08919 40.3997 3.08919C40.5537 3.29794 40.6345 3.40812 40.7095 3.51001C40.2389 4.08244 40.2385 4.08368 39.7075 3.7925C39.5025 3.89398 39.2366 3.94037 39.1508 4.09031C39.0448 4.2767 39.0755 4.53433 38.7673 4.43285C38.66 4.2593 38.5623 4.10025 38.414 3.85877C38.0383 4.3525 37.738 4.74682 37.4377 5.14155C37.3275 5.04421 37.2497 4.97587 37.1391 4.87895C36.9991 5.10552 36.8694 5.31552 36.734 5.53587C36.4871 5.65061 36.2175 5.77652 35.9462 5.90244C36.0319 6.01096 36.0911 6.08552 36.1582 6.1696C35.6914 6.30836 35.2561 6.43717 34.8071 6.57055C34.89 6.66167 34.9616 6.74078 35.0014 6.78386C34.8021 7.28919 34.61 7.77587 34.378 8.36362C35.2607 8.06084 35.3766 7.18812 35.9727 6.76564C36.5683 6.34481 37.1005 5.83451 37.7202 5.31345V5.82001C37.3114 6.18824 37.0268 6.54238 36.6594 6.74741C36.2734 6.96362 36.1694 7.42919 35.7929 7.59942C35.3692 7.7912 35.3008 8.23398 35.0353 8.53179C34.595 9.02593 34.4476 9.79386 33.6983 9.96327C33.6204 10.5974 33.4494 11.1661 32.9826 11.6313V12.499C32.8314 12.5545 32.7009 12.6021 32.5663 12.6518C32.775 12.9385 32.9337 13.2048 32.6313 13.5184C32.2059 13.9595 32.0593 14.5141 32.1094 15.1018C32.1479 15.5558 31.9495 15.9439 31.8808 16.3643C31.8294 16.6808 31.9508 17.0316 31.653 17.2917C31.6294 17.312 31.6828 17.4214 31.701 17.4889C31.8319 17.5353 31.9628 17.5817 32.092 17.6272C32.0121 17.7639 31.9127 17.8753 31.8816 18.0029C31.8464 18.1446 31.8563 18.3045 31.8783 18.4515C31.9007 18.5989 31.9905 18.7389 31.998 18.8847C32.0038 19.0115 31.8704 19.1685 31.911 19.2654C32.1434 19.8279 32.2362 20.4136 32.3521 21.0067C32.4967 21.7485 32.8678 22.4349 33.3255 22.9568C34.1705 22.8354 34.7769 22.3963 35.5249 22.2485C36.3198 22.0915 37.0289 21.5418 37.803 21.2329C39.2697 20.6472 40.4469 19.5123 41.9832 19.0612C42.0991 19.0272 42.1729 18.8479 42.2661 18.736C42.3443 18.6416 42.4044 18.519 42.503 18.4569C43.8094 17.6297 44.9555 16.6166 46.0191 15.4987C46.594 14.8947 47.0368 14.2072 47.4701 13.5034C47.7103 13.1133 47.813 12.6303 48.105 12.3056C48.6261 11.7269 48.6684 11.0013 48.7885 10.3311C48.9194 9.60209 48.8759 8.82587 48.8021 8.08072C48.7259 7.30824 48.4024 6.59167 47.9435 5.96208C47.8081 5.77611 47.5036 5.72061 47.34 5.54581C47.1768 5.37143 47.0936 5.12291 46.9585 4.87605C46.8397 4.97339 46.7634 5.03552 46.6736 5.10883C46.524 4.96717 46.3671 4.81889 46.2076 4.66771H45.503ZM35.8567 1.31848C35.9267 1.65812 36.3765 1.93356 36.0737 2.3983C35.9959 2.33534 35.9205 2.27404 35.8463 2.21398C35.6707 2.6141 35.3191 2.77646 34.9707 2.88043C34.5275 3.35345 34.1233 3.82563 33.6755 4.25143C33.2062 4.69836 32.6951 5.10179 32.1889 5.53504C32.1446 5.49528 32.0663 5.42569 31.9056 5.28362C31.9487 6.0938 31.4803 6.58463 30.9998 7.0096C31.1137 7.23161 31.2098 7.41883 31.3063 7.60646C31.3813 7.60688 31.4562 7.60688 31.5751 7.60688C31.6128 7.41013 31.6521 7.20427 31.7027 6.94001C32.2445 7.02203 32.5356 6.66913 32.8181 6.24747C32.7258 6.11575 32.6479 6.00516 32.5597 5.88007C33.1478 5.74587 33.5997 5.48203 33.987 4.96552C34.7616 3.9325 35.8339 3.19812 36.8997 2.48362C37.0778 2.36392 37.3321 2.35936 37.7579 2.24711C37.3516 2.01226 37.1382 1.88842 36.9506 1.7799C36.8288 1.94433 36.7191 2.09179 36.5538 2.31504C36.3964 1.87433 36.2817 1.55208 36.1669 1.22942C36.5588 1.02149 36.9502 0.813564 37.3611 0.595694C37.4373 0.655339 37.5218 0.722026 37.6158 0.796168C38.4355 0.22954 39.4503 0.249836 40.4266 0.016641C40.5372 0.0729723 40.724 0.169067 40.9108 0.264748V0.772144C41.0309 0.792026 41.1593 0.813564 41.4269 0.858298C41.3184 0.574156 41.2517 0.398949 41.1829 0.219185C41.2442 0.157469 41.3242 0.0779428 41.4012 0.000487131C41.9595 -0.0185661 42.0395 0.525694 42.4172 0.86244C42.4574 0.626345 42.4893 0.439126 42.5336 0.178594C43.186 0.0460493 43.6847 0.555103 44.2716 0.647884C44.2952 0.871966 44.3143 1.05007 44.3574 1.45185C44.5297 1.11924 44.6262 0.932854 44.6659 0.855398H45.6563C45.5734 1.00037 45.5171 1.10019 45.3945 1.31433C45.6352 1.25593 45.7876 1.21824 46.0813 1.14658C45.9814 1.12214 46.039 1.12422 46.0846 1.14907C46.8525 1.56865 47.644 1.95096 48.3792 2.42108C49.3754 3.05853 50.2804 3.83516 51.0181 4.75386C51.6423 5.53132 52.1129 6.42972 52.7855 7.18066C52.921 7.33226 52.9814 7.55055 53.0821 7.74936C53.0576 7.77422 53.0042 7.82723 52.8824 7.94859C53.271 8.10806 53.4723 8.42575 53.558 8.79646C53.8504 10.0618 53.843 10.0635 53.6143 10.5601C53.7879 11.0037 53.9374 11.386 54.0853 11.7634C53.8513 11.8802 53.7013 11.9552 53.4938 12.0591C53.604 12.2331 53.6963 12.3793 53.7369 12.4435C53.5688 13.3485 53.4134 14.184 53.2556 15.0335C53.0908 15.0517 52.9131 15.0712 52.6762 15.0977C52.7226 15.8561 52.2048 16.3283 51.6258 16.8796C51.8714 17.0163 52.035 17.1078 52.2566 17.2313C52.1435 17.4118 52.0333 17.5871 51.8672 17.8526C51.7993 17.6525 51.7604 17.5382 51.7069 17.3804C51.5189 17.4587 51.2472 17.4872 51.1242 17.6376C50.7182 18.1338 50.3529 18.6652 50.0033 19.2033C49.9143 19.34 49.942 19.552 49.9358 19.5972C49.5349 19.953 49.0917 20.18 48.9127 20.5387C48.4248 21.5182 47.4862 21.9275 46.6781 22.5065C46.454 22.6672 46.1989 22.7845 45.9462 22.9286C45.9102 22.8288 45.863 22.6979 45.8129 22.5583C45.7603 22.5827 45.6621 22.6092 45.6633 22.6304C45.6824 22.9443 45.6762 23.2413 45.2036 23.4124H44.5462C44.313 23.6957 44.0293 24.0403 43.7476 24.3829C43.4763 24.3037 43.2763 24.2458 43.0448 24.1782C42.6774 24.9611 41.8357 25.1384 41.076 25.471C40.9911 25.403 40.9071 25.3355 40.7998 25.2494C40.5749 25.4631 40.3404 25.6855 40.101 25.9129H39.2088C39.0133 26.3159 38.7876 26.6502 38.262 26.4108C37.8834 26.6672 37.5048 26.924 37.1532 27.163C37.8424 27.5536 38.5925 27.9781 39.3646 28.4155C39.4503 28.3542 39.5365 28.2925 39.628 28.2271C39.9005 28.3136 40.1834 28.4035 40.4626 28.4921V28.7386C40.5194 28.7568 40.6105 28.8011 40.6204 28.7866C40.8151 28.5137 41.1046 28.6085 41.3445 28.6309C41.6563 28.6595 41.9579 28.7862 42.269 28.8401C42.5552 28.8898 42.8803 28.8289 43.1301 28.9432C43.473 29.1006 43.6859 28.7924 44.0024 28.804C44.3549 28.8173 44.6717 29.0629 45.0768 28.8943C45.3978 28.761 45.8129 28.8417 46.1856 28.8471C47.3471 28.8641 48.4451 28.5497 49.5465 28.2349C50.222 28.0423 50.9262 27.9375 51.5864 27.7039C52.6348 27.3336 53.6831 26.941 54.6788 26.4518C55.1465 26.2219 55.7545 26.2613 56.0896 25.7584C56.1927 25.6035 56.5709 25.7642 56.5216 25.3794C56.5133 25.3156 56.8062 25.232 56.9342 25.1272C57.1081 24.9843 57.2473 24.8004 57.4192 24.6546C57.7414 24.3795 58.0765 24.1194 58.4874 23.7881V24.6745C58.05 24.9205 58.05 24.9205 57.64 25.8661H58.2C58.4439 25.2121 59.1236 24.8807 59.5329 24.3037C59.629 24.4056 59.7056 24.4872 59.8369 24.6272C59.7279 24.8501 59.602 25.1077 59.4463 25.4258C59.5734 25.4188 59.7524 25.4618 59.8178 25.3943C60.0038 25.2034 60.143 24.9673 60.4056 24.604C60.4971 24.9267 60.5481 25.1069 60.6106 25.326C60.7958 25.4515 61.0256 25.6072 61.3678 25.8388C60.9842 25.9904 60.6972 26.1039 60.4085 26.2178C60.4661 26.4079 60.5331 26.6291 60.6152 26.8991C60.3559 27.0872 60.1098 27.2649 59.7756 27.5063C60.0084 27.636 60.1728 27.7284 60.3488 27.8265C60.1542 28.0117 59.9653 28.1923 59.7843 28.3646C59.6463 28.2871 59.4989 28.2047 59.1849 28.0287C59.2715 28.3729 59.3166 28.5518 59.3585 28.7175C59.2603 28.7846 59.1245 28.8774 59.0118 28.9544C59.0068 28.9291 58.9853 28.8264 58.9468 28.6392C58.5694 28.8918 58.212 29.1321 57.8433 29.3794C57.9349 29.48 58.0061 29.5591 57.9788 29.5285C57.804 29.7708 57.6313 30.0106 57.4291 30.2902C57.2697 30.1576 57.1636 30.0698 57.058 29.982C56.9354 30.1966 56.8124 30.4103 56.6865 30.6298H56.0705C55.4774 31.0213 54.9667 31.4164 54.4038 31.7117C53.9014 31.976 53.2308 31.7739 52.73 32.2659C52.583 32.1098 52.431 31.9487 52.2682 31.7755C52.1091 31.7867 51.9335 31.7991 51.5881 31.8236C51.907 31.9727 52.0578 32.0427 52.2587 32.1363C51.5276 32.4983 50.9535 33.2426 50.0153 32.7315C49.9018 32.845 49.7685 32.9784 49.6223 33.1242C49.5465 33.06 49.4694 32.9949 49.3373 32.8827C48.8929 33.2024 48.3917 33.2691 47.8739 32.8765C47.6801 33.0479 47.4929 33.2136 47.2808 33.4013C47.0799 33.3387 46.8803 33.2762 46.6334 33.1995C46.5808 33.2298 46.4611 33.3549 46.3497 33.3482C46.2262 33.3412 46.1181 33.1739 45.9885 33.1474C45.8083 33.1097 45.614 33.1378 45.426 33.1378C45.2752 33.1378 45.1174 33.166 44.9762 33.1295C44.8453 33.096 44.7318 32.9933 44.55 32.8847C43.9353 33.586 43.36 32.6913 42.5237 32.9444C42.8219 32.5269 42.9793 32.3069 43.1363 32.0874C42.9329 31.8981 42.4852 32.1512 42.0962 32.6905C42.0685 32.5588 42.0465 32.456 42.0196 32.3301C41.6675 31.9934 41.385 32.442 41.0462 32.4668C40.8868 32.3165 40.7265 32.1653 40.5695 32.017C40.4908 32.0862 40.4125 32.1549 40.3065 32.2485C40.2713 32.1214 40.2435 32.0203 40.1959 31.8472C39.4503 31.6297 38.648 31.4011 37.8598 31.1331C37.4721 31.0005 37.3574 30.7868 37.2683 30.5545C36.9568 30.5487 36.6006 30.6522 36.4026 30.5201C35.3042 29.7861 34.2467 28.9913 33.1685 28.2262C33 28.1065 32.7929 28.0427 32.611 27.9396C32.3944 27.8166 32.1856 27.6791 31.9471 27.5312C31.9205 27.6145 31.8808 27.7375 31.8141 27.9454C31.2384 27.8775 30.6175 28.1152 30.0442 27.7126C29.7974 27.841 29.5488 27.9703 29.2804 28.1103C28.6148 27.6422 27.7247 28.2411 27.0674 27.7855C26.8151 27.8576 26.5836 27.9239 26.3292 27.9968C26.2679 27.8178 26.2228 27.6865 26.1747 27.5461C25.7465 27.7959 25.3695 27.6787 24.9118 27.5271C24.4798 27.3846 23.9865 27.4305 23.6382 27.0482C23.5847 27.0942 23.5313 27.1398 23.4203 27.2355C23.3462 27.1812 23.2563 27.1141 23.1121 27.0076C23.0078 27.059 22.8831 27.1207 22.7783 27.1725C22.2846 27.0532 21.7755 26.9646 21.2897 26.8051C20.2968 26.4795 19.2207 26.4182 18.3103 25.8114C18.0038 25.6072 17.5908 25.5484 17.2181 25.4598C15.0315 24.9395 13.1432 23.8059 11.2842 22.6055C10.233 21.9262 9.277 21.1392 8.43451 20.211C8.15948 19.9078 7.88652 19.5616 7.53735 19.3776C7.1567 19.1772 7.0983 18.7721 6.78558 18.5306C5.93978 17.877 5.44191 16.9123 4.79368 16.0843C4.16368 15.2795 3.62564 14.396 3.11078 13.5105C2.56777 12.5756 1.97919 11.6379 1.63416 10.6252C1.30859 9.67043 0.790429 8.76871 0.686879 7.73694C0.674453 7.61143 0.482264 7.49877 0.479778 7.37782C0.465696 6.68942 0.108654 6.08262 0.0287133 5.41824C-0.0288607 4.93569 0.0179441 4.44072 0.0179441 3.86706C0.192737 3.71587 0.41392 3.52492 0.683151 3.29173C1.02984 3.39279 1.43203 3.51001 1.79859 3.61729C1.83173 3.76599 1.85493 3.8683 1.87978 3.97848H2.3238C2.53339 4.24936 2.76783 4.47842 2.90824 4.75469C3.04783 5.03055 3.16753 5.35445 3.16753 5.65723C3.16712 6.76522 3.79836 7.66197 4.14215 8.64859C4.39191 9.36558 4.74439 10.0519 5.00368 10.7755C5.14286 11.1649 5.43238 11.5024 5.66723 11.8549C6.19741 12.6498 6.63978 13.4997 7.22546 14.2606C7.54895 14.6806 7.77552 15.1789 8.11806 15.5798C8.86238 16.4501 9.61913 17.3158 10.4326 18.121C12.1474 19.8192 14.2209 20.9976 16.3776 22.0281C16.844 22.251 17.3866 22.3243 17.9011 22.4361C18.5878 22.5856 19.1814 23.0114 19.8938 23.0806C20.9231 23.1808 21.8774 23.6626 22.9332 23.6609C23.3159 23.6605 23.6974 23.8088 24.0826 23.8721C24.4678 23.9359 24.8737 23.7549 25.2503 24.078C25.3782 24.1886 25.7398 24.0668 25.9801 23.9997C26.6747 23.8063 27.1821 23.8216 27.8668 24.1008C27.9832 24.0208 28.0995 23.9409 28.264 23.8278C28.3717 23.9152 28.4839 23.9981 28.5862 24.0921C28.6678 24.1671 28.7374 24.2553 28.7842 24.3062C28.971 24.1062 29.1462 23.9185 29.3819 23.665C29.1868 23.2562 28.9308 22.7646 28.7155 22.2563C28.4984 21.744 28.3468 21.2034 28.1194 20.696C27.9061 20.2201 27.7342 19.7467 27.6187 19.055C27.6472 19.084 27.5143 18.9502 27.3552 18.7916C27.3552 18.3695 27.3734 17.9201 27.3486 17.4736C27.3312 17.1571 27.477 16.8137 27.156 16.5292C27.0607 16.4451 27.062 16.1316 27.1411 15.9928C27.4985 15.3661 27.2935 14.6943 27.3577 14.0469C27.4149 13.4724 27.4998 12.9016 28.0374 12.4783C28.0018 11.9991 28.0544 11.5136 28.3029 11.0493C28.4649 10.7469 28.4375 10.3046 28.655 10.0792C28.9366 9.78723 28.8302 9.44883 28.9582 9.17794C29.2291 8.60386 29.3115 7.86078 30.1672 7.67563C30.0202 7.48179 29.9357 7.37078 29.8367 7.24072C30.0011 7.12226 30.1722 6.99924 30.5077 6.75777C30.5578 6.62895 30.6821 6.30836 30.8751 5.81049C31.2649 5.35114 31.6956 4.61055 32.3314 4.16155C32.9569 3.72001 33.3678 3.10658 33.9373 2.64806C34.5424 2.16096 35.2147 1.75794 35.8567 1.31848Z" fill="black"/>
</svg>
