<svg width="56" height="34" viewBox="0 0 56 34" fill="none" xmlns="http://www.w3.org/2000/svg">
<path fill-rule="evenodd" clip-rule="evenodd" d="M4.27787 24.4656C4.66473 24.2026 4.98036 24.027 5.25083 23.7975C6.36959 22.8465 7.61509 22.0798 8.83201 21.2684C9.94621 20.5257 11.1064 19.8746 12.267 19.2111C13.3315 18.6026 14.3782 17.9536 15.487 17.4312C16.2736 17.0601 17.0249 16.6182 17.8372 16.2938C18.4183 16.0623 18.9224 15.5967 19.5147 15.4464C20.8786 15.0997 22.1018 14.4125 23.4148 13.9453C25.2166 13.3037 26.9918 12.5772 28.8243 12.0209C30.7296 11.4431 32.6101 10.7788 34.6769 10.3447C34.2234 10.1968 33.8953 10.0083 33.5598 9.99509C32.5835 9.95822 31.6835 9.48769 30.6998 9.52828C30.2562 9.15177 29.6792 9.45041 29.2285 9.26402C28.2572 8.86183 27.2109 8.88213 26.2214 8.61828C25.6552 8.46751 25.0948 8.34284 24.5066 8.39876C24.3041 8.08189 23.9802 8.20988 23.6981 8.16556C23.4235 8.1229 23.1617 7.99243 22.8867 7.95266C22.243 7.85864 21.5728 7.87604 20.954 7.7029C19.8912 7.4055 18.8027 7.26467 17.7344 7.02195C17.2747 6.91716 16.7834 6.92876 16.3684 6.78213C15.4949 6.47355 14.5509 6.54479 13.6906 6.16331C13.324 6.00136 12.8585 6.14923 12.4277 5.93882C12.028 5.74414 11.526 5.72426 11.0654 5.69817C10.6296 5.67414 10.2229 5.58882 9.8 5.47988C8.97533 5.26698 8.1055 5.22183 7.28828 4.98988C6.64544 4.80805 6.07675 4.67343 5.42396 4.98035C5.20941 5.08142 4.83414 4.83994 4.56201 4.76373C4.50154 4.58396 4.45888 4.45556 4.42491 4.35533C4.20953 4.46675 4.02479 4.5616 3.83799 4.65769C3.79035 5.02467 3.88852 5.34734 4.02769 5.69609C4.14491 5.98811 4.05172 6.36379 4.05172 6.70219V7.8313C4.54213 8.03219 4.09811 8.35609 4.14947 8.61828C4.21905 8.97201 4.27041 9.33609 4.27207 9.69562C4.28367 11.8408 4.27787 13.9855 4.27787 16.1307V24.4656ZM6.72787 29.2501C6.88527 29.4232 6.93373 29.4766 7.04391 29.5976C6.57379 29.8117 6.13018 30.0143 5.67828 30.2209C5.71018 30.2599 5.77314 30.3365 5.88124 30.467C5.48692 30.841 5.04953 31.1956 4.68834 31.6151C4.34497 32.0144 3.86491 32.2522 3.55385 32.697C3.42006 32.888 3.06633 32.9646 2.79876 33.0131C2.50757 33.0657 2.19982 33.0247 1.75994 33.0247C1.86722 32.8664 1.92769 32.777 1.99521 32.6767C1.93929 32.615 1.86722 32.5359 1.76325 32.422C1.85355 32.2244 1.95296 32.007 2.04657 31.8015C1.62905 31.4698 1.33953 31.8401 0.97213 31.9498C0.924497 31.6988 0.886391 31.4938 0.856154 31.336C0.619645 31.1869 0.410473 31.0547 0.218698 30.9338C0.233609 30.5701 0.0911243 30.2147 0.434083 29.972C0.106036 29.6763 0.180592 29.3383 0.302781 28.9734C0.513195 28.3438 0.739763 27.7142 0.876036 27.0668C1.00982 26.4327 0.956805 25.7525 1.13408 25.1354C1.4058 24.1881 1.16473 23.2027 1.37929 22.2956C1.64189 21.1827 1.42941 20.0817 1.57728 18.9928C1.93101 16.3928 1.75166 13.783 1.77651 11.1776C1.77941 10.8645 2.16047 10.5493 1.79266 10.2353C2.02213 9.88243 2.03456 9.48935 2.0213 9.08633C2.00846 8.71024 2.0184 8.33331 2.0184 7.9568C2.0184 7.57988 2.00183 7.20254 2.02751 6.82769C2.03663 6.70178 2.15343 6.58373 2.20976 6.48266C1.74669 5.71515 2.14391 4.94805 2.25905 4.2C1.9484 4.10391 1.68663 4.02272 1.43189 3.94361C1.31095 3.51201 1.24675 3.16698 1.63195 2.75858C1.36645 2.81491 1.18959 2.8526 0.925325 2.90893C0.880592 2.87166 0.756746 2.76976 0.632899 2.66746C0.752604 2.54817 0.805621 2.49473 0.854497 2.44586C0.560828 2.21888 0.26426 1.98899 0 1.78521C0.140828 1.52053 0.256391 1.30225 0.381893 1.06615C0.325148 0.951834 0.253077 0.806864 0.162781 0.624201C0.381065 0.446095 0.583195 0.280414 0.926154 0C1.47704 0.0451479 2.20686 0.102722 2.93544 0.168994C3.03692 0.178107 3.13219 0.253077 3.23367 0.261775C4.14325 0.342959 5.05491 0.403018 5.96284 0.497041C6.3497 0.536805 6.72746 0.654852 7.11349 0.713254C7.49994 0.772485 7.93485 0.581124 8.26166 0.943136C8.93473 0.791124 9.54485 1.2103 10.2009 1.16225C10.6143 1.1316 10.9738 1.26621 11.3533 1.3855C11.7248 1.50231 12.1647 1.23225 12.5172 1.5926C12.5925 1.67006 12.803 1.61497 12.9508 1.62077C13.382 1.63817 13.7975 1.59757 14.2253 1.82373C14.5861 2.01509 15.0417 1.78769 15.4978 2.03C15.895 2.24166 16.4645 2.10746 16.9723 2.26775C17.6164 2.47071 18.333 2.43716 19.0147 2.52953C19.3639 2.57633 19.7052 2.67822 20.0515 2.74947C20.4338 2.82858 20.8169 2.90396 21.2005 2.97521C21.5484 3.03982 21.8793 2.98598 22.2563 3.15828C22.7885 3.40142 23.4529 3.38941 24.0638 3.41675C24.5737 3.43911 25.0178 3.82432 25.5508 3.65408C26.4592 4.10308 27.532 3.85248 28.4328 4.33213C29.5719 4.23231 30.6331 4.6929 31.7415 4.8329C32.6275 4.94473 33.5457 5.11041 34.4214 5.41527C34.988 5.61201 35.6317 5.57266 36.2289 5.69651C36.8167 5.81828 37.4251 5.84438 37.9909 6.07426C38.4221 6.24905 38.9511 5.98148 39.3383 6.36544C40.5056 6.33189 41.6011 6.83556 42.7663 6.81734C43.2849 7.15864 43.9612 6.85544 44.4338 7.14166C44.945 7.45024 45.5721 6.96769 45.9933 7.49041C46.0227 7.52686 46.1387 7.48586 46.2128 7.49621C46.8155 7.5803 47.4571 7.29574 48.0266 7.68923C48.4822 7.27669 49.0924 7.70249 49.5115 7.46639C49.987 7.1984 50.4414 7.32598 50.9024 7.26964C51.549 7.19136 52.1943 7.0845 52.8425 7.05219C53.5595 7.01574 54.1912 7.25473 54.7127 7.90089C54.3391 8.12124 53.9762 8.3358 53.5856 8.56651C53.9497 8.7003 54.3767 8.58266 54.7831 8.63485C55.1907 9.11823 55.1869 9.11905 54.8887 9.64426C55.0221 9.77722 55.155 9.91059 55.3505 10.1061C55.3145 10.5091 55.2731 10.9685 55.2267 11.4841C55.0428 11.8354 54.8175 12.2645 54.5809 12.7151C53.7053 12.5254 52.9221 13.013 52.0601 12.9334C51.2388 12.858 50.3694 12.7678 49.5853 12.9537C48.5137 13.2076 47.3647 13.0643 46.3557 13.5949C45.2966 13.5469 44.3034 13.9428 43.2733 14.092C42.1715 14.2514 41.0705 14.5542 39.9754 14.8226C39.1184 15.0322 38.2813 15.3101 37.3928 15.4286C36.6419 15.5284 35.9228 15.8639 35.1843 16.0772C34.5435 16.262 33.8448 16.3216 33.2649 16.619C32.6838 16.9164 32.0546 17.0071 31.4636 17.1736C29.7442 17.6574 28.1073 18.3578 26.4161 18.9083C24.7253 19.4588 23.1265 20.2379 21.4796 20.8989C19.5341 21.6797 17.6938 22.6796 15.842 23.6443C14.442 24.3733 13.083 25.1979 11.7617 26.0806C10.5174 26.9127 9.21556 27.6537 8.07775 28.6416C7.87935 28.8139 7.56538 28.8495 7.31024 28.9605C7.11722 29.0442 6.9329 29.1469 6.72787 29.2501Z" fill="black"/>
</svg>
