<svg width="44" height="66" viewBox="0 0 44 66" fill="none" xmlns="http://www.w3.org/2000/svg">
<path fill-rule="evenodd" clip-rule="evenodd" d="M37.0271 60.2895C36.7222 59.9867 36.5777 59.8434 36.3801 59.6466V59.3186C35.9912 58.8936 35.6109 58.4877 35.2419 58.0723C34.9304 57.7218 34.6504 57.3408 34.3215 57.0086C33.955 56.6387 33.6348 56.2295 33.2463 55.872C32.8954 55.5498 32.4266 55.3058 32.2087 54.8684C31.9564 54.3593 31.4018 54.2044 31.0837 53.7762C30.7901 53.3806 30.4227 53.0401 30.0884 52.6764C30.0805 52.6843 30.0279 52.7373 29.9621 52.8028C28.8243 51.8501 27.7047 50.8647 26.243 50.2339C26.2285 50.1954 26.1788 50.0657 26.1179 49.9063C26.0354 49.9721 25.9601 50.0322 25.8826 50.0943C25.1238 49.6942 24.326 49.3343 23.5825 48.913C22.6672 48.394 21.6416 48.0954 20.7954 47.4306C20.3704 47.0967 19.8096 46.8822 19.2769 46.7625C18.9505 46.6896 19.0151 46.4783 18.8938 46.3077C18.7857 46.3744 18.6772 46.4407 18.5322 46.5301C17.9308 46.2128 17.3115 45.8864 16.6737 45.5501C16.7938 45.4184 16.8667 45.3389 16.9814 45.213C16.7859 44.9359 16.7959 44.4898 16.0979 44.3746C16.4401 44.2549 16.6517 44.1808 16.9122 44.0896C16.5892 43.7906 16.4624 43.673 16.3025 43.5247C16.1754 43.6021 16.0565 43.675 15.9256 43.755C15.7504 43.6556 15.5491 43.5421 15.3553 43.4323C15.3698 43.3399 15.3586 43.2252 15.3959 43.2053C15.6742 43.0616 15.9625 42.9365 16.2454 42.8064C16.3435 42.2717 15.8196 42.3202 15.593 42.094C15.6464 42.0406 15.6999 41.9876 15.7736 41.9134C15.7065 41.7805 15.6353 41.6388 15.5603 41.4897C15.8333 41.2996 16.0905 41.1202 16.4558 40.8659C17.3907 40.7955 18.475 40.8009 19.5188 40.5979C20.0581 40.4935 20.6554 40.5793 21.1069 40.3651C21.6677 40.0996 22.2289 40.3535 22.7185 40.1589C23.2586 39.9447 23.8232 40.0856 24.3186 39.9257C24.8624 39.7501 25.4262 39.864 25.9215 39.7057C27.1008 39.3288 28.3802 39.3831 29.5089 38.8264C30.0114 38.9631 30.5134 38.5248 31.0158 38.8264C31.536 38.4979 32.1308 38.4151 32.7173 38.2958C33.5453 38.1276 34.3033 37.6919 35.1793 37.6811C35.427 37.6778 35.6722 37.484 36.0728 37.3104C35.0137 37.0039 34.1049 36.7405 32.9932 36.4186C32.9302 36.3404 32.7215 36.0798 32.5111 35.8168C32.1818 35.9121 31.9502 35.9792 31.703 36.0504C30.6857 35.6578 29.4526 35.6238 28.56 34.7784C28.2162 35.2001 27.725 34.8782 27.358 34.9946C26.1535 34.3804 24.8649 34.3153 23.4943 33.9711C23.4798 33.955 23.3535 33.8166 23.2334 33.6849C22.7459 33.4989 22.2298 33.7499 21.7327 33.4343C21.3724 33.2048 20.8252 33.1556 20.3799 33.2032C19.8365 33.2612 19.3092 33.1146 18.912 32.9087C18.4187 32.6531 17.9689 32.8246 17.4652 32.6917C17.3786 32.5972 17.2519 32.4589 17.0763 32.2671C15.9567 32.3711 14.8238 32.1524 13.6504 32.0629C13.5402 31.9183 13.4305 31.7738 13.2884 31.5874H12.1303C12.274 31.4192 12.3407 31.3418 12.4795 31.1802C11.9 31.2362 11.5686 30.928 11.2601 30.4964C11.3201 30.3912 11.3893 30.2698 11.4477 30.1667C10.8794 29.5831 10.2958 28.9837 9.76314 28.437C9.84888 28.1371 9.91432 27.9097 9.9984 27.616C10.08 27.5767 10.2333 27.503 10.3861 27.4292V27.1646C10.268 27.1248 10.138 27.0809 9.94 27.0142C9.89071 26.3473 10.2859 25.9054 10.734 25.4995C11.2588 25.4104 11.2588 25.4104 11.6163 24.756C11.3727 24.8927 11.2804 24.9444 11.1366 25.0248C11.1105 24.9229 11.0803 24.8073 11.0393 24.6466C11.2924 24.6085 11.5003 24.5775 11.7579 24.5385C11.6693 24.4267 11.6109 24.3521 11.5674 24.297C11.9799 23.7271 12.3933 23.1559 12.8568 22.516H13.3596C13.2474 22.3838 13.182 22.3064 13.0929 22.2016C13.2246 22.1569 13.3489 22.115 13.5129 22.0595V21.5811C13.6595 21.4345 13.766 21.3285 13.8728 21.2216C14.1185 21.4262 14.5169 21.4664 14.577 21.8764C14.9378 21.3732 14.4734 21.1553 14.1777 20.7925C14.4014 20.773 14.5757 20.7577 14.7588 20.742C15.0396 20.2776 15.4137 19.8779 15.4323 19.2396C15.4476 18.707 15.9762 18.4444 16.5059 18.2278C16.4198 18.1114 16.3676 18.0409 16.2632 17.9009C16.4653 17.8612 16.6447 17.8264 16.8733 17.7821C16.8659 17.7286 16.8547 17.6495 16.8224 17.4143C17.0332 17.1177 17.4196 16.7433 17.5957 16.2872C17.8463 15.6378 18.5562 15.4207 18.8018 14.7514C19.0172 14.1644 19.4198 13.6421 19.8676 13.1496C20.4781 12.4782 20.9288 11.6618 21.4854 10.8529H20.8658C20.8153 10.9606 20.7424 11.1155 20.6425 11.3267C20.4748 11.2215 20.3282 11.1292 20.1525 11.0194C19.8655 11.1872 19.542 11.3359 19.2682 11.5488C19.0388 11.7269 18.6353 11.7472 18.6366 12.1651C18.2087 12.0524 17.9784 12.3697 17.7274 12.6153C17.652 12.5395 17.599 12.4865 17.5576 12.4451C16.6356 13.3418 15.518 13.9188 14.35 14.4188C14.065 14.7178 13.7801 15.0164 13.4976 15.3122H13.1231C12.6244 15.6688 12.1908 15.9791 11.6975 16.3324C11.567 16.1029 11.4742 15.9401 11.3545 15.7301C11.031 15.9144 10.727 16.088 10.4453 16.2487C10.5174 16.5424 10.5791 16.7959 10.6408 17.0469C9.96775 17.4954 9.35018 17.9072 8.5603 18.4336C8.66012 17.9958 8.8871 17.8802 9.04657 17.6827C8.60089 17.4089 8.50065 17.8918 8.2571 18.026C8.14651 17.9461 8.03716 17.8657 7.80231 17.6943C7.74763 17.9055 7.69627 18.1031 7.64491 18.3007C7.58734 18.2447 7.52976 18.1888 7.47219 18.1333C7.5571 18.2779 7.64201 18.4224 7.73521 18.5819C7.43533 18.731 7.18763 18.854 6.94325 18.975C6.83473 18.8801 6.75231 18.808 6.66367 18.7302C6.58953 18.7985 6.51041 18.8706 6.40852 18.9642C6.46609 19.2715 6.52657 19.5983 6.58249 19.8962C5.67414 20.4309 4.8097 20.9391 3.94527 21.4478C3.91462 21.4167 3.88355 21.386 3.85331 21.3554C3.91627 21.268 3.97882 21.1806 4.13414 20.9644C3.56379 21.0692 3.09325 21.1557 2.54651 21.2564C2.41852 20.8231 2.30047 20.4226 2.12941 19.8411C2.11325 19.8282 1.93722 19.6899 1.71396 19.5143C2.8497 18.7778 3.74314 17.855 4.6842 17.0104C5.98686 15.8415 7.47343 14.9489 8.83491 13.8753C10.2523 12.7574 11.8188 11.8271 13.317 10.8102C14.1702 10.2316 15.0061 9.62604 15.8705 9.06396C17.0841 8.27533 18.2886 7.46639 19.5528 6.76763C20.1099 6.45988 20.5233 5.96781 21.1649 5.7516C21.7157 5.56604 22.1718 5.0955 22.6659 4.7455C23.928 3.85207 25.2149 2.99675 26.3751 1.96124C27.1302 1.28651 27.9747 0.710769 28.8967 0H30.2458C30.2562 0.327219 30.3833 0.679704 30.0238 1.03799C30.3208 1.07112 30.5983 1.10178 30.8605 1.13077C31.4006 2.05609 31.4938 3.05266 31.3496 4.2145C31.2436 4.2903 31.0315 4.44189 30.6434 4.72024C30.5854 4.74343 30.2976 4.85899 29.9517 4.99734C30.0793 5.35148 30.175 5.6174 30.2653 5.86799C29.9654 6.27349 29.6924 6.70053 29.3602 7.07456C29.0773 7.39349 29.096 7.99118 28.3889 7.9129C28.555 8.07982 28.6085 8.13284 28.7075 8.23225C28.1839 8.43355 28.3152 9.25905 27.5986 9.26899C27.575 9.46698 27.5539 9.64468 27.5291 9.85509C27.4359 9.87663 27.3335 9.90024 27.2201 9.92633C26.7093 11.2692 25.7443 12.3295 24.8479 13.4661C24.8479 13.5489 24.8902 13.6877 24.8405 13.7705C24.6392 14.1048 24.4756 14.5857 24.1749 14.7079C23.6861 14.9059 23.7122 15.6365 23.066 15.5876C23.0503 15.861 23.0358 16.1145 23.0205 16.3862C22.895 16.4322 22.7645 16.4798 22.605 16.5382C22.598 16.6704 22.5905 16.8153 22.5781 17.039C22.3101 17.2933 21.9986 17.5891 21.63 17.9391C21.5103 17.6856 21.4399 17.536 21.3425 17.3285C21.1528 17.6122 20.9818 17.8682 20.8107 18.1246C20.8807 18.2373 20.9507 18.3491 21.063 18.5276C20.8832 18.6349 20.6889 18.7041 20.5663 18.8387C20.4591 18.9563 20.4325 19.1477 20.3712 19.3038C20.4371 19.3995 20.517 19.5151 20.6525 19.7118C20.4649 19.8224 20.3041 19.9164 20.0341 20.0755C19.9641 20.0556 19.7338 19.9906 19.472 19.9165V20.3741C19.0872 20.5796 18.8167 20.72 18.7111 21.2166C18.5318 22.0608 18.0045 22.8005 17.6031 23.573C17.5418 23.6915 17.3207 23.7267 17.1749 23.7992C17.2515 23.8915 17.3149 23.9682 17.3086 23.9603C16.9922 24.3302 16.7453 24.7175 16.4057 24.9888C16.0606 25.265 15.6237 25.427 15.1266 25.6921C15.026 25.9389 15.2637 26.0035 15.8759 25.8789C15.4808 26.1957 15.3482 26.3022 15.1871 26.431C15.0454 26.3602 14.8996 26.2873 14.6221 26.1485C14.7439 26.4612 14.8255 26.6712 14.9179 26.9082C14.8624 26.9819 14.799 27.0676 14.695 27.2068C14.8007 27.3054 14.9344 27.5245 15.0396 27.5117C15.5541 27.4487 15.9422 27.6951 16.3195 27.8977C17.1463 27.6807 17.8711 28.1371 18.6386 28.2233C19.4836 28.3173 20.3377 28.4564 21.1446 28.7124C21.9175 28.9568 22.7011 29.2281 23.4856 29.3002C24.3186 29.3764 25.0803 29.6763 25.8896 29.8092C26.7147 29.9447 27.5278 30.1994 28.3193 30.479C29.0819 30.7491 29.8859 30.8282 30.6525 31.1123C31.4317 31.401 32.2596 31.6388 33.0769 31.7908C33.887 31.9415 34.6028 32.3139 35.3864 32.5078C36.1672 32.7008 36.9401 32.9315 37.7039 33.1841C38.4967 33.4463 39.2721 33.7611 40.0595 34.0407C40.8162 34.3095 41.5788 34.563 42.403 34.8451C42.6022 35.0443 42.8657 35.3073 43.1254 35.567C43.0612 35.6391 42.9887 35.7215 42.9228 35.7953C42.888 36.2786 43.3035 36.2741 43.5288 36.4008C43.6183 36.8863 43.7024 37.3407 43.7931 37.8319C43.7546 37.8733 43.6792 37.9549 43.6092 38.0303C44.1369 38.6209 43.7351 39.1246 43.4008 39.5666C43.0628 40.0127 42.6155 40.3755 42.1885 40.8025C41.1004 40.955 40.156 41.8372 38.9146 41.5034C38.8802 41.6703 38.8591 41.7734 38.8239 41.9462C38.1562 42.0559 37.45 42.1715 36.6506 42.3024C36.6427 42.3285 36.6042 42.4569 36.5756 42.5521C35.9485 42.7261 35.3434 42.9104 34.7291 43.0562C34.4876 43.1134 34.1683 43.1825 33.9844 43.0749C33.5167 42.8015 33.1266 42.8036 32.6606 43.0749C32.4464 43.1995 32.1308 43.1482 31.8703 43.3308H32.7563C32.6921 43.4667 32.6631 43.5657 32.6432 43.5636C32.0517 43.5098 31.5062 43.7347 30.9752 43.912C30.5279 44.0615 30.025 44.1406 29.6999 43.9579C29.2782 43.721 28.9146 43.8995 28.3591 43.7127C28.5264 43.9451 28.5749 44.0126 28.6242 44.0809C27.9544 44.5113 27.6749 44.631 27.1488 44.3713C26.728 44.1634 26.3776 44.3253 25.9849 44.4202C26.2848 44.4541 26.5847 44.4881 27.1004 44.5465C26.3697 44.7018 25.8565 44.8108 25.1325 44.9644C26.9181 45.7696 28.2568 46.893 29.7011 47.8568C31.1724 48.8385 31.8566 49.4622 32.7629 50.615C32.9278 50.8241 33.2239 50.926 33.407 51.1257C33.7234 51.472 33.9711 51.8841 34.3004 52.2163C34.6028 52.5211 35.0249 52.7129 35.3073 53.0318C36.0541 53.8764 36.6572 54.8415 37.4645 55.6409C37.5436 55.7192 37.4972 55.925 37.5101 56.0882C37.6699 56.1872 37.9015 56.2551 38.0092 56.4096C38.5356 57.1647 39.0836 57.9132 39.5156 58.7221C39.859 59.365 40.2541 59.9792 40.552 60.6614C40.8465 61.3353 40.8928 62.0295 41.0825 62.698C41.2785 63.3898 41.0892 64.1337 40.7533 64.856C39.9563 64.1689 39.2054 65.0391 38.401 64.9911C38.7796 65.0205 39.1586 65.0499 39.5376 65.0793C39.5338 65.1394 39.5297 65.1998 39.526 65.2599H38.7783C38.5522 65.2599 38.326 65.2562 38.1003 65.2607C37.8472 65.2665 37.5676 65.1911 37.3982 65.4744C37.2582 65.1414 36.9861 65.5324 36.8449 65.3846C36.5909 65.1199 36.4704 65.6803 36.2045 65.4541C36.0575 65.3295 35.816 65.2922 35.6109 65.2673C35.3575 65.2367 35.0978 65.2599 34.8646 65.2599C34.7987 65.0718 34.7527 64.9409 34.6802 64.7338C34.6115 64.9331 34.568 65.059 34.5079 65.2346C34.3882 65.245 34.247 65.2574 34.0159 65.2773C33.7988 65.0606 33.5416 64.8038 33.3105 64.5731C33.1104 64.5839 32.9659 64.5918 32.8337 64.5988C32.7753 64.7587 32.7277 64.8888 32.6622 65.0689C32.5707 64.878 32.5007 64.7318 32.4303 64.5856H32.1826C32.1143 64.7305 32.0409 64.8854 31.9606 65.0565C31.3107 64.8453 30.7051 64.5429 29.9952 64.5599C29.6738 64.5673 29.3466 64.3325 28.9866 64.1937C28.9924 64.1896 28.9394 64.2306 28.8582 64.2931C28.2895 64.1411 27.7001 63.9837 26.974 63.7895C27.2188 63.5902 27.3824 63.4573 27.5344 63.3334C27.1741 63.2829 26.9355 63.3106 26.5648 63.4527C26.5362 63.4312 26.5051 63.4125 26.4786 63.3881C26.424 63.3363 26.3718 63.2821 26.3096 63.2195C26.2591 63.2746 26.2102 63.3305 26.1585 63.3835C26.1332 63.4092 26.1025 63.4299 26.0719 63.4544C25.7745 63.3575 25.475 63.2597 25.0815 63.1313V62.138C25.0306 62.1132 24.9796 62.0888 24.9283 62.0643C24.8355 62.2064 24.7431 62.3489 24.611 62.551C24.6557 62.6326 24.7353 62.7767 24.886 63.0514C24.3633 62.9221 23.9367 62.8169 23.5225 62.7142C23.4922 62.5775 23.4699 62.4748 23.4463 62.3679C22.8767 62.754 22.458 62.4417 22.0322 62.1124C21.8963 62.0076 21.7311 61.9272 21.567 61.8759C21.1992 61.7603 20.8235 61.67 20.3746 61.5495C20.3708 61.5362 20.3414 61.436 20.2801 61.2289C20.0705 61.243 19.8191 61.2599 19.4194 61.2873C19.4836 61.3411 19.419 61.2504 19.3337 61.2206C18.6428 60.9783 17.9241 60.8184 17.2523 60.5185C17.1889 60.4904 17.1053 60.5131 17.0353 60.4957C16.5796 60.3814 16.375 59.7953 15.8403 59.8413C15.3681 59.8819 15.0732 59.5083 14.6731 59.3803C14.2427 59.2428 13.8252 59.0651 13.4052 58.8978C13.2756 58.8464 13.1621 58.7449 13.0299 58.7155C12.8866 58.6832 12.7305 58.708 12.5114 58.708C12.4062 58.5689 12.2707 58.3908 12.1709 58.2586H11.4046C10.9519 57.7836 10.5017 57.2956 9.75195 57.3495C9.68527 57.3544 9.58959 57.342 9.55148 57.2989C8.90698 56.5687 7.89178 56.5687 7.12302 56.0493C6.3816 55.5485 5.47698 55.2963 4.68793 54.8564C3.64249 54.274 2.63929 53.6167 1.62118 52.9859C1.52757 52.9283 1.43479 52.8425 1.38343 52.7473C0.90213 51.8572 0.430355 50.9617 0 50.1523C0.107692 49.5969 0.196331 49.1404 0.310237 48.5535C0.491657 48.4421 0.789882 48.2594 1.07941 48.0817C1.68414 48.3153 2.28142 48.5125 2.84846 48.7755C3.4184 49.0398 3.9842 49.3314 4.50609 49.6789C5.64929 50.4389 6.93331 50.9236 8.11959 51.5933C8.82166 51.9897 9.64343 52.1769 10.2254 52.7841C11.5533 53.135 12.728 53.8341 13.9677 54.3871C14.5037 54.6261 15.0098 54.9483 15.5922 55.1033C16.129 55.2453 16.643 55.4719 17.1678 55.6591C18.808 56.2456 20.445 56.8392 22.0893 57.4133C22.9455 57.7123 23.8095 57.9927 24.6789 58.2516C25.5546 58.5121 26.4728 58.6849 27.3182 58.9785C28.7998 59.493 30.358 59.5795 31.8446 60.0343C32.6295 60.2746 33.5043 60.2431 34.341 60.2812C35.1562 60.3189 35.9746 60.2895 37.0271 60.2895Z" fill="black"/>
</svg>
