<svg width="60" height="65" viewBox="0 0 60 65" fill="none" xmlns="http://www.w3.org/2000/svg">
<path fill-rule="evenodd" clip-rule="evenodd" d="M42.0609 3.98015C41.9333 4.10814 41.8269 4.21417 41.6922 4.34879C40.9985 4.27133 40.2819 4.16033 39.5612 4.11974C38.8483 4.07997 38.1309 4.11104 37.4156 4.11104C36.8511 4.11104 36.2335 3.96731 35.7356 4.14956C35.1823 4.35252 34.5779 4.1421 34.1422 4.37654C33.636 4.64909 33.0263 4.33885 32.6138 4.78909C31.7585 4.705 31.0485 5.23269 30.2586 5.35696C29.3702 5.49654 28.5733 5.84281 27.7577 6.15346C26.8154 6.51258 25.8424 6.78512 24.9391 7.2598C24.2954 7.59778 23.6012 7.855 22.9335 8.1408C21.7456 8.64944 20.7237 9.38589 19.6853 10.107C19.1166 10.5013 18.6229 11.0025 18.094 11.4536C17.594 11.881 17.0353 12.2555 16.6008 12.7409C15.0645 14.459 13.4342 16.1117 12.4376 18.2403C11.7525 18.8549 11.4767 19.7364 11.1325 20.5242C10.7883 21.312 10.2767 22.0604 10.1869 22.9551C9.43302 24.1965 9.13438 25.6164 8.72183 26.9749C8.39669 28.0448 7.91497 29.1031 7.92781 30.2645C7.51817 30.6029 7.75178 31.1364 7.52893 31.5713C7.30278 32.0129 7.15988 32.5778 7.23899 33.1474C7.31396 33.6879 6.92627 34.1729 7.00746 34.7491C7.07663 35.2432 7 35.7365 6.83142 36.2452C6.66781 36.7372 6.8513 37.32 6.59284 37.8448C6.5303 37.9716 6.76101 38.2197 6.78503 38.4206C6.8016 38.5597 6.60485 38.7789 6.65704 38.8505C6.96231 39.2684 6.70467 39.7253 6.79911 40.0724C6.64959 40.3524 6.5332 40.5694 6.36462 40.8846C6.50006 40.9567 6.68728 41.057 6.85586 41.1468C6.85586 42.6367 6.8542 44.0189 6.86249 45.4007C6.8629 45.4541 6.96231 45.5071 7.01698 45.5618C6.94408 45.6417 6.87118 45.7221 6.79828 45.8025C6.98426 46.5232 7.26675 47.217 7.26385 47.987C7.26219 48.4074 7.3732 48.8352 7.48172 49.2474C7.70663 50.0998 7.88763 50.9684 8.04669 51.8283C8.22645 52.7983 8.73799 53.5874 9.13894 54.4319C9.53408 55.2657 10.0788 55.9988 10.9308 56.5091C12.1063 57.2129 13.2565 57.9651 14.4979 58.542C15.091 58.8175 15.7421 59.0217 16.3344 59.2835C16.9549 59.5573 17.616 59.6761 18.2365 59.8588C18.7886 60.0207 19.4364 60.08 20.0469 60.1346C20.5493 60.1798 21.0398 60.1442 21.5443 60.3413C21.9953 60.5174 22.5719 60.2117 23.0238 60.5907C23.0457 60.6093 23.0971 60.5932 23.1348 60.5932C24.9896 60.5803 26.8427 61.0782 28.683 60.7854C29.9273 60.5878 31.2374 60.5733 32.3976 59.9586C34.1944 59.7329 35.7489 58.7483 37.4852 58.3337C37.9607 57.8831 38.6334 57.8325 39.1739 57.497C39.7028 57.1686 40.3159 56.9793 40.8651 56.6798C42.8064 55.6215 44.7573 54.5802 46.6113 53.3691C46.9725 53.133 47.2289 52.7909 47.6377 52.5842C48.1447 52.3278 48.5734 51.8929 48.9884 51.4865C49.3761 51.1063 49.7866 50.7555 50.0562 50.2415C50.3213 49.7353 50.8275 49.3874 51.1828 48.9086C52.0117 47.7919 52.8894 46.6992 53.4382 45.4272C53.7795 44.6369 54.1063 43.8197 54.397 42.9983C54.6775 42.2055 54.7748 41.3693 55.1082 40.5852C55.3667 39.9788 55.3033 39.2336 55.3708 38.549C55.4533 37.7148 55.5535 36.881 55.5904 36.0447C55.628 35.1803 55.65 34.3092 55.5841 33.4485C55.5187 32.5965 55.3973 31.7482 55.2027 30.9057C55.0917 30.4273 54.9662 29.9261 54.938 29.4353C54.8945 28.6665 54.5789 28.003 54.2927 27.3241C53.7244 25.9751 52.8993 24.7996 52.0204 23.622C51.0499 22.3218 49.6561 21.5274 48.621 20.3274C48.1886 19.8267 47.5689 19.4622 46.9816 19.1291C46.5347 18.8752 45.9937 18.8235 45.5108 18.5923C44.9185 18.309 44.2491 18.1881 43.6141 17.993C43.5487 17.9731 43.4936 17.9027 43.4298 17.8965C42.6333 17.8153 41.8364 17.7345 41.0386 17.6707C40.7392 17.6467 40.431 17.6322 40.1369 17.6774C39.8901 17.7155 39.6718 17.3091 39.4266 17.6488C39.0298 17.3435 38.6649 17.7971 38.2453 17.689C37.8766 17.5941 37.486 17.7188 37.0896 17.858C36.6365 18.017 36.0877 17.8414 35.6101 18.1115C35.3144 18.2788 34.9785 18.3749 34.6409 18.5112C34.5473 18.4175 34.4143 18.2842 34.2764 18.1467C34.23 18.1815 34.1397 18.2196 34.1422 18.2515C34.1675 18.6151 34.0519 18.8504 33.6973 19.0343C33.0727 19.3586 32.4862 19.7562 31.8479 20.1448C31.7394 20.0826 31.5886 19.9969 31.3132 19.8395C31.2693 20.0139 31.2192 20.2123 31.1819 20.361C31.1285 20.3349 31.2726 20.4049 31.452 20.4915C30.904 21.0295 30.3609 21.5456 29.8378 22.0807C28.5998 23.3474 27.5651 24.7664 26.7226 26.3238C26.2906 27.1228 25.8267 27.909 25.4551 28.7357C24.9991 29.7497 24.5302 30.7587 24.1765 31.8211C23.9226 32.5832 23.6443 33.3338 23.4061 34.1029C23.2582 34.5805 23.3444 35.068 23.1124 35.5609C22.8353 36.1499 23.0002 36.9307 22.8167 37.5843C22.6025 38.3477 22.6373 39.1036 22.603 39.8686C22.5926 40.1039 22.4625 40.3338 22.3843 40.5757C22.4538 40.6539 22.5272 40.7359 22.6013 40.8192C22.5574 40.8689 22.5102 40.9219 22.4725 40.965C22.5201 41.2715 22.6059 41.5689 22.6059 41.8667C22.6054 42.7386 22.8337 43.562 23.0619 44.3909C23.4214 45.6939 24.3231 46.548 25.5053 47.0128C26.8916 47.5574 28.3575 47.8138 29.8581 47.9981C31.0817 48.1481 32.2886 48.071 33.4853 48.1825C34.0469 47.7836 34.7134 47.6411 35.2887 47.2944C35.4817 47.178 35.7311 47.1126 35.9307 46.9448C36.7641 46.2415 37.6757 45.6418 38.4843 44.8954C38.8459 44.5615 39.2683 44.2521 39.637 43.9029C40.7967 42.8057 41.5208 41.4372 42.0393 39.9498C42.2121 39.4552 42.2469 38.8836 42.5202 38.4607C42.8371 37.9703 42.5082 37.3532 42.9469 36.9369C43.0218 36.0273 43.1821 35.1136 43.1436 34.2081C43.1167 33.5674 42.8856 32.9312 42.9427 32.2672C42.9556 32.121 42.176 30.3345 42.0029 30.178C41.6268 29.8375 41.2188 29.5326 40.8245 29.2129C40.4335 29.4249 40.1208 28.8968 39.6473 29.1545C39.2567 29.367 38.6644 29.4055 38.2283 29.2837C37.7354 29.1462 38.0713 29.5405 37.9056 29.6192C36.5669 30.255 35.7124 31.51 34.5071 32.3227C34.4483 32.362 34.4089 32.4308 34.4694 32.362C34.3302 32.8458 34.3244 33.26 34.1182 33.5081C33.5147 34.2351 33.3801 35.172 32.9174 35.9561C32.8155 36.1292 32.8105 36.3657 32.7824 36.5753C32.7211 37.0363 32.9265 37.5317 32.5649 37.9591C32.4904 38.047 32.5252 38.2582 32.5595 38.4003C32.6573 38.802 32.7811 39.1972 32.9153 39.6673C34.3891 38.6645 34.93 36.999 35.9953 35.7622H36.8188C36.6568 36.1193 36.5098 36.4432 36.2675 36.9762C36.6125 36.8288 36.7798 36.7977 36.8917 36.7016C37.1472 36.4809 37.3759 36.2282 37.6285 35.9755C37.9636 36.1996 38.1434 36.5761 38.4565 36.8383C38.7489 37.0823 38.8438 37.5632 39.118 38.1315C39.1288 38.9739 38.4184 39.8135 38.2022 40.8072C37.7946 41.076 37.3349 41.2351 37.2644 41.8779C37.2226 42.259 36.8428 42.6028 36.6709 42.8741C36.1871 43.0894 35.7957 42.8956 35.3906 43.1379C34.8231 43.4775 34.2163 42.872 33.5938 42.9706C32.7153 42.389 31.6694 42.1654 30.7727 41.5822C30.0983 41.1435 29.6779 40.5446 29.2248 39.9552C28.9108 39.5468 28.7613 39.0162 28.4834 38.5751C28.2083 38.1393 28.2083 37.6224 28.0849 37.1643C27.896 36.4618 27.9151 35.6467 28.0642 34.9243C28.2759 33.9037 28.4618 32.8632 28.9299 31.8998C29.5139 30.6974 30.2537 29.6113 31.1765 28.6549C32.0405 27.7594 32.9099 26.8784 34.0088 26.2356C34.7208 25.8193 35.5161 25.688 36.2443 25.3525C36.5851 25.1951 36.8999 25.5919 37.3129 25.3782C37.6099 25.2249 38.0535 25.319 38.4263 25.3562C38.8127 25.3956 39.3317 25.3695 39.5475 25.6006C40.0296 26.1171 40.8701 25.8226 41.2395 26.4655C41.9594 26.4667 42.403 26.9994 42.8818 27.3949C44.105 28.406 45.382 29.3902 45.9622 30.9629C46.0467 31.1919 46.1225 31.4235 46.2017 31.6513C46.3056 31.6745 46.4083 31.6973 46.5007 31.718C46.668 32.3442 46.8304 32.9535 46.9973 33.5781C46.9692 33.6146 46.9244 33.6713 46.8428 33.7757C46.9799 33.9932 47.132 34.2346 47.3266 34.5436C47.0247 34.5913 46.8176 34.6244 46.591 34.6604C46.584 34.7735 46.5778 34.8754 46.5691 35.0208H47.0736C47.1469 35.0883 47.1742 35.1136 47.2015 35.1384C46.8884 35.4246 47.395 35.6856 47.2355 35.9494C46.8619 36.5674 47.0914 37.2459 47.0052 37.8904C46.9398 38.3783 46.8358 38.8691 46.6776 39.3343C46.5773 39.6296 46.3458 39.8798 46.1751 40.1474C46.6403 40.8337 45.7692 41.5076 46.065 42.2482C45.9813 42.2656 45.8786 42.2871 45.7638 42.3112C45.5398 42.7995 45.307 43.3065 44.9769 44.0251V44.7815C44.7259 45.3862 44.4392 45.836 43.8598 46.0009V46.4991C43.2389 47.1084 42.6408 47.7989 41.93 48.3411C41.6479 48.5565 41.3717 48.7909 41.0863 49.0075C40.8307 49.2022 40.5304 49.3489 40.3088 49.5746C39.5686 50.3276 38.6309 50.7762 37.7143 51.2302C36.4302 51.8664 34.5957 52.1488 33.1825 51.9948C32.6676 51.9389 32.1685 51.7355 31.6023 51.5835C31.4793 51.6311 31.2573 51.8096 31.0941 51.7661C29.3002 51.2898 27.4545 51.0678 25.7115 50.3127C24.413 49.7498 23.1543 49.1314 22.0322 48.3171C21.2141 47.7239 20.4868 46.9523 19.9177 46.0576C19.2562 45.0175 18.5873 43.9936 18.2505 42.792C18.2228 42.6939 18.1155 42.6139 18.0998 42.517C18.0132 41.9852 17.8902 41.4521 17.879 40.9174C17.8488 39.4494 17.8015 37.9765 17.8943 36.514C17.9482 35.6723 18.1317 34.822 18.2741 33.9812C18.4117 33.1714 18.6018 32.3786 18.755 31.5755C18.9278 30.67 19.2761 29.8296 19.5735 28.9726C19.8125 28.2851 20.0258 27.5573 20.3824 26.9418C20.9975 25.8794 21.4034 24.7221 22.0686 23.6725C22.7061 22.6664 23.3009 21.6226 23.9731 20.6323C24.3153 20.1274 24.6537 19.6051 25.0786 19.1743C26.1208 18.1177 27.0888 16.9716 28.333 16.1353C29.4095 15.4121 30.4616 14.6873 31.7249 14.2329C32.9824 13.781 34.2217 13.4467 35.5455 13.3655C35.7812 13.351 36.0107 13.2235 36.2546 13.1444C36.3321 13.2123 36.4149 13.2839 36.4994 13.3577C36.5479 13.3171 36.6009 13.2732 36.6585 13.2255C36.8751 13.2744 37.1162 13.2852 37.3129 13.3838C37.5859 13.5209 37.7296 13.0665 38.0701 13.3067C38.2987 13.4683 38.7175 13.3523 39.0501 13.3771C39.3325 13.3978 39.6593 13.2545 39.871 13.5747C40.1949 13.0959 40.4894 13.6662 40.8025 13.6012C41.2159 13.5151 41.575 13.7077 41.9532 13.8207C42.2908 13.9214 42.642 13.9765 42.987 14.0519C43.3325 14.1273 43.7169 14.1302 44.0163 14.2904C45.2801 14.9664 46.7944 15.1756 47.8021 16.301C48.5672 16.2786 49.0414 16.8374 49.5836 17.2064C51.525 18.5286 53.1528 20.2144 54.7408 21.9204C56.2957 23.5909 57.5947 25.478 58.4015 27.624C58.8298 28.7622 59.314 29.8942 59.4739 31.1439C59.5762 31.9454 59.8098 32.7481 59.8765 33.5599C59.9436 34.3825 59.891 35.2151 59.891 36.0435C59.891 36.6457 59.8968 37.2484 59.8898 37.8506C59.8827 38.4624 59.9316 39.0559 59.5456 39.6346C59.3236 39.9672 59.3782 40.4845 59.3082 40.919C59.7411 41.1572 58.9238 41.5805 59.4159 41.7963C59.0953 42.4197 58.7751 43.041 58.4525 43.6685C58.3448 43.5707 58.2719 43.4804 58.1779 43.4287C58.1228 43.3984 58.0337 43.4295 57.9202 43.4345C57.8436 43.7124 58.1675 43.7389 58.2723 44.009V44.9285C58.1717 45.0291 58.0387 45.1625 57.8776 45.3236C57.9306 45.3928 57.9873 45.4661 58.052 45.5498C57.5748 46.0294 57.5151 46.7282 57.1821 47.294C56.8048 47.9348 56.4685 48.6041 55.9408 49.0664C55.5742 48.9686 55.2826 48.8912 54.991 48.8137C54.9728 48.868 54.9546 48.9222 54.9363 48.9765C55.0718 49.0353 55.2072 49.0945 55.4234 49.1886C55.2188 49.329 55.0407 49.4507 54.863 49.5725C54.8899 49.6235 54.9169 49.6744 54.9438 49.7249C55.1215 49.6852 55.2996 49.6458 55.546 49.5903C55.563 49.7258 55.587 49.9167 55.6123 50.1168C55.4495 50.1764 55.3191 50.2241 55.1285 50.2936C55.1757 50.5161 55.2242 50.7472 55.2963 51.0893C55.0353 51.238 54.6837 51.4397 54.2798 51.6704C54.1129 52.047 53.9153 52.4918 53.7182 52.9358C53.7517 52.9561 53.7857 52.9764 53.8196 52.9959C52.9979 53.8177 52.2333 54.7082 51.3402 55.443C50.2683 56.3248 49.1147 57.1176 47.9467 57.8719C46.2907 58.9417 44.595 59.9499 42.9009 60.9593C42.7 61.079 42.4051 61.0405 42.1027 61.0828C41.727 61.7662 40.9028 61.8586 40.2653 62.233C39.6701 62.5826 38.9975 62.8017 38.331 63.0904C38.2573 62.9421 38.1831 62.793 38.1077 62.6414C37.7358 63.5481 36.7881 63.5613 36.0413 63.9267C35.9415 63.8707 35.7969 63.79 35.5977 63.6777C35.5385 63.8699 35.4995 63.9983 35.4602 64.1259C35.4337 64.1528 35.3976 64.2075 35.3815 64.2017C34.9172 64.0493 34.5249 64.3446 34.1252 64.4552C32.2124 64.9878 30.2615 64.8159 28.3214 64.9042C26.8303 64.9717 25.3723 64.7029 23.8978 64.6262C23.3369 64.5973 22.7264 64.5426 22.1946 64.3918C21.6453 64.2361 21.0994 64.3218 20.5879 64.186C19.9396 64.0141 19.2914 63.8616 18.6382 63.7121C17.927 63.5497 17.2217 63.3348 16.5304 63.0838C15.842 62.8336 15.1308 62.646 14.4432 62.3949C13.7573 62.1448 13.0975 61.8233 12.4095 61.5798C10.4014 60.869 8.71231 59.5867 6.89148 58.54C6.06225 57.5881 5.07065 56.8016 4.28201 55.7922C3.6603 54.9973 3.12639 54.1511 2.60615 53.307C2.04491 52.3961 1.67669 51.3619 1.3768 50.3206C1.0616 49.2279 0.770414 48.1315 0.690059 46.9879C0.668106 46.6768 0.537633 46.3745 0.475089 46.0642C0.411716 45.7523 0.612189 45.3854 0.268402 45.1286C0.229467 45.0996 0.251006 44.9886 0.24645 44.9161C0.171065 43.6296 0.0654438 42.3439 0.0285799 41.0561C-0.00911243 39.7394 0.0149112 38.421 0.0289941 37.1034C0.0306509 36.982 0.156568 36.8623 0.224911 36.7418C0.16071 36.6697 0.0873965 36.5877 0 36.4896C0.0815976 36.299 0.253491 36.0965 0.231538 35.9175C0.0948521 34.7992 0.51858 33.7285 0.478402 32.6205C0.468462 32.3405 0.355385 32.0108 0.681361 31.8041C0.330118 31.5589 0.735621 31.3386 0.713254 31.0933C0.687574 30.8179 0.659408 30.5454 0.846627 30.248C1.08686 29.8657 0.773314 29.3015 1.14982 28.9101C1.15479 27.7147 1.71314 26.6548 1.9687 25.5232C2.16462 24.6562 2.49059 23.8643 2.84142 23.0574C3.13053 22.3935 3.29083 21.6711 3.5497 20.9806C4.16355 19.3441 4.91864 17.7759 5.69154 16.221C6.20598 15.1868 6.97805 14.2855 7.49746 13.24C8.17882 12.9165 8.31385 12.1407 8.80675 11.6362C9.31083 11.121 9.76314 10.5295 10.2796 10.0072C10.809 9.47204 11.3243 8.92074 11.8805 8.41417C12.7885 7.58619 13.824 6.9069 14.7534 6.11536C15.6924 5.31554 16.778 4.78287 17.7962 4.14376C18.7567 3.54068 19.8601 3.124 20.9503 2.78394C21.7178 2.54494 22.4344 2.17506 23.2313 2.004C24.2212 1.79193 25.1814 1.444 26.1614 1.18015C26.5722 1.06914 27.1049 1.15281 27.3969 0.917547C27.8339 0.56589 28.3492 0.924588 28.7435 0.589499C29.0877 0.297488 29.6464 0.733227 29.9675 0.272636C29.9799 0.254825 30.0404 0.264766 30.0768 0.270979C31.0071 0.437902 31.8827 -0.00570764 32.8076 0.0357125C33.7093 0.07589 34.6401 -0.0910331 35.512 0.0754758C36.9194 0.344292 38.3857 0.359204 39.6966 1.14784C40.6837 1.74181 41.5195 2.39335 41.9615 3.47151C42.0282 3.63388 42.0315 3.82151 42.0609 3.98015Z" fill="black"/>
</svg>
