<svg width="33" height="32" viewBox="0 0 33 32" fill="none" xmlns="http://www.w3.org/2000/svg">
<path fill-rule="evenodd" clip-rule="evenodd" d="M6.63678 19.2392C6.34021 19.2674 6.18198 19.2479 6.05234 19.3001C4.43613 19.9488 3.60979 21.4163 2.58755 22.6779C2.54695 22.7281 2.60122 22.8788 2.64346 22.9671C2.7263 23.1365 2.88867 23.1497 3.01873 23.0536C4.40755 22.0256 6.12482 21.3098 6.63678 19.2392ZM24.8107 9.21557C26.0475 9.41315 26.8146 8.41658 27.8 8.01729C28.2287 7.84332 28.5588 7.07291 29.026 7.72072C29.4444 8.30019 29.2315 9.06025 28.6723 9.52291C28.3687 9.77474 28.0601 9.92675 28.1061 10.4226C28.8467 10.4876 29.4663 10.1177 29.8428 9.60658C30.4852 8.73468 31.1931 9.10167 31.6057 9.5722C31.86 9.86214 31.8695 10.662 31.3642 11.1449C31.1533 11.3466 30.4712 11.4394 31.2018 12.0065C31.4872 12.2276 30.6675 12.6688 30.4128 13.0606C30.2835 13.2594 29.9662 13.3265 29.784 13.5042C29.5993 13.6848 29.6341 13.9072 29.8378 14.0911C30.1398 14.3637 30.1965 14.0671 30.2972 13.894C30.8754 12.9053 31.8231 12.2985 32.7426 11.4672C33.2881 12.5793 32.3889 13.0784 31.9424 13.6831C31.0556 14.8839 29.9638 15.8937 28.7874 16.8124C28.6541 16.9164 28.5443 17.0966 28.6408 17.3662C29.5388 17.167 30.0971 16.4281 30.9048 15.8142C30.9819 17.0034 30.0288 17.2855 29.5106 17.7465C27.9739 19.1129 26.3163 20.3452 24.6802 21.596C24.1513 22.0003 24.0527 22.4671 24.1467 23.0764C24.4164 24.8239 24.6881 26.5723 24.8968 28.3276C25.0219 29.3814 25.0783 30.4463 23.8613 31.0436C23.5606 31.191 23.4318 31.7634 23.0888 31.0568C22.912 30.6923 22.6324 31.0779 22.4547 31.2034C21.9229 31.58 21.5754 31.7142 21.3533 30.8696C21.1628 30.1435 20.8194 29.383 19.8399 30.1886C19.7181 30.2889 19.4344 30.3291 19.3006 30.2574C18.176 29.6556 16.6422 29.9488 15.8291 28.6739C15.5301 28.2046 15.1395 28.1471 14.6802 28.4337C13.6981 29.0463 12.6994 28.4697 11.7112 28.4482C11.4196 28.442 11.5778 28.0617 11.6449 27.8791C11.8325 27.3684 12.0628 26.8738 12.3594 26.1767C11.2203 26.6597 10.1202 26.482 9.22471 27.2669C8.91364 27.5398 8.15731 27.3394 7.61015 27.2913C7.40015 27.2731 7.18891 27.0904 7.42335 26.8059C7.8537 26.2844 7.83796 25.5368 8.41039 25.0658C7.82471 24.7117 7.41589 24.8065 7.07003 25.2679C6.98015 25.3872 6.8708 25.4924 6.77098 25.6043C5.37305 27.1662 4.60346 27.2039 3.04731 25.7832C2.9392 25.685 2.74204 25.5587 2.7553 25.4709C2.93382 24.3016 2.09009 23.4889 1.52388 22.75C0.831748 21.8462 0.413819 20.8753 0.060505 19.8643C-0.17269 19.1953 0.311097 18.6026 0.779972 18.1275C2.61695 16.2682 4.69666 14.7414 7.11145 13.7192C8.11382 13.2946 8.49323 12.8808 8.02187 11.6672C7.15246 9.43054 6.52246 7.08989 6.71465 4.63244C6.93956 1.75664 9.91684 -0.48502 12.7322 0.0907193C13.02 0.149536 13.387 0.166932 13.498 0.481311C13.6252 0.839595 13.2379 0.97711 13.0457 1.18338C12.542 1.72391 11.9067 2.18409 11.9696 3.19681C12.6464 2.96735 12.8544 2.37877 13.1994 1.95007C14.0597 0.880187 15.7803 1.0703 16.2632 2.35847C16.443 2.83646 16.7582 2.72752 17.0403 2.81575C18.0749 3.138 18.579 4.03806 18.1557 4.84658C18.7526 5.09261 20.0233 4.91823 18.9961 6.18735C18.9332 6.2648 18.9402 6.39859 18.9154 6.50628C20.194 6.65746 19.2107 7.57119 19.4435 8.07569C19.7226 8.68125 20.1306 8.33622 20.4864 8.20326C22.1308 7.58942 23.6791 6.7403 25.3645 6.21634C25.7911 6.0838 26.2794 5.94462 26.5238 6.24906C26.9086 6.72912 26.214 6.87575 26.0322 7.19344C25.6519 7.85823 24.7601 8.18711 24.8107 9.21557Z" fill="black"/>
</svg>
