<svg width="110" height="168" viewBox="0 0 110 168" fill="none" xmlns="http://www.w3.org/2000/svg">
<path fill-rule="evenodd" clip-rule="evenodd" d="M58.6078 161.743C59.5323 161.986 60.3106 161.408 61.1742 161.226C62.0378 161.044 62.9225 160.863 63.7393 160.594C64.5189 160.338 65.3286 160.092 66.0957 159.758C66.8914 159.412 67.743 159.191 68.5317 158.831C69.3046 158.479 70.2224 158.449 70.8338 157.706C69.5071 158.083 68.2475 158.701 66.8413 158.91C66.7332 159.031 66.6089 159.171 66.4573 159.341H65.2769C65.2433 159.488 65.2197 159.591 65.1949 159.698C64.8428 159.657 64.5404 160.019 64.1767 159.797C63.9953 160.264 63.4999 160.166 63.1591 160.339C62.8227 160.51 62.4238 160.562 62.0482 160.649C61.6688 160.736 61.2761 160.776 60.9033 160.885C60.5529 160.988 60.2215 161.153 59.8918 161.287L59.6972 161.093C59.2527 161.77 58.4198 161.351 57.8589 161.736C57.8357 161.752 57.7024 161.609 57.6075 161.528C57.318 161.68 57.0396 161.826 56.7526 161.976C56.6693 161.913 56.5596 161.829 56.4179 161.72C56.2141 161.901 56.0331 162.062 55.8625 162.213C55.7643 162.136 55.691 162.08 55.6322 162.035C55.5274 162.113 55.457 162.165 55.3936 162.212C55.3012 162.119 55.2482 162.066 55.2134 162.031C54.8713 162.216 54.5379 162.395 54.2044 162.575C54.2214 162.632 54.238 162.689 54.255 162.746C55.5618 162.545 56.869 162.343 58.2446 162.13C58.322 162.048 58.45 161.911 58.6078 161.743ZM58.2367 160.431C58.6223 160.246 58.8936 160.039 59.1927 159.986C60.6163 159.733 61.9724 159.244 63.3521 158.84C64.825 158.409 66.2647 157.869 67.7074 157.354C68.6485 157.017 69.6082 156.69 70.5194 156.23C71.0135 155.98 71.4977 155.693 71.9956 155.443C72.8095 155.036 73.6272 154.609 74.3566 154.072C74.6643 153.847 75.1821 153.761 75.2463 153.246C76.6136 152.449 77.4009 151.106 78.3395 149.913C79.368 148.607 80.2001 147.165 80.9697 145.696C81.5015 144.681 82.0011 143.646 82.4294 142.575C82.8034 141.638 83.2085 140.713 83.5854 139.778C83.8836 139.036 84.1731 138.285 84.4262 137.531C84.6809 136.771 84.9527 136.012 85.1631 135.231C85.3718 134.458 85.5682 133.669 85.7604 132.893C85.8676 132.46 86.0544 131.977 86.0043 131.532C85.943 130.988 86.2893 130.553 86.2533 130.041C86.2197 129.564 86.462 129.093 86.4442 128.668C86.3817 127.178 86.7499 125.721 86.6981 124.243C86.6318 122.354 86.8729 120.461 86.5055 118.571C86.3117 117.574 86.5838 116.523 86.2727 115.501C86.0764 114.856 86.1576 114.123 85.9372 113.49C85.7061 112.825 85.5549 112.131 85.3975 111.465C85.1788 110.539 84.869 109.639 84.6536 108.712C84.4407 107.8 84.0393 106.933 83.7759 106.031C83.2863 104.354 82.6837 102.729 82.0118 101.113C81.492 99.8628 81.0273 98.5817 80.4445 97.3581C79.0959 94.5266 77.6677 91.7329 76.3261 88.8977C75.7922 87.7681 75.3328 86.5984 74.8428 85.4474C74.0778 83.6493 73.2747 81.8716 72.7938 79.9716C72.5854 79.1498 72.2851 78.3173 72.2744 77.4864C72.2475 75.3595 72.1472 73.2367 72.6575 71.1131C73.0204 69.6021 73.4814 68.1441 74.0612 66.718C74.9862 64.4436 76.3953 62.4517 77.8582 60.505C78.7947 59.2582 79.7983 58.0587 80.8107 56.8712C81.6026 55.9422 82.419 55.0284 83.2892 54.1735C84.2937 53.1865 85.2157 52.1191 86.3655 51.2683C87.3422 50.5455 88.0886 49.5506 89.0636 48.7893C90.23 47.8789 91.2568 46.7908 92.342 45.7777C92.5073 45.6236 92.6344 45.3987 92.827 45.3096C93.5635 44.97 93.9806 44.2836 94.565 43.7812C95.1491 43.2788 95.7389 42.7822 96.303 42.2582C96.5031 42.0722 96.6224 41.6352 96.8021 41.6216C97.2963 41.5843 97.1509 41.1229 97.3907 40.9087C98.9725 39.4946 100.272 37.8312 101.408 36.0385C102.146 34.8738 102.927 33.7352 103.641 32.5564C104.038 31.9023 104.348 31.1949 104.677 30.5023C104.901 30.031 104.999 29.5136 105.2 29.0253C105.543 28.1882 105.794 27.2786 105.883 26.3798C105.996 25.2238 105.91 24.0482 105.91 22.8814C105.523 22.4093 105.812 21.8091 105.618 21.3079C105.017 19.7497 104.62 18.1132 103.665 16.692C103.004 15.7067 102.39 14.6977 101.554 13.8411C100.578 12.8408 99.494 11.9755 98.3985 11.1094C97.3311 10.2653 96.1825 9.55783 95.0037 8.91914C93.9383 8.34174 92.8759 7.72334 91.6959 7.36712C91.2328 7.22754 90.802 6.98275 90.3522 6.79636C89.8663 6.59423 89.4285 6.22849 88.8478 6.33783C88.4738 5.9257 87.9461 5.97665 87.4706 5.83955C86.3187 5.50695 85.2248 4.96144 83.9859 4.98712C82.7909 4.38736 81.4543 4.57872 80.1927 4.35257C79.0138 4.14133 77.7671 4.38446 76.5643 4.09535C76.2437 4.01831 75.8506 4.17819 75.5607 4.05931C75.2036 3.9131 74.9278 4.52073 74.6113 4.09121C74.3719 4.45736 73.9995 4.29789 73.6852 4.30245C72.443 4.31985 71.2004 4.30949 69.9578 4.30949C69.732 4.30949 69.4475 4.2221 69.2921 4.32689C68.9185 4.57955 68.5221 4.56795 68.1328 4.52405C67.6755 4.47186 67.2932 4.71085 66.869 4.756C65.9988 4.84878 65.1249 4.91091 64.253 4.98878C64.1473 4.99831 64.0376 5.01239 63.9402 5.05091C62.9561 5.43778 61.9015 5.56079 60.8901 5.85653C59.4437 6.27902 57.9517 6.55695 56.5111 7.02044C54.4103 7.69559 52.384 8.54553 50.5234 9.73925C48.9093 10.7756 47.3792 11.9341 46.0062 13.2798C45.512 13.7649 45.126 14.3601 44.636 14.8505C43.3536 16.1337 42.442 17.6807 41.5361 19.2199C40.7392 20.5735 40.0106 21.9822 39.34 23.393C38.558 25.0398 37.2653 26.1785 35.9796 27.2782C34.7846 28.3013 33.4165 29.1591 32.0451 29.9883C30.2098 31.098 28.3628 32.1844 26.4865 33.2195C25.5728 33.7232 24.6218 34.1672 23.6604 34.5743C22.6676 34.9943 21.584 35.23 20.6467 35.7416C19.5718 36.3281 18.468 36.8674 17.4022 37.4775C15.9165 38.3282 14.3935 39.1206 12.9156 39.9946C11.8971 40.5968 10.9328 41.2649 10.0328 42.0221C9.21349 42.7109 8.44349 43.4577 7.64077 44.1672C7.51444 44.2791 7.33343 44.3288 7.2071 44.3926C7.16817 44.5947 7.13296 44.7736 7.09361 44.9753C6.9532 44.8714 6.88278 44.8188 6.79953 44.7571C6.57006 45.6244 6.18858 46.3111 5.3929 46.6835C5.45627 46.7593 5.52047 46.8364 5.59462 46.925C5.4426 46.9846 5.31296 47.0352 5.25994 47.0559C5.06154 47.7091 4.81757 48.3018 4.70533 48.9181C4.3429 50.9142 4.35408 51.8809 4.69621 53.8111C4.75172 54.1263 4.70781 54.4274 4.83538 54.7679C5.1274 55.5482 5.29515 56.3825 5.60538 57.1611C6.10698 58.4212 6.54231 59.7288 7.21663 60.8939C7.98953 62.2297 8.71438 63.5871 9.44627 64.9436C9.7971 65.5943 10.2254 66.2032 10.6205 66.8303C10.8276 67.1587 11.0434 67.4818 11.2451 67.814C12.1038 69.2272 12.9289 70.662 13.8227 72.0525C14.7443 73.4865 15.7173 74.8877 16.6931 76.2856C17.6885 77.7126 18.6337 79.1759 19.5764 80.6335C20.9739 82.7952 22.5963 84.814 23.7404 87.1452C24.0452 87.7656 24.505 88.3232 24.8599 88.9378C25.2298 89.5774 25.5355 90.2434 25.8627 90.8995C26.1564 91.4889 26.4033 92.1094 26.5988 92.7385C26.8079 93.412 26.9993 94.1311 27.0204 94.8083C27.0569 95.9751 27.095 97.1432 26.8895 98.3369C26.6431 99.768 25.9799 100.981 25.4436 102.269C25.4054 102.36 25.1983 102.38 25.135 102.407C24.997 102.853 24.9643 103.319 24.7344 103.645C23.8418 104.906 22.9269 106.156 21.9402 107.343C21.3338 108.072 20.8873 108.952 20.0573 109.486C19.6091 110.541 18.7314 111.284 18.0252 112.134C17.0266 113.335 16.052 114.553 15.1034 115.793C14.4067 116.705 13.645 117.584 13.0801 118.572C12.5578 119.487 11.9584 120.365 11.4945 121.301C10.2875 123.737 8.92686 126.125 8.53503 128.883C8.0471 129.579 8.15189 130.443 7.89675 131.214C7.64077 131.989 7.70538 132.87 7.6329 133.705C7.62296 133.817 7.67888 133.969 7.62379 134.037C7.2245 134.535 7.52976 135.123 7.39225 135.641C7.25059 136.173 7.13213 136.693 7.17811 137.245C7.26053 138.229 6.98095 139.242 7.4055 140.201C7.25763 140.946 7.57988 141.643 7.66438 142.362C7.75675 143.148 8.02391 143.952 8.34947 144.664C8.67959 145.386 8.92438 146.153 9.39201 146.844C9.80538 147.456 10.2357 148.026 10.7634 148.518C11.3259 149.043 11.7695 149.683 12.4886 150.063C13.1153 150.395 13.6612 150.884 14.2228 151.329C14.367 151.444 14.4357 151.654 14.5405 151.822C14.6014 151.761 14.6549 151.708 14.7137 151.649C14.9883 151.863 15.2463 152.225 15.5437 152.261C16.1414 152.333 16.3088 152.737 16.4989 153.12C16.8584 153.238 17.1902 153.347 17.3078 153.385C17.7518 153.887 18.0592 154.236 18.3818 154.601C18.712 154.503 19.0056 154.417 19.2893 154.333C19.4902 154.676 19.4898 155.113 19.9285 155.275C20.0192 155.082 20.0908 154.93 20.2225 154.649C20.5725 155.013 20.8803 155.334 21.1967 155.664C22.016 155.304 22.0309 155.344 22.7831 155.965C23.0399 156.177 23.4301 156.372 23.8327 156.18L24.232 156.58C25.2505 156.586 25.2505 156.586 25.8677 156.974C25.5889 157.1 25.3052 157.229 24.8666 157.428C25.3064 157.467 25.5877 157.493 25.8578 157.517C25.9634 157.733 25.9228 158.115 26.395 157.842C26.3453 157.59 26.2914 157.315 26.2218 156.958C26.8017 157.137 27.3004 157.311 27.8107 157.442C28.6246 157.651 29.4037 157.97 30.2114 158.202C30.6418 158.326 31.0535 158.36 31.4636 158.451C32.0438 158.691 32.6333 159.005 33.238 159.037C33.909 159.072 34.4595 159.511 35.0812 159.495C35.7588 159.477 36.3341 159.824 36.9451 159.778C37.0072 159.961 37.0457 160.077 37.0971 160.229C37.4011 159.846 37.7412 159.995 38.0543 160C38.1077 160.145 38.1558 160.275 38.1769 160.333C38.3956 160.308 38.6425 160.204 38.7518 160.285C39.007 160.473 39.2721 160.161 39.5475 160.404C39.7583 160.589 40.1402 160.6 40.4521 160.646C41.0221 160.73 41.5866 160.603 42.1802 160.839C42.6855 161.041 43.3163 160.84 43.8867 161.085C44.2736 161.251 44.7619 160.959 45.174 161.249C45.5369 161.505 46.065 161.111 46.3951 161.538C46.4912 161.077 46.9331 161.797 47.0383 161.331C47.2011 161.484 47.3573 161.63 47.508 161.771C47.593 161.699 47.6688 161.582 47.762 161.565C47.9446 161.532 48.1372 161.555 48.3253 161.555C49.0783 161.555 49.8325 161.585 50.5839 161.547C51.3452 161.509 52.1032 161.405 52.8624 161.329C52.9709 161.319 53.1242 161.35 53.1805 161.29C53.5293 160.922 53.965 161.182 54.3502 161.104C54.733 161.027 55.1128 160.917 55.4996 160.887C55.9317 160.854 56.3649 160.896 56.7625 160.655C57.2211 160.377 57.7376 160.405 58.2367 160.431ZM74.9982 160.46C75.0255 161.341 73.9308 160.92 73.7328 161.558H72.6596C72.2226 161.783 71.849 161.976 71.3739 162.222C70.6764 162 70.0679 162.592 69.3555 162.781C68.8634 162.911 68.2715 162.977 67.999 163.58C67.9377 163.716 67.6349 163.78 67.4336 163.808C66.3791 163.953 65.4546 164.498 64.4373 164.771C63.8562 164.927 63.2551 164.972 62.6856 165.166C62.365 165.275 62.0308 165.343 61.6021 165.456C61.7147 165.223 61.7644 165.119 61.8866 164.866C61.5959 165.006 61.4314 165.114 61.2517 165.163C61.086 165.208 60.9033 165.19 60.6685 165.203C60.8031 165.355 60.8739 165.435 61.0106 165.589C60.3214 165.758 59.6756 165.916 59.0303 166.074C57.9994 166.326 56.9146 166.326 55.8712 166.774C55.7005 166.539 55.5233 166.294 55.2971 165.983C55.1351 166.136 55.0076 166.258 54.8518 166.405C55.0063 166.481 55.1467 166.55 55.3729 166.66C54.4157 166.769 53.5405 166.869 52.7199 166.963C52.5762 166.768 52.4673 166.62 52.3149 166.413C52.1898 166.668 52.1152 166.819 52.0386 166.975C51.8775 166.825 51.7213 166.679 51.566 166.534C51.503 166.597 51.4496 166.65 51.3966 166.704C51.2243 166.635 51.052 166.567 50.7082 166.431C50.8647 166.693 50.9223 166.789 51.0412 166.988C50.6382 166.929 50.2704 167.129 49.9684 166.732C48.9155 167.265 47.8564 166.894 46.7559 166.707V165.878C46.4725 165.863 46.2249 165.849 45.9208 165.833C45.7908 166.014 45.6504 166.21 45.4486 166.49C45.4954 166.469 45.4279 166.528 45.3687 166.521C44.7975 166.451 44.1538 166.504 43.6829 166.246C43.3462 166.061 43.2571 166.378 43.0496 166.302C42.8209 166.217 42.5873 166.093 42.3533 166.086C41.896 166.072 41.4984 165.97 41.2176 165.659C41.0374 165.726 40.8618 165.862 40.7164 165.836C39.5749 165.628 38.4027 165.527 37.3179 164.981C37.2702 165.024 37.1915 165.095 37.136 165.146C36.89 165.01 36.6498 164.878 36.4099 164.745L36.1975 164.958C35.7812 164.701 35.1682 164.812 34.867 164.261C34.7743 164.346 34.6931 164.421 34.5614 164.543C34.3414 164.378 34.1161 164.209 33.8522 164.012C33.6795 164.066 33.4803 164.129 33.3241 164.178C32.8482 164.054 32.3682 163.967 31.9175 163.801C31.4627 163.632 31.0365 163.384 30.5975 163.171C30.0772 163.536 29.7873 162.882 29.3118 162.874C28.8562 162.867 28.4055 162.554 27.9246 162.365V161.813L27.807 161.799C27.7751 161.985 27.7424 162.172 27.7043 162.395C27.2809 162.231 26.8502 162.063 26.4008 161.889C26.3834 161.816 26.3593 161.713 26.344 161.649C26.0309 161.527 25.7426 161.414 25.4212 161.288C25.5558 161.138 25.6262 161.059 25.7737 160.894H24.5116C24.6479 160.716 24.7034 160.644 24.8119 160.503C24.7005 160.451 24.5708 160.392 24.3513 160.291C24.1044 160.408 23.708 160.597 23.3262 160.779C23.2412 160.433 22.8345 160.376 22.5065 160.186C22.4004 160.254 22.2886 160.326 22.0326 160.492C22.1428 160.188 22.2057 160.014 22.2762 159.82C22.2024 159.747 22.096 159.64 21.944 159.488C21.8102 159.56 21.6602 159.64 21.5028 159.724C21.4449 159.601 21.3744 159.451 21.2941 159.281C21.2112 159.451 21.1421 159.591 21.0029 159.876V159.143C21.082 159.116 21.2129 159.072 21.3736 159.017C21.3877 158.929 21.4034 158.826 21.4312 158.645C21.2117 158.735 21.0427 158.804 20.843 158.885C20.7875 158.725 20.7428 158.597 20.6922 158.452C20.1434 158.344 19.5888 158.235 19.0118 158.121C18.9675 158.278 18.9394 158.378 18.8863 158.564C18.736 158.51 18.5778 158.427 18.4104 158.399C18.2331 158.369 18.0467 158.392 17.8749 158.392C17.8102 158.092 17.645 157.98 17.4114 157.86C17.2229 157.763 17.133 157.474 17.0017 157.274C16.9214 157.346 16.8398 157.42 16.7275 157.522C16.4856 157.403 16.2359 157.28 16.0109 157.169C15.9853 157.042 15.9637 156.939 15.9434 156.842C15.7326 156.817 15.5549 156.797 15.3838 156.777C15.3317 156.632 15.2844 156.502 15.2298 156.352C15.1324 156.438 15.0541 156.507 15.0069 156.549C13.9072 155.907 13.1207 154.872 11.9928 154.259C11.5222 154.003 11.1399 153.583 10.7212 153.234C10.244 152.837 9.67533 152.505 9.32367 152.017C8.97822 151.538 8.68041 151.074 8.11213 150.853C8.08024 150.431 7.69047 150.273 7.47467 149.987C7.28083 149.73 7.08574 149.473 6.91633 149.201C6.39527 148.364 5.81787 147.553 5.38793 146.67C4.73225 145.325 4.16645 143.933 3.79243 142.475C3.53769 141.484 3.25521 140.504 3.08456 139.486C2.91183 138.456 2.73373 137.429 2.67491 136.391C2.61278 135.303 2.66911 134.208 2.6571 133.117C2.65172 132.641 2.97728 132.244 2.90314 131.739C2.83562 131.281 2.94953 130.827 3.07751 130.357C3.28462 129.595 3.2345 128.768 3.34675 127.976C3.46107 127.167 3.54059 126.331 3.81562 125.573C4.16314 124.615 4.23562 123.585 4.6842 122.658C4.90953 122.19 4.98781 121.653 5.20444 121.18C5.84355 119.787 6.44663 118.37 7.1984 117.038C8.08189 115.472 9.06769 113.958 10.0825 112.472C10.7928 111.433 11.5575 110.428 12.3701 109.457C13.5162 108.087 14.6689 106.722 15.8018 105.342C16.7925 104.136 17.7879 102.932 18.7629 101.713C19.914 100.274 21.046 98.7979 21.794 97.0997C22.3039 95.9416 22.7765 94.7503 22.7732 93.4369C22.7707 92.2225 22.2973 91.16 21.722 90.144C20.5357 88.0477 19.139 86.0848 17.8015 84.0846C16.8576 82.6726 15.953 81.2345 15.0169 79.8175C14.6076 79.1979 14.2634 78.5397 13.8285 77.935C13.3737 77.3038 12.979 76.6298 12.5412 75.9858C12.1208 75.3657 11.6743 74.7639 11.2472 74.1484C10.8222 73.5354 10.3542 72.9443 9.99882 72.2923C9.12112 70.6856 8.06864 69.1866 7.16734 67.5945C6.8045 66.9537 6.5713 66.2342 6.07177 65.6755C5.59296 65.1395 5.54615 64.3405 4.95592 63.8774C4.44728 62.4646 3.50953 61.2564 3.08746 59.7905C2.85923 58.9994 2.30586 58.3072 2.01716 57.5269C1.65391 56.5461 1.27491 55.5677 1.05828 54.5301C0.93071 53.92 0.63497 53.3422 0.557515 52.7068C0.541361 52.5743 0.387278 52.4343 0.412959 52.3241C0.54426 51.7521 0.158225 51.2691 0.172308 50.7203C0.187219 50.1562 0.190118 49.5904 0.167751 49.0266C0.160296 48.8245 0.0633728 48.6261 0 48.4004C0.0521894 48.1394 0.171065 47.8284 0.166509 47.519C0.132544 45.2574 0.934852 43.2817 2.21639 41.4749C2.96692 40.4171 3.61846 39.2585 4.83414 38.6236C5.04953 37.7832 5.90899 37.5831 6.44331 37.0658C7.20917 36.3248 8.10426 35.6898 9.02254 35.1393C10.4677 34.2732 11.9141 33.403 13.3853 32.5837C14.753 31.822 16.1961 31.1953 17.6106 30.5185C19.9985 29.3757 22.4675 28.4061 24.7916 27.1282C25.3433 26.8251 25.9485 26.5914 26.4385 26.2091C27.2002 25.616 28.106 25.2913 28.8909 24.7474C29.6431 24.2259 30.4595 23.7964 31.2146 23.2787C31.7233 22.9299 32.1768 22.5016 32.6498 22.1023C33.1812 21.6542 33.7441 21.2342 34.2259 20.7371C34.9321 20.0073 35.5882 19.2307 36.1631 18.3849C36.4128 18.0175 36.8159 17.759 37.105 17.414C37.8683 16.504 38.6785 15.6284 39.2675 14.5842C39.7811 13.6746 40.3635 12.818 41.0979 12.0629C41.5817 11.5655 41.9681 10.9703 42.4689 10.4927C44.1423 8.89801 45.8972 7.42346 47.9541 6.30138C49.1545 5.64653 50.3681 5.04925 51.5975 4.45819C53.0269 3.77103 54.5375 3.3647 56.0099 2.83369C56.9638 2.48991 57.9745 2.30144 58.962 2.05209C59.3737 1.94854 59.8827 1.98624 60.1826 1.75056C60.5935 1.42707 61.0653 1.80854 61.436 1.46766C61.7669 1.16405 62.3369 1.60973 62.6541 1.14624C63.2427 1.20423 63.8048 1.08121 64.3698 0.927539C64.7802 0.816119 65.2069 0.750675 65.6302 0.700142C66.0208 0.653752 66.4449 0.79748 66.7808 0.471089C66.8003 0.45245 66.8546 0.463633 66.8914 0.469432C68.0069 0.638426 69.078 0.198959 70.1872 0.234994C70.8549 0.256533 71.562 0.32819 72.1849 0.147598C72.8592 -0.0483192 73.505 0.0647577 74.1607 0.0258228C74.8358 -0.0143547 75.5176 0.0519175 76.1927 0.00925475C77.4917 -0.0723429 78.7521 0.417243 80.0531 0.242864C80.4768 0.529906 80.9975 0.350971 81.4175 0.498012C81.8855 0.662036 82.3577 0.593693 82.7988 0.709669C84.9626 1.2792 87.1653 1.70127 89.233 2.62742C90.4678 3.18038 91.7862 3.5457 93.0014 4.16286C94.7626 5.05588 96.4675 6.04292 98.0667 7.20352C98.8582 7.77843 99.6253 8.38357 100.38 9.01026C101.064 9.57813 101.755 10.1381 102.331 10.8029C103.926 12.6445 105.394 14.5693 106.621 16.6978C107.596 18.389 108.063 20.248 108.804 22.0116C108.967 22.401 108.882 22.8375 109.032 23.27C109.263 23.9377 109.211 24.701 109.304 25.4205C109.345 25.7328 109.481 26.0331 109.516 26.3454C109.554 26.6801 109.546 27.0239 109.521 27.361C109.459 28.1588 109.41 28.9611 109.288 29.751C109.17 30.5181 108.998 31.2802 108.795 32.0299C108.252 34.0284 107.392 35.8981 106.355 37.6817C105.471 39.2039 104.541 40.7004 103.6 42.1882C103.311 42.6455 102.936 43.0547 102.567 43.4548C101.089 45.0569 99.8208 46.8496 98.1785 48.3039C97.7362 48.6957 97.3012 49.0971 96.8643 49.4951C96.4571 49.8667 96.2227 50.3753 95.6726 50.6557C95.1946 50.8997 94.8512 51.4091 94.4515 51.8043C94.0233 52.228 93.6376 52.7052 93.1663 53.0726C91.6337 54.2659 90.3634 55.7293 88.963 57.0576C88.6498 57.3542 88.2199 57.5422 87.9544 57.8703C87.102 58.9232 86.0499 59.8025 85.3022 60.9457C85.2012 61.0998 85.0347 61.2095 84.9083 61.3487C84.4664 61.8362 83.9196 62.2243 83.6131 62.8436C83.4996 63.0726 83.2022 63.2101 82.8991 63.4649C82.7649 63.6844 82.5959 64.0373 82.3598 64.3376C81.2344 65.7687 80.0059 67.1256 79.2499 68.8126C78.7015 69.2625 78.5019 69.9314 78.2248 70.5349C77.7754 71.5136 77.2862 72.5036 77.0501 73.5428C76.8306 74.51 76.5042 75.4771 76.5266 76.501C76.5332 76.8067 76.3422 77.1132 76.322 77.4243C76.2515 78.4822 76.4814 79.4969 76.7014 80.5329C77.0394 82.13 77.748 83.571 78.3627 85.0468C79.7578 88.3948 81.5044 91.5792 83.049 94.8564C83.8004 96.451 84.7572 97.9873 85.125 99.7551C86.1812 101.701 86.7834 103.817 87.4321 105.916C87.6595 106.651 87.8185 107.41 88.0853 108.131C88.3541 108.857 88.5624 109.595 88.7865 110.33C88.9828 110.973 89.1158 111.622 89.2811 112.268C89.436 112.875 89.7156 113.451 89.8535 114.06C89.9467 114.473 89.9165 114.896 90.0656 115.328C90.2611 115.896 90.148 116.57 90.3443 117.137C90.6214 117.938 90.399 118.759 90.5684 119.532C90.9578 121.306 90.7121 123.089 90.7618 124.865C90.8115 126.633 90.7879 128.405 90.7627 130.174C90.7556 130.633 90.5912 131.088 90.5556 131.55C90.5175 132.036 90.6695 132.569 90.522 133.009C90.1919 133.993 90.3327 135.068 89.8692 136.012C90.0316 136.65 89.7284 137.238 89.6174 137.834C89.4463 138.758 89.1104 139.651 88.8387 140.556C88.7178 140.959 88.5844 141.359 88.4344 141.831C88.3673 141.862 88.2149 141.934 88.0571 142.008C88.1217 142.072 88.1751 142.126 88.2104 142.161C87.7817 143.296 87.3592 144.422 86.9317 145.546C86.2856 147.243 85.5777 148.911 84.5952 150.448C84.5753 150.479 84.5248 150.498 84.5194 150.529C84.3463 151.466 83.5875 152.088 83.2271 152.931C82.8601 153.792 82.2252 154.485 81.6573 155.224C81.0447 156.022 80.3356 156.716 79.6463 157.436C79.286 157.812 78.8714 158.126 78.5172 158.518C78.1469 158.928 77.5704 159.143 77.1375 159.507C76.7225 159.855 76.1629 159.941 75.7794 160.357C75.6501 160.498 75.2935 160.429 74.9982 160.46Z" fill="black"/>
</svg>
