<svg width="97" height="82" viewBox="0 0 97 82" fill="none" xmlns="http://www.w3.org/2000/svg">
<path fill-rule="evenodd" clip-rule="evenodd" d="M75.5382 70.8174C75.7602 71.0284 75.9812 71.2404 76.2032 71.4514C77.4572 70.3354 78.7112 69.2194 79.9652 68.1034C79.7662 67.8804 79.5652 67.6584 79.3652 67.4364C78.0902 68.5634 76.8132 69.6904 75.5382 70.8174ZM52.2922 72.3064C52.3542 72.5754 52.4162 72.8434 52.4782 73.1124C55.4442 72.4634 58.4102 71.8134 61.3772 71.1644C61.3082 70.8624 61.2382 70.5604 61.1702 70.2584C58.2102 70.9414 55.2512 71.6244 52.2922 72.3064ZM36.6192 52.9424C36.6842 53.1974 36.7492 53.4514 36.8142 53.7064C41.2382 54.7294 44.7632 52.2464 48.5222 50.6794C48.4672 50.4644 48.4122 50.2504 48.3572 50.0354C44.4442 51.0044 40.5312 51.9734 36.6192 52.9424ZM48.4342 78.3524C53.1222 79.2824 62.2172 76.8564 65.9702 73.9434C59.6422 75.5344 54.0382 76.9434 48.4342 78.3524ZM0.146221 33.1904C-0.368779 28.8874 0.490221 24.7034 2.50822 20.6934C3.94622 17.8374 6.05622 16.0534 9.33322 16.1914C12.1192 16.3084 14.6502 17.0054 15.7242 20.1304C15.9982 20.9314 16.9682 21.4734 17.3552 22.2634C17.6402 22.8424 19.3812 23.9254 17.0892 24.2584C17.1742 24.6914 17.1092 25.3514 17.3682 25.5224C20.1302 27.3524 20.7852 30.1714 19.5522 33.0774C18.7702 34.9154 18.3262 37.0544 18.3982 39.0354C18.4392 40.1414 19.6102 41.6264 20.6732 42.2024C25.5752 44.8644 30.8682 45.3944 36.2762 44.1164C50.8882 40.6664 64.0272 34.6264 72.8052 21.7774C75.4902 17.8474 77.2042 13.2554 79.3892 8.97942C80.4592 6.88242 81.4502 4.72642 82.7292 2.76142C84.1262 0.618425 86.2582 -0.228575 88.8642 0.0524246C92.2122 0.413425 92.9492 1.19842 92.4942 4.52742C92.3152 5.83842 92.3972 6.54342 93.9992 6.68942C94.5882 6.74342 95.3782 7.78442 95.5672 8.50842C97.3462 15.2914 97.3042 22.2204 96.2912 29.0534C95.2302 36.2134 93.9812 43.4114 91.9622 50.3444C89.9982 57.0894 87.4582 63.8154 82.1022 68.8504C76.8732 73.7674 70.6802 77.0534 63.8262 79.0914C53.9992 82.0134 44.0712 83.0554 34.0602 80.1144C32.2152 79.5714 30.5172 78.4454 28.8332 77.4504C26.6132 76.1384 24.2192 74.9654 22.3572 73.2384C19.3442 70.4424 15.4602 68.6904 13.6272 64.3804C12.4312 61.5684 9.17422 59.7094 7.26722 57.1094C2.10522 50.0714 -0.382779 42.1404 0.146221 33.1904Z" fill="black"/>
</svg>
