<svg width="95" height="98" viewBox="0 0 95 98" fill="none" xmlns="http://www.w3.org/2000/svg">
<path fill-rule="evenodd" clip-rule="evenodd" d="M81.4213 59.9877C76.3143 65.6297 71.2053 71.2707 66.0973 76.9127C65.9013 76.7347 65.7053 76.5567 65.5093 76.3797C70.6133 70.7187 75.7183 65.0587 80.8223 59.3987C81.0223 59.5947 81.2223 59.7917 81.4213 59.9877Z" fill="black"/>
<path fill-rule="evenodd" clip-rule="evenodd" d="M59.3399 82.2561C59.6519 81.9001 59.9629 81.5441 60.2749 81.1881L64.3149 77.7231C64.4469 77.8391 64.5789 77.9551 64.7119 78.0711C63.8559 78.9901 63.0199 79.9291 62.1409 80.8251C59.6769 83.3381 57.2349 85.8741 54.6869 88.2991C54.1709 88.7901 53.2299 88.8331 52.4849 89.0831C52.6569 88.9211 52.8299 88.7601 53.0029 88.5981C55.1149 86.4841 57.2279 84.3701 59.3399 82.2561Z" fill="black"/>
<path fill-rule="evenodd" clip-rule="evenodd" d="M84.2334 55.3212C85.6364 53.5182 87.0404 51.7152 88.4444 49.9122C88.6404 50.0632 88.8374 50.2142 89.0354 50.3652C87.5994 52.1682 86.1634 53.9702 84.7274 55.7732C84.5624 55.6222 84.3984 55.4712 84.2334 55.3212Z" fill="black"/>
<path fill-rule="evenodd" clip-rule="evenodd" d="M84.5969 48.9486C83.0879 50.7046 81.5559 52.4426 80.0749 54.2216C76.5299 58.4796 73.0089 62.7576 69.4779 67.0276C73.5029 63.2796 77.0759 59.1516 80.5319 54.9266C82.0499 53.0706 83.3279 51.0176 84.7149 49.0536C86.0369 47.4206 87.3599 45.7866 88.6829 44.1536C88.3899 43.9466 88.0979 43.7396 87.8059 43.5316C86.7359 45.3376 85.6659 47.1426 84.5969 48.9486ZM52.4849 89.0826C49.1759 92.1256 46.7249 96.2406 41.6559 97.6146C41.9959 96.7486 42.2579 96.0836 42.5889 95.2426C41.3369 95.4986 40.2009 95.9586 39.1419 95.8236C38.7759 95.7756 38.6009 94.2446 38.3609 93.4646C37.5929 94.0286 36.6569 94.8866 35.5649 95.4376C35.0969 95.6736 34.0809 95.4726 33.7319 95.0896C33.4519 94.7836 33.5719 93.6896 33.9149 93.3076C37.2519 89.5956 40.7849 86.0566 44.0449 82.2816C48.4249 77.2086 52.6219 71.9756 56.8669 66.7876C57.1789 66.4066 57.2439 65.8236 57.0039 65.0276C54.8919 67.4176 52.7929 69.8196 50.6629 72.1936C45.0759 78.4236 39.4959 84.6606 33.8459 90.8326C33.2819 91.4496 32.2539 91.6426 31.4419 92.0326C31.5879 91.0396 31.3919 89.7706 31.9349 89.0976C36.2079 83.8056 40.6409 78.6436 44.9819 73.4066C46.6019 71.4526 48.1029 69.3996 49.6669 67.3986C50.5499 66.2696 50.2369 65.8546 48.8589 65.7916C46.7779 65.6966 44.6909 65.2696 42.6289 65.3886C41.5679 65.4496 40.3069 66.1616 39.5759 66.9756C38.2839 68.4136 37.3269 70.1536 36.2309 71.7666C36.0039 71.6286 35.7789 71.4906 35.5529 71.3526C36.6699 69.4856 37.7859 67.6176 38.9039 65.7496C38.6959 65.6196 38.4889 65.4896 38.2819 65.3596C37.1919 67.0456 36.1199 68.7446 35.0069 70.4156C33.9259 72.0386 32.9639 72.8686 30.6439 71.7076C28.8729 70.8206 26.6069 69.9766 24.2639 70.7376C23.6329 70.9426 22.4839 70.4276 21.9889 69.8716C21.6389 69.4796 21.8389 68.4096 22.0679 67.7346C22.4769 66.5266 23.0929 65.3876 23.6219 64.2196C23.4049 64.0986 23.1859 63.9786 22.9679 63.8576C22.3539 64.6876 21.7719 65.5456 21.1099 66.3366C20.7909 66.7166 20.3229 66.9706 19.9219 67.2816C19.6569 66.8306 19.2679 66.4076 19.1569 65.9216C19.0199 65.3236 19.0219 64.6576 19.1239 64.0486C19.5589 61.4626 18.6959 60.3736 16.0529 59.5796C12.9479 58.6466 9.85091 57.6156 6.88091 56.3246C5.04691 55.5286 3.53891 54.1506 3.61391 51.7496C3.62691 51.3046 3.14791 50.6586 2.71891 50.4136C-0.455086 48.5936 -1.02009 44.1326 1.92991 41.8206C4.03991 40.1666 6.39291 38.5816 8.89791 37.7206C15.5889 35.4186 22.3979 33.4396 29.2129 31.5216C31.0359 31.0086 31.7799 30.0676 32.4729 28.3896C35.3789 21.3506 38.2639 14.2796 41.6839 7.48557C42.9509 4.96857 45.4859 2.95557 47.7729 1.12457C49.8869 -0.568426 52.2339 -0.276426 54.4989 1.50657C55.7809 2.51457 57.5929 2.81957 59.0049 3.69957C61.2669 5.10957 63.7999 6.38657 65.4909 8.34657C68.2929 11.5966 70.4649 15.3846 73.0269 18.8546C73.6109 19.6456 74.6309 20.2256 75.5699 20.6206C77.6639 21.5006 79.8059 22.2936 81.9789 22.9556C85.2839 23.9636 87.7579 26.1486 90.1949 28.4236C90.9139 29.0956 91.7999 29.6426 92.3549 30.4266C93.2389 31.6756 94.9309 33.1856 91.1749 34.0706C92.7949 34.1546 93.6049 34.1966 94.4129 34.2376C94.3039 35.6296 94.6599 37.3106 94.0049 38.3626C90.9319 43.2996 87.9299 48.3486 84.2569 52.8276C76.9109 61.7826 69.1379 70.3866 61.5629 79.1536C61.0439 79.7546 60.6999 80.5066 60.2749 81.1876C59.9629 81.5436 59.6519 81.9006 59.3399 82.2566C57.2279 84.3706 55.1159 86.4846 53.0029 88.5986C52.8299 88.7606 52.6579 88.9216 52.4849 89.0826Z" fill="black"/>
</svg>
