<svg width="59" height="74" viewBox="0 0 59 74" fill="none" xmlns="http://www.w3.org/2000/svg">
<path fill-rule="evenodd" clip-rule="evenodd" d="M4.93899 32C4.68659 31.6191 4.43361 31.2388 4.18064 30.8616C4.22907 30.4928 4.99368 30.0679 4.03479 29.7473C3.94135 29.7158 4.06327 29.2589 4.0855 29C4.38917 29.0232 4.76635 28.961 4.98628 29.0844C6.36679 29.8619 6.32406 31.434 4.93899 32Z" fill="black"/>
<path fill-rule="evenodd" clip-rule="evenodd" d="M27 29.047L26.9521 29C26.5577 29.6698 26.1742 30.3456 25.7367 30.9944C25.713 31.0302 25.0601 30.8879 25.0132 30.7493C24.8495 30.2693 26.2437 29.12 27 29.047Z" fill="black"/>
<path fill-rule="evenodd" clip-rule="evenodd" d="M44.541 33.1678C44.1036 31.4211 43.7664 29.7131 43.2288 28.0713C42.918 27.1224 42.1617 26.5252 41.0605 27.1264C39.968 27.7231 38.8948 28.3554 37.8277 28.9963C37.7774 29.0259 37.875 29.2875 37.8898 29.4428C37.9177 29.735 38.0276 30.0603 37.9406 30.3164C37.4279 31.8335 36.637 33.2946 36.37 34.8488C35.748 38.4659 36.5185 41.0628 41.1571 40.8546C41.2955 40.8485 41.441 40.8149 41.5712 40.8454C42.3727 41.0333 42.8097 40.6657 42.9831 39.9189C43.5019 37.6947 44.011 35.4679 44.541 33.1678ZM35.7322 26.0472L35.4265 25.7509C34.0415 26.9712 32.4826 28.0438 31.3062 29.4398C27.9284 33.4483 24.9861 37.7395 23.9052 43.0218C23.3493 45.7378 23.2537 48.4777 25.4657 50.481C27.6024 52.4166 30.2599 52.1101 32.8076 51.266C36.0104 50.2056 38.3226 47.9722 40.2477 45.3015C41.4099 43.6882 41.3753 43.6638 39.4324 43.1745C34.8828 42.0286 32.3407 39.112 32.4363 34.8076C32.4918 32.3421 33.2618 29.9972 34.5909 27.8768C34.9728 27.2675 35.3517 26.6571 35.7322 26.0472ZM4.87367 32.391C4.56748 34.2084 4.21144 36.0198 3.96934 37.8454C3.71096 39.7982 3.49378 41.7618 3.38087 43.7279C3.27863 45.5046 3.29033 47.2931 3.35849 49.0718C3.38544 49.7713 3.78318 50.4499 3.86405 51.155C3.95713 51.965 3.77555 52.8136 3.91543 53.6099C4.07615 54.5216 4.39404 55.4217 4.75719 56.2785C6.56788 60.5513 8.60694 64.7045 12.5126 67.4968C18.1131 71.5003 24.2704 72.2222 30.6648 69.9079C36.9839 67.6206 41.677 63.08 45.9087 58.0384C49.852 53.3406 52.594 48.0511 54.216 42.0856C55.1722 38.5688 55.4768 34.996 55.2658 31.5067C55.0837 28.4984 53.9195 25.4271 51.1485 23.4905C48.6217 21.724 45.78 21.895 42.9165 22.2254C42.4272 22.2819 41.8987 22.1027 41.4308 22.2132C40.9023 22.3379 40.3347 22.5726 39.9471 22.9341C39.5911 23.2655 39.5224 23.7603 40.324 23.7832C43.6006 23.879 47.0398 27.5327 47.3033 31.2424C47.4381 33.1408 47.8119 35.0041 47.138 36.9117C46.9493 37.4472 47.4249 38.2618 47.727 38.8844C47.7814 38.9969 48.4742 38.7999 48.9324 38.7368C49.203 39.9881 48.4208 40.9987 47.5739 41.5923C45.6879 42.9144 44.8777 44.9441 43.7267 46.7422C41.7599 49.8151 39.4945 52.523 35.9885 53.9011C30.2564 56.1543 22.8163 54.0273 20.295 47.8979C19.2152 45.272 19.2508 42.4878 20.2391 39.8649C21.205 37.3006 22.4943 34.857 23.6794 32.3787C23.9068 31.9032 24.245 31.2725 24.8792 32.0875C24.9316 32.1558 25.2933 32.112 25.3762 32.0102C27.3623 29.5686 29.3297 27.1117 31.2548 24.5739C29.6771 26.035 28.0998 27.4966 26.5221 28.9582L26.5674 29.0101C26.7484 28.4939 26.8023 27.8738 27.1289 27.4782C30.4278 23.4788 34.3111 20.3056 39.4711 19.0171C43.5431 18 47.3425 18.4739 51.0524 20.6121C54.2882 22.4769 56.5882 24.9969 57.8328 28.4659C58.4538 30.1963 58.5672 32.0015 58.6389 33.875C58.7132 35.8217 58.8424 37.7568 58.586 39.6806C57.6812 46.4617 55.1391 52.5754 50.9547 57.9967C49.613 59.7352 48.4187 61.6118 46.9157 63.1955C45.4011 64.7915 43.6072 66.1269 41.8972 67.5289C40.8448 68.3908 39.735 69.185 38.6257 69.9741C32.1123 74.6058 25.0323 74.8955 17.6711 72.5913C10.2096 70.2556 5.28565 65.2507 2.48824 57.9921C0.0600805 51.6921 -0.574678 45.2134 0.512753 38.6014C1.01781 35.5275 1.97707 32.5279 2.80765 29.1842C3.45105 30.0929 3.82336 30.6193 4.19669 31.1416C4.42252 31.5555 4.64784 31.973 4.87367 32.391Z" fill="black"/>
<path fill-rule="evenodd" clip-rule="evenodd" d="M15.5724 11.1644C15.4704 11.0586 15.3684 10.9528 15.266 10.847C14.4747 11.7518 13.6824 12.6561 12.8905 13.561L13.1579 13.8031C13.9629 12.9237 14.7674 12.0443 15.5724 11.1644ZM6.483 27.5553C6.1675 27.0331 5.97221 26.7096 5.77692 26.386C5.69728 26.7153 5.65924 27.0632 5.52532 27.367C5.42134 27.603 5.19866 27.7834 5.05561 27.9561C3.57547 26.7448 4.42358 25.6435 5.00742 24.4462C8.99032 16.2785 14.7526 9.68296 22.0169 4.46511C26.0526 1.56659 30.4083 -0.578523 35.5766 0.185773C36.546 0.329403 37.4905 0.685625 38.4248 1.01022C38.6201 1.07814 38.7175 1.44007 38.86 1.66614C38.5734 1.74081 38.2808 1.89585 38.0008 1.87511C36.7798 1.78696 35.5634 1.57022 34.343 1.54118C31.1966 1.46651 28.6289 3.04281 26.151 4.75755C24.0479 6.21303 21.7278 7.49637 20.0128 9.34903C16.7811 12.8387 13.9223 16.6881 10.8889 20.3707C10.6541 20.6564 10.2508 20.7907 9.948 21.0261C9.80141 21.1401 9.65583 21.3071 9.598 21.4808C9.38902 22.1056 9.32003 22.803 9.01061 23.3651C8.24822 24.7537 7.38134 26.0832 6.483 27.5553Z" fill="black"/>
</svg>
