<svg width="82" height="35" viewBox="0 0 82 35" fill="none" xmlns="http://www.w3.org/2000/svg">
<path fill-rule="evenodd" clip-rule="evenodd" d="M0 21.4478C0.189514 19.1937 0.475057 16.7685 0.554355 14.3367C0.582363 13.4865 0.32301 12.6841 1.24839 12.2032C1.43863 12.1045 1.7169 11.9471 1.85767 12.0176C4.2446 13.2141 6.90906 13.2449 9.41312 13.9329C11.09 14.3938 12.6519 15.1405 13.7134 16.6312C13.9251 16.9288 13.9105 17.3942 14 17.782C13.6228 17.8592 13.2227 18.0615 12.8727 17.9935C10.3283 17.4992 7.78825 16.976 5.25946 16.4045C4.46612 16.2252 4.32244 16.5377 4.22859 17.2476C4.0118 18.8857 3.66769 20.5056 3.43198 22.1414C3.33086 22.8406 3.36905 23.5605 3.35123 24.2712C3.34977 24.3306 3.44107 24.3988 3.43052 24.4504C3.32213 24.9833 3.2712 25.9311 3.07114 25.9656C2.49387 26.0658 1.77655 25.943 1.25603 25.6476C-0.352473 24.7347 0.143681 23.0643 0 21.4478Z" fill="black"/>
<path fill-rule="evenodd" clip-rule="evenodd" d="M33.9281 29.9811C33.969 30.0767 34.0106 30.1726 34.0514 30.2682L36.7763 28.7595C36.7191 28.6533 36.6616 28.5476 36.6044 28.4418C35.7125 28.9548 34.82 29.4681 33.9281 29.9811ZM55.2133 27.9872C55.2515 28.0591 55.2898 28.131 55.328 28.2029C56.8384 27.5533 58.3488 26.9033 59.8596 26.2534C59.8132 26.1435 59.7664 26.0336 59.72 25.9241C58.2177 26.6117 56.7155 27.2996 55.2133 27.9872ZM40.7387 19.008C40.5281 17.873 40.3395 16.733 40.1 15.604C39.9523 14.9066 39.5108 14.7226 38.8102 14.8765C36.6155 15.3597 34.9911 17.3201 34.7966 19.6704C34.5842 22.2322 36.0474 23.812 37.8519 25.191C37.993 25.299 38.5158 25.1119 38.6988 24.9106C40.2047 23.2513 40.6399 21.2145 40.7387 19.008ZM47.8848 27.8028C53.9171 28.0215 58.9889 25.7054 63.5353 21.8773C68.7111 17.5192 72.7254 12.1951 76.2415 6.44264C77.3064 4.70054 78.3274 2.92985 79.4331 1.21522C79.7294 0.754954 80.2139 0.286029 80.7062 0.133986C81.046 0.028986 81.5476 0.461782 81.9768 0.654846C81.8446 0.91076 81.7239 1.17458 81.5776 1.42184C81.183 2.08796 80.7196 2.71909 80.3869 3.41458C79.3035 5.67791 78.3044 7.98264 77.1983 10.2339C76.4528 11.7514 75.6393 13.2421 74.746 14.674C74.1816 15.5784 73.3696 16.3205 72.7473 17.1929C71.7608 18.5752 70.9607 20.1126 69.8624 21.391C68.1534 23.3815 66.4113 25.395 64.4142 27.0689C59.9992 30.7695 54.904 32.5779 49.0804 32.2121C46.3703 32.0419 43.6837 31.9798 41.1222 30.9171C40.8422 30.8008 40.3187 30.9848 40.0451 31.2042C37.2901 33.4171 34.1242 34.5793 30.6634 34.7972C28.0737 34.9605 25.4201 35.1686 22.8831 34.7734C20.7549 34.4423 18.6753 33.4258 16.7201 32.4209C14.9821 31.5271 13.3689 30.3288 11.8351 29.0933C9.65041 27.3327 8.09546 25.031 7.06625 22.4072C6.91848 22.0304 7.17281 21.3334 7.46799 20.9782C7.79583 20.583 8.267 20.7727 8.80351 21.0162C10.4828 21.7787 11.1638 23.3687 12.0779 24.7431C13.8092 27.3474 16.2972 28.8848 19.1442 29.703C24.0018 31.0992 28.8344 30.5121 33.5242 28.7937C36.0575 27.8649 36.0326 27.7595 34.1866 25.9158C31.7568 23.4895 30.4124 20.5932 30.5984 17.1033C30.8145 13.0527 34.1349 10.2053 38.1341 10.503C39.3894 10.5967 40.2441 11.3754 41.065 12.177C42.9296 13.9981 43.9715 16.2709 44.3349 18.8492C44.7114 21.5164 44.7809 24.1628 43.5289 26.6704C43.2267 27.2759 43.5174 27.5405 44.1486 27.5702C45.395 27.6293 46.6395 27.7234 47.8848 27.8028Z" fill="black"/>
</svg>
