<svg width="56" height="51" viewBox="0 0 56 51" fill="none" xmlns="http://www.w3.org/2000/svg">
<path fill-rule="evenodd" clip-rule="evenodd" d="M40.2549 36.8151C40.3311 36.8981 40.4068 36.9807 40.483 37.0638C40.9334 36.6329 41.3944 36.2126 41.8218 35.7597C41.8925 35.6844 41.8135 35.4669 41.8034 35.3155C41.6634 35.3508 41.4715 35.3398 41.393 35.4289C40.9972 35.8767 40.6313 36.3507 40.2549 36.8151ZM44.4901 41.5243C44.592 41.6432 44.6939 41.762 44.7958 41.8808C45.4345 41.2733 46.0735 40.6662 46.7126 40.0587C46.6515 39.9913 46.59 39.9234 46.5285 39.8559C45.849 40.412 45.1696 40.9682 44.4901 41.5243ZM49.0747 43.5736C49.0154 43.4951 48.9567 43.4166 48.8979 43.3382C47.9646 43.9071 47.0271 44.4688 46.1029 45.0524C45.9693 45.1364 45.9023 45.325 45.804 45.4654C46.0001 45.4934 46.2618 45.6168 46.3811 45.5342C47.2943 44.9033 48.1803 44.2325 49.0747 43.5736ZM6.09588 13.7782C6.31212 13.919 6.58575 14.2361 6.82172 14.2104C7.07239 14.1829 7.28725 13.8305 7.51818 13.6199C7.12014 13.2115 6.72164 12.8026 6.3236 12.3938C6.25795 12.7907 6.19275 13.1876 6.09588 13.7782ZM27.5708 13.529C27.6599 13.4354 27.7494 13.3418 27.8389 13.2482C26.525 11.951 25.211 10.6538 23.8971 9.35709C23.7791 9.48007 23.6607 9.60258 23.5431 9.72556C24.8851 10.9938 26.2279 12.2617 27.5708 13.529ZM23.5119 27.0598C23.2943 27.6939 23.0073 28.1202 23.0514 28.5088C23.1001 28.9365 23.359 29.5124 23.6992 29.6867C24.0408 29.8616 24.5949 29.6202 25.0559 29.561C24.9957 29.2448 25.0265 28.8645 24.8571 28.6259C24.4655 28.0734 23.977 27.5893 23.5119 27.0598ZM50.9519 43.2514C51.9891 42.1318 53.0257 41.0122 54.0628 39.8926C54.0114 39.8403 53.96 39.7885 53.9076 39.7361C53.0046 40.6424 52.1686 41.6308 51.1847 42.4383C48.9842 44.2439 46.7131 45.9647 44.463 47.7092C44.0085 48.0612 43.515 48.3626 43.0425 48.693C42.4902 49.0794 41.9232 49.7856 41.4697 48.5957C41.2755 48.676 40.9862 48.7008 40.9008 48.8454C40.1856 50.0655 39.4372 50.2027 38.2004 49.123C38.5562 50.1793 38.3721 50.4775 37.318 50.2412C36.6748 50.0976 35.9095 50.5151 35.1956 50.6666C31.9341 51.3558 28.7039 50.8015 25.441 50.5587C20.2716 50.1733 15.8229 47.9928 11.6772 45.2351C8.21831 42.9344 5.66479 39.654 3.21961 36.2511C0.000393707 31.7722 -0.28884 26.8845 0.173016 21.7366C0.544888 17.5991 1.88684 13.7786 3.97851 10.2207C5.65147 7.37575 8.04523 5.15122 10.3531 2.82757C12.6799 0.486024 15.6048 0.299269 18.5302 0.00743681C19.2276 -0.0623094 20.0158 0.373145 20.7022 0.701687C21.4795 1.07336 22.1488 1.67767 22.9339 2.02228C26.2289 3.46859 28.6056 6.06526 31.1041 8.49215C33.2384 10.5648 35.2557 12.7572 37.3244 14.8969C41.9623 19.6938 46.6584 24.4356 51.2035 29.3187C52.6938 30.9201 53.802 32.8799 55.0558 34.6956C55.3368 35.1017 55.537 35.5771 55.7046 36.0451C56.1099 37.1785 56.2334 38.1925 55.1807 39.1933C53.7704 40.5332 52.5423 42.0639 51.2357 43.513C51.1411 43.4258 51.0465 43.3386 50.9519 43.2514Z" fill="black"/>
</svg>
