<svg width="51" height="54" viewBox="0 0 51 54" fill="none" xmlns="http://www.w3.org/2000/svg">
<path fill-rule="evenodd" clip-rule="evenodd" d="M37.9932 11.3426C37.9097 11.2737 37.8268 11.2054 37.7434 11.1366C37.2703 11.702 36.7967 12.2678 36.3231 12.8332C36.4276 12.9197 36.5317 13.0062 36.6361 13.0931C37.0882 12.5096 37.5407 11.9261 37.9932 11.3426ZM38.838 9.97003C38.9237 10.0253 39.0102 10.0805 39.0959 10.1357C39.6394 9.46846 40.1829 8.80166 40.7265 8.13441C40.5839 8.02939 40.4421 7.92437 40.3 7.8198C39.8125 8.53639 39.3255 9.25344 38.838 9.97003ZM44.2001 8.78491C44.1508 8.68351 44.1019 8.58211 44.0531 8.48026C43.7988 8.55359 43.5454 8.62693 43.2911 8.70071C43.3423 8.5305 43.3929 8.3603 43.4436 8.19054C43.5068 8.25527 43.5701 8.32001 43.6333 8.38474C43.1777 8.6826 42.7216 8.98002 42.2655 9.27743C42.3799 9.37158 42.5377 9.57076 42.601 9.5436C43.1436 9.31409 43.6692 9.04339 44.2001 8.78491ZM35.2518 43.3684L35.3881 43.8527L38.5295 42.4399C38.482 42.3181 38.4335 42.1964 38.386 42.0746C37.3411 42.5055 36.2962 42.937 35.2518 43.3684ZM32.2548 18.264C33.4571 16.8865 34.6585 15.5095 35.8603 14.132L35.541 13.8527C34.7159 14.8028 33.8912 15.753 33.066 16.7032C32.9759 16.6471 32.8849 16.5914 32.7943 16.5353C33.0678 16.0292 33.2777 15.4737 33.6239 15.0251C36.2832 11.5743 38.969 8.14482 41.6462 4.70807C42.596 3.489 43.5503 2.27355 44.4939 1.04996C45.5078 -0.263724 45.711 -0.289527 46.9491 0.665629C47.3895 1.00514 47.9582 1.2007 48.3375 1.59091C49.6618 2.95076 49.4179 3.75925 47.5662 4.20423C47.6572 4.30156 47.7469 4.45955 47.8039 4.44868C48.334 4.34457 49.1259 3.93308 49.3336 4.13724C49.9986 4.79181 50.5583 5.62203 50.9296 6.48484C51.1054 6.89406 50.9327 7.67901 50.6251 8.03889C49.1416 9.77492 49.1824 11.7798 49.4053 13.85C49.4264 14.0464 49.4206 14.251 49.3918 14.4466C49.1569 16.0405 48.9138 17.633 48.6716 19.2255C48.6443 19.4062 48.6115 19.5859 48.5811 19.7665C48.4537 19.7117 48.3268 19.6569 48.1994 19.6022C48.1411 19.7543 47.9878 19.9811 48.0389 20.0472C48.8954 21.1607 48.2201 22.3106 48.151 23.445C48.1003 24.2829 48.1407 25.1294 48.0429 25.9605C47.8837 27.3168 47.6442 28.663 47.3945 30.3085C47.0926 29.7811 46.9438 29.5209 46.7944 29.2601C46.7101 29.3402 46.5397 29.4566 46.5554 29.4951C46.6796 29.8002 46.8169 30.1062 46.9926 30.3837C47.6209 31.3728 47.3622 32.4846 47.3025 33.5094C47.1994 35.2912 46.9191 37.053 45.9881 38.6704C45.6204 39.3096 45.7285 40.2118 45.4746 40.9429C45.3742 41.2317 44.8778 41.3802 44.4499 41.6676C45.1271 42.3992 44.2432 42.8727 43.6737 43.381C42.8884 44.0831 42.0915 44.8097 41.1879 45.3276C40.3628 45.8002 39.3878 46.0043 38.4833 46.3379C38.2362 46.4289 37.9093 46.4932 37.7792 46.6824C37.1842 47.5498 37.0066 46.9115 36.7214 46.2429C36.2303 47.2904 35.6545 47.8273 34.4742 47.9549C32.7606 48.1405 31.1009 48.8263 29.4161 49.2908C28.0273 49.6733 26.6424 50.0748 25.2428 50.413C23.1163 50.9272 20.9902 51.46 18.8412 51.862C16.5555 52.2898 14.2495 52.6193 11.9423 52.9118C8.67396 53.326 5.40073 53.7203 2.11942 53.9955C1.44675 54.0521 0.719809 53.5627 0.0417527 53.2694C-0.0250663 53.2409 -0.0183396 52.728 0.110814 52.5954C1.46065 51.207 2.84546 49.8535 4.21458 48.4841C5.02223 47.677 5.83931 46.8784 6.61647 46.0423C9.14752 43.3181 11.6606 40.578 14.1854 37.8484C14.2581 37.7696 14.3832 37.7397 14.7289 37.5582C14.5666 38.0702 14.4711 38.3717 14.3756 38.6732C14.4312 38.7144 14.4868 38.7551 14.5424 38.7963C15.7922 37.378 17.0425 35.9598 18.2883 34.5465C18.6753 34.0336 19.0663 33.5162 19.4574 32.9983C21.5561 31.1482 23.458 29.1266 24.8827 26.6862C25.4204 26.138 25.9581 25.5898 26.4958 25.0416C27.4837 23.8361 28.4721 22.6302 29.4601 21.4242L29.4175 21.4677C30.3677 20.3853 31.3184 19.3025 32.2687 18.2201L32.2548 18.264Z" fill="black"/>
</svg>
