<svg width="60" height="95" viewBox="0 0 60 95" fill="none" xmlns="http://www.w3.org/2000/svg">
<path fill-rule="evenodd" clip-rule="evenodd" d="M49.1053 89.1283C48.6733 91.8207 48.4333 92.2128 45.9122 92.8783C44.6042 93.223 43.2269 93.3027 41.8851 93.5258C41.662 93.5623 41.2671 93.7407 41.2759 93.8181C41.4591 95.5205 40.2335 94.7197 39.6559 94.6363C37.7549 94.3608 35.8497 94.0341 34.0006 93.529C33.1044 93.2847 32.2988 92.887 31.81 91.7045C31.2733 90.4063 29.9168 89.4583 28.9748 88.3107C28.6644 87.9327 28.3055 87.3616 28.3873 86.965C28.4566 86.6301 29.1231 86.4076 29.5393 86.1588C29.8006 86.0023 30.088 85.8888 30.3635 85.7563C30.0837 85.6205 29.8006 85.4917 29.5251 85.3483C29.164 85.1607 28.8089 84.9621 28.4511 84.7685C28.6944 84.3583 28.894 83.9105 29.1979 83.5516C29.3719 83.3476 29.7193 83.1752 29.9839 83.1818C31.9922 83.2308 32.7188 81.8018 33.2195 80.2761C34.3584 76.8098 35.3539 73.2959 36.4922 69.829C36.7988 68.8963 37.21 67.8087 37.9284 67.2419C39.214 66.229 40.8706 66.8214 41.9795 68.3803C44.4673 71.8783 46.0169 75.8334 47.2066 79.8932C48.0875 82.8987 48.49 86.0448 49.1053 89.1283Z" fill="black"/>
<path fill-rule="evenodd" clip-rule="evenodd" d="M8.63645 64.2677C11.8972 63.8204 15.1574 63.3731 18.4175 62.9259C18.4519 63.006 18.4857 63.0862 18.5195 63.1664C17.5514 63.4975 16.6055 63.942 15.6106 64.1406C11.8955 64.8797 8.145 65.2348 4.40209 64.4182C3.78409 64.283 3.29263 63.5411 2.76027 63.0606C2.62663 62.9395 2.595 62.6422 2.45918 62.5975C0.600271 61.9795 0.496635 60.1675 0.142635 58.7559C-0.177002 57.4833 0.106635 56.0122 0.349362 54.6693C0.445362 54.1364 1.05845 53.52 1.59082 53.2735C3.621 52.3304 4.21445 50.454 4.91045 48.6006C5.84973 46.0997 6.78682 43.5971 7.803 41.1268C8.69373 38.9608 11.4248 38.6793 12.7628 40.6184C16.365 45.8373 18.5059 51.641 19.4937 57.8831C19.593 58.5137 19.587 59.1677 19.5657 59.8086C19.5308 60.8848 19.1583 61.733 17.9594 61.98C15.3505 62.519 12.7465 63.0835 10.1365 63.6191C9.62154 63.7244 9.08863 63.7468 8.56391 63.8073C8.58845 63.9611 8.61245 64.1144 8.63645 64.2677Z" fill="black"/>
<path fill-rule="evenodd" clip-rule="evenodd" d="M38.3672 23.7435C38.3525 23.5847 38.3383 23.4266 38.3235 23.2684C37.3374 23.3518 36.349 23.4173 35.3677 23.54C35.2314 23.5575 35.131 23.8569 35.0137 24.0255C35.1594 24.1007 35.317 24.2584 35.4479 24.2393C36.4237 24.0936 37.3946 23.9131 38.3672 23.7435ZM25.8823 22.2435C25.7197 22.6973 25.6183 22.9815 25.5032 23.3033C25.3657 23.1724 25.2403 23.1091 25.2375 23.0409C25.1972 22.1164 25.2048 21.1886 25.1274 20.2678C25.1066 20.0284 24.8448 19.802 24.6741 19.5849C24.4554 19.3062 24.217 19.0433 23.9868 18.7733C24.2726 18.5562 24.5475 18.3227 24.8492 18.1307C24.9626 18.0587 25.1715 18.1307 25.2785 18.0549C25.6194 17.8138 25.933 17.534 26.257 17.2689C25.9445 17.0736 25.6488 16.8396 25.3145 16.694C25.0052 16.5593 24.655 16.5184 24.1941 16.4044C24.8034 15.7182 24.8574 14.4364 26.3225 14.9513C26.4746 15.0047 26.9241 14.6136 27.0228 14.3491C27.6866 12.5704 28.3766 10.7927 28.8823 8.96655C29.1163 8.12219 28.8894 7.1611 28.9886 6.26546C29.1403 4.89746 29.383 3.53873 29.6061 2.17891C29.7588 1.25273 32.3475 -0.345449 33.1477 0.0669146C33.6425 0.322187 34.0532 0.809278 34.4012 1.26801C37.8059 5.76255 39.3414 11.0246 40.4661 16.4246C40.8261 18.1542 40.9275 19.9504 41.0105 21.7226C41.0743 23.0862 40.4448 24.0746 39.007 24.4466C38.0606 24.6909 37.147 25.0585 36.2137 25.3542C35.7675 25.4955 34.8141 25.2484 35.5968 26.2367C35.3486 26.3027 35.0557 26.4887 34.8594 26.4151C33.3135 25.8386 31.7797 25.2287 30.2579 24.5911C29.7861 24.3936 29.4125 23.9115 28.969 24.7078C28.8337 24.95 28.1765 24.968 27.7668 24.9424C27.6719 24.9369 27.7063 24.2638 27.5192 24.0238C27.0479 23.4189 26.4845 22.886 25.8823 22.2435Z" fill="black"/>
<path fill-rule="evenodd" clip-rule="evenodd" d="M47.6326 93.9388C45.7863 94.2683 43.9399 94.5972 42.0935 94.9261C42.0597 94.6899 42.0264 94.4543 41.9932 94.2187C42.8926 94.1177 43.7937 94.0337 44.6904 93.911C45.6592 93.7785 46.6224 93.6094 47.5879 93.4556C47.6032 93.617 47.6179 93.7779 47.6326 93.9388Z" fill="black"/>
<path fill-rule="evenodd" clip-rule="evenodd" d="M44.3888 42.3345C44.1335 42.1103 44.0746 42.0394 43.9998 41.9963C43.4517 41.6783 42.9002 41.3658 42.3498 41.0511C42.8609 40.4413 43.2984 39.4005 43.8957 39.2991C46.0049 38.9396 46.6055 37.4358 47.1406 35.758C47.9211 33.3111 48.6258 30.8331 49.5498 28.4407C49.8422 27.6842 50.6746 26.7334 51.3668 26.6363C52.2357 26.5153 53.6849 26.908 54.0608 27.556C55.4282 29.9145 56.6538 32.4023 57.55 34.9742C58.4708 37.6169 59.0457 40.396 59.5704 43.1533C59.836 44.5523 59.7428 46.0425 59.6288 47.4771C59.5938 47.9183 59.0293 48.5249 58.5755 48.6885C56.914 49.288 55.1964 49.732 53.506 50.2327C53.6757 50.4253 53.9178 50.7002 54.16 50.9756C53.9577 51.0814 53.7068 51.322 53.5628 51.2691C53.0866 51.094 52.6589 50.7907 52.1926 50.5818C51.8517 50.4291 51.4791 50.2545 51.1213 50.2556C50.6429 50.2573 50.0249 50.6576 49.7113 50.4727C48.244 49.6082 46.3115 49.6987 45.3046 47.7705C44.6937 46.6011 44.3315 44.9249 42.6231 44.47C42.4153 44.4143 42.2544 43.6954 42.3084 43.3174C42.3438 43.0687 42.7764 42.8205 43.0808 42.6803C43.4375 42.5162 43.8488 42.4703 44.3888 42.3345Z" fill="black"/>
<path fill-rule="evenodd" clip-rule="evenodd" d="M58.6721 49.7727C57.5327 50.6045 56.307 51.3038 54.7568 50.616C56.0616 50.3351 57.3668 50.0536 58.6721 49.7727Z" fill="black"/>
</svg>
