<svg width="111" height="53" viewBox="0 0 111 53" fill="none" xmlns="http://www.w3.org/2000/svg">
<mask id="mask0_0_1241" style="mask-type:alpha" maskUnits="userSpaceOnUse" x="0" y="0" width="111" height="53">
<path fill-rule="evenodd" clip-rule="evenodd" d="M0.20752 0.366516H110.443V52.7691H0.20752V0.366516Z" fill="white"/>
</mask>
<g mask="url(#mask0_0_1241)">
<path fill-rule="evenodd" clip-rule="evenodd" d="M6.44641 43.8773C5.89304 44.299 5.3086 44.7045 5.09943 45.419C5.61925 44.9675 6.24138 44.6133 6.44641 43.8773ZM42.2007 19.5268C44.7579 18.6798 47.174 17.4877 49.6671 16.4841C53.2416 15.0444 56.8095 13.586 60.5088 12.4693C62.7815 11.7838 64.9664 10.8431 67.2719 10.2193C72.6486 8.76507 77.9819 7.16583 83.4352 5.98495C87.8125 5.03725 92.1765 4.03406 96.5787 3.20276C100.481 2.46631 104.427 2.07364 108.365 1.6143C108.917 1.54968 109.481 1.54347 109.979 1.82719C109.952 2.35613 109.306 1.94069 109.27 2.40542C109.65 2.62909 110.495 2.05832 110.44 2.77157C110.396 3.35477 109.948 3.98518 109.145 4.21714C108.028 4.53938 106.891 4.35175 105.773 4.55885C100.816 5.47755 95.8335 6.24962 90.929 7.45909C87.9123 8.20299 84.8543 8.82388 81.925 9.84157C80.301 10.4053 78.5617 10.4562 77.0027 11.1935C76.6196 11.3745 76.1445 11.3116 75.9059 11.8455C75.8172 12.0435 75.2941 12.538 74.959 11.8331C74.8882 11.6844 74.6264 11.8467 74.4487 11.9039C72.5285 12.5215 70.5034 12.9207 68.7091 13.7939C66.9624 14.6438 65.0977 15.0932 63.3287 15.84C62.0786 16.3673 60.6169 16.2638 59.3519 16.9C58.8296 17.1622 58.2456 17.3013 57.7962 17.7077C57.5858 17.7698 57.3758 17.8323 57.1653 17.8945C55.702 18.2246 54.2953 18.6993 53.0304 19.5306C51.492 19.8739 50.0539 20.4588 48.7264 21.3116C47.1471 21.8335 45.5569 22.2954 44.239 23.4224C43.6914 23.8904 42.9131 24.0818 42.2587 24.4335C40.0294 25.6309 37.8135 26.8524 35.5813 28.0432C35.1684 28.2636 34.7861 28.6455 34.2393 28.4835C32.9735 28.8377 31.8949 29.5306 30.8801 30.3383C29.8836 31.1953 28.6377 31.6302 27.5106 32.2565C26.0584 33.0638 24.6481 33.8404 23.4564 35.0598C22.476 36.063 21.0714 36.5563 19.9241 37.4083C17.4169 39.2714 14.7636 41.0289 12.6789 43.3074C10.4116 45.7855 7.54404 47.5964 5.47138 50.2494C4.94286 50.9262 4.59824 51.731 3.89617 52.2947C3.18043 52.8688 1.73446 52.993 0.897356 52.267C0.212682 51.673 -0.00933003 50.8471 0.445877 49.9379C1.22582 48.3813 2.2257 46.9673 3.30884 45.6207C7.96943 39.8273 13.5798 35.0619 19.6019 30.762C25.4848 26.5612 31.6986 22.9046 38.1742 19.6929C41.47 18.0585 44.8814 16.6941 48.2658 15.2602C51.748 13.7848 55.2451 12.3595 58.8346 11.1765C62.031 10.1232 65.2675 9.19501 68.4983 8.2527C72.282 7.14844 76.0774 6.09678 79.9091 5.20956C89.1003 3.0814 98.3278 1.1214 107.782 0.556011C108.419 0.517905 109.096 0.0879641 109.771 0.665775C109.259 1.244 108.585 1.29536 107.923 1.34299C103.075 1.68927 98.2864 2.42447 93.4974 3.2653C86.439 4.50418 79.5459 6.41282 72.6047 8.12057C69.2476 8.94648 65.9853 10.1514 62.6618 11.1206C58.3011 12.3914 54.0679 14.0204 49.8468 15.6694C47.3223 16.6556 44.8163 17.73 42.4624 19.1068C42.2914 19.2071 42.1535 19.3197 42.2172 19.5471C41.6328 19.3508 41.2145 19.7596 40.7584 19.9742C37.2071 21.6459 33.7452 23.4887 30.3177 25.4006C28.1663 26.601 26.1048 27.9488 23.9824 29.1955C21.7487 30.5073 19.6756 32.1128 17.6344 33.719C17.0562 34.1738 16.0803 34.3673 16.0099 35.3651C14.8228 35.4736 14.3187 36.4528 13.6481 37.2178C14.4931 36.6735 15.3497 36.1429 15.9875 35.339C16.2158 35.2176 16.4664 35.1257 16.6693 34.9707C22.662 30.3777 29.0423 26.3955 35.725 22.8914C37.8793 21.7615 40.0419 20.6481 42.2007 19.5268Z" fill="black"/>
</g>
</svg>
