<svg width="290" height="161" viewBox="0 0 290 161" fill="none" xmlns="http://www.w3.org/2000/svg">
<path fill-rule="evenodd" clip-rule="evenodd" d="M29.0692 81.5331C29.121 81.6478 29.1728 81.7625 29.2246 81.8772C29.7311 81.6672 30.2376 81.4572 30.744 81.2473C30.683 81.1113 30.6215 80.9753 30.5609 80.8393C30.0632 81.0706 29.5664 81.3018 29.0692 81.5331ZM150.544 56.927C150.535 56.7924 150.526 56.6574 150.517 56.5223C149.889 56.5223 149.261 56.5154 148.634 56.5344C148.582 56.5357 148.488 56.7138 148.497 56.8003C148.509 56.9099 148.614 57.1033 148.668 57.0996C149.294 57.0598 149.919 56.9895 150.544 56.927ZM143.187 40.9497C143.195 41.0506 143.203 41.1514 143.211 41.2522C144.084 41.1842 144.957 41.1153 145.83 41.0473C145.82 40.9234 145.81 40.7999 145.8 40.6759L143.187 40.9497ZM217.583 130.752L217.568 130.672C216.691 130.587 215.815 130.5 214.938 130.418C214.799 130.406 214.653 130.401 214.518 130.43C214.475 130.439 214.456 130.569 214.427 130.643C214.571 130.679 214.715 130.746 214.86 130.747C215.767 130.757 216.675 130.752 217.583 130.752ZM121.097 74.1254C121.107 74.2142 121.118 74.303 121.127 74.3922C122.179 74.2812 123.229 74.1707 124.28 74.0597C124.27 73.9677 124.26 73.8747 124.25 73.7822C123.199 73.8964 122.148 74.0111 121.097 74.1254ZM40.5647 45.3645C40.5083 45.2392 40.4519 45.1143 40.395 44.9889C39.5865 45.4218 38.778 45.8538 37.969 46.2868C38.0435 46.4232 38.118 46.5596 38.1929 46.6956C38.9838 46.2521 39.7747 45.8081 40.5647 45.3645ZM134.046 10.4109C134.105 10.5488 134.163 10.6871 134.223 10.8249C134.847 10.694 135.477 10.5844 136.092 10.4146C136.218 10.3795 136.32 10.1288 136.355 9.96091C136.366 9.90726 136.096 9.70513 136.005 9.73335C135.345 9.93547 134.697 10.1797 134.046 10.4109ZM175.883 112.089C175.867 111.965 175.851 111.842 175.834 111.719C174.31 111.877 172.787 112.035 171.263 112.194C171.273 112.3 171.283 112.406 171.292 112.512C172.823 112.371 174.353 112.23 175.883 112.089ZM202.343 106.509C202.341 106.647 202.339 106.784 202.338 106.921L205.909 107.13C205.913 106.981 205.916 106.833 205.92 106.685C204.728 106.627 203.535 106.568 202.343 106.509ZM182.499 77.1646C182.475 77.0448 182.452 76.925 182.428 76.8052C181.154 76.9306 179.879 77.0554 178.605 77.1812C178.627 77.3362 178.648 77.4916 178.67 77.6465C179.946 77.4856 181.223 77.3251 182.499 77.1646ZM146.663 9.35131L146.669 9.02985C145.717 9.10802 144.764 9.16676 143.817 9.28517C143.68 9.30228 143.578 9.60338 143.46 9.77359C143.628 9.82955 143.808 9.95813 143.96 9.92946C144.864 9.75647 145.763 9.54741 146.663 9.35131ZM132.226 36.6622C132.207 36.5836 132.189 36.5049 132.172 36.4272C130.597 36.7473 129.021 37.0678 127.445 37.3888C127.476 37.5229 127.506 37.6571 127.537 37.7912C129.099 37.4147 130.662 37.0387 132.226 36.6622ZM54.8561 45.7553C54.7955 45.655 54.7349 45.5546 54.6743 45.4547L48.3031 47.7594C48.3448 47.8741 48.3864 47.9879 48.4275 48.1017C50.5704 47.3191 52.7133 46.537 54.8561 45.7553ZM92.8133 122.848C92.4853 122.033 91.3684 121.48 90.7865 121.747C90.6117 121.827 90.3781 121.773 90.1727 121.798C89.8985 121.831 89.6256 121.881 89.3518 121.923C89.552 122.127 89.7273 122.468 89.9563 122.509C90.8656 122.669 91.792 122.736 92.8133 122.848ZM155.577 75.1055C155.569 75.198 155.561 75.29 155.554 75.3825H161.474C161.471 75.29 161.466 75.198 161.462 75.1055H155.577ZM183.089 118.39C183.088 118.435 183.087 118.479 183.087 118.523H194.549C194.549 118.479 194.55 118.435 194.55 118.39H183.089ZM148.48 8.80414L148.496 9.34483C150.007 9.44289 151.517 9.55482 153.03 9.62003C153.193 9.62697 153.369 9.36564 153.539 9.22874C153.399 9.06639 153.26 8.76529 153.117 8.76391C151.571 8.75049 150.026 8.78379 148.48 8.80414ZM223.72 158.902C223.714 158.959 223.708 159.017 223.703 159.075C227.303 158.59 230.905 158.118 234.501 157.604C234.89 157.548 235.243 157.25 235.613 157.064C235.286 157.152 234.96 157.242 234.633 157.329C234.593 157.339 234.549 157.333 234.508 157.338C230.912 157.859 227.316 158.38 223.72 158.902ZM39.3612 66.1673C37.6721 65.9628 33.1584 67.9424 32.86 68.9498C34.9941 68.0363 37.0315 67.1649 39.3612 66.1673ZM35.4539 62.6276C34.5519 62.8283 34.7309 64.6719 33.3008 63.7941C33.2352 63.9416 33.1727 64.0901 33.1019 64.2353C33.0668 64.307 33.0303 64.3926 32.9692 64.4347C32.8457 64.5193 32.5835 64.609 32.5913 64.6419C32.6385 64.825 32.7213 65.1136 32.8434 65.1418C33.2717 65.2399 33.762 65.3828 34.1542 65.263C35.5223 64.8449 35.6911 64.43 35.4539 62.6276ZM230.875 90.1813C230.848 89.9769 230.82 89.7715 230.793 89.5671C227.736 89.8918 224.68 90.2169 221.623 90.5421C221.631 90.6336 221.638 90.7252 221.644 90.8163C224.722 90.605 227.798 90.3931 230.875 90.1813ZM159.075 70.6472C159.08 70.496 159.085 70.3447 159.091 70.193C154.478 70.0422 149.865 69.8919 145.252 69.7416C149.861 70.0089 154.451 70.8063 159.075 70.6472ZM143.121 51.7491C143.118 51.8634 143.116 51.9767 143.113 52.0905C143.439 52.1178 143.765 52.1552 144.092 52.1709C146.344 52.2745 148.596 52.3962 150.849 52.4554C151.255 52.4656 151.997 52.2505 152.017 52.0743C152.102 51.3384 151.591 51.0886 150.884 51.146C148.297 51.356 145.709 51.5493 143.121 51.7491ZM14.9823 52.3263C15.1201 52.4165 15.2575 52.5063 15.3953 52.5965L23.0481 40.2763C22.229 41.0737 21.5163 41.9765 20.7758 42.8558C20.5732 43.0968 20.403 43.9089 19.9585 43.0084C19.8415 43.0801 19.6773 43.1254 19.619 43.23C19.5418 43.3683 19.514 43.6953 19.5219 43.6971C20.4039 43.9025 19.7693 44.2905 19.6093 44.5611C18.0751 47.1549 16.5266 49.7395 14.9823 52.3263ZM217.837 110.924C217.836 110.829 217.835 110.734 217.834 110.639L198.169 111.2C198.178 111.402 198.187 111.604 198.195 111.806C204.742 111.512 211.29 111.218 217.837 110.924ZM218.228 35.8357C218.246 35.7441 218.263 35.6525 218.281 35.5605C217.373 34.7631 216.23 34.1142 215.609 33.1341C214.595 31.5333 213.193 30.4163 211.785 29.2623C211.683 29.18 211.484 29.2161 211.331 29.1971C211.338 29.3766 211.274 29.6097 211.363 29.7285C213.063 31.9967 214.458 34.585 217.376 35.6049C217.653 35.702 217.943 35.7598 218.228 35.8357ZM236.417 94.819C229.637 95.6289 223.244 96.392 216.852 97.1556C223.352 97.1945 229.794 96.7676 236.417 94.819ZM192.428 92.2122C192.7 92.1609 192.91 92.1479 193.1 92.0799C193.397 91.9722 193.682 91.8283 193.972 91.6993C193.676 91.5235 193.391 91.2164 193.083 91.1919C189.298 90.8917 185.51 90.6276 181.721 90.3802C181.526 90.3677 181.19 90.5504 181.145 90.7072C181.098 90.8728 181.293 91.2756 181.429 91.2987C182.33 91.4514 183.242 91.5744 184.155 91.6207C185.166 91.672 186.188 91.5638 187.195 91.6452C188.968 91.789 190.734 92.024 192.428 92.2122ZM218.964 91.777C218.563 91.7053 218.162 91.5684 217.762 91.5712C212.975 91.6012 208.189 91.6429 203.403 91.7164C203.076 91.721 202.753 91.9981 202.428 92.1484C202.741 92.2871 203.048 92.5277 203.369 92.5489C208.575 92.8926 213.755 92.5651 218.964 91.777ZM125.583 56.9502C125.605 57.1726 125.627 57.3951 125.648 57.6176C127.566 57.4677 129.483 57.3072 131.402 57.1731C132.274 57.112 133.151 57.0593 134.023 57.0838C135.194 57.1162 136.367 57.3299 137.532 57.2822C139.575 57.1995 141.61 56.9173 143.653 56.8382C144.637 56.7998 145.629 57.0649 146.621 57.1222C146.859 57.1361 147.113 56.8701 147.359 56.7328C147.247 56.5926 147.153 56.354 147.02 56.329C146.229 56.1828 145.43 56.0075 144.632 55.9909C143.34 55.9641 142.047 56.0718 140.753 56.0857C139.187 56.1037 137.619 56.0464 136.055 56.0885C134.383 56.1343 132.71 56.2194 131.044 56.3595C129.22 56.5131 127.403 56.7494 125.583 56.9502ZM122.51 45.9422C123.051 46.0204 123.631 46.2539 124.149 46.1563C129.067 45.2281 133.967 44.2045 138.889 43.2915C141.192 42.8646 143.531 42.6259 145.85 42.2781C146.036 42.2499 146.194 42.0357 146.365 41.9081C146.205 41.7892 146.058 41.6024 145.881 41.5677C145.599 41.5117 145.292 41.5237 145.004 41.5649C141.646 42.0441 138.287 42.5145 134.935 43.0288C133.092 43.3118 131.241 43.5893 129.43 44.0227C127.135 44.5727 124.877 45.278 122.51 45.9422ZM53.8774 29.7753C61.3046 28.6222 68.7322 27.4687 76.1598 26.3156C68.4523 25.718 61.0983 27.3318 53.8774 29.7753ZM126.426 50.5489L126.494 50.9961C126.836 50.9804 127.189 51.0123 127.519 50.9406C129.031 50.6146 130.523 50.1668 132.048 49.9305C137.803 49.0397 143.567 48.2178 149.324 47.3519C149.513 47.3237 149.673 47.1008 149.847 46.969C149.659 46.8436 149.465 46.6022 149.285 46.6119C147.292 46.7225 145.275 46.7141 143.315 47.0444C139.081 47.758 134.873 48.6299 130.663 49.4809C129.237 49.7695 127.838 50.189 126.426 50.5489ZM242.206 99.1005C231.854 101.26 221.337 102.042 210.819 102.81C221.444 102.945 231.969 102.237 242.206 99.1005ZM129.215 52.2653C129.85 52.3425 130.141 52.4586 130.388 52.3953C132.65 51.8148 134.997 52.5738 137.324 51.5738C139.064 50.8259 141.214 51.0096 143.187 50.8449C143.604 50.8102 144.044 51.0678 144.474 51.1904C144.86 49.5341 146.393 51.6867 147.071 50.4235C147.212 50.1618 148.503 50.6021 149.252 50.5489C149.672 50.5188 150.066 50.14 150.472 49.9185C150.199 49.6766 149.944 49.2538 149.65 49.2261C148.794 49.1461 147.919 49.1743 147.058 49.2455C141.151 49.7353 135.329 50.7339 129.215 52.2653ZM223.458 111.666C223.453 111.559 223.447 111.452 223.441 111.345C222.297 111.421 221.155 111.534 220.009 111.567C212.742 111.773 205.474 111.938 198.209 112.185C197.396 112.213 196.597 112.675 195.792 112.935C195.836 113.092 195.881 113.249 195.926 113.406C205.152 113.587 214.321 112.874 223.458 111.666ZM167.257 1.52824C146.099 2.47363 125.104 4.64979 104.546 10.133C125.154 5.02906 146.178 3.07121 167.257 1.52824ZM176.563 9.42346C176.563 9.3143 176.564 9.20561 176.564 9.09738C175.362 8.76206 174.16 8.4221 172.955 8.10019C172.856 8.07429 172.721 8.21397 172.605 8.21166C171.029 8.17234 169.452 8.12332 167.876 8.07198C167.355 8.05486 166.835 8.02757 166.316 7.99659C165.367 7.93923 164.416 7.80233 163.47 7.83193C162.245 7.87032 161.023 8.02942 159.801 8.15523C158.74 8.26392 157.678 8.374 156.624 8.53218C156.106 8.60942 155.598 8.77732 155.099 8.94429C154.94 8.99702 154.705 9.18896 154.715 9.29812C154.729 9.4526 154.915 9.67599 155.068 9.71623C155.344 9.78792 155.65 9.75601 155.943 9.75C157.713 9.71115 159.482 9.64454 161.252 9.63298C162.392 9.62512 163.533 9.72919 164.673 9.72225C166.328 9.71253 167.982 9.64917 169.636 9.60615C171.944 9.54649 174.253 9.48451 176.563 9.42346ZM200.496 128.681C200.491 128.741 200.487 128.801 200.482 128.861C201.424 129.041 202.358 129.325 203.307 129.383C207.93 129.666 212.537 129.274 217.146 128.963C218.901 128.844 220.672 129.001 222.433 128.946C223.499 128.913 224.841 129.06 225.538 128.49C226.18 127.965 226.731 127.882 227.368 127.84C227.967 127.801 228.593 128.082 229.179 128.006C229.877 127.916 230.546 127.598 231.226 127.375C231.401 127.318 231.572 127.251 231.745 127.188C231.577 127.028 231.411 126.734 231.239 126.731C230.534 126.719 229.826 126.782 229.12 126.842C224.4 127.237 219.684 127.714 214.958 128.018C210.143 128.327 205.317 128.467 200.496 128.681ZM201.713 105.48C206.785 106.829 231.447 105.55 237.588 102.344C237.143 102.394 236.858 102.422 236.573 102.458C230.917 103.179 225.275 104.059 219.599 104.574C214.345 105.051 209.068 105.554 203.77 104.993C203.209 104.934 202.607 105.257 201.713 105.48ZM181.834 119.578C195.344 120.772 210.631 120.589 225.111 118.617C210.594 118.939 195.311 119.278 181.834 119.578ZM228.956 124.315C222.147 124.723 215.444 125.284 208.731 125.483C201.965 125.684 195.189 125.528 188.418 125.528C188.418 125.65 188.419 125.771 188.42 125.894C192.008 127.619 224.024 126.392 228.956 124.315ZM207.353 24.9997C207.89 25.4262 208.427 25.8531 209.167 26.441C208.824 25.4946 208.596 24.8665 208.397 24.3171C208.044 24.5502 207.682 24.7884 207.321 25.0275C207.774 23.818 207.544 23.1548 205.935 22.7981C206.431 23.5793 206.884 24.2949 207.353 24.9997ZM85.9458 125.67C85.6044 125.634 85.264 125.599 84.9236 125.563C84.598 125.528 84.2724 125.463 83.9458 125.463C83.6841 125.463 83.2077 125.504 83.1938 125.589C83.0578 126.405 82.9167 126.904 81.8446 126.462C81.3756 126.269 80.6296 126.624 80.0547 126.848C79.2818 127.147 79.2207 126.829 79.2748 126.185C79.2915 125.984 79.0501 125.762 78.9266 125.551C78.8294 125.69 78.7633 125.892 78.6296 125.958C78.0455 126.249 77.4382 126.732 76.8443 126.725C74.6052 126.696 72.3648 126.359 70.1308 126.407C66.7785 126.479 63.4331 126.913 60.0817 126.953C53.376 127.033 46.6949 128.496 39.9736 127.391C37.2466 126.942 34.4516 126.609 31.8587 125.722C29.3546 124.866 27.0341 123.431 24.7012 122.129C20.9404 120.03 17.2898 117.752 14.2788 114.611C10.2715 110.429 6.6199 106.006 4.61858 100.448C3.81102 98.2037 2.78376 96.0331 2.0849 93.7589C1.59925 92.1794 1.16032 90.4472 1.3111 88.8409C1.56826 86.0963 0.987337 83.4988 0.567369 80.8657C-0.810016 72.2263 0.37681 63.9092 3.51593 55.804C5.39746 50.9448 7.65132 46.2747 10.352 41.8184C13.9698 35.8486 18.4308 30.5995 23.8622 26.2134C26.709 23.9142 29.6182 21.7098 33.0825 20.3144C36.8275 18.8057 40.4116 16.8779 44.1978 15.4926C50.4215 13.2147 56.7834 11.2791 63.4955 11.2421C68.3663 11.2157 73.2376 11.5242 78.1102 11.6209C80.9168 11.6769 83.7252 11.5816 86.5322 11.601C92.4442 11.6412 98.068 9.94611 103.701 8.5456C115.701 5.56281 127.801 3.27056 140.116 2.13415C147.559 1.4473 154.987 0.478786 162.444 0.101832C172.508 -0.406477 182.345 0.92003 191.445 5.62571C196.256 8.11314 200.371 11.5649 204.193 15.3904C207.65 18.8496 211.349 22.0771 214.662 25.6639C217.16 28.3687 220.143 30.3844 223.034 32.5421C225.06 34.0545 227.255 35.3486 229.419 36.6668C234.953 40.0372 241.198 41.6148 247.235 43.7332C251.811 45.3386 256.298 47.1961 260.811 48.9745C261.074 49.0781 261.213 49.4897 261.42 49.7487C261.474 49.8167 261.57 49.8944 261.646 49.894C262.81 49.8884 263.633 50.4457 264.443 51.2653C264.978 51.8074 265.945 51.9013 266.555 52.3971C269.343 54.6639 272.27 56.8105 274.765 59.3724C276.933 61.5985 278.768 64.2122 280.42 66.8606C282.098 69.5538 283.546 72.4265 284.776 75.3543C286.023 78.3241 286.978 81.4281 287.884 84.5256C289.679 90.6679 290.242 96.985 289.631 103.325C289.007 109.795 287.161 116.003 284.438 121.914C283.362 124.251 282.124 126.521 280.837 128.751C280.159 129.928 279.189 130.934 278.405 132.054C277.865 132.827 277.463 133.698 276.918 134.468C273.816 138.853 269.85 142.356 265.561 145.528C264.793 146.096 264.082 146.739 263.333 147.334C263.105 147.516 262.852 147.678 262.589 147.805C260.247 148.938 257.893 150.048 255.563 151.205C255.21 151.381 255.011 151.911 254.657 152.03C253.521 152.414 252.314 152.615 251.505 153.632C250.903 152.884 250.56 153.887 250.528 153.878C249.007 153.421 248.496 155.062 247.369 155.36C246.925 155.478 246.489 155.789 246.062 155.765C245.592 155.74 244.965 156.828 244.629 155.625C244.233 155.869 243.84 156.118 243.439 156.354C242.967 156.633 242.487 156.9 241.883 156.949C242.09 156.797 242.298 156.644 242.506 156.493C234.081 158.539 225.653 160.394 216.885 159.54C216.894 159.704 216.903 159.867 216.912 160.031C221.566 159.898 226.221 159.766 230.875 159.634C230.883 159.649 230.891 159.664 230.898 159.679C229.002 159.878 227.111 160.149 225.21 160.262C216.742 160.767 208.544 159.276 200.601 156.49C194.944 154.505 189.419 152.141 183.826 149.971C180.946 148.853 178.031 147.825 175.162 146.68C173.902 146.178 172.752 145.396 171.491 144.896C169.785 144.22 168.015 143.71 166.284 143.096C164.833 142.582 163.256 142.231 162.022 141.388C161.492 141.025 161.127 141.063 160.656 140.94C160.375 140.867 160.195 140.446 159.94 140.214C159.818 140.103 159.513 139.974 159.48 140.015C158.877 140.72 158.331 140.216 157.714 140.022C154.963 139.161 152.205 138.318 149.429 137.545C145.961 136.579 142.498 135.581 138.989 134.792C135.048 133.906 131.069 133.168 127.085 132.492C123.194 131.832 119.279 131.306 115.368 130.77C112.162 130.332 108.942 129.999 105.738 129.551C104.443 129.371 103.181 128.966 101.889 128.755C101.352 128.666 100.714 128.99 100.23 128.82C98.987 128.384 97.5943 128.784 96.3923 127.955C95.9714 127.665 95.0981 128.121 94.4612 128.029C93.7915 127.933 93.1574 127.586 92.5057 127.355C92.4081 127.321 92.2703 127.273 92.1972 127.314C91.1602 127.901 90.4202 127.593 90.2056 126.777C89.5382 126.822 88.9693 126.887 88.3999 126.89C87.8736 126.892 87.3292 126.728 86.8227 126.814C85.7011 127.004 85.8209 126.367 85.9629 125.664C86.1673 125.931 86.3935 126.448 86.5568 126.429C87.1442 126.36 87.7126 126.118 88.2796 125.917C88.3476 125.892 88.4258 125.664 88.3897 125.62C88.2949 125.506 88.1307 125.358 88.0105 125.371C87.3195 125.447 86.6331 125.565 85.9458 125.67Z" fill="black"/>
</svg>
