<svg width="75" height="177" viewBox="0 0 75 177" fill="none" xmlns="http://www.w3.org/2000/svg">
<path fill-rule="evenodd" clip-rule="evenodd" d="M3.86934 138.389V122.308C1.78734 127.897 1.87634 133.163 3.86934 138.389ZM66.3483 42.8156C64.0123 49.4926 61.6753 56.1706 59.3383 62.8486C63.3163 56.7216 65.6363 50.0366 66.3483 42.8156ZM59.1243 1.74664C63.3593 0.455641 66.9883 0.452641 69.0873 4.88264C70.0033 6.81664 69.3253 10.4446 67.7083 12.1146C69.7813 11.7206 70.9193 12.1766 71.2173 14.5426C71.4623 16.4926 72.8053 18.2876 73.1653 20.2436C74.6203 28.1326 75.7443 36.0986 73.4343 43.9926C72.8413 46.0166 70.3623 47.5516 72.2273 50.0566C70.8473 55.5836 69.4883 61.1246 66.5283 66.0796C65.8203 67.2636 64.8653 68.3016 64.0083 69.3946C60.3843 74.0136 56.7663 78.6376 53.0973 83.2206C52.8503 83.5286 52.1723 83.4566 51.7403 83.6586C51.3633 83.8336 51.0493 84.1466 50.7063 84.3976C52.3073 86.4726 49.9003 87.1196 49.1133 87.7296C46.7413 89.5656 44.0253 90.9576 41.4403 92.5176C41.1403 92.6996 40.6733 92.7716 40.5343 93.0306C39.0073 95.8646 36.9043 97.6946 33.5333 98.2336C32.3443 98.4246 31.3753 99.9876 29.9603 100.471C29.7573 101.11 29.7493 101.955 29.3223 102.356C24.8673 106.545 20.3453 110.663 15.7743 114.863C16.0013 117.289 12.8913 122.306 10.3383 123.087C10.9073 123.453 11.3173 123.718 11.3303 123.726C10.9723 125.145 10.3723 126.406 10.3843 127.662C10.4413 134.067 10.6193 140.39 13.1183 146.547C15.6783 152.856 17.3313 159.528 19.6973 165.924C20.5353 168.19 22.2253 170.169 23.6773 172.169C24.5333 173.348 24.7973 174.128 23.3413 175.008C19.4583 177.356 16.6113 177.224 14.1433 173.266C10.8083 167.918 7.48834 162.35 5.49234 156.429C3.02934 149.121 1.62034 141.405 0.332339 133.769C-1.05066 125.571 2.66434 118.734 7.46534 112.463C12.7153 105.602 19.0493 99.9296 26.3203 95.2216C35.1183 89.5256 42.3853 82.1576 48.9313 73.9966C55.7883 65.4466 60.7553 55.9826 63.1833 45.3056C65.0393 37.1486 65.7573 28.9056 63.5593 20.6296C61.9633 14.6216 60.5263 8.57164 59.0353 2.53664C58.9763 2.29764 59.0903 2.01564 59.1243 1.74664Z" fill="black"/>
<path fill-rule="evenodd" clip-rule="evenodd" d="M41.4397 38.8818C37.5627 41.0338 36.5197 40.9478 33.5577 38.0358C30.3937 34.9258 27.3807 31.6638 24.2907 28.4788C23.7867 27.9598 23.1527 27.5528 22.7097 26.9918C21.9307 26.0068 21.2527 24.9438 20.5317 23.9128C21.9857 23.6828 23.5407 23.0248 24.8697 23.3338C26.4637 23.7048 28.1537 24.6198 29.3017 25.7908C33.3907 29.9638 37.2667 34.3448 41.4397 38.8818Z" fill="black"/>
<path fill-rule="evenodd" clip-rule="evenodd" d="M11.747 66.5044C8.462 65.6594 5.034 64.8804 1.688 63.8364C0.972 63.6124 0.555 62.4264 0 61.6844C0.733 61.1714 1.404 60.4924 2.216 60.1914C3.029 59.8874 4.002 59.7954 4.872 59.8964C8.831 60.3574 12.781 60.9074 16.73 61.4574C17.444 61.5564 18.181 61.7124 18.822 62.0194C19.261 62.2294 19.88 62.7934 19.834 63.1154C19.762 63.6304 19.293 64.3554 18.834 64.5054C16.613 65.2304 14.338 65.7924 11.747 66.5044Z" fill="black"/>
<path fill-rule="evenodd" clip-rule="evenodd" d="M45.7952 149.304C43.8842 151.551 42.2492 151.681 40.5842 150.325C38.3472 148.503 36.0872 146.681 34.0722 144.629C33.4272 143.971 33.5252 142.584 33.2832 141.531C34.7972 141.387 36.8852 140.542 37.7202 141.227C40.6172 143.601 43.0782 146.507 45.7952 149.304Z" fill="black"/>
<path fill-rule="evenodd" clip-rule="evenodd" d="M57.6463 133.13C52.0463 135.572 48.1693 131.477 43.7263 129.892C43.3193 129.746 42.8793 128.302 43.0573 128.146C43.9393 127.372 45.3643 126.056 45.9793 126.328C49.8833 128.057 53.6273 130.149 57.4073 132.153C57.5563 132.232 57.5333 132.635 57.6463 133.13Z" fill="black"/>
<path fill-rule="evenodd" clip-rule="evenodd" d="M25.0452 46.1591C23.6852 46.3341 22.1752 46.9721 20.9922 46.5941C17.7452 45.5541 14.6042 44.1551 11.4952 42.7361C10.8332 42.4341 10.4832 41.4481 9.99023 40.7761C10.8012 40.3501 11.7312 39.4271 12.4022 39.5871C15.0922 40.2291 17.7602 41.0661 20.3222 42.1111C22.0832 42.8291 23.6552 44.0091 25.3122 44.9831C25.2232 45.3751 25.1342 45.7671 25.0452 46.1591Z" fill="black"/>
<path fill-rule="evenodd" clip-rule="evenodd" d="M56.6335 106.288C56.2085 107.253 56.1465 107.767 55.8585 107.99C52.8425 110.316 49.8665 112.707 46.7025 114.815C45.8045 115.413 44.3315 115.149 43.0425 114.833C47.0085 111.191 50.5695 107.201 56.6335 106.288Z" fill="black"/>
</svg>
