<svg width="190" height="199" viewBox="0 0 190 199" fill="none" xmlns="http://www.w3.org/2000/svg">
<path fill-rule="evenodd" clip-rule="evenodd" d="M45.1192 156.775C44.8812 156.582 44.6422 156.388 44.4042 156.194C42.9372 158.47 41.4702 160.746 40.0032 163.022C40.1802 163.136 40.3572 163.251 40.5342 163.365L45.1192 156.775ZM163.98 25.0942C164.194 25.3032 164.407 25.5112 164.62 25.7202C168.337 22.0972 172.053 18.4742 175.768 14.8512C175.53 14.6082 175.291 14.3652 175.052 14.1232C171.361 17.7802 167.671 21.4372 163.98 25.0942ZM95.1322 94.6372C98.9832 90.9252 102.834 87.2122 106.685 83.5012L106.066 82.8812C104.63 84.2442 103.177 85.5882 101.765 86.9752C100.282 88.4332 98.7732 89.8752 97.4032 91.4352C96.5432 92.4132 95.9162 93.5972 95.1852 94.6892C92.8232 97.2362 90.4602 99.7842 88.0972 102.331C87.3172 102.881 86.4032 103.312 85.7772 104.002C81.0812 109.175 76.3412 114.314 71.8132 119.632C67.3292 124.9 62.9952 130.301 58.7612 135.772C56.6722 138.47 54.9572 141.458 53.0732 144.315C53.2862 144.458 53.4982 144.601 53.7112 144.744C57.0992 140.217 60.3202 135.552 63.9132 131.194C70.6162 123.067 77.5472 115.128 84.3532 107.084C85.6562 105.544 86.8192 103.885 88.0462 102.281C90.4082 99.7332 92.7702 97.1852 95.1322 94.6372ZM41.2302 124.945C36.8202 129.74 32.3872 134.515 28.0042 139.336C22.8072 145.053 17.6402 150.798 12.4942 156.561C11.7792 157.362 11.1232 158.273 10.6682 159.24C8.8982 163.01 5.4982 162.66 2.2952 162.511C0.416204 162.424 -0.714796 159.504 0.511204 157.792C3.8932 153.07 7.1822 148.246 10.9562 143.848C22.6652 130.202 34.5852 116.738 46.4122 103.195C47.4272 102.033 48.3132 100.756 49.3572 99.6242C50.4292 98.4602 51.3222 96.4002 53.2632 98.9612C53.7872 99.6522 55.4812 99.3312 56.4562 99.8302C59.8522 101.568 60.5822 102.938 59.5052 106.539C58.0702 111.338 56.3212 116.045 54.6762 120.78C53.4752 124.236 52.3002 127.704 50.9782 131.114C49.3062 135.426 47.3452 139.63 45.8082 143.987C44.9022 146.557 44.5762 149.331 43.9892 152.013C44.2042 152.239 44.4202 152.466 44.6352 152.692C44.8302 152.154 44.9072 151.525 45.2412 151.093C49.5592 145.514 53.9392 139.981 58.2542 134.398C62.2002 129.293 65.8222 123.913 70.0502 119.057C79.1922 108.557 88.2722 97.9632 98.0242 88.0442C116.779 68.9662 136.02 50.3672 154.987 31.4962C164.937 21.5962 174.732 11.5402 184.608 1.56524C185.084 1.08424 185.663 0.705244 186.54 0.000244141C186.48 1.15924 186.445 1.83924 186.41 2.51824C186.578 2.61624 186.809 2.81524 186.864 2.77524C188.112 1.85024 189.378 2.51624 189.671 3.48224C190.015 4.61324 189.938 6.30424 189.292 7.22624C187.18 10.2452 184.792 13.0832 182.383 15.8802C180.274 18.3302 178.067 20.7052 175.774 22.9822C169.942 28.7722 164.707 35.1342 158.601 40.6702C156.931 42.1842 155.791 44.2842 154.399 46.1082C154.014 46.6122 153.636 47.1302 153.188 47.5742C143.42 57.2722 133.666 66.9842 123.856 76.6402C119.415 81.0112 114.818 85.2232 110.367 89.5852C107.277 92.6132 104.39 95.8512 101.253 98.8252C100.311 99.7182 99.8132 102.072 97.5772 100.695C97.5242 100.663 96.9662 101.281 96.7822 101.663C96.1762 102.926 95.5502 104.191 95.0832 105.508C94.1722 108.075 91.9612 109.286 90.0002 110.859C88.4132 112.133 87.2962 113.977 85.8632 115.465C84.4122 116.973 81.9402 118.134 81.5192 119.843C80.9452 122.174 78.9772 122.878 77.9762 124.57C76.0742 127.788 73.9562 130.892 71.7422 133.907C68.8282 137.874 66.2662 142.358 62.5562 145.402C59.4412 147.959 57.9692 151.405 55.4812 154.226C52.1962 157.951 49.4892 162.212 46.7632 166.392C44.7692 169.447 43.6982 173.316 41.1802 175.749C39.1872 177.674 38.9112 180.175 37.3662 181.939C34.1912 185.564 32.4402 189.946 30.3692 194.111C28.7552 197.362 26.5562 198.763 23.2442 198.206C21.9822 197.994 20.0702 199.743 19.1892 196.438C18.5612 194.08 17.2902 194.396 18.1652 191.919C25.8472 170.194 33.5432 148.474 41.2312 126.751C41.4052 126.261 41.5332 125.754 41.6822 125.255C41.5322 125.152 41.3812 125.048 41.2302 124.945Z" fill="black"/>
<path fill-rule="evenodd" clip-rule="evenodd" d="M149.537 3.08325C149.867 3.77425 149.972 4.48925 150.37 4.74525C152.737 6.25925 152.84 7.16325 150.529 9.01925C145.579 12.9943 140.493 16.8043 135.627 20.8783C127.66 27.5513 119.748 34.2943 111.963 41.1783C107.389 45.2233 102.91 49.4132 98.7358 53.8643C92.6158 60.3903 86.7568 67.1643 80.8858 73.9183C76.9038 78.5003 73.0728 83.2142 69.2138 87.9023C67.8918 89.5093 66.2098 88.7952 65.4058 87.9053C64.6838 87.1062 64.3728 85.0452 64.9058 84.1562C67.3728 80.0413 70.0848 76.0583 72.9128 72.1763C92.3818 45.4453 117.551 24.8793 144.458 6.20825C146.081 5.08225 147.827 4.12925 149.537 3.08325Z" fill="black"/>
</svg>
