<svg width="75" height="69" viewBox="0 0 75 69" fill="none" xmlns="http://www.w3.org/2000/svg">
<path fill-rule="evenodd" clip-rule="evenodd" d="M3.3139 56.6492C7.82152 39.2185 15.2111 23.2222 27.5353 9.68126C14.4328 22.8345 7.18233 38.8998 3.3139 56.6492ZM0.00913885 63.3674C0.393842 58.4128 1.69779 53.3238 3.13908 48.2604C6.33979 37.0135 11.329 26.5985 18.1758 17.0508C22.9605 10.3783 28.5104 4.55889 36.0796 0.806575C38.505 -0.395662 40.6033 -0.137789 42.7878 1.0241C44.0127 1.67492 44.4081 3.59464 43.3521 3.99052C40.6735 4.99452 39.4492 7.39549 37.688 9.25089C32.3479 14.8761 27.1934 20.6505 23.0735 27.2517C18.0705 35.2662 14.4334 43.8573 11.6103 52.8074C10.2849 57.0094 8.868 61.1863 7.87503 65.4847C7.74481 66.0496 6.9326 66.4004 7.28995 67.1647C7.328 67.2466 7.15973 67.4302 7.07292 67.5571C6.79584 67.9623 2.66519 68.6336 2.24719 68.3459C0.288598 66.998 -0.0657801 66.2618 0.00913885 63.3674Z" fill="black"/>
<path fill-rule="evenodd" clip-rule="evenodd" d="M43.3818 25.9236L43.0495 25.6448C42.1485 26.6932 41.2476 27.7416 40.3466 28.79C40.4402 28.868 40.5332 28.9471 40.6268 29.0257C41.5449 27.9914 42.4637 26.9578 43.3818 25.9236ZM38.678 31.2075C35.2258 35.5583 32.1225 40.1334 30.278 45.4363C32.5757 40.4034 35.5878 35.7927 38.678 31.2075ZM50.8986 22.0052C51.5698 23.9614 50.4017 24.8102 49.2152 25.819C48.0945 26.7723 47.6864 28.3246 46.6201 29.4303C45.3057 30.7947 43.9351 32.2801 43.0495 33.8412C42.3713 35.0361 41.0012 35.6303 40.6997 37.1577C40.4574 38.3845 39.7122 39.6284 38.4115 40.2882C37.8677 40.5646 37.8807 41.1618 37.6787 41.6485C37.1604 42.8971 36.7825 44.2585 35.4166 44.9514C35.2069 45.0583 34.9421 45.3566 34.9534 45.5515C35.0671 47.4292 33.3475 48.3269 32.7036 49.7971C32.4051 50.4781 31.7174 50.712 30.9651 50.7504C30.3141 50.784 29.1999 51.1384 29.0975 50.94C28.5389 49.8502 27.706 48.9347 28.1041 47.3648C29.5026 41.841 32.3305 37.0839 35.5297 32.4863C38.7609 27.8438 42.6035 23.7417 46.818 19.9852C48.4487 18.5322 50.2299 17.2575 52.2332 16.3314C53.6619 15.6705 54.9994 16.1123 56.3233 16.6639C56.8286 16.8742 57.0223 17.3089 56.998 17.8323C56.9755 18.3213 56.6307 18.5493 56.2386 18.7791C54.8413 19.5989 53.1549 20.0915 52.7461 22.0223C52.6614 22.421 52.235 22.8929 51.7131 22.9107C51.212 22.9284 51.6622 22.2031 50.8986 22.0052Z" fill="black"/>
<path fill-rule="evenodd" clip-rule="evenodd" d="M62.5581 34.3479C63.619 33.7929 64.4769 33.874 64.9817 33.1948C65.1859 32.9202 65.6802 32.6043 65.2507 32.216C64.9029 31.9018 64.4354 32.0411 64.1331 32.3769C63.6885 32.8719 63.298 33.414 62.5581 34.3479ZM58.9183 37.9303C56.5554 40.3694 54.3669 42.9368 53.278 46.2492C54.8828 43.2865 56.9452 40.6428 58.9183 37.9303ZM63.6494 37.7985C64.5988 38.6211 64.1792 38.951 63.5332 39.7444C62.533 40.9722 61.6173 42.3736 60.3527 43.2224C58.735 44.3079 58.4205 46.2987 56.8787 47.3638C55.5644 48.2715 53.6164 48.184 52.5409 47.2536C51.6089 46.4468 52.1056 45.6989 52.3828 44.9667C53.8423 41.1103 56.4666 38.0737 59.4295 35.3133C61.5718 33.3184 64.0129 31.6972 66.4085 30.0229C67.1853 29.4796 67.4024 29.8293 67.4975 30.5785C67.5395 30.9108 67.3848 31.3363 67.9171 31.6109C68.2235 31.0664 68.5222 30.5423 68.8146 30.0147C68.8846 29.8882 69.0177 29.7215 68.9827 29.6224C68.5923 28.5142 68.7516 28.2903 70.2584 28C70.1633 28.5392 69.5038 28.706 69.5248 29.2703C70.0098 29.8072 70.1837 28.3253 70.7235 29.0429C71.1799 29.651 70.999 30.589 70.6996 30.7947C69.5768 31.5654 69.4834 32.971 68.5613 33.8472C68.2801 34.1142 68.8 35.0143 67.8009 35.0108C67.2512 35.0096 66.8304 36.1038 66.1407 35.23C66.3408 35.8951 65.5892 36.0881 65.4853 36.4244C65.1953 37.3566 64.4494 37.4924 63.6494 37.7985Z" fill="black"/>
<path fill-rule="evenodd" clip-rule="evenodd" d="M71.2163 27.2294C72.1763 27.4169 72.9396 28.1944 73.3036 26.9069C73.4636 26.3426 73.985 26.6613 74.223 27.0369C74.5903 27.6182 75.0663 28.2957 74.5976 28.9132C74.0503 29.6357 73.3636 30.5282 72.5596 30.7319C71.927 30.8913 71.5596 29.8444 71.633 29.0901C71.6896 28.4988 72.057 27.9038 71.2163 27.2294Z" fill="black"/>
</svg>
