<svg width="169" height="97" viewBox="0 0 169 97" fill="none" xmlns="http://www.w3.org/2000/svg">
<path fill-rule="evenodd" clip-rule="evenodd" d="M145.181 2.3607C145.194 2.41128 145.206 2.46186 145.22 2.51194H153.005C153.001 2.46186 152.998 2.41128 152.994 2.3607H145.181ZM69.2583 63.0147C71.8715 60.4417 74.731 58.063 76.1165 54.5234C73.8306 57.3543 71.5447 60.1843 69.2583 63.0147ZM82.658 33.6942C82.658 33.1895 82.699 32.6806 82.6519 32.1804C81.8942 24.1165 75.29 22.0336 69.3919 23.6764C67.4687 24.2116 65.8485 25.2561 64.2996 26.3951C62.9192 27.4097 61.5458 28.5326 60.479 29.8573C57.8168 33.1642 56.2983 37.0598 55.4834 41.1891C54.3498 46.9339 54.1196 52.6778 56.2952 58.2764C57.5694 61.553 59.4441 64.3662 62.5337 66.2589C63.4225 66.8031 63.9946 66.6473 64.681 65.9868C69.7192 61.1392 74.3526 55.9644 77.7797 49.8165C80.5775 44.799 82.6079 39.5422 82.658 33.6942ZM128.768 5.6858C132.897 4.73137 137.025 3.77744 141.154 2.823C137.918 3.30199 134.699 3.91754 131.503 4.63577C130.566 4.84618 129.695 5.34844 128.791 5.71362C126.869 5.67569 125.412 6.7935 123.907 7.78536C125.527 7.08585 127.148 6.38582 128.768 5.6858ZM61.3243 68.9431C56.232 65.7414 53.0756 61.2722 51.6157 55.7753C48.825 45.2653 50.4376 35.4215 57.1476 26.7315C60.2984 22.6502 64.633 20.0984 69.796 19.3372C74.1548 18.6949 77.9663 20.148 81.189 23.0912C84.395 26.0183 86.4634 29.6701 86.8104 33.9795C87.1073 37.6723 86.7801 41.4228 85.3637 44.934C84.2301 47.7427 83.0657 50.5509 81.6792 53.2387C80.8441 54.8577 79.6053 56.2826 78.4651 57.7291C75.7852 61.1276 73.0557 64.4866 70.3879 68.1541C71.3869 67.8683 72.4284 67.6817 73.3769 67.277C76.4377 65.9706 78.887 63.8129 81.0757 61.3719C86.3486 55.4905 89.8687 48.5328 93.1946 41.4567C96.087 35.3022 99.0304 29.1719 102.992 23.6006C110.751 12.6885 121.122 5.73436 134.22 2.81187C142.242 1.02186 150.362 1.32686 158.484 1.35973C161.54 1.37187 164.599 1.12403 167.656 1.00062C167.823 0.993537 167.993 1.04361 168.349 1.09318C167.979 1.44015 167.731 1.67282 167.681 1.71935C168.116 2.07291 168.558 2.43303 169 2.79265C168.621 3.24382 168.326 3.86292 167.842 4.1062C167.124 4.46684 166.283 4.67421 165.477 4.74705C163.262 4.94684 161.037 5.02119 158.818 5.18456C156.285 5.3717 153.756 5.616 151.222 5.80062C150.607 5.84563 149.974 5.68176 149.362 5.74144C146.433 6.02671 143.486 6.22599 140.588 6.70802C137.986 7.14148 135.459 8.02359 132.859 8.48032C130.878 8.82831 129.059 9.52631 127.248 10.3154C122.892 12.2146 118.74 14.3622 115.146 17.6246C110.104 22.2 106.091 27.5645 102.596 33.2982C100.514 36.7154 99.1741 40.5781 97.3748 44.1779C95.5164 47.895 93.5355 51.5524 91.5501 55.2042C90.5496 57.0443 89.5814 58.939 88.3092 60.5854C86.686 62.687 84.824 64.6145 82.9615 66.5158C81.7525 67.7484 80.4707 68.9755 79.0256 69.8971C75.6719 72.0376 71.9767 72.687 68.101 71.6082C66.9183 71.2794 66.0746 71.3892 65.1165 72.2293C58.0277 78.446 50.1194 83.4175 41.5182 87.2443C36.3865 89.528 31.238 91.838 25.9288 93.6401C19.0807 95.9643 11.9788 97.2601 4.68305 96.9561C3.50343 96.9071 2.30612 96.6779 1.17506 96.3375C0.704633 96.1959 0.386966 95.545 0 95.1262C0.424398 94.8424 0.825022 94.3745 1.27876 94.3159C2.05269 94.2157 2.86102 94.3629 3.65266 94.4251C4.18783 94.4671 4.72706 94.6305 5.25161 94.5875C10.9094 94.1201 16.4327 92.9305 21.8072 91.1506C35.8088 86.513 48.6368 79.709 59.9504 70.1692C60.3667 69.8182 60.7643 69.4439 61.3243 68.9431Z" fill="black"/>
</svg>
