<svg width="66" height="74" viewBox="0 0 66 74" fill="none" xmlns="http://www.w3.org/2000/svg">
<path fill-rule="evenodd" clip-rule="evenodd" d="M31.6005 3.58093C28.1405 4.04793 22.4875 7.64093 21.7075 9.84693C24.9835 7.77093 28.1095 5.79193 31.6005 3.58093ZM38.7935 7.19193C37.8575 7.68693 36.9145 8.13993 36.0175 8.66893C32.9025 10.5079 29.5475 12.0599 26.7725 14.3209C24.1685 16.4429 22.1755 19.3169 19.9335 21.8779C18.8605 23.1029 17.6165 24.2439 16.8245 25.6369C13.0085 32.3419 9.35548 39.2109 8.86147 47.0669C8.60548 51.1449 9.22648 55.3189 9.86048 59.3859C10.0385 60.5339 11.4715 61.9359 12.6525 62.4049C19.4645 65.1039 26.4965 65.7199 33.3205 62.6949C46.1095 57.0229 52.9575 46.4259 56.3605 33.3709C57.9665 27.2119 57.6575 21.2129 52.1455 16.7029C51.0935 15.8419 49.9565 15.0789 48.9395 14.1789C48.4355 13.7319 47.7145 13.0289 47.7765 12.5259C48.1745 9.31493 46.4945 8.17893 43.6535 8.04793C42.4825 7.99393 41.2995 8.05693 40.1445 7.90393C39.6075 7.83293 39.1215 7.37393 38.7935 7.19193ZM65.7225 32.6199C65.2825 39.5919 63.4815 46.1449 59.6705 52.0999C58.0325 54.6589 56.6445 57.3799 54.9505 59.8969C54.2235 60.9769 52.9475 61.6679 52.0215 62.6329C47.2715 67.5809 41.9235 71.5559 34.9895 72.7689C25.5205 74.4269 16.5975 73.1549 8.61147 67.4129C2.35747 62.9149 -0.166525 56.2319 0.00847529 49.1189C0.417475 32.5119 7.29247 18.6749 20.1195 7.99293C22.6625 5.87393 25.4565 3.94693 28.3925 2.42693C35.7385 -1.37907 42.9975 -0.547071 49.8465 3.79993C54.4575 6.72793 58.0455 10.6459 60.1705 15.7969C60.7545 17.2139 61.6025 18.5239 62.3575 19.8689C64.5765 23.8239 66.0105 27.9809 65.7225 32.6199Z" fill="black"/>
</svg>
