<svg width="111" height="71" viewBox="0 0 111 71" fill="none" xmlns="http://www.w3.org/2000/svg">
<path fill-rule="evenodd" clip-rule="evenodd" d="M92.4335 8.18074C92.4029 8.07031 92.3733 7.95937 92.3427 7.84894C90.075 8.47539 87.8078 9.10132 85.5395 9.72777C85.5762 9.85804 85.6125 9.98883 85.6482 10.1201C87.9103 9.47383 90.1719 8.82703 92.4335 8.18074ZM15.3001 61C14.1257 60.3166 12.7044 59.9313 13.0538 58.2321C13.2768 57.1518 13.4645 56.0144 13.9574 55.0495C15.4792 52.068 16.8904 48.9815 18.8086 46.262C21.3559 42.6514 24.9726 40.2775 29.5203 40.0994C33.8593 39.9289 38.2167 40.1553 42.5649 40.2658C48.5375 40.4169 54.5352 40.938 60.0899 37.8959C63.654 35.9438 66.6809 33.5708 68.5935 29.8249C70.7557 25.5889 73.0407 21.3926 75.6013 17.3881C79.1705 11.8066 84.2075 8.17005 90.9418 7.21945C91.6239 7.12327 92.4901 6.83523 92.9687 7.12785C93.7773 7.623 94.4518 8.44587 94.9538 9.27028C95.1293 9.5578 94.7742 10.4977 94.4079 10.7145C93.6243 11.1791 92.6524 11.314 91.8014 11.6839C91.1259 11.9771 90.5147 12.4183 89.877 12.7969C89.7592 12.8666 89.6398 13.0269 89.5357 13.0157C87.2639 12.7618 86.2364 14.749 84.6605 15.7261C81.0188 17.985 78.8394 21.4913 76.8645 25.1365C74.9993 28.5791 73.2244 32.0706 71.3235 35.4929C70.7817 36.4689 70.0588 37.417 69.2134 38.1406C66.7595 40.2434 64.2479 42.1105 61.1179 43.3965C55.0484 45.89 48.9523 45.1827 42.7613 44.8183C38.9274 44.5924 35.047 44.3817 31.237 44.7216C26.401 45.1526 23.0507 48.2019 20.3718 52.0761C19.6667 53.0954 18.5959 53.8618 17.8827 54.8765C17.4102 55.5493 17.3128 56.4739 16.9817 57.2581C16.4649 58.4856 15.893 59.6896 15.3001 61Z" fill="black"/>
<path fill-rule="evenodd" clip-rule="evenodd" d="M14.2538 29.9535C14.3216 30.0753 14.3899 30.1976 14.4571 30.3194C15.6065 29.686 16.7563 29.0525 17.9061 28.4191C17.8297 28.281 17.7532 28.1429 17.6768 28.0048C16.5361 28.6545 15.3944 29.3038 14.2538 29.9535ZM47.9832 29.9311C48.0133 30.0432 48.0434 30.1553 48.0734 30.2675C49.474 29.8883 50.8741 29.5097 52.2747 29.1305C52.2446 29.0199 52.2151 28.9098 52.1855 28.7993C50.7849 29.1769 49.3843 29.554 47.9832 29.9311ZM78.1082 0.947755C77.8503 1.16587 77.5924 1.3845 77.1938 1.72186H78.4716C79.3809 3.38881 78.806 4.60832 77.5613 5.68055C76.4767 6.61468 75.4727 7.67876 73.8672 7.6283C73.7015 7.62321 73.4253 7.69099 73.3794 7.80055C72.7693 9.25092 71.7005 9.19027 70.5461 8.66894C70.4794 9.35641 70.567 10.0561 70.3163 10.6004C70.0466 11.1864 69.4773 11.6441 69.0089 12.1287C66.299 14.9306 65.2419 18.5555 63.8831 22.0677C62.6334 25.2972 60.8913 28.2866 57.7925 30.1762C57.3873 30.4229 56.8608 30.4713 56.0912 30.7006C55.5917 31.5165 54.8552 32.5261 53.2701 32.6754C52.3481 32.7625 51.499 33.5682 50.5734 33.6778C48.025 33.979 45.4246 34.4015 42.8992 34.1737C40.5572 33.9622 38.226 33.1325 35.9956 32.2937C31.1445 30.4698 26.1848 30.191 21.2114 31.2806C18.4494 31.886 15.8888 33.2028 14.0091 35.5282C13.4403 36.232 12.6636 36.7635 12.0117 37.4041C8.83693 40.523 6.33646 44.1091 4.58266 48.2059C4.04189 49.4703 3.5266 50.7458 2.98788 52.0117C2.73355 52.607 2.44456 52.9025 1.73509 52.4245C-0.0110662 51.2478 -0.275079 50.4783 0.224405 48.3119C2.22897 39.6133 7.51075 33.2839 14.6865 28.3651C17.8659 26.1854 21.5952 25.7411 25.3133 25.8445C27.8214 25.9148 30.3433 26.3923 32.805 26.933C35.1006 27.4371 37.3126 28.3075 39.5822 28.9409C42.3406 29.7104 45.0939 29.1988 47.8303 28.7361C54.7329 27.5685 59.004 23.4707 61.1095 16.8844C63.4438 9.58115 68.1343 4.29746 75.0894 1.07312C75.9513 0.674092 76.9772 0.630775 77.9273 0.422852C77.9879 0.59765 78.0481 0.772448 78.1082 0.947755Z" fill="black"/>
<path fill-rule="evenodd" clip-rule="evenodd" d="M90.5431 31.7044C90.0086 32.2866 89.4655 32.8613 88.9432 33.4537C88.7189 33.7082 88.3093 34.167 88.3691 34.2474C89.1833 35.3412 88.3275 36.2538 87.7357 36.6716C86.2175 37.7446 86.7145 39.2678 86.5043 40.6216C86.3789 41.4264 85.3704 42.6881 84.6303 42.8267C84.5699 42.4594 84.5111 42.1008 84.4527 41.7421C84.1278 41.9009 83.7456 41.9981 83.4908 42.2323C83.0523 42.636 82.6924 43.1252 82.1823 43.713C82.7137 43.8167 83.0767 43.8875 83.4584 43.9614C83.532 44.4233 83.603 44.8679 83.6736 45.3075C82.2854 45.819 80.887 46.0648 79.8236 47.2532C79.2455 47.8997 78.445 48.2022 78.9024 49.2696C78.9414 49.3602 78.3887 49.8706 78.2988 49.8241C76.1351 48.703 74.959 50.7002 74.3007 51.7459C73.7576 52.6074 73.1241 53.0693 72.4247 53.3981C71.8882 53.65 71.0755 53.3066 70.3832 53.2499C70.2106 53.2357 70.0315 53.306 69.7645 53.3531C69.7959 53.7644 69.8244 54.1367 69.8513 54.4999C68.6118 55.0255 68.6118 55.0255 65.7983 54.247C65.5485 55.797 64.2867 56.3191 62.6533 55.4758C62.561 55.7844 62.4736 56.0778 62.4615 56.1182C60.7728 56.0813 59.0069 54.3876 57.5537 56.8695C56.2751 55.4631 54.9488 56.0666 53.4982 56.8027C52.818 57.1472 51.8983 57.0936 51.0867 57.0992C47.7722 57.1214 44.5131 57.342 41.289 58.3011C39.7094 58.7711 38.3709 59.7282 36.8812 60.1628C33.6637 61.1017 32.1876 63.9473 29.932 65.9086C28.8737 66.8288 28.3346 68.3353 27.5352 69.56C27.0474 70.3067 26.8378 71.4854 25.4221 70.7868C24.3263 70.2465 23.9131 69.555 24.4207 68.2281C26.7794 62.0639 30.5938 57.2752 36.8807 54.5794C41.6143 52.5508 46.5464 52.5245 51.5192 52.3899C54.7331 52.3029 57.9425 52.0768 61.156 51.9331C61.6529 51.9113 62.5 51.4611 62.2747 52.6352L62.2803 52.6125L61.659 52.8477C61.6539 52.9201 61.6493 52.9924 61.6443 53.0647C61.9554 53.0931 62.2737 53.175 62.5752 53.1356C62.93 53.0895 63.2741 52.8351 63.6167 52.8477C66.384 52.9484 68.7158 51.6124 71.0319 50.4493C73.4926 49.2135 75.7879 47.6386 78.1039 46.1336C78.8095 45.6758 79.3465 44.96 79.9607 44.362L79.92 44.3959C80.3743 44.0368 80.8276 43.6771 81.5681 43.0908C80.7317 43.0387 80.3068 43.0124 79.6348 42.9709C80.5444 41.866 81.3022 40.8163 82.1996 39.9022C82.7939 39.2961 83.2041 39.5607 83.6274 40.6372C84.305 40.5902 84.9577 40.5452 85.7399 40.4905C85.3643 39.9852 85.0476 39.5582 84.8237 39.2582C84.2299 39.2096 83.4939 39.3235 83.3731 39.1024C83.1503 38.6957 83.2046 38.0765 83.2969 37.5736C83.4274 36.8644 83.6467 36.1587 83.9279 35.4934C84.0969 35.0938 84.4552 34.7741 84.8638 34.2424C84.5974 33.1451 85.0592 32.0155 87.0144 29.5088C87.2814 29.6409 87.5631 29.7795 87.9113 29.9515C87.7367 28.2542 87.9103 27.9811 88.7448 28.0504V29.7891L88.7163 29.7501C89.0087 30.3471 89.3006 30.9435 89.6259 31.6098C89.7036 31.5885 89.9919 31.5086 90.2807 31.4282C90.368 31.5202 90.4558 31.6123 90.5431 31.7044Z" fill="black"/>
<path fill-rule="evenodd" clip-rule="evenodd" d="M91.05 30.6613C90.964 30.5703 90.8775 30.4793 90.7915 30.3883C90.9735 28.4573 90.893 28.3713 89.2505 28.7298L89.2785 28.7683C89.874 28.2018 90.4695 27.6348 91.1385 26.9973C90.717 26.7273 90.314 26.4693 89.698 26.0748C90.224 25.7688 90.6 25.5388 90.9885 25.3318C91.117 25.2633 91.3395 25.3058 91.4145 25.2128C94.349 21.5963 98.2415 19.4113 102.545 17.9303C104.536 17.2453 106.637 16.8808 108.692 16.3883C108.986 16.3178 109.304 16.3468 109.61 16.3298L109.739 16.7628C107.162 17.5198 104.584 18.2768 102.007 19.0338C102.04 19.1593 102.073 19.2848 102.106 19.4108C104.782 18.6718 107.457 17.9323 110.107 17.2003C111.038 19.2548 110.894 19.5073 108.979 20.3298C106.467 21.4098 103.996 22.5843 101.497 23.6963C101 23.9173 100.529 24.2673 99.9335 23.6563C99.691 23.4088 98.983 23.6158 98.3565 23.6158V22.6883C97.762 23.0648 97.2515 23.3878 96.4335 23.9058C97.1575 23.9923 97.5115 24.0343 97.852 24.0753C97.852 24.2113 97.8865 24.3183 97.8475 24.3678C97.4145 24.9153 96.7665 25.1823 96.822 26.2018C96.86 26.9003 95.937 26.8768 95.5255 26.2193C95.154 26.6313 94.7805 27.0458 94.222 27.6648C94.3215 28.9423 93.3995 29.6898 91.681 29.1828C91.745 29.5988 91.8975 29.9833 91.815 30.3073C91.7715 30.4793 91.3185 30.5468 91.05 30.6613Z" fill="black"/>
<path fill-rule="evenodd" clip-rule="evenodd" d="M74 47.4278C72.0934 48.2854 70.1858 49.1425 68.2787 50C68.1856 49.8714 68.0931 49.7428 68 49.6142C68.2614 49.445 68.5055 49.2507 68.7858 49.1101C70.1138 48.4445 71.4413 47.7775 72.7943 47.1503C73.0854 47.0157 73.4799 47.0458 73.8274 47C73.8847 47.1425 73.9426 47.2854 74 47.4278Z" fill="black"/>
<path fill-rule="evenodd" clip-rule="evenodd" d="M62 52C62.9157 50.2081 64.5931 50.542 66 50C65.9333 50.9677 64.7375 51.5253 62.0101 51.9661C62.0058 51.975 62 52 62 52Z" fill="black"/>
<path fill-rule="evenodd" clip-rule="evenodd" d="M80 43.8958C79.4723 43.9739 78.9099 43.9793 78.4273 44.1507C77.9537 44.3189 77.5613 44.6559 77 45C77.1311 43.9645 78.3455 42.8572 79.1308 43.0151C79.4702 43.0829 79.6842 43.6087 79.9565 43.9264C79.958 43.9259 80 43.8958 80 43.8958Z" fill="black"/>
</svg>
