<svg width="55" height="67" viewBox="0 0 55 67" fill="none" xmlns="http://www.w3.org/2000/svg">
<path fill-rule="evenodd" clip-rule="evenodd" d="M30.0113 20.3779C31.7407 20.4971 34.2931 18.9928 35.4301 17.2169C33.5893 18.2907 31.8588 19.3003 30.0113 20.3779ZM40.2603 23.9786C38.6742 24.7814 37.3412 25.5423 35.9391 26.1485C31.732 27.9685 27.5034 29.0194 23.2623 26.1834C22.4415 25.6342 22.1116 26.24 21.8722 26.911C20.7291 30.1139 19.4626 33.2798 18.4656 36.5262C16.6588 42.4079 14.998 48.3337 13.312 54.2507C13.0232 55.2646 12.909 56.3275 12.6526 57.6936C13.8582 57.3322 14.7888 57.0514 15.7205 56.7738C21.4473 55.0654 27.1817 53.3794 32.8909 51.6165C33.4191 51.4533 34.1476 50.8312 34.1861 50.3735C34.712 44.0298 36.3228 37.9108 37.9825 31.8016C38.677 29.2453 39.4615 26.7129 40.2603 23.9786ZM39.114 60.3577C37.8782 59.5103 37.0645 58.6537 36.0741 58.3331C33.553 57.5184 33.5393 57.6669 30.5373 58.6613C22.4097 61.3537 14.2672 64.0025 6.12591 66.6541C4.94058 67.0399 3.78765 67.311 2.67151 66.2883C2.13073 65.7931 1.30226 65.6064 0.43482 65.2004C1.00305 64.6861 1.44995 64.2817 2.18947 63.6123C1.29842 63.7935 0.79662 63.8958 0 64.0586C0.203135 63.5595 0.268468 63.148 0.503447 62.8852C0.79113 62.5624 1.18917 62.2228 1.59379 62.1347C3.71463 61.671 4.15769 60.0915 4.66443 58.2765C7.9695 46.425 11.3816 34.6029 14.7729 22.7753C15.2906 20.97 15.8879 19.1876 16.4309 17.3894C16.7653 16.2803 17.4356 15.5804 18.6489 15.527C18.935 15.5145 19.3209 15.5036 19.4999 15.6664C20.7967 16.8485 22.0029 18.1334 23.3507 19.2524C23.7767 19.6056 24.5992 19.7738 25.1509 19.6475C30.8041 18.3522 35.1337 15.0601 38.5672 10.5548C40.3982 8.15141 42.0424 5.60869 43.8064 3.15414C44.8056 1.76304 45.9899 0.570055 47.7588 0.156972C49.0665 -0.14835 50.1541 -0.12658 50.909 1.31948C51.3329 2.13095 52.2607 2.66812 52.8773 3.3985C55.6816 6.72004 55.2638 10.4427 54.1449 14.2159C53.2819 17.1271 52.3228 20.0111 51.4504 22.9195C49.4245 29.6753 47.4118 36.4353 45.4255 43.2025C44.9248 44.9082 44.5026 46.6389 44.1254 48.375C44.0057 48.9247 43.9904 49.599 44.2061 50.097C44.7573 51.3678 44.0776 52.2348 43.4792 53.2128C42.7754 54.3634 42.1341 55.5596 41.5697 56.7836C40.9071 58.221 40.7605 60.0148 39.114 60.3577Z" fill="black"/>
</svg>
