<svg width="42" height="63" viewBox="0 0 42 63" fill="none" xmlns="http://www.w3.org/2000/svg">
<path fill-rule="evenodd" clip-rule="evenodd" d="M16.3565 13.5077C16.343 13.4099 16.3295 13.3127 16.316 13.2148C13.8501 13.4956 11.3848 13.7764 8.91889 14.0571C8.93595 14.1797 8.95301 14.3016 8.96948 14.4236C11.4318 14.1181 13.8942 13.8132 16.3565 13.5077ZM2.91242 31.5671C1.38831 30.8336 0.725952 29.8881 0.413599 28.5996C-1.31522 21.4437 2.31125 12.6298 12.3877 12.3339C17.1707 12.1933 20.9701 10.4677 23.243 5.86149C24.0348 4.25787 25.0318 2.73334 26.1236 1.32654C26.6207 0.685941 27.5565 0.154017 28.3295 0.0984694C28.6983 0.0719033 29.4277 1.23598 29.506 1.92005C29.6354 3.05636 29.7018 4.41907 29.213 5.37122C27.773 8.17575 26.223 10.9604 24.3818 13.4962C22.6771 15.8443 20.2071 16.9691 17.306 17.6743C14.3971 18.3807 11.4389 17.7915 8.54595 18.8372C5.85419 19.8099 2.72125 24.5761 2.90007 27.5967C2.97242 28.8182 2.91242 30.0481 2.91242 31.5671Z" fill="black"/>
<path fill-rule="evenodd" clip-rule="evenodd" d="M10.2547 39.9792C10.1809 39.008 9.85477 37.9767 10.0755 37.0746C11.1424 32.7082 17.2387 29.373 21.33 31.3138C26.9023 33.9567 30.976 31.9 34.9409 28.2639C36.2836 27.0327 37.8453 25.9928 39.4374 25.0884C39.8865 24.833 41.2193 25.1726 41.409 25.5761C41.823 26.4534 42.2575 28.0311 41.813 28.4732C39.1868 31.0832 36.5512 33.8121 33.4541 35.8002C30.1123 37.9462 26.2453 38.6794 22.3261 36.6429C20.5829 35.7373 18.8268 34.8098 16.6526 35.3609C14.3074 35.9552 12.5964 37.228 11.4153 39.2674C11.266 39.5262 11.0651 39.7562 10.8883 40C10.6769 39.9931 10.4655 39.9862 10.2547 39.9792Z" fill="black"/>
<path fill-rule="evenodd" clip-rule="evenodd" d="M36.8496 58.6863C36.8314 58.5676 36.8133 58.4489 36.7945 58.3308H25.4727C25.4709 58.4489 25.4698 58.5676 25.468 58.6863H36.8496ZM10 53.8052C10.0516 52.6572 10.0879 51.8493 10.1242 51.0415C11.3768 52.9395 12.6042 51.232 13.7214 51.1613H11.9164C11.491 50.3388 13.9136 50.6913 12.1085 49.4871C14.3893 49.1002 16.4556 48.3718 18.1084 50.1015C18.8255 50.8527 20.3112 51.2911 20.2269 53.1254C20.2907 53.1733 20.8766 53.4107 21.1484 53.8438C23.3355 57.3359 26.747 57.6189 30.3535 57.4511C32.3168 57.3593 34.3005 57.0729 36.2368 57.2635C37.7085 57.4084 39.1702 58.0555 40.5423 58.6839C41.8599 59.2878 41.9695 60.7263 41.9999 61.9381C42.0087 62.297 40.8856 63.0377 40.3238 62.9985C36.6627 62.7454 33.0134 62.3257 29.3318 62.0796C30.145 62.0252 30.957 61.9714 31.7702 61.9171C31.7795 61.8306 31.7877 61.7435 31.7971 61.6575C31.4274 61.6008 31.0384 61.5997 30.6933 61.4763C30.0758 61.2565 29.4613 61.0081 28.8912 60.6895C28.2632 60.3388 27.6873 59.8951 26.9514 59.794C27.225 60.347 27.498 60.9005 27.6463 61.1998C26.9016 61.4109 26.4898 61.5891 26.0662 61.6289C25.6449 61.6681 25.0849 61.7248 24.8036 61.5009C23.5546 60.5071 22.053 59.9536 21.2111 58.2812C20.1607 56.1925 18.4816 54.4155 17.0398 52.5297C16.8394 52.2673 16.434 51.9797 16.1399 51.9966C14.5199 52.0896 12.8953 52.2164 11.2942 52.4678C10.9251 52.5256 10.6404 53.119 10 53.8052Z" fill="black"/>
</svg>
