<svg width="127" height="62" viewBox="0 0 127 62" fill="none" xmlns="http://www.w3.org/2000/svg">
<path fill-rule="evenodd" clip-rule="evenodd" d="M72.2559 41.4839C73.1899 41.4069 74.8455 40.0628 75.0902 39.234C75.1337 39.0853 75.1818 38.9113 75.0087 38.8612C74.8894 38.8273 74.6379 38.8852 74.6102 38.9619C74.1898 40.12 73.0304 40.5959 72.2559 41.4839ZM114.778 23.1431C116.059 23.0222 117.084 22.4419 117.955 21.5894C118.185 21.3645 118.815 21.1475 118.376 20.7573C117.969 20.3961 117.973 21.116 117.718 21.261C117.588 21.3351 117.449 21.4022 117.339 21.5004C116.571 22.1896 115.507 22.4108 114.778 23.1431ZM86.3213 17.0005C85.4937 16.9529 82.5504 18.5948 82.3433 19.1776C82.3102 19.2695 82.3019 19.424 82.3558 19.4828C82.5513 19.6974 82.7832 19.5839 82.9605 19.4563C84.0689 18.6581 85.1669 17.8463 86.3213 17.0005ZM38.1866 35.5571C37.5644 35.589 37.3586 35.8081 37.1511 36.0273C35.3195 37.9657 33.6229 39.9961 32.2076 42.2796C30.2969 45.3642 28.59 48.5759 26.468 51.5329C26.1147 52.0262 25.4184 52.3402 25.3815 53.27C26.4315 52.3721 27.185 51.4608 27.7972 50.4307C29.1789 48.107 30.5239 45.7614 31.9404 43.4597C33.6747 40.6415 35.7469 38.0759 38.1866 35.5571ZM1.47468 44.6161C2.3909 43.7749 2.92397 43.8594 3.3125 45.044C3.94747 46.9833 4.36664 48.9822 4.25936 51.0363C4.23161 51.5656 4.65119 51.7102 4.81232 52.0622C5.16812 52.8397 5.35285 53.6706 5.68711 54.4571C6.78847 57.0467 9.0351 57.5827 11.418 58.0035C16.4079 58.885 20.093 56.5874 23.424 53.2311C25.8811 50.7554 27.443 47.7144 29.1429 44.7516C31.0155 41.4868 33.1122 38.3836 35.6827 35.6263C40.0256 30.9678 46.3915 30.1439 52.153 33.383C55.1133 35.0473 57.6466 37.2429 59.8464 39.7584C62.1949 42.4432 64.9962 42.797 68.1192 41.9106C72.3151 40.7197 74.686 37.682 76.0702 33.6974C77.1314 30.6422 77.7088 27.4641 78.5339 24.3501C80.3237 17.5978 84.1269 15.207 90.6712 14.0899C93.0695 13.6807 94.8323 14.7191 96.4191 16.2752C97.8419 17.6703 99.215 19.1171 100.609 20.5415C100.926 20.8646 101.228 21.2067 101.701 21.3049C105.393 22.0699 109.097 22.765 112.881 22.0534C116.777 21.3206 120.755 17.5758 121.093 12.7881C121.345 9.2243 121.655 5.66424 121.931 2.10211C121.972 1.57359 122.025 1.03803 122.311 0.594005C122.585 0.167378 122.998 -0.0517346 123.563 0.0103956C124.101 0.0696264 124.16 0.35294 124.091 0.784538C124.065 0.943177 124.135 1.09892 124.299 1.13951C126.124 1.59637 126.273 3.19643 126.452 4.59146C126.85 7.7046 126.359 10.8231 126.216 13.9375C126.149 15.3942 126.055 16.8481 125.765 18.2941C125.121 21.507 123.39 23.9276 120.534 25.7737C120.869 24.9859 121.706 24.838 121.951 24.15C120.706 24.9648 119.484 25.8023 118.159 26.4969C118.405 26.8051 118.677 26.2794 118.959 26.7222C117.758 27.2097 116.64 27.8745 115.286 27.4732C115.061 27.4069 115.013 27.491 114.851 27.5705C113.791 28.0866 112.631 27.9151 111.507 27.9549C111.042 27.9715 110.816 27.6273 110.874 27.0486C110.353 27.9723 109.63 27.8634 108.839 27.7196C107.623 27.498 106.386 27.3932 105.166 27.189C102.429 26.7305 100.192 25.3139 98.2354 23.4248C97.1527 22.3797 96.1238 21.2767 95.104 20.1696C94.6476 19.6734 94.1394 19.5408 93.4895 19.598C88.9018 20.0014 86.0711 22.2277 84.6272 26.5822C83.7499 29.2298 83.2939 31.983 82.5778 34.6703C81.7469 37.7864 80.6662 40.7802 78.2738 43.0906C77.3356 43.9969 76.1788 44.5842 75.0766 45.2656C73.433 46.2816 71.7936 46.8176 69.9417 46.9315C64.5712 47.2621 59.9794 45.6458 56.3108 41.5817C55.0317 40.1651 53.5866 38.8981 52.2156 37.5648C49.8285 35.2423 46.1488 35.4847 43.647 36.9393C40.7915 38.6003 38.8572 41.1592 37.062 43.806C35.0573 46.7609 33.3574 49.9283 31.2723 52.821C28.7855 56.2713 25.6321 59.0945 21.5829 60.5886C19.5554 61.3366 17.3966 61.7193 15.121 61.3958C13.8527 61.2161 12.5351 61.1887 11.2391 61.0268C9.30267 60.7845 7.47397 60.1818 5.78445 59.2963C2.63693 57.6473 0.734921 55.0093 0.178235 51.4563C-0.108392 49.6255 -0.0114694 47.8005 0.203087 45.9718C0.270602 45.3981 0.471489 44.8742 0.704684 44.3672C0.808649 44.1406 0.942436 43.719 1.33883 43.8942C1.67433 44.0425 1.08326 44.3618 1.47468 44.6161Z" fill="black"/>
</svg>
