<svg width="94" height="111" viewBox="0 0 94 111" fill="none" xmlns="http://www.w3.org/2000/svg">
<path fill-rule="evenodd" clip-rule="evenodd" d="M66.5157 35.3868C66.6255 35.4974 66.7358 35.608 66.8456 35.7186C67.7405 34.806 68.635 33.8938 69.5291 32.9811C69.4524 32.9036 69.3753 32.8261 69.2981 32.7486C68.3705 33.6281 67.4428 34.5077 66.5157 35.3868ZM75.3462 26.7768C75.4181 26.8916 75.49 27.007 75.5615 27.1213C76.9634 26.0163 78.3647 24.9113 79.7666 23.8058C79.6833 23.698 79.6005 23.5893 79.5181 23.4816C78.1272 24.58 76.7371 25.6784 75.3462 26.7768ZM83.3157 43.6391C82.9896 44.1689 82.0611 43.7171 81.9167 44.6472C81.7904 45.462 81.4013 46.2367 81.1173 47.061C82.6347 46.4645 82.8126 44.9516 83.3157 43.6391ZM82.8803 51.4201C82.5793 50.8388 82.4577 50.6024 82.3772 50.4469C81.461 50.5802 82.6749 52.4746 81.2423 52.0412C80.655 52.7506 80.1945 53.4421 79.6029 53.9931C78.3098 55.1974 76.9851 56.3748 75.5989 57.4694C75.0556 57.8985 74.3087 58.0663 73.6637 58.3731C73.4346 58.4818 73.1288 58.6009 73.0356 58.7985C71.7644 61.5142 69.4373 63.1462 67.0789 64.7986C64.6311 66.5133 62.4086 68.5768 59.8637 70.1186C57.7165 71.4193 55.4438 72.8774 52.6003 71.3394C51.1648 70.5633 50.4336 68.5126 51.5259 67.2738C51.888 66.8635 52.1866 66.3644 52.3944 65.8573C54.2965 61.2169 56.2119 56.5818 58.044 51.914C59.6351 47.8597 61.0417 43.7312 62.6859 39.6996C63.7489 37.0945 65.6065 34.9941 67.6956 33.121C68.9753 31.973 70.2811 30.8542 71.7667 29.9236C71.4847 30.3688 71.2021 30.8141 70.9205 31.2598C70.9858 31.3307 71.0521 31.402 71.1179 31.4734C71.9717 30.6794 72.8255 29.8849 73.6797 29.0908C73.6225 28.9935 73.5657 28.8966 73.5079 28.7992C73.1284 28.9216 72.7488 29.044 72.3688 29.1669C72.3034 29.0993 72.2386 29.0322 72.1738 28.9646C72.5723 28.5232 72.913 28.0052 73.3783 27.6512C77.8053 24.2841 82.2518 20.943 86.6964 17.5991C87.2833 17.1577 87.9307 16.7876 88.475 16.3013C89.4977 15.3881 91.5418 14.6475 92.2347 15.1773C93.3834 16.056 94.2447 17.1955 93.9371 18.7717C93.5883 20.5649 93.3375 22.4115 92.7 24.1059C91.7283 26.6865 91.4008 29.4377 90.3752 31.9876C90.2105 32.3965 89.8749 32.7368 89.7093 33.1456C89.546 33.5464 89.4717 33.9907 89.4054 34.4231C89.2682 35.3244 89.2294 36.2466 89.0263 37.1313C88.7698 38.2477 88.4409 39.3541 88.0519 40.4313C87.2397 42.6768 86.3807 44.9057 85.5009 47.1257C85.4081 47.3606 85.0394 47.4778 84.8217 47.6749C84.613 47.863 84.2311 48.1537 84.2737 48.2804C84.7824 49.7749 82.8912 49.9275 82.8803 51.4201Z" fill="black"/>
<path fill-rule="evenodd" clip-rule="evenodd" d="M49.8649 37.1094C49.6938 37.0168 49.5221 36.9238 49.3514 36.8312C48.5545 38.4382 47.7576 40.0456 46.9607 41.6535C47.0839 41.7175 47.2071 41.7824 47.3304 41.8473C48.1752 40.268 49.0201 38.6887 49.8649 37.1094ZM30.4278 62C29.5729 59.6466 30.0553 55.9473 31.3768 54.9985C30.9927 54.9784 30.6551 54.9608 30.2878 54.9417C30.248 54.8138 30.1799 54.7002 30.1828 54.589C30.2917 50.5704 30.3631 46.5498 30.5348 42.5336C30.6748 39.2567 30.9294 35.9845 31.1428 32.7104C31.4707 27.6829 33.7004 23.4715 36.782 19.6099C41.1492 14.138 45.4963 8.65319 50.624 3.84088C51.7618 2.77323 52.7759 1.57576 53.8816 0.472314C54.47 -0.115204 54.9614 -0.208749 55.7262 0.501905C56.9844 1.67217 57.1 3.05339 56.9475 4.53626C56.3611 10.2549 55.7061 15.9664 55.1283 21.686C54.7778 25.1562 54.5659 28.6408 54.1971 32.1091C54.0955 33.0627 53.6035 33.9695 53.3844 34.9188C53.1566 35.9029 53.0977 36.9247 52.8699 37.9089C51.8112 42.473 49.1174 46.0888 46.0362 49.4769C43.5553 52.2045 41.1325 54.9856 38.6017 57.6659C37.2884 59.0572 35.8993 60.4284 34.3381 61.5146C33.6323 62.0057 32.4225 61.7776 31.4415 61.8783C31.136 61.9103 30.8321 61.9513 30.4278 62Z" fill="black"/>
<path fill-rule="evenodd" clip-rule="evenodd" d="M91 69.0978C90.676 71.0236 90.2177 73.3978 89.8895 75.7902C89.4905 78.6972 89.1085 81.6128 88.9006 84.5375C88.7817 86.2033 88.1659 87.5605 87.1114 88.7254C85.1318 90.9121 82.9423 92.9176 81.0928 95.2074C79.0287 97.7638 76.3478 99.5112 73.8645 101.527C71.1601 103.723 68.4684 105.936 65.7333 108.093C64.7581 108.862 63.6697 109.485 62.6388 110.184C60.8365 111.406 58.8776 110.989 56.9734 110.633C56.5749 110.558 56.068 109.808 56.0246 109.331C55.9453 108.446 56.0642 107.507 56.2877 106.639C57.7963 100.774 59.3925 94.9326 60.8794 89.0632C61.6414 86.0545 62.9576 83.3865 65.0636 81.1296C68.8522 77.0691 72.579 72.9461 76.4747 68.9929C79.048 66.3821 82.1312 64.3924 85.3044 62.5735C87.7886 61.1495 90.4596 62.4876 90.7963 65.3698C90.9217 66.4393 90.9189 67.5241 91 69.0978Z" fill="black"/>
<path fill-rule="evenodd" clip-rule="evenodd" d="M41.1129 83.0011C40.9448 82.9088 40.7757 82.8155 40.607 82.7231C40.1911 83.4276 39.7752 84.1321 39.3588 84.8361C39.4959 84.9165 39.6325 84.997 39.7691 85.0774C40.2175 84.3853 40.665 83.6932 41.1129 83.0011ZM37.4327 88.6935C37.5086 88.7497 37.5849 88.8063 37.6612 88.863C38.6927 87.7601 39.7253 86.6572 40.7568 85.5534C40.6848 85.4853 40.6122 85.4168 40.5397 85.3482C39.5039 86.463 38.4681 87.5783 37.4327 88.6935ZM27.1787 78.2312C27.3139 78.3659 27.4487 78.5001 27.5834 78.6344C28.4581 77.5781 29.3328 76.5229 30.2075 75.4671C30.2603 75.5233 30.313 75.579 30.3658 75.6351C29.3036 76.501 28.2414 77.3658 27.1787 78.2312ZM24.0426 82.7636C25.0732 80.9472 25.8613 78.9209 27.183 77.3549C30.28 73.6859 33.5749 70.1798 36.9033 66.7203C39.062 64.4769 41.4097 62.4187 43.706 60.3143C43.9552 60.0849 44.4813 59.9293 44.7799 60.0326C45.7757 60.3762 47.0108 60.7051 46.9999 62.0274C46.9806 64.3703 46.7785 66.7126 46.6137 69.0521C46.4535 71.3198 46.251 73.5846 46.0531 75.8493C45.7324 79.5292 45.1761 83.191 43.3362 86.4249C42.4558 87.9729 41.0314 89.2157 39.8039 90.5494C38.5076 91.9588 37.192 93.3545 35.8105 94.6768C34.7252 95.7154 33.5231 96.6279 32.3813 97.6065C31.476 98.3824 30.5132 99.1073 29.6993 99.9727C27.4835 102.327 25.0539 104.382 22.1858 105.877C21.5767 106.194 18.8381 105.854 18.4425 105.365C17.7232 104.477 18.0326 103.543 18.3139 102.549C19.0765 99.8537 19.7256 97.1253 20.4378 94.4145C21.3374 90.9945 22.2348 87.5735 23.1853 84.1687C23.3285 83.6556 23.7576 83.2244 24.0605 82.7503C24.2202 82.9607 24.3737 83.1758 24.581 83.4671C25.4364 82.0134 26.2541 80.624 27.0718 79.2341C26.9517 79.1599 26.8311 79.0856 26.7105 79.0114C26.4152 79.4536 26.1321 79.9038 25.8226 80.3351C25.2376 81.1505 24.6366 81.9549 24.0426 82.7636Z" fill="black"/>
<path fill-rule="evenodd" clip-rule="evenodd" d="M14.763 60.5861C14.654 60.5425 14.5449 60.4989 14.4359 60.4558C13.8949 61.8019 13.354 63.1485 12.8131 64.4946C12.9164 64.5335 13.0192 64.5718 13.122 64.6107C13.6692 63.2693 14.2158 61.928 14.763 60.5861ZM10.2891 54.9601C10.182 54.8786 10.0739 54.7975 9.96675 54.716C8.85608 56.0375 7.74589 57.3585 6.63522 58.6804L6.91961 58.905C8.04325 57.5902 9.16642 56.2749 10.2891 54.9601ZM0 81.985C0.563984 77.8623 1.06504 74.2429 1.55264 70.622C1.7472 69.1749 1.96866 67.7279 2.07819 66.2738C2.36546 62.4454 4.68385 59.7333 7.10168 57.0278C8.84839 55.0733 10.4049 52.9539 12.1305 50.9795C14.2168 48.592 16.3416 46.2319 18.5591 43.9638C19.2437 43.2635 20.1651 42.6845 21.3891 43.1934C22.8212 43.7894 23.9237 44.5916 23.9472 46.2333C23.9895 49.2245 24.0596 52.2224 23.903 55.206C23.8242 56.7046 23.1757 58.1654 22.9619 59.6679C22.7501 61.1599 22.8183 62.6894 22.6535 64.1909C22.5353 65.2698 22.4133 66.4069 21.9747 67.3782C21.4367 68.5689 20.6863 69.716 19.8139 70.6973C18.3785 72.3121 16.7744 73.7823 15.2357 75.3066C13.072 77.4511 10.9986 79.6841 8.31516 81.2572C7.43892 81.7708 6.76925 82.6152 5.94873 83.2359C4.46047 84.3612 2.7493 84.0366 1.19138 83.5708C0.590405 83.3908 0.254609 82.3479 0 81.985Z" fill="black"/>
</svg>
