<svg width="51" height="77" viewBox="0 0 51 77" fill="none" xmlns="http://www.w3.org/2000/svg">
<path fill-rule="evenodd" clip-rule="evenodd" d="M3.614 54.4437C3.49089 54.8044 3.36983 55.0911 3.30112 55.3898C3.26398 55.5502 3.00783 55.9916 3.4134 55.8293C3.8026 55.6736 3.564 55.0268 3.74997 54.6327C3.75962 54.6119 3.69704 54.5566 3.614 54.4437ZM2.08205 62.0949L2.24814 60.4823C2.19609 61.0317 1.57647 61.5033 2.08205 62.0949ZM2.98122 57.854C2.91192 57.8353 2.84232 57.8163 2.77331 57.7976C2.61512 58.4444 2.45721 59.0909 2.29931 59.7375C2.69114 59.1521 2.87098 58.5126 2.98122 57.854ZM30.5285 1.17079C29.6253 1.186 29.0238 1.73805 28.517 2.43374L30.5285 1.17079ZM24.3157 39.505C23.0858 41.3578 21.8126 43.1786 20.3684 44.874C22.1091 43.396 23.3317 41.538 24.3157 39.505ZM13.3101 65.4461C15.7766 61.8802 17.7352 58.0527 19.387 54.0646C17.3317 57.8447 15.3386 61.6575 13.3101 65.4461ZM20.9275 47.94C20.6813 48.0043 20.5804 48.0187 20.4894 48.0564C17.863 49.1409 15.2903 48.2267 13.902 45.7116C13.5265 45.032 13.273 44.3058 13.1025 43.5508C12.4373 40.6047 12.558 37.6391 12.8566 34.6641C12.9651 33.5864 13.2756 32.5221 13.1376 31.4171C12.17 34.0629 11.1945 36.6974 10.4091 39.3877C9.82923 41.3742 9.15493 43.3334 8.61133 45.335C8.23646 46.7162 7.92212 48.1453 7.38115 49.5037C6.87908 50.7634 6.66152 52.1346 6.29133 53.4493C5.70446 55.5341 5.28134 57.6568 4.78599 59.7629C4.30117 61.8234 4.11987 63.9415 3.65377 65.9979C3.19292 68.0308 3.58446 70.1217 3.05578 72.1315C3.03853 72.198 3.05403 72.3299 3.08853 72.3439C3.82658 72.6368 3.73301 73.393 3.87015 73.9395C4.06548 74.7177 4.35117 74.656 4.86055 74.2985C6.89195 72.8708 8.35898 70.904 9.74297 68.9135C12.2601 65.2931 14.4339 61.4565 16.4059 57.5091C17.9595 54.4001 19.5008 51.2859 20.9275 47.94ZM15.8962 38.7514C15.8102 40.7823 15.9687 42.7872 16.5381 44.7432C16.9372 46.1135 17.1703 46.1884 18.3709 45.3763C19.3031 44.7458 20.0926 43.9513 20.7813 43.0701C25.3306 37.2527 28.4296 30.7261 30.2437 23.579C30.3274 23.2498 30.3236 22.8938 30.3271 22.5498C30.3625 19.3249 30.821 16.1516 31.5877 13.0289C32.05 11.1463 32.6275 9.29765 32.3813 7.3191C32.2634 6.37123 32.2087 5.41545 32.1026 4.46582C31.9736 3.31755 31.7321 3.22715 30.7727 3.93893C30.6876 4.00242 30.5967 4.0621 30.5253 4.13875C29.4671 5.27854 28.3302 6.35777 27.3793 7.58123C26.5017 8.71049 25.7458 9.95355 24.9484 11.1381C23.9063 12.6869 23.2293 14.401 22.2825 15.9819C21.379 17.4909 20.8011 19.212 20.1274 20.862C17.7799 26.6087 16.1626 32.5174 15.8962 38.7514ZM18.3247 63.2168C17.8101 63.9435 17.2878 64.6518 16.9989 65.5257C16.8714 65.9118 16.448 66.2044 16.1451 66.5265C15.9839 66.6979 15.886 66.932 15.7345 67.0788C14.8251 67.9635 14.6564 69.2461 13.9701 70.2531C13.1458 71.4622 12.0831 72.449 11.0714 73.4741C10.6895 73.8608 10.3831 74.3169 9.93421 74.6645C8.36629 75.8777 6.69106 76.7694 4.68072 76.9824C2.9204 77.1687 0.738119 75.8692 0.287804 73.429C-0.222457 70.6635 -0.000515461 67.9123 0.534015 65.2033C3.61809 49.5712 8.42477 34.4643 14.6084 19.7948C16.26 15.876 18.2045 12.0892 20.7079 8.62331C21.0178 8.19442 21.3661 7.78924 21.729 7.40365C21.9541 7.16493 21.9456 7.33139 22.36 7.43671C22.7258 7.53003 23.2337 7.51073 23.5565 7.01982C24.5069 5.57548 25.5897 4.22915 26.7561 2.95127C27.4913 2.14528 28.2445 1.35626 29.1583 0.74746C30.8531 -0.381799 31.8979 -0.25015 33.2723 1.26967C33.9591 2.02943 34.4451 2.91178 34.7372 3.89417C34.839 4.23646 34.939 4.38274 35.3835 4.48279C35.8627 4.59016 36.4133 4.85433 36.8239 5.2721C37.2991 5.75511 37.4444 6.27966 37.3397 6.93615C37.0485 8.76139 36.7063 10.5963 36.5101 12.4145C36.1873 15.4059 35.4519 18.3013 34.9612 21.2491C34.6422 23.1647 34.0501 25.0175 33.5176 26.8816C33.2003 27.9916 33.2354 29.0667 33.5851 30.1708C34.3466 32.575 35.5396 34.6963 37.4035 36.4247C39.5989 38.4606 42.197 39.2508 45.155 39.0952C46.7882 39.0092 48.1871 38.3334 49.5787 37.5897C49.7538 37.4961 50.9507 37.8881 50.9901 38.0724C51.0425 38.3173 50.8787 38.4425 50.6866 38.5694C48.3973 40.0846 45.9407 40.7908 43.169 40.3452C38.2895 39.5606 35.0004 36.6769 32.6219 32.5358C32.5085 32.3386 32.4719 32.0072 32.1912 32.02C31.7865 32.0385 31.9795 32.4369 31.8929 32.6566C31.321 34.1045 30.8277 35.5871 30.3338 37.0566C29.2665 40.2309 27.9954 43.3208 26.7886 46.438C26.2231 47.8987 25.5879 49.3331 24.9604 50.769C24.8557 51.0086 24.8549 51.3678 24.4771 51.4202C23.8823 51.8584 23.9817 52.7007 23.4557 53.1793C22.7939 54.5376 21.9012 55.7871 21.5254 57.2803L21.5483 57.2464C20.9476 58.0933 20.435 58.9877 20.0929 59.9727C19.4745 60.6172 19.1049 61.3933 18.8876 62.2499C18.7002 62.572 18.5124 62.8944 18.3247 63.2168Z" fill="black"/>
</svg>
