<svg width="224" height="127" viewBox="0 0 224 127" fill="none" xmlns="http://www.w3.org/2000/svg">
<path fill-rule="evenodd" clip-rule="evenodd" d="M57.025 4.2611C56.048 4.16603 55.1367 4.36828 54.2758 4.82974C55.184 4.61224 56.1708 4.79521 57.025 4.2611ZM191.122 8.47211H195.847V8.37031H191.122V8.47211ZM132.062 8.98784C132.062 8.93941 132.063 8.89008 132.063 8.84164H125.501C125.5 8.89008 125.499 8.93941 125.498 8.98784H132.062ZM161.699 11.3221C161.699 11.3422 161.7 11.3624 161.7 11.3826H168.803L168.801 11.3221H161.699ZM51.3016 100.373C50.3867 100.191 49.5236 100.075 48.7284 99.5053C48.1506 99.0905 47.3799 99.3309 46.6994 100.21C48.4203 99.5941 49.7294 101.329 51.3016 100.373ZM184.256 10.2211C188.218 9.69864 192.183 9.33629 196.181 9.465C193.727 9.00981 186.595 9.44527 184.256 10.2211ZM189.611 4.40685C193.413 4.18262 197.12 4.88625 200.838 5.46207C197.184 4.07275 193.424 3.86063 189.611 4.40685ZM175.435 11.5306C168.971 12.354 162.499 12.567 156.012 11.836C162.502 12.7535 168.98 12.9379 175.435 11.5306ZM11.9689 24.1192C14.0956 22.2362 16.3144 20.4805 18.6456 18.8682C20.9527 17.2726 23.2906 15.7246 25.6603 14.2316C20.6571 16.9179 15.8116 19.8306 11.9689 24.1192ZM167.473 7.08683C167.319 7.07652 167.165 7.05992 167.011 7.05813C161.611 6.99714 156.238 6.62895 150.907 5.72352C145.146 4.74499 139.356 4.02745 133.507 3.83686C127.065 3.62609 120.625 3.32203 114.182 3.15296C110.362 3.05341 106.539 3.13458 103.077 3.13458C109.749 3.61577 116.806 3.54626 123.847 3.90099C130.083 4.21536 136.336 4.21805 142.538 5.06115C147.676 5.75984 152.809 6.50384 157.95 7.18101C161.116 7.59717 164.296 7.56085 167.473 7.08683ZM219.046 44.1962C219.046 39.9574 219.212 35.7096 218.994 31.482C218.816 28.0468 218.463 24.5408 216.358 21.5949C211.451 14.7263 204.626 11.0682 196.408 10.0327C191.497 9.41387 186.628 10.3216 181.786 11.1346C176.905 11.9544 172.015 12.7244 167.065 12.932C161.777 13.1536 156.524 12.6289 151.339 11.6369C139.925 9.45244 128.335 9.45424 116.806 8.85958C107.662 8.38825 98.5103 8.06761 89.3983 7.16127C82.251 6.45002 70.5176 7.05275 63.1493 8.40933C62.0947 8.60351 61.0373 8.78514 59.9836 8.97394C53.1033 10.2054 46.361 11.9764 39.6562 13.9348C31.377 16.3533 23.8586 20.241 16.9819 25.4323C15.3133 26.692 13.863 28.0553 13.3884 30.2514C13.1401 31.4017 12.5114 32.4794 11.6331 33.2839C10.1221 34.6683 9.03757 36.4253 7.6132 37.8541C4.85019 40.626 4.22195 44.107 4.22195 47.722C4.22151 53.4062 6.15222 58.7034 8.35486 63.8032C10.5267 68.8322 14.0197 73.0688 17.8977 76.9201C22.9241 81.911 28.2496 86.5203 34.6418 89.7285C39.3646 92.0991 44.0462 94.5503 49.1048 96.1603C51.0203 96.7697 52.9372 97.3653 54.8648 97.9357C64.667 100.833 74.5871 103.326 84.2688 106.644C93.4272 109.783 102.639 112.761 112.037 115.116C117.127 116.391 122.278 117.325 127.464 118.104C134.369 119.143 141.291 119.953 148.286 119.853C157.831 119.716 167.353 119.333 176.624 116.694C181.56 115.29 186.326 113.484 190.674 110.689C196.244 107.109 199.862 101.797 203.155 96.2576C207.124 89.5801 210.761 82.7129 214.053 75.6685C215.793 71.9432 217.329 68.1519 218.082 64.0647C219.297 57.4809 219.249 50.8437 219.046 44.1962ZM53.9512 105.051C52.6594 104.732 52.6385 103.532 52.3085 102.58C52.1812 102.212 52.3969 101.81 52.7313 101.513C52.9818 101.291 53.2899 101.109 53.1868 100.627C52.9559 99.5452 53.5391 99.6403 54.2955 99.8758C55.6712 100.304 57.0692 100.659 58.5101 100.871C58.2993 100.778 58.0975 100.643 57.8769 100.596C55.9462 100.191 54.2437 99.1941 52.4232 98.5062C50.1929 97.6631 47.8331 97.1393 45.6568 96.1845C41.3993 94.3153 36.907 92.9834 32.9009 90.5147C32.1137 90.0299 31.3037 89.3742 30.0825 89.1971C30.8987 90.1164 31.8239 90.5393 32.6687 91.0098C36.2975 93.0323 40.0643 94.7669 43.8717 96.4316C46.4003 97.5371 48.9918 98.4133 51.5981 99.2771C51.8664 99.3659 52.1384 99.4479 52.4081 99.5336C53.0131 99.7251 52.8492 100.203 52.8327 100.642C52.8072 101.336 52.3679 100.799 52.141 100.868C51.8834 100.946 51.5842 100.886 51.2842 100.886C51.3145 101.311 51.7195 101.184 51.9022 101.374C52.2705 101.757 52.0544 102.095 51.9289 102.469C51.7441 103.02 51.3766 102.783 51.035 102.712C50.2818 102.556 49.8585 101.478 48.7779 102.044C48.4721 102.205 47.7509 101.519 47.4112 101.031C47.2049 100.735 47.0388 100.409 46.69 100.62C45.5251 101.324 44.5262 100.372 43.7587 99.9946C42.6424 99.4452 41.4422 99.5215 40.3849 99.0053L40.4224 99.025C39.783 98.1501 38.7864 97.942 37.8594 97.6066C37.5066 98.0039 38.2215 98.1196 38.0125 98.4887C37.6205 98.6577 37.2807 98.3873 36.9257 98.255C36.4399 98.0739 36.1028 97.7954 35.4237 98.1021C34.7807 98.3923 33.9814 97.6752 33.4782 97.1456C32.5066 96.1235 31.6426 95.2046 29.9954 95.3419C29.3382 95.3966 28.5947 94.6297 27.9183 94.1938C24.0622 91.7098 20.4861 88.8419 17.2185 85.6417C13.9581 82.4483 10.8442 79.1261 8.36691 75.1913C6.95371 72.9473 5.38601 70.8139 4.39341 68.3407C1.81035 61.9013 -0.181535 55.3274 0.0131441 48.2704C0.137274 43.7863 1.07316 39.4995 3.0003 35.4437C3.15613 35.1154 3.33786 34.7777 3.58434 34.5172C6.01693 31.948 7.61633 28.8567 9.22957 25.7467C11.2697 21.8137 14.8757 19.4257 18.3223 16.9062C25.725 11.4952 34.1891 8.46584 42.8594 5.92802C52.0625 3.23413 61.4392 1.4273 70.9816 0.444282C77.9967 -0.278182 84.9739 -0.057093 91.9761 0.659093C99.3261 1.41071 106.724 1.27079 114.101 1.52955C123.787 1.86858 133.503 1.72642 143.144 2.96416C147.765 3.55792 152.371 4.26648 156.982 4.93289C163.313 5.84774 169.593 5.28852 175.86 4.2907C181.467 3.39827 187.081 2.26816 192.773 2.51391C204.742 3.03098 213.995 8.16178 220.357 18.6933C223.082 23.2048 223.569 27.9275 223.749 32.835C223.966 38.7793 224.068 44.7317 223.95 50.6836C223.744 61.0802 221.195 70.8467 216.55 80.1544C212.678 87.9136 208.628 95.5594 203.998 102.884C200.13 109.002 195.618 114.545 189.286 118.295C185.035 120.813 180.447 122.498 175.698 123.837C172.78 124.659 169.823 125.227 166.851 125.689C164.065 126.121 161.233 126.26 158.42 126.516C156.772 126.666 155.132 126.898 153.464 126.759C152.271 126.659 151.029 127.068 149.926 126.99C148.724 126.905 147.505 126.937 146.3 126.861C145.216 126.793 144.076 126.71 143.062 126.733C141.792 126.762 140.54 126.296 139.188 126.658C138.118 126.943 136.859 126.163 135.635 126.334C134.736 126.46 133.882 125.891 133.055 126.045C132.233 126.2 131.628 126.226 131.098 125.515C130.999 125.384 130.664 125.27 130.545 125.338C129.322 126.039 128.282 124.966 127.137 125.014C125.866 125.068 124.667 124.636 123.427 124.474C120.066 124.035 116.816 122.989 113.474 122.5C111.063 122.149 108.706 121.511 106.374 120.947C104.434 120.478 102.388 120.024 100.521 119.159C99.8052 118.984 99.0894 118.81 98.3737 118.635C96.697 118.099 95.0199 117.562 93.3428 117.027C92.6293 116.848 91.9689 116.42 91.1866 116.566C90.9558 116.178 90.5535 116.106 90.1672 115.979C85.7843 114.54 81.4054 113.092 77.0251 111.646C71.42 110.035 65.8253 108.388 60.2055 106.832C58.1158 106.254 56.1096 105.38 53.9512 105.051Z" fill="black"/>
</svg>
