<svg width="17" height="159" viewBox="0 0 17 159" fill="none" xmlns="http://www.w3.org/2000/svg">
<path fill-rule="evenodd" clip-rule="evenodd" d="M16.1653 140.574C16.2085 140.576 16.2518 140.577 16.295 140.579V132.152H16.1653V140.574ZM11.4617 142.652C11.1577 147.264 9.98176 151.761 9.56529 156.359C10.8649 151.453 11.8189 144.444 11.4617 142.652ZM8.24019 155.981C8.39631 152.841 9.18385 149.789 9.58518 146.683C10.438 140.08 9.99862 133.486 9.68941 126.872C9.25693 117.617 5.96235 109.048 3.49553 100.281C1.1299 91.876 -0.300291 83.3828 0.053472 74.6307C0.226461 70.362 1.20774 66.2878 2.76811 62.3329C4.44567 58.0812 6.22659 53.8682 8.23976 49.7604C10.7801 44.5775 11.8094 39.0543 12.084 33.3855C12.3098 28.7301 12.318 24.059 11.9564 19.4058C11.6745 15.783 10.5051 12.3935 8.84349 9.15312C7.7476 7.01641 7.00072 4.75153 6.57517 2.38701C6.47656 1.8407 6.48305 1.31099 6.62706 0.786396C6.75551 0.320135 6.76632 -0.475277 7.53958 0.376342C7.66716 0.516433 7.81593 0.275851 7.94567 0.269889C8.62898 0.24136 9.09346 0.55433 9.11076 1.24968C9.17044 3.67892 10.1958 5.81819 11.2411 7.92126C12.51 10.474 13.9964 12.9326 14.851 15.6608C15.7155 18.4196 16.5255 21.1844 16.4784 24.1446C16.4459 26.1693 16.6903 28.2081 16.9476 30.2235C17.1111 31.5039 16.8464 32.7608 16.7737 34.0008C16.7249 34.8286 17.06 35.5341 16.9896 36.3138C16.8996 37.3089 16.8957 38.3117 16.8438 39.3102C16.6989 42.0861 16.1211 44.79 15.5287 47.5002C14.473 52.3268 11.8916 56.5768 10.3104 61.2058C9.1233 64.6812 7.66932 68.0843 6.85671 71.659C6.38228 73.7463 6.35763 75.9609 6.35417 78.1185C6.34033 87.2704 8.38291 96.0727 11.2217 104.725C12.1727 107.623 13.1241 110.532 13.9077 113.465C14.5413 115.835 15.1109 118.252 15.4711 120.725C15.9166 123.781 16.33 126.837 16.5121 129.908C16.9887 137.936 16.6717 145.914 14.4535 153.724C14.3164 154.207 14.079 154.673 14.0111 155.164C13.7162 157.296 12.0883 158.16 10.3731 158.94C9.7106 159.242 8.29209 158.344 8.24538 157.605C8.21121 157.066 8.23846 156.522 8.24019 155.981Z" fill="black"/>
</svg>
