<svg width="193" height="99" viewBox="0 0 193 99" fill="none" xmlns="http://www.w3.org/2000/svg">
<path fill-rule="evenodd" clip-rule="evenodd" d="M7.89605 50.5181C7.71724 51.4336 7.33045 52.3141 7.47895 53.2845C7.68654 52.374 8.17348 51.51 7.89605 50.5181ZM20.22 48.9013C20.1728 48.8161 20.1252 48.7317 20.0776 48.6465C19.4675 49.043 18.7488 49.2687 18.3436 49.9961C18.9691 49.631 19.5945 49.266 20.22 48.9013ZM177.795 67.2013C177.808 67.1376 177.821 67.0743 177.834 67.0105C177.037 66.8071 176.239 66.6029 175.442 66.3991C175.422 66.5135 175.401 66.6275 175.381 66.7418C176.186 66.895 176.99 67.0478 177.795 67.2013ZM144.984 75.9458C145.005 75.8671 145.026 75.7888 145.047 75.7101H141.975C143.165 75.8034 144.074 75.8748 144.984 75.9458ZM151.722 98.3898C151.731 98.3575 151.74 98.3257 151.748 98.2938H147.496C147.497 98.3257 147.499 98.3575 147.5 98.3898H151.722ZM141.873 97.6363V97.7035H146.494C146.494 97.6808 146.494 97.6589 146.493 97.6363H141.873ZM87.2702 94.9582C85.8339 94.8998 84.4153 94.516 82.9614 94.7797C84.408 94.6523 85.8182 95.1846 87.2702 94.9582ZM60.7762 22.633C61.0172 24.1623 62.2988 23.608 63.0455 24.0237C62.3817 23.4767 61.7294 22.9152 60.7762 22.633ZM121.826 97.9583C123.836 97.9979 125.863 98.6562 128.12 98.2961C125.892 98.1764 123.859 98.0674 121.826 97.9583ZM169.245 89.7989C170.384 89.6369 171.441 89.3237 172.371 88.6942C171.273 88.9356 170.069 88.8907 169.245 89.7989ZM30.8 82.7483C32.2393 83.2999 33.7143 83.7103 35.2534 83.8688C33.8187 83.3003 32.407 82.6397 30.8 82.7483ZM19.4694 23.9005C18.029 25.4839 17.3697 27.458 16.6902 29.4218C17.6168 27.5812 18.5431 25.7411 19.4694 23.9005ZM43.5099 20.8074C40.6443 21.5145 37.9755 22.6783 35.5094 24.3124C38.0987 22.9639 40.8143 21.9083 43.5099 20.8074ZM21.5062 49.9316C21.4629 49.1662 21.096 49.1577 20.7515 49.2614C19.8152 49.542 19.0335 50.1296 18.2089 50.6283C18.019 50.743 17.9265 50.9791 18.0428 51.1718C18.1755 51.3914 18.4115 51.2862 18.6019 51.2129C19.4061 50.9012 20.207 50.5795 21.012 50.2701C21.2887 50.1642 21.5147 50.0345 21.5062 49.9316ZM38.8113 16.473C41.5461 15.6957 44.3418 15.2182 47.0935 14.5492C44.1726 14.4981 41.4528 15.3341 38.8113 16.473ZM146.23 98.4435H129.147C134.842 98.6278 140.536 98.6834 146.23 98.4435ZM18.2442 77.7737C16.0286 76.1611 14.0924 74.1455 11.6201 72.8585C13.5671 74.8364 15.7784 76.4632 18.2442 77.7737ZM9.75748 39.1013C11.0541 35.0709 12.5034 31.1011 13.9945 27.1456C12.1968 30.9971 10.6631 34.9415 9.75748 39.1013ZM15.4972 24.0851C16.7024 22.2975 18.2815 20.8002 19.4134 18.9642C17.3505 20.0877 16.1583 21.8857 15.4972 24.0851ZM89.7256 40.9004C89.7705 40.8037 89.815 40.7069 89.8599 40.6102L83.2331 37.5513C84.7557 40.0555 87.472 39.9776 89.7256 40.9004ZM151.527 94.1237C145.301 94.1847 139.073 94.093 132.857 94.5551C139.085 94.6354 145.309 94.5356 151.527 94.1237ZM145.886 75.7853C148.838 76.6298 162.199 76.5066 163.45 75.6441C157.548 75.8832 151.718 75.8886 145.886 75.7853ZM37.1666 2.40113C36.7254 2.07371 36.3459 2.19923 36.0673 2.29058C32.6307 3.4191 29.0356 4.15225 25.982 6.25612C25.7847 6.39239 25.5714 6.52597 25.3457 6.59698C24.1835 6.96471 23.3331 7.82453 22.352 8.47631C22.195 8.58033 22.0166 8.81409 22.2242 9.00256C22.416 9.17683 22.5799 8.9661 22.756 8.85593C23.5123 8.38149 24.2222 7.84372 24.9962 7.38464C27.9597 5.62892 31.0352 4.1653 34.3663 3.25788C35.2757 3.00992 36.1701 2.70783 37.1666 2.40113ZM114.13 93.4481C103.287 92.1822 92.4585 90.7604 81.5278 90.5412C92.3948 91.5101 103.262 92.4789 114.13 93.4481ZM50.0267 1.32981C51.0761 0.336027 52.2104 0.527567 52.9468 1.72978C53.0784 1.94512 53.2146 2.10135 53.4161 1.9052C54.0227 1.31599 54.5841 1.62691 55.2456 1.8292C55.807 2.00116 56.2671 2.42416 56.8953 2.42839C57.1723 2.43031 57.4091 2.65179 57.4348 2.97921C57.4693 3.42716 57.9428 3.35385 58.079 3.49779C58.9136 4.38026 60.5525 3.62331 61.0721 5.02052C62.3149 4.80978 62.4623 6.26495 63.5014 6.58316C64.6698 6.9413 65.542 8.04985 66.453 8.94268C67.9403 10.4009 69.4318 11.8776 70.6087 13.5869C72.223 15.9318 74.4355 17.7067 76.2632 19.8428C76.7616 20.4255 77.5912 20.7291 78.0816 21.3725C79.1653 22.7954 81.0888 23.3028 81.9572 24.9534C84.4978 26.0539 86.0009 28.461 88.2602 29.9354C92.6803 32.8204 97.2186 35.4659 102.066 37.5805C106.181 39.3757 110.373 40.9522 114.69 42.1709C118.116 43.1382 121.669 43.4418 125.18 43.9597C132.112 44.9815 139.096 45.5841 146.038 46.5222C150.732 47.1564 155.309 48.2918 159.845 49.6683C166.439 51.6693 172.777 54.276 178.897 57.4066C182.747 59.3754 186.313 61.7733 189.361 64.9074C192.928 68.5774 194.166 76.1285 191.746 80.3063C190.802 81.9353 189.647 83.4112 188.18 84.6062C187.481 85.1754 186.825 85.8068 186.198 86.4294C184.909 87.7119 183.345 88.6101 181.972 89.7647C181.679 90.0108 181.354 90.3574 180.874 90.1608C180.723 90.0994 180.617 90.1416 180.511 90.2568C177.956 93.0343 174.555 94.382 171.149 95.6468C166.203 97.4835 161.016 98.1038 155.778 98.4347C148.119 98.9191 140.452 99.088 132.782 98.9575C125.883 98.8404 119.006 98.2785 112.136 97.6501C103.808 96.8882 95.4841 96.0821 87.1459 95.4242C77.315 94.6488 67.4648 94.116 57.6516 93.1034C51.3854 92.4574 45.1661 91.4844 38.987 90.3125C31.6675 88.9245 24.548 86.8018 18.0727 82.9971C12.8798 79.9459 8.31316 76.0502 4.86619 71.1127C0.542428 64.9205 -1.40457 57.9878 1.12453 50.6002C3.10146 44.8245 3.92991 38.9673 4.44448 32.9363C5.12712 24.943 8.54377 18.2491 15.275 13.504C17.0486 12.2538 18.2876 10.4132 20.0044 9.0824C21.8151 7.67905 23.5235 6.13713 25.5411 5.01898C30.8188 2.09329 36.4871 0.485344 42.4984 0.130284C43.1561 0.0918991 44.0115 -0.308071 44.5721 0.518355C44.6047 0.567104 44.8422 0.514516 44.9619 0.46001C46.5271 -0.255868 48.0939 0.299177 49.6564 0.457707C50.1226 0.50492 50.118 0.549831 50.0267 1.32981Z" fill="black"/>
</svg>
