<svg width="39" height="111" viewBox="0 0 39 111" fill="none" xmlns="http://www.w3.org/2000/svg">
<path fill-rule="evenodd" clip-rule="evenodd" d="M29.5632 108.002C29.3811 108.604 28.8613 109.136 29.397 109.959C28.143 109.706 28.239 108.767 28.0126 107.94C27.2009 108.609 27.2136 109.589 26.6071 110.22C25.5664 111.305 25.16 111.281 24.3704 110.001C23.8986 109.237 23.5883 108.415 22.358 108.265C21.0264 108.103 20.8069 108.424 21.2307 109.517C19.6869 109.82 18.3722 109.349 17.0634 108.78C16.7092 108.626 16.4184 108.774 16.097 109.129C14.1516 111.275 11.8912 110.944 10.4762 108.453C10.0244 107.659 9.59533 106.753 8.28486 106.825C7.37445 106.874 6.88415 105.917 6.4102 105.196C4.56404 102.389 3.47366 99.269 2.70785 96.024C2.12255 93.546 1.5325 91.0674 1.01528 88.5746C-0.205997 82.6881 -0.162192 76.7224 0.298557 70.7836C0.735028 65.1605 1.99483 59.6623 4.3809 54.5238C6.82029 49.2705 10.0798 44.5043 13.4945 39.8349C17.4919 34.3679 21.369 28.7888 23.2853 22.1783C24.7346 17.1788 24.8153 12.1403 22.9169 7.18264C22.4372 5.92855 21.9289 4.6734 21.5964 3.377C21.2967 2.20701 21.3996 1.06347 22.7454 0.464197C24.5277 -0.330252 25.0761 -0.105987 26.2409 1.14493C27.3941 2.38315 28.7995 3.34262 29.8361 4.75909C33.8746 10.2795 35.8348 16.6134 37.3437 23.1589C38.7919 29.4399 39.3339 35.7982 38.7967 42.2061C38.28 48.3718 36.6365 54.2403 33.9654 59.8734C31.6263 64.8061 29.607 69.8939 28.067 75.162C27.0304 78.7074 26.4879 82.3375 26.0092 85.9685C25.3531 90.941 27.0679 95.4945 28.8206 100.04C29.5189 101.851 30.376 103.598 30.9724 105.442C31.4062 106.782 30.8943 107.61 29.5384 108.017C29.8984 106.853 29.3764 105.685 29.8049 104.342C28.2232 105.577 28.2211 106.237 29.5632 108.002Z" fill="black"/>
</svg>
