<svg width="140" height="142" viewBox="0 0 140 142" fill="none" xmlns="http://www.w3.org/2000/svg">
<path fill-rule="evenodd" clip-rule="evenodd" d="M82.1797 140.739C82.1797 140.756 82.1797 140.773 82.1801 140.79H85.266V140.739H82.1797ZM79.5042 52.8244C80.5053 52.5103 81.3696 51.9546 82.1849 51.3119C81.1965 51.6487 80.312 52.1686 79.5042 52.8244ZM136.136 41.8307C136.216 42.513 135.701 43.2611 136.394 43.9621C136.738 43.1475 136.436 42.4891 136.136 41.8307ZM36.9452 92.5312C38.0599 91.9717 39.1216 91.3674 40.0109 90.5062C38.8928 91.0444 37.8622 91.7177 36.9452 92.5312ZM113.159 132.393C111.888 132.715 110.615 133.036 109.344 133.358C110.705 133.327 112.011 133.092 113.159 132.393ZM13.4978 75.3719C12.4881 76.3571 11.6649 77.9892 11.6496 78.8519C12.309 77.6105 12.9034 76.4912 13.4978 75.3719ZM41.7904 29.23C42.713 28.3677 43.6636 27.5446 44.2984 26.4488C43.1145 27.0695 42.4341 28.1421 41.7904 29.23ZM11.1019 69.41C10.1647 69.9444 9.54755 70.726 9.05186 71.6097C8.9741 71.7486 8.81784 71.8905 9.00139 72.0444C9.18195 72.196 9.32176 72.0545 9.41484 71.9189C9.98269 71.0864 10.5404 70.2469 11.1019 69.41ZM91.878 69.4985C93.1452 69.1653 94.2245 68.5443 95.1583 67.6752C93.8492 67.912 92.8869 68.7642 91.878 69.4985ZM95.4252 35.3466C95.386 35.2514 95.3467 35.1565 95.3075 35.0613L91.2522 36.7441C91.2851 36.8252 91.3187 36.9062 91.352 36.9869C92.6578 36.3146 94.1923 36.1974 95.4252 35.3466ZM8.42158 79.9745C9.15914 78.3432 9.89709 76.7119 10.6343 75.0803C9.56213 76.5592 8.75466 78.1558 8.42158 79.9745ZM29.8764 65.8882C28.8622 67.3215 27.8476 68.7549 26.8334 70.1883C28.2237 69.0328 29.1893 67.577 29.8764 65.8882ZM41.1949 79.6212C41.1306 79.5379 41.0663 79.455 41.002 79.3717C39.5085 80.5224 38.0338 81.6943 36.833 83.1871C38.2872 81.9983 39.741 80.81 41.1949 79.6212ZM88.4006 65.2813C89.5883 65.139 93.2604 62.7712 94.0181 61.8006C92.0492 63.0203 90.2249 64.1508 88.4006 65.2813ZM91.4791 58.5742C89.4533 59.8089 87.4275 61.0436 85.4014 62.2779C85.4462 62.3507 85.4911 62.4235 85.5359 62.4967C87.6761 61.4447 89.6787 60.1652 91.4791 58.5742ZM39.5758 97.729C39.6237 97.8067 39.6715 97.8848 39.7194 97.9625C41.6076 97.3627 43.0801 96.0854 44.6248 94.9247C44.5788 94.8496 44.5324 94.7749 44.4864 94.6999C42.8498 95.7097 41.2128 96.7196 39.5758 97.729ZM67.7158 22.0191C65.2198 22.8613 60.6295 25.8535 60.0456 27.0206C61.4041 26.14 62.6845 25.3706 63.8972 24.5064C65.1409 23.6206 66.462 22.8617 67.7158 22.0191ZM67.1798 4.94284C68.6904 4.23214 70.2186 3.60957 71.7902 3.11959C73.3401 2.63633 74.924 2.26547 76.493 1.84495C72.9906 2.04289 68.8014 3.44973 67.1798 4.94284ZM36.633 86.1102C38.9695 84.3287 41.3855 82.6411 43.4042 80.485C40.9982 82.1843 38.636 83.9355 36.633 86.1102ZM51.3384 26.9C49.0823 28.6336 46.6599 30.1965 45.2876 32.8392C47.276 30.8303 49.3283 28.8868 51.3384 26.9ZM121.191 17.4573C122.957 19.5068 124.819 21.4548 127.035 23.032C125.437 20.8136 123.405 19.04 121.191 17.4573ZM77.0493 63.5507C74.7782 64.1564 69.4355 67.4982 68.3854 68.9749C71.3083 67.1449 74.0863 65.406 77.0493 63.5507ZM17.8428 75.2528C19.2985 74.8711 22.7329 70.5572 23.0024 68.7885C20.9322 70.8239 19.5441 73.1666 17.8428 75.2528ZM41.9066 44.4875C44.4704 41.4053 47.6322 38.8744 50.0281 35.6566C46.7612 38.0979 44.1085 41.0965 41.9066 44.4875ZM45.7328 81.9259C45.6236 81.7884 45.5145 81.651 45.4057 81.5139C42.2962 83.8492 39.1859 86.1834 36.4289 88.962C39.8438 87.0162 42.7089 84.3698 45.7328 81.9259ZM30.1415 98.6231C34.0925 96.0455 38.2158 93.7188 41.9433 90.3206C37.4525 92.3926 30.8772 96.9888 30.1415 98.6231ZM80.9356 141.579C88.8985 141.67 96.8566 141.252 104.802 140.498C104.808 140.58 104.815 140.662 104.822 140.744C103.19 140.899 101.557 141.042 99.9265 141.212C94.8877 141.739 89.8282 141.854 84.77 141.986C81.0238 142.083 77.3285 141.681 73.6646 140.886C69.3117 139.941 64.8706 139.632 60.4527 139.152C51.9671 138.23 43.5496 136.897 35.3138 134.599C34.6648 134.417 33.9153 134.312 33.3915 134.008C32.094 133.256 30.5964 132.939 29.3841 131.985C28.7392 131.478 27.8118 131.386 27.1433 130.767C25.3299 129.088 23.0802 128.082 20.958 126.87C17.6851 124.999 14.352 123.089 11.9752 120.114C7.70794 114.771 3.93188 109.07 1.81002 102.499C-0.385852 95.6981 -0.655757 88.8286 1.39694 81.871C2.28142 78.8739 2.95581 75.8406 4.63954 73.1554C5.51281 71.7632 6.55056 70.496 7.59691 69.2359C8.85148 67.7264 9.88101 66.0495 11.3842 64.7211C13.4649 62.8829 15.5486 61.072 17.8013 59.4347C20.1677 57.7153 21.0069 55.1003 21.5452 52.3266C22.2099 48.8993 22.4959 45.4048 23.4779 42.0324C26.2237 32.602 31.66 25.1932 39.7541 19.586C43.839 16.7559 48.169 14.3635 52.4023 11.8008C56.3768 9.39492 60.5462 7.29791 64.4968 4.86778C73.4239 -0.624395 83.0193 -0.689005 92.8611 0.8971C97.2305 1.60108 101.37 3.142 105.467 4.80877C109.942 6.62904 114.49 8.25996 118.585 10.9041C125.951 15.6609 131.737 21.7618 135.173 29.9388C136.828 33.8763 138.478 37.8167 139.286 42.0283C140.08 46.1704 140.264 50.3252 139.573 54.5363C138.74 59.6166 137.222 64.5418 136.351 69.609C136.183 70.5864 136.121 71.5604 136.126 72.5433C136.139 75.1393 135.791 77.7382 136.056 80.3282C136.376 83.4604 136.872 86.5755 137.184 89.7085C137.662 94.5057 137.541 99.2935 137.01 104.095C136.511 108.614 135.618 113.038 134.379 117.396C133.64 119.996 132.633 122.526 131.292 124.861C130.659 125.962 130.38 127.456 128.933 127.989C126.489 132.053 122.283 133.873 118.462 136.179C116.788 137.189 114.931 137.822 113.174 138.65C111.743 139.324 110.252 139.284 108.804 139.581C104.854 140.393 100.82 140.61 96.8054 140.923C91.5288 141.335 86.2395 141.464 80.9356 141.579Z" fill="black"/>
</svg>
