<svg width="65" height="56" viewBox="0 0 65 56" fill="none" xmlns="http://www.w3.org/2000/svg">
<path fill-rule="evenodd" clip-rule="evenodd" d="M25.2503 28.3952C26.0747 28.3711 26.594 27.8956 27.051 27.3945C28.3339 25.9876 29.635 24.6126 30.6756 22.9787C31.1534 22.2273 31.4545 21.6813 31.2017 20.765C29.3324 23.487 27.6707 26.2293 25.2503 28.3952ZM13.1667 0.333976C12.1498 1.30626 11.1536 2.30121 10.1112 3.24601C7.93932 5.21517 6.12559 7.46455 4.68349 10.0149C4.54594 10.2589 4.17914 10.5425 4.62461 10.7585C4.97548 10.9288 5.1304 10.5743 5.28533 10.2956C6.95571 7.29093 9.04213 4.60364 11.7555 2.48882C12.6078 1.82472 13.3902 1.15241 14.1083 0.351338C14.8101 -0.431891 17.0326 0.198936 17.4192 1.21704C17.5509 1.56428 17.4023 1.95879 17.1513 2.0075C15.6214 2.30652 14.9983 3.79195 13.7854 4.53612C12.9495 5.04879 12.7849 6.39966 11.9896 7.15396C11.7333 7.39751 11.5571 8.27334 11.0339 7.34494C10.9162 7.13611 10.6971 7.18965 10.7309 7.42404C10.8356 8.14167 9.98712 8.06596 9.79165 8.64711C11.4741 8.69871 10.5392 9.36523 10.2193 10.0645C9.7347 11.1265 9.35487 12.2507 9.06336 13.3827C8.6261 15.0808 7.46875 16.5628 7.42194 18.3483C7.32396 22.0667 6.94268 25.8531 9.20188 29.1953C9.47457 29.5995 9.7265 30.0051 10.2873 30.0465C14.6667 30.3702 18.9732 30.2433 22.8676 27.8464C25.7291 26.0855 27.6924 23.4817 29.4782 20.7095C31.7031 17.2568 32.3971 13.4164 32.4705 9.39995C32.4874 8.48506 32.4734 7.52242 33.3798 6.93018C33.7065 6.71701 34.0984 6.39581 34.456 6.54628C34.8219 6.70061 34.8112 7.20315 34.8494 7.59091C34.8779 7.87931 34.6795 8.1928 34.9396 8.46143C35.3754 8.55596 35.4131 8.14553 35.611 7.95117C35.875 7.69315 35.9633 7.16842 36.4812 7.29671C36.945 7.4115 36.9855 7.83783 37.0637 8.23331C37.0907 8.37028 36.9136 8.78311 37.318 8.61287C39.0719 7.87545 39.0526 9.71247 39.4551 10.3626C40.3263 11.7689 39.9653 13.55 39.654 15.0967C38.5101 20.7848 35.3576 25.3983 31.8107 29.885C30.7765 31.1939 29.8305 32.5158 28.3976 33.1341C26.9796 33.7466 25.7725 35.1573 23.9636 34.6962C22.9086 36.0601 21.2797 35.2431 19.9452 35.6767C18.4385 36.1658 16.6638 35.9854 15.0219 35.8696C12.1136 35.6647 9.34522 34.8535 6.77955 33.4356C4.35964 32.0987 2.99814 29.8382 1.82148 27.4846C1.04783 25.9365 0.393862 24.3213 0.158338 22.5576C-0.563196 17.1565 1.24474 12.517 4.28869 8.19714C5.88234 5.93619 7.54115 3.74903 9.77187 2.07261C10.7685 1.32362 11.7579 0.550039 12.9046 0.0373711C12.9925 0.136239 13.0793 0.235108 13.1667 0.333976Z" fill="black"/>
<path fill-rule="evenodd" clip-rule="evenodd" d="M56.6682 45.5586C55.8625 46.6544 55.0568 47.7508 54.2511 48.8466C55.5521 48.1034 56.2895 46.9587 56.6682 45.5586ZM58.9894 41.3793C59.7536 41.076 59.8568 40.363 60.2207 39.8718C60.4844 39.5163 60.5742 38.8608 61.2333 39.1119C61.9019 39.3663 61.5174 39.9097 61.4754 40.351C61.4639 40.4751 61.4735 40.6011 61.4735 40.7449C62.1345 40.8134 62.0949 39.6653 62.7946 39.9911C63.3262 40.2379 63.4413 41.1699 63.6653 41.2748C65.2256 42.0041 63.4909 42.9169 63.9542 43.6615C64.3893 43.6663 64.1094 42.891 64.6214 42.9356C61.4835 52.9617 55.4436 57.2028 45.6712 55.7083C39.3548 54.7418 35.3672 51.0819 33.5241 45.1561C32.2265 40.984 33.6889 37.1846 36.1443 33.7538C36.4256 33.3604 36.822 32.8424 37.4362 33.2291C38.4502 33.8659 40.1013 33.796 40.098 35.5933C40.0937 38.027 39.6653 40.4487 39.8788 42.8872C40.0985 45.4043 40.8239 47.7335 42.4684 49.7101C42.8127 50.1245 43.2096 50.4638 43.766 50.4993C47.7231 50.7475 51.3066 50.0407 53.7873 46.5284C55.1251 44.6338 56.1596 42.581 56.972 40.4128C57.2548 39.6581 57.6521 38.9925 58.3647 38.5876C58.5715 38.4707 58.8872 38.4008 59.0979 38.4722C59.4155 38.5805 59.2431 38.8972 59.2282 39.1488C59.1881 39.8584 58.806 40.5374 58.9894 41.3793Z" fill="black"/>
</svg>
