<svg width="69" height="80" viewBox="0 0 69 80" fill="none" xmlns="http://www.w3.org/2000/svg">
<path fill-rule="evenodd" clip-rule="evenodd" d="M36.1829 15.3739C28.7019 20.8313 22.1742 27.2526 16.6316 34.67C11.078 42.102 6.62959 50.0972 4.24952 59.1361C10.3978 41.2462 21.8079 27.2321 36.1829 15.3739ZM9.23242 60.55C10.0664 59.3654 10.4829 58.0322 10.632 56.6038C11.1401 56.5359 11.092 56.0568 11.236 55.7421C12.0674 53.923 12.7659 52.0432 13.7417 50.2898C13.8311 50.1288 14.0411 49.9418 13.7494 49.6527C12.6134 51.9629 11.3531 54.1672 10.6648 56.6346C10.031 57.8888 9.53866 59.1937 9.26011 60.5786C8.73622 61.8033 8.41763 63.0844 8.20339 64.3941C8.51559 63.1049 9.32016 61.9472 9.23242 60.55ZM8.6685 69.5188C10.6959 57.6146 16.115 47.2366 23.302 37.649C23.0678 37.9171 22.8199 38.1746 22.6005 38.4543C15.7959 47.1319 10.8186 56.7089 8.31924 67.5174C7.52744 70.94 6.85363 74.3925 5.83226 77.7596C5.63804 78.3993 5.71342 79.2256 4.52211 78.6192C3.95094 78.3284 3.09824 78.8647 2.34179 78.9275C1.72718 78.9788 1.69268 79.1718 1.60494 78.5974C1.53892 78.1666 1.044 77.9808 1.14324 77.4944C0.792702 77.6294 0.936665 78.2259 0.555461 78.129C0.135498 78.0222 0.0869427 77.6025 0.0660724 77.181C-0.112817 73.6208 0.080128 70.0825 0.54098 66.5493C1.49378 59.2441 3.68346 52.3267 7.02698 45.7813C11.4029 37.2151 17.1334 29.6456 23.8864 22.82C31.9155 14.7052 41.2812 8.58293 51.6321 3.9104C55.3653 2.22493 59.1607 0.704282 63.2692 0.18459C63.6909 0.131212 64.1143 0.0778331 64.5385 0.0539196C64.8805 0.0347034 65.3337 -0.0472858 65.0394 0.574466C64.9397 0.785844 64.9972 1.04334 65.2366 0.956655C66.2422 0.593682 66.761 1.45371 67.5051 1.75947C68.3778 2.11817 68.5341 2.96325 68.733 3.60935C68.9719 4.38483 68.4302 4.93569 67.5353 5.24913C59.0896 8.20971 51.6223 12.9454 44.5068 18.2666C34.1214 26.0338 25.28 35.2768 18.3106 46.2651C14.4019 52.4275 11.5137 59.043 9.62854 66.0983C9.32272 67.2423 8.98922 68.3787 8.6685 69.5188Z" fill="black"/>
<path fill-rule="evenodd" clip-rule="evenodd" d="M23.7362 65.9023C23.0625 66.9043 22.7647 68.0509 22.7259 69.2649C23.0625 68.144 23.3996 67.0231 23.7362 65.9023ZM24.9909 70.4123C25.4553 68.9216 26.2977 67.5602 26.3914 65.973C25.7689 67.4102 25.1801 68.8563 24.9909 70.4123ZM24.9747 73.8675C26.8716 69.5087 28.4038 65.0009 30.598 60.7634C27.7889 64.7422 26.4447 69.3322 24.9747 73.8675ZM28.8213 49.8888C23.221 55.6047 19.6783 64.6668 19.5849 70.0858C21.3719 62.6264 21.5986 62.1336 28.8213 49.8888ZM48.7576 40.758C49.1415 40.4126 49.4414 40.143 50 39.6409C49.7158 40.6771 49.2407 41.2033 48.7657 41.7256C46.5356 44.1741 44.1748 46.4942 41.7543 48.7582C37.5771 52.665 33.7578 56.8637 30.8929 61.84C29.0714 65.0042 27.8196 68.4106 26.4839 71.7837C26.1051 72.7403 25.7519 73.7563 25.1328 74.5516C24.7894 74.993 23.9982 75.1425 23.6688 75.7457C23.1933 75.4846 23.6739 75.041 23.3659 74.8014C22.6454 75.1712 22.0293 76.1097 21.0643 75.1564C20.9318 75.0254 20.7822 75.4311 20.6476 75.5899C20.3408 75.9513 19.9761 76.0987 19.5206 75.9311C19.06 75.7617 18.7792 75.4959 18.7119 74.9416C18.6182 74.1737 19.0072 73.4808 19.0034 72.5967C18.3796 72.9585 18.5522 73.531 18.3472 73.9214C18.2036 74.1944 18.2756 74.699 17.7793 74.6653C17.3221 74.6345 17.1448 74.2571 17.0775 73.8629C17.02 73.5259 16.9893 73.1771 17.0034 72.8359C17.3766 63.8476 20.3267 55.8027 26.0288 48.765C28.9662 45.1391 32.1238 41.734 35.9469 38.9855C37.8216 37.6381 39.9213 36.7783 42.1339 36.1642C42.8493 35.9658 43.5714 35.8373 44.2025 36.4498C44.3452 36.5884 44.6251 36.6313 44.8458 36.6423C46.6728 36.7303 47.925 37.8895 49.1364 39.0133C49.6421 39.4822 48.6988 39.9796 48.7576 40.758Z" fill="black"/>
<path fill-rule="evenodd" clip-rule="evenodd" d="M6 78C6.81362 75.7283 7.00725 73.3211 7.98294 71C8.16667 71.9814 6.82399 76.8174 6 78Z" fill="black"/>
</svg>
