<svg width="169" height="188" viewBox="0 0 169 188" fill="none" xmlns="http://www.w3.org/2000/svg">
<path fill-rule="evenodd" clip-rule="evenodd" d="M166.684 38.9388C166.809 38.5672 167.07 38.7963 167.351 38.8125C167.748 38.8361 168.006 38.5451 168.051 38.116C168.076 37.8739 168.161 37.5833 167.835 37.5173C167.255 37.3996 167.545 37.9622 167.375 38.178C167.129 38.4885 166.801 38.4084 166.5 38.4849C166.324 38.5297 166.285 38.7175 166.345 38.8836C166.394 39.0198 166.509 39.0411 166.684 38.9388ZM150.274 176.551C152.424 174.799 154.638 173.103 155.897 170.531C154.143 172.652 152.324 174.711 150.274 176.551ZM156.679 79.0493C156.066 79.6404 155.809 79.3919 155.847 78.6632C155.901 77.6236 156.072 76.5927 156.171 75.5563C156.422 72.91 157.154 70.3412 157.824 67.7728C157.942 67.3197 158.002 66.1946 159.088 66.9328C159.309 66.5417 159.939 66.9237 160.108 66.3462C160.334 65.5764 159.54 66.033 159.501 65.823C159.363 65.0686 158.637 64.4001 158.873 63.6629C159.233 62.5369 159.508 61.3936 159.829 60.2604C160.206 58.9284 160.683 57.6245 161.074 56.2962C161.805 53.8097 162.542 51.3232 163.206 48.8182C163.545 47.5442 163.919 46.2815 164.267 45.0129C164.631 43.685 164.661 42.2703 164.933 40.9125C165.634 37.4023 165.617 33.845 165.089 30.3651C164.528 26.6702 162.957 23.2578 160.932 20.0852C155.649 11.8088 148.122 6.60551 138.676 4.16021C132.708 2.6151 126.65 2.86492 120.608 3.81716C119.577 3.97963 118.562 4.27472 118.612 2.4929C118.3 3.65106 117.74 3.97239 116.689 3.71487C116.035 3.55511 115.42 4.32133 114.667 4.10409C114.811 5.46048 113.689 4.54762 113.257 4.87936C113.166 4.94951 113.001 4.92553 112.912 4.99658C112.218 5.54964 111.995 5.14005 111.859 4.36387C111.85 5.69446 111.264 6.2715 110.05 6.20135C109.48 6.16832 108.83 6.66072 108.776 6.90738C108.6 7.71433 107.952 7.84694 107.439 8.0058C106.433 8.31672 105.607 8.7693 104.71 9.36625C103.462 10.1976 102.006 10.8 100.814 11.783C100.155 12.3266 99.1602 12.3614 98.659 12.8308C97.9545 13.4911 96.8677 13.6427 96.4142 14.5804C96.3883 14.6348 96.1758 14.661 96.0955 14.6176C95.6547 14.3777 95.5812 14.3564 95.4985 14.8647C95.4309 15.2806 95.1812 15.5001 94.8929 15.5435C94.1012 15.6626 93.6504 16.5071 92.7511 16.4356C92.4066 16.4084 91.9658 16.6673 91.7837 17.0945C91.1977 18.4717 89.8911 19.1112 88.7517 19.8426C86.6534 21.1877 84.597 22.6011 82.4924 23.9371C80.731 25.055 78.9819 26.2539 77.1442 27.1912C74.5548 28.5127 71.8051 29.5011 68.897 30.1203C62.3217 31.5197 55.8709 31.3653 49.558 29.0504C45.584 27.5931 41.7216 25.8271 37.5647 24.9029C35.6367 24.4748 33.6583 24.0068 31.7099 24.3345C27.858 24.9826 24.4146 26.6712 21.2314 28.9223C20.7983 29.2282 20.3788 30.0691 19.5576 29.3907C19.3102 29.1866 19.3048 29.6012 19.2353 29.7514C18.3106 31.7509 16.4829 33.024 15.0425 34.5529C13.8994 35.7662 13.04 37.1516 12.0794 38.4374C10.7175 40.259 9.83002 42.4327 8.7337 44.4531C8.71236 44.4924 8.61158 44.4897 8.62838 44.4852C8.17849 44.2788 8.93662 43.9819 8.34147 43.6923C8.48447 44.5314 7.15888 45.045 8.07317 46.0262C8.15398 46.1127 8.04003 46.8133 7.42718 46.9052C7.15117 46.9463 6.62139 47.2337 6.93599 47.7379C7.2288 48.2077 7.21154 49.2862 6.82794 49.574C6.30316 49.9678 6.31224 49.966 6.42754 50.5213C6.4684 50.7177 6.51153 50.9435 6.45524 51.125C5.78382 53.2784 5.46513 55.5065 5.13147 57.7209C4.88497 59.3593 4.32613 61.0375 4.92718 62.6984C5.48375 64.2377 5.23225 65.8095 5.31941 67.3704C5.4388 69.489 4.91402 71.5554 4.9181 73.6722C4.92264 76.2116 5.40748 78.7049 5.45696 81.2262C5.55684 86.3051 7.75358 90.7413 10.1691 94.9231C11.9441 97.9961 14.8559 100.376 17.7427 102.591C22.7681 106.446 28.0137 110.018 32.8053 114.174C37.2805 118.055 41.7062 121.99 45.8046 126.273C50.0714 130.733 54.4786 135.082 58.1266 140.076C63.4494 147.363 69.109 154.384 75.1976 161.029C81.3007 167.69 88.5015 173.024 96.4405 177.404C107.424 183.463 119.073 185.229 131.362 183.138C135.875 182.37 140.325 181.406 144.391 179.072C154.797 173.099 160.07 163.626 162.66 152.418C164.431 144.756 163.954 136.98 162.938 129.25C162.536 126.192 162.49 123.084 161.676 120.08C161.146 118.128 161.063 116.081 160.342 114.157C160.084 113.469 160.476 112.494 160.138 111.891C159.524 110.796 159.375 109.58 158.884 108.472C158.495 107.595 158.856 106.561 158.462 105.759C157.68 104.164 157.574 102.422 157.113 100.763C156.123 97.2064 155.991 93.5088 155.429 89.8814C155.207 88.448 155.374 87.012 155.335 85.5782C155.261 82.9198 155.664 81.3755 156.618 79.6177C156.706 79.4561 156.654 79.2199 156.673 79.0298C157.001 79.3294 157.149 79.9486 157.806 79.6562C158.618 79.2946 157.808 78.8615 157.862 78.4677C157.899 78.1998 158.085 77.8771 157.564 77.8943C157.19 77.9065 156.941 77.9911 156.992 78.4559C157.018 78.6859 156.949 78.9389 156.679 79.0493ZM162.276 109.131C162.403 109.23 162.642 109.331 162.641 109.429C162.605 111.479 163.819 113.189 164.181 115.124C164.591 117.316 165.072 119.492 165.559 121.669C166.28 124.897 166.83 128.145 167.144 131.46C167.456 134.764 167.876 138.066 167.929 141.381C168.035 147.867 167.268 154.237 165.233 160.455C164.578 162.458 163.746 164.388 162.836 166.235C161.872 168.191 160.592 170.057 159.487 171.95C158.51 173.626 157.208 174.968 156.052 176.424C154.838 177.955 153.172 179.158 151.607 180.38C148.326 182.942 144.704 184.877 140.629 185.878C136.985 186.774 133.328 187.622 129.566 187.851C122.291 188.293 115.09 187.802 108.085 185.716C98.1965 182.771 89.3782 177.8 81.2512 171.486C71.2426 163.71 63.5066 153.874 55.9403 143.909C49.8172 135.845 42.9841 128.487 35.6058 121.564C28.6138 115.004 20.7811 109.543 13.2075 103.732C9.28708 100.723 5.63129 97.3607 3.19212 92.9512C1.37535 89.6677 0.338035 86.1136 0.135566 82.3771C-0.137722 77.3236 -0.0419352 72.271 0.833313 67.2627C0.900046 66.8794 0.830589 66.4195 1.35628 66.2553C1.61141 66.1756 1.64591 65.8973 1.53424 65.7493C0.431098 64.2915 1.03714 62.6473 1.11613 61.1189C1.32768 57.0136 1.86382 52.9417 3.19984 49.0183C3.31651 48.6756 3.32604 48.2697 4.0129 48.147C3.63383 51.0214 2.47849 53.7052 2.50164 56.575C3.95706 48.5897 6.63092 41.118 11.6572 34.4184C10.876 34.8846 9.61848 36.4894 8.997 37.6358C7.96377 39.5417 6.84383 41.4045 5.88732 43.3474C5.31396 44.5124 5.0039 45.8036 4.52452 47.0187C4.41102 47.307 4.40603 47.9153 3.90213 47.7492C3.42637 47.5922 3.67106 47.0916 3.80816 46.7816C4.96577 44.1598 5.90457 41.4425 7.30552 38.9275C9.75739 34.5271 12.8857 30.7159 16.9755 27.718C20.1033 25.4252 23.4213 23.6791 27.261 22.6966C32.3263 21.4008 37.0294 22.5074 41.8201 23.824C45.7978 24.9169 49.4354 26.9536 53.4757 27.8533C57.0675 28.6535 60.6439 28.4923 64.2783 28.0497C69.247 27.4446 73.5597 25.3741 77.6586 22.7079C79.4531 21.5407 81.1872 20.2816 82.9641 19.0863C83.4666 18.7483 83.9696 18.1201 84.6437 18.8795C84.7427 18.9908 85.006 18.9524 85.0709 18.7777C85.2938 18.1744 84.8203 18.7234 84.6964 18.5722C84.2906 18.0762 84.7509 17.9142 85.0046 17.7304C86.5999 16.5772 88.2115 15.4467 89.8176 14.3089C94.0113 11.3382 98.2991 8.51359 102.87 6.14659C104.524 5.29031 106.154 4.2978 107.999 3.97375C108.492 3.88731 109.473 3.14553 109.885 4.32314C110.221 4.09866 110.331 3.7805 110.399 3.39535C110.48 2.9387 110.814 2.61646 111.266 2.9052C111.63 3.13828 111.766 3.00296 111.962 2.76355C112.401 2.22679 112.847 1.65653 113.174 2.8432C113.698 2.65674 114.484 2.62053 114.693 2.2562C115.236 1.30533 116.162 1.49406 116.803 1.56285C117.708 1.66015 118.873 0.837814 119.59 2.5092C119.396 0.572601 119.391 0.525985 121.215 0.327755C129.579 -0.578313 137.662 0.324134 145.375 3.91491C153.204 7.5591 159.631 12.8041 164.108 20.2006C165.83 23.0455 167.547 25.9724 167.958 29.4237C168.047 30.1796 168.791 30.8702 168.029 31.65C169.522 33.1118 168.886 35.0339 168.742 36.6325C168.626 37.9128 169.17 39.3719 168.249 40.5758C168.046 40.841 168.329 41.032 168.466 41.2117C168.835 41.7 168.576 42.4518 168.39 42.5604C167.369 43.1573 167.867 43.9045 167.951 44.6857C168.098 46.0629 167.612 47.3862 167.111 48.6136C166.567 49.9474 166.088 51.2712 165.895 52.6919C165.833 53.1481 166.049 53.7382 165.232 53.6807C165.183 53.6771 165.126 53.7817 165.072 53.8364C166.209 54.3818 164.669 55.2114 165.279 55.8251C165.344 55.8893 165.35 56.1387 165.302 56.1672C163.938 56.9855 164.649 58.6315 163.869 59.7141C163.437 60.3133 163.885 61.2226 163.48 61.925C163.434 62.0064 163.523 62.2395 163.496 62.249C162.303 62.66 162.814 64.1394 161.91 64.74C161.483 65.0242 161.679 65.4614 161.777 65.8534C161.833 66.0738 162.364 65.5071 162.138 66.0344C161.774 66.8857 161.764 67.7913 161.559 68.6521C161.254 69.937 160.542 69.0816 159.929 68.6915C160.415 69.3084 160.134 70.2964 161.047 70.6435C161.297 70.7385 161.137 70.8974 161.093 71.0277C160.594 72.4869 160.43 74.0211 160.068 75.5092C159.898 76.2053 159.639 76.9185 159.247 77.5096C158.947 77.9622 158.917 78.4455 159.08 78.7755C159.304 79.2326 159.673 79.3358 158.812 79.4471C158.28 79.5163 158.887 80.0296 159.011 80.2975C159.202 80.7121 159.475 81.0533 159.205 81.548C158.914 82.0829 158.451 81.6951 158.044 81.7064C158.212 82.2106 158.661 82.0639 158.893 82.2925C159.067 82.4645 159.367 82.6491 159.106 82.8817C158.004 83.8643 158.872 84.7916 159.041 85.8054C159.295 87.3433 159.352 88.9386 159.276 90.4987C159.175 92.5996 159.719 94.5955 159.996 96.6348C160.329 99.0941 161.119 101.467 161.373 103.944C161.463 104.818 162.12 105.67 161.908 106.514C161.656 107.516 162.718 108.214 162.296 109.159C161.794 108.947 161.39 108.487 160.688 108.511C160.764 108.746 160.792 108.902 160.863 109.034C161.058 109.398 161.023 109.848 160.698 109.957C160.272 110.099 160.237 109.666 160.219 109.32C160.192 108.818 159.751 109.04 159.506 108.918C159.405 109.1 159.562 109.141 159.629 109.229C160.644 110.578 160.639 110.574 161.763 109.429C161.897 109.293 162.103 109.228 162.276 109.131Z" fill="black"/>
</svg>
